  0
SECTION
  2
HEADER
  9
$ANGBASE
  50
0.0
  9
$ANGDIR
  70
1
  9
$MEASUREMENT
  70
1
  0
ENDSEC
  0
SECTION
  2
TABLES
  0
TABLE
  2
LTYPE
  70
4
  0
LTYPE
  5
40F
  2
CONTINUOUS
  70
0
  3
Solid line
  72
65
  73
0
  40
0.0
  0
LTYPE
  5
410
  2
DASHDOT
 70
0
  3
Dash Dot ____ _ ____ _
 72
65
 73
4
 40
2.0
 49
1.25
 49
-0.25
 49
0.25
 49
-0.25
  0
LTYPE
  5
411
  2
DASHED
 70
0
  3
Dashed __ __ __ __ __
 72
65
 73
2
 40
0.75
 49
0.5
 49
-0.25
  0
LTYPE
  5
43B
  2
DOTTED
 70
0
  3
Dotted .  .  .  .
 72
65
 73
2
 40
0.2
 49
0.0
 49
-0.2
  0
ENDTAB
  0
TABLE
  2
STYLE
  70
4
  0
STYLE
  2
KICAD
  70
0
  40
0
  41
1
  42
1
  50
0
  71
0
  3
isocp.shx
  0
STYLE
  2
KICADB
  70
0
  40
0
  41
1
  42
1
  50
0
  71
0
  3
isocp.shx
  0
STYLE
  2
KICADI
  70
0
  40
0
  41
1
  42
1
  50
15
  71
0
  3
isocp.shx
  0
STYLE
  2
KICADBI
  70
0
  40
0
  41
1
  42
1
  50
15
  71
0
  3
isocp.shx
  0
ENDTAB
  0
TABLE
  2
LAYER
  70
1
  0
LAYER
  2
BLACK
  70
0
  62
7
  6
CONTINUOUS
  0
ENDTAB
  0
ENDSEC
  0
SECTION
  2
ENTITIES
0
LINE
8
BLACK
6
CONTINUOUS
10
165.2999999999999829
20
-96.9939999999999998
11
164.0999999999999943
21
-96.9939999999999998
0
LINE
8
BLACK
6
CONTINUOUS
10
164.0999999999999943
20
-96.9939999999999998
11
164.0999999999999943
21
-95.1940000000000026
0
LINE
8
BLACK
6
CONTINUOUS
10
164.0999999999999943
20
-95.1940000000000026
11
165.2999999999999829
21
-95.1940000000000026
0
LINE
8
BLACK
6
CONTINUOUS
10
165.2999999999999829
20
-95.1940000000000026
11
165.2999999999999829
21
-96.9939999999999998
0
LINE
8
BLACK
6
CONTINUOUS
10
170.9000000000000057
20
-96.9939999999999998
11
169.6999999999999886
21
-96.9939999999999998
0
LINE
8
BLACK
6
CONTINUOUS
10
169.6999999999999886
20
-96.9939999999999998
11
169.6999999999999886
21
-95.1940000000000026
0
LINE
8
BLACK
6
CONTINUOUS
10
169.6999999999999886
20
-95.1940000000000026
11
170.9000000000000057
21
-95.1940000000000026
0
LINE
8
BLACK
6
CONTINUOUS
10
170.9000000000000057
20
-95.1940000000000026
11
170.9000000000000057
21
-96.9939999999999998
0
LINE
8
BLACK
6
CONTINUOUS
10
174.7994539999999972
20
-93.3384700000000009
11
174.9805659999999818
21
-93.4134889999999984
0
LINE
8
BLACK
6
CONTINUOUS
10
174.9805659999999818
20
-93.4134889999999984
11
175.1435620000000029
21
-93.5223999999999904
0
LINE
8
BLACK
6
CONTINUOUS
10
175.1435620000000029
20
-93.5223999999999904
11
175.2821789999999851
21
-93.6610170000000011
0
LINE
8
BLACK
6
CONTINUOUS
10
175.2821789999999851
20
-93.6610170000000011
11
175.3910899999999913
21
-93.8240129999999937
0
LINE
8
BLACK
6
CONTINUOUS
10
175.3910899999999913
20
-93.8240129999999937
11
175.4661089999999888
21
-94.0051249999999925
0
LINE
8
BLACK
6
CONTINUOUS
10
175.4661089999999888
20
-94.0051249999999925
11
175.504353999999978
21
-94.197392999999991
0
LINE
8
BLACK
6
CONTINUOUS
10
175.504353999999978
20
-94.197392999999991
11
175.504353999999978
21
-94.3934270000000026
0
LINE
8
BLACK
6
CONTINUOUS
10
175.504353999999978
20
-94.3934270000000026
11
175.4661089999999888
21
-94.5856950000000012
0
LINE
8
BLACK
6
CONTINUOUS
10
175.4661089999999888
20
-94.5856950000000012
11
175.3910899999999913
21
-94.766807
0
LINE
8
BLACK
6
CONTINUOUS
10
175.3910899999999913
20
-94.766807
11
175.2821789999999851
21
-94.9298029999999926
0
LINE
8
BLACK
6
CONTINUOUS
10
175.2821789999999851
20
-94.9298029999999926
11
175.1435620000000029
21
-95.068419999999989
0
LINE
8
BLACK
6
CONTINUOUS
10
175.1435620000000029
20
-95.068419999999989
11
174.9805659999999818
21
-95.1773309999999952
0
LINE
8
BLACK
6
CONTINUOUS
10
174.9805659999999818
20
-95.1773309999999952
11
174.7994539999999972
21
-95.2523499999999927
0
LINE
8
BLACK
6
CONTINUOUS
10
174.7994539999999972
20
-95.2523499999999927
11
174.6071859999999845
21
-95.2905949999999962
0
LINE
8
BLACK
6
CONTINUOUS
10
174.6071859999999845
20
-95.2905949999999962
11
174.4111519999999871
21
-95.2905949999999962
0
LINE
8
BLACK
6
CONTINUOUS
10
174.4111519999999871
20
-95.2905949999999962
11
174.2188840000000027
21
-95.2523499999999927
0
LINE
8
BLACK
6
CONTINUOUS
10
174.2188840000000027
20
-95.2523499999999927
11
174.0377719999999897
21
-95.1773309999999952
0
LINE
8
BLACK
6
CONTINUOUS
10
174.0377719999999897
20
-95.1773309999999952
11
173.8747759999999971
21
-95.068419999999989
0
LINE
8
BLACK
6
CONTINUOUS
10
173.8747759999999971
20
-95.068419999999989
11
173.7361589999999865
21
-94.9298029999999926
0
LINE
8
BLACK
6
CONTINUOUS
10
173.7361589999999865
20
-94.9298029999999926
11
173.6272479999999803
21
-94.766807
0
LINE
8
BLACK
6
CONTINUOUS
10
173.6272479999999803
20
-94.766807
11
173.5522289999999828
21
-94.5856950000000012
0
LINE
8
BLACK
6
CONTINUOUS
10
173.5522289999999828
20
-94.5856950000000012
11
173.5139839999999936
21
-94.3934270000000026
0
LINE
8
BLACK
6
CONTINUOUS
10
173.5139839999999936
20
-94.3934270000000026
11
173.5139839999999936
21
-94.197392999999991
0
LINE
8
BLACK
6
CONTINUOUS
10
173.5139839999999936
20
-94.197392999999991
11
173.5522289999999828
21
-94.0051249999999925
0
LINE
8
BLACK
6
CONTINUOUS
10
173.5522289999999828
20
-94.0051249999999925
11
173.6272479999999803
21
-93.8240129999999937
0
LINE
8
BLACK
6
CONTINUOUS
10
173.6272479999999803
20
-93.8240129999999937
11
173.7361589999999865
21
-93.6610170000000011
0
LINE
8
BLACK
6
CONTINUOUS
10
173.7361589999999865
20
-93.6610170000000011
11
173.8747759999999971
21
-93.5223999999999904
0
LINE
8
BLACK
6
CONTINUOUS
10
173.8747759999999971
20
-93.5223999999999904
11
174.0377719999999897
21
-93.4134889999999984
0
LINE
8
BLACK
6
CONTINUOUS
10
174.0377719999999897
20
-93.4134889999999984
11
174.2188840000000027
21
-93.3384700000000009
0
LINE
8
BLACK
6
CONTINUOUS
10
174.2188840000000027
20
-93.3384700000000009
11
174.4111519999999871
21
-93.3002249999999975
0
LINE
8
BLACK
6
CONTINUOUS
10
174.4111519999999871
20
-93.3002249999999975
11
174.6071859999999845
21
-93.3002249999999975
0
LINE
8
BLACK
6
CONTINUOUS
10
174.6071859999999845
20
-93.3002249999999975
11
174.7994539999999972
21
-93.3384700000000009
0
LINE
8
BLACK
6
CONTINUOUS
10
177.3394539999999893
20
-93.3384700000000009
11
177.5205660000000023
21
-93.4134889999999984
0
LINE
8
BLACK
6
CONTINUOUS
10
177.5205660000000023
20
-93.4134889999999984
11
177.6835619999999949
21
-93.5223999999999904
0
LINE
8
BLACK
6
CONTINUOUS
10
177.6835619999999949
20
-93.5223999999999904
11
177.8221790000000055
21
-93.6610170000000011
0
LINE
8
BLACK
6
CONTINUOUS
10
177.8221790000000055
20
-93.6610170000000011
11
177.9310899999999833
21
-93.8240129999999937
0
LINE
8
BLACK
6
CONTINUOUS
10
177.9310899999999833
20
-93.8240129999999937
11
178.0061089999999808
21
-94.0051249999999925
0
LINE
8
BLACK
6
CONTINUOUS
10
178.0061089999999808
20
-94.0051249999999925
11
178.0443539999999985
21
-94.197392999999991
0
LINE
8
BLACK
6
CONTINUOUS
10
178.0443539999999985
20
-94.197392999999991
11
178.0443539999999985
21
-94.3934270000000026
0
LINE
8
BLACK
6
CONTINUOUS
10
178.0443539999999985
20
-94.3934270000000026
11
178.0061089999999808
21
-94.5856950000000012
0
LINE
8
BLACK
6
CONTINUOUS
10
178.0061089999999808
20
-94.5856950000000012
11
177.9310899999999833
21
-94.766807
0
LINE
8
BLACK
6
CONTINUOUS
10
177.9310899999999833
20
-94.766807
11
177.8221790000000055
21
-94.9298029999999926
0
LINE
8
BLACK
6
CONTINUOUS
10
177.8221790000000055
20
-94.9298029999999926
11
177.6835619999999949
21
-95.068419999999989
0
LINE
8
BLACK
6
CONTINUOUS
10
177.6835619999999949
20
-95.068419999999989
11
177.5205660000000023
21
-95.1773309999999952
0
LINE
8
BLACK
6
CONTINUOUS
10
177.5205660000000023
20
-95.1773309999999952
11
177.3394539999999893
21
-95.2523499999999927
0
LINE
8
BLACK
6
CONTINUOUS
10
177.3394539999999893
20
-95.2523499999999927
11
177.1471860000000049
21
-95.2905949999999962
0
LINE
8
BLACK
6
CONTINUOUS
10
177.1471860000000049
20
-95.2905949999999962
11
176.9511519999999791
21
-95.2905949999999962
0
LINE
8
BLACK
6
CONTINUOUS
10
176.9511519999999791
20
-95.2905949999999962
11
176.7588839999999948
21
-95.2523499999999927
0
LINE
8
BLACK
6
CONTINUOUS
10
176.7588839999999948
20
-95.2523499999999927
11
176.5777719999999817
21
-95.1773309999999952
0
LINE
8
BLACK
6
CONTINUOUS
10
176.5777719999999817
20
-95.1773309999999952
11
176.4147759999999892
21
-95.068419999999989
0
LINE
8
BLACK
6
CONTINUOUS
10
176.4147759999999892
20
-95.068419999999989
11
176.2761589999999785
21
-94.9298029999999926
0
LINE
8
BLACK
6
CONTINUOUS
10
176.2761589999999785
20
-94.9298029999999926
11
176.1672480000000007
21
-94.766807
0
LINE
8
BLACK
6
CONTINUOUS
10
176.1672480000000007
20
-94.766807
11
176.0922290000000032
21
-94.5856950000000012
0
LINE
8
BLACK
6
CONTINUOUS
10
176.0922290000000032
20
-94.5856950000000012
11
176.0539839999999856
21
-94.3934270000000026
0
LINE
8
BLACK
6
CONTINUOUS
10
176.0539839999999856
20
-94.3934270000000026
11
176.0539839999999856
21
-94.197392999999991
0
LINE
8
BLACK
6
CONTINUOUS
10
176.0539839999999856
20
-94.197392999999991
11
176.0922290000000032
21
-94.0051249999999925
0
LINE
8
BLACK
6
CONTINUOUS
10
176.0922290000000032
20
-94.0051249999999925
11
176.1672480000000007
21
-93.8240129999999937
0
LINE
8
BLACK
6
CONTINUOUS
10
176.1672480000000007
20
-93.8240129999999937
11
176.2761589999999785
21
-93.6610170000000011
0
LINE
8
BLACK
6
CONTINUOUS
10
176.2761589999999785
20
-93.6610170000000011
11
176.4147759999999892
21
-93.5223999999999904
0
LINE
8
BLACK
6
CONTINUOUS
10
176.4147759999999892
20
-93.5223999999999904
11
176.5777719999999817
21
-93.4134889999999984
0
LINE
8
BLACK
6
CONTINUOUS
10
176.5777719999999817
20
-93.4134889999999984
11
176.7588839999999948
21
-93.3384700000000009
0
LINE
8
BLACK
6
CONTINUOUS
10
176.7588839999999948
20
-93.3384700000000009
11
176.9511519999999791
21
-93.3002249999999975
0
LINE
8
BLACK
6
CONTINUOUS
10
176.9511519999999791
20
-93.3002249999999975
11
177.1471860000000049
21
-93.3002249999999975
0
LINE
8
BLACK
6
CONTINUOUS
10
177.1471860000000049
20
-93.3002249999999975
11
177.3394539999999893
21
-93.3384700000000009
0
LINE
8
BLACK
6
CONTINUOUS
10
179.8794539999999813
20
-93.3384700000000009
11
180.0605659999999943
21
-93.4134889999999984
0
LINE
8
BLACK
6
CONTINUOUS
10
180.0605659999999943
20
-93.4134889999999984
11
180.2235619999999869
21
-93.5223999999999904
0
LINE
8
BLACK
6
CONTINUOUS
10
180.2235619999999869
20
-93.5223999999999904
11
180.3621789999999976
21
-93.6610170000000011
0
LINE
8
BLACK
6
CONTINUOUS
10
180.3621789999999976
20
-93.6610170000000011
11
180.4710900000000038
21
-93.8240129999999937
0
LINE
8
BLACK
6
CONTINUOUS
10
180.4710900000000038
20
-93.8240129999999937
11
180.5461090000000013
21
-94.0051249999999925
0
LINE
8
BLACK
6
CONTINUOUS
10
180.5461090000000013
20
-94.0051249999999925
11
180.5843539999999905
21
-94.197392999999991
0
LINE
8
BLACK
6
CONTINUOUS
10
180.5843539999999905
20
-94.197392999999991
11
180.5843539999999905
21
-94.3934270000000026
0
LINE
8
BLACK
6
CONTINUOUS
10
180.5843539999999905
20
-94.3934270000000026
11
180.5461090000000013
21
-94.5856950000000012
0
LINE
8
BLACK
6
CONTINUOUS
10
180.5461090000000013
20
-94.5856950000000012
11
180.4710900000000038
21
-94.766807
0
LINE
8
BLACK
6
CONTINUOUS
10
180.4710900000000038
20
-94.766807
11
180.3621789999999976
21
-94.9298029999999926
0
LINE
8
BLACK
6
CONTINUOUS
10
180.3621789999999976
20
-94.9298029999999926
11
180.2235619999999869
21
-95.068419999999989
0
LINE
8
BLACK
6
CONTINUOUS
10
180.2235619999999869
20
-95.068419999999989
11
180.0605659999999943
21
-95.1773309999999952
0
LINE
8
BLACK
6
CONTINUOUS
10
180.0605659999999943
20
-95.1773309999999952
11
179.8794539999999813
21
-95.2523499999999927
0
LINE
8
BLACK
6
CONTINUOUS
10
179.8794539999999813
20
-95.2523499999999927
11
179.687185999999997
21
-95.2905949999999962
0
LINE
8
BLACK
6
CONTINUOUS
10
179.687185999999997
20
-95.2905949999999962
11
179.4911519999999996
21
-95.2905949999999962
0
LINE
8
BLACK
6
CONTINUOUS
10
179.4911519999999996
20
-95.2905949999999962
11
179.2988839999999868
21
-95.2523499999999927
0
LINE
8
BLACK
6
CONTINUOUS
10
179.2988839999999868
20
-95.2523499999999927
11
179.1177720000000022
21
-95.1773309999999952
0
LINE
8
BLACK
6
CONTINUOUS
10
179.1177720000000022
20
-95.1773309999999952
11
178.9547759999999812
21
-95.068419999999989
0
LINE
8
BLACK
6
CONTINUOUS
10
178.9547759999999812
20
-95.068419999999989
11
178.816158999999999
21
-94.9298029999999926
0
LINE
8
BLACK
6
CONTINUOUS
10
178.816158999999999
20
-94.9298029999999926
11
178.7072479999999928
21
-94.766807
0
LINE
8
BLACK
6
CONTINUOUS
10
178.7072479999999928
20
-94.766807
11
178.6322289999999953
21
-94.5856950000000012
0
LINE
8
BLACK
6
CONTINUOUS
10
178.6322289999999953
20
-94.5856950000000012
11
178.5939840000000061
21
-94.3934270000000026
0
LINE
8
BLACK
6
CONTINUOUS
10
178.5939840000000061
20
-94.3934270000000026
11
178.5939840000000061
21
-94.197392999999991
0
LINE
8
BLACK
6
CONTINUOUS
10
178.5939840000000061
20
-94.197392999999991
11
178.6322289999999953
21
-94.0051249999999925
0
LINE
8
BLACK
6
CONTINUOUS
10
178.6322289999999953
20
-94.0051249999999925
11
178.7072479999999928
21
-93.8240129999999937
0
LINE
8
BLACK
6
CONTINUOUS
10
178.7072479999999928
20
-93.8240129999999937
11
178.816158999999999
21
-93.6610170000000011
0
LINE
8
BLACK
6
CONTINUOUS
10
178.816158999999999
20
-93.6610170000000011
11
178.9547759999999812
21
-93.5223999999999904
0
LINE
8
BLACK
6
CONTINUOUS
10
178.9547759999999812
20
-93.5223999999999904
11
179.1177720000000022
21
-93.4134889999999984
0
LINE
8
BLACK
6
CONTINUOUS
10
179.1177720000000022
20
-93.4134889999999984
11
179.2988839999999868
21
-93.3384700000000009
0
LINE
8
BLACK
6
CONTINUOUS
10
179.2988839999999868
20
-93.3384700000000009
11
179.4911519999999996
21
-93.3002249999999975
0
LINE
8
BLACK
6
CONTINUOUS
10
179.4911519999999996
20
-93.3002249999999975
11
179.687185999999997
21
-93.3002249999999975
0
LINE
8
BLACK
6
CONTINUOUS
10
179.687185999999997
20
-93.3002249999999975
11
179.8794539999999813
21
-93.3384700000000009
0
LINE
8
BLACK
6
CONTINUOUS
10
182.4194540000000018
20
-93.3384700000000009
11
182.6005659999999864
21
-93.4134889999999984
0
LINE
8
BLACK
6
CONTINUOUS
10
182.6005659999999864
20
-93.4134889999999984
11
182.763561999999979
21
-93.5223999999999904
0
LINE
8
BLACK
6
CONTINUOUS
10
182.763561999999979
20
-93.5223999999999904
11
182.9021789999999896
21
-93.6610170000000011
0
LINE
8
BLACK
6
CONTINUOUS
10
182.9021789999999896
20
-93.6610170000000011
11
183.0110899999999958
21
-93.8240129999999937
0
LINE
8
BLACK
6
CONTINUOUS
10
183.0110899999999958
20
-93.8240129999999937
11
183.0861089999999933
21
-94.0051249999999925
0
LINE
8
BLACK
6
CONTINUOUS
10
183.0861089999999933
20
-94.0051249999999925
11
183.1243539999999825
21
-94.197392999999991
0
LINE
8
BLACK
6
CONTINUOUS
10
183.1243539999999825
20
-94.197392999999991
11
183.1243539999999825
21
-94.3934270000000026
0
LINE
8
BLACK
6
CONTINUOUS
10
183.1243539999999825
20
-94.3934270000000026
11
183.0861089999999933
21
-94.5856950000000012
0
LINE
8
BLACK
6
CONTINUOUS
10
183.0861089999999933
20
-94.5856950000000012
11
183.0110899999999958
21
-94.766807
0
LINE
8
BLACK
6
CONTINUOUS
10
183.0110899999999958
20
-94.766807
11
182.9021789999999896
21
-94.9298029999999926
0
LINE
8
BLACK
6
CONTINUOUS
10
182.9021789999999896
20
-94.9298029999999926
11
182.763561999999979
21
-95.068419999999989
0
LINE
8
BLACK
6
CONTINUOUS
10
182.763561999999979
20
-95.068419999999989
11
182.6005659999999864
21
-95.1773309999999952
0
LINE
8
BLACK
6
CONTINUOUS
10
182.6005659999999864
20
-95.1773309999999952
11
182.4194540000000018
21
-95.2523499999999927
0
LINE
8
BLACK
6
CONTINUOUS
10
182.4194540000000018
20
-95.2523499999999927
11
182.227185999999989
21
-95.2905949999999962
0
LINE
8
BLACK
6
CONTINUOUS
10
182.227185999999989
20
-95.2905949999999962
11
182.0311519999999916
21
-95.2905949999999962
0
LINE
8
BLACK
6
CONTINUOUS
10
182.0311519999999916
20
-95.2905949999999962
11
181.8388839999999789
21
-95.2523499999999927
0
LINE
8
BLACK
6
CONTINUOUS
10
181.8388839999999789
20
-95.2523499999999927
11
181.6577719999999943
21
-95.1773309999999952
0
LINE
8
BLACK
6
CONTINUOUS
10
181.6577719999999943
20
-95.1773309999999952
11
181.4947760000000017
21
-95.068419999999989
0
LINE
8
BLACK
6
CONTINUOUS
10
181.4947760000000017
20
-95.068419999999989
11
181.356158999999991
21
-94.9298029999999926
0
LINE
8
BLACK
6
CONTINUOUS
10
181.356158999999991
20
-94.9298029999999926
11
181.2472479999999848
21
-94.766807
0
LINE
8
BLACK
6
CONTINUOUS
10
181.2472479999999848
20
-94.766807
11
181.1722289999999873
21
-94.5856950000000012
0
LINE
8
BLACK
6
CONTINUOUS
10
181.1722289999999873
20
-94.5856950000000012
11
181.1339839999999981
21
-94.3934270000000026
0
LINE
8
BLACK
6
CONTINUOUS
10
181.1339839999999981
20
-94.3934270000000026
11
181.1339839999999981
21
-94.197392999999991
0
LINE
8
BLACK
6
CONTINUOUS
10
181.1339839999999981
20
-94.197392999999991
11
181.1722289999999873
21
-94.0051249999999925
0
LINE
8
BLACK
6
CONTINUOUS
10
181.1722289999999873
20
-94.0051249999999925
11
181.2472479999999848
21
-93.8240129999999937
0
LINE
8
BLACK
6
CONTINUOUS
10
181.2472479999999848
20
-93.8240129999999937
11
181.356158999999991
21
-93.6610170000000011
0
LINE
8
BLACK
6
CONTINUOUS
10
181.356158999999991
20
-93.6610170000000011
11
181.4947760000000017
21
-93.5223999999999904
0
LINE
8
BLACK
6
CONTINUOUS
10
181.4947760000000017
20
-93.5223999999999904
11
181.6577719999999943
21
-93.4134889999999984
0
LINE
8
BLACK
6
CONTINUOUS
10
181.6577719999999943
20
-93.4134889999999984
11
181.8388839999999789
21
-93.3384700000000009
0
LINE
8
BLACK
6
CONTINUOUS
10
181.8388839999999789
20
-93.3384700000000009
11
182.0311519999999916
21
-93.3002249999999975
0
LINE
8
BLACK
6
CONTINUOUS
10
182.0311519999999916
20
-93.3002249999999975
11
182.227185999999989
21
-93.3002249999999975
0
LINE
8
BLACK
6
CONTINUOUS
10
182.227185999999989
20
-93.3002249999999975
11
182.4194540000000018
21
-93.3384700000000009
0
LINE
8
BLACK
6
CONTINUOUS
10
184.9594539999999938
20
-93.3384700000000009
11
185.1405659999999784
21
-93.4134889999999984
0
LINE
8
BLACK
6
CONTINUOUS
10
185.1405659999999784
20
-93.4134889999999984
11
185.3035619999999994
21
-93.5223999999999904
0
LINE
8
BLACK
6
CONTINUOUS
10
185.3035619999999994
20
-93.5223999999999904
11
185.4421789999999817
21
-93.6610170000000011
0
LINE
8
BLACK
6
CONTINUOUS
10
185.4421789999999817
20
-93.6610170000000011
11
185.5510899999999879
21
-93.8240129999999937
0
LINE
8
BLACK
6
CONTINUOUS
10
185.5510899999999879
20
-93.8240129999999937
11
185.6261089999999854
21
-94.0051249999999925
0
LINE
8
BLACK
6
CONTINUOUS
10
185.6261089999999854
20
-94.0051249999999925
11
185.664354000000003
21
-94.197392999999991
0
LINE
8
BLACK
6
CONTINUOUS
10
185.664354000000003
20
-94.197392999999991
11
185.664354000000003
21
-94.3934270000000026
0
LINE
8
BLACK
6
CONTINUOUS
10
185.664354000000003
20
-94.3934270000000026
11
185.6261089999999854
21
-94.5856950000000012
0
LINE
8
BLACK
6
CONTINUOUS
10
185.6261089999999854
20
-94.5856950000000012
11
185.5510899999999879
21
-94.766807
0
LINE
8
BLACK
6
CONTINUOUS
10
185.5510899999999879
20
-94.766807
11
185.4421789999999817
21
-94.9298029999999926
0
LINE
8
BLACK
6
CONTINUOUS
10
185.4421789999999817
20
-94.9298029999999926
11
185.3035619999999994
21
-95.068419999999989
0
LINE
8
BLACK
6
CONTINUOUS
10
185.3035619999999994
20
-95.068419999999989
11
185.1405659999999784
21
-95.1773309999999952
0
LINE
8
BLACK
6
CONTINUOUS
10
185.1405659999999784
20
-95.1773309999999952
11
184.9594539999999938
21
-95.2523499999999927
0
LINE
8
BLACK
6
CONTINUOUS
10
184.9594539999999938
20
-95.2523499999999927
11
184.767185999999981
21
-95.2905949999999962
0
LINE
8
BLACK
6
CONTINUOUS
10
184.767185999999981
20
-95.2905949999999962
11
184.5711519999999837
21
-95.2905949999999962
0
LINE
8
BLACK
6
CONTINUOUS
10
184.5711519999999837
20
-95.2905949999999962
11
184.3788839999999993
21
-95.2523499999999927
0
LINE
8
BLACK
6
CONTINUOUS
10
184.3788839999999993
20
-95.2523499999999927
11
184.1977719999999863
21
-95.1773309999999952
0
LINE
8
BLACK
6
CONTINUOUS
10
184.1977719999999863
20
-95.1773309999999952
11
184.0347759999999937
21
-95.068419999999989
0
LINE
8
BLACK
6
CONTINUOUS
10
184.0347759999999937
20
-95.068419999999989
11
183.8961589999999831
21
-94.9298029999999926
0
LINE
8
BLACK
6
CONTINUOUS
10
183.8961589999999831
20
-94.9298029999999926
11
183.7872480000000053
21
-94.766807
0
LINE
8
BLACK
6
CONTINUOUS
10
183.7872480000000053
20
-94.766807
11
183.7122289999999794
21
-94.5856950000000012
0
LINE
8
BLACK
6
CONTINUOUS
10
183.7122289999999794
20
-94.5856950000000012
11
183.6739839999999901
21
-94.3934270000000026
0
LINE
8
BLACK
6
CONTINUOUS
10
183.6739839999999901
20
-94.3934270000000026
11
183.6739839999999901
21
-94.197392999999991
0
LINE
8
BLACK
6
CONTINUOUS
10
183.6739839999999901
20
-94.197392999999991
11
183.7122289999999794
21
-94.0051249999999925
0
LINE
8
BLACK
6
CONTINUOUS
10
183.7122289999999794
20
-94.0051249999999925
11
183.7872480000000053
21
-93.8240129999999937
0
LINE
8
BLACK
6
CONTINUOUS
10
183.7872480000000053
20
-93.8240129999999937
11
183.8961589999999831
21
-93.6610170000000011
0
LINE
8
BLACK
6
CONTINUOUS
10
183.8961589999999831
20
-93.6610170000000011
11
184.0347759999999937
21
-93.5223999999999904
0
LINE
8
BLACK
6
CONTINUOUS
10
184.0347759999999937
20
-93.5223999999999904
11
184.1977719999999863
21
-93.4134889999999984
0
LINE
8
BLACK
6
CONTINUOUS
10
184.1977719999999863
20
-93.4134889999999984
11
184.3788839999999993
21
-93.3384700000000009
0
LINE
8
BLACK
6
CONTINUOUS
10
184.3788839999999993
20
-93.3384700000000009
11
184.5711519999999837
21
-93.3002249999999975
0
LINE
8
BLACK
6
CONTINUOUS
10
184.5711519999999837
20
-93.3002249999999975
11
184.767185999999981
21
-93.3002249999999975
0
LINE
8
BLACK
6
CONTINUOUS
10
184.767185999999981
20
-93.3002249999999975
11
184.9594539999999938
21
-93.3384700000000009
0
LINE
8
BLACK
6
CONTINUOUS
10
187.4994539999999859
20
-93.3384700000000009
11
187.6805659999999989
21
-93.4134889999999984
0
LINE
8
BLACK
6
CONTINUOUS
10
187.6805659999999989
20
-93.4134889999999984
11
187.8435619999999915
21
-93.5223999999999904
0
LINE
8
BLACK
6
CONTINUOUS
10
187.8435619999999915
20
-93.5223999999999904
11
187.9821790000000021
21
-93.6610170000000011
0
LINE
8
BLACK
6
CONTINUOUS
10
187.9821790000000021
20
-93.6610170000000011
11
188.0910899999999799
21
-93.8240129999999937
0
LINE
8
BLACK
6
CONTINUOUS
10
188.0910899999999799
20
-93.8240129999999937
11
188.1661089999999774
21
-94.0051249999999925
0
LINE
8
BLACK
6
CONTINUOUS
10
188.1661089999999774
20
-94.0051249999999925
11
188.204353999999995
21
-94.197392999999991
0
LINE
8
BLACK
6
CONTINUOUS
10
188.204353999999995
20
-94.197392999999991
11
188.204353999999995
21
-94.3934270000000026
0
LINE
8
BLACK
6
CONTINUOUS
10
188.204353999999995
20
-94.3934270000000026
11
188.1661089999999774
21
-94.5856950000000012
0
LINE
8
BLACK
6
CONTINUOUS
10
188.1661089999999774
20
-94.5856950000000012
11
188.0910899999999799
21
-94.766807
0
LINE
8
BLACK
6
CONTINUOUS
10
188.0910899999999799
20
-94.766807
11
187.9821790000000021
21
-94.9298029999999926
0
LINE
8
BLACK
6
CONTINUOUS
10
187.9821790000000021
20
-94.9298029999999926
11
187.8435619999999915
21
-95.068419999999989
0
LINE
8
BLACK
6
CONTINUOUS
10
187.8435619999999915
20
-95.068419999999989
11
187.6805659999999989
21
-95.1773309999999952
0
LINE
8
BLACK
6
CONTINUOUS
10
187.6805659999999989
20
-95.1773309999999952
11
187.4994539999999859
21
-95.2523499999999927
0
LINE
8
BLACK
6
CONTINUOUS
10
187.4994539999999859
20
-95.2523499999999927
11
187.3071860000000015
21
-95.2905949999999962
0
LINE
8
BLACK
6
CONTINUOUS
10
187.3071860000000015
20
-95.2905949999999962
11
187.1111520000000041
21
-95.2905949999999962
0
LINE
8
BLACK
6
CONTINUOUS
10
187.1111520000000041
20
-95.2905949999999962
11
186.9188839999999914
21
-95.2523499999999927
0
LINE
8
BLACK
6
CONTINUOUS
10
186.9188839999999914
20
-95.2523499999999927
11
186.7377719999999783
21
-95.1773309999999952
0
LINE
8
BLACK
6
CONTINUOUS
10
186.7377719999999783
20
-95.1773309999999952
11
186.5747759999999857
21
-95.068419999999989
0
LINE
8
BLACK
6
CONTINUOUS
10
186.5747759999999857
20
-95.068419999999989
11
186.4361590000000035
21
-94.9298029999999926
0
LINE
8
BLACK
6
CONTINUOUS
10
186.4361590000000035
20
-94.9298029999999926
11
186.3272479999999973
21
-94.766807
0
LINE
8
BLACK
6
CONTINUOUS
10
186.3272479999999973
20
-94.766807
11
186.2522289999999998
21
-94.5856950000000012
0
LINE
8
BLACK
6
CONTINUOUS
10
186.2522289999999998
20
-94.5856950000000012
11
186.2139839999999822
21
-94.3934270000000026
0
LINE
8
BLACK
6
CONTINUOUS
10
186.2139839999999822
20
-94.3934270000000026
11
186.2139839999999822
21
-94.197392999999991
0
LINE
8
BLACK
6
CONTINUOUS
10
186.2139839999999822
20
-94.197392999999991
11
186.2522289999999998
21
-94.0051249999999925
0
LINE
8
BLACK
6
CONTINUOUS
10
186.2522289999999998
20
-94.0051249999999925
11
186.3272479999999973
21
-93.8240129999999937
0
LINE
8
BLACK
6
CONTINUOUS
10
186.3272479999999973
20
-93.8240129999999937
11
186.4361590000000035
21
-93.6610170000000011
0
LINE
8
BLACK
6
CONTINUOUS
10
186.4361590000000035
20
-93.6610170000000011
11
186.5747759999999857
21
-93.5223999999999904
0
LINE
8
BLACK
6
CONTINUOUS
10
186.5747759999999857
20
-93.5223999999999904
11
186.7377719999999783
21
-93.4134889999999984
0
LINE
8
BLACK
6
CONTINUOUS
10
186.7377719999999783
20
-93.4134889999999984
11
186.9188839999999914
21
-93.3384700000000009
0
LINE
8
BLACK
6
CONTINUOUS
10
186.9188839999999914
20
-93.3384700000000009
11
187.1111520000000041
21
-93.3002249999999975
0
LINE
8
BLACK
6
CONTINUOUS
10
187.1111520000000041
20
-93.3002249999999975
11
187.3071860000000015
21
-93.3002249999999975
0
LINE
8
BLACK
6
CONTINUOUS
10
187.3071860000000015
20
-93.3002249999999975
11
187.4994539999999859
21
-93.3384700000000009
0
LINE
8
BLACK
6
CONTINUOUS
10
190.0394539999999779
20
-93.3384700000000009
11
190.2205659999999909
21
-93.4134889999999984
0
LINE
8
BLACK
6
CONTINUOUS
10
190.2205659999999909
20
-93.4134889999999984
11
190.3835619999999835
21
-93.5223999999999904
0
LINE
8
BLACK
6
CONTINUOUS
10
190.3835619999999835
20
-93.5223999999999904
11
190.5221789999999942
21
-93.6610170000000011
0
LINE
8
BLACK
6
CONTINUOUS
10
190.5221789999999942
20
-93.6610170000000011
11
190.6310900000000004
21
-93.8240129999999937
0
LINE
8
BLACK
6
CONTINUOUS
10
190.6310900000000004
20
-93.8240129999999937
11
190.7061089999999979
21
-94.0051249999999925
0
LINE
8
BLACK
6
CONTINUOUS
10
190.7061089999999979
20
-94.0051249999999925
11
190.7443539999999871
21
-94.197392999999991
0
LINE
8
BLACK
6
CONTINUOUS
10
190.7443539999999871
20
-94.197392999999991
11
190.7443539999999871
21
-94.3934270000000026
0
LINE
8
BLACK
6
CONTINUOUS
10
190.7443539999999871
20
-94.3934270000000026
11
190.7061089999999979
21
-94.5856950000000012
0
LINE
8
BLACK
6
CONTINUOUS
10
190.7061089999999979
20
-94.5856950000000012
11
190.6310900000000004
21
-94.766807
0
LINE
8
BLACK
6
CONTINUOUS
10
190.6310900000000004
20
-94.766807
11
190.5221789999999942
21
-94.9298029999999926
0
LINE
8
BLACK
6
CONTINUOUS
10
190.5221789999999942
20
-94.9298029999999926
11
190.3835619999999835
21
-95.068419999999989
0
LINE
8
BLACK
6
CONTINUOUS
10
190.3835619999999835
20
-95.068419999999989
11
190.2205659999999909
21
-95.1773309999999952
0
LINE
8
BLACK
6
CONTINUOUS
10
190.2205659999999909
20
-95.1773309999999952
11
190.0394539999999779
21
-95.2523499999999927
0
LINE
8
BLACK
6
CONTINUOUS
10
190.0394539999999779
20
-95.2523499999999927
11
189.8471859999999936
21
-95.2905949999999962
0
LINE
8
BLACK
6
CONTINUOUS
10
189.8471859999999936
20
-95.2905949999999962
11
189.6511519999999962
21
-95.2905949999999962
0
LINE
8
BLACK
6
CONTINUOUS
10
189.6511519999999962
20
-95.2905949999999962
11
189.4588839999999834
21
-95.2523499999999927
0
LINE
8
BLACK
6
CONTINUOUS
10
189.4588839999999834
20
-95.2523499999999927
11
189.2777719999999988
21
-95.1773309999999952
0
LINE
8
BLACK
6
CONTINUOUS
10
189.2777719999999988
20
-95.1773309999999952
11
189.1147759999999778
21
-95.068419999999989
0
LINE
8
BLACK
6
CONTINUOUS
10
189.1147759999999778
20
-95.068419999999989
11
188.9761589999999956
21
-94.9298029999999926
0
LINE
8
BLACK
6
CONTINUOUS
10
188.9761589999999956
20
-94.9298029999999926
11
188.8672479999999894
21
-94.766807
0
LINE
8
BLACK
6
CONTINUOUS
10
188.8672479999999894
20
-94.766807
11
188.7922289999999919
21
-94.5856950000000012
0
LINE
8
BLACK
6
CONTINUOUS
10
188.7922289999999919
20
-94.5856950000000012
11
188.7539840000000027
21
-94.3934270000000026
0
LINE
8
BLACK
6
CONTINUOUS
10
188.7539840000000027
20
-94.3934270000000026
11
188.7539840000000027
21
-94.197392999999991
0
LINE
8
BLACK
6
CONTINUOUS
10
188.7539840000000027
20
-94.197392999999991
11
188.7922289999999919
21
-94.0051249999999925
0
LINE
8
BLACK
6
CONTINUOUS
10
188.7922289999999919
20
-94.0051249999999925
11
188.8672479999999894
21
-93.8240129999999937
0
LINE
8
BLACK
6
CONTINUOUS
10
188.8672479999999894
20
-93.8240129999999937
11
188.9761589999999956
21
-93.6610170000000011
0
LINE
8
BLACK
6
CONTINUOUS
10
188.9761589999999956
20
-93.6610170000000011
11
189.1147759999999778
21
-93.5223999999999904
0
LINE
8
BLACK
6
CONTINUOUS
10
189.1147759999999778
20
-93.5223999999999904
11
189.2777719999999988
21
-93.4134889999999984
0
LINE
8
BLACK
6
CONTINUOUS
10
189.2777719999999988
20
-93.4134889999999984
11
189.4588839999999834
21
-93.3384700000000009
0
LINE
8
BLACK
6
CONTINUOUS
10
189.4588839999999834
20
-93.3384700000000009
11
189.6511519999999962
21
-93.3002249999999975
0
LINE
8
BLACK
6
CONTINUOUS
10
189.6511519999999962
20
-93.3002249999999975
11
189.8471859999999936
21
-93.3002249999999975
0
LINE
8
BLACK
6
CONTINUOUS
10
189.8471859999999936
20
-93.3002249999999975
11
190.0394539999999779
21
-93.3384700000000009
0
LINE
8
BLACK
6
CONTINUOUS
10
192.5794539999999984
20
-93.3384700000000009
11
192.760565999999983
21
-93.4134889999999984
0
LINE
8
BLACK
6
CONTINUOUS
10
192.760565999999983
20
-93.4134889999999984
11
192.923562000000004
21
-93.5223999999999904
0
LINE
8
BLACK
6
CONTINUOUS
10
192.923562000000004
20
-93.5223999999999904
11
193.0621789999999862
21
-93.6610170000000011
0
LINE
8
BLACK
6
CONTINUOUS
10
193.0621789999999862
20
-93.6610170000000011
11
193.1710899999999924
21
-93.8240129999999937
0
LINE
8
BLACK
6
CONTINUOUS
10
193.1710899999999924
20
-93.8240129999999937
11
193.2461089999999899
21
-94.0051249999999925
0
LINE
8
BLACK
6
CONTINUOUS
10
193.2461089999999899
20
-94.0051249999999925
11
193.2843539999999791
21
-94.197392999999991
0
LINE
8
BLACK
6
CONTINUOUS
10
193.2843539999999791
20
-94.197392999999991
11
193.2843539999999791
21
-94.3934270000000026
0
LINE
8
BLACK
6
CONTINUOUS
10
193.2843539999999791
20
-94.3934270000000026
11
193.2461089999999899
21
-94.5856950000000012
0
LINE
8
BLACK
6
CONTINUOUS
10
193.2461089999999899
20
-94.5856950000000012
11
193.1710899999999924
21
-94.766807
0
LINE
8
BLACK
6
CONTINUOUS
10
193.1710899999999924
20
-94.766807
11
193.0621789999999862
21
-94.9298029999999926
0
LINE
8
BLACK
6
CONTINUOUS
10
193.0621789999999862
20
-94.9298029999999926
11
192.923562000000004
21
-95.068419999999989
0
LINE
8
BLACK
6
CONTINUOUS
10
192.923562000000004
20
-95.068419999999989
11
192.760565999999983
21
-95.1773309999999952
0
LINE
8
BLACK
6
CONTINUOUS
10
192.760565999999983
20
-95.1773309999999952
11
192.5794539999999984
21
-95.2523499999999927
0
LINE
8
BLACK
6
CONTINUOUS
10
192.5794539999999984
20
-95.2523499999999927
11
192.3871859999999856
21
-95.2905949999999962
0
LINE
8
BLACK
6
CONTINUOUS
10
192.3871859999999856
20
-95.2905949999999962
11
192.1911519999999882
21
-95.2905949999999962
0
LINE
8
BLACK
6
CONTINUOUS
10
192.1911519999999882
20
-95.2905949999999962
11
191.9988840000000039
21
-95.2523499999999927
0
LINE
8
BLACK
6
CONTINUOUS
10
191.9988840000000039
20
-95.2523499999999927
11
191.8177719999999908
21
-95.1773309999999952
0
LINE
8
BLACK
6
CONTINUOUS
10
191.8177719999999908
20
-95.1773309999999952
11
191.6547759999999982
21
-95.068419999999989
0
LINE
8
BLACK
6
CONTINUOUS
10
191.6547759999999982
20
-95.068419999999989
11
191.5161589999999876
21
-94.9298029999999926
0
LINE
8
BLACK
6
CONTINUOUS
10
191.5161589999999876
20
-94.9298029999999926
11
191.4072479999999814
21
-94.766807
0
LINE
8
BLACK
6
CONTINUOUS
10
191.4072479999999814
20
-94.766807
11
191.3322289999999839
21
-94.5856950000000012
0
LINE
8
BLACK
6
CONTINUOUS
10
191.3322289999999839
20
-94.5856950000000012
11
191.2939839999999947
21
-94.3934270000000026
0
LINE
8
BLACK
6
CONTINUOUS
10
191.2939839999999947
20
-94.3934270000000026
11
191.2939839999999947
21
-94.197392999999991
0
LINE
8
BLACK
6
CONTINUOUS
10
191.2939839999999947
20
-94.197392999999991
11
191.3322289999999839
21
-94.0051249999999925
0
LINE
8
BLACK
6
CONTINUOUS
10
191.3322289999999839
20
-94.0051249999999925
11
191.4072479999999814
21
-93.8240129999999937
0
LINE
8
BLACK
6
CONTINUOUS
10
191.4072479999999814
20
-93.8240129999999937
11
191.5161589999999876
21
-93.6610170000000011
0
LINE
8
BLACK
6
CONTINUOUS
10
191.5161589999999876
20
-93.6610170000000011
11
191.6547759999999982
21
-93.5223999999999904
0
LINE
8
BLACK
6
CONTINUOUS
10
191.6547759999999982
20
-93.5223999999999904
11
191.8177719999999908
21
-93.4134889999999984
0
LINE
8
BLACK
6
CONTINUOUS
10
191.8177719999999908
20
-93.4134889999999984
11
191.9988840000000039
21
-93.3384700000000009
0
LINE
8
BLACK
6
CONTINUOUS
10
191.9988840000000039
20
-93.3384700000000009
11
192.1911519999999882
21
-93.3002249999999975
0
LINE
8
BLACK
6
CONTINUOUS
10
192.1911519999999882
20
-93.3002249999999975
11
192.3871859999999856
21
-93.3002249999999975
0
LINE
8
BLACK
6
CONTINUOUS
10
192.3871859999999856
20
-93.3002249999999975
11
192.5794539999999984
21
-93.3384700000000009
0
LINE
8
BLACK
6
CONTINUOUS
10
195.1194539999999904
20
-93.3384700000000009
11
195.3005660000000034
21
-93.4134889999999984
0
LINE
8
BLACK
6
CONTINUOUS
10
195.3005660000000034
20
-93.4134889999999984
11
195.463561999999996
21
-93.5223999999999904
0
LINE
8
BLACK
6
CONTINUOUS
10
195.463561999999996
20
-93.5223999999999904
11
195.6021789999999783
21
-93.6610170000000011
0
LINE
8
BLACK
6
CONTINUOUS
10
195.6021789999999783
20
-93.6610170000000011
11
195.7110899999999845
21
-93.8240129999999937
0
LINE
8
BLACK
6
CONTINUOUS
10
195.7110899999999845
20
-93.8240129999999937
11
195.786108999999982
21
-94.0051249999999925
0
LINE
8
BLACK
6
CONTINUOUS
10
195.786108999999982
20
-94.0051249999999925
11
195.8243539999999996
21
-94.197392999999991
0
LINE
8
BLACK
6
CONTINUOUS
10
195.8243539999999996
20
-94.197392999999991
11
195.8243539999999996
21
-94.3934270000000026
0
LINE
8
BLACK
6
CONTINUOUS
10
195.8243539999999996
20
-94.3934270000000026
11
195.786108999999982
21
-94.5856950000000012
0
LINE
8
BLACK
6
CONTINUOUS
10
195.786108999999982
20
-94.5856950000000012
11
195.7110899999999845
21
-94.766807
0
LINE
8
BLACK
6
CONTINUOUS
10
195.7110899999999845
20
-94.766807
11
195.6021789999999783
21
-94.9298029999999926
0
LINE
8
BLACK
6
CONTINUOUS
10
195.6021789999999783
20
-94.9298029999999926
11
195.463561999999996
21
-95.068419999999989
0
LINE
8
BLACK
6
CONTINUOUS
10
195.463561999999996
20
-95.068419999999989
11
195.3005660000000034
21
-95.1773309999999952
0
LINE
8
BLACK
6
CONTINUOUS
10
195.3005660000000034
20
-95.1773309999999952
11
195.1194539999999904
21
-95.2523499999999927
0
LINE
8
BLACK
6
CONTINUOUS
10
195.1194539999999904
20
-95.2523499999999927
11
194.9271859999999776
21
-95.2905949999999962
0
LINE
8
BLACK
6
CONTINUOUS
10
194.9271859999999776
20
-95.2905949999999962
11
194.7311519999999803
21
-95.2905949999999962
0
LINE
8
BLACK
6
CONTINUOUS
10
194.7311519999999803
20
-95.2905949999999962
11
194.5388839999999959
21
-95.2523499999999927
0
LINE
8
BLACK
6
CONTINUOUS
10
194.5388839999999959
20
-95.2523499999999927
11
194.3577719999999829
21
-95.1773309999999952
0
LINE
8
BLACK
6
CONTINUOUS
10
194.3577719999999829
20
-95.1773309999999952
11
194.1947759999999903
21
-95.068419999999989
0
LINE
8
BLACK
6
CONTINUOUS
10
194.1947759999999903
20
-95.068419999999989
11
194.0561589999999796
21
-94.9298029999999926
0
LINE
8
BLACK
6
CONTINUOUS
10
194.0561589999999796
20
-94.9298029999999926
11
193.9472480000000019
21
-94.766807
0
LINE
8
BLACK
6
CONTINUOUS
10
193.9472480000000019
20
-94.766807
11
193.8722290000000044
21
-94.5856950000000012
0
LINE
8
BLACK
6
CONTINUOUS
10
193.8722290000000044
20
-94.5856950000000012
11
193.8339839999999867
21
-94.3934270000000026
0
LINE
8
BLACK
6
CONTINUOUS
10
193.8339839999999867
20
-94.3934270000000026
11
193.8339839999999867
21
-94.197392999999991
0
LINE
8
BLACK
6
CONTINUOUS
10
193.8339839999999867
20
-94.197392999999991
11
193.8722290000000044
21
-94.0051249999999925
0
LINE
8
BLACK
6
CONTINUOUS
10
193.8722290000000044
20
-94.0051249999999925
11
193.9472480000000019
21
-93.8240129999999937
0
LINE
8
BLACK
6
CONTINUOUS
10
193.9472480000000019
20
-93.8240129999999937
11
194.0561589999999796
21
-93.6610170000000011
0
LINE
8
BLACK
6
CONTINUOUS
10
194.0561589999999796
20
-93.6610170000000011
11
194.1947759999999903
21
-93.5223999999999904
0
LINE
8
BLACK
6
CONTINUOUS
10
194.1947759999999903
20
-93.5223999999999904
11
194.3577719999999829
21
-93.4134889999999984
0
LINE
8
BLACK
6
CONTINUOUS
10
194.3577719999999829
20
-93.4134889999999984
11
194.5388839999999959
21
-93.3384700000000009
0
LINE
8
BLACK
6
CONTINUOUS
10
194.5388839999999959
20
-93.3384700000000009
11
194.7311519999999803
21
-93.3002249999999975
0
LINE
8
BLACK
6
CONTINUOUS
10
194.7311519999999803
20
-93.3002249999999975
11
194.9271859999999776
21
-93.3002249999999975
0
LINE
8
BLACK
6
CONTINUOUS
10
194.9271859999999776
20
-93.3002249999999975
11
195.1194539999999904
21
-93.3384700000000009
0
LINE
8
BLACK
6
CONTINUOUS
10
197.6594539999999824
20
-93.3384700000000009
11
197.8405659999999955
21
-93.4134889999999984
0
LINE
8
BLACK
6
CONTINUOUS
10
197.8405659999999955
20
-93.4134889999999984
11
198.0035619999999881
21
-93.5223999999999904
0
LINE
8
BLACK
6
CONTINUOUS
10
198.0035619999999881
20
-93.5223999999999904
11
198.1421789999999987
21
-93.6610170000000011
0
LINE
8
BLACK
6
CONTINUOUS
10
198.1421789999999987
20
-93.6610170000000011
11
198.2510900000000049
21
-93.8240129999999937
0
LINE
8
BLACK
6
CONTINUOUS
10
198.2510900000000049
20
-93.8240129999999937
11
198.3261090000000024
21
-94.0051249999999925
0
LINE
8
BLACK
6
CONTINUOUS
10
198.3261090000000024
20
-94.0051249999999925
11
198.3643539999999916
21
-94.197392999999991
0
LINE
8
BLACK
6
CONTINUOUS
10
198.3643539999999916
20
-94.197392999999991
11
198.3643539999999916
21
-94.3934270000000026
0
LINE
8
BLACK
6
CONTINUOUS
10
198.3643539999999916
20
-94.3934270000000026
11
198.3261090000000024
21
-94.5856950000000012
0
LINE
8
BLACK
6
CONTINUOUS
10
198.3261090000000024
20
-94.5856950000000012
11
198.2510900000000049
21
-94.766807
0
LINE
8
BLACK
6
CONTINUOUS
10
198.2510900000000049
20
-94.766807
11
198.1421789999999987
21
-94.9298029999999926
0
LINE
8
BLACK
6
CONTINUOUS
10
198.1421789999999987
20
-94.9298029999999926
11
198.0035619999999881
21
-95.068419999999989
0
LINE
8
BLACK
6
CONTINUOUS
10
198.0035619999999881
20
-95.068419999999989
11
197.8405659999999955
21
-95.1773309999999952
0
LINE
8
BLACK
6
CONTINUOUS
10
197.8405659999999955
20
-95.1773309999999952
11
197.6594539999999824
21
-95.2523499999999927
0
LINE
8
BLACK
6
CONTINUOUS
10
197.6594539999999824
20
-95.2523499999999927
11
197.4671859999999981
21
-95.2905949999999962
0
LINE
8
BLACK
6
CONTINUOUS
10
197.4671859999999981
20
-95.2905949999999962
11
197.2711520000000007
21
-95.2905949999999962
0
LINE
8
BLACK
6
CONTINUOUS
10
197.2711520000000007
20
-95.2905949999999962
11
197.078883999999988
21
-95.2523499999999927
0
LINE
8
BLACK
6
CONTINUOUS
10
197.078883999999988
20
-95.2523499999999927
11
196.8977720000000033
21
-95.1773309999999952
0
LINE
8
BLACK
6
CONTINUOUS
10
196.8977720000000033
20
-95.1773309999999952
11
196.7347759999999823
21
-95.068419999999989
0
LINE
8
BLACK
6
CONTINUOUS
10
196.7347759999999823
20
-95.068419999999989
11
196.5961590000000001
21
-94.9298029999999926
0
LINE
8
BLACK
6
CONTINUOUS
10
196.5961590000000001
20
-94.9298029999999926
11
196.4872479999999939
21
-94.766807
0
LINE
8
BLACK
6
CONTINUOUS
10
196.4872479999999939
20
-94.766807
11
196.4122289999999964
21
-94.5856950000000012
0
LINE
8
BLACK
6
CONTINUOUS
10
196.4122289999999964
20
-94.5856950000000012
11
196.3739839999999788
21
-94.3934270000000026
0
LINE
8
BLACK
6
CONTINUOUS
10
196.3739839999999788
20
-94.3934270000000026
11
196.3739839999999788
21
-94.197392999999991
0
LINE
8
BLACK
6
CONTINUOUS
10
196.3739839999999788
20
-94.197392999999991
11
196.4122289999999964
21
-94.0051249999999925
0
LINE
8
BLACK
6
CONTINUOUS
10
196.4122289999999964
20
-94.0051249999999925
11
196.4872479999999939
21
-93.8240129999999937
0
LINE
8
BLACK
6
CONTINUOUS
10
196.4872479999999939
20
-93.8240129999999937
11
196.5961590000000001
21
-93.6610170000000011
0
LINE
8
BLACK
6
CONTINUOUS
10
196.5961590000000001
20
-93.6610170000000011
11
196.7347759999999823
21
-93.5223999999999904
0
LINE
8
BLACK
6
CONTINUOUS
10
196.7347759999999823
20
-93.5223999999999904
11
196.8977720000000033
21
-93.4134889999999984
0
LINE
8
BLACK
6
CONTINUOUS
10
196.8977720000000033
20
-93.4134889999999984
11
197.078883999999988
21
-93.3384700000000009
0
LINE
8
BLACK
6
CONTINUOUS
10
197.078883999999988
20
-93.3384700000000009
11
197.2711520000000007
21
-93.3002249999999975
0
LINE
8
BLACK
6
CONTINUOUS
10
197.2711520000000007
20
-93.3002249999999975
11
197.4671859999999981
21
-93.3002249999999975
0
LINE
8
BLACK
6
CONTINUOUS
10
197.4671859999999981
20
-93.3002249999999975
11
197.6594539999999824
21
-93.3384700000000009
0
LINE
8
BLACK
6
CONTINUOUS
10
200.1994540000000029
20
-93.3384700000000009
11
200.3805659999999875
21
-93.4134889999999984
0
LINE
8
BLACK
6
CONTINUOUS
10
200.3805659999999875
20
-93.4134889999999984
11
200.5435619999999801
21
-93.5223999999999904
0
LINE
8
BLACK
6
CONTINUOUS
10
200.5435619999999801
20
-93.5223999999999904
11
200.6821789999999908
21
-93.6610170000000011
0
LINE
8
BLACK
6
CONTINUOUS
10
200.6821789999999908
20
-93.6610170000000011
11
200.791089999999997
21
-93.8240129999999937
0
LINE
8
BLACK
6
CONTINUOUS
10
200.791089999999997
20
-93.8240129999999937
11
200.8661089999999945
21
-94.0051249999999925
0
LINE
8
BLACK
6
CONTINUOUS
10
200.8661089999999945
20
-94.0051249999999925
11
200.9043539999999837
21
-94.197392999999991
0
LINE
8
BLACK
6
CONTINUOUS
10
200.9043539999999837
20
-94.197392999999991
11
200.9043539999999837
21
-94.3934270000000026
0
LINE
8
BLACK
6
CONTINUOUS
10
200.9043539999999837
20
-94.3934270000000026
11
200.8661089999999945
21
-94.5856950000000012
0
LINE
8
BLACK
6
CONTINUOUS
10
200.8661089999999945
20
-94.5856950000000012
11
200.791089999999997
21
-94.766807
0
LINE
8
BLACK
6
CONTINUOUS
10
200.791089999999997
20
-94.766807
11
200.6821789999999908
21
-94.9298029999999926
0
LINE
8
BLACK
6
CONTINUOUS
10
200.6821789999999908
20
-94.9298029999999926
11
200.5435619999999801
21
-95.068419999999989
0
LINE
8
BLACK
6
CONTINUOUS
10
200.5435619999999801
20
-95.068419999999989
11
200.3805659999999875
21
-95.1773309999999952
0
LINE
8
BLACK
6
CONTINUOUS
10
200.3805659999999875
20
-95.1773309999999952
11
200.1994540000000029
21
-95.2523499999999927
0
LINE
8
BLACK
6
CONTINUOUS
10
200.1994540000000029
20
-95.2523499999999927
11
200.0071859999999901
21
-95.2905949999999962
0
LINE
8
BLACK
6
CONTINUOUS
10
200.0071859999999901
20
-95.2905949999999962
11
199.8111519999999928
21
-95.2905949999999962
0
LINE
8
BLACK
6
CONTINUOUS
10
199.8111519999999928
20
-95.2905949999999962
11
199.61888399999998
21
-95.2523499999999927
0
LINE
8
BLACK
6
CONTINUOUS
10
199.61888399999998
20
-95.2523499999999927
11
199.4377719999999954
21
-95.1773309999999952
0
LINE
8
BLACK
6
CONTINUOUS
10
199.4377719999999954
20
-95.1773309999999952
11
199.2747760000000028
21
-95.068419999999989
0
LINE
8
BLACK
6
CONTINUOUS
10
199.2747760000000028
20
-95.068419999999989
11
199.1361589999999921
21
-94.9298029999999926
0
LINE
8
BLACK
6
CONTINUOUS
10
199.1361589999999921
20
-94.9298029999999926
11
199.027247999999986
21
-94.766807
0
LINE
8
BLACK
6
CONTINUOUS
10
199.027247999999986
20
-94.766807
11
198.9522289999999884
21
-94.5856950000000012
0
LINE
8
BLACK
6
CONTINUOUS
10
198.9522289999999884
20
-94.5856950000000012
11
198.9139839999999992
21
-94.3934270000000026
0
LINE
8
BLACK
6
CONTINUOUS
10
198.9139839999999992
20
-94.3934270000000026
11
198.9139839999999992
21
-94.197392999999991
0
LINE
8
BLACK
6
CONTINUOUS
10
198.9139839999999992
20
-94.197392999999991
11
198.9522289999999884
21
-94.0051249999999925
0
LINE
8
BLACK
6
CONTINUOUS
10
198.9522289999999884
20
-94.0051249999999925
11
199.027247999999986
21
-93.8240129999999937
0
LINE
8
BLACK
6
CONTINUOUS
10
199.027247999999986
20
-93.8240129999999937
11
199.1361589999999921
21
-93.6610170000000011
0
LINE
8
BLACK
6
CONTINUOUS
10
199.1361589999999921
20
-93.6610170000000011
11
199.2747760000000028
21
-93.5223999999999904
0
LINE
8
BLACK
6
CONTINUOUS
10
199.2747760000000028
20
-93.5223999999999904
11
199.4377719999999954
21
-93.4134889999999984
0
LINE
8
BLACK
6
CONTINUOUS
10
199.4377719999999954
20
-93.4134889999999984
11
199.61888399999998
21
-93.3384700000000009
0
LINE
8
BLACK
6
CONTINUOUS
10
199.61888399999998
20
-93.3384700000000009
11
199.8111519999999928
21
-93.3002249999999975
0
LINE
8
BLACK
6
CONTINUOUS
10
199.8111519999999928
20
-93.3002249999999975
11
200.0071859999999901
21
-93.3002249999999975
0
LINE
8
BLACK
6
CONTINUOUS
10
200.0071859999999901
20
-93.3002249999999975
11
200.1994540000000029
21
-93.3384700000000009
0
LINE
8
BLACK
6
CONTINUOUS
10
202.7394539999999949
20
-93.3384700000000009
11
202.9205659999999796
21
-93.4134889999999984
0
LINE
8
BLACK
6
CONTINUOUS
10
202.9205659999999796
20
-93.4134889999999984
11
203.0835620000000006
21
-93.5223999999999904
0
LINE
8
BLACK
6
CONTINUOUS
10
203.0835620000000006
20
-93.5223999999999904
11
203.2221789999999828
21
-93.6610170000000011
0
LINE
8
BLACK
6
CONTINUOUS
10
203.2221789999999828
20
-93.6610170000000011
11
203.331089999999989
21
-93.8240129999999937
0
LINE
8
BLACK
6
CONTINUOUS
10
203.331089999999989
20
-93.8240129999999937
11
203.4061089999999865
21
-94.0051249999999925
0
LINE
8
BLACK
6
CONTINUOUS
10
203.4061089999999865
20
-94.0051249999999925
11
203.4443540000000041
21
-94.197392999999991
0
LINE
8
BLACK
6
CONTINUOUS
10
203.4443540000000041
20
-94.197392999999991
11
203.4443540000000041
21
-94.3934270000000026
0
LINE
8
BLACK
6
CONTINUOUS
10
203.4443540000000041
20
-94.3934270000000026
11
203.4061089999999865
21
-94.5856950000000012
0
LINE
8
BLACK
6
CONTINUOUS
10
203.4061089999999865
20
-94.5856950000000012
11
203.331089999999989
21
-94.766807
0
LINE
8
BLACK
6
CONTINUOUS
10
203.331089999999989
20
-94.766807
11
203.2221789999999828
21
-94.9298029999999926
0
LINE
8
BLACK
6
CONTINUOUS
10
203.2221789999999828
20
-94.9298029999999926
11
203.0835620000000006
21
-95.068419999999989
0
LINE
8
BLACK
6
CONTINUOUS
10
203.0835620000000006
20
-95.068419999999989
11
202.9205659999999796
21
-95.1773309999999952
0
LINE
8
BLACK
6
CONTINUOUS
10
202.9205659999999796
20
-95.1773309999999952
11
202.7394539999999949
21
-95.2523499999999927
0
LINE
8
BLACK
6
CONTINUOUS
10
202.7394539999999949
20
-95.2523499999999927
11
202.5471859999999822
21
-95.2905949999999962
0
LINE
8
BLACK
6
CONTINUOUS
10
202.5471859999999822
20
-95.2905949999999962
11
202.3511519999999848
21
-95.2905949999999962
0
LINE
8
BLACK
6
CONTINUOUS
10
202.3511519999999848
20
-95.2905949999999962
11
202.1588840000000005
21
-95.2523499999999927
0
LINE
8
BLACK
6
CONTINUOUS
10
202.1588840000000005
20
-95.2523499999999927
11
201.9777719999999874
21
-95.1773309999999952
0
LINE
8
BLACK
6
CONTINUOUS
10
201.9777719999999874
20
-95.1773309999999952
11
201.8147759999999948
21
-95.068419999999989
0
LINE
8
BLACK
6
CONTINUOUS
10
201.8147759999999948
20
-95.068419999999989
11
201.6761589999999842
21
-94.9298029999999926
0
LINE
8
BLACK
6
CONTINUOUS
10
201.6761589999999842
20
-94.9298029999999926
11
201.567247999999978
21
-94.766807
0
LINE
8
BLACK
6
CONTINUOUS
10
201.567247999999978
20
-94.766807
11
201.4922289999999805
21
-94.5856950000000012
0
LINE
8
BLACK
6
CONTINUOUS
10
201.4922289999999805
20
-94.5856950000000012
11
201.4539839999999913
21
-94.3934270000000026
0
LINE
8
BLACK
6
CONTINUOUS
10
201.4539839999999913
20
-94.3934270000000026
11
201.4539839999999913
21
-94.197392999999991
0
LINE
8
BLACK
6
CONTINUOUS
10
201.4539839999999913
20
-94.197392999999991
11
201.4922289999999805
21
-94.0051249999999925
0
LINE
8
BLACK
6
CONTINUOUS
10
201.4922289999999805
20
-94.0051249999999925
11
201.567247999999978
21
-93.8240129999999937
0
LINE
8
BLACK
6
CONTINUOUS
10
201.567247999999978
20
-93.8240129999999937
11
201.6761589999999842
21
-93.6610170000000011
0
LINE
8
BLACK
6
CONTINUOUS
10
201.6761589999999842
20
-93.6610170000000011
11
201.8147759999999948
21
-93.5223999999999904
0
LINE
8
BLACK
6
CONTINUOUS
10
201.8147759999999948
20
-93.5223999999999904
11
201.9777719999999874
21
-93.4134889999999984
0
LINE
8
BLACK
6
CONTINUOUS
10
201.9777719999999874
20
-93.4134889999999984
11
202.1588840000000005
21
-93.3384700000000009
0
LINE
8
BLACK
6
CONTINUOUS
10
202.1588840000000005
20
-93.3384700000000009
11
202.3511519999999848
21
-93.3002249999999975
0
LINE
8
BLACK
6
CONTINUOUS
10
202.3511519999999848
20
-93.3002249999999975
11
202.5471859999999822
21
-93.3002249999999975
0
LINE
8
BLACK
6
CONTINUOUS
10
202.5471859999999822
20
-93.3002249999999975
11
202.7394539999999949
21
-93.3384700000000009
0
LINE
8
BLACK
6
CONTINUOUS
10
205.279453999999987
20
-93.3384700000000009
11
205.460566
21
-93.4134889999999984
0
LINE
8
BLACK
6
CONTINUOUS
10
205.460566
20
-93.4134889999999984
11
205.6235619999999926
21
-93.5223999999999904
0
LINE
8
BLACK
6
CONTINUOUS
10
205.6235619999999926
20
-93.5223999999999904
11
205.7621790000000033
21
-93.6610170000000011
0
LINE
8
BLACK
6
CONTINUOUS
10
205.7621790000000033
20
-93.6610170000000011
11
205.871089999999981
21
-93.8240129999999937
0
LINE
8
BLACK
6
CONTINUOUS
10
205.871089999999981
20
-93.8240129999999937
11
205.9461089999999786
21
-94.0051249999999925
0
LINE
8
BLACK
6
CONTINUOUS
10
205.9461089999999786
20
-94.0051249999999925
11
205.9843539999999962
21
-94.197392999999991
0
LINE
8
BLACK
6
CONTINUOUS
10
205.9843539999999962
20
-94.197392999999991
11
205.9843539999999962
21
-94.3934270000000026
0
LINE
8
BLACK
6
CONTINUOUS
10
205.9843539999999962
20
-94.3934270000000026
11
205.9461089999999786
21
-94.5856950000000012
0
LINE
8
BLACK
6
CONTINUOUS
10
205.9461089999999786
20
-94.5856950000000012
11
205.871089999999981
21
-94.766807
0
LINE
8
BLACK
6
CONTINUOUS
10
205.871089999999981
20
-94.766807
11
205.7621790000000033
21
-94.9298029999999926
0
LINE
8
BLACK
6
CONTINUOUS
10
205.7621790000000033
20
-94.9298029999999926
11
205.6235619999999926
21
-95.068419999999989
0
LINE
8
BLACK
6
CONTINUOUS
10
205.6235619999999926
20
-95.068419999999989
11
205.460566
21
-95.1773309999999952
0
LINE
8
BLACK
6
CONTINUOUS
10
205.460566
20
-95.1773309999999952
11
205.279453999999987
21
-95.2523499999999927
0
LINE
8
BLACK
6
CONTINUOUS
10
205.279453999999987
20
-95.2523499999999927
11
205.0871860000000027
21
-95.2905949999999962
0
LINE
8
BLACK
6
CONTINUOUS
10
205.0871860000000027
20
-95.2905949999999962
11
204.8911519999999769
21
-95.2905949999999962
0
LINE
8
BLACK
6
CONTINUOUS
10
204.8911519999999769
20
-95.2905949999999962
11
204.6988839999999925
21
-95.2523499999999927
0
LINE
8
BLACK
6
CONTINUOUS
10
204.6988839999999925
20
-95.2523499999999927
11
204.5177719999999795
21
-95.1773309999999952
0
LINE
8
BLACK
6
CONTINUOUS
10
204.5177719999999795
20
-95.1773309999999952
11
204.3547759999999869
21
-95.068419999999989
0
LINE
8
BLACK
6
CONTINUOUS
10
204.3547759999999869
20
-95.068419999999989
11
204.2161590000000047
21
-94.9298029999999926
0
LINE
8
BLACK
6
CONTINUOUS
10
204.2161590000000047
20
-94.9298029999999926
11
204.1072479999999985
21
-94.766807
0
LINE
8
BLACK
6
CONTINUOUS
10
204.1072479999999985
20
-94.766807
11
204.032229000000001
21
-94.5856950000000012
0
LINE
8
BLACK
6
CONTINUOUS
10
204.032229000000001
20
-94.5856950000000012
11
203.9939839999999833
21
-94.3934270000000026
0
LINE
8
BLACK
6
CONTINUOUS
10
203.9939839999999833
20
-94.3934270000000026
11
203.9939839999999833
21
-94.197392999999991
0
LINE
8
BLACK
6
CONTINUOUS
10
203.9939839999999833
20
-94.197392999999991
11
204.032229000000001
21
-94.0051249999999925
0
LINE
8
BLACK
6
CONTINUOUS
10
204.032229000000001
20
-94.0051249999999925
11
204.1072479999999985
21
-93.8240129999999937
0
LINE
8
BLACK
6
CONTINUOUS
10
204.1072479999999985
20
-93.8240129999999937
11
204.2161590000000047
21
-93.6610170000000011
0
LINE
8
BLACK
6
CONTINUOUS
10
204.2161590000000047
20
-93.6610170000000011
11
204.3547759999999869
21
-93.5223999999999904
0
LINE
8
BLACK
6
CONTINUOUS
10
204.3547759999999869
20
-93.5223999999999904
11
204.5177719999999795
21
-93.4134889999999984
0
LINE
8
BLACK
6
CONTINUOUS
10
204.5177719999999795
20
-93.4134889999999984
11
204.6988839999999925
21
-93.3384700000000009
0
LINE
8
BLACK
6
CONTINUOUS
10
204.6988839999999925
20
-93.3384700000000009
11
204.8911519999999769
21
-93.3002249999999975
0
LINE
8
BLACK
6
CONTINUOUS
10
204.8911519999999769
20
-93.3002249999999975
11
205.0871860000000027
21
-93.3002249999999975
0
LINE
8
BLACK
6
CONTINUOUS
10
205.0871860000000027
20
-93.3002249999999975
11
205.279453999999987
21
-93.3384700000000009
0
LINE
8
BLACK
6
CONTINUOUS
10
166.2999999999999829
20
-92.9689999999999941
11
165.6999999999999886
21
-92.9689999999999941
0
LINE
8
BLACK
6
CONTINUOUS
10
165.6999999999999886
20
-92.9689999999999941
11
165.6999999999999886
21
-91.4189999999999969
0
LINE
8
BLACK
6
CONTINUOUS
10
165.6999999999999886
20
-91.4189999999999969
11
166.2999999999999829
21
-91.4189999999999969
0
LINE
8
BLACK
6
CONTINUOUS
10
166.2999999999999829
20
-91.4189999999999969
11
166.2999999999999829
21
-92.9689999999999941
0
LINE
8
BLACK
6
CONTINUOUS
10
167.2999999999999829
20
-92.9689999999999941
11
166.6999999999999886
21
-92.9689999999999941
0
LINE
8
BLACK
6
CONTINUOUS
10
166.6999999999999886
20
-92.9689999999999941
11
166.6999999999999886
21
-91.4189999999999969
0
LINE
8
BLACK
6
CONTINUOUS
10
166.6999999999999886
20
-91.4189999999999969
11
167.2999999999999829
21
-91.4189999999999969
0
LINE
8
BLACK
6
CONTINUOUS
10
167.2999999999999829
20
-91.4189999999999969
11
167.2999999999999829
21
-92.9689999999999941
0
LINE
8
BLACK
6
CONTINUOUS
10
168.2999999999999829
20
-92.9689999999999941
11
167.6999999999999886
21
-92.9689999999999941
0
LINE
8
BLACK
6
CONTINUOUS
10
167.6999999999999886
20
-92.9689999999999941
11
167.6999999999999886
21
-91.4189999999999969
0
LINE
8
BLACK
6
CONTINUOUS
10
167.6999999999999886
20
-91.4189999999999969
11
168.2999999999999829
21
-91.4189999999999969
0
LINE
8
BLACK
6
CONTINUOUS
10
168.2999999999999829
20
-91.4189999999999969
11
168.2999999999999829
21
-92.9689999999999941
0
LINE
8
BLACK
6
CONTINUOUS
10
169.2999999999999829
20
-92.9689999999999941
11
168.6999999999999886
21
-92.9689999999999941
0
LINE
8
BLACK
6
CONTINUOUS
10
168.6999999999999886
20
-92.9689999999999941
11
168.6999999999999886
21
-91.4189999999999969
0
LINE
8
BLACK
6
CONTINUOUS
10
168.6999999999999886
20
-91.4189999999999969
11
169.2999999999999829
21
-91.4189999999999969
0
LINE
8
BLACK
6
CONTINUOUS
10
169.2999999999999829
20
-91.4189999999999969
11
169.2999999999999829
21
-92.9689999999999941
0
LINE
8
BLACK
6
CONTINUOUS
10
188.6132199999999841
20
-89.4268900000000002
11
188.6943259999999896
21
-89.4810839999999956
0
LINE
8
BLACK
6
CONTINUOUS
10
188.6943259999999896
20
-89.4810839999999956
11
188.748519999999985
21
-89.5621900000000011
0
LINE
8
BLACK
6
CONTINUOUS
10
188.748519999999985
20
-89.5621900000000011
11
188.7675490000000025
21
-89.6578619999999944
0
LINE
8
BLACK
6
CONTINUOUS
10
188.7675490000000025
20
-89.6578619999999944
11
188.76755
21
-90.657859000000002
0
LINE
8
BLACK
6
CONTINUOUS
10
188.76755
20
-90.657859000000002
11
188.748519999999985
21
-90.7535299999999978
0
LINE
8
BLACK
6
CONTINUOUS
10
188.748519999999985
20
-90.7535299999999978
11
188.6943259999999896
21
-90.8346359999999891
0
LINE
8
BLACK
6
CONTINUOUS
10
188.6943259999999896
20
-90.8346359999999891
11
188.6132199999999841
21
-90.8888299999999987
0
LINE
8
BLACK
6
CONTINUOUS
10
188.6132199999999841
20
-90.8888299999999987
11
188.517548000000005
21
-90.907859000000002
0
LINE
8
BLACK
6
CONTINUOUS
10
188.517548000000005
20
-90.907859000000002
11
185.6175509999999917
21
-90.9078599999999994
0
LINE
8
BLACK
6
CONTINUOUS
10
185.6175509999999917
20
-90.9078599999999994
11
185.5218799999999817
21
-90.8888299999999987
0
LINE
8
BLACK
6
CONTINUOUS
10
185.5218799999999817
20
-90.8888299999999987
11
185.4407740000000047
21
-90.8346359999999891
0
LINE
8
BLACK
6
CONTINUOUS
10
185.4407740000000047
20
-90.8346359999999891
11
185.3865799999999808
21
-90.7535299999999978
0
LINE
8
BLACK
6
CONTINUOUS
10
185.3865799999999808
20
-90.7535299999999978
11
185.3675509999999917
21
-90.6578579999999903
0
LINE
8
BLACK
6
CONTINUOUS
10
185.3675509999999917
20
-90.6578579999999903
11
185.3675499999999943
21
-89.6578609999999969
0
LINE
8
BLACK
6
CONTINUOUS
10
185.3675499999999943
20
-89.6578609999999969
11
185.3865799999999808
21
-89.5621900000000011
0
LINE
8
BLACK
6
CONTINUOUS
10
185.3865799999999808
20
-89.5621900000000011
11
185.4407740000000047
21
-89.4810839999999956
0
LINE
8
BLACK
6
CONTINUOUS
10
185.4407740000000047
20
-89.4810839999999956
11
185.5218799999999817
21
-89.4268900000000002
0
LINE
8
BLACK
6
CONTINUOUS
10
185.5218799999999817
20
-89.4268900000000002
11
185.6175519999999892
21
-89.4078609999999969
0
LINE
8
BLACK
6
CONTINUOUS
10
185.6175519999999892
20
-89.4078609999999969
11
188.5175490000000025
21
-89.4078599999999994
0
LINE
8
BLACK
6
CONTINUOUS
10
188.5175490000000025
20
-89.4078599999999994
11
188.6132199999999841
21
-89.4268900000000002
0
LINE
8
BLACK
6
CONTINUOUS
10
203.1722079999999835
20
-89.6342539999999985
11
203.2739430000000027
21
-89.6929909999999921
0
LINE
8
BLACK
6
CONTINUOUS
10
203.2739430000000027
20
-89.6929909999999921
11
203.3570089999999766
21
-89.7760569999999944
0
LINE
8
BLACK
6
CONTINUOUS
10
203.3570089999999766
20
-89.7760569999999944
11
203.4157459999999844
21
-89.8777919999999995
0
LINE
8
BLACK
6
CONTINUOUS
10
203.4157459999999844
20
-89.8777919999999995
11
203.4461499999999887
21
-89.9912629999999893
0
LINE
8
BLACK
6
CONTINUOUS
10
203.4461499999999887
20
-89.9912629999999893
11
203.4461499999999887
21
-90.1087369999999908
0
LINE
8
BLACK
6
CONTINUOUS
10
203.4461499999999887
20
-90.1087369999999908
11
203.4157459999999844
21
-90.2222079999999949
0
LINE
8
BLACK
6
CONTINUOUS
10
203.4157459999999844
20
-90.2222079999999949
11
203.3570089999999766
21
-90.3239429999999999
0
LINE
8
BLACK
6
CONTINUOUS
10
203.3570089999999766
20
-90.3239429999999999
11
203.2739430000000027
21
-90.4070090000000022
0
LINE
8
BLACK
6
CONTINUOUS
10
203.2739430000000027
20
-90.4070090000000022
11
203.1722079999999835
21
-90.4657459999999958
0
LINE
8
BLACK
6
CONTINUOUS
10
203.1722079999999835
20
-90.4657459999999958
11
203.0587369999999794
21
-90.4961500000000001
0
LINE
8
BLACK
6
CONTINUOUS
10
203.0587369999999794
20
-90.4961500000000001
11
202.9412629999999922
21
-90.4961500000000001
0
LINE
8
BLACK
6
CONTINUOUS
10
202.9412629999999922
20
-90.4961500000000001
11
202.8277919999999881
21
-90.4657459999999958
0
LINE
8
BLACK
6
CONTINUOUS
10
202.8277919999999881
20
-90.4657459999999958
11
202.7260569999999973
21
-90.4070090000000022
0
LINE
8
BLACK
6
CONTINUOUS
10
202.7260569999999973
20
-90.4070090000000022
11
202.642990999999995
21
-90.3239429999999999
0
LINE
8
BLACK
6
CONTINUOUS
10
202.642990999999995
20
-90.3239429999999999
11
202.5842539999999872
21
-90.2222079999999949
0
LINE
8
BLACK
6
CONTINUOUS
10
202.5842539999999872
20
-90.2222079999999949
11
202.5538499999999829
21
-90.1087369999999908
0
LINE
8
BLACK
6
CONTINUOUS
10
202.5538499999999829
20
-90.1087369999999908
11
202.5538499999999829
21
-89.9912629999999893
0
LINE
8
BLACK
6
CONTINUOUS
10
202.5538499999999829
20
-89.9912629999999893
11
202.5842539999999872
21
-89.8777919999999995
0
LINE
8
BLACK
6
CONTINUOUS
10
202.5842539999999872
20
-89.8777919999999995
11
202.642990999999995
21
-89.7760569999999944
0
LINE
8
BLACK
6
CONTINUOUS
10
202.642990999999995
20
-89.7760569999999944
11
202.7260569999999973
21
-89.6929909999999921
0
LINE
8
BLACK
6
CONTINUOUS
10
202.7260569999999973
20
-89.6929909999999921
11
202.8277919999999881
21
-89.6342539999999985
0
LINE
8
BLACK
6
CONTINUOUS
10
202.8277919999999881
20
-89.6342539999999985
11
202.9412629999999922
21
-89.6038499999999942
0
LINE
8
BLACK
6
CONTINUOUS
10
202.9412629999999922
20
-89.6038499999999942
11
203.0587369999999794
21
-89.6038499999999942
0
LINE
8
BLACK
6
CONTINUOUS
10
203.0587369999999794
20
-89.6038499999999942
11
203.1722079999999835
21
-89.6342539999999985
0
LINE
8
BLACK
6
CONTINUOUS
10
166.45169199999998
20
-90.0754099999999909
11
164.6516919999999971
21
-90.0754099999999909
0
LINE
8
BLACK
6
CONTINUOUS
10
164.6516919999999971
20
-90.0754099999999909
11
164.6516919999999971
21
-88.8754100000000022
0
LINE
8
BLACK
6
CONTINUOUS
10
164.6516919999999971
20
-88.8754100000000022
11
166.45169199999998
21
-88.8754100000000022
0
LINE
8
BLACK
6
CONTINUOUS
10
166.45169199999998
20
-88.8754100000000022
11
166.45169199999998
21
-90.0754099999999909
0
LINE
8
BLACK
6
CONTINUOUS
10
201.3456709999999816
20
-88.5440299999999922
11
201.4267769999999871
21
-88.5982229999999902
0
LINE
8
BLACK
6
CONTINUOUS
10
201.4267769999999871
20
-88.5982229999999902
11
201.480969999999985
21
-88.6793289999999956
0
LINE
8
BLACK
6
CONTINUOUS
10
201.480969999999985
20
-88.6793289999999956
11
201.5
21
-88.7749999999999915
0
LINE
8
BLACK
6
CONTINUOUS
10
201.5
20
-88.7749999999999915
11
201.5
21
-89.5249999999999915
0
LINE
8
BLACK
6
CONTINUOUS
10
201.5
20
-89.5249999999999915
11
201.480969999999985
21
-89.6206710000000015
0
LINE
8
BLACK
6
CONTINUOUS
10
201.480969999999985
20
-89.6206710000000015
11
201.4267769999999871
21
-89.7017769999999928
0
LINE
8
BLACK
6
CONTINUOUS
10
201.4267769999999871
20
-89.7017769999999928
11
201.3456709999999816
21
-89.7559699999999907
0
LINE
8
BLACK
6
CONTINUOUS
10
201.3456709999999816
20
-89.7559699999999907
11
201.25
21
-89.7749999999999915
0
LINE
8
BLACK
6
CONTINUOUS
10
201.25
20
-89.7749999999999915
11
199.25
21
-89.7749999999999915
0
LINE
8
BLACK
6
CONTINUOUS
10
199.25
20
-89.7749999999999915
11
199.1543289999999899
21
-89.7559699999999907
0
LINE
8
BLACK
6
CONTINUOUS
10
199.1543289999999899
20
-89.7559699999999907
11
199.0732229999999845
21
-89.7017769999999928
0
LINE
8
BLACK
6
CONTINUOUS
10
199.0732229999999845
20
-89.7017769999999928
11
199.0190299999999866
21
-89.6206710000000015
0
LINE
8
BLACK
6
CONTINUOUS
10
199.0190299999999866
20
-89.6206710000000015
11
199.
21
-89.5249999999999915
0
LINE
8
BLACK
6
CONTINUOUS
10
199.
20
-89.5249999999999915
11
199.
21
-88.7749999999999915
0
LINE
8
BLACK
6
CONTINUOUS
10
199.
20
-88.7749999999999915
11
199.0190299999999866
21
-88.6793289999999956
0
LINE
8
BLACK
6
CONTINUOUS
10
199.0190299999999866
20
-88.6793289999999956
11
199.0732229999999845
21
-88.5982229999999902
0
LINE
8
BLACK
6
CONTINUOUS
10
199.0732229999999845
20
-88.5982229999999902
11
199.1543289999999899
21
-88.5440299999999922
0
LINE
8
BLACK
6
CONTINUOUS
10
199.1543289999999899
20
-88.5440299999999922
11
199.25
21
-88.5249999999999915
0
LINE
8
BLACK
6
CONTINUOUS
10
199.25
20
-88.5249999999999915
11
201.25
21
-88.5249999999999915
0
LINE
8
BLACK
6
CONTINUOUS
10
201.25
20
-88.5249999999999915
11
201.3456709999999816
21
-88.5440299999999922
0
LINE
8
BLACK
6
CONTINUOUS
10
170.2266919999999857
20
-88.4754099999999966
11
168.6766920000000027
21
-88.4754099999999966
0
LINE
8
BLACK
6
CONTINUOUS
10
168.6766920000000027
20
-88.4754099999999966
11
168.6766920000000027
21
-87.8754100000000022
0
LINE
8
BLACK
6
CONTINUOUS
10
168.6766920000000027
20
-87.8754100000000022
11
170.2266919999999857
21
-87.8754100000000022
0
LINE
8
BLACK
6
CONTINUOUS
10
170.2266919999999857
20
-87.8754100000000022
11
170.2266919999999857
21
-88.4754099999999966
0
LINE
8
BLACK
6
CONTINUOUS
10
194.413220999999993
20
-87.3268899999999917
11
194.4943269999999984
21
-87.3810829999999896
0
LINE
8
BLACK
6
CONTINUOUS
10
194.4943269999999984
20
-87.3810829999999896
11
194.5485199999999963
21
-87.4621889999999951
0
LINE
8
BLACK
6
CONTINUOUS
10
194.5485199999999963
20
-87.4621889999999951
11
194.5675499999999829
21
-87.5578599999999909
0
LINE
8
BLACK
6
CONTINUOUS
10
194.5675499999999829
20
-87.5578599999999909
11
194.5675499999999829
21
-88.0578599999999909
0
LINE
8
BLACK
6
CONTINUOUS
10
194.5675499999999829
20
-88.0578599999999909
11
194.5485199999999963
21
-88.153531000000001
0
LINE
8
BLACK
6
CONTINUOUS
10
194.5485199999999963
20
-88.153531000000001
11
194.4943269999999984
21
-88.2346369999999922
0
LINE
8
BLACK
6
CONTINUOUS
10
194.4943269999999984
20
-88.2346369999999922
11
194.413220999999993
21
-88.2888299999999902
0
LINE
8
BLACK
6
CONTINUOUS
10
194.413220999999993
20
-88.2888299999999902
11
194.3175499999999829
21
-88.3078599999999909
0
LINE
8
BLACK
6
CONTINUOUS
10
194.3175499999999829
20
-88.3078599999999909
11
191.3175499999999829
21
-88.3078599999999909
0
LINE
8
BLACK
6
CONTINUOUS
10
191.3175499999999829
20
-88.3078599999999909
11
191.2218790000000013
21
-88.2888299999999902
0
LINE
8
BLACK
6
CONTINUOUS
10
191.2218790000000013
20
-88.2888299999999902
11
191.1407729999999958
21
-88.2346369999999922
0
LINE
8
BLACK
6
CONTINUOUS
10
191.1407729999999958
20
-88.2346369999999922
11
191.0865799999999979
21
-88.153531000000001
0
LINE
8
BLACK
6
CONTINUOUS
10
191.0865799999999979
20
-88.153531000000001
11
191.0675499999999829
21
-88.0578599999999909
0
LINE
8
BLACK
6
CONTINUOUS
10
191.0675499999999829
20
-88.0578599999999909
11
191.0675499999999829
21
-87.5578599999999909
0
LINE
8
BLACK
6
CONTINUOUS
10
191.0675499999999829
20
-87.5578599999999909
11
191.0865799999999979
21
-87.4621889999999951
0
LINE
8
BLACK
6
CONTINUOUS
10
191.0865799999999979
20
-87.4621889999999951
11
191.1407729999999958
21
-87.3810829999999896
0
LINE
8
BLACK
6
CONTINUOUS
10
191.1407729999999958
20
-87.3810829999999896
11
191.2218790000000013
21
-87.3268899999999917
0
LINE
8
BLACK
6
CONTINUOUS
10
191.2218790000000013
20
-87.3268899999999917
11
191.3175499999999829
21
-87.3078599999999909
0
LINE
8
BLACK
6
CONTINUOUS
10
191.3175499999999829
20
-87.3078599999999909
11
194.3175499999999829
21
-87.3078599999999909
0
LINE
8
BLACK
6
CONTINUOUS
10
194.3175499999999829
20
-87.3078599999999909
11
194.413220999999993
21
-87.3268899999999917
0
LINE
8
BLACK
6
CONTINUOUS
10
170.2266919999999857
20
-87.4754099999999966
11
168.6766920000000027
21
-87.4754099999999966
0
LINE
8
BLACK
6
CONTINUOUS
10
168.6766920000000027
20
-87.4754099999999966
11
168.6766920000000027
21
-86.8754100000000022
0
LINE
8
BLACK
6
CONTINUOUS
10
168.6766920000000027
20
-86.8754100000000022
11
170.2266919999999857
21
-86.8754100000000022
0
LINE
8
BLACK
6
CONTINUOUS
10
170.2266919999999857
20
-86.8754100000000022
11
170.2266919999999857
21
-87.4754099999999966
0
LINE
8
BLACK
6
CONTINUOUS
10
201.3456709999999816
20
-86.0440299999999922
11
201.4267769999999871
21
-86.0982229999999902
0
LINE
8
BLACK
6
CONTINUOUS
10
201.4267769999999871
20
-86.0982229999999902
11
201.480969999999985
21
-86.1793289999999956
0
LINE
8
BLACK
6
CONTINUOUS
10
201.480969999999985
20
-86.1793289999999956
11
201.5
21
-86.2749999999999915
0
LINE
8
BLACK
6
CONTINUOUS
10
201.5
20
-86.2749999999999915
11
201.5
21
-87.0249999999999915
0
LINE
8
BLACK
6
CONTINUOUS
10
201.5
20
-87.0249999999999915
11
201.480969999999985
21
-87.1206710000000015
0
LINE
8
BLACK
6
CONTINUOUS
10
201.480969999999985
20
-87.1206710000000015
11
201.4267769999999871
21
-87.2017769999999928
0
LINE
8
BLACK
6
CONTINUOUS
10
201.4267769999999871
20
-87.2017769999999928
11
201.3456709999999816
21
-87.2559699999999907
0
LINE
8
BLACK
6
CONTINUOUS
10
201.3456709999999816
20
-87.2559699999999907
11
201.25
21
-87.2749999999999915
0
LINE
8
BLACK
6
CONTINUOUS
10
201.25
20
-87.2749999999999915
11
199.25
21
-87.2749999999999915
0
LINE
8
BLACK
6
CONTINUOUS
10
199.25
20
-87.2749999999999915
11
199.1543289999999899
21
-87.2559699999999907
0
LINE
8
BLACK
6
CONTINUOUS
10
199.1543289999999899
20
-87.2559699999999907
11
199.0732229999999845
21
-87.2017769999999928
0
LINE
8
BLACK
6
CONTINUOUS
10
199.0732229999999845
20
-87.2017769999999928
11
199.0190299999999866
21
-87.1206710000000015
0
LINE
8
BLACK
6
CONTINUOUS
10
199.0190299999999866
20
-87.1206710000000015
11
199.
21
-87.0249999999999915
0
LINE
8
BLACK
6
CONTINUOUS
10
199.
20
-87.0249999999999915
11
199.
21
-86.2749999999999915
0
LINE
8
BLACK
6
CONTINUOUS
10
199.
20
-86.2749999999999915
11
199.0190299999999866
21
-86.1793289999999956
0
LINE
8
BLACK
6
CONTINUOUS
10
199.0190299999999866
20
-86.1793289999999956
11
199.0732229999999845
21
-86.0982229999999902
0
LINE
8
BLACK
6
CONTINUOUS
10
199.0732229999999845
20
-86.0982229999999902
11
199.1543289999999899
21
-86.0440299999999922
0
LINE
8
BLACK
6
CONTINUOUS
10
199.1543289999999899
20
-86.0440299999999922
11
199.25
21
-86.0249999999999915
0
LINE
8
BLACK
6
CONTINUOUS
10
199.25
20
-86.0249999999999915
11
201.25
21
-86.0249999999999915
0
LINE
8
BLACK
6
CONTINUOUS
10
201.25
20
-86.0249999999999915
11
201.3456709999999816
21
-86.0440299999999922
0
LINE
8
BLACK
6
CONTINUOUS
10
170.2266919999999857
20
-86.4754099999999966
11
168.6766920000000027
21
-86.4754099999999966
0
LINE
8
BLACK
6
CONTINUOUS
10
168.6766920000000027
20
-86.4754099999999966
11
168.6766920000000027
21
-85.8754100000000022
0
LINE
8
BLACK
6
CONTINUOUS
10
168.6766920000000027
20
-85.8754100000000022
11
170.2266919999999857
21
-85.8754100000000022
0
LINE
8
BLACK
6
CONTINUOUS
10
170.2266919999999857
20
-85.8754100000000022
11
170.2266919999999857
21
-86.4754099999999966
0
LINE
8
BLACK
6
CONTINUOUS
10
194.413220999999993
20
-85.3268899999999917
11
194.4943269999999984
21
-85.3810829999999896
0
LINE
8
BLACK
6
CONTINUOUS
10
194.4943269999999984
20
-85.3810829999999896
11
194.5485199999999963
21
-85.4621889999999951
0
LINE
8
BLACK
6
CONTINUOUS
10
194.5485199999999963
20
-85.4621889999999951
11
194.5675499999999829
21
-85.5578599999999909
0
LINE
8
BLACK
6
CONTINUOUS
10
194.5675499999999829
20
-85.5578599999999909
11
194.5675499999999829
21
-86.0578599999999909
0
LINE
8
BLACK
6
CONTINUOUS
10
194.5675499999999829
20
-86.0578599999999909
11
194.5485199999999963
21
-86.153531000000001
0
LINE
8
BLACK
6
CONTINUOUS
10
194.5485199999999963
20
-86.153531000000001
11
194.4943269999999984
21
-86.2346369999999922
0
LINE
8
BLACK
6
CONTINUOUS
10
194.4943269999999984
20
-86.2346369999999922
11
194.413220999999993
21
-86.2888299999999902
0
LINE
8
BLACK
6
CONTINUOUS
10
194.413220999999993
20
-86.2888299999999902
11
194.3175499999999829
21
-86.3078599999999909
0
LINE
8
BLACK
6
CONTINUOUS
10
194.3175499999999829
20
-86.3078599999999909
11
191.3175499999999829
21
-86.3078599999999909
0
LINE
8
BLACK
6
CONTINUOUS
10
191.3175499999999829
20
-86.3078599999999909
11
191.2218790000000013
21
-86.2888299999999902
0
LINE
8
BLACK
6
CONTINUOUS
10
191.2218790000000013
20
-86.2888299999999902
11
191.1407729999999958
21
-86.2346369999999922
0
LINE
8
BLACK
6
CONTINUOUS
10
191.1407729999999958
20
-86.2346369999999922
11
191.0865799999999979
21
-86.153531000000001
0
LINE
8
BLACK
6
CONTINUOUS
10
191.0865799999999979
20
-86.153531000000001
11
191.0675499999999829
21
-86.0578599999999909
0
LINE
8
BLACK
6
CONTINUOUS
10
191.0675499999999829
20
-86.0578599999999909
11
191.0675499999999829
21
-85.5578599999999909
0
LINE
8
BLACK
6
CONTINUOUS
10
191.0675499999999829
20
-85.5578599999999909
11
191.0865799999999979
21
-85.4621889999999951
0
LINE
8
BLACK
6
CONTINUOUS
10
191.0865799999999979
20
-85.4621889999999951
11
191.1407729999999958
21
-85.3810829999999896
0
LINE
8
BLACK
6
CONTINUOUS
10
191.1407729999999958
20
-85.3810829999999896
11
191.2218790000000013
21
-85.3268899999999917
0
LINE
8
BLACK
6
CONTINUOUS
10
191.2218790000000013
20
-85.3268899999999917
11
191.3175499999999829
21
-85.3078599999999909
0
LINE
8
BLACK
6
CONTINUOUS
10
191.3175499999999829
20
-85.3078599999999909
11
194.3175499999999829
21
-85.3078599999999909
0
LINE
8
BLACK
6
CONTINUOUS
10
194.3175499999999829
20
-85.3078599999999909
11
194.413220999999993
21
-85.3268899999999917
0
LINE
8
BLACK
6
CONTINUOUS
10
170.2266919999999857
20
-85.4754099999999966
11
168.6766920000000027
21
-85.4754099999999966
0
LINE
8
BLACK
6
CONTINUOUS
10
168.6766920000000027
20
-85.4754099999999966
11
168.6766920000000027
21
-84.8754100000000022
0
LINE
8
BLACK
6
CONTINUOUS
10
168.6766920000000027
20
-84.8754100000000022
11
170.2266919999999857
21
-84.8754100000000022
0
LINE
8
BLACK
6
CONTINUOUS
10
170.2266919999999857
20
-84.8754100000000022
11
170.2266919999999857
21
-85.4754099999999966
0
LINE
8
BLACK
6
CONTINUOUS
10
201.3456709999999816
20
-83.5440299999999922
11
201.4267769999999871
21
-83.5982229999999902
0
LINE
8
BLACK
6
CONTINUOUS
10
201.4267769999999871
20
-83.5982229999999902
11
201.480969999999985
21
-83.6793289999999956
0
LINE
8
BLACK
6
CONTINUOUS
10
201.480969999999985
20
-83.6793289999999956
11
201.5
21
-83.7749999999999915
0
LINE
8
BLACK
6
CONTINUOUS
10
201.5
20
-83.7749999999999915
11
201.5
21
-84.5249999999999915
0
LINE
8
BLACK
6
CONTINUOUS
10
201.5
20
-84.5249999999999915
11
201.480969999999985
21
-84.6206710000000015
0
LINE
8
BLACK
6
CONTINUOUS
10
201.480969999999985
20
-84.6206710000000015
11
201.4267769999999871
21
-84.7017769999999928
0
LINE
8
BLACK
6
CONTINUOUS
10
201.4267769999999871
20
-84.7017769999999928
11
201.3456709999999816
21
-84.7559699999999907
0
LINE
8
BLACK
6
CONTINUOUS
10
201.3456709999999816
20
-84.7559699999999907
11
201.25
21
-84.7749999999999915
0
LINE
8
BLACK
6
CONTINUOUS
10
201.25
20
-84.7749999999999915
11
199.25
21
-84.7749999999999915
0
LINE
8
BLACK
6
CONTINUOUS
10
199.25
20
-84.7749999999999915
11
199.1543289999999899
21
-84.7559699999999907
0
LINE
8
BLACK
6
CONTINUOUS
10
199.1543289999999899
20
-84.7559699999999907
11
199.0732229999999845
21
-84.7017769999999928
0
LINE
8
BLACK
6
CONTINUOUS
10
199.0732229999999845
20
-84.7017769999999928
11
199.0190299999999866
21
-84.6206710000000015
0
LINE
8
BLACK
6
CONTINUOUS
10
199.0190299999999866
20
-84.6206710000000015
11
199.
21
-84.5249999999999915
0
LINE
8
BLACK
6
CONTINUOUS
10
199.
20
-84.5249999999999915
11
199.
21
-83.7749999999999915
0
LINE
8
BLACK
6
CONTINUOUS
10
199.
20
-83.7749999999999915
11
199.0190299999999866
21
-83.6793289999999956
0
LINE
8
BLACK
6
CONTINUOUS
10
199.0190299999999866
20
-83.6793289999999956
11
199.0732229999999845
21
-83.5982229999999902
0
LINE
8
BLACK
6
CONTINUOUS
10
199.0732229999999845
20
-83.5982229999999902
11
199.1543289999999899
21
-83.5440299999999922
0
LINE
8
BLACK
6
CONTINUOUS
10
199.1543289999999899
20
-83.5440299999999922
11
199.25
21
-83.5249999999999915
0
LINE
8
BLACK
6
CONTINUOUS
10
199.25
20
-83.5249999999999915
11
201.25
21
-83.5249999999999915
0
LINE
8
BLACK
6
CONTINUOUS
10
201.25
20
-83.5249999999999915
11
201.3456709999999816
21
-83.5440299999999922
0
LINE
8
BLACK
6
CONTINUOUS
10
166.45169199999998
20
-84.4754099999999966
11
164.6516919999999971
21
-84.4754099999999966
0
LINE
8
BLACK
6
CONTINUOUS
10
164.6516919999999971
20
-84.4754099999999966
11
164.6516919999999971
21
-83.2754099999999937
0
LINE
8
BLACK
6
CONTINUOUS
10
164.6516919999999971
20
-83.2754099999999937
11
166.45169199999998
21
-83.2754099999999937
0
LINE
8
BLACK
6
CONTINUOUS
10
166.45169199999998
20
-83.2754099999999937
11
166.45169199999998
21
-84.4754099999999966
0
LINE
8
BLACK
6
CONTINUOUS
10
188.6132199999999841
20
-82.7268899999999974
11
188.6943259999999896
21
-82.7810839999999928
0
LINE
8
BLACK
6
CONTINUOUS
10
188.6943259999999896
20
-82.7810839999999928
11
188.748519999999985
21
-82.8621899999999982
0
LINE
8
BLACK
6
CONTINUOUS
10
188.748519999999985
20
-82.8621899999999982
11
188.7675490000000025
21
-82.9578619999999916
0
LINE
8
BLACK
6
CONTINUOUS
10
188.7675490000000025
20
-82.9578619999999916
11
188.76755
21
-83.9578589999999991
0
LINE
8
BLACK
6
CONTINUOUS
10
188.76755
20
-83.9578589999999991
11
188.748519999999985
21
-84.053529999999995
0
LINE
8
BLACK
6
CONTINUOUS
10
188.748519999999985
20
-84.053529999999995
11
188.6943259999999896
21
-84.1346360000000004
0
LINE
8
BLACK
6
CONTINUOUS
10
188.6943259999999896
20
-84.1346360000000004
11
188.6132199999999841
21
-84.1888299999999958
0
LINE
8
BLACK
6
CONTINUOUS
10
188.6132199999999841
20
-84.1888299999999958
11
188.517548000000005
21
-84.2078589999999991
0
LINE
8
BLACK
6
CONTINUOUS
10
188.517548000000005
20
-84.2078589999999991
11
185.6175509999999917
21
-84.2078599999999966
0
LINE
8
BLACK
6
CONTINUOUS
10
185.6175509999999917
20
-84.2078599999999966
11
185.5218799999999817
21
-84.1888299999999958
0
LINE
8
BLACK
6
CONTINUOUS
10
185.5218799999999817
20
-84.1888299999999958
11
185.4407740000000047
21
-84.1346360000000004
0
LINE
8
BLACK
6
CONTINUOUS
10
185.4407740000000047
20
-84.1346360000000004
11
185.3865799999999808
21
-84.053529999999995
0
LINE
8
BLACK
6
CONTINUOUS
10
185.3865799999999808
20
-84.053529999999995
11
185.3675509999999917
21
-83.9578580000000017
0
LINE
8
BLACK
6
CONTINUOUS
10
185.3675509999999917
20
-83.9578580000000017
11
185.3675499999999943
21
-82.9578609999999941
0
LINE
8
BLACK
6
CONTINUOUS
10
185.3675499999999943
20
-82.9578609999999941
11
185.3865799999999808
21
-82.8621899999999982
0
LINE
8
BLACK
6
CONTINUOUS
10
185.3865799999999808
20
-82.8621899999999982
11
185.4407740000000047
21
-82.7810839999999928
0
LINE
8
BLACK
6
CONTINUOUS
10
185.4407740000000047
20
-82.7810839999999928
11
185.5218799999999817
21
-82.7268899999999974
0
LINE
8
BLACK
6
CONTINUOUS
10
185.5218799999999817
20
-82.7268899999999974
11
185.6175519999999892
21
-82.7078609999999941
0
LINE
8
BLACK
6
CONTINUOUS
10
185.6175519999999892
20
-82.7078609999999941
11
188.5175490000000025
21
-82.7078599999999966
0
LINE
8
BLACK
6
CONTINUOUS
10
188.5175490000000025
20
-82.7078599999999966
11
188.6132199999999841
21
-82.7268899999999974
0
LINE
8
BLACK
6
CONTINUOUS
10
203.1722079999999835
20
-82.8342540000000014
11
203.2739430000000027
21
-82.892990999999995
0
LINE
8
BLACK
6
CONTINUOUS
10
203.2739430000000027
20
-82.892990999999995
11
203.3570089999999766
21
-82.9760569999999973
0
LINE
8
BLACK
6
CONTINUOUS
10
203.3570089999999766
20
-82.9760569999999973
11
203.4157459999999844
21
-83.0777920000000023
0
LINE
8
BLACK
6
CONTINUOUS
10
203.4157459999999844
20
-83.0777920000000023
11
203.4461499999999887
21
-83.1912629999999922
0
LINE
8
BLACK
6
CONTINUOUS
10
203.4461499999999887
20
-83.1912629999999922
11
203.4461499999999887
21
-83.3087369999999936
0
LINE
8
BLACK
6
CONTINUOUS
10
203.4461499999999887
20
-83.3087369999999936
11
203.4157459999999844
21
-83.4222079999999977
0
LINE
8
BLACK
6
CONTINUOUS
10
203.4157459999999844
20
-83.4222079999999977
11
203.3570089999999766
21
-83.5239430000000027
0
LINE
8
BLACK
6
CONTINUOUS
10
203.3570089999999766
20
-83.5239430000000027
11
203.2739430000000027
21
-83.6070089999999908
0
LINE
8
BLACK
6
CONTINUOUS
10
203.2739430000000027
20
-83.6070089999999908
11
203.1722079999999835
21
-83.6657459999999986
0
LINE
8
BLACK
6
CONTINUOUS
10
203.1722079999999835
20
-83.6657459999999986
11
203.0587369999999794
21
-83.6961500000000029
0
LINE
8
BLACK
6
CONTINUOUS
10
203.0587369999999794
20
-83.6961500000000029
11
202.9412629999999922
21
-83.6961500000000029
0
LINE
8
BLACK
6
CONTINUOUS
10
202.9412629999999922
20
-83.6961500000000029
11
202.8277919999999881
21
-83.6657459999999986
0
LINE
8
BLACK
6
CONTINUOUS
10
202.8277919999999881
20
-83.6657459999999986
11
202.7260569999999973
21
-83.6070089999999908
0
LINE
8
BLACK
6
CONTINUOUS
10
202.7260569999999973
20
-83.6070089999999908
11
202.642990999999995
21
-83.5239430000000027
0
LINE
8
BLACK
6
CONTINUOUS
10
202.642990999999995
20
-83.5239430000000027
11
202.5842539999999872
21
-83.4222079999999977
0
LINE
8
BLACK
6
CONTINUOUS
10
202.5842539999999872
20
-83.4222079999999977
11
202.5538499999999829
21
-83.3087369999999936
0
LINE
8
BLACK
6
CONTINUOUS
10
202.5538499999999829
20
-83.3087369999999936
11
202.5538499999999829
21
-83.1912629999999922
0
LINE
8
BLACK
6
CONTINUOUS
10
202.5538499999999829
20
-83.1912629999999922
11
202.5842539999999872
21
-83.0777920000000023
0
LINE
8
BLACK
6
CONTINUOUS
10
202.5842539999999872
20
-83.0777920000000023
11
202.642990999999995
21
-82.9760569999999973
0
LINE
8
BLACK
6
CONTINUOUS
10
202.642990999999995
20
-82.9760569999999973
11
202.7260569999999973
21
-82.892990999999995
0
LINE
8
BLACK
6
CONTINUOUS
10
202.7260569999999973
20
-82.892990999999995
11
202.8277919999999881
21
-82.8342540000000014
0
LINE
8
BLACK
6
CONTINUOUS
10
202.8277919999999881
20
-82.8342540000000014
11
202.9412629999999922
21
-82.8038499999999971
0
LINE
8
BLACK
6
CONTINUOUS
10
202.9412629999999922
20
-82.8038499999999971
11
203.0587369999999794
21
-82.8038499999999971
0
LINE
8
BLACK
6
CONTINUOUS
10
203.0587369999999794
20
-82.8038499999999971
11
203.1722079999999835
21
-82.8342540000000014
0
LINE
8
BLACK
6
CONTINUOUS
10
166.1999999999999886
20
-81.8810000000000002
11
165.5999999999999943
21
-81.8810000000000002
0
LINE
8
BLACK
6
CONTINUOUS
10
165.5999999999999943
20
-81.8810000000000002
11
165.5999999999999943
21
-80.3310000000000031
0
LINE
8
BLACK
6
CONTINUOUS
10
165.5999999999999943
20
-80.3310000000000031
11
166.1999999999999886
21
-80.3310000000000031
0
LINE
8
BLACK
6
CONTINUOUS
10
166.1999999999999886
20
-80.3310000000000031
11
166.1999999999999886
21
-81.8810000000000002
0
LINE
8
BLACK
6
CONTINUOUS
10
167.1999999999999886
20
-81.8810000000000002
11
166.5999999999999943
21
-81.8810000000000002
0
LINE
8
BLACK
6
CONTINUOUS
10
166.5999999999999943
20
-81.8810000000000002
11
166.5999999999999943
21
-80.3310000000000031
0
LINE
8
BLACK
6
CONTINUOUS
10
166.5999999999999943
20
-80.3310000000000031
11
167.1999999999999886
21
-80.3310000000000031
0
LINE
8
BLACK
6
CONTINUOUS
10
167.1999999999999886
20
-80.3310000000000031
11
167.1999999999999886
21
-81.8810000000000002
0
LINE
8
BLACK
6
CONTINUOUS
10
168.1999999999999886
20
-81.8810000000000002
11
167.5999999999999943
21
-81.8810000000000002
0
LINE
8
BLACK
6
CONTINUOUS
10
167.5999999999999943
20
-81.8810000000000002
11
167.5999999999999943
21
-80.3310000000000031
0
LINE
8
BLACK
6
CONTINUOUS
10
167.5999999999999943
20
-80.3310000000000031
11
168.1999999999999886
21
-80.3310000000000031
0
LINE
8
BLACK
6
CONTINUOUS
10
168.1999999999999886
20
-80.3310000000000031
11
168.1999999999999886
21
-81.8810000000000002
0
LINE
8
BLACK
6
CONTINUOUS
10
169.1999999999999886
20
-81.8810000000000002
11
168.5999999999999943
21
-81.8810000000000002
0
LINE
8
BLACK
6
CONTINUOUS
10
168.5999999999999943
20
-81.8810000000000002
11
168.5999999999999943
21
-80.3310000000000031
0
LINE
8
BLACK
6
CONTINUOUS
10
168.5999999999999943
20
-80.3310000000000031
11
169.1999999999999886
21
-80.3310000000000031
0
LINE
8
BLACK
6
CONTINUOUS
10
169.1999999999999886
20
-80.3310000000000031
11
169.1999999999999886
21
-81.8810000000000002
0
LINE
8
BLACK
6
CONTINUOUS
10
174.799443999999994
20
-78.0984600000000029
11
174.9805559999999787
21
-78.1734790000000004
0
LINE
8
BLACK
6
CONTINUOUS
10
174.9805559999999787
20
-78.1734790000000004
11
175.1435519999999997
21
-78.2823899999999924
0
LINE
8
BLACK
6
CONTINUOUS
10
175.1435519999999997
20
-78.2823899999999924
11
175.2821689999999819
21
-78.421007000000003
0
LINE
8
BLACK
6
CONTINUOUS
10
175.2821689999999819
20
-78.421007000000003
11
175.3910799999999881
21
-78.5840029999999956
0
LINE
8
BLACK
6
CONTINUOUS
10
175.3910799999999881
20
-78.5840029999999956
11
175.4660989999999856
21
-78.7651149999999944
0
LINE
8
BLACK
6
CONTINUOUS
10
175.4660989999999856
20
-78.7651149999999944
11
175.5043440000000032
21
-78.957382999999993
0
LINE
8
BLACK
6
CONTINUOUS
10
175.5043440000000032
20
-78.957382999999993
11
175.5043440000000032
21
-79.1534169999999904
0
LINE
8
BLACK
6
CONTINUOUS
10
175.5043440000000032
20
-79.1534169999999904
11
175.4660989999999856
21
-79.3456850000000031
0
LINE
8
BLACK
6
CONTINUOUS
10
175.4660989999999856
20
-79.3456850000000031
11
175.3910799999999881
21
-79.526797000000002
0
LINE
8
BLACK
6
CONTINUOUS
10
175.3910799999999881
20
-79.526797000000002
11
175.2821689999999819
21
-79.6897929999999945
0
LINE
8
BLACK
6
CONTINUOUS
10
175.2821689999999819
20
-79.6897929999999945
11
175.1435519999999997
21
-79.828409999999991
0
LINE
8
BLACK
6
CONTINUOUS
10
175.1435519999999997
20
-79.828409999999991
11
174.9805559999999787
21
-79.9373209999999972
0
LINE
8
BLACK
6
CONTINUOUS
10
174.9805559999999787
20
-79.9373209999999972
11
174.799443999999994
21
-80.0123399999999947
0
LINE
8
BLACK
6
CONTINUOUS
10
174.799443999999994
20
-80.0123399999999947
11
174.6071759999999813
21
-80.0505849999999981
0
LINE
8
BLACK
6
CONTINUOUS
10
174.6071759999999813
20
-80.0505849999999981
11
174.4111419999999839
21
-80.0505849999999981
0
LINE
8
BLACK
6
CONTINUOUS
10
174.4111419999999839
20
-80.0505849999999981
11
174.2188739999999996
21
-80.0123399999999947
0
LINE
8
BLACK
6
CONTINUOUS
10
174.2188739999999996
20
-80.0123399999999947
11
174.0377619999999865
21
-79.9373209999999972
0
LINE
8
BLACK
6
CONTINUOUS
10
174.0377619999999865
20
-79.9373209999999972
11
173.8747659999999939
21
-79.828409999999991
0
LINE
8
BLACK
6
CONTINUOUS
10
173.8747659999999939
20
-79.828409999999991
11
173.7361489999999833
21
-79.6897929999999945
0
LINE
8
BLACK
6
CONTINUOUS
10
173.7361489999999833
20
-79.6897929999999945
11
173.6272380000000055
21
-79.526797000000002
0
LINE
8
BLACK
6
CONTINUOUS
10
173.6272380000000055
20
-79.526797000000002
11
173.5522189999999796
21
-79.3456850000000031
0
LINE
8
BLACK
6
CONTINUOUS
10
173.5522189999999796
20
-79.3456850000000031
11
173.5139739999999904
21
-79.1534169999999904
0
LINE
8
BLACK
6
CONTINUOUS
10
173.5139739999999904
20
-79.1534169999999904
11
173.5139739999999904
21
-78.957382999999993
0
LINE
8
BLACK
6
CONTINUOUS
10
173.5139739999999904
20
-78.957382999999993
11
173.5522189999999796
21
-78.7651149999999944
0
LINE
8
BLACK
6
CONTINUOUS
10
173.5522189999999796
20
-78.7651149999999944
11
173.6272380000000055
21
-78.5840029999999956
0
LINE
8
BLACK
6
CONTINUOUS
10
173.6272380000000055
20
-78.5840029999999956
11
173.7361489999999833
21
-78.421007000000003
0
LINE
8
BLACK
6
CONTINUOUS
10
173.7361489999999833
20
-78.421007000000003
11
173.8747659999999939
21
-78.2823899999999924
0
LINE
8
BLACK
6
CONTINUOUS
10
173.8747659999999939
20
-78.2823899999999924
11
174.0377619999999865
21
-78.1734790000000004
0
LINE
8
BLACK
6
CONTINUOUS
10
174.0377619999999865
20
-78.1734790000000004
11
174.2188739999999996
21
-78.0984600000000029
0
LINE
8
BLACK
6
CONTINUOUS
10
174.2188739999999996
20
-78.0984600000000029
11
174.4111419999999839
21
-78.0602149999999995
0
LINE
8
BLACK
6
CONTINUOUS
10
174.4111419999999839
20
-78.0602149999999995
11
174.6071759999999813
21
-78.0602149999999995
0
LINE
8
BLACK
6
CONTINUOUS
10
174.6071759999999813
20
-78.0602149999999995
11
174.799443999999994
21
-78.0984600000000029
0
LINE
8
BLACK
6
CONTINUOUS
10
177.3394439999999861
20
-78.0984600000000029
11
177.5205559999999991
21
-78.1734790000000004
0
LINE
8
BLACK
6
CONTINUOUS
10
177.5205559999999991
20
-78.1734790000000004
11
177.6835519999999917
21
-78.2823899999999924
0
LINE
8
BLACK
6
CONTINUOUS
10
177.6835519999999917
20
-78.2823899999999924
11
177.8221690000000024
21
-78.421007000000003
0
LINE
8
BLACK
6
CONTINUOUS
10
177.8221690000000024
20
-78.421007000000003
11
177.9310799999999801
21
-78.5840029999999956
0
LINE
8
BLACK
6
CONTINUOUS
10
177.9310799999999801
20
-78.5840029999999956
11
178.0060990000000061
21
-78.7651149999999944
0
LINE
8
BLACK
6
CONTINUOUS
10
178.0060990000000061
20
-78.7651149999999944
11
178.0443439999999953
21
-78.957382999999993
0
LINE
8
BLACK
6
CONTINUOUS
10
178.0443439999999953
20
-78.957382999999993
11
178.0443439999999953
21
-79.1534169999999904
0
LINE
8
BLACK
6
CONTINUOUS
10
178.0443439999999953
20
-79.1534169999999904
11
178.0060990000000061
21
-79.3456850000000031
0
LINE
8
BLACK
6
CONTINUOUS
10
178.0060990000000061
20
-79.3456850000000031
11
177.9310799999999801
21
-79.526797000000002
0
LINE
8
BLACK
6
CONTINUOUS
10
177.9310799999999801
20
-79.526797000000002
11
177.8221690000000024
21
-79.6897929999999945
0
LINE
8
BLACK
6
CONTINUOUS
10
177.8221690000000024
20
-79.6897929999999945
11
177.6835519999999917
21
-79.828409999999991
0
LINE
8
BLACK
6
CONTINUOUS
10
177.6835519999999917
20
-79.828409999999991
11
177.5205559999999991
21
-79.9373209999999972
0
LINE
8
BLACK
6
CONTINUOUS
10
177.5205559999999991
20
-79.9373209999999972
11
177.3394439999999861
21
-80.0123399999999947
0
LINE
8
BLACK
6
CONTINUOUS
10
177.3394439999999861
20
-80.0123399999999947
11
177.1471760000000017
21
-80.0505849999999981
0
LINE
8
BLACK
6
CONTINUOUS
10
177.1471760000000017
20
-80.0505849999999981
11
176.9511420000000044
21
-80.0505849999999981
0
LINE
8
BLACK
6
CONTINUOUS
10
176.9511420000000044
20
-80.0505849999999981
11
176.7588739999999916
21
-80.0123399999999947
0
LINE
8
BLACK
6
CONTINUOUS
10
176.7588739999999916
20
-80.0123399999999947
11
176.5777619999999786
21
-79.9373209999999972
0
LINE
8
BLACK
6
CONTINUOUS
10
176.5777619999999786
20
-79.9373209999999972
11
176.414765999999986
21
-79.828409999999991
0
LINE
8
BLACK
6
CONTINUOUS
10
176.414765999999986
20
-79.828409999999991
11
176.2761490000000038
21
-79.6897929999999945
0
LINE
8
BLACK
6
CONTINUOUS
10
176.2761490000000038
20
-79.6897929999999945
11
176.1672379999999976
21
-79.526797000000002
0
LINE
8
BLACK
6
CONTINUOUS
10
176.1672379999999976
20
-79.526797000000002
11
176.0922190000000001
21
-79.3456850000000031
0
LINE
8
BLACK
6
CONTINUOUS
10
176.0922190000000001
20
-79.3456850000000031
11
176.0539739999999824
21
-79.1534169999999904
0
LINE
8
BLACK
6
CONTINUOUS
10
176.0539739999999824
20
-79.1534169999999904
11
176.0539739999999824
21
-78.957382999999993
0
LINE
8
BLACK
6
CONTINUOUS
10
176.0539739999999824
20
-78.957382999999993
11
176.0922190000000001
21
-78.7651149999999944
0
LINE
8
BLACK
6
CONTINUOUS
10
176.0922190000000001
20
-78.7651149999999944
11
176.1672379999999976
21
-78.5840029999999956
0
LINE
8
BLACK
6
CONTINUOUS
10
176.1672379999999976
20
-78.5840029999999956
11
176.2761490000000038
21
-78.421007000000003
0
LINE
8
BLACK
6
CONTINUOUS
10
176.2761490000000038
20
-78.421007000000003
11
176.414765999999986
21
-78.2823899999999924
0
LINE
8
BLACK
6
CONTINUOUS
10
176.414765999999986
20
-78.2823899999999924
11
176.5777619999999786
21
-78.1734790000000004
0
LINE
8
BLACK
6
CONTINUOUS
10
176.5777619999999786
20
-78.1734790000000004
11
176.7588739999999916
21
-78.0984600000000029
0
LINE
8
BLACK
6
CONTINUOUS
10
176.7588739999999916
20
-78.0984600000000029
11
176.9511420000000044
21
-78.0602149999999995
0
LINE
8
BLACK
6
CONTINUOUS
10
176.9511420000000044
20
-78.0602149999999995
11
177.1471760000000017
21
-78.0602149999999995
0
LINE
8
BLACK
6
CONTINUOUS
10
177.1471760000000017
20
-78.0602149999999995
11
177.3394439999999861
21
-78.0984600000000029
0
LINE
8
BLACK
6
CONTINUOUS
10
179.8794439999999781
20
-78.0984600000000029
11
180.0605559999999912
21
-78.1734790000000004
0
LINE
8
BLACK
6
CONTINUOUS
10
180.0605559999999912
20
-78.1734790000000004
11
180.2235519999999838
21
-78.2823899999999924
0
LINE
8
BLACK
6
CONTINUOUS
10
180.2235519999999838
20
-78.2823899999999924
11
180.3621689999999944
21
-78.421007000000003
0
LINE
8
BLACK
6
CONTINUOUS
10
180.3621689999999944
20
-78.421007000000003
11
180.4710800000000006
21
-78.5840029999999956
0
LINE
8
BLACK
6
CONTINUOUS
10
180.4710800000000006
20
-78.5840029999999956
11
180.5460989999999981
21
-78.7651149999999944
0
LINE
8
BLACK
6
CONTINUOUS
10
180.5460989999999981
20
-78.7651149999999944
11
180.5843439999999873
21
-78.957382999999993
0
LINE
8
BLACK
6
CONTINUOUS
10
180.5843439999999873
20
-78.957382999999993
11
180.5843439999999873
21
-79.1534169999999904
0
LINE
8
BLACK
6
CONTINUOUS
10
180.5843439999999873
20
-79.1534169999999904
11
180.5460989999999981
21
-79.3456850000000031
0
LINE
8
BLACK
6
CONTINUOUS
10
180.5460989999999981
20
-79.3456850000000031
11
180.4710800000000006
21
-79.526797000000002
0
LINE
8
BLACK
6
CONTINUOUS
10
180.4710800000000006
20
-79.526797000000002
11
180.3621689999999944
21
-79.6897929999999945
0
LINE
8
BLACK
6
CONTINUOUS
10
180.3621689999999944
20
-79.6897929999999945
11
180.2235519999999838
21
-79.828409999999991
0
LINE
8
BLACK
6
CONTINUOUS
10
180.2235519999999838
20
-79.828409999999991
11
180.0605559999999912
21
-79.9373209999999972
0
LINE
8
BLACK
6
CONTINUOUS
10
180.0605559999999912
20
-79.9373209999999972
11
179.8794439999999781
21
-80.0123399999999947
0
LINE
8
BLACK
6
CONTINUOUS
10
179.8794439999999781
20
-80.0123399999999947
11
179.6871759999999938
21
-80.0505849999999981
0
LINE
8
BLACK
6
CONTINUOUS
10
179.6871759999999938
20
-80.0505849999999981
11
179.4911419999999964
21
-80.0505849999999981
0
LINE
8
BLACK
6
CONTINUOUS
10
179.4911419999999964
20
-80.0505849999999981
11
179.2988739999999837
21
-80.0123399999999947
0
LINE
8
BLACK
6
CONTINUOUS
10
179.2988739999999837
20
-80.0123399999999947
11
179.117761999999999
21
-79.9373209999999972
0
LINE
8
BLACK
6
CONTINUOUS
10
179.117761999999999
20
-79.9373209999999972
11
178.954765999999978
21
-79.828409999999991
0
LINE
8
BLACK
6
CONTINUOUS
10
178.954765999999978
20
-79.828409999999991
11
178.8161489999999958
21
-79.6897929999999945
0
LINE
8
BLACK
6
CONTINUOUS
10
178.8161489999999958
20
-79.6897929999999945
11
178.7072379999999896
21
-79.526797000000002
0
LINE
8
BLACK
6
CONTINUOUS
10
178.7072379999999896
20
-79.526797000000002
11
178.6322189999999921
21
-79.3456850000000031
0
LINE
8
BLACK
6
CONTINUOUS
10
178.6322189999999921
20
-79.3456850000000031
11
178.5939740000000029
21
-79.1534169999999904
0
LINE
8
BLACK
6
CONTINUOUS
10
178.5939740000000029
20
-79.1534169999999904
11
178.5939740000000029
21
-78.957382999999993
0
LINE
8
BLACK
6
CONTINUOUS
10
178.5939740000000029
20
-78.957382999999993
11
178.6322189999999921
21
-78.7651149999999944
0
LINE
8
BLACK
6
CONTINUOUS
10
178.6322189999999921
20
-78.7651149999999944
11
178.7072379999999896
21
-78.5840029999999956
0
LINE
8
BLACK
6
CONTINUOUS
10
178.7072379999999896
20
-78.5840029999999956
11
178.8161489999999958
21
-78.421007000000003
0
LINE
8
BLACK
6
CONTINUOUS
10
178.8161489999999958
20
-78.421007000000003
11
178.954765999999978
21
-78.2823899999999924
0
LINE
8
BLACK
6
CONTINUOUS
10
178.954765999999978
20
-78.2823899999999924
11
179.117761999999999
21
-78.1734790000000004
0
LINE
8
BLACK
6
CONTINUOUS
10
179.117761999999999
20
-78.1734790000000004
11
179.2988739999999837
21
-78.0984600000000029
0
LINE
8
BLACK
6
CONTINUOUS
10
179.2988739999999837
20
-78.0984600000000029
11
179.4911419999999964
21
-78.0602149999999995
0
LINE
8
BLACK
6
CONTINUOUS
10
179.4911419999999964
20
-78.0602149999999995
11
179.6871759999999938
21
-78.0602149999999995
0
LINE
8
BLACK
6
CONTINUOUS
10
179.6871759999999938
20
-78.0602149999999995
11
179.8794439999999781
21
-78.0984600000000029
0
LINE
8
BLACK
6
CONTINUOUS
10
182.4194439999999986
20
-78.0984600000000029
11
182.6005559999999832
21
-78.1734790000000004
0
LINE
8
BLACK
6
CONTINUOUS
10
182.6005559999999832
20
-78.1734790000000004
11
182.7635520000000042
21
-78.2823899999999924
0
LINE
8
BLACK
6
CONTINUOUS
10
182.7635520000000042
20
-78.2823899999999924
11
182.9021689999999865
21
-78.421007000000003
0
LINE
8
BLACK
6
CONTINUOUS
10
182.9021689999999865
20
-78.421007000000003
11
183.0110799999999927
21
-78.5840029999999956
0
LINE
8
BLACK
6
CONTINUOUS
10
183.0110799999999927
20
-78.5840029999999956
11
183.0860989999999902
21
-78.7651149999999944
0
LINE
8
BLACK
6
CONTINUOUS
10
183.0860989999999902
20
-78.7651149999999944
11
183.1243439999999794
21
-78.957382999999993
0
LINE
8
BLACK
6
CONTINUOUS
10
183.1243439999999794
20
-78.957382999999993
11
183.1243439999999794
21
-79.1534169999999904
0
LINE
8
BLACK
6
CONTINUOUS
10
183.1243439999999794
20
-79.1534169999999904
11
183.0860989999999902
21
-79.3456850000000031
0
LINE
8
BLACK
6
CONTINUOUS
10
183.0860989999999902
20
-79.3456850000000031
11
183.0110799999999927
21
-79.526797000000002
0
LINE
8
BLACK
6
CONTINUOUS
10
183.0110799999999927
20
-79.526797000000002
11
182.9021689999999865
21
-79.6897929999999945
0
LINE
8
BLACK
6
CONTINUOUS
10
182.9021689999999865
20
-79.6897929999999945
11
182.7635520000000042
21
-79.828409999999991
0
LINE
8
BLACK
6
CONTINUOUS
10
182.7635520000000042
20
-79.828409999999991
11
182.6005559999999832
21
-79.9373209999999972
0
LINE
8
BLACK
6
CONTINUOUS
10
182.6005559999999832
20
-79.9373209999999972
11
182.4194439999999986
21
-80.0123399999999947
0
LINE
8
BLACK
6
CONTINUOUS
10
182.4194439999999986
20
-80.0123399999999947
11
182.2271759999999858
21
-80.0505849999999981
0
LINE
8
BLACK
6
CONTINUOUS
10
182.2271759999999858
20
-80.0505849999999981
11
182.0311419999999885
21
-80.0505849999999981
0
LINE
8
BLACK
6
CONTINUOUS
10
182.0311419999999885
20
-80.0505849999999981
11
181.8388740000000041
21
-80.0123399999999947
0
LINE
8
BLACK
6
CONTINUOUS
10
181.8388740000000041
20
-80.0123399999999947
11
181.6577619999999911
21
-79.9373209999999972
0
LINE
8
BLACK
6
CONTINUOUS
10
181.6577619999999911
20
-79.9373209999999972
11
181.4947659999999985
21
-79.828409999999991
0
LINE
8
BLACK
6
CONTINUOUS
10
181.4947659999999985
20
-79.828409999999991
11
181.3561489999999878
21
-79.6897929999999945
0
LINE
8
BLACK
6
CONTINUOUS
10
181.3561489999999878
20
-79.6897929999999945
11
181.2472379999999816
21
-79.526797000000002
0
LINE
8
BLACK
6
CONTINUOUS
10
181.2472379999999816
20
-79.526797000000002
11
181.1722189999999841
21
-79.3456850000000031
0
LINE
8
BLACK
6
CONTINUOUS
10
181.1722189999999841
20
-79.3456850000000031
11
181.1339739999999949
21
-79.1534169999999904
0
LINE
8
BLACK
6
CONTINUOUS
10
181.1339739999999949
20
-79.1534169999999904
11
181.1339739999999949
21
-78.957382999999993
0
LINE
8
BLACK
6
CONTINUOUS
10
181.1339739999999949
20
-78.957382999999993
11
181.1722189999999841
21
-78.7651149999999944
0
LINE
8
BLACK
6
CONTINUOUS
10
181.1722189999999841
20
-78.7651149999999944
11
181.2472379999999816
21
-78.5840029999999956
0
LINE
8
BLACK
6
CONTINUOUS
10
181.2472379999999816
20
-78.5840029999999956
11
181.3561489999999878
21
-78.421007000000003
0
LINE
8
BLACK
6
CONTINUOUS
10
181.3561489999999878
20
-78.421007000000003
11
181.4947659999999985
21
-78.2823899999999924
0
LINE
8
BLACK
6
CONTINUOUS
10
181.4947659999999985
20
-78.2823899999999924
11
181.6577619999999911
21
-78.1734790000000004
0
LINE
8
BLACK
6
CONTINUOUS
10
181.6577619999999911
20
-78.1734790000000004
11
181.8388740000000041
21
-78.0984600000000029
0
LINE
8
BLACK
6
CONTINUOUS
10
181.8388740000000041
20
-78.0984600000000029
11
182.0311419999999885
21
-78.0602149999999995
0
LINE
8
BLACK
6
CONTINUOUS
10
182.0311419999999885
20
-78.0602149999999995
11
182.2271759999999858
21
-78.0602149999999995
0
LINE
8
BLACK
6
CONTINUOUS
10
182.2271759999999858
20
-78.0602149999999995
11
182.4194439999999986
21
-78.0984600000000029
0
LINE
8
BLACK
6
CONTINUOUS
10
184.9594439999999906
20
-78.0984600000000029
11
185.1405560000000037
21
-78.1734790000000004
0
LINE
8
BLACK
6
CONTINUOUS
10
185.1405560000000037
20
-78.1734790000000004
11
185.3035519999999963
21
-78.2823899999999924
0
LINE
8
BLACK
6
CONTINUOUS
10
185.3035519999999963
20
-78.2823899999999924
11
185.4421689999999785
21
-78.421007000000003
0
LINE
8
BLACK
6
CONTINUOUS
10
185.4421689999999785
20
-78.421007000000003
11
185.5510799999999847
21
-78.5840029999999956
0
LINE
8
BLACK
6
CONTINUOUS
10
185.5510799999999847
20
-78.5840029999999956
11
185.6260989999999822
21
-78.7651149999999944
0
LINE
8
BLACK
6
CONTINUOUS
10
185.6260989999999822
20
-78.7651149999999944
11
185.6643439999999998
21
-78.957382999999993
0
LINE
8
BLACK
6
CONTINUOUS
10
185.6643439999999998
20
-78.957382999999993
11
185.6643439999999998
21
-79.1534169999999904
0
LINE
8
BLACK
6
CONTINUOUS
10
185.6643439999999998
20
-79.1534169999999904
11
185.6260989999999822
21
-79.3456850000000031
0
LINE
8
BLACK
6
CONTINUOUS
10
185.6260989999999822
20
-79.3456850000000031
11
185.5510799999999847
21
-79.526797000000002
0
LINE
8
BLACK
6
CONTINUOUS
10
185.5510799999999847
20
-79.526797000000002
11
185.4421689999999785
21
-79.6897929999999945
0
LINE
8
BLACK
6
CONTINUOUS
10
185.4421689999999785
20
-79.6897929999999945
11
185.3035519999999963
21
-79.828409999999991
0
LINE
8
BLACK
6
CONTINUOUS
10
185.3035519999999963
20
-79.828409999999991
11
185.1405560000000037
21
-79.9373209999999972
0
LINE
8
BLACK
6
CONTINUOUS
10
185.1405560000000037
20
-79.9373209999999972
11
184.9594439999999906
21
-80.0123399999999947
0
LINE
8
BLACK
6
CONTINUOUS
10
184.9594439999999906
20
-80.0123399999999947
11
184.7671759999999779
21
-80.0505849999999981
0
LINE
8
BLACK
6
CONTINUOUS
10
184.7671759999999779
20
-80.0505849999999981
11
184.5711419999999805
21
-80.0505849999999981
0
LINE
8
BLACK
6
CONTINUOUS
10
184.5711419999999805
20
-80.0505849999999981
11
184.3788739999999962
21
-80.0123399999999947
0
LINE
8
BLACK
6
CONTINUOUS
10
184.3788739999999962
20
-80.0123399999999947
11
184.1977619999999831
21
-79.9373209999999972
0
LINE
8
BLACK
6
CONTINUOUS
10
184.1977619999999831
20
-79.9373209999999972
11
184.0347659999999905
21
-79.828409999999991
0
LINE
8
BLACK
6
CONTINUOUS
10
184.0347659999999905
20
-79.828409999999991
11
183.8961489999999799
21
-79.6897929999999945
0
LINE
8
BLACK
6
CONTINUOUS
10
183.8961489999999799
20
-79.6897929999999945
11
183.7872380000000021
21
-79.526797000000002
0
LINE
8
BLACK
6
CONTINUOUS
10
183.7872380000000021
20
-79.526797000000002
11
183.7122190000000046
21
-79.3456850000000031
0
LINE
8
BLACK
6
CONTINUOUS
10
183.7122190000000046
20
-79.3456850000000031
11
183.673973999999987
21
-79.1534169999999904
0
LINE
8
BLACK
6
CONTINUOUS
10
183.673973999999987
20
-79.1534169999999904
11
183.673973999999987
21
-78.957382999999993
0
LINE
8
BLACK
6
CONTINUOUS
10
183.673973999999987
20
-78.957382999999993
11
183.7122190000000046
21
-78.7651149999999944
0
LINE
8
BLACK
6
CONTINUOUS
10
183.7122190000000046
20
-78.7651149999999944
11
183.7872380000000021
21
-78.5840029999999956
0
LINE
8
BLACK
6
CONTINUOUS
10
183.7872380000000021
20
-78.5840029999999956
11
183.8961489999999799
21
-78.421007000000003
0
LINE
8
BLACK
6
CONTINUOUS
10
183.8961489999999799
20
-78.421007000000003
11
184.0347659999999905
21
-78.2823899999999924
0
LINE
8
BLACK
6
CONTINUOUS
10
184.0347659999999905
20
-78.2823899999999924
11
184.1977619999999831
21
-78.1734790000000004
0
LINE
8
BLACK
6
CONTINUOUS
10
184.1977619999999831
20
-78.1734790000000004
11
184.3788739999999962
21
-78.0984600000000029
0
LINE
8
BLACK
6
CONTINUOUS
10
184.3788739999999962
20
-78.0984600000000029
11
184.5711419999999805
21
-78.0602149999999995
0
LINE
8
BLACK
6
CONTINUOUS
10
184.5711419999999805
20
-78.0602149999999995
11
184.7671759999999779
21
-78.0602149999999995
0
LINE
8
BLACK
6
CONTINUOUS
10
184.7671759999999779
20
-78.0602149999999995
11
184.9594439999999906
21
-78.0984600000000029
0
LINE
8
BLACK
6
CONTINUOUS
10
187.4994439999999827
20
-78.0984600000000029
11
187.6805559999999957
21
-78.1734790000000004
0
LINE
8
BLACK
6
CONTINUOUS
10
187.6805559999999957
20
-78.1734790000000004
11
187.8435519999999883
21
-78.2823899999999924
0
LINE
8
BLACK
6
CONTINUOUS
10
187.8435519999999883
20
-78.2823899999999924
11
187.982168999999999
21
-78.421007000000003
0
LINE
8
BLACK
6
CONTINUOUS
10
187.982168999999999
20
-78.421007000000003
11
188.0910800000000052
21
-78.5840029999999956
0
LINE
8
BLACK
6
CONTINUOUS
10
188.0910800000000052
20
-78.5840029999999956
11
188.1660990000000027
21
-78.7651149999999944
0
LINE
8
BLACK
6
CONTINUOUS
10
188.1660990000000027
20
-78.7651149999999944
11
188.2043439999999919
21
-78.957382999999993
0
LINE
8
BLACK
6
CONTINUOUS
10
188.2043439999999919
20
-78.957382999999993
11
188.2043439999999919
21
-79.1534169999999904
0
LINE
8
BLACK
6
CONTINUOUS
10
188.2043439999999919
20
-79.1534169999999904
11
188.1660990000000027
21
-79.3456850000000031
0
LINE
8
BLACK
6
CONTINUOUS
10
188.1660990000000027
20
-79.3456850000000031
11
188.0910800000000052
21
-79.526797000000002
0
LINE
8
BLACK
6
CONTINUOUS
10
188.0910800000000052
20
-79.526797000000002
11
187.982168999999999
21
-79.6897929999999945
0
LINE
8
BLACK
6
CONTINUOUS
10
187.982168999999999
20
-79.6897929999999945
11
187.8435519999999883
21
-79.828409999999991
0
LINE
8
BLACK
6
CONTINUOUS
10
187.8435519999999883
20
-79.828409999999991
11
187.6805559999999957
21
-79.9373209999999972
0
LINE
8
BLACK
6
CONTINUOUS
10
187.6805559999999957
20
-79.9373209999999972
11
187.4994439999999827
21
-80.0123399999999947
0
LINE
8
BLACK
6
CONTINUOUS
10
187.4994439999999827
20
-80.0123399999999947
11
187.3071759999999983
21
-80.0505849999999981
0
LINE
8
BLACK
6
CONTINUOUS
10
187.3071759999999983
20
-80.0505849999999981
11
187.111142000000001
21
-80.0505849999999981
0
LINE
8
BLACK
6
CONTINUOUS
10
187.111142000000001
20
-80.0505849999999981
11
186.9188739999999882
21
-80.0123399999999947
0
LINE
8
BLACK
6
CONTINUOUS
10
186.9188739999999882
20
-80.0123399999999947
11
186.7377620000000036
21
-79.9373209999999972
0
LINE
8
BLACK
6
CONTINUOUS
10
186.7377620000000036
20
-79.9373209999999972
11
186.5747659999999826
21
-79.828409999999991
0
LINE
8
BLACK
6
CONTINUOUS
10
186.5747659999999826
20
-79.828409999999991
11
186.4361490000000003
21
-79.6897929999999945
0
LINE
8
BLACK
6
CONTINUOUS
10
186.4361490000000003
20
-79.6897929999999945
11
186.3272379999999941
21
-79.526797000000002
0
LINE
8
BLACK
6
CONTINUOUS
10
186.3272379999999941
20
-79.526797000000002
11
186.2522189999999966
21
-79.3456850000000031
0
LINE
8
BLACK
6
CONTINUOUS
10
186.2522189999999966
20
-79.3456850000000031
11
186.213973999999979
21
-79.1534169999999904
0
LINE
8
BLACK
6
CONTINUOUS
10
186.213973999999979
20
-79.1534169999999904
11
186.213973999999979
21
-78.957382999999993
0
LINE
8
BLACK
6
CONTINUOUS
10
186.213973999999979
20
-78.957382999999993
11
186.2522189999999966
21
-78.7651149999999944
0
LINE
8
BLACK
6
CONTINUOUS
10
186.2522189999999966
20
-78.7651149999999944
11
186.3272379999999941
21
-78.5840029999999956
0
LINE
8
BLACK
6
CONTINUOUS
10
186.3272379999999941
20
-78.5840029999999956
11
186.4361490000000003
21
-78.421007000000003
0
LINE
8
BLACK
6
CONTINUOUS
10
186.4361490000000003
20
-78.421007000000003
11
186.5747659999999826
21
-78.2823899999999924
0
LINE
8
BLACK
6
CONTINUOUS
10
186.5747659999999826
20
-78.2823899999999924
11
186.7377620000000036
21
-78.1734790000000004
0
LINE
8
BLACK
6
CONTINUOUS
10
186.7377620000000036
20
-78.1734790000000004
11
186.9188739999999882
21
-78.0984600000000029
0
LINE
8
BLACK
6
CONTINUOUS
10
186.9188739999999882
20
-78.0984600000000029
11
187.111142000000001
21
-78.0602149999999995
0
LINE
8
BLACK
6
CONTINUOUS
10
187.111142000000001
20
-78.0602149999999995
11
187.3071759999999983
21
-78.0602149999999995
0
LINE
8
BLACK
6
CONTINUOUS
10
187.3071759999999983
20
-78.0602149999999995
11
187.4994439999999827
21
-78.0984600000000029
0
LINE
8
BLACK
6
CONTINUOUS
10
190.0394440000000031
20
-78.0984600000000029
11
190.2205559999999878
21
-78.1734790000000004
0
LINE
8
BLACK
6
CONTINUOUS
10
190.2205559999999878
20
-78.1734790000000004
11
190.3835519999999804
21
-78.2823899999999924
0
LINE
8
BLACK
6
CONTINUOUS
10
190.3835519999999804
20
-78.2823899999999924
11
190.522168999999991
21
-78.421007000000003
0
LINE
8
BLACK
6
CONTINUOUS
10
190.522168999999991
20
-78.421007000000003
11
190.6310799999999972
21
-78.5840029999999956
0
LINE
8
BLACK
6
CONTINUOUS
10
190.6310799999999972
20
-78.5840029999999956
11
190.7060989999999947
21
-78.7651149999999944
0
LINE
8
BLACK
6
CONTINUOUS
10
190.7060989999999947
20
-78.7651149999999944
11
190.7443439999999839
21
-78.957382999999993
0
LINE
8
BLACK
6
CONTINUOUS
10
190.7443439999999839
20
-78.957382999999993
11
190.7443439999999839
21
-79.1534169999999904
0
LINE
8
BLACK
6
CONTINUOUS
10
190.7443439999999839
20
-79.1534169999999904
11
190.7060989999999947
21
-79.3456850000000031
0
LINE
8
BLACK
6
CONTINUOUS
10
190.7060989999999947
20
-79.3456850000000031
11
190.6310799999999972
21
-79.526797000000002
0
LINE
8
BLACK
6
CONTINUOUS
10
190.6310799999999972
20
-79.526797000000002
11
190.522168999999991
21
-79.6897929999999945
0
LINE
8
BLACK
6
CONTINUOUS
10
190.522168999999991
20
-79.6897929999999945
11
190.3835519999999804
21
-79.828409999999991
0
LINE
8
BLACK
6
CONTINUOUS
10
190.3835519999999804
20
-79.828409999999991
11
190.2205559999999878
21
-79.9373209999999972
0
LINE
8
BLACK
6
CONTINUOUS
10
190.2205559999999878
20
-79.9373209999999972
11
190.0394440000000031
21
-80.0123399999999947
0
LINE
8
BLACK
6
CONTINUOUS
10
190.0394440000000031
20
-80.0123399999999947
11
189.8471759999999904
21
-80.0505849999999981
0
LINE
8
BLACK
6
CONTINUOUS
10
189.8471759999999904
20
-80.0505849999999981
11
189.651141999999993
21
-80.0505849999999981
0
LINE
8
BLACK
6
CONTINUOUS
10
189.651141999999993
20
-80.0505849999999981
11
189.4588739999999802
21
-80.0123399999999947
0
LINE
8
BLACK
6
CONTINUOUS
10
189.4588739999999802
20
-80.0123399999999947
11
189.2777619999999956
21
-79.9373209999999972
0
LINE
8
BLACK
6
CONTINUOUS
10
189.2777619999999956
20
-79.9373209999999972
11
189.114766000000003
21
-79.828409999999991
0
LINE
8
BLACK
6
CONTINUOUS
10
189.114766000000003
20
-79.828409999999991
11
188.9761489999999924
21
-79.6897929999999945
0
LINE
8
BLACK
6
CONTINUOUS
10
188.9761489999999924
20
-79.6897929999999945
11
188.8672379999999862
21
-79.526797000000002
0
LINE
8
BLACK
6
CONTINUOUS
10
188.8672379999999862
20
-79.526797000000002
11
188.7922189999999887
21
-79.3456850000000031
0
LINE
8
BLACK
6
CONTINUOUS
10
188.7922189999999887
20
-79.3456850000000031
11
188.7539739999999995
21
-79.1534169999999904
0
LINE
8
BLACK
6
CONTINUOUS
10
188.7539739999999995
20
-79.1534169999999904
11
188.7539739999999995
21
-78.957382999999993
0
LINE
8
BLACK
6
CONTINUOUS
10
188.7539739999999995
20
-78.957382999999993
11
188.7922189999999887
21
-78.7651149999999944
0
LINE
8
BLACK
6
CONTINUOUS
10
188.7922189999999887
20
-78.7651149999999944
11
188.8672379999999862
21
-78.5840029999999956
0
LINE
8
BLACK
6
CONTINUOUS
10
188.8672379999999862
20
-78.5840029999999956
11
188.9761489999999924
21
-78.421007000000003
0
LINE
8
BLACK
6
CONTINUOUS
10
188.9761489999999924
20
-78.421007000000003
11
189.114766000000003
21
-78.2823899999999924
0
LINE
8
BLACK
6
CONTINUOUS
10
189.114766000000003
20
-78.2823899999999924
11
189.2777619999999956
21
-78.1734790000000004
0
LINE
8
BLACK
6
CONTINUOUS
10
189.2777619999999956
20
-78.1734790000000004
11
189.4588739999999802
21
-78.0984600000000029
0
LINE
8
BLACK
6
CONTINUOUS
10
189.4588739999999802
20
-78.0984600000000029
11
189.651141999999993
21
-78.0602149999999995
0
LINE
8
BLACK
6
CONTINUOUS
10
189.651141999999993
20
-78.0602149999999995
11
189.8471759999999904
21
-78.0602149999999995
0
LINE
8
BLACK
6
CONTINUOUS
10
189.8471759999999904
20
-78.0602149999999995
11
190.0394440000000031
21
-78.0984600000000029
0
LINE
8
BLACK
6
CONTINUOUS
10
192.5794439999999952
20
-78.0984600000000029
11
192.7605559999999798
21
-78.1734790000000004
0
LINE
8
BLACK
6
CONTINUOUS
10
192.7605559999999798
20
-78.1734790000000004
11
192.9235520000000008
21
-78.2823899999999924
0
LINE
8
BLACK
6
CONTINUOUS
10
192.9235520000000008
20
-78.2823899999999924
11
193.062168999999983
21
-78.421007000000003
0
LINE
8
BLACK
6
CONTINUOUS
10
193.062168999999983
20
-78.421007000000003
11
193.1710799999999892
21
-78.5840029999999956
0
LINE
8
BLACK
6
CONTINUOUS
10
193.1710799999999892
20
-78.5840029999999956
11
193.2460989999999867
21
-78.7651149999999944
0
LINE
8
BLACK
6
CONTINUOUS
10
193.2460989999999867
20
-78.7651149999999944
11
193.2843440000000044
21
-78.957382999999993
0
LINE
8
BLACK
6
CONTINUOUS
10
193.2843440000000044
20
-78.957382999999993
11
193.2843440000000044
21
-79.1534169999999904
0
LINE
8
BLACK
6
CONTINUOUS
10
193.2843440000000044
20
-79.1534169999999904
11
193.2460989999999867
21
-79.3456850000000031
0
LINE
8
BLACK
6
CONTINUOUS
10
193.2460989999999867
20
-79.3456850000000031
11
193.1710799999999892
21
-79.526797000000002
0
LINE
8
BLACK
6
CONTINUOUS
10
193.1710799999999892
20
-79.526797000000002
11
193.062168999999983
21
-79.6897929999999945
0
LINE
8
BLACK
6
CONTINUOUS
10
193.062168999999983
20
-79.6897929999999945
11
192.9235520000000008
21
-79.828409999999991
0
LINE
8
BLACK
6
CONTINUOUS
10
192.9235520000000008
20
-79.828409999999991
11
192.7605559999999798
21
-79.9373209999999972
0
LINE
8
BLACK
6
CONTINUOUS
10
192.7605559999999798
20
-79.9373209999999972
11
192.5794439999999952
21
-80.0123399999999947
0
LINE
8
BLACK
6
CONTINUOUS
10
192.5794439999999952
20
-80.0123399999999947
11
192.3871759999999824
21
-80.0505849999999981
0
LINE
8
BLACK
6
CONTINUOUS
10
192.3871759999999824
20
-80.0505849999999981
11
192.191141999999985
21
-80.0505849999999981
0
LINE
8
BLACK
6
CONTINUOUS
10
192.191141999999985
20
-80.0505849999999981
11
191.9988740000000007
21
-80.0123399999999947
0
LINE
8
BLACK
6
CONTINUOUS
10
191.9988740000000007
20
-80.0123399999999947
11
191.8177619999999877
21
-79.9373209999999972
0
LINE
8
BLACK
6
CONTINUOUS
10
191.8177619999999877
20
-79.9373209999999972
11
191.6547659999999951
21
-79.828409999999991
0
LINE
8
BLACK
6
CONTINUOUS
10
191.6547659999999951
20
-79.828409999999991
11
191.5161489999999844
21
-79.6897929999999945
0
LINE
8
BLACK
6
CONTINUOUS
10
191.5161489999999844
20
-79.6897929999999945
11
191.4072379999999782
21
-79.526797000000002
0
LINE
8
BLACK
6
CONTINUOUS
10
191.4072379999999782
20
-79.526797000000002
11
191.3322189999999807
21
-79.3456850000000031
0
LINE
8
BLACK
6
CONTINUOUS
10
191.3322189999999807
20
-79.3456850000000031
11
191.2939739999999915
21
-79.1534169999999904
0
LINE
8
BLACK
6
CONTINUOUS
10
191.2939739999999915
20
-79.1534169999999904
11
191.2939739999999915
21
-78.957382999999993
0
LINE
8
BLACK
6
CONTINUOUS
10
191.2939739999999915
20
-78.957382999999993
11
191.3322189999999807
21
-78.7651149999999944
0
LINE
8
BLACK
6
CONTINUOUS
10
191.3322189999999807
20
-78.7651149999999944
11
191.4072379999999782
21
-78.5840029999999956
0
LINE
8
BLACK
6
CONTINUOUS
10
191.4072379999999782
20
-78.5840029999999956
11
191.5161489999999844
21
-78.421007000000003
0
LINE
8
BLACK
6
CONTINUOUS
10
191.5161489999999844
20
-78.421007000000003
11
191.6547659999999951
21
-78.2823899999999924
0
LINE
8
BLACK
6
CONTINUOUS
10
191.6547659999999951
20
-78.2823899999999924
11
191.8177619999999877
21
-78.1734790000000004
0
LINE
8
BLACK
6
CONTINUOUS
10
191.8177619999999877
20
-78.1734790000000004
11
191.9988740000000007
21
-78.0984600000000029
0
LINE
8
BLACK
6
CONTINUOUS
10
191.9988740000000007
20
-78.0984600000000029
11
192.191141999999985
21
-78.0602149999999995
0
LINE
8
BLACK
6
CONTINUOUS
10
192.191141999999985
20
-78.0602149999999995
11
192.3871759999999824
21
-78.0602149999999995
0
LINE
8
BLACK
6
CONTINUOUS
10
192.3871759999999824
20
-78.0602149999999995
11
192.5794439999999952
21
-78.0984600000000029
0
LINE
8
BLACK
6
CONTINUOUS
10
195.1194439999999872
20
-78.0984600000000029
11
195.3005560000000003
21
-78.1734790000000004
0
LINE
8
BLACK
6
CONTINUOUS
10
195.3005560000000003
20
-78.1734790000000004
11
195.4635519999999929
21
-78.2823899999999924
0
LINE
8
BLACK
6
CONTINUOUS
10
195.4635519999999929
20
-78.2823899999999924
11
195.6021690000000035
21
-78.421007000000003
0
LINE
8
BLACK
6
CONTINUOUS
10
195.6021690000000035
20
-78.421007000000003
11
195.7110799999999813
21
-78.5840029999999956
0
LINE
8
BLACK
6
CONTINUOUS
10
195.7110799999999813
20
-78.5840029999999956
11
195.7860989999999788
21
-78.7651149999999944
0
LINE
8
BLACK
6
CONTINUOUS
10
195.7860989999999788
20
-78.7651149999999944
11
195.8243439999999964
21
-78.957382999999993
0
LINE
8
BLACK
6
CONTINUOUS
10
195.8243439999999964
20
-78.957382999999993
11
195.8243439999999964
21
-79.1534169999999904
0
LINE
8
BLACK
6
CONTINUOUS
10
195.8243439999999964
20
-79.1534169999999904
11
195.7860989999999788
21
-79.3456850000000031
0
LINE
8
BLACK
6
CONTINUOUS
10
195.7860989999999788
20
-79.3456850000000031
11
195.7110799999999813
21
-79.526797000000002
0
LINE
8
BLACK
6
CONTINUOUS
10
195.7110799999999813
20
-79.526797000000002
11
195.6021690000000035
21
-79.6897929999999945
0
LINE
8
BLACK
6
CONTINUOUS
10
195.6021690000000035
20
-79.6897929999999945
11
195.4635519999999929
21
-79.828409999999991
0
LINE
8
BLACK
6
CONTINUOUS
10
195.4635519999999929
20
-79.828409999999991
11
195.3005560000000003
21
-79.9373209999999972
0
LINE
8
BLACK
6
CONTINUOUS
10
195.3005560000000003
20
-79.9373209999999972
11
195.1194439999999872
21
-80.0123399999999947
0
LINE
8
BLACK
6
CONTINUOUS
10
195.1194439999999872
20
-80.0123399999999947
11
194.9271760000000029
21
-80.0505849999999981
0
LINE
8
BLACK
6
CONTINUOUS
10
194.9271760000000029
20
-80.0505849999999981
11
194.7311419999999771
21
-80.0505849999999981
0
LINE
8
BLACK
6
CONTINUOUS
10
194.7311419999999771
20
-80.0505849999999981
11
194.5388739999999927
21
-80.0123399999999947
0
LINE
8
BLACK
6
CONTINUOUS
10
194.5388739999999927
20
-80.0123399999999947
11
194.3577619999999797
21
-79.9373209999999972
0
LINE
8
BLACK
6
CONTINUOUS
10
194.3577619999999797
20
-79.9373209999999972
11
194.1947659999999871
21
-79.828409999999991
0
LINE
8
BLACK
6
CONTINUOUS
10
194.1947659999999871
20
-79.828409999999991
11
194.0561490000000049
21
-79.6897929999999945
0
LINE
8
BLACK
6
CONTINUOUS
10
194.0561490000000049
20
-79.6897929999999945
11
193.9472379999999987
21
-79.526797000000002
0
LINE
8
BLACK
6
CONTINUOUS
10
193.9472379999999987
20
-79.526797000000002
11
193.8722190000000012
21
-79.3456850000000031
0
LINE
8
BLACK
6
CONTINUOUS
10
193.8722190000000012
20
-79.3456850000000031
11
193.8339739999999836
21
-79.1534169999999904
0
LINE
8
BLACK
6
CONTINUOUS
10
193.8339739999999836
20
-79.1534169999999904
11
193.8339739999999836
21
-78.957382999999993
0
LINE
8
BLACK
6
CONTINUOUS
10
193.8339739999999836
20
-78.957382999999993
11
193.8722190000000012
21
-78.7651149999999944
0
LINE
8
BLACK
6
CONTINUOUS
10
193.8722190000000012
20
-78.7651149999999944
11
193.9472379999999987
21
-78.5840029999999956
0
LINE
8
BLACK
6
CONTINUOUS
10
193.9472379999999987
20
-78.5840029999999956
11
194.0561490000000049
21
-78.421007000000003
0
LINE
8
BLACK
6
CONTINUOUS
10
194.0561490000000049
20
-78.421007000000003
11
194.1947659999999871
21
-78.2823899999999924
0
LINE
8
BLACK
6
CONTINUOUS
10
194.1947659999999871
20
-78.2823899999999924
11
194.3577619999999797
21
-78.1734790000000004
0
LINE
8
BLACK
6
CONTINUOUS
10
194.3577619999999797
20
-78.1734790000000004
11
194.5388739999999927
21
-78.0984600000000029
0
LINE
8
BLACK
6
CONTINUOUS
10
194.5388739999999927
20
-78.0984600000000029
11
194.7311419999999771
21
-78.0602149999999995
0
LINE
8
BLACK
6
CONTINUOUS
10
194.7311419999999771
20
-78.0602149999999995
11
194.9271760000000029
21
-78.0602149999999995
0
LINE
8
BLACK
6
CONTINUOUS
10
194.9271760000000029
20
-78.0602149999999995
11
195.1194439999999872
21
-78.0984600000000029
0
LINE
8
BLACK
6
CONTINUOUS
10
197.6594439999999793
20
-78.0984600000000029
11
197.8405559999999923
21
-78.1734790000000004
0
LINE
8
BLACK
6
CONTINUOUS
10
197.8405559999999923
20
-78.1734790000000004
11
198.0035519999999849
21
-78.2823899999999924
0
LINE
8
BLACK
6
CONTINUOUS
10
198.0035519999999849
20
-78.2823899999999924
11
198.1421689999999955
21
-78.421007000000003
0
LINE
8
BLACK
6
CONTINUOUS
10
198.1421689999999955
20
-78.421007000000003
11
198.2510800000000017
21
-78.5840029999999956
0
LINE
8
BLACK
6
CONTINUOUS
10
198.2510800000000017
20
-78.5840029999999956
11
198.3260989999999993
21
-78.7651149999999944
0
LINE
8
BLACK
6
CONTINUOUS
10
198.3260989999999993
20
-78.7651149999999944
11
198.3643439999999885
21
-78.957382999999993
0
LINE
8
BLACK
6
CONTINUOUS
10
198.3643439999999885
20
-78.957382999999993
11
198.3643439999999885
21
-79.1534169999999904
0
LINE
8
BLACK
6
CONTINUOUS
10
198.3643439999999885
20
-79.1534169999999904
11
198.3260989999999993
21
-79.3456850000000031
0
LINE
8
BLACK
6
CONTINUOUS
10
198.3260989999999993
20
-79.3456850000000031
11
198.2510800000000017
21
-79.526797000000002
0
LINE
8
BLACK
6
CONTINUOUS
10
198.2510800000000017
20
-79.526797000000002
11
198.1421689999999955
21
-79.6897929999999945
0
LINE
8
BLACK
6
CONTINUOUS
10
198.1421689999999955
20
-79.6897929999999945
11
198.0035519999999849
21
-79.828409999999991
0
LINE
8
BLACK
6
CONTINUOUS
10
198.0035519999999849
20
-79.828409999999991
11
197.8405559999999923
21
-79.9373209999999972
0
LINE
8
BLACK
6
CONTINUOUS
10
197.8405559999999923
20
-79.9373209999999972
11
197.6594439999999793
21
-80.0123399999999947
0
LINE
8
BLACK
6
CONTINUOUS
10
197.6594439999999793
20
-80.0123399999999947
11
197.4671759999999949
21
-80.0505849999999981
0
LINE
8
BLACK
6
CONTINUOUS
10
197.4671759999999949
20
-80.0505849999999981
11
197.2711419999999976
21
-80.0505849999999981
0
LINE
8
BLACK
6
CONTINUOUS
10
197.2711419999999976
20
-80.0505849999999981
11
197.0788739999999848
21
-80.0123399999999947
0
LINE
8
BLACK
6
CONTINUOUS
10
197.0788739999999848
20
-80.0123399999999947
11
196.8977620000000002
21
-79.9373209999999972
0
LINE
8
BLACK
6
CONTINUOUS
10
196.8977620000000002
20
-79.9373209999999972
11
196.7347659999999792
21
-79.828409999999991
0
LINE
8
BLACK
6
CONTINUOUS
10
196.7347659999999792
20
-79.828409999999991
11
196.5961489999999969
21
-79.6897929999999945
0
LINE
8
BLACK
6
CONTINUOUS
10
196.5961489999999969
20
-79.6897929999999945
11
196.4872379999999907
21
-79.526797000000002
0
LINE
8
BLACK
6
CONTINUOUS
10
196.4872379999999907
20
-79.526797000000002
11
196.4122189999999932
21
-79.3456850000000031
0
LINE
8
BLACK
6
CONTINUOUS
10
196.4122189999999932
20
-79.3456850000000031
11
196.373974000000004
21
-79.1534169999999904
0
LINE
8
BLACK
6
CONTINUOUS
10
196.373974000000004
20
-79.1534169999999904
11
196.373974000000004
21
-78.957382999999993
0
LINE
8
BLACK
6
CONTINUOUS
10
196.373974000000004
20
-78.957382999999993
11
196.4122189999999932
21
-78.7651149999999944
0
LINE
8
BLACK
6
CONTINUOUS
10
196.4122189999999932
20
-78.7651149999999944
11
196.4872379999999907
21
-78.5840029999999956
0
LINE
8
BLACK
6
CONTINUOUS
10
196.4872379999999907
20
-78.5840029999999956
11
196.5961489999999969
21
-78.421007000000003
0
LINE
8
BLACK
6
CONTINUOUS
10
196.5961489999999969
20
-78.421007000000003
11
196.7347659999999792
21
-78.2823899999999924
0
LINE
8
BLACK
6
CONTINUOUS
10
196.7347659999999792
20
-78.2823899999999924
11
196.8977620000000002
21
-78.1734790000000004
0
LINE
8
BLACK
6
CONTINUOUS
10
196.8977620000000002
20
-78.1734790000000004
11
197.0788739999999848
21
-78.0984600000000029
0
LINE
8
BLACK
6
CONTINUOUS
10
197.0788739999999848
20
-78.0984600000000029
11
197.2711419999999976
21
-78.0602149999999995
0
LINE
8
BLACK
6
CONTINUOUS
10
197.2711419999999976
20
-78.0602149999999995
11
197.4671759999999949
21
-78.0602149999999995
0
LINE
8
BLACK
6
CONTINUOUS
10
197.4671759999999949
20
-78.0602149999999995
11
197.6594439999999793
21
-78.0984600000000029
0
LINE
8
BLACK
6
CONTINUOUS
10
200.1994439999999997
20
-78.0984600000000029
11
200.3805559999999844
21
-78.1734790000000004
0
LINE
8
BLACK
6
CONTINUOUS
10
200.3805559999999844
20
-78.1734790000000004
11
200.5435519999999769
21
-78.2823899999999924
0
LINE
8
BLACK
6
CONTINUOUS
10
200.5435519999999769
20
-78.2823899999999924
11
200.6821689999999876
21
-78.421007000000003
0
LINE
8
BLACK
6
CONTINUOUS
10
200.6821689999999876
20
-78.421007000000003
11
200.7910799999999938
21
-78.5840029999999956
0
LINE
8
BLACK
6
CONTINUOUS
10
200.7910799999999938
20
-78.5840029999999956
11
200.8660989999999913
21
-78.7651149999999944
0
LINE
8
BLACK
6
CONTINUOUS
10
200.8660989999999913
20
-78.7651149999999944
11
200.9043439999999805
21
-78.957382999999993
0
LINE
8
BLACK
6
CONTINUOUS
10
200.9043439999999805
20
-78.957382999999993
11
200.9043439999999805
21
-79.1534169999999904
0
LINE
8
BLACK
6
CONTINUOUS
10
200.9043439999999805
20
-79.1534169999999904
11
200.8660989999999913
21
-79.3456850000000031
0
LINE
8
BLACK
6
CONTINUOUS
10
200.8660989999999913
20
-79.3456850000000031
11
200.7910799999999938
21
-79.526797000000002
0
LINE
8
BLACK
6
CONTINUOUS
10
200.7910799999999938
20
-79.526797000000002
11
200.6821689999999876
21
-79.6897929999999945
0
LINE
8
BLACK
6
CONTINUOUS
10
200.6821689999999876
20
-79.6897929999999945
11
200.5435519999999769
21
-79.828409999999991
0
LINE
8
BLACK
6
CONTINUOUS
10
200.5435519999999769
20
-79.828409999999991
11
200.3805559999999844
21
-79.9373209999999972
0
LINE
8
BLACK
6
CONTINUOUS
10
200.3805559999999844
20
-79.9373209999999972
11
200.1994439999999997
21
-80.0123399999999947
0
LINE
8
BLACK
6
CONTINUOUS
10
200.1994439999999997
20
-80.0123399999999947
11
200.007175999999987
21
-80.0505849999999981
0
LINE
8
BLACK
6
CONTINUOUS
10
200.007175999999987
20
-80.0505849999999981
11
199.8111419999999896
21
-80.0505849999999981
0
LINE
8
BLACK
6
CONTINUOUS
10
199.8111419999999896
20
-80.0505849999999981
11
199.6188739999999768
21
-80.0123399999999947
0
LINE
8
BLACK
6
CONTINUOUS
10
199.6188739999999768
20
-80.0123399999999947
11
199.4377619999999922
21
-79.9373209999999972
0
LINE
8
BLACK
6
CONTINUOUS
10
199.4377619999999922
20
-79.9373209999999972
11
199.2747659999999996
21
-79.828409999999991
0
LINE
8
BLACK
6
CONTINUOUS
10
199.2747659999999996
20
-79.828409999999991
11
199.136148999999989
21
-79.6897929999999945
0
LINE
8
BLACK
6
CONTINUOUS
10
199.136148999999989
20
-79.6897929999999945
11
199.0272379999999828
21
-79.526797000000002
0
LINE
8
BLACK
6
CONTINUOUS
10
199.0272379999999828
20
-79.526797000000002
11
198.9522189999999853
21
-79.3456850000000031
0
LINE
8
BLACK
6
CONTINUOUS
10
198.9522189999999853
20
-79.3456850000000031
11
198.9139739999999961
21
-79.1534169999999904
0
LINE
8
BLACK
6
CONTINUOUS
10
198.9139739999999961
20
-79.1534169999999904
11
198.9139739999999961
21
-78.957382999999993
0
LINE
8
BLACK
6
CONTINUOUS
10
198.9139739999999961
20
-78.957382999999993
11
198.9522189999999853
21
-78.7651149999999944
0
LINE
8
BLACK
6
CONTINUOUS
10
198.9522189999999853
20
-78.7651149999999944
11
199.0272379999999828
21
-78.5840029999999956
0
LINE
8
BLACK
6
CONTINUOUS
10
199.0272379999999828
20
-78.5840029999999956
11
199.136148999999989
21
-78.421007000000003
0
LINE
8
BLACK
6
CONTINUOUS
10
199.136148999999989
20
-78.421007000000003
11
199.2747659999999996
21
-78.2823899999999924
0
LINE
8
BLACK
6
CONTINUOUS
10
199.2747659999999996
20
-78.2823899999999924
11
199.4377619999999922
21
-78.1734790000000004
0
LINE
8
BLACK
6
CONTINUOUS
10
199.4377619999999922
20
-78.1734790000000004
11
199.6188739999999768
21
-78.0984600000000029
0
LINE
8
BLACK
6
CONTINUOUS
10
199.6188739999999768
20
-78.0984600000000029
11
199.8111419999999896
21
-78.0602149999999995
0
LINE
8
BLACK
6
CONTINUOUS
10
199.8111419999999896
20
-78.0602149999999995
11
200.007175999999987
21
-78.0602149999999995
0
LINE
8
BLACK
6
CONTINUOUS
10
200.007175999999987
20
-78.0602149999999995
11
200.1994439999999997
21
-78.0984600000000029
0
LINE
8
BLACK
6
CONTINUOUS
10
202.7394439999999918
20
-78.0984600000000029
11
202.9205560000000048
21
-78.1734790000000004
0
LINE
8
BLACK
6
CONTINUOUS
10
202.9205560000000048
20
-78.1734790000000004
11
203.0835519999999974
21
-78.2823899999999924
0
LINE
8
BLACK
6
CONTINUOUS
10
203.0835519999999974
20
-78.2823899999999924
11
203.2221689999999796
21
-78.421007000000003
0
LINE
8
BLACK
6
CONTINUOUS
10
203.2221689999999796
20
-78.421007000000003
11
203.3310799999999858
21
-78.5840029999999956
0
LINE
8
BLACK
6
CONTINUOUS
10
203.3310799999999858
20
-78.5840029999999956
11
203.4060989999999833
21
-78.7651149999999944
0
LINE
8
BLACK
6
CONTINUOUS
10
203.4060989999999833
20
-78.7651149999999944
11
203.444344000000001
21
-78.957382999999993
0
LINE
8
BLACK
6
CONTINUOUS
10
203.444344000000001
20
-78.957382999999993
11
203.444344000000001
21
-79.1534169999999904
0
LINE
8
BLACK
6
CONTINUOUS
10
203.444344000000001
20
-79.1534169999999904
11
203.4060989999999833
21
-79.3456850000000031
0
LINE
8
BLACK
6
CONTINUOUS
10
203.4060989999999833
20
-79.3456850000000031
11
203.3310799999999858
21
-79.526797000000002
0
LINE
8
BLACK
6
CONTINUOUS
10
203.3310799999999858
20
-79.526797000000002
11
203.2221689999999796
21
-79.6897929999999945
0
LINE
8
BLACK
6
CONTINUOUS
10
203.2221689999999796
20
-79.6897929999999945
11
203.0835519999999974
21
-79.828409999999991
0
LINE
8
BLACK
6
CONTINUOUS
10
203.0835519999999974
20
-79.828409999999991
11
202.9205560000000048
21
-79.9373209999999972
0
LINE
8
BLACK
6
CONTINUOUS
10
202.9205560000000048
20
-79.9373209999999972
11
202.7394439999999918
21
-80.0123399999999947
0
LINE
8
BLACK
6
CONTINUOUS
10
202.7394439999999918
20
-80.0123399999999947
11
202.547175999999979
21
-80.0505849999999981
0
LINE
8
BLACK
6
CONTINUOUS
10
202.547175999999979
20
-80.0505849999999981
11
202.3511419999999816
21
-80.0505849999999981
0
LINE
8
BLACK
6
CONTINUOUS
10
202.3511419999999816
20
-80.0505849999999981
11
202.1588739999999973
21
-80.0123399999999947
0
LINE
8
BLACK
6
CONTINUOUS
10
202.1588739999999973
20
-80.0123399999999947
11
201.9777619999999843
21
-79.9373209999999972
0
LINE
8
BLACK
6
CONTINUOUS
10
201.9777619999999843
20
-79.9373209999999972
11
201.8147659999999917
21
-79.828409999999991
0
LINE
8
BLACK
6
CONTINUOUS
10
201.8147659999999917
20
-79.828409999999991
11
201.676148999999981
21
-79.6897929999999945
0
LINE
8
BLACK
6
CONTINUOUS
10
201.676148999999981
20
-79.6897929999999945
11
201.5672380000000032
21
-79.526797000000002
0
LINE
8
BLACK
6
CONTINUOUS
10
201.5672380000000032
20
-79.526797000000002
11
201.4922189999999773
21
-79.3456850000000031
0
LINE
8
BLACK
6
CONTINUOUS
10
201.4922189999999773
20
-79.3456850000000031
11
201.4539739999999881
21
-79.1534169999999904
0
LINE
8
BLACK
6
CONTINUOUS
10
201.4539739999999881
20
-79.1534169999999904
11
201.4539739999999881
21
-78.957382999999993
0
LINE
8
BLACK
6
CONTINUOUS
10
201.4539739999999881
20
-78.957382999999993
11
201.4922189999999773
21
-78.7651149999999944
0
LINE
8
BLACK
6
CONTINUOUS
10
201.4922189999999773
20
-78.7651149999999944
11
201.5672380000000032
21
-78.5840029999999956
0
LINE
8
BLACK
6
CONTINUOUS
10
201.5672380000000032
20
-78.5840029999999956
11
201.676148999999981
21
-78.421007000000003
0
LINE
8
BLACK
6
CONTINUOUS
10
201.676148999999981
20
-78.421007000000003
11
201.8147659999999917
21
-78.2823899999999924
0
LINE
8
BLACK
6
CONTINUOUS
10
201.8147659999999917
20
-78.2823899999999924
11
201.9777619999999843
21
-78.1734790000000004
0
LINE
8
BLACK
6
CONTINUOUS
10
201.9777619999999843
20
-78.1734790000000004
11
202.1588739999999973
21
-78.0984600000000029
0
LINE
8
BLACK
6
CONTINUOUS
10
202.1588739999999973
20
-78.0984600000000029
11
202.3511419999999816
21
-78.0602149999999995
0
LINE
8
BLACK
6
CONTINUOUS
10
202.3511419999999816
20
-78.0602149999999995
11
202.547175999999979
21
-78.0602149999999995
0
LINE
8
BLACK
6
CONTINUOUS
10
202.547175999999979
20
-78.0602149999999995
11
202.7394439999999918
21
-78.0984600000000029
0
LINE
8
BLACK
6
CONTINUOUS
10
205.2794439999999838
20
-78.0984600000000029
11
205.4605559999999969
21
-78.1734790000000004
0
LINE
8
BLACK
6
CONTINUOUS
10
205.4605559999999969
20
-78.1734790000000004
11
205.6235519999999894
21
-78.2823899999999924
0
LINE
8
BLACK
6
CONTINUOUS
10
205.6235519999999894
20
-78.2823899999999924
11
205.7621690000000001
21
-78.421007000000003
0
LINE
8
BLACK
6
CONTINUOUS
10
205.7621690000000001
20
-78.421007000000003
11
205.8710799999999779
21
-78.5840029999999956
0
LINE
8
BLACK
6
CONTINUOUS
10
205.8710799999999779
20
-78.5840029999999956
11
205.9460990000000038
21
-78.7651149999999944
0
LINE
8
BLACK
6
CONTINUOUS
10
205.9460990000000038
20
-78.7651149999999944
11
205.984343999999993
21
-78.957382999999993
0
LINE
8
BLACK
6
CONTINUOUS
10
205.984343999999993
20
-78.957382999999993
11
205.984343999999993
21
-79.1534169999999904
0
LINE
8
BLACK
6
CONTINUOUS
10
205.984343999999993
20
-79.1534169999999904
11
205.9460990000000038
21
-79.3456850000000031
0
LINE
8
BLACK
6
CONTINUOUS
10
205.9460990000000038
20
-79.3456850000000031
11
205.8710799999999779
21
-79.526797000000002
0
LINE
8
BLACK
6
CONTINUOUS
10
205.8710799999999779
20
-79.526797000000002
11
205.7621690000000001
21
-79.6897929999999945
0
LINE
8
BLACK
6
CONTINUOUS
10
205.7621690000000001
20
-79.6897929999999945
11
205.6235519999999894
21
-79.828409999999991
0
LINE
8
BLACK
6
CONTINUOUS
10
205.6235519999999894
20
-79.828409999999991
11
205.4605559999999969
21
-79.9373209999999972
0
LINE
8
BLACK
6
CONTINUOUS
10
205.4605559999999969
20
-79.9373209999999972
11
205.2794439999999838
21
-80.0123399999999947
0
LINE
8
BLACK
6
CONTINUOUS
10
205.2794439999999838
20
-80.0123399999999947
11
205.0871759999999995
21
-80.0505849999999981
0
LINE
8
BLACK
6
CONTINUOUS
10
205.0871759999999995
20
-80.0505849999999981
11
204.8911420000000021
21
-80.0505849999999981
0
LINE
8
BLACK
6
CONTINUOUS
10
204.8911420000000021
20
-80.0505849999999981
11
204.6988739999999893
21
-80.0123399999999947
0
LINE
8
BLACK
6
CONTINUOUS
10
204.6988739999999893
20
-80.0123399999999947
11
204.5177620000000047
21
-79.9373209999999972
0
LINE
8
BLACK
6
CONTINUOUS
10
204.5177620000000047
20
-79.9373209999999972
11
204.3547659999999837
21
-79.828409999999991
0
LINE
8
BLACK
6
CONTINUOUS
10
204.3547659999999837
20
-79.828409999999991
11
204.2161490000000015
21
-79.6897929999999945
0
LINE
8
BLACK
6
CONTINUOUS
10
204.2161490000000015
20
-79.6897929999999945
11
204.1072379999999953
21
-79.526797000000002
0
LINE
8
BLACK
6
CONTINUOUS
10
204.1072379999999953
20
-79.526797000000002
11
204.0322189999999978
21
-79.3456850000000031
0
LINE
8
BLACK
6
CONTINUOUS
10
204.0322189999999978
20
-79.3456850000000031
11
203.9939739999999802
21
-79.1534169999999904
0
LINE
8
BLACK
6
CONTINUOUS
10
203.9939739999999802
20
-79.1534169999999904
11
203.9939739999999802
21
-78.957382999999993
0
LINE
8
BLACK
6
CONTINUOUS
10
203.9939739999999802
20
-78.957382999999993
11
204.0322189999999978
21
-78.7651149999999944
0
LINE
8
BLACK
6
CONTINUOUS
10
204.0322189999999978
20
-78.7651149999999944
11
204.1072379999999953
21
-78.5840029999999956
0
LINE
8
BLACK
6
CONTINUOUS
10
204.1072379999999953
20
-78.5840029999999956
11
204.2161490000000015
21
-78.421007000000003
0
LINE
8
BLACK
6
CONTINUOUS
10
204.2161490000000015
20
-78.421007000000003
11
204.3547659999999837
21
-78.2823899999999924
0
LINE
8
BLACK
6
CONTINUOUS
10
204.3547659999999837
20
-78.2823899999999924
11
204.5177620000000047
21
-78.1734790000000004
0
LINE
8
BLACK
6
CONTINUOUS
10
204.5177620000000047
20
-78.1734790000000004
11
204.6988739999999893
21
-78.0984600000000029
0
LINE
8
BLACK
6
CONTINUOUS
10
204.6988739999999893
20
-78.0984600000000029
11
204.8911420000000021
21
-78.0602149999999995
0
LINE
8
BLACK
6
CONTINUOUS
10
204.8911420000000021
20
-78.0602149999999995
11
205.0871759999999995
21
-78.0602149999999995
0
LINE
8
BLACK
6
CONTINUOUS
10
205.0871759999999995
20
-78.0602149999999995
11
205.2794439999999838
21
-78.0984600000000029
0
LINE
8
BLACK
6
CONTINUOUS
10
165.1999999999999886
20
-78.1059999999999945
11
164.
21
-78.1059999999999945
0
LINE
8
BLACK
6
CONTINUOUS
10
164.
20
-78.1059999999999945
11
164.
21
-76.3059999999999974
0
LINE
8
BLACK
6
CONTINUOUS
10
164.
20
-76.3059999999999974
11
165.1999999999999886
21
-76.3059999999999974
0
LINE
8
BLACK
6
CONTINUOUS
10
165.1999999999999886
20
-76.3059999999999974
11
165.1999999999999886
21
-78.1059999999999945
0
LINE
8
BLACK
6
CONTINUOUS
10
170.7999999999999829
20
-78.1059999999999945
11
169.5999999999999943
21
-78.1059999999999945
0
LINE
8
BLACK
6
CONTINUOUS
10
169.5999999999999943
20
-78.1059999999999945
11
169.5999999999999943
21
-76.3059999999999974
0
LINE
8
BLACK
6
CONTINUOUS
10
169.5999999999999943
20
-76.3059999999999974
11
170.7999999999999829
21
-76.3059999999999974
0
LINE
8
BLACK
6
CONTINUOUS
10
170.7999999999999829
20
-76.3059999999999974
11
170.7999999999999829
21
-78.1059999999999945
  0
ENDSEC
  0
EOF
