  0
SECTION
  2
HEADER
  9
$ANGBASE
  50
0.0
  9
$ANGDIR
  70
1
  9
$MEASUREMENT
  70
1
  0
ENDSEC
  0
SECTION
  2
TABLES
  0
TABLE
  2
LTYPE
  70
4
  0
LTYPE
  5
40F
  2
CONTINUOUS
  70
0
  3
Solid line
  72
65
  73
0
  40
0.0
  0
LTYPE
  5
410
  2
DASHDOT
 70
0
  3
Dash Dot ____ _ ____ _
 72
65
 73
4
 40
2.0
 49
1.25
 49
-0.25
 49
0.25
 49
-0.25
  0
LTYPE
  5
411
  2
DASHED
 70
0
  3
Dashed __ __ __ __ __
 72
65
 73
2
 40
0.75
 49
0.5
 49
-0.25
  0
LTYPE
  5
43B
  2
DOTTED
 70
0
  3
Dotted .  .  .  .
 72
65
 73
2
 40
0.2
 49
0.0
 49
-0.2
  0
ENDTAB
  0
TABLE
  2
STYLE
  70
4
  0
STYLE
  2
KICAD
  70
0
  40
0
  41
1
  42
1
  50
0
  71
0
  3
isocp.shx
  0
STYLE
  2
KICADB
  70
0
  40
0
  41
1
  42
1
  50
0
  71
0
  3
isocp.shx
  0
STYLE
  2
KICADI
  70
0
  40
0
  41
1
  42
1
  50
15
  71
0
  3
isocp.shx
  0
STYLE
  2
KICADBI
  70
0
  40
0
  41
1
  42
1
  50
15
  71
0
  3
isocp.shx
  0
ENDTAB
  0
TABLE
  2
LAYER
  70
1
  0
LAYER
  2
BLACK
  70
0
  62
7
  6
CONTINUOUS
  0
ENDTAB
  0
ENDSEC
  0
SECTION
  2
ENTITIES
0
LINE
8
BLACK
6
CONTINUOUS
10
210.5268239999999764
20
-93.063682
11
210.7357569999999782
21
-93.1315689999999989
0
LINE
8
BLACK
6
CONTINUOUS
10
210.7357569999999782
20
-93.1315689999999989
11
210.9314979999999764
21
-93.2313039999999944
0
LINE
8
BLACK
6
CONTINUOUS
10
210.9314979999999764
20
-93.2313039999999944
11
211.1092270000000042
21
-93.3604319999999888
0
LINE
8
BLACK
6
CONTINUOUS
10
211.1092270000000042
20
-93.3604319999999888
11
211.264567999999997
21
-93.5157729999999958
0
LINE
8
BLACK
6
CONTINUOUS
10
211.264567999999997
20
-93.5157729999999958
11
211.3936959999999772
21
-93.6935019999999952
0
LINE
8
BLACK
6
CONTINUOUS
10
211.3936959999999772
20
-93.6935019999999952
11
211.4934309999999869
21
-93.8892429999999933
0
LINE
8
BLACK
6
CONTINUOUS
10
211.4934309999999869
20
-93.8892429999999933
11
211.561318
21
-94.0981759999999952
0
LINE
8
BLACK
6
CONTINUOUS
10
211.561318
20
-94.0981759999999952
11
211.5956839999999772
21
-94.3151569999999992
0
LINE
8
BLACK
6
CONTINUOUS
10
211.5956839999999772
20
-94.3151569999999992
11
211.5956839999999772
21
-94.5348429999999951
0
LINE
8
BLACK
6
CONTINUOUS
10
211.5956839999999772
20
-94.5348429999999951
11
211.561318
21
-94.7518239999999992
0
LINE
8
BLACK
6
CONTINUOUS
10
211.561318
20
-94.7518239999999992
11
211.4934309999999869
21
-94.960757000000001
0
LINE
8
BLACK
6
CONTINUOUS
10
211.4934309999999869
20
-94.960757000000001
11
211.3936959999999772
21
-95.1564979999999991
0
LINE
8
BLACK
6
CONTINUOUS
10
211.3936959999999772
20
-95.1564979999999991
11
211.264567999999997
21
-95.3342269999999985
0
LINE
8
BLACK
6
CONTINUOUS
10
211.264567999999997
20
-95.3342269999999985
11
211.1092270000000042
21
-95.4895679999999913
0
LINE
8
BLACK
6
CONTINUOUS
10
211.1092270000000042
20
-95.4895679999999913
11
210.9314979999999764
21
-95.6186959999999999
0
LINE
8
BLACK
6
CONTINUOUS
10
210.9314979999999764
20
-95.6186959999999999
11
210.7357569999999782
21
-95.7184309999999954
0
LINE
8
BLACK
6
CONTINUOUS
10
210.7357569999999782
20
-95.7184309999999954
11
210.5268239999999764
21
-95.7863179999999943
0
LINE
8
BLACK
6
CONTINUOUS
10
210.5268239999999764
20
-95.7863179999999943
11
210.3098430000000008
21
-95.820684
0
LINE
8
BLACK
6
CONTINUOUS
10
210.3098430000000008
20
-95.820684
11
210.0901569999999765
21
-95.820684
0
LINE
8
BLACK
6
CONTINUOUS
10
210.0901569999999765
20
-95.820684
11
209.8731760000000008
21
-95.7863179999999943
0
LINE
8
BLACK
6
CONTINUOUS
10
209.8731760000000008
20
-95.7863179999999943
11
209.664242999999999
21
-95.7184309999999954
0
LINE
8
BLACK
6
CONTINUOUS
10
209.664242999999999
20
-95.7184309999999954
11
209.4685020000000009
21
-95.6186959999999999
0
LINE
8
BLACK
6
CONTINUOUS
10
209.4685020000000009
20
-95.6186959999999999
11
209.2907730000000015
21
-95.4895679999999913
0
LINE
8
BLACK
6
CONTINUOUS
10
209.2907730000000015
20
-95.4895679999999913
11
209.1354319999999802
21
-95.3342269999999985
0
LINE
8
BLACK
6
CONTINUOUS
10
209.1354319999999802
20
-95.3342269999999985
11
209.0063040000000001
21
-95.1564979999999991
0
LINE
8
BLACK
6
CONTINUOUS
10
209.0063040000000001
20
-95.1564979999999991
11
208.9065689999999904
21
-94.960757000000001
0
LINE
8
BLACK
6
CONTINUOUS
10
208.9065689999999904
20
-94.960757000000001
11
208.8386819999999773
21
-94.7518239999999992
0
LINE
8
BLACK
6
CONTINUOUS
10
208.8386819999999773
20
-94.7518239999999992
11
208.804316
21
-94.5348429999999951
0
LINE
8
BLACK
6
CONTINUOUS
10
208.804316
20
-94.5348429999999951
11
208.804316
21
-94.318753000000001
0
LINE
8
BLACK
6
CONTINUOUS
10
208.804316
20
-94.318753000000001
11
208.804316
21
-94.3151569999999992
0
LINE
8
BLACK
6
CONTINUOUS
10
208.804316
20
-94.3151569999999992
11
208.8386819999999773
21
-94.0981759999999952
0
LINE
8
BLACK
6
CONTINUOUS
10
208.8386819999999773
20
-94.0981759999999952
11
208.9065689999999904
21
-93.8892429999999933
0
LINE
8
BLACK
6
CONTINUOUS
10
208.9065689999999904
20
-93.8892429999999933
11
209.0063040000000001
21
-93.6935019999999952
0
LINE
8
BLACK
6
CONTINUOUS
10
209.0063040000000001
20
-93.6935019999999952
11
209.1354319999999802
21
-93.5157729999999958
0
LINE
8
BLACK
6
CONTINUOUS
10
209.1354319999999802
20
-93.5157729999999958
11
209.2907730000000015
21
-93.3604319999999888
0
LINE
8
BLACK
6
CONTINUOUS
10
209.2907730000000015
20
-93.3604319999999888
11
209.4685020000000009
21
-93.2313039999999944
0
LINE
8
BLACK
6
CONTINUOUS
10
209.4685020000000009
20
-93.2313039999999944
11
209.664242999999999
21
-93.1315689999999989
0
LINE
8
BLACK
6
CONTINUOUS
10
209.664242999999999
20
-93.1315689999999989
11
209.8731760000000008
21
-93.063682
0
LINE
8
BLACK
6
CONTINUOUS
10
209.8731760000000008
20
-93.063682
11
210.0901569999999765
21
-93.0293159999999943
0
LINE
8
BLACK
6
CONTINUOUS
10
210.0901569999999765
20
-93.0293159999999943
11
210.3098430000000008
21
-93.0293159999999943
0
LINE
8
BLACK
6
CONTINUOUS
10
210.3098430000000008
20
-93.0293159999999943
11
210.5268239999999764
21
-93.063682
0
LINE
8
BLACK
6
CONTINUOUS
10
208.8499999999999943
20
-94.5312469999999934
11
208.8832419999999956
21
-94.7411259999999942
0
LINE
8
BLACK
6
CONTINUOUS
10
208.8832419999999956
20
-94.7411259999999942
11
208.9489059999999938
21
-94.9432199999999966
0
LINE
8
BLACK
6
CONTINUOUS
10
208.9489059999999938
20
-94.9432199999999966
11
209.045377000000002
21
-95.132553999999999
0
LINE
8
BLACK
6
CONTINUOUS
10
209.045377000000002
20
-95.132553999999999
11
209.1702779999999962
21
-95.3044659999999908
0
LINE
8
BLACK
6
CONTINUOUS
10
209.1702779999999962
20
-95.3044659999999908
11
209.3205339999999808
21
-95.4547219999999896
0
LINE
8
BLACK
6
CONTINUOUS
10
209.3205339999999808
20
-95.4547219999999896
11
209.492446000000001
21
-95.579622999999998
0
LINE
8
BLACK
6
CONTINUOUS
10
209.492446000000001
20
-95.579622999999998
11
209.6817800000000034
21
-95.676093999999992
0
LINE
8
BLACK
6
CONTINUOUS
10
209.6817800000000034
20
-95.676093999999992
11
209.8838739999999916
21
-95.7417579999999901
0
LINE
8
BLACK
6
CONTINUOUS
10
209.8838739999999916
20
-95.7417579999999901
11
210.0937529999999924
21
-95.7749999999999915
0
LINE
8
BLACK
6
CONTINUOUS
10
210.0937529999999924
20
-95.7749999999999915
11
210.3062469999999848
21
-95.7749999999999915
0
LINE
8
BLACK
6
CONTINUOUS
10
210.3062469999999848
20
-95.7749999999999915
11
210.5161259999999857
21
-95.7417579999999901
0
LINE
8
BLACK
6
CONTINUOUS
10
210.5161259999999857
20
-95.7417579999999901
11
210.7182200000000023
21
-95.676093999999992
0
LINE
8
BLACK
6
CONTINUOUS
10
210.7182200000000023
20
-95.676093999999992
11
210.9075540000000046
21
-95.579622999999998
0
LINE
8
BLACK
6
CONTINUOUS
10
210.9075540000000046
20
-95.579622999999998
11
211.0794659999999965
21
-95.4547219999999896
0
LINE
8
BLACK
6
CONTINUOUS
10
211.0794659999999965
20
-95.4547219999999896
11
211.2297219999999811
21
-95.3044659999999908
0
LINE
8
BLACK
6
CONTINUOUS
10
211.2297219999999811
20
-95.3044659999999908
11
211.3546230000000037
21
-95.132553999999999
0
LINE
8
BLACK
6
CONTINUOUS
10
211.3546230000000037
20
-95.132553999999999
11
211.4510939999999835
21
-94.9432199999999966
0
LINE
8
BLACK
6
CONTINUOUS
10
211.4510939999999835
20
-94.9432199999999966
11
211.5167579999999816
21
-94.7411259999999942
0
LINE
8
BLACK
6
CONTINUOUS
10
211.5167579999999816
20
-94.7411259999999942
11
211.5499999999999829
21
-94.5312469999999934
0
LINE
8
BLACK
6
CONTINUOUS
10
211.5499999999999829
20
-94.5312469999999934
11
211.5499999999999829
21
-94.318753000000001
0
LINE
8
BLACK
6
CONTINUOUS
10
211.5499999999999829
20
-94.318753000000001
11
211.5167579999999816
21
-94.1088740000000001
0
LINE
8
BLACK
6
CONTINUOUS
10
211.5167579999999816
20
-94.1088740000000001
11
211.4510939999999835
21
-93.9067799999999977
0
LINE
8
BLACK
6
CONTINUOUS
10
211.4510939999999835
20
-93.9067799999999977
11
211.3546230000000037
21
-93.7174459999999954
0
LINE
8
BLACK
6
CONTINUOUS
10
211.3546230000000037
20
-93.7174459999999954
11
211.2297219999999811
21
-93.5455339999999893
0
LINE
8
BLACK
6
CONTINUOUS
10
211.2297219999999811
20
-93.5455339999999893
11
211.0794659999999965
21
-93.3952779999999905
0
LINE
8
BLACK
6
CONTINUOUS
10
211.0794659999999965
20
-93.3952779999999905
11
210.9075540000000046
21
-93.2703769999999963
0
LINE
8
BLACK
6
CONTINUOUS
10
210.9075540000000046
20
-93.2703769999999963
11
210.7182200000000023
21
-93.1739060000000023
0
LINE
8
BLACK
6
CONTINUOUS
10
210.7182200000000023
20
-93.1739060000000023
11
210.5161259999999857
21
-93.10824199999999
0
LINE
8
BLACK
6
CONTINUOUS
10
210.5161259999999857
20
-93.10824199999999
11
210.3062469999999848
21
-93.0750000000000028
0
LINE
8
BLACK
6
CONTINUOUS
10
210.3062469999999848
20
-93.0750000000000028
11
210.0937529999999924
21
-93.0750000000000028
0
LINE
8
BLACK
6
CONTINUOUS
10
210.0937529999999924
20
-93.0750000000000028
11
209.8838739999999916
21
-93.10824199999999
0
LINE
8
BLACK
6
CONTINUOUS
10
209.8838739999999916
20
-93.10824199999999
11
209.6817800000000034
21
-93.1739060000000023
0
LINE
8
BLACK
6
CONTINUOUS
10
209.6817800000000034
20
-93.1739060000000023
11
209.492446000000001
21
-93.2703769999999963
0
LINE
8
BLACK
6
CONTINUOUS
10
209.492446000000001
20
-93.2703769999999963
11
209.3205339999999808
21
-93.3952779999999905
0
LINE
8
BLACK
6
CONTINUOUS
10
209.3205339999999808
20
-93.3952779999999905
11
209.1702779999999962
21
-93.5455339999999893
0
LINE
8
BLACK
6
CONTINUOUS
10
209.1702779999999962
20
-93.5455339999999893
11
209.045377000000002
21
-93.7174459999999954
0
LINE
8
BLACK
6
CONTINUOUS
10
209.045377000000002
20
-93.7174459999999954
11
208.9489059999999938
21
-93.9067799999999977
0
LINE
8
BLACK
6
CONTINUOUS
10
208.9489059999999938
20
-93.9067799999999977
11
208.8832419999999956
21
-94.1088740000000001
0
LINE
8
BLACK
6
CONTINUOUS
10
208.8832419999999956
20
-94.1088740000000001
11
208.8499999999999943
21
-94.318753000000001
0
LINE
8
BLACK
6
CONTINUOUS
10
208.8499999999999943
20
-94.318753000000001
11
208.8499999999999943
21
-94.5312469999999934
0
LINE
8
BLACK
6
CONTINUOUS
10
161.1268239999999992
20
-92.7886819999999943
11
161.335757000000001
21
-92.8565689999999933
0
LINE
8
BLACK
6
CONTINUOUS
10
161.335757000000001
20
-92.8565689999999933
11
161.5314979999999991
21
-92.9563039999999887
0
LINE
8
BLACK
6
CONTINUOUS
10
161.5314979999999991
20
-92.9563039999999887
11
161.7092269999999985
21
-93.0854319999999973
0
LINE
8
BLACK
6
CONTINUOUS
10
161.7092269999999985
20
-93.0854319999999973
11
161.8645679999999913
21
-93.2407729999999901
0
LINE
8
BLACK
6
CONTINUOUS
10
161.8645679999999913
20
-93.2407729999999901
11
161.9936959999999999
21
-93.4185019999999895
0
LINE
8
BLACK
6
CONTINUOUS
10
161.9936959999999999
20
-93.4185019999999895
11
162.0934309999999812
21
-93.6142430000000019
0
LINE
8
BLACK
6
CONTINUOUS
10
162.0934309999999812
20
-93.6142430000000019
11
162.1613179999999943
21
-93.8231759999999895
0
LINE
8
BLACK
6
CONTINUOUS
10
162.1613179999999943
20
-93.8231759999999895
11
162.195684
21
-94.0401569999999936
0
LINE
8
BLACK
6
CONTINUOUS
10
162.195684
20
-94.0401569999999936
11
162.195684
21
-94.2598429999999894
0
LINE
8
BLACK
6
CONTINUOUS
10
162.195684
20
-94.2598429999999894
11
162.1613179999999943
21
-94.4768239999999935
0
LINE
8
BLACK
6
CONTINUOUS
10
162.1613179999999943
20
-94.4768239999999935
11
162.0934309999999812
21
-94.6857569999999953
0
LINE
8
BLACK
6
CONTINUOUS
10
162.0934309999999812
20
-94.6857569999999953
11
161.9936959999999999
21
-94.8814979999999935
0
LINE
8
BLACK
6
CONTINUOUS
10
161.9936959999999999
20
-94.8814979999999935
11
161.8645679999999913
21
-95.0592269999999928
0
LINE
8
BLACK
6
CONTINUOUS
10
161.8645679999999913
20
-95.0592269999999928
11
161.7092269999999985
21
-95.2145679999999999
0
LINE
8
BLACK
6
CONTINUOUS
10
161.7092269999999985
20
-95.2145679999999999
11
161.5314979999999991
21
-95.3436959999999942
0
LINE
8
BLACK
6
CONTINUOUS
10
161.5314979999999991
20
-95.3436959999999942
11
161.335757000000001
21
-95.4434309999999897
0
LINE
8
BLACK
6
CONTINUOUS
10
161.335757000000001
20
-95.4434309999999897
11
161.1268239999999992
21
-95.5113179999999886
0
LINE
8
BLACK
6
CONTINUOUS
10
161.1268239999999992
20
-95.5113179999999886
11
160.9098429999999951
21
-95.5456839999999943
0
LINE
8
BLACK
6
CONTINUOUS
10
160.9098429999999951
20
-95.5456839999999943
11
160.6901569999999992
21
-95.5456839999999943
0
LINE
8
BLACK
6
CONTINUOUS
10
160.6901569999999992
20
-95.5456839999999943
11
160.4731759999999952
21
-95.5113179999999886
0
LINE
8
BLACK
6
CONTINUOUS
10
160.4731759999999952
20
-95.5113179999999886
11
160.2642429999999933
21
-95.4434309999999897
0
LINE
8
BLACK
6
CONTINUOUS
10
160.2642429999999933
20
-95.4434309999999897
11
160.0685019999999952
21
-95.3436959999999942
0
LINE
8
BLACK
6
CONTINUOUS
10
160.0685019999999952
20
-95.3436959999999942
11
159.8907729999999958
21
-95.2145679999999999
0
LINE
8
BLACK
6
CONTINUOUS
10
159.8907729999999958
20
-95.2145679999999999
11
159.735432000000003
21
-95.0592269999999928
0
LINE
8
BLACK
6
CONTINUOUS
10
159.735432000000003
20
-95.0592269999999928
11
159.6063039999999944
21
-94.8814979999999935
0
LINE
8
BLACK
6
CONTINUOUS
10
159.6063039999999944
20
-94.8814979999999935
11
159.5065689999999847
21
-94.6857569999999953
0
LINE
8
BLACK
6
CONTINUOUS
10
159.5065689999999847
20
-94.6857569999999953
11
159.438682
21
-94.4768239999999935
0
LINE
8
BLACK
6
CONTINUOUS
10
159.438682
20
-94.4768239999999935
11
159.4043159999999943
21
-94.2598429999999894
0
LINE
8
BLACK
6
CONTINUOUS
10
159.4043159999999943
20
-94.2598429999999894
11
159.4043159999999943
21
-94.0437529999999953
0
LINE
8
BLACK
6
CONTINUOUS
10
159.4043159999999943
20
-94.0437529999999953
11
159.4043159999999943
21
-94.0401569999999936
0
LINE
8
BLACK
6
CONTINUOUS
10
159.4043159999999943
20
-94.0401569999999936
11
159.438682
21
-93.8231759999999895
0
LINE
8
BLACK
6
CONTINUOUS
10
159.438682
20
-93.8231759999999895
11
159.5065689999999847
21
-93.6142430000000019
0
LINE
8
BLACK
6
CONTINUOUS
10
159.5065689999999847
20
-93.6142430000000019
11
159.6063039999999944
21
-93.4185019999999895
0
LINE
8
BLACK
6
CONTINUOUS
10
159.6063039999999944
20
-93.4185019999999895
11
159.735432000000003
21
-93.2407729999999901
0
LINE
8
BLACK
6
CONTINUOUS
10
159.735432000000003
20
-93.2407729999999901
11
159.8907729999999958
21
-93.0854319999999973
0
LINE
8
BLACK
6
CONTINUOUS
10
159.8907729999999958
20
-93.0854319999999973
11
160.0685019999999952
21
-92.9563039999999887
0
LINE
8
BLACK
6
CONTINUOUS
10
160.0685019999999952
20
-92.9563039999999887
11
160.2642429999999933
21
-92.8565689999999933
0
LINE
8
BLACK
6
CONTINUOUS
10
160.2642429999999933
20
-92.8565689999999933
11
160.4731759999999952
21
-92.7886819999999943
0
LINE
8
BLACK
6
CONTINUOUS
10
160.4731759999999952
20
-92.7886819999999943
11
160.6901569999999992
21
-92.7543160000000029
0
LINE
8
BLACK
6
CONTINUOUS
10
160.6901569999999992
20
-92.7543160000000029
11
160.9098429999999951
21
-92.7543160000000029
0
LINE
8
BLACK
6
CONTINUOUS
10
160.9098429999999951
20
-92.7543160000000029
11
161.1268239999999992
21
-92.7886819999999943
0
LINE
8
BLACK
6
CONTINUOUS
10
159.4499999999999886
20
-94.2562470000000019
11
159.48324199999999
21
-94.4661260000000027
0
LINE
8
BLACK
6
CONTINUOUS
10
159.48324199999999
20
-94.4661260000000027
11
159.5489059999999881
21
-94.6682199999999909
0
LINE
8
BLACK
6
CONTINUOUS
10
159.5489059999999881
20
-94.6682199999999909
11
159.6453769999999963
21
-94.8575539999999933
0
LINE
8
BLACK
6
CONTINUOUS
10
159.6453769999999963
20
-94.8575539999999933
11
159.7702779999999905
21
-95.0294659999999993
0
LINE
8
BLACK
6
CONTINUOUS
10
159.7702779999999905
20
-95.0294659999999993
11
159.9205340000000035
21
-95.1797219999999982
0
LINE
8
BLACK
6
CONTINUOUS
10
159.9205340000000035
20
-95.1797219999999982
11
160.0924459999999954
21
-95.3046229999999923
0
LINE
8
BLACK
6
CONTINUOUS
10
160.0924459999999954
20
-95.3046229999999923
11
160.2817799999999977
21
-95.4010940000000005
0
LINE
8
BLACK
6
CONTINUOUS
10
160.2817799999999977
20
-95.4010940000000005
11
160.4838739999999859
21
-95.4667579999999987
0
LINE
8
BLACK
6
CONTINUOUS
10
160.4838739999999859
20
-95.4667579999999987
11
160.6937529999999867
21
-95.5
0
LINE
8
BLACK
6
CONTINUOUS
10
160.6937529999999867
20
-95.5
11
160.9062469999999792
21
-95.5
0
LINE
8
BLACK
6
CONTINUOUS
10
160.9062469999999792
20
-95.5
11
161.11612599999998
21
-95.4667579999999987
0
LINE
8
BLACK
6
CONTINUOUS
10
161.11612599999998
20
-95.4667579999999987
11
161.3182199999999966
21
-95.4010940000000005
0
LINE
8
BLACK
6
CONTINUOUS
10
161.3182199999999966
20
-95.4010940000000005
11
161.507553999999999
21
-95.3046229999999923
0
LINE
8
BLACK
6
CONTINUOUS
10
161.507553999999999
20
-95.3046229999999923
11
161.6794659999999908
21
-95.1797219999999982
0
LINE
8
BLACK
6
CONTINUOUS
10
161.6794659999999908
20
-95.1797219999999982
11
161.8297220000000038
21
-95.0294659999999993
0
LINE
8
BLACK
6
CONTINUOUS
10
161.8297220000000038
20
-95.0294659999999993
11
161.954622999999998
21
-94.8575539999999933
0
LINE
8
BLACK
6
CONTINUOUS
10
161.954622999999998
20
-94.8575539999999933
11
162.0510940000000062
21
-94.6682199999999909
0
LINE
8
BLACK
6
CONTINUOUS
10
162.0510940000000062
20
-94.6682199999999909
11
162.1167580000000044
21
-94.4661260000000027
0
LINE
8
BLACK
6
CONTINUOUS
10
162.1167580000000044
20
-94.4661260000000027
11
162.1500000000000057
21
-94.2562470000000019
0
LINE
8
BLACK
6
CONTINUOUS
10
162.1500000000000057
20
-94.2562470000000019
11
162.1500000000000057
21
-94.0437529999999953
0
LINE
8
BLACK
6
CONTINUOUS
10
162.1500000000000057
20
-94.0437529999999953
11
162.1167580000000044
21
-93.8338739999999945
0
LINE
8
BLACK
6
CONTINUOUS
10
162.1167580000000044
20
-93.8338739999999945
11
162.0510940000000062
21
-93.631779999999992
0
LINE
8
BLACK
6
CONTINUOUS
10
162.0510940000000062
20
-93.631779999999992
11
161.954622999999998
21
-93.4424459999999897
0
LINE
8
BLACK
6
CONTINUOUS
10
161.954622999999998
20
-93.4424459999999897
11
161.8297220000000038
21
-93.2705339999999978
0
LINE
8
BLACK
6
CONTINUOUS
10
161.8297220000000038
20
-93.2705339999999978
11
161.6794659999999908
21
-93.120277999999999
0
LINE
8
BLACK
6
CONTINUOUS
10
161.6794659999999908
20
-93.120277999999999
11
161.507553999999999
21
-92.9953769999999906
0
LINE
8
BLACK
6
CONTINUOUS
10
161.507553999999999
20
-92.9953769999999906
11
161.3182199999999966
21
-92.8989059999999967
0
LINE
8
BLACK
6
CONTINUOUS
10
161.3182199999999966
20
-92.8989059999999967
11
161.11612599999998
21
-92.8332419999999985
0
LINE
8
BLACK
6
CONTINUOUS
10
161.11612599999998
20
-92.8332419999999985
11
160.9062469999999792
21
-92.7999999999999972
0
LINE
8
BLACK
6
CONTINUOUS
10
160.9062469999999792
20
-92.7999999999999972
11
160.6937529999999867
21
-92.7999999999999972
0
LINE
8
BLACK
6
CONTINUOUS
10
160.6937529999999867
20
-92.7999999999999972
11
160.4838739999999859
21
-92.8332419999999985
0
LINE
8
BLACK
6
CONTINUOUS
10
160.4838739999999859
20
-92.8332419999999985
11
160.2817799999999977
21
-92.8989059999999967
0
LINE
8
BLACK
6
CONTINUOUS
10
160.2817799999999977
20
-92.8989059999999967
11
160.0924459999999954
21
-92.9953769999999906
0
LINE
8
BLACK
6
CONTINUOUS
10
160.0924459999999954
20
-92.9953769999999906
11
159.9205340000000035
21
-93.120277999999999
0
LINE
8
BLACK
6
CONTINUOUS
10
159.9205340000000035
20
-93.120277999999999
11
159.7702779999999905
21
-93.2705339999999978
0
LINE
8
BLACK
6
CONTINUOUS
10
159.7702779999999905
20
-93.2705339999999978
11
159.6453769999999963
21
-93.4424459999999897
0
LINE
8
BLACK
6
CONTINUOUS
10
159.6453769999999963
20
-93.4424459999999897
11
159.5489059999999881
21
-93.631779999999992
0
LINE
8
BLACK
6
CONTINUOUS
10
159.5489059999999881
20
-93.631779999999992
11
159.48324199999999
21
-93.8338739999999945
0
LINE
8
BLACK
6
CONTINUOUS
10
159.48324199999999
20
-93.8338739999999945
11
159.4499999999999886
21
-94.0437529999999953
0
LINE
8
BLACK
6
CONTINUOUS
10
159.4499999999999886
20
-94.0437529999999953
11
159.4499999999999886
21
-94.2562470000000019
0
LINE
8
BLACK
6
CONTINUOUS
10
161.1268239999999992
20
-78.1386820000000029
11
161.335757000000001
21
-78.2065690000000018
0
LINE
8
BLACK
6
CONTINUOUS
10
161.335757000000001
20
-78.2065690000000018
11
161.5314979999999991
21
-78.3063039999999972
0
LINE
8
BLACK
6
CONTINUOUS
10
161.5314979999999991
20
-78.3063039999999972
11
161.7092269999999985
21
-78.4354319999999916
0
LINE
8
BLACK
6
CONTINUOUS
10
161.7092269999999985
20
-78.4354319999999916
11
161.8645679999999913
21
-78.5907729999999987
0
LINE
8
BLACK
6
CONTINUOUS
10
161.8645679999999913
20
-78.5907729999999987
11
161.9936959999999999
21
-78.768501999999998
0
LINE
8
BLACK
6
CONTINUOUS
10
161.9936959999999999
20
-78.768501999999998
11
162.0934309999999812
21
-78.9642429999999962
0
LINE
8
BLACK
6
CONTINUOUS
10
162.0934309999999812
20
-78.9642429999999962
11
162.1613179999999943
21
-79.173175999999998
0
LINE
8
BLACK
6
CONTINUOUS
10
162.1613179999999943
20
-79.173175999999998
11
162.195684
21
-79.3901570000000021
0
LINE
8
BLACK
6
CONTINUOUS
10
162.195684
20
-79.3901570000000021
11
162.195684
21
-79.6098429999999979
0
LINE
8
BLACK
6
CONTINUOUS
10
162.195684
20
-79.6098429999999979
11
162.1613179999999943
21
-79.826824000000002
0
LINE
8
BLACK
6
CONTINUOUS
10
162.1613179999999943
20
-79.826824000000002
11
162.0934309999999812
21
-80.0357569999999896
0
LINE
8
BLACK
6
CONTINUOUS
10
162.0934309999999812
20
-80.0357569999999896
11
161.9936959999999999
21
-80.231498000000002
0
LINE
8
BLACK
6
CONTINUOUS
10
161.9936959999999999
20
-80.231498000000002
11
161.8645679999999913
21
-80.4092270000000013
0
LINE
8
BLACK
6
CONTINUOUS
10
161.8645679999999913
20
-80.4092270000000013
11
161.7092269999999985
21
-80.5645679999999942
0
LINE
8
BLACK
6
CONTINUOUS
10
161.7092269999999985
20
-80.5645679999999942
11
161.5314979999999991
21
-80.6936960000000028
0
LINE
8
BLACK
6
CONTINUOUS
10
161.5314979999999991
20
-80.6936960000000028
11
161.335757000000001
21
-80.7934309999999982
0
LINE
8
BLACK
6
CONTINUOUS
10
161.335757000000001
20
-80.7934309999999982
11
161.1268239999999992
21
-80.8613179999999971
0
LINE
8
BLACK
6
CONTINUOUS
10
161.1268239999999992
20
-80.8613179999999971
11
160.9098429999999951
21
-80.8956840000000028
0
LINE
8
BLACK
6
CONTINUOUS
10
160.9098429999999951
20
-80.8956840000000028
11
160.6901569999999992
21
-80.8956840000000028
0
LINE
8
BLACK
6
CONTINUOUS
10
160.6901569999999992
20
-80.8956840000000028
11
160.4731759999999952
21
-80.8613179999999971
0
LINE
8
BLACK
6
CONTINUOUS
10
160.4731759999999952
20
-80.8613179999999971
11
160.2642429999999933
21
-80.7934309999999982
0
LINE
8
BLACK
6
CONTINUOUS
10
160.2642429999999933
20
-80.7934309999999982
11
160.0685019999999952
21
-80.6936960000000028
0
LINE
8
BLACK
6
CONTINUOUS
10
160.0685019999999952
20
-80.6936960000000028
11
159.8907729999999958
21
-80.5645679999999942
0
LINE
8
BLACK
6
CONTINUOUS
10
159.8907729999999958
20
-80.5645679999999942
11
159.735432000000003
21
-80.4092270000000013
0
LINE
8
BLACK
6
CONTINUOUS
10
159.735432000000003
20
-80.4092270000000013
11
159.6063039999999944
21
-80.231498000000002
0
LINE
8
BLACK
6
CONTINUOUS
10
159.6063039999999944
20
-80.231498000000002
11
159.5065689999999847
21
-80.0357569999999896
0
LINE
8
BLACK
6
CONTINUOUS
10
159.5065689999999847
20
-80.0357569999999896
11
159.438682
21
-79.826824000000002
0
LINE
8
BLACK
6
CONTINUOUS
10
159.438682
20
-79.826824000000002
11
159.4043159999999943
21
-79.6098429999999979
0
LINE
8
BLACK
6
CONTINUOUS
10
159.4043159999999943
20
-79.6098429999999979
11
159.4043159999999943
21
-79.3937529999999896
0
LINE
8
BLACK
6
CONTINUOUS
10
159.4043159999999943
20
-79.3937529999999896
11
159.4043159999999943
21
-79.3901570000000021
0
LINE
8
BLACK
6
CONTINUOUS
10
159.4043159999999943
20
-79.3901570000000021
11
159.438682
21
-79.173175999999998
0
LINE
8
BLACK
6
CONTINUOUS
10
159.438682
20
-79.173175999999998
11
159.5065689999999847
21
-78.9642429999999962
0
LINE
8
BLACK
6
CONTINUOUS
10
159.5065689999999847
20
-78.9642429999999962
11
159.6063039999999944
21
-78.768501999999998
0
LINE
8
BLACK
6
CONTINUOUS
10
159.6063039999999944
20
-78.768501999999998
11
159.735432000000003
21
-78.5907729999999987
0
LINE
8
BLACK
6
CONTINUOUS
10
159.735432000000003
20
-78.5907729999999987
11
159.8907729999999958
21
-78.4354319999999916
0
LINE
8
BLACK
6
CONTINUOUS
10
159.8907729999999958
20
-78.4354319999999916
11
160.0685019999999952
21
-78.3063039999999972
0
LINE
8
BLACK
6
CONTINUOUS
10
160.0685019999999952
20
-78.3063039999999972
11
160.2642429999999933
21
-78.2065690000000018
0
LINE
8
BLACK
6
CONTINUOUS
10
160.2642429999999933
20
-78.2065690000000018
11
160.4731759999999952
21
-78.1386820000000029
0
LINE
8
BLACK
6
CONTINUOUS
10
160.4731759999999952
20
-78.1386820000000029
11
160.6901569999999992
21
-78.1043159999999972
0
LINE
8
BLACK
6
CONTINUOUS
10
160.6901569999999992
20
-78.1043159999999972
11
160.9098429999999951
21
-78.1043159999999972
0
LINE
8
BLACK
6
CONTINUOUS
10
160.9098429999999951
20
-78.1043159999999972
11
161.1268239999999992
21
-78.1386820000000029
0
LINE
8
BLACK
6
CONTINUOUS
10
159.4499999999999886
20
-79.6062469999999962
11
159.48324199999999
21
-79.816125999999997
0
LINE
8
BLACK
6
CONTINUOUS
10
159.48324199999999
20
-79.816125999999997
11
159.5489059999999881
21
-80.0182199999999995
0
LINE
8
BLACK
6
CONTINUOUS
10
159.5489059999999881
20
-80.0182199999999995
11
159.6453769999999963
21
-80.2075540000000018
0
LINE
8
BLACK
6
CONTINUOUS
10
159.6453769999999963
20
-80.2075540000000018
11
159.7702779999999905
21
-80.3794659999999936
0
LINE
8
BLACK
6
CONTINUOUS
10
159.7702779999999905
20
-80.3794659999999936
11
159.9205340000000035
21
-80.5297219999999925
0
LINE
8
BLACK
6
CONTINUOUS
10
159.9205340000000035
20
-80.5297219999999925
11
160.0924459999999954
21
-80.6546230000000008
0
LINE
8
BLACK
6
CONTINUOUS
10
160.0924459999999954
20
-80.6546230000000008
11
160.2817799999999977
21
-80.7510939999999948
0
LINE
8
BLACK
6
CONTINUOUS
10
160.2817799999999977
20
-80.7510939999999948
11
160.4838739999999859
21
-80.816757999999993
0
LINE
8
BLACK
6
CONTINUOUS
10
160.4838739999999859
20
-80.816757999999993
11
160.6937529999999867
21
-80.8499999999999943
0
LINE
8
BLACK
6
CONTINUOUS
10
160.6937529999999867
20
-80.8499999999999943
11
160.9062469999999792
21
-80.8499999999999943
0
LINE
8
BLACK
6
CONTINUOUS
10
160.9062469999999792
20
-80.8499999999999943
11
161.11612599999998
21
-80.816757999999993
0
LINE
8
BLACK
6
CONTINUOUS
10
161.11612599999998
20
-80.816757999999993
11
161.3182199999999966
21
-80.7510939999999948
0
LINE
8
BLACK
6
CONTINUOUS
10
161.3182199999999966
20
-80.7510939999999948
11
161.507553999999999
21
-80.6546230000000008
0
LINE
8
BLACK
6
CONTINUOUS
10
161.507553999999999
20
-80.6546230000000008
11
161.6794659999999908
21
-80.5297219999999925
0
LINE
8
BLACK
6
CONTINUOUS
10
161.6794659999999908
20
-80.5297219999999925
11
161.8297220000000038
21
-80.3794659999999936
0
LINE
8
BLACK
6
CONTINUOUS
10
161.8297220000000038
20
-80.3794659999999936
11
161.954622999999998
21
-80.2075540000000018
0
LINE
8
BLACK
6
CONTINUOUS
10
161.954622999999998
20
-80.2075540000000018
11
162.0510940000000062
21
-80.0182199999999995
0
LINE
8
BLACK
6
CONTINUOUS
10
162.0510940000000062
20
-80.0182199999999995
11
162.1167580000000044
21
-79.816125999999997
0
LINE
8
BLACK
6
CONTINUOUS
10
162.1167580000000044
20
-79.816125999999997
11
162.1500000000000057
21
-79.6062469999999962
0
LINE
8
BLACK
6
CONTINUOUS
10
162.1500000000000057
20
-79.6062469999999962
11
162.1500000000000057
21
-79.3937529999999896
0
LINE
8
BLACK
6
CONTINUOUS
10
162.1500000000000057
20
-79.3937529999999896
11
162.1167580000000044
21
-79.183874000000003
0
LINE
8
BLACK
6
CONTINUOUS
10
162.1167580000000044
20
-79.183874000000003
11
162.0510940000000062
21
-78.9817800000000005
0
LINE
8
BLACK
6
CONTINUOUS
10
162.0510940000000062
20
-78.9817800000000005
11
161.954622999999998
21
-78.7924459999999982
0
LINE
8
BLACK
6
CONTINUOUS
10
161.954622999999998
20
-78.7924459999999982
11
161.8297220000000038
21
-78.6205339999999921
0
LINE
8
BLACK
6
CONTINUOUS
10
161.8297220000000038
20
-78.6205339999999921
11
161.6794659999999908
21
-78.4702779999999933
0
LINE
8
BLACK
6
CONTINUOUS
10
161.6794659999999908
20
-78.4702779999999933
11
161.507553999999999
21
-78.3453769999999992
0
LINE
8
BLACK
6
CONTINUOUS
10
161.507553999999999
20
-78.3453769999999992
11
161.3182199999999966
21
-78.248905999999991
0
LINE
8
BLACK
6
CONTINUOUS
10
161.3182199999999966
20
-78.248905999999991
11
161.11612599999998
21
-78.1832419999999928
0
LINE
8
BLACK
6
CONTINUOUS
10
161.11612599999998
20
-78.1832419999999928
11
160.9062469999999792
21
-78.1499999999999915
0
LINE
8
BLACK
6
CONTINUOUS
10
160.9062469999999792
20
-78.1499999999999915
11
160.6937529999999867
21
-78.1499999999999915
0
LINE
8
BLACK
6
CONTINUOUS
10
160.6937529999999867
20
-78.1499999999999915
11
160.4838739999999859
21
-78.1832419999999928
0
LINE
8
BLACK
6
CONTINUOUS
10
160.4838739999999859
20
-78.1832419999999928
11
160.2817799999999977
21
-78.248905999999991
0
LINE
8
BLACK
6
CONTINUOUS
10
160.2817799999999977
20
-78.248905999999991
11
160.0924459999999954
21
-78.3453769999999992
0
LINE
8
BLACK
6
CONTINUOUS
10
160.0924459999999954
20
-78.3453769999999992
11
159.9205340000000035
21
-78.4702779999999933
0
LINE
8
BLACK
6
CONTINUOUS
10
159.9205340000000035
20
-78.4702779999999933
11
159.7702779999999905
21
-78.6205339999999921
0
LINE
8
BLACK
6
CONTINUOUS
10
159.7702779999999905
20
-78.6205339999999921
11
159.6453769999999963
21
-78.7924459999999982
0
LINE
8
BLACK
6
CONTINUOUS
10
159.6453769999999963
20
-78.7924459999999982
11
159.5489059999999881
21
-78.9817800000000005
0
LINE
8
BLACK
6
CONTINUOUS
10
159.5489059999999881
20
-78.9817800000000005
11
159.48324199999999
21
-79.183874000000003
0
LINE
8
BLACK
6
CONTINUOUS
10
159.48324199999999
20
-79.183874000000003
11
159.4499999999999886
21
-79.3937529999999896
0
LINE
8
BLACK
6
CONTINUOUS
10
159.4499999999999886
20
-79.3937529999999896
11
159.4499999999999886
21
-79.6062469999999962
0
LINE
8
BLACK
6
CONTINUOUS
10
210.5268239999999764
20
-77.6386820000000029
11
210.7357569999999782
21
-77.7065690000000018
0
LINE
8
BLACK
6
CONTINUOUS
10
210.7357569999999782
20
-77.7065690000000018
11
210.9314979999999764
21
-77.8063039999999972
0
LINE
8
BLACK
6
CONTINUOUS
10
210.9314979999999764
20
-77.8063039999999972
11
211.1092270000000042
21
-77.9354319999999916
0
LINE
8
BLACK
6
CONTINUOUS
10
211.1092270000000042
20
-77.9354319999999916
11
211.264567999999997
21
-78.0907729999999987
0
LINE
8
BLACK
6
CONTINUOUS
10
211.264567999999997
20
-78.0907729999999987
11
211.3936959999999772
21
-78.268501999999998
0
LINE
8
BLACK
6
CONTINUOUS
10
211.3936959999999772
20
-78.268501999999998
11
211.4934309999999869
21
-78.4642429999999962
0
LINE
8
BLACK
6
CONTINUOUS
10
211.4934309999999869
20
-78.4642429999999962
11
211.561318
21
-78.673175999999998
0
LINE
8
BLACK
6
CONTINUOUS
10
211.561318
20
-78.673175999999998
11
211.5956839999999772
21
-78.8901570000000021
0
LINE
8
BLACK
6
CONTINUOUS
10
211.5956839999999772
20
-78.8901570000000021
11
211.5956839999999772
21
-79.1098429999999979
0
LINE
8
BLACK
6
CONTINUOUS
10
211.5956839999999772
20
-79.1098429999999979
11
211.561318
21
-79.326824000000002
0
LINE
8
BLACK
6
CONTINUOUS
10
211.561318
20
-79.326824000000002
11
211.4934309999999869
21
-79.5357569999999896
0
LINE
8
BLACK
6
CONTINUOUS
10
211.4934309999999869
20
-79.5357569999999896
11
211.3936959999999772
21
-79.731498000000002
0
LINE
8
BLACK
6
CONTINUOUS
10
211.3936959999999772
20
-79.731498000000002
11
211.264567999999997
21
-79.9092270000000013
0
LINE
8
BLACK
6
CONTINUOUS
10
211.264567999999997
20
-79.9092270000000013
11
211.1092270000000042
21
-80.0645679999999942
0
LINE
8
BLACK
6
CONTINUOUS
10
211.1092270000000042
20
-80.0645679999999942
11
210.9314979999999764
21
-80.1936960000000028
0
LINE
8
BLACK
6
CONTINUOUS
10
210.9314979999999764
20
-80.1936960000000028
11
210.7357569999999782
21
-80.2934309999999982
0
LINE
8
BLACK
6
CONTINUOUS
10
210.7357569999999782
20
-80.2934309999999982
11
210.5268239999999764
21
-80.3613179999999971
0
LINE
8
BLACK
6
CONTINUOUS
10
210.5268239999999764
20
-80.3613179999999971
11
210.3098430000000008
21
-80.3956840000000028
0
LINE
8
BLACK
6
CONTINUOUS
10
210.3098430000000008
20
-80.3956840000000028
11
210.0901569999999765
21
-80.3956840000000028
0
LINE
8
BLACK
6
CONTINUOUS
10
210.0901569999999765
20
-80.3956840000000028
11
209.8731760000000008
21
-80.3613179999999971
0
LINE
8
BLACK
6
CONTINUOUS
10
209.8731760000000008
20
-80.3613179999999971
11
209.664242999999999
21
-80.2934309999999982
0
LINE
8
BLACK
6
CONTINUOUS
10
209.664242999999999
20
-80.2934309999999982
11
209.4685020000000009
21
-80.1936960000000028
0
LINE
8
BLACK
6
CONTINUOUS
10
209.4685020000000009
20
-80.1936960000000028
11
209.2907730000000015
21
-80.0645679999999942
0
LINE
8
BLACK
6
CONTINUOUS
10
209.2907730000000015
20
-80.0645679999999942
11
209.1354319999999802
21
-79.9092270000000013
0
LINE
8
BLACK
6
CONTINUOUS
10
209.1354319999999802
20
-79.9092270000000013
11
209.0063040000000001
21
-79.731498000000002
0
LINE
8
BLACK
6
CONTINUOUS
10
209.0063040000000001
20
-79.731498000000002
11
208.9065689999999904
21
-79.5357569999999896
0
LINE
8
BLACK
6
CONTINUOUS
10
208.9065689999999904
20
-79.5357569999999896
11
208.8386819999999773
21
-79.326824000000002
0
LINE
8
BLACK
6
CONTINUOUS
10
208.8386819999999773
20
-79.326824000000002
11
208.804316
21
-79.1098429999999979
0
LINE
8
BLACK
6
CONTINUOUS
10
208.804316
20
-79.1098429999999979
11
208.804316
21
-78.8937529999999896
0
LINE
8
BLACK
6
CONTINUOUS
10
208.804316
20
-78.8937529999999896
11
208.804316
21
-78.8901570000000021
0
LINE
8
BLACK
6
CONTINUOUS
10
208.804316
20
-78.8901570000000021
11
208.8386819999999773
21
-78.673175999999998
0
LINE
8
BLACK
6
CONTINUOUS
10
208.8386819999999773
20
-78.673175999999998
11
208.9065689999999904
21
-78.4642429999999962
0
LINE
8
BLACK
6
CONTINUOUS
10
208.9065689999999904
20
-78.4642429999999962
11
209.0063040000000001
21
-78.268501999999998
0
LINE
8
BLACK
6
CONTINUOUS
10
209.0063040000000001
20
-78.268501999999998
11
209.1354319999999802
21
-78.0907729999999987
0
LINE
8
BLACK
6
CONTINUOUS
10
209.1354319999999802
20
-78.0907729999999987
11
209.2907730000000015
21
-77.9354319999999916
0
LINE
8
BLACK
6
CONTINUOUS
10
209.2907730000000015
20
-77.9354319999999916
11
209.4685020000000009
21
-77.8063039999999972
0
LINE
8
BLACK
6
CONTINUOUS
10
209.4685020000000009
20
-77.8063039999999972
11
209.664242999999999
21
-77.7065690000000018
0
LINE
8
BLACK
6
CONTINUOUS
10
209.664242999999999
20
-77.7065690000000018
11
209.8731760000000008
21
-77.6386820000000029
0
LINE
8
BLACK
6
CONTINUOUS
10
209.8731760000000008
20
-77.6386820000000029
11
210.0901569999999765
21
-77.6043159999999972
0
LINE
8
BLACK
6
CONTINUOUS
10
210.0901569999999765
20
-77.6043159999999972
11
210.3098430000000008
21
-77.6043159999999972
0
LINE
8
BLACK
6
CONTINUOUS
10
210.3098430000000008
20
-77.6043159999999972
11
210.5268239999999764
21
-77.6386820000000029
0
LINE
8
BLACK
6
CONTINUOUS
10
208.8499999999999943
20
-79.1062469999999962
11
208.8832419999999956
21
-79.316125999999997
0
LINE
8
BLACK
6
CONTINUOUS
10
208.8832419999999956
20
-79.316125999999997
11
208.9489059999999938
21
-79.5182199999999995
0
LINE
8
BLACK
6
CONTINUOUS
10
208.9489059999999938
20
-79.5182199999999995
11
209.045377000000002
21
-79.7075540000000018
0
LINE
8
BLACK
6
CONTINUOUS
10
209.045377000000002
20
-79.7075540000000018
11
209.1702779999999962
21
-79.8794659999999936
0
LINE
8
BLACK
6
CONTINUOUS
10
209.1702779999999962
20
-79.8794659999999936
11
209.3205339999999808
21
-80.0297219999999925
0
LINE
8
BLACK
6
CONTINUOUS
10
209.3205339999999808
20
-80.0297219999999925
11
209.492446000000001
21
-80.1546230000000008
0
LINE
8
BLACK
6
CONTINUOUS
10
209.492446000000001
20
-80.1546230000000008
11
209.6817800000000034
21
-80.2510939999999948
0
LINE
8
BLACK
6
CONTINUOUS
10
209.6817800000000034
20
-80.2510939999999948
11
209.8838739999999916
21
-80.316757999999993
0
LINE
8
BLACK
6
CONTINUOUS
10
209.8838739999999916
20
-80.316757999999993
11
210.0937529999999924
21
-80.3499999999999943
0
LINE
8
BLACK
6
CONTINUOUS
10
210.0937529999999924
20
-80.3499999999999943
11
210.3062469999999848
21
-80.3499999999999943
0
LINE
8
BLACK
6
CONTINUOUS
10
210.3062469999999848
20
-80.3499999999999943
11
210.5161259999999857
21
-80.316757999999993
0
LINE
8
BLACK
6
CONTINUOUS
10
210.5161259999999857
20
-80.316757999999993
11
210.7182200000000023
21
-80.2510939999999948
0
LINE
8
BLACK
6
CONTINUOUS
10
210.7182200000000023
20
-80.2510939999999948
11
210.9075540000000046
21
-80.1546230000000008
0
LINE
8
BLACK
6
CONTINUOUS
10
210.9075540000000046
20
-80.1546230000000008
11
211.0794659999999965
21
-80.0297219999999925
0
LINE
8
BLACK
6
CONTINUOUS
10
211.0794659999999965
20
-80.0297219999999925
11
211.2297219999999811
21
-79.8794659999999936
0
LINE
8
BLACK
6
CONTINUOUS
10
211.2297219999999811
20
-79.8794659999999936
11
211.3546230000000037
21
-79.7075540000000018
0
LINE
8
BLACK
6
CONTINUOUS
10
211.3546230000000037
20
-79.7075540000000018
11
211.4510939999999835
21
-79.5182199999999995
0
LINE
8
BLACK
6
CONTINUOUS
10
211.4510939999999835
20
-79.5182199999999995
11
211.5167579999999816
21
-79.316125999999997
0
LINE
8
BLACK
6
CONTINUOUS
10
211.5167579999999816
20
-79.316125999999997
11
211.5499999999999829
21
-79.1062469999999962
0
LINE
8
BLACK
6
CONTINUOUS
10
211.5499999999999829
20
-79.1062469999999962
11
211.5499999999999829
21
-78.8937529999999896
0
LINE
8
BLACK
6
CONTINUOUS
10
211.5499999999999829
20
-78.8937529999999896
11
211.5167579999999816
21
-78.683874000000003
0
LINE
8
BLACK
6
CONTINUOUS
10
211.5167579999999816
20
-78.683874000000003
11
211.4510939999999835
21
-78.4817800000000005
0
LINE
8
BLACK
6
CONTINUOUS
10
211.4510939999999835
20
-78.4817800000000005
11
211.3546230000000037
21
-78.2924459999999982
0
LINE
8
BLACK
6
CONTINUOUS
10
211.3546230000000037
20
-78.2924459999999982
11
211.2297219999999811
21
-78.1205339999999921
0
LINE
8
BLACK
6
CONTINUOUS
10
211.2297219999999811
20
-78.1205339999999921
11
211.0794659999999965
21
-77.9702779999999933
0
LINE
8
BLACK
6
CONTINUOUS
10
211.0794659999999965
20
-77.9702779999999933
11
210.9075540000000046
21
-77.8453769999999992
0
LINE
8
BLACK
6
CONTINUOUS
10
210.9075540000000046
20
-77.8453769999999992
11
210.7182200000000023
21
-77.748905999999991
0
LINE
8
BLACK
6
CONTINUOUS
10
210.7182200000000023
20
-77.748905999999991
11
210.5161259999999857
21
-77.6832419999999928
0
LINE
8
BLACK
6
CONTINUOUS
10
210.5161259999999857
20
-77.6832419999999928
11
210.3062469999999848
21
-77.6499999999999915
0
LINE
8
BLACK
6
CONTINUOUS
10
210.3062469999999848
20
-77.6499999999999915
11
210.0937529999999924
21
-77.6499999999999915
0
LINE
8
BLACK
6
CONTINUOUS
10
210.0937529999999924
20
-77.6499999999999915
11
209.8838739999999916
21
-77.6832419999999928
0
LINE
8
BLACK
6
CONTINUOUS
10
209.8838739999999916
20
-77.6832419999999928
11
209.6817800000000034
21
-77.748905999999991
0
LINE
8
BLACK
6
CONTINUOUS
10
209.6817800000000034
20
-77.748905999999991
11
209.492446000000001
21
-77.8453769999999992
0
LINE
8
BLACK
6
CONTINUOUS
10
209.492446000000001
20
-77.8453769999999992
11
209.3205339999999808
21
-77.9702779999999933
0
LINE
8
BLACK
6
CONTINUOUS
10
209.3205339999999808
20
-77.9702779999999933
11
209.1702779999999962
21
-78.1205339999999921
0
LINE
8
BLACK
6
CONTINUOUS
10
209.1702779999999962
20
-78.1205339999999921
11
209.045377000000002
21
-78.2924459999999982
0
LINE
8
BLACK
6
CONTINUOUS
10
209.045377000000002
20
-78.2924459999999982
11
208.9489059999999938
21
-78.4817800000000005
0
LINE
8
BLACK
6
CONTINUOUS
10
208.9489059999999938
20
-78.4817800000000005
11
208.8832419999999956
21
-78.683874000000003
0
LINE
8
BLACK
6
CONTINUOUS
10
208.8832419999999956
20
-78.683874000000003
11
208.8499999999999943
21
-78.8937529999999896
0
LINE
8
BLACK
6
CONTINUOUS
10
208.8499999999999943
20
-78.8937529999999896
11
208.8499999999999943
21
-79.1062469999999962
0
LINE
8
BLACK
6
CONTINUOUS
10
161.0999999999999943
20
-75.162005999999991
11
161.1025630000000035
21
-75.1628389999999911
0
LINE
8
BLACK
6
CONTINUOUS
10
161.1025630000000035
20
-75.1628389999999911
11
161.1067520000000002
21
-75.162005999999991
0
LINE
8
BLACK
6
CONTINUOUS
10
161.1067520000000002
20
-75.162005999999991
11
209.1259879999999782
21
-75.162005999999991
0
LINE
8
BLACK
6
CONTINUOUS
10
209.1259879999999782
20
-75.162005999999991
11
209.5009039999999914
21
-75.1804229999999905
0
LINE
8
BLACK
6
CONTINUOUS
10
209.5009039999999914
20
-75.1804229999999905
11
209.8722099999999955
21
-75.2355000000000018
0
LINE
8
BLACK
6
CONTINUOUS
10
209.8722099999999955
20
-75.2355000000000018
11
210.2363289999999836
21
-75.3267060000000015
0
LINE
8
BLACK
6
CONTINUOUS
10
210.2363289999999836
20
-75.3267060000000015
11
210.5897549999999967
21
-75.4531630000000035
0
LINE
8
BLACK
6
CONTINUOUS
10
210.5897549999999967
20
-75.4531630000000035
11
210.9290839999999889
21
-75.6136529999999993
0
LINE
8
BLACK
6
CONTINUOUS
10
210.9290839999999889
20
-75.6136529999999993
11
211.2510479999999973
21
-75.8066309999999959
0
LINE
8
BLACK
6
CONTINUOUS
10
211.2510479999999973
20
-75.8066309999999959
11
211.5525470000000041
21
-76.0302369999999996
0
LINE
8
BLACK
6
CONTINUOUS
10
211.5525470000000041
20
-76.0302369999999996
11
211.8306769999999801
21
-76.2823190000000011
0
LINE
8
BLACK
6
CONTINUOUS
10
211.8306769999999801
20
-76.2823190000000011
11
212.0827589999999816
21
-76.5604479999999938
0
LINE
8
BLACK
6
CONTINUOUS
10
212.0827589999999816
20
-76.5604479999999938
11
212.306365999999997
21
-76.8619470000000007
0
LINE
8
BLACK
6
CONTINUOUS
10
212.306365999999997
20
-76.8619470000000007
11
212.4993439999999794
21
-77.1839109999999948
0
LINE
8
BLACK
6
CONTINUOUS
10
212.4993439999999794
20
-77.1839109999999948
11
212.6598339999999894
21
-77.5232400000000013
0
LINE
8
BLACK
6
CONTINUOUS
10
212.6598339999999894
20
-77.5232400000000013
11
212.7862920000000031
21
-77.8766650000000027
0
LINE
8
BLACK
6
CONTINUOUS
10
212.7862920000000031
20
-77.8766650000000027
11
212.8774990000000003
21
-78.2407839999999908
0
LINE
8
BLACK
6
CONTINUOUS
10
212.8774990000000003
20
-78.2407839999999908
11
212.9325759999999832
21
-78.6120899999999949
0
LINE
8
BLACK
6
CONTINUOUS
10
212.9325759999999832
20
-78.6120899999999949
11
212.9509939999999801
21
-78.9870059999999938
0
LINE
8
BLACK
6
CONTINUOUS
10
212.9509939999999801
20
-78.9870059999999938
11
212.9509879999999953
21
-78.9870059999999938
0
LINE
8
BLACK
6
CONTINUOUS
10
212.9509879999999953
20
-78.9870059999999938
11
212.9509879999999953
21
-94.2434999999999974
0
LINE
8
BLACK
6
CONTINUOUS
10
212.9509879999999953
20
-94.2434999999999974
11
212.9509869999999978
21
-94.2435009999999949
0
LINE
8
BLACK
6
CONTINUOUS
10
212.9509869999999978
20
-94.2435009999999949
11
212.9509879999999953
21
-94.2435029999999898
0
LINE
8
BLACK
6
CONTINUOUS
10
212.9509879999999953
20
-94.2435029999999898
11
212.9325690000000009
21
-94.6184179999999913
0
LINE
8
BLACK
6
CONTINUOUS
10
212.9325690000000009
20
-94.6184179999999913
11
212.877490999999992
21
-94.9897220000000004
0
LINE
8
BLACK
6
CONTINUOUS
10
212.877490999999992
20
-94.9897220000000004
11
212.7862839999999949
21
-95.3538399999999911
0
LINE
8
BLACK
6
CONTINUOUS
10
212.7862839999999949
20
-95.3538399999999911
11
212.6598259999999811
21
-95.707263999999995
0
LINE
8
BLACK
6
CONTINUOUS
10
212.6598259999999811
20
-95.707263999999995
11
212.4993350000000021
21
-96.0465919999999898
0
LINE
8
BLACK
6
CONTINUOUS
10
212.4993350000000021
20
-96.0465919999999898
11
212.3063579999999888
21
-96.3685550000000006
0
LINE
8
BLACK
6
CONTINUOUS
10
212.3063579999999888
20
-96.3685550000000006
11
212.0827510000000018
21
-96.6700519999999983
0
LINE
8
BLACK
6
CONTINUOUS
10
212.0827510000000018
20
-96.6700519999999983
11
211.8306699999999978
21
-96.9481799999999936
0
LINE
8
BLACK
6
CONTINUOUS
10
211.8306699999999978
20
-96.9481799999999936
11
211.5525399999999934
21
-97.2002609999999976
0
LINE
8
BLACK
6
CONTINUOUS
10
211.5525399999999934
20
-97.2002609999999976
11
211.251041999999984
21
-97.4238659999999896
0
LINE
8
BLACK
6
CONTINUOUS
10
211.251041999999984
20
-97.4238659999999896
11
210.9290790000000015
21
-97.6168429999999887
0
LINE
8
BLACK
6
CONTINUOUS
10
210.9290790000000015
20
-97.6168429999999887
11
210.5897499999999809
21
-97.7773320000000012
0
LINE
8
BLACK
6
CONTINUOUS
10
210.5897499999999809
20
-97.7773320000000012
11
210.2363249999999937
21
-97.9037879999999916
0
LINE
8
BLACK
6
CONTINUOUS
10
210.2363249999999937
20
-97.9037879999999916
11
209.8722070000000031
21
-97.9949939999999913
0
LINE
8
BLACK
6
CONTINUOUS
10
209.8722070000000031
20
-97.9949939999999913
11
209.5009029999999939
21
-98.0500710000000026
0
LINE
8
BLACK
6
CONTINUOUS
10
209.5009029999999939
20
-98.0500710000000026
11
209.1259879999999782
21
-98.0684880000000021
0
LINE
8
BLACK
6
CONTINUOUS
10
209.1259879999999782
20
-98.0684880000000021
11
209.1259879999999782
21
-98.0685029999999927
0
LINE
8
BLACK
6
CONTINUOUS
10
209.1259879999999782
20
-98.0685029999999927
11
209.1259379999999908
21
-98.0684869999999904
0
LINE
8
BLACK
6
CONTINUOUS
10
209.1259379999999908
20
-98.0684869999999904
11
161.1000070000000051
21
-98.0814969999999988
0
LINE
8
BLACK
6
CONTINUOUS
10
161.1000070000000051
20
-98.0814969999999988
11
161.1000019999999893
21
-98.0814960000000013
0
LINE
8
BLACK
6
CONTINUOUS
10
161.1000019999999893
20
-98.0814960000000013
11
161.0999999999999943
21
-98.0814969999999988
0
LINE
8
BLACK
6
CONTINUOUS
10
161.0999999999999943
20
-98.0814969999999988
11
160.7250849999999787
21
-98.0630790000000019
0
LINE
8
BLACK
6
CONTINUOUS
10
160.7250849999999787
20
-98.0630790000000019
11
160.3537800000000004
21
-98.008000999999993
0
LINE
8
BLACK
6
CONTINUOUS
10
160.3537800000000004
20
-98.008000999999993
11
159.9896609999999839
21
-97.9167939999999959
0
LINE
8
BLACK
6
CONTINUOUS
10
159.9896609999999839
20
-97.9167939999999959
11
159.6362359999999967
21
-97.7903359999999964
0
LINE
8
BLACK
6
CONTINUOUS
10
159.6362359999999967
20
-97.7903359999999964
11
159.2969080000000019
21
-97.6298460000000006
0
LINE
8
BLACK
6
CONTINUOUS
10
159.2969080000000019
20
-97.6298460000000006
11
158.9749449999999911
21
-97.4368679999999898
0
LINE
8
BLACK
6
CONTINUOUS
10
158.9749449999999911
20
-97.4368679999999898
11
158.6734469999999817
21
-97.2132620000000003
0
LINE
8
BLACK
6
CONTINUOUS
10
158.6734469999999817
20
-97.2132620000000003
11
158.3953180000000032
21
-96.9611799999999988
0
LINE
8
BLACK
6
CONTINUOUS
10
158.3953180000000032
20
-96.9611799999999988
11
158.1432360000000017
21
-96.6830509999999919
0
LINE
8
BLACK
6
CONTINUOUS
10
158.1432360000000017
20
-96.6830509999999919
11
157.9196299999999837
21
-96.3815529999999967
0
LINE
8
BLACK
6
CONTINUOUS
10
157.9196299999999837
20
-96.3815529999999967
11
157.7266529999999989
21
-96.0595890000000026
0
LINE
8
BLACK
6
CONTINUOUS
10
157.7266529999999989
20
-96.0595890000000026
11
157.5661629999999889
21
-95.7202609999999936
0
LINE
8
BLACK
6
CONTINUOUS
10
157.5661629999999889
20
-95.7202609999999936
11
157.4397050000000036
21
-95.3668359999999922
0
LINE
8
BLACK
6
CONTINUOUS
10
157.4397050000000036
20
-95.3668359999999922
11
157.3484990000000039
21
-95.0027169999999899
0
LINE
8
BLACK
6
CONTINUOUS
10
157.3484990000000039
20
-95.0027169999999899
11
157.293420999999995
21
-94.6314119999999974
0
LINE
8
BLACK
6
CONTINUOUS
10
157.293420999999995
20
-94.6314119999999974
11
157.2750029999999981
21
-94.2565170000000023
0
LINE
8
BLACK
6
CONTINUOUS
10
157.2750029999999981
20
-94.2565170000000023
11
157.2750000000000057
21
-94.256496999999996
0
LINE
8
BLACK
6
CONTINUOUS
10
157.2750000000000057
20
-94.256496999999996
11
157.2750000000000057
21
-78.9869999999999948
0
LINE
8
BLACK
6
CONTINUOUS
10
157.2750000000000057
20
-78.9869999999999948
11
157.2750000000000057
21
-78.9869979999999998
0
LINE
8
BLACK
6
CONTINUOUS
10
157.2750000000000057
20
-78.9869979999999998
11
157.2934180000000026
21
-78.6120899999999949
0
LINE
8
BLACK
6
CONTINUOUS
10
157.2934180000000026
20
-78.6120899999999949
11
157.3484949999999856
21
-78.2407850000000025
0
LINE
8
BLACK
6
CONTINUOUS
10
157.3484949999999856
20
-78.2407850000000025
11
157.4397019999999827
21
-77.8766660000000002
0
LINE
8
BLACK
6
CONTINUOUS
10
157.4397019999999827
20
-77.8766660000000002
11
157.566158999999999
21
-77.5232400000000013
0
LINE
8
BLACK
6
CONTINUOUS
10
157.566158999999999
20
-77.5232400000000013
11
157.7266489999999806
21
-77.1839109999999948
0
LINE
8
BLACK
6
CONTINUOUS
10
157.7266489999999806
20
-77.1839109999999948
11
157.9196269999999913
21
-76.8619470000000007
0
LINE
8
BLACK
6
CONTINUOUS
10
157.9196269999999913
20
-76.8619470000000007
11
158.1432329999999808
21
-76.5604479999999938
0
LINE
8
BLACK
6
CONTINUOUS
10
158.1432329999999808
20
-76.5604479999999938
11
158.3953139999999848
21
-76.2823190000000011
0
LINE
8
BLACK
6
CONTINUOUS
10
158.3953139999999848
20
-76.2823190000000011
11
158.6734439999999893
21
-76.0302369999999996
0
LINE
8
BLACK
6
CONTINUOUS
10
158.6734439999999893
20
-76.0302369999999996
11
158.9749419999999986
21
-75.8066299999999984
0
LINE
8
BLACK
6
CONTINUOUS
10
158.9749419999999986
20
-75.8066299999999984
11
159.296906000000007
21
-75.6136520000000019
0
LINE
8
BLACK
6
CONTINUOUS
10
159.296906000000007
20
-75.6136520000000019
11
159.6362340000000017
21
-75.4531609999999944
0
LINE
8
BLACK
6
CONTINUOUS
10
159.6362340000000017
20
-75.4531609999999944
11
159.9896599999999864
21
-75.3267039999999923
0
LINE
8
BLACK
6
CONTINUOUS
10
159.9896599999999864
20
-75.3267039999999923
11
160.353779000000003
21
-75.2354959999999977
0
LINE
8
BLACK
6
CONTINUOUS
10
160.353779000000003
20
-75.2354959999999977
11
160.7250839999999812
21
-75.1804180000000031
0
LINE
8
BLACK
6
CONTINUOUS
10
160.7250839999999812
20
-75.1804180000000031
11
161.0999999999999943
21
-75.1619999999999919
0
LINE
8
BLACK
6
CONTINUOUS
10
161.0999999999999943
20
-75.1619999999999919
11
161.0999999999999943
21
-75.162005999999991
0
LINE
8
BLACK
6
CONTINUOUS
10
161.0999999999999943
20
-75.2120060000000024
11
161.0999999999999943
21
-75.2120000000000033
0
LINE
8
BLACK
6
CONTINUOUS
10
161.0999999999999943
20
-75.2120000000000033
11
160.9145460000000014
21
-75.2120000000000033
0
LINE
8
BLACK
6
CONTINUOUS
10
160.9145460000000014
20
-75.2120000000000033
11
160.545423999999997
21
-75.2483550000000037
0
LINE
8
BLACK
6
CONTINUOUS
10
160.545423999999997
20
-75.2483550000000037
11
160.1816429999999798
21
-75.3207159999999902
0
LINE
8
BLACK
6
CONTINUOUS
10
160.1816429999999798
20
-75.3207159999999902
11
159.8267060000000015
21
-75.4283849999999916
0
LINE
8
BLACK
6
CONTINUOUS
10
159.8267060000000015
20
-75.4283849999999916
11
159.4840309999999874
21
-75.5703249999999969
0
LINE
8
BLACK
6
CONTINUOUS
10
159.4840309999999874
20
-75.5703249999999969
11
159.1569199999999853
21
-75.7451700000000017
0
LINE
8
BLACK
6
CONTINUOUS
10
159.1569199999999853
20
-75.7451700000000017
11
158.8485210000000052
21
-75.9512359999999944
0
LINE
8
BLACK
6
CONTINUOUS
10
158.8485210000000052
20
-75.9512359999999944
11
158.5618049999999926
21
-76.1865379999999988
0
LINE
8
BLACK
6
CONTINUOUS
10
158.5618049999999926
20
-76.1865379999999988
11
158.2995339999999942
21
-76.4488099999999946
0
LINE
8
BLACK
6
CONTINUOUS
10
158.2995339999999942
20
-76.4488099999999946
11
158.0642320000000041
21
-76.735525999999993
0
LINE
8
BLACK
6
CONTINUOUS
10
158.0642320000000041
20
-76.735525999999993
11
157.8581669999999804
21
-77.0439250000000015
0
LINE
8
BLACK
6
CONTINUOUS
10
157.8581669999999804
20
-77.0439250000000015
11
157.6833230000000015
21
-77.3710370000000012
0
LINE
8
BLACK
6
CONTINUOUS
10
157.6833230000000015
20
-77.3710370000000012
11
157.5413829999999962
21
-77.7137110000000035
0
LINE
8
BLACK
6
CONTINUOUS
10
157.5413829999999962
20
-77.7137110000000035
11
157.4337139999999806
21
-78.068647999999996
0
LINE
8
BLACK
6
CONTINUOUS
10
157.4337139999999806
20
-78.068647999999996
11
157.3613540000000057
21
-78.4324299999999965
0
LINE
8
BLACK
6
CONTINUOUS
10
157.3613540000000057
20
-78.4324299999999965
11
157.3249989999999912
21
-78.8015520000000009
0
LINE
8
BLACK
6
CONTINUOUS
10
157.3249989999999912
20
-78.8015520000000009
11
157.3249989999999912
21
-78.9869989999999973
0
LINE
8
BLACK
6
CONTINUOUS
10
157.3249989999999912
20
-78.9869989999999973
11
157.3249999999999886
21
-78.9869999999999948
0
LINE
8
BLACK
6
CONTINUOUS
10
157.3249999999999886
20
-78.9869999999999948
11
157.3249999999999886
21
-94.256496999999996
0
LINE
8
BLACK
6
CONTINUOUS
10
157.3249999999999886
20
-94.256496999999996
11
157.3250029999999811
21
-94.256496999999996
0
LINE
8
BLACK
6
CONTINUOUS
10
157.3250029999999811
20
-94.256496999999996
11
157.3250019999999836
21
-94.4419509999999889
0
LINE
8
BLACK
6
CONTINUOUS
10
157.3250019999999836
20
-94.4419509999999889
11
157.3613579999999956
21
-94.8110719999999958
0
LINE
8
BLACK
6
CONTINUOUS
10
157.3613579999999956
20
-94.8110719999999958
11
157.4337179999999989
21
-95.1748529999999988
0
LINE
8
BLACK
6
CONTINUOUS
10
157.4337179999999989
20
-95.1748529999999988
11
157.5413859999999886
21
-95.5297899999999913
0
LINE
8
BLACK
6
CONTINUOUS
10
157.5413859999999886
20
-95.5297899999999913
11
157.6833259999999939
21
-95.8724639999999937
0
LINE
8
BLACK
6
CONTINUOUS
10
157.6833259999999939
20
-95.8724639999999937
11
157.8581709999999987
21
-96.1995749999999958
0
LINE
8
BLACK
6
CONTINUOUS
10
157.8581709999999987
20
-96.1995749999999958
11
158.064235999999994
21
-96.5079739999999902
0
LINE
8
BLACK
6
CONTINUOUS
10
158.064235999999994
20
-96.5079739999999902
11
158.2995369999999866
21
-96.7946889999999911
0
LINE
8
BLACK
6
CONTINUOUS
10
158.2995369999999866
20
-96.7946889999999911
11
158.561807999999985
21
-97.0569610000000011
0
LINE
8
BLACK
6
CONTINUOUS
10
158.561807999999985
20
-97.0569610000000011
11
158.8485239999999976
21
-97.2922619999999938
0
LINE
8
BLACK
6
CONTINUOUS
10
158.8485239999999976
20
-97.2922619999999938
11
159.1569219999999802
21
-97.4983280000000008
0
LINE
8
BLACK
6
CONTINUOUS
10
159.1569219999999802
20
-97.4983280000000008
11
159.4840329999999824
21
-97.6731719999999939
0
LINE
8
BLACK
6
CONTINUOUS
10
159.4840329999999824
20
-97.6731719999999939
11
159.826706999999999
21
-97.8151129999999966
0
LINE
8
BLACK
6
CONTINUOUS
10
159.826706999999999
20
-97.8151129999999966
11
160.1816440000000057
21
-97.922781999999998
0
LINE
8
BLACK
6
CONTINUOUS
10
160.1816440000000057
20
-97.922781999999998
11
160.5454249999999945
21
-97.9951420000000013
0
LINE
8
BLACK
6
CONTINUOUS
10
160.5454249999999945
20
-97.9951420000000013
11
160.9145460000000014
21
-98.0314970000000017
0
LINE
8
BLACK
6
CONTINUOUS
10
160.9145460000000014
20
-98.0314970000000017
11
161.0999929999999836
21
-98.0314970000000017
0
LINE
8
BLACK
6
CONTINUOUS
10
161.0999929999999836
20
-98.0314970000000017
11
209.1259809999999959
21
-98.0184869999999933
0
LINE
8
BLACK
6
CONTINUOUS
10
209.1259809999999959
20
-98.0184869999999933
11
209.1259879999999782
21
-98.0184879999999907
0
LINE
8
BLACK
6
CONTINUOUS
10
209.1259879999999782
20
-98.0184879999999907
11
209.3114419999999996
21
-98.0184890000000024
0
LINE
8
BLACK
6
CONTINUOUS
10
209.3114419999999996
20
-98.0184890000000024
11
209.680562999999978
21
-97.9821349999999995
0
LINE
8
BLACK
6
CONTINUOUS
10
209.680562999999978
20
-97.9821349999999995
11
210.0443429999999978
21
-97.9097749999999962
0
LINE
8
BLACK
6
CONTINUOUS
10
210.0443429999999978
20
-97.9097749999999962
11
210.3992800000000045
21
-97.8021079999999898
0
LINE
8
BLACK
6
CONTINUOUS
10
210.3992800000000045
20
-97.8021079999999898
11
210.7419529999999952
21
-97.6601689999999962
0
LINE
8
BLACK
6
CONTINUOUS
10
210.7419529999999952
20
-97.6601689999999962
11
211.0690649999999948
21
-97.4853249999999889
0
LINE
8
BLACK
6
CONTINUOUS
10
211.0690649999999948
20
-97.4853249999999889
11
211.3774629999999775
21
-97.2792609999999911
0
LINE
8
BLACK
6
CONTINUOUS
10
211.3774629999999775
20
-97.2792609999999911
11
211.6641789999999901
21
-97.0439599999999984
0
LINE
8
BLACK
6
CONTINUOUS
10
211.6641789999999901
20
-97.0439599999999984
11
211.9264499999999884
21
-96.7816899999999976
0
LINE
8
BLACK
6
CONTINUOUS
10
211.9264499999999884
20
-96.7816899999999976
11
212.1617519999999786
21
-96.4949749999999966
0
LINE
8
BLACK
6
CONTINUOUS
10
212.1617519999999786
20
-96.4949749999999966
11
212.3678170000000023
21
-96.1865779999999972
0
LINE
8
BLACK
6
CONTINUOUS
10
212.3678170000000023
20
-96.1865779999999972
11
212.5426619999999787
21
-95.8594669999999951
0
LINE
8
BLACK
6
CONTINUOUS
10
212.5426619999999787
20
-95.8594669999999951
11
212.6846029999999814
21
-95.5167939999999902
0
LINE
8
BLACK
6
CONTINUOUS
10
212.6846029999999814
20
-95.5167939999999902
11
212.792271999999997
21
-95.1618579999999952
0
LINE
8
BLACK
6
CONTINUOUS
10
212.792271999999997
20
-95.1618579999999952
11
212.8646329999999978
21
-94.7980779999999896
0
LINE
8
BLACK
6
CONTINUOUS
10
212.8646329999999978
20
-94.7980779999999896
11
212.9009879999999839
21
-94.4289569999999969
0
LINE
8
BLACK
6
CONTINUOUS
10
212.9009879999999839
20
-94.4289569999999969
11
212.9009879999999839
21
-94.2435029999999898
0
LINE
8
BLACK
6
CONTINUOUS
10
212.9009879999999839
20
-94.2435029999999898
11
212.9009879999999839
21
-94.2435009999999949
0
LINE
8
BLACK
6
CONTINUOUS
10
212.9009879999999839
20
-94.2435009999999949
11
212.9009879999999839
21
-94.2434999999999974
0
LINE
8
BLACK
6
CONTINUOUS
10
212.9009879999999839
20
-94.2434999999999974
11
212.9009879999999839
21
-78.9870059999999938
0
LINE
8
BLACK
6
CONTINUOUS
10
212.9009879999999839
20
-78.9870059999999938
11
212.9009939999999972
21
-78.986975000000001
0
LINE
8
BLACK
6
CONTINUOUS
10
212.9009939999999972
20
-78.986975000000001
11
212.9009949999999947
21
-78.8015520000000009
0
LINE
8
BLACK
6
CONTINUOUS
10
212.9009949999999947
20
-78.8015520000000009
11
212.8646399999999801
21
-78.4324299999999965
0
LINE
8
BLACK
6
CONTINUOUS
10
212.8646399999999801
20
-78.4324299999999965
11
212.7922789999999793
21
-78.068647999999996
0
LINE
8
BLACK
6
CONTINUOUS
10
212.7922789999999793
20
-78.068647999999996
11
212.6846109999999896
21
-77.7137110000000035
0
LINE
8
BLACK
6
CONTINUOUS
10
212.6846109999999896
20
-77.7137110000000035
11
212.5426699999999869
21
-77.3710359999999895
0
LINE
8
BLACK
6
CONTINUOUS
10
212.5426699999999869
20
-77.3710359999999895
11
212.3678249999999821
21
-77.0439239999999899
0
LINE
8
BLACK
6
CONTINUOUS
10
212.3678249999999821
20
-77.0439239999999899
11
212.1617599999999868
21
-76.7355249999999955
0
LINE
8
BLACK
6
CONTINUOUS
10
212.1617599999999868
20
-76.7355249999999955
11
211.9264579999999967
21
-76.4488099999999946
0
LINE
8
BLACK
6
CONTINUOUS
10
211.9264579999999967
20
-76.4488099999999946
11
211.6641860000000008
21
-76.1865379999999988
0
LINE
8
BLACK
6
CONTINUOUS
10
211.6641860000000008
20
-76.1865379999999988
11
211.3774699999999882
21
-75.9512369999999919
0
LINE
8
BLACK
6
CONTINUOUS
10
211.3774699999999882
20
-75.9512369999999919
11
211.0690709999999797
21
-75.7451709999999991
0
LINE
8
BLACK
6
CONTINUOUS
10
211.0690709999999797
20
-75.7451709999999991
11
210.7419579999999826
21
-75.5703269999999918
0
LINE
8
BLACK
6
CONTINUOUS
10
210.7419579999999826
20
-75.5703269999999918
11
210.3992829999999969
21
-75.4283870000000007
0
LINE
8
BLACK
6
CONTINUOUS
10
210.3992829999999969
20
-75.4283870000000007
11
210.0443459999999902
21
-75.3207189999999969
0
LINE
8
BLACK
6
CONTINUOUS
10
210.0443459999999902
20
-75.3207189999999969
11
209.6805650000000014
21
-75.2483589999999936
0
LINE
8
BLACK
6
CONTINUOUS
10
209.6805650000000014
20
-75.2483589999999936
11
209.3114419999999996
21
-75.2120049999999907
0
LINE
8
BLACK
6
CONTINUOUS
10
209.3114419999999996
20
-75.2120049999999907
11
209.1259879999999782
21
-75.2120060000000024
0
LINE
8
BLACK
6
CONTINUOUS
10
209.1259879999999782
20
-75.2120060000000024
11
161.1067520000000002
21
-75.2120060000000024
0
LINE
8
BLACK
6
CONTINUOUS
10
161.1067520000000002
20
-75.2120060000000024
11
161.1025630000000035
21
-75.2111719999999906
0
LINE
8
BLACK
6
CONTINUOUS
10
161.1025630000000035
20
-75.2111719999999906
11
161.0999999999999943
21
-75.2120060000000024
  0
ENDSEC
  0
EOF
