  0
SECTION
  2
HEADER
  9
$ANGBASE
  50
0.0
  9
$ANGDIR
  70
1
  9
$MEASUREMENT
  70
1
  0
ENDSEC
  0
SECTION
  2
TABLES
  0
TABLE
  2
LTYPE
  70
4
  0
LTYPE
  5
40F
  2
CONTINUOUS
  70
0
  3
Solid line
  72
65
  73
0
  40
0.0
  0
LTYPE
  5
410
  2
DASHDOT
 70
0
  3
Dash Dot ____ _ ____ _
 72
65
 73
4
 40
2.0
 49
1.25
 49
-0.25
 49
0.25
 49
-0.25
  0
LTYPE
  5
411
  2
DASHED
 70
0
  3
Dashed __ __ __ __ __
 72
65
 73
2
 40
0.75
 49
0.5
 49
-0.25
  0
LTYPE
  5
43B
  2
DOTTED
 70
0
  3
Dotted .  .  .  .
 72
65
 73
2
 40
0.2
 49
0.0
 49
-0.2
  0
ENDTAB
  0
TABLE
  2
STYLE
  70
4
  0
STYLE
  2
KICAD
  70
0
  40
0
  41
1
  42
1
  50
0
  71
0
  3
isocp.shx
  0
STYLE
  2
KICADB
  70
0
  40
0
  41
1
  42
1
  50
0
  71
0
  3
isocp.shx
  0
STYLE
  2
KICADI
  70
0
  40
0
  41
1
  42
1
  50
15
  71
0
  3
isocp.shx
  0
STYLE
  2
KICADBI
  70
0
  40
0
  41
1
  42
1
  50
15
  71
0
  3
isocp.shx
  0
ENDTAB
  0
TABLE
  2
LAYER
  70
1
  0
LAYER
  2
BLACK
  70
0
  62
7
  6
CONTINUOUS
  0
ENDTAB
  0
ENDSEC
  0
SECTION
  2
ENTITIES
0
LINE
8
BLACK
6
CONTINUOUS
10
165.2999999999999829
20
-96.9939999999999998
11
164.0999999999999943
21
-96.9939999999999998
0
LINE
8
BLACK
6
CONTINUOUS
10
164.0999999999999943
20
-96.9939999999999998
11
164.0999999999999943
21
-95.1940000000000026
0
LINE
8
BLACK
6
CONTINUOUS
10
164.0999999999999943
20
-95.1940000000000026
11
165.2999999999999829
21
-95.1940000000000026
0
LINE
8
BLACK
6
CONTINUOUS
10
165.2999999999999829
20
-95.1940000000000026
11
165.2999999999999829
21
-96.9939999999999998
0
LINE
8
BLACK
6
CONTINUOUS
10
170.9000000000000057
20
-96.9939999999999998
11
169.6999999999999886
21
-96.9939999999999998
0
LINE
8
BLACK
6
CONTINUOUS
10
169.6999999999999886
20
-96.9939999999999998
11
169.6999999999999886
21
-95.1940000000000026
0
LINE
8
BLACK
6
CONTINUOUS
10
169.6999999999999886
20
-95.1940000000000026
11
170.9000000000000057
21
-95.1940000000000026
0
LINE
8
BLACK
6
CONTINUOUS
10
170.9000000000000057
20
-95.1940000000000026
11
170.9000000000000057
21
-96.9939999999999998
0
LINE
8
BLACK
6
CONTINUOUS
10
166.2999999999999829
20
-92.9689999999999941
11
165.6999999999999886
21
-92.9689999999999941
0
LINE
8
BLACK
6
CONTINUOUS
10
165.6999999999999886
20
-92.9689999999999941
11
165.6999999999999886
21
-91.4189999999999969
0
LINE
8
BLACK
6
CONTINUOUS
10
165.6999999999999886
20
-91.4189999999999969
11
166.2999999999999829
21
-91.4189999999999969
0
LINE
8
BLACK
6
CONTINUOUS
10
166.2999999999999829
20
-91.4189999999999969
11
166.2999999999999829
21
-92.9689999999999941
0
LINE
8
BLACK
6
CONTINUOUS
10
167.2999999999999829
20
-92.9689999999999941
11
166.6999999999999886
21
-92.9689999999999941
0
LINE
8
BLACK
6
CONTINUOUS
10
166.6999999999999886
20
-92.9689999999999941
11
166.6999999999999886
21
-91.4189999999999969
0
LINE
8
BLACK
6
CONTINUOUS
10
166.6999999999999886
20
-91.4189999999999969
11
167.2999999999999829
21
-91.4189999999999969
0
LINE
8
BLACK
6
CONTINUOUS
10
167.2999999999999829
20
-91.4189999999999969
11
167.2999999999999829
21
-92.9689999999999941
0
LINE
8
BLACK
6
CONTINUOUS
10
168.2999999999999829
20
-92.9689999999999941
11
167.6999999999999886
21
-92.9689999999999941
0
LINE
8
BLACK
6
CONTINUOUS
10
167.6999999999999886
20
-92.9689999999999941
11
167.6999999999999886
21
-91.4189999999999969
0
LINE
8
BLACK
6
CONTINUOUS
10
167.6999999999999886
20
-91.4189999999999969
11
168.2999999999999829
21
-91.4189999999999969
0
LINE
8
BLACK
6
CONTINUOUS
10
168.2999999999999829
20
-91.4189999999999969
11
168.2999999999999829
21
-92.9689999999999941
0
LINE
8
BLACK
6
CONTINUOUS
10
169.2999999999999829
20
-92.9689999999999941
11
168.6999999999999886
21
-92.9689999999999941
0
LINE
8
BLACK
6
CONTINUOUS
10
168.6999999999999886
20
-92.9689999999999941
11
168.6999999999999886
21
-91.4189999999999969
0
LINE
8
BLACK
6
CONTINUOUS
10
168.6999999999999886
20
-91.4189999999999969
11
169.2999999999999829
21
-91.4189999999999969
0
LINE
8
BLACK
6
CONTINUOUS
10
169.2999999999999829
20
-91.4189999999999969
11
169.2999999999999829
21
-92.9689999999999941
0
LINE
8
BLACK
6
CONTINUOUS
10
188.6132199999999841
20
-89.4268900000000002
11
188.6943259999999896
21
-89.4810839999999956
0
LINE
8
BLACK
6
CONTINUOUS
10
188.6943259999999896
20
-89.4810839999999956
11
188.748519999999985
21
-89.5621900000000011
0
LINE
8
BLACK
6
CONTINUOUS
10
188.748519999999985
20
-89.5621900000000011
11
188.7675490000000025
21
-89.6578619999999944
0
LINE
8
BLACK
6
CONTINUOUS
10
188.7675490000000025
20
-89.6578619999999944
11
188.76755
21
-90.657859000000002
0
LINE
8
BLACK
6
CONTINUOUS
10
188.76755
20
-90.657859000000002
11
188.748519999999985
21
-90.7535299999999978
0
LINE
8
BLACK
6
CONTINUOUS
10
188.748519999999985
20
-90.7535299999999978
11
188.6943259999999896
21
-90.8346359999999891
0
LINE
8
BLACK
6
CONTINUOUS
10
188.6943259999999896
20
-90.8346359999999891
11
188.6132199999999841
21
-90.8888299999999987
0
LINE
8
BLACK
6
CONTINUOUS
10
188.6132199999999841
20
-90.8888299999999987
11
188.517548000000005
21
-90.907859000000002
0
LINE
8
BLACK
6
CONTINUOUS
10
188.517548000000005
20
-90.907859000000002
11
185.6175509999999917
21
-90.9078599999999994
0
LINE
8
BLACK
6
CONTINUOUS
10
185.6175509999999917
20
-90.9078599999999994
11
185.5218799999999817
21
-90.8888299999999987
0
LINE
8
BLACK
6
CONTINUOUS
10
185.5218799999999817
20
-90.8888299999999987
11
185.4407740000000047
21
-90.8346359999999891
0
LINE
8
BLACK
6
CONTINUOUS
10
185.4407740000000047
20
-90.8346359999999891
11
185.3865799999999808
21
-90.7535299999999978
0
LINE
8
BLACK
6
CONTINUOUS
10
185.3865799999999808
20
-90.7535299999999978
11
185.3675509999999917
21
-90.6578579999999903
0
LINE
8
BLACK
6
CONTINUOUS
10
185.3675509999999917
20
-90.6578579999999903
11
185.3675499999999943
21
-89.6578609999999969
0
LINE
8
BLACK
6
CONTINUOUS
10
185.3675499999999943
20
-89.6578609999999969
11
185.3865799999999808
21
-89.5621900000000011
0
LINE
8
BLACK
6
CONTINUOUS
10
185.3865799999999808
20
-89.5621900000000011
11
185.4407740000000047
21
-89.4810839999999956
0
LINE
8
BLACK
6
CONTINUOUS
10
185.4407740000000047
20
-89.4810839999999956
11
185.5218799999999817
21
-89.4268900000000002
0
LINE
8
BLACK
6
CONTINUOUS
10
185.5218799999999817
20
-89.4268900000000002
11
185.6175519999999892
21
-89.4078609999999969
0
LINE
8
BLACK
6
CONTINUOUS
10
185.6175519999999892
20
-89.4078609999999969
11
188.5175490000000025
21
-89.4078599999999994
0
LINE
8
BLACK
6
CONTINUOUS
10
188.5175490000000025
20
-89.4078599999999994
11
188.6132199999999841
21
-89.4268900000000002
0
LINE
8
BLACK
6
CONTINUOUS
10
166.45169199999998
20
-90.0754099999999909
11
164.6516919999999971
21
-90.0754099999999909
0
LINE
8
BLACK
6
CONTINUOUS
10
164.6516919999999971
20
-90.0754099999999909
11
164.6516919999999971
21
-88.8754100000000022
0
LINE
8
BLACK
6
CONTINUOUS
10
164.6516919999999971
20
-88.8754100000000022
11
166.45169199999998
21
-88.8754100000000022
0
LINE
8
BLACK
6
CONTINUOUS
10
166.45169199999998
20
-88.8754100000000022
11
166.45169199999998
21
-90.0754099999999909
0
LINE
8
BLACK
6
CONTINUOUS
10
201.3456709999999816
20
-88.5440299999999922
11
201.4267769999999871
21
-88.5982229999999902
0
LINE
8
BLACK
6
CONTINUOUS
10
201.4267769999999871
20
-88.5982229999999902
11
201.480969999999985
21
-88.6793289999999956
0
LINE
8
BLACK
6
CONTINUOUS
10
201.480969999999985
20
-88.6793289999999956
11
201.5
21
-88.7749999999999915
0
LINE
8
BLACK
6
CONTINUOUS
10
201.5
20
-88.7749999999999915
11
201.5
21
-89.5249999999999915
0
LINE
8
BLACK
6
CONTINUOUS
10
201.5
20
-89.5249999999999915
11
201.480969999999985
21
-89.6206710000000015
0
LINE
8
BLACK
6
CONTINUOUS
10
201.480969999999985
20
-89.6206710000000015
11
201.4267769999999871
21
-89.7017769999999928
0
LINE
8
BLACK
6
CONTINUOUS
10
201.4267769999999871
20
-89.7017769999999928
11
201.3456709999999816
21
-89.7559699999999907
0
LINE
8
BLACK
6
CONTINUOUS
10
201.3456709999999816
20
-89.7559699999999907
11
201.25
21
-89.7749999999999915
0
LINE
8
BLACK
6
CONTINUOUS
10
201.25
20
-89.7749999999999915
11
199.25
21
-89.7749999999999915
0
LINE
8
BLACK
6
CONTINUOUS
10
199.25
20
-89.7749999999999915
11
199.1543289999999899
21
-89.7559699999999907
0
LINE
8
BLACK
6
CONTINUOUS
10
199.1543289999999899
20
-89.7559699999999907
11
199.0732229999999845
21
-89.7017769999999928
0
LINE
8
BLACK
6
CONTINUOUS
10
199.0732229999999845
20
-89.7017769999999928
11
199.0190299999999866
21
-89.6206710000000015
0
LINE
8
BLACK
6
CONTINUOUS
10
199.0190299999999866
20
-89.6206710000000015
11
199.
21
-89.5249999999999915
0
LINE
8
BLACK
6
CONTINUOUS
10
199.
20
-89.5249999999999915
11
199.
21
-88.7749999999999915
0
LINE
8
BLACK
6
CONTINUOUS
10
199.
20
-88.7749999999999915
11
199.0190299999999866
21
-88.6793289999999956
0
LINE
8
BLACK
6
CONTINUOUS
10
199.0190299999999866
20
-88.6793289999999956
11
199.0732229999999845
21
-88.5982229999999902
0
LINE
8
BLACK
6
CONTINUOUS
10
199.0732229999999845
20
-88.5982229999999902
11
199.1543289999999899
21
-88.5440299999999922
0
LINE
8
BLACK
6
CONTINUOUS
10
199.1543289999999899
20
-88.5440299999999922
11
199.25
21
-88.5249999999999915
0
LINE
8
BLACK
6
CONTINUOUS
10
199.25
20
-88.5249999999999915
11
201.25
21
-88.5249999999999915
0
LINE
8
BLACK
6
CONTINUOUS
10
201.25
20
-88.5249999999999915
11
201.3456709999999816
21
-88.5440299999999922
0
LINE
8
BLACK
6
CONTINUOUS
10
170.2266919999999857
20
-88.4754099999999966
11
168.6766920000000027
21
-88.4754099999999966
0
LINE
8
BLACK
6
CONTINUOUS
10
168.6766920000000027
20
-88.4754099999999966
11
168.6766920000000027
21
-87.8754100000000022
0
LINE
8
BLACK
6
CONTINUOUS
10
168.6766920000000027
20
-87.8754100000000022
11
170.2266919999999857
21
-87.8754100000000022
0
LINE
8
BLACK
6
CONTINUOUS
10
170.2266919999999857
20
-87.8754100000000022
11
170.2266919999999857
21
-88.4754099999999966
0
LINE
8
BLACK
6
CONTINUOUS
10
194.413220999999993
20
-87.3268899999999917
11
194.4943269999999984
21
-87.3810829999999896
0
LINE
8
BLACK
6
CONTINUOUS
10
194.4943269999999984
20
-87.3810829999999896
11
194.5485199999999963
21
-87.4621889999999951
0
LINE
8
BLACK
6
CONTINUOUS
10
194.5485199999999963
20
-87.4621889999999951
11
194.5675499999999829
21
-87.5578599999999909
0
LINE
8
BLACK
6
CONTINUOUS
10
194.5675499999999829
20
-87.5578599999999909
11
194.5675499999999829
21
-88.0578599999999909
0
LINE
8
BLACK
6
CONTINUOUS
10
194.5675499999999829
20
-88.0578599999999909
11
194.5485199999999963
21
-88.153531000000001
0
LINE
8
BLACK
6
CONTINUOUS
10
194.5485199999999963
20
-88.153531000000001
11
194.4943269999999984
21
-88.2346369999999922
0
LINE
8
BLACK
6
CONTINUOUS
10
194.4943269999999984
20
-88.2346369999999922
11
194.413220999999993
21
-88.2888299999999902
0
LINE
8
BLACK
6
CONTINUOUS
10
194.413220999999993
20
-88.2888299999999902
11
194.3175499999999829
21
-88.3078599999999909
0
LINE
8
BLACK
6
CONTINUOUS
10
194.3175499999999829
20
-88.3078599999999909
11
191.3175499999999829
21
-88.3078599999999909
0
LINE
8
BLACK
6
CONTINUOUS
10
191.3175499999999829
20
-88.3078599999999909
11
191.2218790000000013
21
-88.2888299999999902
0
LINE
8
BLACK
6
CONTINUOUS
10
191.2218790000000013
20
-88.2888299999999902
11
191.1407729999999958
21
-88.2346369999999922
0
LINE
8
BLACK
6
CONTINUOUS
10
191.1407729999999958
20
-88.2346369999999922
11
191.0865799999999979
21
-88.153531000000001
0
LINE
8
BLACK
6
CONTINUOUS
10
191.0865799999999979
20
-88.153531000000001
11
191.0675499999999829
21
-88.0578599999999909
0
LINE
8
BLACK
6
CONTINUOUS
10
191.0675499999999829
20
-88.0578599999999909
11
191.0675499999999829
21
-87.5578599999999909
0
LINE
8
BLACK
6
CONTINUOUS
10
191.0675499999999829
20
-87.5578599999999909
11
191.0865799999999979
21
-87.4621889999999951
0
LINE
8
BLACK
6
CONTINUOUS
10
191.0865799999999979
20
-87.4621889999999951
11
191.1407729999999958
21
-87.3810829999999896
0
LINE
8
BLACK
6
CONTINUOUS
10
191.1407729999999958
20
-87.3810829999999896
11
191.2218790000000013
21
-87.3268899999999917
0
LINE
8
BLACK
6
CONTINUOUS
10
191.2218790000000013
20
-87.3268899999999917
11
191.3175499999999829
21
-87.3078599999999909
0
LINE
8
BLACK
6
CONTINUOUS
10
191.3175499999999829
20
-87.3078599999999909
11
194.3175499999999829
21
-87.3078599999999909
0
LINE
8
BLACK
6
CONTINUOUS
10
194.3175499999999829
20
-87.3078599999999909
11
194.413220999999993
21
-87.3268899999999917
0
LINE
8
BLACK
6
CONTINUOUS
10
170.2266919999999857
20
-87.4754099999999966
11
168.6766920000000027
21
-87.4754099999999966
0
LINE
8
BLACK
6
CONTINUOUS
10
168.6766920000000027
20
-87.4754099999999966
11
168.6766920000000027
21
-86.8754100000000022
0
LINE
8
BLACK
6
CONTINUOUS
10
168.6766920000000027
20
-86.8754100000000022
11
170.2266919999999857
21
-86.8754100000000022
0
LINE
8
BLACK
6
CONTINUOUS
10
170.2266919999999857
20
-86.8754100000000022
11
170.2266919999999857
21
-87.4754099999999966
0
LINE
8
BLACK
6
CONTINUOUS
10
201.3456709999999816
20
-86.0440299999999922
11
201.4267769999999871
21
-86.0982229999999902
0
LINE
8
BLACK
6
CONTINUOUS
10
201.4267769999999871
20
-86.0982229999999902
11
201.480969999999985
21
-86.1793289999999956
0
LINE
8
BLACK
6
CONTINUOUS
10
201.480969999999985
20
-86.1793289999999956
11
201.5
21
-86.2749999999999915
0
LINE
8
BLACK
6
CONTINUOUS
10
201.5
20
-86.2749999999999915
11
201.5
21
-87.0249999999999915
0
LINE
8
BLACK
6
CONTINUOUS
10
201.5
20
-87.0249999999999915
11
201.480969999999985
21
-87.1206710000000015
0
LINE
8
BLACK
6
CONTINUOUS
10
201.480969999999985
20
-87.1206710000000015
11
201.4267769999999871
21
-87.2017769999999928
0
LINE
8
BLACK
6
CONTINUOUS
10
201.4267769999999871
20
-87.2017769999999928
11
201.3456709999999816
21
-87.2559699999999907
0
LINE
8
BLACK
6
CONTINUOUS
10
201.3456709999999816
20
-87.2559699999999907
11
201.25
21
-87.2749999999999915
0
LINE
8
BLACK
6
CONTINUOUS
10
201.25
20
-87.2749999999999915
11
199.25
21
-87.2749999999999915
0
LINE
8
BLACK
6
CONTINUOUS
10
199.25
20
-87.2749999999999915
11
199.1543289999999899
21
-87.2559699999999907
0
LINE
8
BLACK
6
CONTINUOUS
10
199.1543289999999899
20
-87.2559699999999907
11
199.0732229999999845
21
-87.2017769999999928
0
LINE
8
BLACK
6
CONTINUOUS
10
199.0732229999999845
20
-87.2017769999999928
11
199.0190299999999866
21
-87.1206710000000015
0
LINE
8
BLACK
6
CONTINUOUS
10
199.0190299999999866
20
-87.1206710000000015
11
199.
21
-87.0249999999999915
0
LINE
8
BLACK
6
CONTINUOUS
10
199.
20
-87.0249999999999915
11
199.
21
-86.2749999999999915
0
LINE
8
BLACK
6
CONTINUOUS
10
199.
20
-86.2749999999999915
11
199.0190299999999866
21
-86.1793289999999956
0
LINE
8
BLACK
6
CONTINUOUS
10
199.0190299999999866
20
-86.1793289999999956
11
199.0732229999999845
21
-86.0982229999999902
0
LINE
8
BLACK
6
CONTINUOUS
10
199.0732229999999845
20
-86.0982229999999902
11
199.1543289999999899
21
-86.0440299999999922
0
LINE
8
BLACK
6
CONTINUOUS
10
199.1543289999999899
20
-86.0440299999999922
11
199.25
21
-86.0249999999999915
0
LINE
8
BLACK
6
CONTINUOUS
10
199.25
20
-86.0249999999999915
11
201.25
21
-86.0249999999999915
0
LINE
8
BLACK
6
CONTINUOUS
10
201.25
20
-86.0249999999999915
11
201.3456709999999816
21
-86.0440299999999922
0
LINE
8
BLACK
6
CONTINUOUS
10
170.2266919999999857
20
-86.4754099999999966
11
168.6766920000000027
21
-86.4754099999999966
0
LINE
8
BLACK
6
CONTINUOUS
10
168.6766920000000027
20
-86.4754099999999966
11
168.6766920000000027
21
-85.8754100000000022
0
LINE
8
BLACK
6
CONTINUOUS
10
168.6766920000000027
20
-85.8754100000000022
11
170.2266919999999857
21
-85.8754100000000022
0
LINE
8
BLACK
6
CONTINUOUS
10
170.2266919999999857
20
-85.8754100000000022
11
170.2266919999999857
21
-86.4754099999999966
0
LINE
8
BLACK
6
CONTINUOUS
10
194.413220999999993
20
-85.3268899999999917
11
194.4943269999999984
21
-85.3810829999999896
0
LINE
8
BLACK
6
CONTINUOUS
10
194.4943269999999984
20
-85.3810829999999896
11
194.5485199999999963
21
-85.4621889999999951
0
LINE
8
BLACK
6
CONTINUOUS
10
194.5485199999999963
20
-85.4621889999999951
11
194.5675499999999829
21
-85.5578599999999909
0
LINE
8
BLACK
6
CONTINUOUS
10
194.5675499999999829
20
-85.5578599999999909
11
194.5675499999999829
21
-86.0578599999999909
0
LINE
8
BLACK
6
CONTINUOUS
10
194.5675499999999829
20
-86.0578599999999909
11
194.5485199999999963
21
-86.153531000000001
0
LINE
8
BLACK
6
CONTINUOUS
10
194.5485199999999963
20
-86.153531000000001
11
194.4943269999999984
21
-86.2346369999999922
0
LINE
8
BLACK
6
CONTINUOUS
10
194.4943269999999984
20
-86.2346369999999922
11
194.413220999999993
21
-86.2888299999999902
0
LINE
8
BLACK
6
CONTINUOUS
10
194.413220999999993
20
-86.2888299999999902
11
194.3175499999999829
21
-86.3078599999999909
0
LINE
8
BLACK
6
CONTINUOUS
10
194.3175499999999829
20
-86.3078599999999909
11
191.3175499999999829
21
-86.3078599999999909
0
LINE
8
BLACK
6
CONTINUOUS
10
191.3175499999999829
20
-86.3078599999999909
11
191.2218790000000013
21
-86.2888299999999902
0
LINE
8
BLACK
6
CONTINUOUS
10
191.2218790000000013
20
-86.2888299999999902
11
191.1407729999999958
21
-86.2346369999999922
0
LINE
8
BLACK
6
CONTINUOUS
10
191.1407729999999958
20
-86.2346369999999922
11
191.0865799999999979
21
-86.153531000000001
0
LINE
8
BLACK
6
CONTINUOUS
10
191.0865799999999979
20
-86.153531000000001
11
191.0675499999999829
21
-86.0578599999999909
0
LINE
8
BLACK
6
CONTINUOUS
10
191.0675499999999829
20
-86.0578599999999909
11
191.0675499999999829
21
-85.5578599999999909
0
LINE
8
BLACK
6
CONTINUOUS
10
191.0675499999999829
20
-85.5578599999999909
11
191.0865799999999979
21
-85.4621889999999951
0
LINE
8
BLACK
6
CONTINUOUS
10
191.0865799999999979
20
-85.4621889999999951
11
191.1407729999999958
21
-85.3810829999999896
0
LINE
8
BLACK
6
CONTINUOUS
10
191.1407729999999958
20
-85.3810829999999896
11
191.2218790000000013
21
-85.3268899999999917
0
LINE
8
BLACK
6
CONTINUOUS
10
191.2218790000000013
20
-85.3268899999999917
11
191.3175499999999829
21
-85.3078599999999909
0
LINE
8
BLACK
6
CONTINUOUS
10
191.3175499999999829
20
-85.3078599999999909
11
194.3175499999999829
21
-85.3078599999999909
0
LINE
8
BLACK
6
CONTINUOUS
10
194.3175499999999829
20
-85.3078599999999909
11
194.413220999999993
21
-85.3268899999999917
0
LINE
8
BLACK
6
CONTINUOUS
10
170.2266919999999857
20
-85.4754099999999966
11
168.6766920000000027
21
-85.4754099999999966
0
LINE
8
BLACK
6
CONTINUOUS
10
168.6766920000000027
20
-85.4754099999999966
11
168.6766920000000027
21
-84.8754100000000022
0
LINE
8
BLACK
6
CONTINUOUS
10
168.6766920000000027
20
-84.8754100000000022
11
170.2266919999999857
21
-84.8754100000000022
0
LINE
8
BLACK
6
CONTINUOUS
10
170.2266919999999857
20
-84.8754100000000022
11
170.2266919999999857
21
-85.4754099999999966
0
LINE
8
BLACK
6
CONTINUOUS
10
201.3456709999999816
20
-83.5440299999999922
11
201.4267769999999871
21
-83.5982229999999902
0
LINE
8
BLACK
6
CONTINUOUS
10
201.4267769999999871
20
-83.5982229999999902
11
201.480969999999985
21
-83.6793289999999956
0
LINE
8
BLACK
6
CONTINUOUS
10
201.480969999999985
20
-83.6793289999999956
11
201.5
21
-83.7749999999999915
0
LINE
8
BLACK
6
CONTINUOUS
10
201.5
20
-83.7749999999999915
11
201.5
21
-84.5249999999999915
0
LINE
8
BLACK
6
CONTINUOUS
10
201.5
20
-84.5249999999999915
11
201.480969999999985
21
-84.6206710000000015
0
LINE
8
BLACK
6
CONTINUOUS
10
201.480969999999985
20
-84.6206710000000015
11
201.4267769999999871
21
-84.7017769999999928
0
LINE
8
BLACK
6
CONTINUOUS
10
201.4267769999999871
20
-84.7017769999999928
11
201.3456709999999816
21
-84.7559699999999907
0
LINE
8
BLACK
6
CONTINUOUS
10
201.3456709999999816
20
-84.7559699999999907
11
201.25
21
-84.7749999999999915
0
LINE
8
BLACK
6
CONTINUOUS
10
201.25
20
-84.7749999999999915
11
199.25
21
-84.7749999999999915
0
LINE
8
BLACK
6
CONTINUOUS
10
199.25
20
-84.7749999999999915
11
199.1543289999999899
21
-84.7559699999999907
0
LINE
8
BLACK
6
CONTINUOUS
10
199.1543289999999899
20
-84.7559699999999907
11
199.0732229999999845
21
-84.7017769999999928
0
LINE
8
BLACK
6
CONTINUOUS
10
199.0732229999999845
20
-84.7017769999999928
11
199.0190299999999866
21
-84.6206710000000015
0
LINE
8
BLACK
6
CONTINUOUS
10
199.0190299999999866
20
-84.6206710000000015
11
199.
21
-84.5249999999999915
0
LINE
8
BLACK
6
CONTINUOUS
10
199.
20
-84.5249999999999915
11
199.
21
-83.7749999999999915
0
LINE
8
BLACK
6
CONTINUOUS
10
199.
20
-83.7749999999999915
11
199.0190299999999866
21
-83.6793289999999956
0
LINE
8
BLACK
6
CONTINUOUS
10
199.0190299999999866
20
-83.6793289999999956
11
199.0732229999999845
21
-83.5982229999999902
0
LINE
8
BLACK
6
CONTINUOUS
10
199.0732229999999845
20
-83.5982229999999902
11
199.1543289999999899
21
-83.5440299999999922
0
LINE
8
BLACK
6
CONTINUOUS
10
199.1543289999999899
20
-83.5440299999999922
11
199.25
21
-83.5249999999999915
0
LINE
8
BLACK
6
CONTINUOUS
10
199.25
20
-83.5249999999999915
11
201.25
21
-83.5249999999999915
0
LINE
8
BLACK
6
CONTINUOUS
10
201.25
20
-83.5249999999999915
11
201.3456709999999816
21
-83.5440299999999922
0
LINE
8
BLACK
6
CONTINUOUS
10
166.45169199999998
20
-84.4754099999999966
11
164.6516919999999971
21
-84.4754099999999966
0
LINE
8
BLACK
6
CONTINUOUS
10
164.6516919999999971
20
-84.4754099999999966
11
164.6516919999999971
21
-83.2754099999999937
0
LINE
8
BLACK
6
CONTINUOUS
10
164.6516919999999971
20
-83.2754099999999937
11
166.45169199999998
21
-83.2754099999999937
0
LINE
8
BLACK
6
CONTINUOUS
10
166.45169199999998
20
-83.2754099999999937
11
166.45169199999998
21
-84.4754099999999966
0
LINE
8
BLACK
6
CONTINUOUS
10
188.6132199999999841
20
-82.7268899999999974
11
188.6943259999999896
21
-82.7810839999999928
0
LINE
8
BLACK
6
CONTINUOUS
10
188.6943259999999896
20
-82.7810839999999928
11
188.748519999999985
21
-82.8621899999999982
0
LINE
8
BLACK
6
CONTINUOUS
10
188.748519999999985
20
-82.8621899999999982
11
188.7675490000000025
21
-82.9578619999999916
0
LINE
8
BLACK
6
CONTINUOUS
10
188.7675490000000025
20
-82.9578619999999916
11
188.76755
21
-83.9578589999999991
0
LINE
8
BLACK
6
CONTINUOUS
10
188.76755
20
-83.9578589999999991
11
188.748519999999985
21
-84.053529999999995
0
LINE
8
BLACK
6
CONTINUOUS
10
188.748519999999985
20
-84.053529999999995
11
188.6943259999999896
21
-84.1346360000000004
0
LINE
8
BLACK
6
CONTINUOUS
10
188.6943259999999896
20
-84.1346360000000004
11
188.6132199999999841
21
-84.1888299999999958
0
LINE
8
BLACK
6
CONTINUOUS
10
188.6132199999999841
20
-84.1888299999999958
11
188.517548000000005
21
-84.2078589999999991
0
LINE
8
BLACK
6
CONTINUOUS
10
188.517548000000005
20
-84.2078589999999991
11
185.6175509999999917
21
-84.2078599999999966
0
LINE
8
BLACK
6
CONTINUOUS
10
185.6175509999999917
20
-84.2078599999999966
11
185.5218799999999817
21
-84.1888299999999958
0
LINE
8
BLACK
6
CONTINUOUS
10
185.5218799999999817
20
-84.1888299999999958
11
185.4407740000000047
21
-84.1346360000000004
0
LINE
8
BLACK
6
CONTINUOUS
10
185.4407740000000047
20
-84.1346360000000004
11
185.3865799999999808
21
-84.053529999999995
0
LINE
8
BLACK
6
CONTINUOUS
10
185.3865799999999808
20
-84.053529999999995
11
185.3675509999999917
21
-83.9578580000000017
0
LINE
8
BLACK
6
CONTINUOUS
10
185.3675509999999917
20
-83.9578580000000017
11
185.3675499999999943
21
-82.9578609999999941
0
LINE
8
BLACK
6
CONTINUOUS
10
185.3675499999999943
20
-82.9578609999999941
11
185.3865799999999808
21
-82.8621899999999982
0
LINE
8
BLACK
6
CONTINUOUS
10
185.3865799999999808
20
-82.8621899999999982
11
185.4407740000000047
21
-82.7810839999999928
0
LINE
8
BLACK
6
CONTINUOUS
10
185.4407740000000047
20
-82.7810839999999928
11
185.5218799999999817
21
-82.7268899999999974
0
LINE
8
BLACK
6
CONTINUOUS
10
185.5218799999999817
20
-82.7268899999999974
11
185.6175519999999892
21
-82.7078609999999941
0
LINE
8
BLACK
6
CONTINUOUS
10
185.6175519999999892
20
-82.7078609999999941
11
188.5175490000000025
21
-82.7078599999999966
0
LINE
8
BLACK
6
CONTINUOUS
10
188.5175490000000025
20
-82.7078599999999966
11
188.6132199999999841
21
-82.7268899999999974
0
LINE
8
BLACK
6
CONTINUOUS
10
166.1999999999999886
20
-81.8810000000000002
11
165.5999999999999943
21
-81.8810000000000002
0
LINE
8
BLACK
6
CONTINUOUS
10
165.5999999999999943
20
-81.8810000000000002
11
165.5999999999999943
21
-80.3310000000000031
0
LINE
8
BLACK
6
CONTINUOUS
10
165.5999999999999943
20
-80.3310000000000031
11
166.1999999999999886
21
-80.3310000000000031
0
LINE
8
BLACK
6
CONTINUOUS
10
166.1999999999999886
20
-80.3310000000000031
11
166.1999999999999886
21
-81.8810000000000002
0
LINE
8
BLACK
6
CONTINUOUS
10
167.1999999999999886
20
-81.8810000000000002
11
166.5999999999999943
21
-81.8810000000000002
0
LINE
8
BLACK
6
CONTINUOUS
10
166.5999999999999943
20
-81.8810000000000002
11
166.5999999999999943
21
-80.3310000000000031
0
LINE
8
BLACK
6
CONTINUOUS
10
166.5999999999999943
20
-80.3310000000000031
11
167.1999999999999886
21
-80.3310000000000031
0
LINE
8
BLACK
6
CONTINUOUS
10
167.1999999999999886
20
-80.3310000000000031
11
167.1999999999999886
21
-81.8810000000000002
0
LINE
8
BLACK
6
CONTINUOUS
10
168.1999999999999886
20
-81.8810000000000002
11
167.5999999999999943
21
-81.8810000000000002
0
LINE
8
BLACK
6
CONTINUOUS
10
167.5999999999999943
20
-81.8810000000000002
11
167.5999999999999943
21
-80.3310000000000031
0
LINE
8
BLACK
6
CONTINUOUS
10
167.5999999999999943
20
-80.3310000000000031
11
168.1999999999999886
21
-80.3310000000000031
0
LINE
8
BLACK
6
CONTINUOUS
10
168.1999999999999886
20
-80.3310000000000031
11
168.1999999999999886
21
-81.8810000000000002
0
LINE
8
BLACK
6
CONTINUOUS
10
169.1999999999999886
20
-81.8810000000000002
11
168.5999999999999943
21
-81.8810000000000002
0
LINE
8
BLACK
6
CONTINUOUS
10
168.5999999999999943
20
-81.8810000000000002
11
168.5999999999999943
21
-80.3310000000000031
0
LINE
8
BLACK
6
CONTINUOUS
10
168.5999999999999943
20
-80.3310000000000031
11
169.1999999999999886
21
-80.3310000000000031
0
LINE
8
BLACK
6
CONTINUOUS
10
169.1999999999999886
20
-80.3310000000000031
11
169.1999999999999886
21
-81.8810000000000002
0
LINE
8
BLACK
6
CONTINUOUS
10
165.1999999999999886
20
-78.1059999999999945
11
164.
21
-78.1059999999999945
0
LINE
8
BLACK
6
CONTINUOUS
10
164.
20
-78.1059999999999945
11
164.
21
-76.3059999999999974
0
LINE
8
BLACK
6
CONTINUOUS
10
164.
20
-76.3059999999999974
11
165.1999999999999886
21
-76.3059999999999974
0
LINE
8
BLACK
6
CONTINUOUS
10
165.1999999999999886
20
-76.3059999999999974
11
165.1999999999999886
21
-78.1059999999999945
0
LINE
8
BLACK
6
CONTINUOUS
10
170.7999999999999829
20
-78.1059999999999945
11
169.5999999999999943
21
-78.1059999999999945
0
LINE
8
BLACK
6
CONTINUOUS
10
169.5999999999999943
20
-78.1059999999999945
11
169.5999999999999943
21
-76.3059999999999974
0
LINE
8
BLACK
6
CONTINUOUS
10
169.5999999999999943
20
-76.3059999999999974
11
170.7999999999999829
21
-76.3059999999999974
0
LINE
8
BLACK
6
CONTINUOUS
10
170.7999999999999829
20
-76.3059999999999974
11
170.7999999999999829
21
-78.1059999999999945
  0
ENDSEC
  0
EOF
