  0
SECTION
  2
HEADER
  9
$ANGBASE
  50
0.0
  9
$ANGDIR
  70
1
  9
$MEASUREMENT
  70
1
  0
ENDSEC
  0
SECTION
  2
TABLES
  0
TABLE
  2
LTYPE
  70
4
  0
LTYPE
  5
40F
  2
CONTINUOUS
  70
0
  3
Solid line
  72
65
  73
0
  40
0.0
  0
LTYPE
  5
410
  2
DASHDOT
 70
0
  3
Dash Dot ____ _ ____ _
 72
65
 73
4
 40
2.0
 49
1.25
 49
-0.25
 49
0.25
 49
-0.25
  0
LTYPE
  5
411
  2
DASHED
 70
0
  3
Dashed __ __ __ __ __
 72
65
 73
2
 40
0.75
 49
0.5
 49
-0.25
  0
LTYPE
  5
43B
  2
DOTTED
 70
0
  3
Dotted .  .  .  .
 72
65
 73
2
 40
0.2
 49
0.0
 49
-0.2
  0
ENDTAB
  0
TABLE
  2
STYLE
  70
4
  0
STYLE
  2
KICAD
  70
0
  40
0
  41
1
  42
1
  50
0
  71
0
  3
isocp.shx
  0
STYLE
  2
KICADB
  70
0
  40
0
  41
1
  42
1
  50
0
  71
0
  3
isocp.shx
  0
STYLE
  2
KICADI
  70
0
  40
0
  41
1
  42
1
  50
15
  71
0
  3
isocp.shx
  0
STYLE
  2
KICADBI
  70
0
  40
0
  41
1
  42
1
  50
15
  71
0
  3
isocp.shx
  0
ENDTAB
  0
TABLE
  2
LAYER
  70
1
  0
LAYER
  2
BLACK
  70
0
  62
7
  6
CONTINUOUS
  0
ENDTAB
  0
ENDSEC
  0
SECTION
  2
ENTITIES
0
LINE
8
BLACK
6
CONTINUOUS
10
169.6148660000000064
20
-96.7192639999999955
11
169.6423340000000053
21
-96.7306419999999889
0
LINE
8
BLACK
6
CONTINUOUS
10
169.6423340000000053
20
-96.7306419999999889
11
169.6633579999999881
21
-96.7516660000000002
0
LINE
8
BLACK
6
CONTINUOUS
10
169.6633579999999881
20
-96.7516660000000002
11
169.6747359999999958
21
-96.7791339999999991
0
LINE
8
BLACK
6
CONTINUOUS
10
169.6747359999999958
20
-96.7791339999999991
11
169.6747359999999958
21
-96.8088659999999948
0
LINE
8
BLACK
6
CONTINUOUS
10
169.6747359999999958
20
-96.8088659999999948
11
169.6633579999999881
21
-96.8363339999999937
0
LINE
8
BLACK
6
CONTINUOUS
10
169.6633579999999881
20
-96.8363339999999937
11
169.6423340000000053
21
-96.8573579999999907
0
LINE
8
BLACK
6
CONTINUOUS
10
169.6423340000000053
20
-96.8573579999999907
11
169.6148660000000064
21
-96.8687359999999984
0
LINE
8
BLACK
6
CONTINUOUS
10
169.6148660000000064
20
-96.8687359999999984
11
169.5999999999999943
21
-96.870199999999997
0
LINE
8
BLACK
6
CONTINUOUS
10
169.5999999999999943
20
-96.870199999999997
11
165.4000000000000057
21
-96.870199999999997
0
LINE
8
BLACK
6
CONTINUOUS
10
165.4000000000000057
20
-96.870199999999997
11
165.3851339999999936
21
-96.8687359999999984
0
LINE
8
BLACK
6
CONTINUOUS
10
165.3851339999999936
20
-96.8687359999999984
11
165.3576659999999947
21
-96.8573579999999907
0
LINE
8
BLACK
6
CONTINUOUS
10
165.3576659999999947
20
-96.8573579999999907
11
165.3366419999999835
21
-96.8363339999999937
0
LINE
8
BLACK
6
CONTINUOUS
10
165.3366419999999835
20
-96.8363339999999937
11
165.3252640000000042
21
-96.8088659999999948
0
LINE
8
BLACK
6
CONTINUOUS
10
165.3252640000000042
20
-96.8088659999999948
11
165.3252640000000042
21
-96.7791339999999991
0
LINE
8
BLACK
6
CONTINUOUS
10
165.3252640000000042
20
-96.7791339999999991
11
165.3366419999999835
21
-96.7516660000000002
0
LINE
8
BLACK
6
CONTINUOUS
10
165.3366419999999835
20
-96.7516660000000002
11
165.3576659999999947
21
-96.7306419999999889
0
LINE
8
BLACK
6
CONTINUOUS
10
165.3576659999999947
20
-96.7306419999999889
11
165.3851339999999936
21
-96.7192639999999955
0
LINE
8
BLACK
6
CONTINUOUS
10
165.3851339999999936
20
-96.7192639999999955
11
165.4000000000000057
21
-96.7177999999999969
0
LINE
8
BLACK
6
CONTINUOUS
10
165.4000000000000057
20
-96.7177999999999969
11
169.5999999999999943
21
-96.7177999999999969
0
LINE
8
BLACK
6
CONTINUOUS
10
169.5999999999999943
20
-96.7177999999999969
11
169.6148660000000064
21
-96.7192639999999955
0
LINE
8
BLACK
6
CONTINUOUS
10
194.5905109999999922
20
-88.5124270000000024
11
194.6229830000000049
21
-88.5448990000000009
0
LINE
8
BLACK
6
CONTINUOUS
10
194.6229830000000049
20
-88.5448990000000009
11
194.6229830000000049
21
-88.5908209999999912
0
LINE
8
BLACK
6
CONTINUOUS
10
194.6229830000000049
20
-88.5908209999999912
11
194.5905109999999922
21
-88.6232929999999897
0
LINE
8
BLACK
6
CONTINUOUS
10
194.5905109999999922
20
-88.6232929999999897
11
194.5675499999999829
21
-88.6278599999999983
0
LINE
8
BLACK
6
CONTINUOUS
10
194.5675499999999829
20
-88.6278599999999983
11
191.7375499999999988
21
-88.6278599999999983
0
LINE
8
BLACK
6
CONTINUOUS
10
191.7375499999999988
20
-88.6278599999999983
11
191.7375499999999988
21
-89.7878599999999949
0
LINE
8
BLACK
6
CONTINUOUS
10
191.7375499999999988
20
-89.7878599999999949
11
193.2775499999999909
21
-89.7878599999999949
0
LINE
8
BLACK
6
CONTINUOUS
10
193.2775499999999909
20
-89.7878599999999949
11
193.3005110000000002
21
-89.7924269999999893
0
LINE
8
BLACK
6
CONTINUOUS
10
193.3005110000000002
20
-89.7924269999999893
11
193.3329829999999845
21
-89.824899000000002
0
LINE
8
BLACK
6
CONTINUOUS
10
193.3329829999999845
20
-89.824899000000002
11
193.3375499999999931
21
-89.8478599999999972
0
LINE
8
BLACK
6
CONTINUOUS
10
193.3375499999999931
20
-89.8478599999999972
11
193.3375499999999931
21
-90.8678599999999932
0
LINE
8
BLACK
6
CONTINUOUS
10
193.3375499999999931
20
-90.8678599999999932
11
193.3329829999999845
21
-90.8908210000000025
0
LINE
8
BLACK
6
CONTINUOUS
10
193.3329829999999845
20
-90.8908210000000025
11
193.3005110000000002
21
-90.923293000000001
0
LINE
8
BLACK
6
CONTINUOUS
10
193.3005110000000002
20
-90.923293000000001
11
193.2775499999999909
21
-90.9278599999999955
0
LINE
8
BLACK
6
CONTINUOUS
10
193.2775499999999909
20
-90.9278599999999955
11
189.0275499999999909
21
-90.9278599999999955
0
LINE
8
BLACK
6
CONTINUOUS
10
189.0275499999999909
20
-90.9278599999999955
11
189.0045889999999815
21
-90.923293000000001
0
LINE
8
BLACK
6
CONTINUOUS
10
189.0045889999999815
20
-90.923293000000001
11
188.9721169999999972
21
-90.8908210000000025
0
LINE
8
BLACK
6
CONTINUOUS
10
188.9721169999999972
20
-90.8908210000000025
11
188.9721169999999972
21
-90.8448989999999981
0
LINE
8
BLACK
6
CONTINUOUS
10
188.9721169999999972
20
-90.8448989999999981
11
189.0045889999999815
21
-90.8124269999999996
0
LINE
8
BLACK
6
CONTINUOUS
10
189.0045889999999815
20
-90.8124269999999996
11
189.0275499999999909
21
-90.8078599999999909
0
LINE
8
BLACK
6
CONTINUOUS
10
189.0275499999999909
20
-90.8078599999999909
11
193.2175499999999886
21
-90.8078599999999909
0
LINE
8
BLACK
6
CONTINUOUS
10
193.2175499999999886
20
-90.8078599999999909
11
193.2175499999999886
21
-89.9078599999999994
0
LINE
8
BLACK
6
CONTINUOUS
10
193.2175499999999886
20
-89.9078599999999994
11
191.6775499999999965
21
-89.9078599999999994
0
LINE
8
BLACK
6
CONTINUOUS
10
191.6775499999999965
20
-89.9078599999999994
11
191.6545889999999872
21
-89.9032929999999908
0
LINE
8
BLACK
6
CONTINUOUS
10
191.6545889999999872
20
-89.9032929999999908
11
191.6221170000000029
21
-89.8708209999999923
0
LINE
8
BLACK
6
CONTINUOUS
10
191.6221170000000029
20
-89.8708209999999923
11
191.6175499999999943
21
-89.8478599999999972
0
LINE
8
BLACK
6
CONTINUOUS
10
191.6175499999999943
20
-89.8478599999999972
11
191.6175499999999943
21
-88.567859999999996
0
LINE
8
BLACK
6
CONTINUOUS
10
191.6175499999999943
20
-88.567859999999996
11
191.6221170000000029
21
-88.5448990000000009
0
LINE
8
BLACK
6
CONTINUOUS
10
191.6221170000000029
20
-88.5448990000000009
11
191.6545889999999872
21
-88.5124270000000024
0
LINE
8
BLACK
6
CONTINUOUS
10
191.6545889999999872
20
-88.5124270000000024
11
191.6775499999999965
21
-88.5078599999999938
0
LINE
8
BLACK
6
CONTINUOUS
10
191.6775499999999965
20
-88.5078599999999938
11
194.5675499999999829
21
-88.5078599999999938
0
LINE
8
BLACK
6
CONTINUOUS
10
194.5675499999999829
20
-88.5078599999999938
11
194.5905109999999922
21
-88.5124270000000024
0
LINE
8
BLACK
6
CONTINUOUS
10
185.5129829999999913
20
-84.4448989999999924
11
185.51755
21
-84.4678600000000017
0
LINE
8
BLACK
6
CONTINUOUS
10
185.51755
20
-84.4678600000000017
11
185.51755
21
-89.1478599999999943
0
LINE
8
BLACK
6
CONTINUOUS
10
185.51755
20
-89.1478599999999943
11
185.5129829999999913
21
-89.1708209999999895
0
LINE
8
BLACK
6
CONTINUOUS
10
185.5129829999999913
20
-89.1708209999999895
11
185.4805109999999786
21
-89.2032930000000022
0
LINE
8
BLACK
6
CONTINUOUS
10
185.4805109999999786
20
-89.2032930000000022
11
185.4345889999999883
21
-89.2032930000000022
0
LINE
8
BLACK
6
CONTINUOUS
10
185.4345889999999883
20
-89.2032930000000022
11
185.4021170000000041
21
-89.1708209999999895
0
LINE
8
BLACK
6
CONTINUOUS
10
185.4021170000000041
20
-89.1708209999999895
11
185.3975499999999954
21
-89.1478599999999943
0
LINE
8
BLACK
6
CONTINUOUS
10
185.3975499999999954
20
-89.1478599999999943
11
185.3975499999999954
21
-84.4678600000000017
0
LINE
8
BLACK
6
CONTINUOUS
10
185.3975499999999954
20
-84.4678600000000017
11
185.4021170000000041
21
-84.4448989999999924
0
LINE
8
BLACK
6
CONTINUOUS
10
185.4021170000000041
20
-84.4448989999999924
11
185.4345889999999883
21
-84.4124269999999939
0
LINE
8
BLACK
6
CONTINUOUS
10
185.4345889999999883
20
-84.4124269999999939
11
185.4805109999999786
21
-84.4124269999999939
0
LINE
8
BLACK
6
CONTINUOUS
10
185.4805109999999786
20
-84.4124269999999939
11
185.5129829999999913
21
-84.4448989999999924
0
LINE
8
BLACK
6
CONTINUOUS
10
197.9603419999999971
20
-87.3395679999999999
11
197.9865169999999921
21
-87.3526559999999961
0
LINE
8
BLACK
6
CONTINUOUS
10
197.9865169999999921
20
-87.3526559999999961
11
198.0056899999999871
21
-87.3747630000000015
0
LINE
8
BLACK
6
CONTINUOUS
10
198.0056899999999871
20
-87.3747630000000015
11
198.0149439999999856
21
-87.4025249999999971
0
LINE
8
BLACK
6
CONTINUOUS
10
198.0149439999999856
20
-87.4025249999999971
11
198.0128699999999924
21
-87.431714999999997
0
LINE
8
BLACK
6
CONTINUOUS
10
198.0128699999999924
20
-87.431714999999997
11
198.007614999999987
21
-87.4454459999999898
0
LINE
8
BLACK
6
CONTINUOUS
10
198.007614999999987
20
-87.4454459999999898
11
197.9599959999999896
21
-87.5406839999999988
0
LINE
8
BLACK
6
CONTINUOUS
10
197.9599959999999896
20
-87.5406839999999988
11
197.9560329999999908
21
-87.5469779999999957
0
LINE
8
BLACK
6
CONTINUOUS
10
197.9560329999999908
20
-87.5469779999999957
11
197.9552750000000003
21
-87.5488110000000006
0
LINE
8
BLACK
6
CONTINUOUS
10
197.9552750000000003
20
-87.5488110000000006
11
197.9535829999999805
21
-87.5508719999999983
0
LINE
8
BLACK
6
CONTINUOUS
10
197.9535829999999805
20
-87.5508719999999983
11
197.952163999999982
21
-87.5531269999999893
0
LINE
8
BLACK
6
CONTINUOUS
10
197.952163999999982
20
-87.5531269999999893
11
197.9506669999999815
21
-87.5544249999999948
0
LINE
8
BLACK
6
CONTINUOUS
10
197.9506669999999815
20
-87.5544249999999948
11
197.9459469999999897
21
-87.5601759999999985
0
LINE
8
BLACK
6
CONTINUOUS
10
197.9459469999999897
20
-87.5601759999999985
11
197.8835039999999879
21
-87.6226190000000003
0
LINE
8
BLACK
6
CONTINUOUS
10
197.8835039999999879
20
-87.6226190000000003
11
198.5798189999999863
21
-87.6226190000000003
0
LINE
8
BLACK
6
CONTINUOUS
10
198.5798189999999863
20
-87.6226190000000003
11
198.5798189999999863
21
-87.4119049999999902
0
LINE
8
BLACK
6
CONTINUOUS
10
198.5798189999999863
20
-87.4119049999999902
11
198.5812599999999861
21
-87.3972729999999984
0
LINE
8
BLACK
6
CONTINUOUS
10
198.5812599999999861
20
-87.3972729999999984
11
198.592458999999991
21
-87.370237000000003
0
LINE
8
BLACK
6
CONTINUOUS
10
198.592458999999991
20
-87.370237000000003
11
198.6131509999999878
21
-87.349544999999992
0
LINE
8
BLACK
6
CONTINUOUS
10
198.6131509999999878
20
-87.349544999999992
11
198.6401869999999974
21
-87.3383460000000014
0
LINE
8
BLACK
6
CONTINUOUS
10
198.6401869999999974
20
-87.3383460000000014
11
198.6694509999999809
21
-87.3383460000000014
0
LINE
8
BLACK
6
CONTINUOUS
10
198.6694509999999809
20
-87.3383460000000014
11
198.6964869999999905
21
-87.349544999999992
0
LINE
8
BLACK
6
CONTINUOUS
10
198.6964869999999905
20
-87.349544999999992
11
198.7171789999999874
21
-87.370237000000003
0
LINE
8
BLACK
6
CONTINUOUS
10
198.7171789999999874
20
-87.370237000000003
11
198.7283779999999922
21
-87.3972729999999984
0
LINE
8
BLACK
6
CONTINUOUS
10
198.7283779999999922
20
-87.3972729999999984
11
198.729818999999992
21
-87.4119049999999902
0
LINE
8
BLACK
6
CONTINUOUS
10
198.729818999999992
20
-87.4119049999999902
11
198.729818999999992
21
-87.9833330000000018
0
LINE
8
BLACK
6
CONTINUOUS
10
198.729818999999992
20
-87.9833330000000018
11
198.7283779999999922
21
-87.9979649999999936
0
LINE
8
BLACK
6
CONTINUOUS
10
198.7283779999999922
20
-87.9979649999999936
11
198.7171789999999874
21
-88.0250009999999889
0
LINE
8
BLACK
6
CONTINUOUS
10
198.7171789999999874
20
-88.0250009999999889
11
198.6964869999999905
21
-88.045693
0
LINE
8
BLACK
6
CONTINUOUS
10
198.6964869999999905
20
-88.045693
11
198.6694509999999809
21
-88.0568919999999906
0
LINE
8
BLACK
6
CONTINUOUS
10
198.6694509999999809
20
-88.0568919999999906
11
198.6401869999999974
21
-88.0568919999999906
0
LINE
8
BLACK
6
CONTINUOUS
10
198.6401869999999974
20
-88.0568919999999906
11
198.6131509999999878
21
-88.045693
0
LINE
8
BLACK
6
CONTINUOUS
10
198.6131509999999878
20
-88.045693
11
198.592458999999991
21
-88.0250009999999889
0
LINE
8
BLACK
6
CONTINUOUS
10
198.592458999999991
20
-88.0250009999999889
11
198.5812599999999861
21
-87.9979649999999936
0
LINE
8
BLACK
6
CONTINUOUS
10
198.5812599999999861
20
-87.9979649999999936
11
198.5798189999999863
21
-87.9833330000000018
0
LINE
8
BLACK
6
CONTINUOUS
10
198.5798189999999863
20
-87.9833330000000018
11
198.5798189999999863
21
-87.7726189999999917
0
LINE
8
BLACK
6
CONTINUOUS
10
198.5798189999999863
20
-87.7726189999999917
11
197.6548190000000034
21
-87.7726189999999917
0
LINE
8
BLACK
6
CONTINUOUS
10
197.6548190000000034
20
-87.7726189999999917
11
197.6547659999999951
21
-87.7726129999999927
0
LINE
8
BLACK
6
CONTINUOUS
10
197.6547659999999951
20
-87.7726129999999927
11
197.6547400000000039
21
-87.7726189999999917
0
LINE
8
BLACK
6
CONTINUOUS
10
197.6547400000000039
20
-87.7726189999999917
11
197.6546629999999993
21
-87.7726029999999895
0
LINE
8
BLACK
6
CONTINUOUS
10
197.6546629999999993
20
-87.7726029999999895
11
197.6401869999999974
21
-87.7711779999999919
0
LINE
8
BLACK
6
CONTINUOUS
10
197.6401869999999974
20
-87.7711779999999919
11
197.6333259999999825
21
-87.7683359999999908
0
LINE
8
BLACK
6
CONTINUOUS
10
197.6333259999999825
20
-87.7683359999999908
11
197.6260460000000023
21
-87.7668800000000005
0
LINE
8
BLACK
6
CONTINUOUS
10
197.6260460000000023
20
-87.7668800000000005
11
197.6199399999999855
21
-87.7627909999999929
0
LINE
8
BLACK
6
CONTINUOUS
10
197.6199399999999855
20
-87.7627909999999929
11
197.6131509999999878
21
-87.7599790000000013
0
LINE
8
BLACK
6
CONTINUOUS
10
197.6131509999999878
20
-87.7599790000000013
11
197.6079000000000008
21
-87.7547280000000001
0
LINE
8
BLACK
6
CONTINUOUS
10
197.6079000000000008
20
-87.7547280000000001
11
197.6017310000000009
21
-87.7505969999999991
0
LINE
8
BLACK
6
CONTINUOUS
10
197.6017310000000009
20
-87.7505969999999991
11
197.5976539999999773
21
-87.7444819999999908
0
LINE
8
BLACK
6
CONTINUOUS
10
197.5976539999999773
20
-87.7444819999999908
11
197.592458999999991
21
-87.7392869999999903
0
LINE
8
BLACK
6
CONTINUOUS
10
197.592458999999991
20
-87.7392869999999903
11
197.5896170000000041
21
-87.7324259999999896
0
LINE
8
BLACK
6
CONTINUOUS
10
197.5896170000000041
20
-87.7324259999999896
11
197.5854980000000012
21
-87.7262479999999982
0
LINE
8
BLACK
6
CONTINUOUS
10
197.5854980000000012
20
-87.7262479999999982
11
197.5840719999999919
21
-87.7190389999999951
0
LINE
8
BLACK
6
CONTINUOUS
10
197.5840719999999919
20
-87.7190389999999951
11
197.5812599999999861
21
-87.7122509999999949
0
LINE
8
BLACK
6
CONTINUOUS
10
197.5812599999999861
20
-87.7122509999999949
11
197.5812599999999861
21
-87.7048240000000021
0
LINE
8
BLACK
6
CONTINUOUS
10
197.5812599999999861
20
-87.7048240000000021
11
197.5798189999999863
21
-87.6975399999999894
0
LINE
8
BLACK
6
CONTINUOUS
10
197.5798189999999863
20
-87.6975399999999894
11
197.5812599999999861
21
-87.6903349999999904
0
LINE
8
BLACK
6
CONTINUOUS
10
197.5812599999999861
20
-87.6903349999999904
11
197.5812599999999861
21
-87.6829869999999971
0
LINE
8
BLACK
6
CONTINUOUS
10
197.5812599999999861
20
-87.6829869999999971
11
197.584101000000004
21
-87.6761259999999965
0
LINE
8
BLACK
6
CONTINUOUS
10
197.584101000000004
20
-87.6761259999999965
11
197.5855579999999918
21
-87.6688460000000021
0
LINE
8
BLACK
6
CONTINUOUS
10
197.5855579999999918
20
-87.6688460000000021
11
197.5896459999999877
21
-87.6627399999999994
0
LINE
8
BLACK
6
CONTINUOUS
10
197.5896459999999877
20
-87.6627399999999994
11
197.592458999999991
21
-87.6559510000000017
0
LINE
8
BLACK
6
CONTINUOUS
10
197.592458999999991
20
-87.6559510000000017
11
197.5977089999999805
21
-87.6507000000000005
0
LINE
8
BLACK
6
CONTINUOUS
10
197.5977089999999805
20
-87.6507000000000005
11
197.601840999999979
21
-87.6445310000000006
0
LINE
8
BLACK
6
CONTINUOUS
10
197.601840999999979
20
-87.6445310000000006
11
197.613098999999977
21
-87.6353099999999898
0
LINE
8
BLACK
6
CONTINUOUS
10
197.613098999999977
20
-87.6353099999999898
11
197.6131509999999878
21
-87.6352589999999907
0
LINE
8
BLACK
6
CONTINUOUS
10
197.6131509999999878
20
-87.6352589999999907
11
197.6131729999999891
21
-87.6352490000000017
0
LINE
8
BLACK
6
CONTINUOUS
10
197.6131729999999891
20
-87.6352490000000017
11
197.6132159999999942
21
-87.6352150000000023
0
LINE
8
BLACK
6
CONTINUOUS
10
197.6132159999999942
20
-87.6352150000000023
11
197.7498939999999834
21
-87.5440959999999961
0
LINE
8
BLACK
6
CONTINUOUS
10
197.7498939999999834
20
-87.5440959999999961
11
197.8312750000000051
21
-87.4627160000000003
0
LINE
8
BLACK
6
CONTINUOUS
10
197.8312750000000051
20
-87.4627160000000003
11
197.8734509999999887
21
-87.3783639999999906
0
LINE
8
BLACK
6
CONTINUOUS
10
197.8734509999999887
20
-87.3783639999999906
11
197.8812829999999963
21
-87.3659210000000002
0
LINE
8
BLACK
6
CONTINUOUS
10
197.8812829999999963
20
-87.3659210000000002
11
197.9033909999999992
21
-87.346747999999991
0
LINE
8
BLACK
6
CONTINUOUS
10
197.9033909999999992
20
-87.346747999999991
11
197.9311519999999973
21
-87.3374939999999924
0
LINE
8
BLACK
6
CONTINUOUS
10
197.9311519999999973
20
-87.3374939999999924
11
197.9603419999999971
21
-87.3395679999999999
0
LINE
8
BLACK
6
CONTINUOUS
10
195.52789199999998
20
-86.8307609999999954
11
195.5540670000000034
21
-86.8438489999999916
0
LINE
8
BLACK
6
CONTINUOUS
10
195.5540670000000034
20
-86.8438489999999916
11
195.5732399999999984
21
-86.8659559999999971
0
LINE
8
BLACK
6
CONTINUOUS
10
195.5732399999999984
20
-86.8659559999999971
11
195.582493999999997
21
-86.8937179999999927
0
LINE
8
BLACK
6
CONTINUOUS
10
195.582493999999997
20
-86.8937179999999927
11
195.5804200000000037
21
-86.9229079999999925
0
LINE
8
BLACK
6
CONTINUOUS
10
195.5804200000000037
20
-86.9229079999999925
11
195.5751649999999984
21
-86.9366389999999996
0
LINE
8
BLACK
6
CONTINUOUS
10
195.5751649999999984
20
-86.9366389999999996
11
195.527546000000001
21
-87.0318769999999944
0
LINE
8
BLACK
6
CONTINUOUS
10
195.527546000000001
20
-87.0318769999999944
11
195.5235830000000021
21
-87.0381709999999913
0
LINE
8
BLACK
6
CONTINUOUS
10
195.5235830000000021
20
-87.0381709999999913
11
195.5228249999999832
21
-87.0400039999999962
0
LINE
8
BLACK
6
CONTINUOUS
10
195.5228249999999832
20
-87.0400039999999962
11
195.5211329999999919
21
-87.0420649999999938
0
LINE
8
BLACK
6
CONTINUOUS
10
195.5211329999999919
20
-87.0420649999999938
11
195.5197139999999933
21
-87.044319999999999
0
LINE
8
BLACK
6
CONTINUOUS
10
195.5197139999999933
20
-87.044319999999999
11
195.5182169999999928
21
-87.0456179999999904
0
LINE
8
BLACK
6
CONTINUOUS
10
195.5182169999999928
20
-87.0456179999999904
11
195.513497000000001
21
-87.051368999999994
0
LINE
8
BLACK
6
CONTINUOUS
10
195.513497000000001
20
-87.051368999999994
11
195.4510539999999992
21
-87.1138119999999958
0
LINE
8
BLACK
6
CONTINUOUS
10
195.4510539999999992
20
-87.1138119999999958
11
196.1473689999999976
21
-87.1138119999999958
0
LINE
8
BLACK
6
CONTINUOUS
10
196.1473689999999976
20
-87.1138119999999958
11
196.1473689999999976
21
-86.903098
0
LINE
8
BLACK
6
CONTINUOUS
10
196.1473689999999976
20
-86.903098
11
196.1488099999999974
21
-86.888465999999994
0
LINE
8
BLACK
6
CONTINUOUS
10
196.1488099999999974
20
-86.888465999999994
11
196.1600090000000023
21
-86.8614299999999986
0
LINE
8
BLACK
6
CONTINUOUS
10
196.1600090000000023
20
-86.8614299999999986
11
196.1807009999999991
21
-86.8407380000000018
0
LINE
8
BLACK
6
CONTINUOUS
10
196.1807009999999991
20
-86.8407380000000018
11
196.2077369999999803
21
-86.8295389999999969
0
LINE
8
BLACK
6
CONTINUOUS
10
196.2077369999999803
20
-86.8295389999999969
11
196.2370009999999922
21
-86.8295389999999969
0
LINE
8
BLACK
6
CONTINUOUS
10
196.2370009999999922
20
-86.8295389999999969
11
196.2640370000000019
21
-86.8407380000000018
0
LINE
8
BLACK
6
CONTINUOUS
10
196.2640370000000019
20
-86.8407380000000018
11
196.2847289999999987
21
-86.8614299999999986
0
LINE
8
BLACK
6
CONTINUOUS
10
196.2847289999999987
20
-86.8614299999999986
11
196.2959280000000035
21
-86.888465999999994
0
LINE
8
BLACK
6
CONTINUOUS
10
196.2959280000000035
20
-86.888465999999994
11
196.2973690000000033
21
-86.903098
0
LINE
8
BLACK
6
CONTINUOUS
10
196.2973690000000033
20
-86.903098
11
196.2973690000000033
21
-87.4745259999999973
0
LINE
8
BLACK
6
CONTINUOUS
10
196.2973690000000033
20
-87.4745259999999973
11
196.2959280000000035
21
-87.4891579999999891
0
LINE
8
BLACK
6
CONTINUOUS
10
196.2959280000000035
20
-87.4891579999999891
11
196.2847289999999987
21
-87.5161939999999987
0
LINE
8
BLACK
6
CONTINUOUS
10
196.2847289999999987
20
-87.5161939999999987
11
196.2640370000000019
21
-87.5368859999999955
0
LINE
8
BLACK
6
CONTINUOUS
10
196.2640370000000019
20
-87.5368859999999955
11
196.2370009999999922
21
-87.5480850000000004
0
LINE
8
BLACK
6
CONTINUOUS
10
196.2370009999999922
20
-87.5480850000000004
11
196.2077369999999803
21
-87.5480850000000004
0
LINE
8
BLACK
6
CONTINUOUS
10
196.2077369999999803
20
-87.5480850000000004
11
196.1807009999999991
21
-87.5368859999999955
0
LINE
8
BLACK
6
CONTINUOUS
10
196.1807009999999991
20
-87.5368859999999955
11
196.1600090000000023
21
-87.5161939999999987
0
LINE
8
BLACK
6
CONTINUOUS
10
196.1600090000000023
20
-87.5161939999999987
11
196.1488099999999974
21
-87.4891579999999891
0
LINE
8
BLACK
6
CONTINUOUS
10
196.1488099999999974
20
-87.4891579999999891
11
196.1473689999999976
21
-87.4745259999999973
0
LINE
8
BLACK
6
CONTINUOUS
10
196.1473689999999976
20
-87.4745259999999973
11
196.1473689999999976
21
-87.2638120000000015
0
LINE
8
BLACK
6
CONTINUOUS
10
196.1473689999999976
20
-87.2638120000000015
11
195.2223689999999863
21
-87.2638120000000015
0
LINE
8
BLACK
6
CONTINUOUS
10
195.2223689999999863
20
-87.2638120000000015
11
195.222315999999978
21
-87.2638060000000024
0
LINE
8
BLACK
6
CONTINUOUS
10
195.222315999999978
20
-87.2638060000000024
11
195.2222899999999868
21
-87.2638120000000015
0
LINE
8
BLACK
6
CONTINUOUS
10
195.2222899999999868
20
-87.2638120000000015
11
195.2222129999999822
21
-87.2637959999999993
0
LINE
8
BLACK
6
CONTINUOUS
10
195.2222129999999822
20
-87.2637959999999993
11
195.2077369999999803
21
-87.2623710000000017
0
LINE
8
BLACK
6
CONTINUOUS
10
195.2077369999999803
20
-87.2623710000000017
11
195.2008759999999938
21
-87.2595290000000006
0
LINE
8
BLACK
6
CONTINUOUS
10
195.2008759999999938
20
-87.2595290000000006
11
195.1935959999999852
21
-87.258072999999996
0
LINE
8
BLACK
6
CONTINUOUS
10
195.1935959999999852
20
-87.258072999999996
11
195.1874899999999968
21
-87.2539840000000027
0
LINE
8
BLACK
6
CONTINUOUS
10
195.1874899999999968
20
-87.2539840000000027
11
195.1807009999999991
21
-87.2511719999999968
0
LINE
8
BLACK
6
CONTINUOUS
10
195.1807009999999991
20
-87.2511719999999968
11
195.1754499999999837
21
-87.2459209999999956
0
LINE
8
BLACK
6
CONTINUOUS
10
195.1754499999999837
20
-87.2459209999999956
11
195.1692809999999838
21
-87.2417899999999946
0
LINE
8
BLACK
6
CONTINUOUS
10
195.1692809999999838
20
-87.2417899999999946
11
195.1652039999999886
21
-87.2356750000000005
0
LINE
8
BLACK
6
CONTINUOUS
10
195.1652039999999886
20
-87.2356750000000005
11
195.1600090000000023
21
-87.23048
0
LINE
8
BLACK
6
CONTINUOUS
10
195.1600090000000023
20
-87.23048
11
195.157166999999987
21
-87.2236189999999993
0
LINE
8
BLACK
6
CONTINUOUS
10
195.157166999999987
20
-87.2236189999999993
11
195.1530479999999841
21
-87.2174409999999938
0
LINE
8
BLACK
6
CONTINUOUS
10
195.1530479999999841
20
-87.2174409999999938
11
195.1516220000000033
21
-87.2102319999999906
0
LINE
8
BLACK
6
CONTINUOUS
10
195.1516220000000033
20
-87.2102319999999906
11
195.1488099999999974
21
-87.2034439999999904
0
LINE
8
BLACK
6
CONTINUOUS
10
195.1488099999999974
20
-87.2034439999999904
11
195.1488099999999974
21
-87.1960169999999977
0
LINE
8
BLACK
6
CONTINUOUS
10
195.1488099999999974
20
-87.1960169999999977
11
195.1473689999999976
21
-87.1887329999999992
0
LINE
8
BLACK
6
CONTINUOUS
10
195.1473689999999976
20
-87.1887329999999992
11
195.1488099999999974
21
-87.1815280000000001
0
LINE
8
BLACK
6
CONTINUOUS
10
195.1488099999999974
20
-87.1815280000000001
11
195.1488099999999974
21
-87.1741799999999927
0
LINE
8
BLACK
6
CONTINUOUS
10
195.1488099999999974
20
-87.1741799999999927
11
195.1516509999999869
21
-87.167318999999992
0
LINE
8
BLACK
6
CONTINUOUS
10
195.1516509999999869
20
-87.167318999999992
11
195.1531080000000031
21
-87.1600389999999976
0
LINE
8
BLACK
6
CONTINUOUS
10
195.1531080000000031
20
-87.1600389999999976
11
195.157195999999999
21
-87.153932999999995
0
LINE
8
BLACK
6
CONTINUOUS
10
195.157195999999999
20
-87.153932999999995
11
195.1600090000000023
21
-87.1471439999999973
0
LINE
8
BLACK
6
CONTINUOUS
10
195.1600090000000023
20
-87.1471439999999973
11
195.1652589999999918
21
-87.1418929999999961
0
LINE
8
BLACK
6
CONTINUOUS
10
195.1652589999999918
20
-87.1418929999999961
11
195.1693909999999903
21
-87.1357239999999962
0
LINE
8
BLACK
6
CONTINUOUS
10
195.1693909999999903
20
-87.1357239999999962
11
195.1806489999999883
21
-87.1265029999999996
0
LINE
8
BLACK
6
CONTINUOUS
10
195.1806489999999883
20
-87.1265029999999996
11
195.1807009999999991
21
-87.1264520000000005
0
LINE
8
BLACK
6
CONTINUOUS
10
195.1807009999999991
20
-87.1264520000000005
11
195.1807230000000004
21
-87.1264419999999973
0
LINE
8
BLACK
6
CONTINUOUS
10
195.1807230000000004
20
-87.1264419999999973
11
195.1807659999999771
21
-87.1264079999999979
0
LINE
8
BLACK
6
CONTINUOUS
10
195.1807659999999771
20
-87.1264079999999979
11
195.3174439999999947
21
-87.0352889999999917
0
LINE
8
BLACK
6
CONTINUOUS
10
195.3174439999999947
20
-87.0352889999999917
11
195.398824999999988
21
-86.9539089999999959
0
LINE
8
BLACK
6
CONTINUOUS
10
195.398824999999988
20
-86.9539089999999959
11
195.441001
21
-86.8695570000000004
0
LINE
8
BLACK
6
CONTINUOUS
10
195.441001
20
-86.8695570000000004
11
195.4488329999999792
21
-86.8571139999999957
0
LINE
8
BLACK
6
CONTINUOUS
10
195.4488329999999792
20
-86.8571139999999957
11
195.4709409999999821
21
-86.8379410000000007
0
LINE
8
BLACK
6
CONTINUOUS
10
195.4709409999999821
20
-86.8379410000000007
11
195.4987019999999802
21
-86.8286870000000022
0
LINE
8
BLACK
6
CONTINUOUS
10
195.4987019999999802
20
-86.8286870000000022
11
195.52789199999998
21
-86.8307609999999954
0
LINE
8
BLACK
6
CONTINUOUS
10
197.672190999999998
20
-86.1484689999999915
11
198.672190999999998
21
-86.3865639999999928
0
LINE
8
BLACK
6
CONTINUOUS
10
198.672190999999998
20
-86.3865639999999928
11
198.6772090000000048
21
-86.3882929999999902
0
LINE
8
BLACK
6
CONTINUOUS
10
198.6772090000000048
20
-86.3882929999999902
11
198.6790129999999976
21
-86.3885329999999954
0
LINE
8
BLACK
6
CONTINUOUS
10
198.6790129999999976
20
-86.3885329999999954
11
198.6806419999999775
21
-86.3894760000000019
0
LINE
8
BLACK
6
CONTINUOUS
10
198.6806419999999775
20
-86.3894760000000019
11
198.6860910000000047
21
-86.3913539999999927
0
LINE
8
BLACK
6
CONTINUOUS
10
198.6860910000000047
20
-86.3913539999999927
11
198.6949139999999829
21
-86.3977390000000014
0
LINE
8
BLACK
6
CONTINUOUS
10
198.6949139999999829
20
-86.3977390000000014
11
198.7043369999999811
21
-86.4031949999999966
0
LINE
8
BLACK
6
CONTINUOUS
10
198.7043369999999811
20
-86.4031949999999966
11
198.7066769999999849
21
-86.406251999999995
0
LINE
8
BLACK
6
CONTINUOUS
10
198.7066769999999849
20
-86.406251999999995
11
198.7097979999999779
21
-86.4085109999999901
0
LINE
8
BLACK
6
CONTINUOUS
10
198.7097979999999779
20
-86.4085109999999901
11
198.715502999999984
21
-86.4177820000000025
0
LINE
8
BLACK
6
CONTINUOUS
10
198.715502999999984
20
-86.4177820000000025
11
198.722124999999977
21
-86.4264330000000029
0
LINE
8
BLACK
6
CONTINUOUS
10
198.722124999999977
20
-86.4264330000000029
11
198.7231179999999995
21
-86.4301559999999967
0
LINE
8
BLACK
6
CONTINUOUS
10
198.7231179999999995
20
-86.4301559999999967
11
198.7251339999999971
21
-86.4334329999999937
0
LINE
8
BLACK
6
CONTINUOUS
10
198.7251339999999971
20
-86.4334329999999937
11
198.7268559999999979
21
-86.4441759999999988
0
LINE
8
BLACK
6
CONTINUOUS
10
198.7268559999999979
20
-86.4441759999999988
11
198.7296649999999829
21
-86.4547079999999966
0
LINE
8
BLACK
6
CONTINUOUS
10
198.7296649999999829
20
-86.4547079999999966
11
198.7291569999999865
21
-86.458525999999992
0
LINE
8
BLACK
6
CONTINUOUS
10
198.7291569999999865
20
-86.458525999999992
11
198.7297669999999812
21
-86.4623279999999994
0
LINE
8
BLACK
6
CONTINUOUS
10
198.7297669999999812
20
-86.4623279999999994
11
198.7272439999999847
21
-86.4729229999999944
0
LINE
8
BLACK
6
CONTINUOUS
10
198.7272439999999847
20
-86.4729229999999944
11
198.7258099999999956
21
-86.4837169999999986
0
LINE
8
BLACK
6
CONTINUOUS
10
198.7258099999999956
20
-86.4837169999999986
11
198.7238809999999773
21
-86.4870480000000015
0
LINE
8
BLACK
6
CONTINUOUS
10
198.7238809999999773
20
-86.4870480000000015
11
198.7229889999999841
21
-86.4907960000000031
0
LINE
8
BLACK
6
CONTINUOUS
10
198.7229889999999841
20
-86.4907960000000031
11
198.7166019999999946
21
-86.4996199999999931
0
LINE
8
BLACK
6
CONTINUOUS
10
198.7166019999999946
20
-86.4996199999999931
11
198.7111479999999801
21
-86.5090419999999938
0
LINE
8
BLACK
6
CONTINUOUS
10
198.7111479999999801
20
-86.5090419999999938
11
198.7080899999999986
21
-86.5113819999999976
0
LINE
8
BLACK
6
CONTINUOUS
10
198.7080899999999986
20
-86.5113819999999976
11
198.7058319999999867
21
-86.5145029999999906
0
LINE
8
BLACK
6
CONTINUOUS
10
198.7058319999999867
20
-86.5145029999999906
11
198.6965589999999793
21
-86.5202079999999967
0
LINE
8
BLACK
6
CONTINUOUS
10
198.6965589999999793
20
-86.5202079999999967
11
198.6879109999999855
21
-86.5268289999999922
0
LINE
8
BLACK
6
CONTINUOUS
10
198.6879109999999855
20
-86.5268289999999922
11
198.6825089999999818
21
-86.5288539999999955
0
LINE
8
BLACK
6
CONTINUOUS
10
198.6825089999999818
20
-86.5288539999999955
11
198.680909999999983
21
-86.5298389999999955
0
LINE
8
BLACK
6
CONTINUOUS
10
198.680909999999983
20
-86.5298389999999955
11
198.6791189999999858
21
-86.5301259999999957
0
LINE
8
BLACK
6
CONTINUOUS
10
198.6791189999999858
20
-86.5301259999999957
11
198.6741439999999841
21
-86.5319920000000025
0
LINE
8
BLACK
6
CONTINUOUS
10
198.6741439999999841
20
-86.5319920000000025
11
198.2316129999999816
21
-86.6499999999999915
0
LINE
8
BLACK
6
CONTINUOUS
10
198.2316129999999816
20
-86.6499999999999915
11
198.6741439999999841
21
-86.7680079999999947
0
LINE
8
BLACK
6
CONTINUOUS
10
198.6741439999999841
20
-86.7680079999999947
11
198.6791189999999858
21
-86.7698729999999898
0
LINE
8
BLACK
6
CONTINUOUS
10
198.6791189999999858
20
-86.7698729999999898
11
198.680909999999983
21
-86.7701610000000016
0
LINE
8
BLACK
6
CONTINUOUS
10
198.680909999999983
20
-86.7701610000000016
11
198.6825089999999818
21
-86.77114499999999
0
LINE
8
BLACK
6
CONTINUOUS
10
198.6825089999999818
20
-86.77114499999999
11
198.6879109999999855
21
-86.7731709999999907
0
LINE
8
BLACK
6
CONTINUOUS
10
198.6879109999999855
20
-86.7731709999999907
11
198.6965589999999793
21
-86.779791000000003
0
LINE
8
BLACK
6
CONTINUOUS
10
198.6965589999999793
20
-86.779791000000003
11
198.7058319999999867
21
-86.7854969999999923
0
LINE
8
BLACK
6
CONTINUOUS
10
198.7058319999999867
20
-86.7854969999999923
11
198.7080899999999986
21
-86.7886170000000021
0
LINE
8
BLACK
6
CONTINUOUS
10
198.7080899999999986
20
-86.7886170000000021
11
198.7111479999999801
21
-86.7909579999999892
0
LINE
8
BLACK
6
CONTINUOUS
10
198.7111479999999801
20
-86.7909579999999892
11
198.7166049999999871
21
-86.8003829999999965
0
LINE
8
BLACK
6
CONTINUOUS
10
198.7166049999999871
20
-86.8003829999999965
11
198.7229879999999866
21
-86.809203999999994
0
LINE
8
BLACK
6
CONTINUOUS
10
198.7229879999999866
20
-86.809203999999994
11
198.7238789999999824
21
-86.812948999999989
0
LINE
8
BLACK
6
CONTINUOUS
10
198.7238789999999824
20
-86.812948999999989
11
198.7258099999999956
21
-86.8162829999999985
0
LINE
8
BLACK
6
CONTINUOUS
10
198.7258099999999956
20
-86.8162829999999985
11
198.7272439999999847
21
-86.8270799999999952
0
LINE
8
BLACK
6
CONTINUOUS
10
198.7272439999999847
20
-86.8270799999999952
11
198.7297669999999812
21
-86.8376719999999978
0
LINE
8
BLACK
6
CONTINUOUS
10
198.7297669999999812
20
-86.8376719999999978
11
198.7291569999999865
21
-86.8414729999999935
0
LINE
8
BLACK
6
CONTINUOUS
10
198.7291569999999865
20
-86.8414729999999935
11
198.7296649999999829
21
-86.8452920000000006
0
LINE
8
BLACK
6
CONTINUOUS
10
198.7296649999999829
20
-86.8452920000000006
11
198.7268559999999979
21
-86.8558230000000009
0
LINE
8
BLACK
6
CONTINUOUS
10
198.7268559999999979
20
-86.8558230000000009
11
198.7251339999999971
21
-86.8665669999999892
0
LINE
8
BLACK
6
CONTINUOUS
10
198.7251339999999971
20
-86.8665669999999892
11
198.7231179999999995
21
-86.869843000000003
0
LINE
8
BLACK
6
CONTINUOUS
10
198.7231179999999995
20
-86.869843000000003
11
198.722124999999977
21
-86.8735669999999942
0
LINE
8
BLACK
6
CONTINUOUS
10
198.722124999999977
20
-86.8735669999999942
11
198.715502999999984
21
-86.8822169999999971
0
LINE
8
BLACK
6
CONTINUOUS
10
198.715502999999984
20
-86.8822169999999971
11
198.7097979999999779
21
-86.8914889999999929
0
LINE
8
BLACK
6
CONTINUOUS
10
198.7097979999999779
20
-86.8914889999999929
11
198.7066769999999849
21
-86.8937469999999905
0
LINE
8
BLACK
6
CONTINUOUS
10
198.7066769999999849
20
-86.8937469999999905
11
198.7043369999999811
21
-86.8968050000000005
0
LINE
8
BLACK
6
CONTINUOUS
10
198.7043369999999811
20
-86.8968050000000005
11
198.6949139999999829
21
-86.9022599999999983
0
LINE
8
BLACK
6
CONTINUOUS
10
198.6949139999999829
20
-86.9022599999999983
11
198.6860910000000047
21
-86.9086459999999903
0
LINE
8
BLACK
6
CONTINUOUS
10
198.6860910000000047
20
-86.9086459999999903
11
198.6806419999999775
21
-86.9105229999999978
0
LINE
8
BLACK
6
CONTINUOUS
10
198.6806419999999775
20
-86.9105229999999978
11
198.6790129999999976
21
-86.9114670000000018
0
LINE
8
BLACK
6
CONTINUOUS
10
198.6790129999999976
20
-86.9114670000000018
11
198.6772079999999789
21
-86.9117059999999952
0
LINE
8
BLACK
6
CONTINUOUS
10
198.6772079999999789
20
-86.9117059999999952
11
198.6721900000000005
21
-86.9134359999999901
0
LINE
8
BLACK
6
CONTINUOUS
10
198.6721900000000005
20
-86.9134359999999901
11
197.672190999999998
21
-87.1515320000000031
0
LINE
8
BLACK
6
CONTINUOUS
10
197.672190999999998
20
-87.1515320000000031
11
197.657623000000001
21
-87.1535200000000003
0
LINE
8
BLACK
6
CONTINUOUS
10
197.657623000000001
20
-87.1535200000000003
11
197.6287279999999953
21
-87.148887000000002
0
LINE
8
BLACK
6
CONTINUOUS
10
197.6287279999999953
20
-87.148887000000002
11
197.6038059999999916
21
-87.1335509999999971
0
LINE
8
BLACK
6
CONTINUOUS
10
197.6038059999999916
20
-87.1335509999999971
11
197.5866489999999942
21
-87.1098439999999954
0
LINE
8
BLACK
6
CONTINUOUS
10
197.5866489999999942
20
-87.1098439999999954
11
197.5798709999999971
21
-87.0813759999999917
0
LINE
8
BLACK
6
CONTINUOUS
10
197.5798709999999971
20
-87.0813759999999917
11
197.5845039999999813
21
-87.0524810000000002
0
LINE
8
BLACK
6
CONTINUOUS
10
197.5845039999999813
20
-87.0524810000000002
11
197.5998400000000004
21
-87.0275589999999966
0
LINE
8
BLACK
6
CONTINUOUS
10
197.5998400000000004
20
-87.0275589999999966
11
197.6235470000000021
21
-87.0104019999999991
0
LINE
8
BLACK
6
CONTINUOUS
10
197.6235470000000021
20
-87.0104019999999991
11
197.6374469999999803
21
-87.0056119999999993
0
LINE
8
BLACK
6
CONTINUOUS
10
197.6374469999999803
20
-87.0056119999999993
11
198.3483029999999872
21
-86.8363590000000016
0
LINE
8
BLACK
6
CONTINUOUS
10
198.3483029999999872
20
-86.8363590000000016
11
197.9212079999999787
21
-86.7224679999999921
0
LINE
8
BLACK
6
CONTINUOUS
10
197.9212079999999787
20
-86.7224679999999921
11
197.9177799999999934
21
-86.7211819999999989
0
LINE
8
BLACK
6
CONTINUOUS
10
197.9177799999999934
20
-86.7211819999999989
11
197.9163399999999911
21
-86.7209909999999979
0
LINE
8
BLACK
6
CONTINUOUS
10
197.9163399999999911
20
-86.7209909999999979
11
197.9146289999999908
21
-86.7199999999999989
0
LINE
8
BLACK
6
CONTINUOUS
10
197.9146289999999908
20
-86.7199999999999989
11
197.9074420000000032
21
-86.7173049999999961
0
LINE
8
BLACK
6
CONTINUOUS
10
197.9074420000000032
20
-86.7173049999999961
11
197.899581999999981
21
-86.7112889999999936
0
LINE
8
BLACK
6
CONTINUOUS
10
197.899581999999981
20
-86.7112889999999936
11
197.8910149999999817
21
-86.7063289999999967
0
LINE
8
BLACK
6
CONTINUOUS
10
197.8910149999999817
20
-86.7063289999999967
11
197.8880609999999933
21
-86.7024710000000027
0
LINE
8
BLACK
6
CONTINUOUS
10
197.8880609999999933
20
-86.7024710000000027
11
197.8842039999999827
21
-86.6995179999999976
0
LINE
8
BLACK
6
CONTINUOUS
10
197.8842039999999827
20
-86.6995179999999976
11
197.8792430000000024
21
-86.6909500000000008
0
LINE
8
BLACK
6
CONTINUOUS
10
197.8792430000000024
20
-86.6909500000000008
11
197.8732279999999832
21
-86.6830909999999903
0
LINE
8
BLACK
6
CONTINUOUS
10
197.8732279999999832
20
-86.6830909999999903
11
197.8719759999999894
21
-86.6783980000000014
0
LINE
8
BLACK
6
CONTINUOUS
10
197.8719759999999894
20
-86.6783980000000014
11
197.8695419999999956
21
-86.6741930000000025
0
LINE
8
BLACK
6
CONTINUOUS
10
197.8695419999999956
20
-86.6741930000000025
11
197.8682369999999935
21
-86.6643770000000018
0
LINE
8
BLACK
6
CONTINUOUS
10
197.8682369999999935
20
-86.6643770000000018
11
197.8656879999999774
21
-86.6548149999999993
0
LINE
8
BLACK
6
CONTINUOUS
10
197.8656879999999774
20
-86.6548149999999993
11
197.8663269999999841
21
-86.6499999999999915
0
LINE
8
BLACK
6
CONTINUOUS
10
197.8663269999999841
20
-86.6499999999999915
11
197.8656879999999774
21
-86.6451849999999979
0
LINE
8
BLACK
6
CONTINUOUS
10
197.8656879999999774
20
-86.6451849999999979
11
197.8682369999999935
21
-86.6356219999999979
0
LINE
8
BLACK
6
CONTINUOUS
10
197.8682369999999935
20
-86.6356219999999979
11
197.8695419999999956
21
-86.6258069999999947
0
LINE
8
BLACK
6
CONTINUOUS
10
197.8695419999999956
20
-86.6258069999999947
11
197.8719759999999894
21
-86.6216009999999983
0
LINE
8
BLACK
6
CONTINUOUS
10
197.8719759999999894
20
-86.6216009999999983
11
197.8732279999999832
21
-86.6169089999999926
0
LINE
8
BLACK
6
CONTINUOUS
10
197.8732279999999832
20
-86.6169089999999926
11
197.8792430000000024
21
-86.6090489999999988
0
LINE
8
BLACK
6
CONTINUOUS
10
197.8792430000000024
20
-86.6090489999999988
11
197.8842039999999827
21
-86.6004819999999995
0
LINE
8
BLACK
6
CONTINUOUS
10
197.8842039999999827
20
-86.6004819999999995
11
197.8880609999999933
21
-86.597527999999997
0
LINE
8
BLACK
6
CONTINUOUS
10
197.8880609999999933
20
-86.597527999999997
11
197.8910149999999817
21
-86.5936710000000005
0
LINE
8
BLACK
6
CONTINUOUS
10
197.8910149999999817
20
-86.5936710000000005
11
197.899581999999981
21
-86.5887099999999919
0
LINE
8
BLACK
6
CONTINUOUS
10
197.899581999999981
20
-86.5887099999999919
11
197.9074420000000032
21
-86.5826950000000011
0
LINE
8
BLACK
6
CONTINUOUS
10
197.9074420000000032
20
-86.5826950000000011
11
197.9146289999999908
21
-86.5799990000000008
0
LINE
8
BLACK
6
CONTINUOUS
10
197.9146289999999908
20
-86.5799990000000008
11
197.9163399999999911
21
-86.5790089999999992
0
LINE
8
BLACK
6
CONTINUOUS
10
197.9163399999999911
20
-86.5790089999999992
11
197.9177799999999934
21
-86.5788170000000008
0
LINE
8
BLACK
6
CONTINUOUS
10
197.9177799999999934
20
-86.5788170000000008
11
197.9212079999999787
21
-86.5775319999999908
0
LINE
8
BLACK
6
CONTINUOUS
10
197.9212079999999787
20
-86.5775319999999908
11
198.3483029999999872
21
-86.4636399999999981
0
LINE
8
BLACK
6
CONTINUOUS
10
198.3483029999999872
20
-86.4636399999999981
11
197.6374469999999803
21
-86.2943889999999953
0
LINE
8
BLACK
6
CONTINUOUS
10
197.6374469999999803
20
-86.2943889999999953
11
197.6235470000000021
21
-86.2895989999999955
0
LINE
8
BLACK
6
CONTINUOUS
10
197.6235470000000021
20
-86.2895989999999955
11
197.5998400000000004
21
-86.2724419999999981
0
LINE
8
BLACK
6
CONTINUOUS
10
197.5998400000000004
20
-86.2724419999999981
11
197.5845039999999813
21
-86.2475199999999944
0
LINE
8
BLACK
6
CONTINUOUS
10
197.5845039999999813
20
-86.2475199999999944
11
197.5798709999999971
21
-86.218625000000003
0
LINE
8
BLACK
6
CONTINUOUS
10
197.5798709999999971
20
-86.218625000000003
11
197.5866489999999942
21
-86.1901569999999992
0
LINE
8
BLACK
6
CONTINUOUS
10
197.5866489999999942
20
-86.1901569999999992
11
197.6038059999999916
21
-86.1664499999999975
0
LINE
8
BLACK
6
CONTINUOUS
10
197.6038059999999916
20
-86.1664499999999975
11
197.6287279999999953
21
-86.1511139999999926
0
LINE
8
BLACK
6
CONTINUOUS
10
197.6287279999999953
20
-86.1511139999999926
11
197.657623000000001
21
-86.1464809999999943
0
LINE
8
BLACK
6
CONTINUOUS
10
197.657623000000001
20
-86.1464809999999943
11
197.672190999999998
21
-86.1484689999999915
0
LINE
8
BLACK
6
CONTINUOUS
10
196.2640370000000019
20
-86.0312139999999914
11
196.2847289999999987
21
-86.0519060000000025
0
LINE
8
BLACK
6
CONTINUOUS
10
196.2847289999999987
20
-86.0519060000000025
11
196.2959280000000035
21
-86.0789419999999978
0
LINE
8
BLACK
6
CONTINUOUS
10
196.2959280000000035
20
-86.0789419999999978
11
196.2973690000000033
21
-86.0935739999999896
0
LINE
8
BLACK
6
CONTINUOUS
10
196.2973690000000033
20
-86.0935739999999896
11
196.2973690000000033
21
-86.1888119999999986
0
LINE
8
BLACK
6
CONTINUOUS
10
196.2973690000000033
20
-86.1888119999999986
11
196.296638999999999
21
-86.1962180000000018
0
LINE
8
BLACK
6
CONTINUOUS
10
196.296638999999999
20
-86.1962180000000018
11
196.2967799999999841
21
-86.1981929999999892
0
LINE
8
BLACK
6
CONTINUOUS
10
196.2967799999999841
20
-86.1981929999999892
11
196.2961889999999983
21
-86.2007899999999978
0
LINE
8
BLACK
6
CONTINUOUS
10
196.2961889999999983
20
-86.2007899999999978
11
196.2959280000000035
21
-86.2034439999999904
0
LINE
8
BLACK
6
CONTINUOUS
10
196.2959280000000035
20
-86.2034439999999904
11
196.2951689999999871
21
-86.2052740000000028
0
LINE
8
BLACK
6
CONTINUOUS
10
196.2951689999999871
20
-86.2052740000000028
11
196.2935200000000009
21
-86.212530000000001
0
LINE
8
BLACK
6
CONTINUOUS
10
196.2935200000000009
20
-86.212530000000001
11
196.2459010000000035
21
-86.3553859999999958
0
LINE
8
BLACK
6
CONTINUOUS
10
196.2459010000000035
20
-86.3553859999999958
11
196.2399069999999881
21
-86.3688119999999913
0
LINE
8
BLACK
6
CONTINUOUS
10
196.2399069999999881
20
-86.3688119999999913
11
196.2381419999999821
21
-86.3708460000000002
0
LINE
8
BLACK
6
CONTINUOUS
10
196.2381419999999821
20
-86.3708460000000002
11
196.2371109999999987
21
-86.3733369999999923
0
LINE
8
BLACK
6
CONTINUOUS
10
196.2371109999999987
20
-86.3733369999999923
11
196.2277829999999881
21
-86.3847019999999901
0
LINE
8
BLACK
6
CONTINUOUS
10
196.2277829999999881
20
-86.3847019999999901
11
196.1325439999999958
21
-86.4799399999999991
0
LINE
8
BLACK
6
CONTINUOUS
10
196.1325439999999958
20
-86.4799399999999991
11
196.1211779999999862
21
-86.4892679999999956
0
LINE
8
BLACK
6
CONTINUOUS
10
196.1211779999999862
20
-86.4892679999999956
11
196.1186869999999942
21
-86.4902989999999932
0
LINE
8
BLACK
6
CONTINUOUS
10
196.1186869999999942
20
-86.4902989999999932
11
196.1166529999999852
21
-86.4920639999999992
0
LINE
8
BLACK
6
CONTINUOUS
10
196.1166529999999852
20
-86.4920639999999992
11
196.1032280000000014
21
-86.4980580000000003
0
LINE
8
BLACK
6
CONTINUOUS
10
196.1032280000000014
20
-86.4980580000000003
11
195.9603709999999808
21
-86.5456769999999977
0
LINE
8
BLACK
6
CONTINUOUS
10
195.9603709999999808
20
-86.5456769999999977
11
195.9531169999999918
21
-86.5473259999999982
0
LINE
8
BLACK
6
CONTINUOUS
10
195.9531169999999918
20
-86.5473259999999982
11
195.9512859999999819
21
-86.5480850000000004
0
LINE
8
BLACK
6
CONTINUOUS
10
195.9512859999999819
20
-86.5480850000000004
11
195.9486309999999776
21
-86.5483459999999951
0
LINE
8
BLACK
6
CONTINUOUS
10
195.9486309999999776
20
-86.5483459999999951
11
195.9460339999999974
21
-86.5489369999999951
0
LINE
8
BLACK
6
CONTINUOUS
10
195.9460339999999974
20
-86.5489369999999951
11
195.9440589999999816
21
-86.5487959999999958
0
LINE
8
BLACK
6
CONTINUOUS
10
195.9440589999999816
20
-86.5487959999999958
11
195.9366540000000043
21
-86.5495260000000002
0
LINE
8
BLACK
6
CONTINUOUS
10
195.9366540000000043
20
-86.5495260000000002
11
195.2223689999999863
21
-86.5495260000000002
0
LINE
8
BLACK
6
CONTINUOUS
10
195.2223689999999863
20
-86.5495260000000002
11
195.2077369999999803
21
-86.5480850000000004
0
LINE
8
BLACK
6
CONTINUOUS
10
195.2077369999999803
20
-86.5480850000000004
11
195.1807009999999991
21
-86.5368859999999955
0
LINE
8
BLACK
6
CONTINUOUS
10
195.1807009999999991
20
-86.5368859999999955
11
195.1600090000000023
21
-86.5161939999999987
0
LINE
8
BLACK
6
CONTINUOUS
10
195.1600090000000023
20
-86.5161939999999987
11
195.1488099999999974
21
-86.4891579999999891
0
LINE
8
BLACK
6
CONTINUOUS
10
195.1488099999999974
20
-86.4891579999999891
11
195.1488099999999974
21
-86.4598939999999914
0
LINE
8
BLACK
6
CONTINUOUS
10
195.1488099999999974
20
-86.4598939999999914
11
195.1600090000000023
21
-86.432857999999996
0
LINE
8
BLACK
6
CONTINUOUS
10
195.1600090000000023
20
-86.432857999999996
11
195.1807009999999991
21
-86.4121659999999991
0
LINE
8
BLACK
6
CONTINUOUS
10
195.1807009999999991
20
-86.4121659999999991
11
195.2077369999999803
21
-86.4009669999999943
0
LINE
8
BLACK
6
CONTINUOUS
10
195.2077369999999803
20
-86.4009669999999943
11
195.2223689999999863
21
-86.3995259999999945
0
LINE
8
BLACK
6
CONTINUOUS
10
195.2223689999999863
20
-86.3995259999999945
11
195.9244839999999783
21
-86.3995259999999945
0
LINE
8
BLACK
6
CONTINUOUS
10
195.9244839999999783
20
-86.3995259999999945
11
196.0389969999999948
21
-86.3613539999999915
0
LINE
8
BLACK
6
CONTINUOUS
10
196.0389969999999948
20
-86.3613539999999915
11
196.1091979999999921
21
-86.2911539999999917
0
LINE
8
BLACK
6
CONTINUOUS
10
196.1091979999999921
20
-86.2911539999999917
11
196.1473689999999976
21
-86.1766420000000011
0
LINE
8
BLACK
6
CONTINUOUS
10
196.1473689999999976
20
-86.1766420000000011
11
196.1473689999999976
21
-86.0935739999999896
0
LINE
8
BLACK
6
CONTINUOUS
10
196.1473689999999976
20
-86.0935739999999896
11
196.1488099999999974
21
-86.0789419999999978
0
LINE
8
BLACK
6
CONTINUOUS
10
196.1488099999999974
20
-86.0789419999999978
11
196.1600090000000023
21
-86.0519060000000025
0
LINE
8
BLACK
6
CONTINUOUS
10
196.1600090000000023
20
-86.0519060000000025
11
196.1807009999999991
21
-86.0312139999999914
0
LINE
8
BLACK
6
CONTINUOUS
10
196.1807009999999991
20
-86.0312139999999914
11
196.2077369999999803
21
-86.0200150000000008
0
LINE
8
BLACK
6
CONTINUOUS
10
196.2077369999999803
20
-86.0200150000000008
11
196.2370009999999922
21
-86.0200150000000008
0
LINE
8
BLACK
6
CONTINUOUS
10
196.2370009999999922
20
-86.0200150000000008
11
196.2640370000000019
21
-86.0312139999999914
0
LINE
8
BLACK
6
CONTINUOUS
10
197.9551649999999938
20
-85.2431079999999923
11
197.9576539999999909
21
-85.2441389999999899
0
LINE
8
BLACK
6
CONTINUOUS
10
197.9576539999999909
20
-85.2441389999999899
11
197.9603419999999971
21
-85.2443299999999908
0
LINE
8
BLACK
6
CONTINUOUS
10
197.9603419999999971
20
-85.2443299999999908
11
197.9740740000000017
21
-85.2495849999999962
0
LINE
8
BLACK
6
CONTINUOUS
10
197.9740740000000017
20
-85.2495849999999962
11
198.0693119999999965
21
-85.2972039999999936
0
LINE
8
BLACK
6
CONTINUOUS
10
198.0693119999999965
20
-85.2972039999999936
11
198.0756109999999808
21
-85.3011679999999899
0
LINE
8
BLACK
6
CONTINUOUS
10
198.0756109999999808
20
-85.3011679999999899
11
198.0774389999999983
21
-85.3019259999999946
0
LINE
8
BLACK
6
CONTINUOUS
10
198.0774389999999983
20
-85.3019259999999946
11
198.0794949999999801
21
-85.3036139999999961
0
LINE
8
BLACK
6
CONTINUOUS
10
198.0794949999999801
20
-85.3036139999999961
11
198.0817549999999869
21
-85.3050360000000012
0
LINE
8
BLACK
6
CONTINUOUS
10
198.0817549999999869
20
-85.3050360000000012
11
198.0830540000000042
21
-85.3065339999999992
0
LINE
8
BLACK
6
CONTINUOUS
10
198.0830540000000042
20
-85.3065339999999992
11
198.0888039999999819
21
-85.3112529999999936
0
LINE
8
BLACK
6
CONTINUOUS
10
198.0888039999999819
20
-85.3112529999999936
11
198.1364229999999793
21
-85.358871999999991
0
LINE
8
BLACK
6
CONTINUOUS
10
198.1364229999999793
20
-85.358871999999991
11
198.1411410000000046
21
-85.3646209999999996
0
LINE
8
BLACK
6
CONTINUOUS
10
198.1411410000000046
20
-85.3646209999999996
11
198.1426400000000001
21
-85.3659210000000002
0
LINE
8
BLACK
6
CONTINUOUS
10
198.1426400000000001
20
-85.3659210000000002
11
198.1440609999999936
21
-85.3681799999999953
0
LINE
8
BLACK
6
CONTINUOUS
10
198.1440609999999936
20
-85.3681799999999953
11
198.1457499999999925
21
-85.370237000000003
0
LINE
8
BLACK
6
CONTINUOUS
10
198.1457499999999925
20
-85.370237000000003
11
198.1465069999999855
21
-85.3720639999999946
0
LINE
8
BLACK
6
CONTINUOUS
10
198.1465069999999855
20
-85.3720639999999946
11
198.1504719999999793
21
-85.3783639999999906
0
LINE
8
BLACK
6
CONTINUOUS
10
198.1504719999999793
20
-85.3783639999999906
11
198.1980910000000051
21
-85.4736019999999996
0
LINE
8
BLACK
6
CONTINUOUS
10
198.1980910000000051
20
-85.4736019999999996
11
198.1984999999999957
21
-85.4746710000000007
0
LINE
8
BLACK
6
CONTINUOUS
10
198.1984999999999957
20
-85.4746710000000007
11
198.1988230000000044
21
-85.4751069999999942
0
LINE
8
BLACK
6
CONTINUOUS
10
198.1988230000000044
20
-85.4751069999999942
11
198.201014999999984
21
-85.4812429999999921
0
LINE
8
BLACK
6
CONTINUOUS
10
198.201014999999984
20
-85.4812429999999921
11
198.203345999999982
21
-85.4873329999999925
0
LINE
8
BLACK
6
CONTINUOUS
10
198.203345999999982
20
-85.4873329999999925
11
198.2033839999999998
21
-85.4878729999999933
0
LINE
8
BLACK
6
CONTINUOUS
10
198.2033839999999998
20
-85.4878729999999933
11
198.2037699999999916
21
-85.4889529999999951
0
LINE
8
BLACK
6
CONTINUOUS
10
198.2037699999999916
20
-85.4889529999999951
11
198.2493920000000003
21
-85.6714429999999965
0
LINE
8
BLACK
6
CONTINUOUS
10
198.2493920000000003
20
-85.6714429999999965
11
198.2878859999999861
21
-85.748429999999999
0
LINE
8
BLACK
6
CONTINUOUS
10
198.2878859999999861
20
-85.748429999999999
11
198.3182929999999828
21
-85.7788369999999958
0
LINE
8
BLACK
6
CONTINUOUS
10
198.3182929999999828
20
-85.7788369999999958
11
198.3868089999999995
21
-85.8130949999999899
0
LINE
8
BLACK
6
CONTINUOUS
10
198.3868089999999995
20
-85.8130949999999899
11
198.4466369999999813
21
-85.8130949999999899
0
LINE
8
BLACK
6
CONTINUOUS
10
198.4466369999999813
20
-85.8130949999999899
11
198.515152999999998
21
-85.7788359999999983
0
LINE
8
BLACK
6
CONTINUOUS
10
198.515152999999998
20
-85.7788359999999983
11
198.5455609999999922
21
-85.7484290000000016
0
LINE
8
BLACK
6
CONTINUOUS
10
198.5455609999999922
20
-85.7484290000000016
11
198.5798189999999863
21
-85.6799139999999966
0
LINE
8
BLACK
6
CONTINUOUS
10
198.5798189999999863
20
-85.6799139999999966
11
198.5798189999999863
21
-85.4716939999999994
0
LINE
8
BLACK
6
CONTINUOUS
10
198.5798189999999863
20
-85.4716939999999994
11
198.5360489999999913
21
-85.3403840000000002
0
LINE
8
BLACK
6
CONTINUOUS
10
198.5360489999999913
20
-85.3403840000000002
11
198.5327889999999798
21
-85.3260470000000026
0
LINE
8
BLACK
6
CONTINUOUS
10
198.5327889999999798
20
-85.3260470000000026
11
198.5348639999999989
21
-85.2968570000000028
0
LINE
8
BLACK
6
CONTINUOUS
10
198.5348639999999989
20
-85.2968570000000028
11
198.5479499999999859
21
-85.2706840000000028
0
LINE
8
BLACK
6
CONTINUOUS
10
198.5479499999999859
20
-85.2706840000000028
11
198.5700569999999914
21
-85.2515099999999961
0
LINE
8
BLACK
6
CONTINUOUS
10
198.5700569999999914
20
-85.2515099999999961
11
198.5978199999999845
21
-85.2422559999999976
0
LINE
8
BLACK
6
CONTINUOUS
10
198.5978199999999845
20
-85.2422559999999976
11
198.6270099999999843
21
-85.2443310000000025
0
LINE
8
BLACK
6
CONTINUOUS
10
198.6270099999999843
20
-85.2443310000000025
11
198.6531829999999843
21
-85.2574169999999896
0
LINE
8
BLACK
6
CONTINUOUS
10
198.6531829999999843
20
-85.2574169999999896
11
198.6723570000000052
21
-85.279523999999995
0
LINE
8
BLACK
6
CONTINUOUS
10
198.6723570000000052
20
-85.279523999999995
11
198.6783509999999922
21
-85.2929499999999905
0
LINE
8
BLACK
6
CONTINUOUS
10
198.6783509999999922
20
-85.2929499999999905
11
198.7259699999999896
21
-85.4358059999999995
0
LINE
8
BLACK
6
CONTINUOUS
10
198.7259699999999896
20
-85.4358059999999995
11
198.7276190000000042
21
-85.4430610000000001
0
LINE
8
BLACK
6
CONTINUOUS
10
198.7276190000000042
20
-85.4430610000000001
11
198.7283779999999922
21
-85.4448919999999958
0
LINE
8
BLACK
6
CONTINUOUS
10
198.7283779999999922
20
-85.4448919999999958
11
198.7286389999999869
21
-85.447544999999991
0
LINE
8
BLACK
6
CONTINUOUS
10
198.7286389999999869
20
-85.447544999999991
11
198.7292300000000012
21
-85.4501429999999971
0
LINE
8
BLACK
6
CONTINUOUS
10
198.7292300000000012
20
-85.4501429999999971
11
198.7290889999999877
21
-85.4521170000000012
0
LINE
8
BLACK
6
CONTINUOUS
10
198.7290889999999877
20
-85.4521170000000012
11
198.729818999999992
21
-85.4595240000000018
0
LINE
8
BLACK
6
CONTINUOUS
10
198.729818999999992
20
-85.4595240000000018
11
198.729818999999992
21
-85.6976190000000031
0
LINE
8
BLACK
6
CONTINUOUS
10
198.729818999999992
20
-85.6976190000000031
11
198.7283779999999922
21
-85.7122509999999949
0
LINE
8
BLACK
6
CONTINUOUS
10
198.7283779999999922
20
-85.7122509999999949
11
198.7273469999999804
21
-85.7147389999999945
0
LINE
8
BLACK
6
CONTINUOUS
10
198.7273469999999804
20
-85.7147389999999945
11
198.7271559999999795
21
-85.7174289999999957
0
LINE
8
BLACK
6
CONTINUOUS
10
198.7271559999999795
20
-85.7174289999999957
11
198.7219010000000026
21
-85.7311600000000027
0
LINE
8
BLACK
6
CONTINUOUS
10
198.7219010000000026
20
-85.7311600000000027
11
198.6742820000000052
21
-85.8263979999999975
0
LINE
8
BLACK
6
CONTINUOUS
10
198.6742820000000052
20
-85.8263979999999975
11
198.670316999999983
21
-85.832696999999996
0
LINE
8
BLACK
6
CONTINUOUS
10
198.670316999999983
20
-85.832696999999996
11
198.6695599999999899
21
-85.8345249999999993
0
LINE
8
BLACK
6
CONTINUOUS
10
198.6695599999999899
20
-85.8345249999999993
11
198.6678719999999885
21
-85.8365809999999954
0
LINE
8
BLACK
6
CONTINUOUS
10
198.6678719999999885
20
-85.8365809999999954
11
198.6664499999999975
21
-85.8388410000000022
0
LINE
8
BLACK
6
CONTINUOUS
10
198.6664499999999975
20
-85.8388410000000022
11
198.6649500000000046
21
-85.8401410000000027
0
LINE
8
BLACK
6
CONTINUOUS
10
198.6649500000000046
20
-85.8401410000000027
11
198.6602319999999793
21
-85.8458909999999946
0
LINE
8
BLACK
6
CONTINUOUS
10
198.6602319999999793
20
-85.8458909999999946
11
198.6126119999999844
21
-85.893509999999992
0
LINE
8
BLACK
6
CONTINUOUS
10
198.6126119999999844
20
-85.893509999999992
11
198.6068630000000041
21
-85.8982269999999914
0
LINE
8
BLACK
6
CONTINUOUS
10
198.6068630000000041
20
-85.8982269999999914
11
198.6055639999999869
21
-85.8997260000000011
0
LINE
8
BLACK
6
CONTINUOUS
10
198.6055639999999869
20
-85.8997260000000011
11
198.6033049999999776
21
-85.9011469999999946
0
LINE
8
BLACK
6
CONTINUOUS
10
198.6033049999999776
20
-85.9011469999999946
11
198.6012470000000008
21
-85.902836999999991
0
LINE
8
BLACK
6
CONTINUOUS
10
198.6012470000000008
20
-85.902836999999991
11
198.5994169999999883
21
-85.9035939999999982
0
LINE
8
BLACK
6
CONTINUOUS
10
198.5994169999999883
20
-85.9035939999999982
11
198.5931209999999965
21
-85.9075579999999945
0
LINE
8
BLACK
6
CONTINUOUS
10
198.5931209999999965
20
-85.9075579999999945
11
198.4978830000000016
21
-85.9551769999999919
0
LINE
8
BLACK
6
CONTINUOUS
10
198.4978830000000016
20
-85.9551769999999919
11
198.4841509999999971
21
-85.9604319999999973
0
LINE
8
BLACK
6
CONTINUOUS
10
198.4841509999999971
20
-85.9604319999999973
11
198.4814629999999909
21
-85.9606220000000008
0
LINE
8
BLACK
6
CONTINUOUS
10
198.4814629999999909
20
-85.9606220000000008
11
198.4789739999999938
21
-85.9616539999999958
0
LINE
8
BLACK
6
CONTINUOUS
10
198.4789739999999938
20
-85.9616539999999958
11
198.4643419999999878
21
-85.9630949999999956
0
LINE
8
BLACK
6
CONTINUOUS
10
198.4643419999999878
20
-85.9630949999999956
11
198.369103999999993
21
-85.9630949999999956
0
LINE
8
BLACK
6
CONTINUOUS
10
198.369103999999993
20
-85.9630949999999956
11
198.354471999999987
21
-85.9616539999999958
0
LINE
8
BLACK
6
CONTINUOUS
10
198.354471999999987
20
-85.9616539999999958
11
198.3519829999999899
21
-85.9606229999999982
0
LINE
8
BLACK
6
CONTINUOUS
10
198.3519829999999899
20
-85.9606229999999982
11
198.3492939999999862
21
-85.9604319999999973
0
LINE
8
BLACK
6
CONTINUOUS
10
198.3492939999999862
20
-85.9604319999999973
11
198.3355629999999792
21
-85.9551769999999919
0
LINE
8
BLACK
6
CONTINUOUS
10
198.3355629999999792
20
-85.9551769999999919
11
198.2403249999999844
21
-85.9075579999999945
0
LINE
8
BLACK
6
CONTINUOUS
10
198.2403249999999844
20
-85.9075579999999945
11
198.2340250000000026
21
-85.9035930000000008
0
LINE
8
BLACK
6
CONTINUOUS
10
198.2340250000000026
20
-85.9035930000000008
11
198.2321979999999826
21
-85.9028359999999935
0
LINE
8
BLACK
6
CONTINUOUS
10
198.2321979999999826
20
-85.9028359999999935
11
198.2301410000000033
21
-85.9011469999999946
0
LINE
8
BLACK
6
CONTINUOUS
10
198.2301410000000033
20
-85.9011469999999946
11
198.2278819999999939
21
-85.8997260000000011
0
LINE
8
BLACK
6
CONTINUOUS
10
198.2278819999999939
20
-85.8997260000000011
11
198.2265819999999792
21
-85.8982269999999914
0
LINE
8
BLACK
6
CONTINUOUS
10
198.2265819999999792
20
-85.8982269999999914
11
198.2208329999999989
21
-85.8935089999999946
0
LINE
8
BLACK
6
CONTINUOUS
10
198.2208329999999989
20
-85.8935089999999946
11
198.1732140000000015
21
-85.8458899999999971
0
LINE
8
BLACK
6
CONTINUOUS
10
198.1732140000000015
20
-85.8458899999999971
11
198.1684949999999787
21
-85.840139999999991
0
LINE
8
BLACK
6
CONTINUOUS
10
198.1684949999999787
20
-85.840139999999991
11
198.1669969999999807
21
-85.8388410000000022
0
LINE
8
BLACK
6
CONTINUOUS
10
198.1669969999999807
20
-85.8388410000000022
11
198.1655749999999898
21
-85.8365809999999954
0
LINE
8
BLACK
6
CONTINUOUS
10
198.1655749999999898
20
-85.8365809999999954
11
198.1638869999999883
21
-85.8345249999999993
0
LINE
8
BLACK
6
CONTINUOUS
10
198.1638869999999883
20
-85.8345249999999993
11
198.1631289999999979
21
-85.832696999999996
0
LINE
8
BLACK
6
CONTINUOUS
10
198.1631289999999979
20
-85.832696999999996
11
198.1591650000000016
21
-85.8263979999999975
0
LINE
8
BLACK
6
CONTINUOUS
10
198.1591650000000016
20
-85.8263979999999975
11
198.1115460000000041
21
-85.7311600000000027
0
LINE
8
BLACK
6
CONTINUOUS
10
198.1115460000000041
20
-85.7311600000000027
11
198.1111359999999877
21
-85.7300899999999899
0
LINE
8
BLACK
6
CONTINUOUS
10
198.1111359999999877
20
-85.7300899999999899
11
198.1108140000000049
21
-85.7296549999999939
0
LINE
8
BLACK
6
CONTINUOUS
10
198.1108140000000049
20
-85.7296549999999939
11
198.1086179999999786
21
-85.7235089999999929
0
LINE
8
BLACK
6
CONTINUOUS
10
198.1086179999999786
20
-85.7235089999999929
11
198.1062909999999988
21
-85.7174279999999982
0
LINE
8
BLACK
6
CONTINUOUS
10
198.1062909999999988
20
-85.7174279999999982
11
198.1062519999999836
21
-85.7168879999999973
0
LINE
8
BLACK
6
CONTINUOUS
10
198.1062519999999836
20
-85.7168879999999973
11
198.1058669999999893
21
-85.715808999999993
0
LINE
8
BLACK
6
CONTINUOUS
10
198.1058669999999893
20
-85.715808999999993
11
198.0602439999999831
21
-85.5333189999999917
0
LINE
8
BLACK
6
CONTINUOUS
10
198.0602439999999831
20
-85.5333189999999917
11
198.0217509999999947
21
-85.4563319999999891
0
LINE
8
BLACK
6
CONTINUOUS
10
198.0217509999999947
20
-85.4563319999999891
11
197.991343999999998
21
-85.4259249999999923
0
LINE
8
BLACK
6
CONTINUOUS
10
197.991343999999998
20
-85.4259249999999923
11
197.9228279999999813
21
-85.3916669999999982
0
LINE
8
BLACK
6
CONTINUOUS
10
197.9228279999999813
20
-85.3916669999999982
11
197.8629999999999995
21
-85.3916669999999982
0
LINE
8
BLACK
6
CONTINUOUS
10
197.8629999999999995
20
-85.3916669999999982
11
197.7944839999999829
21
-85.4259249999999923
0
LINE
8
BLACK
6
CONTINUOUS
10
197.7944839999999829
20
-85.4259249999999923
11
197.7640769999999861
21
-85.4563319999999891
0
LINE
8
BLACK
6
CONTINUOUS
10
197.7640769999999861
20
-85.4563319999999891
11
197.729818999999992
21
-85.5248479999999915
0
LINE
8
BLACK
6
CONTINUOUS
10
197.729818999999992
20
-85.5248479999999915
11
197.729818999999992
21
-85.7330669999999913
0
LINE
8
BLACK
6
CONTINUOUS
10
197.729818999999992
20
-85.7330669999999913
11
197.773588999999987
21
-85.8643769999999904
0
LINE
8
BLACK
6
CONTINUOUS
10
197.773588999999987
20
-85.8643769999999904
11
197.7768489999999986
21
-85.8787140000000022
0
LINE
8
BLACK
6
CONTINUOUS
10
197.7768489999999986
20
-85.8787140000000022
11
197.7747739999999794
21
-85.907904000000002
0
LINE
8
BLACK
6
CONTINUOUS
10
197.7747739999999794
20
-85.907904000000002
11
197.7616879999999924
21
-85.9340779999999995
0
LINE
8
BLACK
6
CONTINUOUS
10
197.7616879999999924
20
-85.9340779999999995
11
197.7395799999999895
21
-85.953251999999992
0
LINE
8
BLACK
6
CONTINUOUS
10
197.7395799999999895
20
-85.953251999999992
11
197.7118179999999938
21
-85.9625059999999905
0
LINE
8
BLACK
6
CONTINUOUS
10
197.7118179999999938
20
-85.9625059999999905
11
197.682627999999994
21
-85.9604309999999998
0
LINE
8
BLACK
6
CONTINUOUS
10
197.682627999999994
20
-85.9604309999999998
11
197.656454999999994
21
-85.9473440000000011
0
LINE
8
BLACK
6
CONTINUOUS
10
197.656454999999994
20
-85.9473440000000011
11
197.6372810000000015
21
-85.9252369999999956
0
LINE
8
BLACK
6
CONTINUOUS
10
197.6372810000000015
20
-85.9252369999999956
11
197.6312869999999862
21
-85.9118119999999976
0
LINE
8
BLACK
6
CONTINUOUS
10
197.6312869999999862
20
-85.9118119999999976
11
197.5836679999999888
21
-85.7689549999999912
0
LINE
8
BLACK
6
CONTINUOUS
10
197.5836679999999888
20
-85.7689549999999912
11
197.582018000000005
21
-85.7617010000000022
0
LINE
8
BLACK
6
CONTINUOUS
10
197.582018000000005
20
-85.7617010000000022
11
197.5812599999999861
21
-85.7598699999999923
0
LINE
8
BLACK
6
CONTINUOUS
10
197.5812599999999861
20
-85.7598699999999923
11
197.5809979999999939
21
-85.7572150000000022
0
LINE
8
BLACK
6
CONTINUOUS
10
197.5809979999999939
20
-85.7572150000000022
11
197.5804079999999772
21
-85.7546179999999936
0
LINE
8
BLACK
6
CONTINUOUS
10
197.5804079999999772
20
-85.7546179999999936
11
197.5805479999999932
21
-85.752642999999992
0
LINE
8
BLACK
6
CONTINUOUS
10
197.5805479999999932
20
-85.752642999999992
11
197.5798189999999863
21
-85.7452380000000005
0
LINE
8
BLACK
6
CONTINUOUS
10
197.5798189999999863
20
-85.7452380000000005
11
197.5798189999999863
21
-85.5071429999999992
0
LINE
8
BLACK
6
CONTINUOUS
10
197.5798189999999863
20
-85.5071429999999992
11
197.5812599999999861
21
-85.4925109999999933
0
LINE
8
BLACK
6
CONTINUOUS
10
197.5812599999999861
20
-85.4925109999999933
11
197.5822909999999979
21
-85.4900209999999987
0
LINE
8
BLACK
6
CONTINUOUS
10
197.5822909999999979
20
-85.4900209999999987
11
197.5824819999999988
21
-85.4873339999999899
0
LINE
8
BLACK
6
CONTINUOUS
10
197.5824819999999988
20
-85.4873339999999899
11
197.5877370000000042
21
-85.4736019999999996
0
LINE
8
BLACK
6
CONTINUOUS
10
197.5877370000000042
20
-85.4736019999999996
11
197.6353560000000016
21
-85.3783639999999906
0
LINE
8
BLACK
6
CONTINUOUS
10
197.6353560000000016
20
-85.3783639999999906
11
197.6393199999999979
21
-85.3720639999999946
0
LINE
8
BLACK
6
CONTINUOUS
10
197.6393199999999979
20
-85.3720639999999946
11
197.6400779999999884
21
-85.370237000000003
0
LINE
8
BLACK
6
CONTINUOUS
10
197.6400779999999884
20
-85.370237000000003
11
197.6417659999999898
21
-85.3681799999999953
0
LINE
8
BLACK
6
CONTINUOUS
10
197.6417659999999898
20
-85.3681799999999953
11
197.6431879999999808
21
-85.3659210000000002
0
LINE
8
BLACK
6
CONTINUOUS
10
197.6431879999999808
20
-85.3659210000000002
11
197.6446859999999788
21
-85.3646209999999996
0
LINE
8
BLACK
6
CONTINUOUS
10
197.6446859999999788
20
-85.3646209999999996
11
197.6494050000000016
21
-85.358871999999991
0
LINE
8
BLACK
6
CONTINUOUS
10
197.6494050000000016
20
-85.358871999999991
11
197.697023999999999
21
-85.3112529999999936
0
LINE
8
BLACK
6
CONTINUOUS
10
197.697023999999999
20
-85.3112529999999936
11
197.7027729999999792
21
-85.3065339999999992
0
LINE
8
BLACK
6
CONTINUOUS
10
197.7027729999999792
20
-85.3065339999999992
11
197.704072999999994
21
-85.3050360000000012
0
LINE
8
BLACK
6
CONTINUOUS
10
197.704072999999994
20
-85.3050360000000012
11
197.7063320000000033
21
-85.3036139999999961
0
LINE
8
BLACK
6
CONTINUOUS
10
197.7063320000000033
20
-85.3036139999999961
11
197.7083889999999826
21
-85.3019259999999946
0
LINE
8
BLACK
6
CONTINUOUS
10
197.7083889999999826
20
-85.3019259999999946
11
197.7102160000000026
21
-85.3011679999999899
0
LINE
8
BLACK
6
CONTINUOUS
10
197.7102160000000026
20
-85.3011679999999899
11
197.7165159999999844
21
-85.2972039999999936
0
LINE
8
BLACK
6
CONTINUOUS
10
197.7165159999999844
20
-85.2972039999999936
11
197.8117539999999792
21
-85.2495849999999962
0
LINE
8
BLACK
6
CONTINUOUS
10
197.8117539999999792
20
-85.2495849999999962
11
197.8254849999999863
21
-85.2443299999999908
0
LINE
8
BLACK
6
CONTINUOUS
10
197.8254849999999863
20
-85.2443299999999908
11
197.82817399999999
21
-85.2441379999999924
0
LINE
8
BLACK
6
CONTINUOUS
10
197.82817399999999
20
-85.2441379999999924
11
197.8306629999999871
21
-85.2431079999999923
0
LINE
8
BLACK
6
CONTINUOUS
10
197.8306629999999871
20
-85.2431079999999923
11
197.845294999999993
21
-85.2416669999999925
0
LINE
8
BLACK
6
CONTINUOUS
10
197.845294999999993
20
-85.2416669999999925
11
197.9405329999999879
21
-85.2416669999999925
0
LINE
8
BLACK
6
CONTINUOUS
10
197.9405329999999879
20
-85.2416669999999925
11
197.9551649999999938
21
-85.2431079999999923
0
LINE
8
BLACK
6
CONTINUOUS
10
193.3005110000000002
20
-82.692426999999995
11
193.3329829999999845
21
-82.7248989999999935
0
LINE
8
BLACK
6
CONTINUOUS
10
193.3329829999999845
20
-82.7248989999999935
11
193.3375499999999931
21
-82.7478600000000029
0
LINE
8
BLACK
6
CONTINUOUS
10
193.3375499999999931
20
-82.7478600000000029
11
193.3375499999999931
21
-83.7678599999999989
0
LINE
8
BLACK
6
CONTINUOUS
10
193.3375499999999931
20
-83.7678599999999989
11
193.3329829999999845
21
-83.790820999999994
0
LINE
8
BLACK
6
CONTINUOUS
10
193.3329829999999845
20
-83.790820999999994
11
193.3005110000000002
21
-83.8232929999999925
0
LINE
8
BLACK
6
CONTINUOUS
10
193.3005110000000002
20
-83.8232929999999925
11
193.2775499999999909
21
-83.8278600000000012
0
LINE
8
BLACK
6
CONTINUOUS
10
193.2775499999999909
20
-83.8278600000000012
11
191.7375499999999988
21
-83.8278600000000012
0
LINE
8
BLACK
6
CONTINUOUS
10
191.7375499999999988
20
-83.8278600000000012
11
191.7375499999999988
21
-85.04786
0
LINE
8
BLACK
6
CONTINUOUS
10
191.7375499999999988
20
-85.04786
11
191.7329829999999902
21
-85.0708209999999951
0
LINE
8
BLACK
6
CONTINUOUS
10
191.7329829999999902
20
-85.0708209999999951
11
191.7005109999999775
21
-85.1032929999999936
0
LINE
8
BLACK
6
CONTINUOUS
10
191.7005109999999775
20
-85.1032929999999936
11
191.6545889999999872
21
-85.1032929999999936
0
LINE
8
BLACK
6
CONTINUOUS
10
191.6545889999999872
20
-85.1032929999999936
11
191.6221170000000029
21
-85.0708209999999951
0
LINE
8
BLACK
6
CONTINUOUS
10
191.6221170000000029
20
-85.0708209999999951
11
191.6175499999999943
21
-85.04786
0
LINE
8
BLACK
6
CONTINUOUS
10
191.6175499999999943
20
-85.04786
11
191.6175499999999943
21
-83.7678599999999989
0
LINE
8
BLACK
6
CONTINUOUS
10
191.6175499999999943
20
-83.7678599999999989
11
191.6221170000000029
21
-83.7448989999999895
0
LINE
8
BLACK
6
CONTINUOUS
10
191.6221170000000029
20
-83.7448989999999895
11
191.6545889999999872
21
-83.712426999999991
0
LINE
8
BLACK
6
CONTINUOUS
10
191.6545889999999872
20
-83.712426999999991
11
191.6775499999999965
21
-83.7078599999999966
0
LINE
8
BLACK
6
CONTINUOUS
10
191.6775499999999965
20
-83.7078599999999966
11
193.2175499999999886
21
-83.7078599999999966
0
LINE
8
BLACK
6
CONTINUOUS
10
193.2175499999999886
20
-83.7078599999999966
11
193.2175499999999886
21
-82.8078599999999909
0
LINE
8
BLACK
6
CONTINUOUS
10
193.2175499999999886
20
-82.8078599999999909
11
189.0275499999999909
21
-82.8078599999999909
0
LINE
8
BLACK
6
CONTINUOUS
10
189.0275499999999909
20
-82.8078599999999909
11
189.0045889999999815
21
-82.8032929999999965
0
LINE
8
BLACK
6
CONTINUOUS
10
189.0045889999999815
20
-82.8032929999999965
11
188.9721169999999972
21
-82.770820999999998
0
LINE
8
BLACK
6
CONTINUOUS
10
188.9721169999999972
20
-82.770820999999998
11
188.9721169999999972
21
-82.7248989999999935
0
LINE
8
BLACK
6
CONTINUOUS
10
188.9721169999999972
20
-82.7248989999999935
11
189.0045889999999815
21
-82.692426999999995
0
LINE
8
BLACK
6
CONTINUOUS
10
189.0045889999999815
20
-82.692426999999995
11
189.0275499999999909
21
-82.6878600000000006
0
LINE
8
BLACK
6
CONTINUOUS
10
189.0275499999999909
20
-82.6878600000000006
11
193.2775499999999909
21
-82.6878600000000006
0
LINE
8
BLACK
6
CONTINUOUS
10
193.2775499999999909
20
-82.6878600000000006
11
193.3005110000000002
21
-82.692426999999995
0
LINE
8
BLACK
6
CONTINUOUS
10
202.1569379999999967
20
-80.4031719999999979
11
202.160743999999994
21
-80.4223059999999919
0
LINE
8
BLACK
6
CONTINUOUS
10
202.160743999999994
20
-80.4223059999999919
11
202.160743999999994
21
-80.6580199999999934
0
LINE
8
BLACK
6
CONTINUOUS
10
202.160743999999994
20
-80.6580199999999934
11
203.1107439999999826
21
-80.6580199999999934
0
LINE
8
BLACK
6
CONTINUOUS
10
203.1107439999999826
20
-80.6580199999999934
11
203.1298779999999908
21
-80.6618259999999907
0
LINE
8
BLACK
6
CONTINUOUS
10
203.1298779999999908
20
-80.6618259999999907
11
203.1335179999999809
21
-80.665465999999995
0
LINE
8
BLACK
6
CONTINUOUS
10
203.1335179999999809
20
-80.665465999999995
11
203.1385659999999973
21
-80.666476000000003
0
LINE
8
BLACK
6
CONTINUOUS
10
203.1385659999999973
20
-80.666476000000003
11
203.1466429999999832
21
-80.6785909999999973
0
LINE
8
BLACK
6
CONTINUOUS
10
203.1466429999999832
20
-80.6785909999999973
11
203.1569379999999967
21
-80.6888859999999966
0
LINE
8
BLACK
6
CONTINUOUS
10
203.1569379999999967
20
-80.6888859999999966
11
203.1569379999999967
21
-80.6940319999999929
0
LINE
8
BLACK
6
CONTINUOUS
10
203.1569379999999967
20
-80.6940319999999929
11
203.1597939999999767
21
-80.6983159999999913
0
LINE
8
BLACK
6
CONTINUOUS
10
203.1597939999999767
20
-80.6983159999999913
11
203.1569379999999967
21
-80.7125939999999957
0
LINE
8
BLACK
6
CONTINUOUS
10
203.1569379999999967
20
-80.7125939999999957
11
203.1569379999999967
21
-80.7271539999999987
0
LINE
8
BLACK
6
CONTINUOUS
10
203.1569379999999967
20
-80.7271539999999987
11
203.1532969999999807
21
-80.7307940000000031
0
LINE
8
BLACK
6
CONTINUOUS
10
203.1532969999999807
20
-80.7307940000000031
11
203.1522879999999986
21
-80.735841999999991
0
LINE
8
BLACK
6
CONTINUOUS
10
203.1522879999999986
20
-80.735841999999991
11
203.1384789999999896
21
-80.7496220000000022
0
LINE
8
BLACK
6
CONTINUOUS
10
203.1384789999999896
20
-80.7496220000000022
11
202.9997379999999794
21
-80.8421159999999901
0
LINE
8
BLACK
6
CONTINUOUS
10
202.9997379999999794
20
-80.8421159999999901
11
202.913741999999985
21
-80.9281129999999962
0
LINE
8
BLACK
6
CONTINUOUS
10
202.913741999999985
20
-80.9281129999999962
11
202.8697509999999795
21
-81.0160949999999929
0
LINE
8
BLACK
6
CONTINUOUS
10
202.8697509999999795
20
-81.0160949999999929
11
202.8577899999999943
21
-81.0315069999999906
0
LINE
8
BLACK
6
CONTINUOUS
10
202.8577899999999943
20
-81.0315069999999906
11
202.8214849999999956
21
-81.0436079999999919
0
LINE
8
BLACK
6
CONTINUOUS
10
202.8214849999999956
20
-81.0436079999999919
11
202.7872569999999826
21
-81.0264939999999996
0
LINE
8
BLACK
6
CONTINUOUS
10
202.7872569999999826
20
-81.0264939999999996
11
202.7751559999999813
21
-80.9901890000000009
0
LINE
8
BLACK
6
CONTINUOUS
10
202.7751559999999813
20
-80.9901890000000009
11
202.7803089999999884
21
-80.9713729999999998
0
LINE
8
BLACK
6
CONTINUOUS
10
202.7803089999999884
20
-80.9713729999999998
11
202.8279269999999883
21
-80.8761360000000025
0
LINE
8
BLACK
6
CONTINUOUS
10
202.8279269999999883
20
-80.8761360000000025
11
202.8328419999999994
21
-80.8698019999999929
0
LINE
8
BLACK
6
CONTINUOUS
10
202.8328419999999994
20
-80.8698019999999929
11
202.8372939999999858
21
-80.8631409999999988
0
LINE
8
BLACK
6
CONTINUOUS
10
202.8372939999999858
20
-80.8631409999999988
11
202.9325319999999806
21
-80.7679029999999898
0
LINE
8
BLACK
6
CONTINUOUS
10
202.9325319999999806
20
-80.7679029999999898
11
202.9366449999999986
21
-80.7651539999999954
0
LINE
8
BLACK
6
CONTINUOUS
10
202.9366449999999986
20
-80.7651539999999954
11
202.9401519999999834
21
-80.7616549999999904
0
LINE
8
BLACK
6
CONTINUOUS
10
202.9401519999999834
20
-80.7616549999999904
11
202.945604000000003
21
-80.7580200000000019
0
LINE
8
BLACK
6
CONTINUOUS
10
202.945604000000003
20
-80.7580200000000019
11
202.160743999999994
21
-80.7580200000000019
0
LINE
8
BLACK
6
CONTINUOUS
10
202.160743999999994
20
-80.7580200000000019
11
202.160743999999994
21
-80.9937339999999892
0
LINE
8
BLACK
6
CONTINUOUS
10
202.160743999999994
20
-80.9937339999999892
11
202.1569379999999967
21
-81.0128679999999974
0
LINE
8
BLACK
6
CONTINUOUS
10
202.1569379999999967
20
-81.0128679999999974
11
202.1298779999999908
21
-81.0399280000000033
0
LINE
8
BLACK
6
CONTINUOUS
10
202.1298779999999908
20
-81.0399280000000033
11
202.0916100000000029
21
-81.0399280000000033
0
LINE
8
BLACK
6
CONTINUOUS
10
202.0916100000000029
20
-81.0399280000000033
11
202.064549999999997
21
-81.0128679999999974
0
LINE
8
BLACK
6
CONTINUOUS
10
202.064549999999997
20
-81.0128679999999974
11
202.0607439999999997
21
-80.9937339999999892
0
LINE
8
BLACK
6
CONTINUOUS
10
202.0607439999999997
20
-80.9937339999999892
11
202.0607439999999997
21
-80.4223059999999919
0
LINE
8
BLACK
6
CONTINUOUS
10
202.0607439999999997
20
-80.4223059999999919
11
202.064549999999997
21
-80.4031719999999979
0
LINE
8
BLACK
6
CONTINUOUS
10
202.064549999999997
20
-80.4031719999999979
11
202.0916100000000029
21
-80.376111999999992
0
LINE
8
BLACK
6
CONTINUOUS
10
202.0916100000000029
20
-80.376111999999992
11
202.1298779999999908
21
-80.376111999999992
0
LINE
8
BLACK
6
CONTINUOUS
10
202.1298779999999908
20
-80.376111999999992
11
202.1569379999999967
21
-80.4031719999999979
0
LINE
8
BLACK
6
CONTINUOUS
10
201.1554329999999879
20
-90.027039000000002
11
201.1599999999999966
21
-90.0499999999999972
0
LINE
8
BLACK
6
CONTINUOUS
10
201.1599999999999966
20
-90.0499999999999972
11
201.1599999999999966
21
-91.1899999999999977
0
LINE
8
BLACK
6
CONTINUOUS
10
201.1599999999999966
20
-91.1899999999999977
11
203.3999999999999773
21
-91.1899999999999977
0
LINE
8
BLACK
6
CONTINUOUS
10
203.3999999999999773
20
-91.1899999999999977
11
203.4229609999999866
21
-91.1945669999999922
0
LINE
8
BLACK
6
CONTINUOUS
10
203.4229609999999866
20
-91.1945669999999922
11
203.4554329999999993
21
-91.2270389999999907
0
LINE
8
BLACK
6
CONTINUOUS
10
203.4554329999999993
20
-91.2270389999999907
11
203.4554329999999993
21
-91.2729609999999951
0
LINE
8
BLACK
6
CONTINUOUS
10
203.4554329999999993
20
-91.2729609999999951
11
203.4229609999999866
21
-91.3054329999999936
0
LINE
8
BLACK
6
CONTINUOUS
10
203.4229609999999866
20
-91.3054329999999936
11
203.3999999999999773
21
-91.3100000000000023
0
LINE
8
BLACK
6
CONTINUOUS
10
203.3999999999999773
20
-91.3100000000000023
11
201.0999999999999943
21
-91.3100000000000023
0
LINE
8
BLACK
6
CONTINUOUS
10
201.0999999999999943
20
-91.3100000000000023
11
201.077038999999985
21
-91.3054329999999936
0
LINE
8
BLACK
6
CONTINUOUS
10
201.077038999999985
20
-91.3054329999999936
11
201.0445670000000007
21
-91.2729609999999951
0
LINE
8
BLACK
6
CONTINUOUS
10
201.0445670000000007
20
-91.2729609999999951
11
201.039999999999992
21
-91.25
0
LINE
8
BLACK
6
CONTINUOUS
10
201.039999999999992
20
-91.25
11
201.039999999999992
21
-90.0499999999999972
0
LINE
8
BLACK
6
CONTINUOUS
10
201.039999999999992
20
-90.0499999999999972
11
201.0445670000000007
21
-90.027039000000002
0
LINE
8
BLACK
6
CONTINUOUS
10
201.0445670000000007
20
-90.027039000000002
11
201.077038999999985
21
-89.9945669999999893
0
LINE
8
BLACK
6
CONTINUOUS
10
201.077038999999985
20
-89.9945669999999893
11
201.1229610000000037
21
-89.9945669999999893
0
LINE
8
BLACK
6
CONTINUOUS
10
201.1229610000000037
20
-89.9945669999999893
11
201.1554329999999879
21
-90.027039000000002
0
LINE
8
BLACK
6
CONTINUOUS
10
201.1554329999999879
20
-87.527039000000002
11
201.1599999999999966
21
-87.5499999999999972
0
LINE
8
BLACK
6
CONTINUOUS
10
201.1599999999999966
20
-87.5499999999999972
11
201.1599999999999966
21
-88.25
0
LINE
8
BLACK
6
CONTINUOUS
10
201.1599999999999966
20
-88.25
11
201.1554329999999879
21
-88.2729609999999951
0
LINE
8
BLACK
6
CONTINUOUS
10
201.1554329999999879
20
-88.2729609999999951
11
201.1229610000000037
21
-88.3054329999999936
0
LINE
8
BLACK
6
CONTINUOUS
10
201.1229610000000037
20
-88.3054329999999936
11
201.077038999999985
21
-88.3054329999999936
0
LINE
8
BLACK
6
CONTINUOUS
10
201.077038999999985
20
-88.3054329999999936
11
201.0445670000000007
21
-88.2729609999999951
0
LINE
8
BLACK
6
CONTINUOUS
10
201.0445670000000007
20
-88.2729609999999951
11
201.039999999999992
21
-88.25
0
LINE
8
BLACK
6
CONTINUOUS
10
201.039999999999992
20
-88.25
11
201.039999999999992
21
-87.5499999999999972
0
LINE
8
BLACK
6
CONTINUOUS
10
201.039999999999992
20
-87.5499999999999972
11
201.0445670000000007
21
-87.527039000000002
0
LINE
8
BLACK
6
CONTINUOUS
10
201.0445670000000007
20
-87.527039000000002
11
201.077038999999985
21
-87.4945669999999893
0
LINE
8
BLACK
6
CONTINUOUS
10
201.077038999999985
20
-87.4945669999999893
11
201.1229610000000037
21
-87.4945669999999893
0
LINE
8
BLACK
6
CONTINUOUS
10
201.1229610000000037
20
-87.4945669999999893
11
201.1554329999999879
21
-87.527039000000002
0
LINE
8
BLACK
6
CONTINUOUS
10
206.0423619999999971
20
-87.4247769999999917
11
206.0693979999999783
21
-87.4359759999999966
0
LINE
8
BLACK
6
CONTINUOUS
10
206.0693979999999783
20
-87.4359759999999966
11
206.0900900000000036
21
-87.4566679999999934
0
LINE
8
BLACK
6
CONTINUOUS
10
206.0900900000000036
20
-87.4566679999999934
11
206.10128899999998
21
-87.483704000000003
0
LINE
8
BLACK
6
CONTINUOUS
10
206.10128899999998
20
-87.483704000000003
11
206.10128899999998
21
-87.5129680000000008
0
LINE
8
BLACK
6
CONTINUOUS
10
206.10128899999998
20
-87.5129680000000008
11
206.0900900000000036
21
-87.5400039999999962
0
LINE
8
BLACK
6
CONTINUOUS
10
206.0900900000000036
20
-87.5400039999999962
11
206.0693979999999783
21
-87.560695999999993
0
LINE
8
BLACK
6
CONTINUOUS
10
206.0693979999999783
20
-87.560695999999993
11
206.0423619999999971
21
-87.5718949999999978
0
LINE
8
BLACK
6
CONTINUOUS
10
206.0423619999999971
20
-87.5718949999999978
11
206.0277299999999912
21
-87.5733359999999976
0
LINE
8
BLACK
6
CONTINUOUS
10
206.0277299999999912
20
-87.5733359999999976
11
205.2359119999999848
21
-87.5733359999999976
0
LINE
8
BLACK
6
CONTINUOUS
10
205.2359119999999848
20
-87.5733359999999976
11
205.1673959999999965
21
-87.6075939999999918
0
LINE
8
BLACK
6
CONTINUOUS
10
205.1673959999999965
20
-87.6075939999999918
11
205.1369880000000023
21
-87.6380010000000027
0
LINE
8
BLACK
6
CONTINUOUS
10
205.1369880000000023
20
-87.6380010000000027
11
205.1027299999999798
21
-87.7065180000000026
0
LINE
8
BLACK
6
CONTINUOUS
10
205.1027299999999798
20
-87.7065180000000026
11
205.1027299999999798
21
-87.861581000000001
0
LINE
8
BLACK
6
CONTINUOUS
10
205.1027299999999798
20
-87.861581000000001
11
205.1369880000000023
21
-87.930098000000001
0
LINE
8
BLACK
6
CONTINUOUS
10
205.1369880000000023
20
-87.930098000000001
11
205.1673959999999965
21
-87.9605059999999952
0
LINE
8
BLACK
6
CONTINUOUS
10
205.1673959999999965
20
-87.9605059999999952
11
205.2359119999999848
21
-87.9947639999999893
0
LINE
8
BLACK
6
CONTINUOUS
10
205.2359119999999848
20
-87.9947639999999893
11
206.0277299999999912
21
-87.9947639999999893
0
LINE
8
BLACK
6
CONTINUOUS
10
206.0277299999999912
20
-87.9947639999999893
11
206.0423619999999971
21
-87.9962049999999891
0
LINE
8
BLACK
6
CONTINUOUS
10
206.0423619999999971
20
-87.9962049999999891
11
206.0693979999999783
21
-88.007403999999994
0
LINE
8
BLACK
6
CONTINUOUS
10
206.0693979999999783
20
-88.007403999999994
11
206.0900900000000036
21
-88.0280959999999908
0
LINE
8
BLACK
6
CONTINUOUS
10
206.0900900000000036
20
-88.0280959999999908
11
206.10128899999998
21
-88.0551320000000004
0
LINE
8
BLACK
6
CONTINUOUS
10
206.10128899999998
20
-88.0551320000000004
11
206.10128899999998
21
-88.0843959999999981
0
LINE
8
BLACK
6
CONTINUOUS
10
206.10128899999998
20
-88.0843959999999981
11
206.0900900000000036
21
-88.1114319999999935
0
LINE
8
BLACK
6
CONTINUOUS
10
206.0900900000000036
20
-88.1114319999999935
11
206.0693979999999783
21
-88.1321239999999904
0
LINE
8
BLACK
6
CONTINUOUS
10
206.0693979999999783
20
-88.1321239999999904
11
206.0423619999999971
21
-88.1433229999999952
0
LINE
8
BLACK
6
CONTINUOUS
10
206.0423619999999971
20
-88.1433229999999952
11
206.0277299999999912
21
-88.144763999999995
0
LINE
8
BLACK
6
CONTINUOUS
10
206.0277299999999912
20
-88.144763999999995
11
205.2182069999999783
21
-88.144763999999995
0
LINE
8
BLACK
6
CONTINUOUS
10
205.2182069999999783
20
-88.144763999999995
11
205.2035750000000007
21
-88.1433229999999952
0
LINE
8
BLACK
6
CONTINUOUS
10
205.2035750000000007
20
-88.1433229999999952
11
205.2010860000000037
21
-88.1422919999999976
0
LINE
8
BLACK
6
CONTINUOUS
10
205.2010860000000037
20
-88.1422919999999976
11
205.1983969999999999
21
-88.1421009999999967
0
LINE
8
BLACK
6
CONTINUOUS
10
205.1983969999999999
20
-88.1421009999999967
11
205.1846659999999929
21
-88.1368459999999914
0
LINE
8
BLACK
6
CONTINUOUS
10
205.1846659999999929
20
-88.1368459999999914
11
205.0894279999999981
21
-88.089226999999994
0
LINE
8
BLACK
6
CONTINUOUS
10
205.0894279999999981
20
-88.089226999999994
11
205.0831279999999879
21
-88.0852620000000002
0
LINE
8
BLACK
6
CONTINUOUS
10
205.0831279999999879
20
-88.0852620000000002
11
205.0813009999999963
21
-88.0845049999999929
0
LINE
8
BLACK
6
CONTINUOUS
10
205.0813009999999963
20
-88.0845049999999929
11
205.0792439999999885
21
-88.082815999999994
0
LINE
8
BLACK
6
CONTINUOUS
10
205.0792439999999885
20
-88.082815999999994
11
205.0769849999999792
21
-88.0813950000000006
0
LINE
8
BLACK
6
CONTINUOUS
10
205.0769849999999792
20
-88.0813950000000006
11
205.0756849999999929
21
-88.0798959999999909
0
LINE
8
BLACK
6
CONTINUOUS
10
205.0756849999999929
20
-88.0798959999999909
11
205.0699359999999842
21
-88.075177999999994
0
LINE
8
BLACK
6
CONTINUOUS
10
205.0699359999999842
20
-88.075177999999994
11
205.0223169999999868
21
-88.0275589999999966
0
LINE
8
BLACK
6
CONTINUOUS
10
205.0223169999999868
20
-88.0275589999999966
11
205.0175989999999899
21
-88.0218100000000021
0
LINE
8
BLACK
6
CONTINUOUS
10
205.0175989999999899
20
-88.0218100000000021
11
205.0161009999999919
21
-88.0205109999999991
0
LINE
8
BLACK
6
CONTINUOUS
10
205.0161009999999919
20
-88.0205109999999991
11
205.0146780000000035
21
-88.0182509999999922
0
LINE
8
BLACK
6
CONTINUOUS
10
205.0146780000000035
20
-88.0182509999999922
11
205.0129900000000021
21
-88.0161939999999987
0
LINE
8
BLACK
6
CONTINUOUS
10
205.0129900000000021
20
-88.0161939999999987
11
205.0122329999999806
21
-88.0143659999999954
0
LINE
8
BLACK
6
CONTINUOUS
10
205.0122329999999806
20
-88.0143659999999954
11
205.0082679999999868
21
-88.0080679999999944
0
LINE
8
BLACK
6
CONTINUOUS
10
205.0082679999999868
20
-88.0080679999999944
11
204.960647999999992
21
-87.9128299999999996
0
LINE
8
BLACK
6
CONTINUOUS
10
204.960647999999992
20
-87.9128299999999996
11
204.9553929999999866
21
-87.8990979999999951
0
LINE
8
BLACK
6
CONTINUOUS
10
204.9553929999999866
20
-87.8990979999999951
11
204.9552009999999882
21
-87.8964079999999939
0
LINE
8
BLACK
6
CONTINUOUS
10
204.9552009999999882
20
-87.8964079999999939
11
204.9541710000000023
21
-87.8939199999999943
0
LINE
8
BLACK
6
CONTINUOUS
10
204.9541710000000023
20
-87.8939199999999943
11
204.9527300000000025
21
-87.8792880000000025
0
LINE
8
BLACK
6
CONTINUOUS
10
204.9527300000000025
20
-87.8792880000000025
11
204.9527300000000025
21
-87.6888119999999986
0
LINE
8
BLACK
6
CONTINUOUS
10
204.9527300000000025
20
-87.6888119999999986
11
204.9541710000000023
21
-87.6741799999999927
0
LINE
8
BLACK
6
CONTINUOUS
10
204.9541710000000023
20
-87.6741799999999927
11
204.9552009999999882
21
-87.6716909999999956
0
LINE
8
BLACK
6
CONTINUOUS
10
204.9552009999999882
20
-87.6716909999999956
11
204.9553929999999866
21
-87.6690019999999919
0
LINE
8
BLACK
6
CONTINUOUS
10
204.9553929999999866
20
-87.6690019999999919
11
204.960647999999992
21
-87.6552700000000016
0
LINE
8
BLACK
6
CONTINUOUS
10
204.960647999999992
20
-87.6552700000000016
11
205.0082679999999868
21
-87.5600319999999925
0
LINE
8
BLACK
6
CONTINUOUS
10
205.0082679999999868
20
-87.5600319999999925
11
205.0122329999999806
21
-87.553732999999994
0
LINE
8
BLACK
6
CONTINUOUS
10
205.0122329999999806
20
-87.553732999999994
11
205.0129900000000021
21
-87.5519060000000025
0
LINE
8
BLACK
6
CONTINUOUS
10
205.0129900000000021
20
-87.5519060000000025
11
205.0146780000000035
21
-87.5498479999999972
0
LINE
8
BLACK
6
CONTINUOUS
10
205.0146780000000035
20
-87.5498479999999972
11
205.0161009999999919
21
-87.5475890000000021
0
LINE
8
BLACK
6
CONTINUOUS
10
205.0161009999999919
20
-87.5475890000000021
11
205.0175989999999899
21
-87.5462890000000016
0
LINE
8
BLACK
6
CONTINUOUS
10
205.0175989999999899
20
-87.5462890000000016
11
205.0223169999999868
21
-87.5405409999999904
0
LINE
8
BLACK
6
CONTINUOUS
10
205.0223169999999868
20
-87.5405409999999904
11
205.0699359999999842
21
-87.492921999999993
0
LINE
8
BLACK
6
CONTINUOUS
10
205.0699359999999842
20
-87.492921999999993
11
205.0756849999999929
21
-87.4882029999999986
0
LINE
8
BLACK
6
CONTINUOUS
10
205.0756849999999929
20
-87.4882029999999986
11
205.0769849999999792
21
-87.4867050000000006
0
LINE
8
BLACK
6
CONTINUOUS
10
205.0769849999999792
20
-87.4867050000000006
11
205.0792439999999885
21
-87.4852829999999955
0
LINE
8
BLACK
6
CONTINUOUS
10
205.0792439999999885
20
-87.4852829999999955
11
205.0813009999999963
21
-87.483594999999994
0
LINE
8
BLACK
6
CONTINUOUS
10
205.0813009999999963
20
-87.483594999999994
11
205.0831279999999879
21
-87.4828369999999893
0
LINE
8
BLACK
6
CONTINUOUS
10
205.0831279999999879
20
-87.4828369999999893
11
205.0894279999999981
21
-87.478872999999993
0
LINE
8
BLACK
6
CONTINUOUS
10
205.0894279999999981
20
-87.478872999999993
11
205.1846659999999929
21
-87.4312539999999956
0
LINE
8
BLACK
6
CONTINUOUS
10
205.1846659999999929
20
-87.4312539999999956
11
205.1983969999999999
21
-87.4259989999999902
0
LINE
8
BLACK
6
CONTINUOUS
10
205.1983969999999999
20
-87.4259989999999902
11
205.2010860000000037
21
-87.4258069999999918
0
LINE
8
BLACK
6
CONTINUOUS
10
205.2010860000000037
20
-87.4258069999999918
11
205.2035750000000007
21
-87.4247769999999917
0
LINE
8
BLACK
6
CONTINUOUS
10
205.2035750000000007
20
-87.4247769999999917
11
205.2182069999999783
21
-87.4233359999999919
0
LINE
8
BLACK
6
CONTINUOUS
10
205.2182069999999783
20
-87.4233359999999919
11
206.0277299999999912
21
-87.4233359999999919
0
LINE
8
BLACK
6
CONTINUOUS
10
206.0277299999999912
20
-87.4233359999999919
11
206.0423619999999971
21
-87.4247769999999917
0
LINE
8
BLACK
6
CONTINUOUS
10
205.3280769999999791
20
-86.4247769999999917
11
205.3305660000000046
21
-86.4258079999999893
0
LINE
8
BLACK
6
CONTINUOUS
10
205.3305660000000046
20
-86.4258079999999893
11
205.3332539999999824
21
-86.4259989999999902
0
LINE
8
BLACK
6
CONTINUOUS
10
205.3332539999999824
20
-86.4259989999999902
11
205.3469859999999869
21
-86.4312539999999956
0
LINE
8
BLACK
6
CONTINUOUS
10
205.3469859999999869
20
-86.4312539999999956
11
205.4422239999999817
21
-86.478872999999993
0
LINE
8
BLACK
6
CONTINUOUS
10
205.4422239999999817
20
-86.478872999999993
11
205.4485229999999945
21
-86.4828369999999893
0
LINE
8
BLACK
6
CONTINUOUS
10
205.4485229999999945
20
-86.4828369999999893
11
205.4503509999999835
21
-86.483594999999994
0
LINE
8
BLACK
6
CONTINUOUS
10
205.4503509999999835
20
-86.483594999999994
11
205.4524069999999938
21
-86.4852829999999955
0
LINE
8
BLACK
6
CONTINUOUS
10
205.4524069999999938
20
-86.4852829999999955
11
205.4546670000000006
21
-86.4867050000000006
0
LINE
8
BLACK
6
CONTINUOUS
10
205.4546670000000006
20
-86.4867050000000006
11
205.4559659999999894
21
-86.4882029999999986
0
LINE
8
BLACK
6
CONTINUOUS
10
205.4559659999999894
20
-86.4882029999999986
11
205.4617159999999956
21
-86.492921999999993
0
LINE
8
BLACK
6
CONTINUOUS
10
205.4617159999999956
20
-86.492921999999993
11
205.509334999999993
21
-86.5405409999999904
0
LINE
8
BLACK
6
CONTINUOUS
10
205.509334999999993
20
-86.5405409999999904
11
205.5140529999999899
21
-86.5462899999999991
0
LINE
8
BLACK
6
CONTINUOUS
10
205.5140529999999899
20
-86.5462899999999991
11
205.5155519999999854
21
-86.5475899999999996
0
LINE
8
BLACK
6
CONTINUOUS
10
205.5155519999999854
20
-86.5475899999999996
11
205.5169729999999788
21
-86.5498489999999947
0
LINE
8
BLACK
6
CONTINUOUS
10
205.5169729999999788
20
-86.5498489999999947
11
205.5186619999999778
21
-86.5519060000000025
0
LINE
8
BLACK
6
CONTINUOUS
10
205.5186619999999778
20
-86.5519060000000025
11
205.5194189999999992
21
-86.553732999999994
0
LINE
8
BLACK
6
CONTINUOUS
10
205.5194189999999992
20
-86.553732999999994
11
205.523383999999993
21
-86.56003299999999
0
LINE
8
BLACK
6
CONTINUOUS
10
205.523383999999993
20
-86.56003299999999
11
205.5710029999999904
21
-86.655270999999999
0
LINE
8
BLACK
6
CONTINUOUS
10
205.5710029999999904
20
-86.655270999999999
11
205.5714119999999809
21
-86.6563400000000001
0
LINE
8
BLACK
6
CONTINUOUS
10
205.5714119999999809
20
-86.6563400000000001
11
205.5717349999999897
21
-86.6567759999999936
0
LINE
8
BLACK
6
CONTINUOUS
10
205.5717349999999897
20
-86.6567759999999936
11
205.5739269999999976
21
-86.6629119999999915
0
LINE
8
BLACK
6
CONTINUOUS
10
205.5739269999999976
20
-86.6629119999999915
11
205.5762579999999957
21
-86.6690019999999919
0
LINE
8
BLACK
6
CONTINUOUS
10
205.5762579999999957
20
-86.6690019999999919
11
205.576295999999985
21
-86.6695419999999928
0
LINE
8
BLACK
6
CONTINUOUS
10
205.576295999999985
20
-86.6695419999999928
11
205.5766819999999768
21
-86.6706219999999945
0
LINE
8
BLACK
6
CONTINUOUS
10
205.5766819999999768
20
-86.6706219999999945
11
205.6223039999999855
21
-86.8531119999999959
0
LINE
8
BLACK
6
CONTINUOUS
10
205.6223039999999855
20
-86.8531119999999959
11
205.6607979999999998
21
-86.9300989999999985
0
LINE
8
BLACK
6
CONTINUOUS
10
205.6607979999999998
20
-86.9300989999999985
11
205.6912049999999965
21
-86.9605059999999952
0
LINE
8
BLACK
6
CONTINUOUS
10
205.6912049999999965
20
-86.9605059999999952
11
205.7597209999999848
21
-86.9947639999999893
0
LINE
8
BLACK
6
CONTINUOUS
10
205.7597209999999848
20
-86.9947639999999893
11
205.819548999999995
21
-86.9947639999999893
0
LINE
8
BLACK
6
CONTINUOUS
10
205.819548999999995
20
-86.9947639999999893
11
205.8880649999999832
21
-86.9605059999999952
0
LINE
8
BLACK
6
CONTINUOUS
10
205.8880649999999832
20
-86.9605059999999952
11
205.91847199999998
21
-86.9300989999999985
0
LINE
8
BLACK
6
CONTINUOUS
10
205.91847199999998
20
-86.9300989999999985
11
205.9527300000000025
21
-86.861582999999996
0
LINE
8
BLACK
6
CONTINUOUS
10
205.9527300000000025
20
-86.861582999999996
11
205.9527300000000025
21
-86.6533629999999988
0
LINE
8
BLACK
6
CONTINUOUS
10
205.9527300000000025
20
-86.6533629999999988
11
205.9089599999999791
21
-86.5220529999999997
0
LINE
8
BLACK
6
CONTINUOUS
10
205.9089599999999791
20
-86.5220529999999997
11
205.905699999999996
21
-86.5077160000000021
0
LINE
8
BLACK
6
CONTINUOUS
10
205.905699999999996
20
-86.5077160000000021
11
205.9077749999999867
21
-86.4785260000000022
0
LINE
8
BLACK
6
CONTINUOUS
10
205.9077749999999867
20
-86.4785260000000022
11
205.9208610000000022
21
-86.4523530000000022
0
LINE
8
BLACK
6
CONTINUOUS
10
205.9208610000000022
20
-86.4523530000000022
11
205.9429679999999792
21
-86.4331789999999955
0
LINE
8
BLACK
6
CONTINUOUS
10
205.9429679999999792
20
-86.4331789999999955
11
205.9707310000000007
21
-86.423924999999997
0
LINE
8
BLACK
6
CONTINUOUS
10
205.9707310000000007
20
-86.423924999999997
11
205.9999210000000005
21
-86.4260000000000019
0
LINE
8
BLACK
6
CONTINUOUS
10
205.9999210000000005
20
-86.4260000000000019
11
206.0260940000000005
21
-86.439085999999989
0
LINE
8
BLACK
6
CONTINUOUS
10
206.0260940000000005
20
-86.439085999999989
11
206.045267999999993
21
-86.4611929999999944
0
LINE
8
BLACK
6
CONTINUOUS
10
206.045267999999993
20
-86.4611929999999944
11
206.0512619999999799
21
-86.4746189999999899
0
LINE
8
BLACK
6
CONTINUOUS
10
206.0512619999999799
20
-86.4746189999999899
11
206.0988809999999773
21
-86.6174749999999989
0
LINE
8
BLACK
6
CONTINUOUS
10
206.0988809999999773
20
-86.6174749999999989
11
206.100529999999992
21
-86.6247299999999996
0
LINE
8
BLACK
6
CONTINUOUS
10
206.100529999999992
20
-86.6247299999999996
11
206.10128899999998
21
-86.6265609999999953
0
LINE
8
BLACK
6
CONTINUOUS
10
206.10128899999998
20
-86.6265609999999953
11
206.1015500000000031
21
-86.6292139999999904
0
LINE
8
BLACK
6
CONTINUOUS
10
206.1015500000000031
20
-86.6292139999999904
11
206.1021409999999889
21
-86.6318119999999965
0
LINE
8
BLACK
6
CONTINUOUS
10
206.1021409999999889
20
-86.6318119999999965
11
206.1020000000000039
21
-86.6337860000000006
0
LINE
8
BLACK
6
CONTINUOUS
10
206.1020000000000039
20
-86.6337860000000006
11
206.1027299999999798
21
-86.6411930000000012
0
LINE
8
BLACK
6
CONTINUOUS
10
206.1027299999999798
20
-86.6411930000000012
11
206.1027299999999798
21
-86.8792880000000025
0
LINE
8
BLACK
6
CONTINUOUS
10
206.1027299999999798
20
-86.8792880000000025
11
206.10128899999998
21
-86.8939199999999943
0
LINE
8
BLACK
6
CONTINUOUS
10
206.10128899999998
20
-86.8939199999999943
11
206.1002579999999966
21
-86.8964079999999939
0
LINE
8
BLACK
6
CONTINUOUS
10
206.1002579999999966
20
-86.8964079999999939
11
206.1000669999999957
21
-86.8990979999999951
0
LINE
8
BLACK
6
CONTINUOUS
10
206.1000669999999957
20
-86.8990979999999951
11
206.0948119999999903
21
-86.9128290000000021
0
LINE
8
BLACK
6
CONTINUOUS
10
206.0948119999999903
20
-86.9128290000000021
11
206.0471929999999929
21
-87.0080669999999969
0
LINE
8
BLACK
6
CONTINUOUS
10
206.0471929999999929
20
-87.0080669999999969
11
206.0432279999999992
21
-87.0143659999999954
0
LINE
8
BLACK
6
CONTINUOUS
10
206.0432279999999992
20
-87.0143659999999954
11
206.0424709999999777
21
-87.0161939999999987
0
LINE
8
BLACK
6
CONTINUOUS
10
206.0424709999999777
20
-87.0161939999999987
11
206.0407819999999788
21
-87.0182499999999948
0
LINE
8
BLACK
6
CONTINUOUS
10
206.0407819999999788
20
-87.0182499999999948
11
206.0393609999999853
21
-87.0205100000000016
0
LINE
8
BLACK
6
CONTINUOUS
10
206.0393609999999853
20
-87.0205100000000016
11
206.0378619999999898
21
-87.0218089999999904
0
LINE
8
BLACK
6
CONTINUOUS
10
206.0378619999999898
20
-87.0218089999999904
11
206.033143999999993
21
-87.0275589999999966
0
LINE
8
BLACK
6
CONTINUOUS
10
206.033143999999993
20
-87.0275589999999966
11
205.9855249999999955
21
-87.075177999999994
0
LINE
8
BLACK
6
CONTINUOUS
10
205.9855249999999955
20
-87.075177999999994
11
205.9797749999999894
21
-87.0798959999999909
0
LINE
8
BLACK
6
CONTINUOUS
10
205.9797749999999894
20
-87.0798959999999909
11
205.9784760000000006
21
-87.0813950000000006
0
LINE
8
BLACK
6
CONTINUOUS
10
205.9784760000000006
20
-87.0813950000000006
11
205.9762159999999938
21
-87.082815999999994
0
LINE
8
BLACK
6
CONTINUOUS
10
205.9762159999999938
20
-87.082815999999994
11
205.9741599999999835
21
-87.0845049999999929
0
LINE
8
BLACK
6
CONTINUOUS
10
205.9741599999999835
20
-87.0845049999999929
11
205.9723319999999944
21
-87.0852620000000002
0
LINE
8
BLACK
6
CONTINUOUS
10
205.9723319999999944
20
-87.0852620000000002
11
205.9660329999999817
21
-87.089226999999994
0
LINE
8
BLACK
6
CONTINUOUS
10
205.9660329999999817
20
-87.089226999999994
11
205.8707949999999869
21
-87.1368459999999914
0
LINE
8
BLACK
6
CONTINUOUS
10
205.8707949999999869
20
-87.1368459999999914
11
205.8570629999999824
21
-87.1421009999999967
0
LINE
8
BLACK
6
CONTINUOUS
10
205.8570629999999824
20
-87.1421009999999967
11
205.8543750000000045
21
-87.1422910000000002
0
LINE
8
BLACK
6
CONTINUOUS
10
205.8543750000000045
20
-87.1422910000000002
11
205.851885999999979
21
-87.1433229999999952
0
LINE
8
BLACK
6
CONTINUOUS
10
205.851885999999979
20
-87.1433229999999952
11
205.8372540000000015
21
-87.144763999999995
0
LINE
8
BLACK
6
CONTINUOUS
10
205.8372540000000015
20
-87.144763999999995
11
205.7420159999999782
21
-87.144763999999995
0
LINE
8
BLACK
6
CONTINUOUS
10
205.7420159999999782
20
-87.144763999999995
11
205.7273840000000007
21
-87.1433229999999952
0
LINE
8
BLACK
6
CONTINUOUS
10
205.7273840000000007
20
-87.1433229999999952
11
205.7248950000000036
21
-87.1422919999999976
0
LINE
8
BLACK
6
CONTINUOUS
10
205.7248950000000036
20
-87.1422919999999976
11
205.7222059999999999
21
-87.1421009999999967
0
LINE
8
BLACK
6
CONTINUOUS
10
205.7222059999999999
20
-87.1421009999999967
11
205.7084749999999929
21
-87.1368459999999914
0
LINE
8
BLACK
6
CONTINUOUS
10
205.7084749999999929
20
-87.1368459999999914
11
205.613236999999998
21
-87.089226999999994
0
LINE
8
BLACK
6
CONTINUOUS
10
205.613236999999998
20
-87.089226999999994
11
205.6069369999999878
21
-87.0852620000000002
0
LINE
8
BLACK
6
CONTINUOUS
10
205.6069369999999878
20
-87.0852620000000002
11
205.6051099999999963
21
-87.0845049999999929
0
LINE
8
BLACK
6
CONTINUOUS
10
205.6051099999999963
20
-87.0845049999999929
11
205.6030529999999885
21
-87.082815999999994
0
LINE
8
BLACK
6
CONTINUOUS
10
205.6030529999999885
20
-87.082815999999994
11
205.6007939999999792
21
-87.0813950000000006
0
LINE
8
BLACK
6
CONTINUOUS
10
205.6007939999999792
20
-87.0813950000000006
11
205.5994939999999929
21
-87.0798959999999909
0
LINE
8
BLACK
6
CONTINUOUS
10
205.5994939999999929
20
-87.0798959999999909
11
205.5937449999999842
21
-87.075177999999994
0
LINE
8
BLACK
6
CONTINUOUS
10
205.5937449999999842
20
-87.075177999999994
11
205.5461259999999868
21
-87.0275589999999966
0
LINE
8
BLACK
6
CONTINUOUS
10
205.5461259999999868
20
-87.0275589999999966
11
205.5414069999999924
21
-87.0218089999999904
0
LINE
8
BLACK
6
CONTINUOUS
10
205.5414069999999924
20
-87.0218089999999904
11
205.5399089999999944
21
-87.0205100000000016
0
LINE
8
BLACK
6
CONTINUOUS
10
205.5399089999999944
20
-87.0205100000000016
11
205.5384870000000035
21
-87.0182499999999948
0
LINE
8
BLACK
6
CONTINUOUS
10
205.5384870000000035
20
-87.0182499999999948
11
205.536799000000002
21
-87.0161939999999987
0
LINE
8
BLACK
6
CONTINUOUS
10
205.536799000000002
20
-87.0161939999999987
11
205.5360409999999831
21
-87.0143659999999954
0
LINE
8
BLACK
6
CONTINUOUS
10
205.5360409999999831
20
-87.0143659999999954
11
205.5320769999999868
21
-87.0080669999999969
0
LINE
8
BLACK
6
CONTINUOUS
10
205.5320769999999868
20
-87.0080669999999969
11
205.4844579999999894
21
-86.9128290000000021
0
LINE
8
BLACK
6
CONTINUOUS
10
205.4844579999999894
20
-86.9128290000000021
11
205.4840480000000014
21
-86.9117589999999893
0
LINE
8
BLACK
6
CONTINUOUS
10
205.4840480000000014
20
-86.9117589999999893
11
205.4837259999999901
21
-86.9113239999999934
0
LINE
8
BLACK
6
CONTINUOUS
10
205.4837259999999901
20
-86.9113239999999934
11
205.4815299999999922
21
-86.9051779999999923
0
LINE
8
BLACK
6
CONTINUOUS
10
205.4815299999999922
20
-86.9051779999999923
11
205.4792029999999841
21
-86.8990969999999976
0
LINE
8
BLACK
6
CONTINUOUS
10
205.4792029999999841
20
-86.8990969999999976
11
205.4791639999999973
21
-86.8985569999999967
0
LINE
8
BLACK
6
CONTINUOUS
10
205.4791639999999973
20
-86.8985569999999967
11
205.478779000000003
21
-86.8974779999999924
0
LINE
8
BLACK
6
CONTINUOUS
10
205.478779000000003
20
-86.8974779999999924
11
205.4331559999999968
21
-86.7149879999999911
0
LINE
8
BLACK
6
CONTINUOUS
10
205.4331559999999968
20
-86.7149879999999911
11
205.39466299999998
21
-86.6380010000000027
0
LINE
8
BLACK
6
CONTINUOUS
10
205.39466299999998
20
-86.6380010000000027
11
205.3642559999999833
21
-86.6075939999999918
0
LINE
8
BLACK
6
CONTINUOUS
10
205.3642559999999833
20
-86.6075939999999918
11
205.295739999999995
21
-86.5733359999999976
0
LINE
8
BLACK
6
CONTINUOUS
10
205.295739999999995
20
-86.5733359999999976
11
205.2359119999999848
21
-86.5733359999999976
0
LINE
8
BLACK
6
CONTINUOUS
10
205.2359119999999848
20
-86.5733359999999976
11
205.1673959999999965
21
-86.6075939999999918
0
LINE
8
BLACK
6
CONTINUOUS
10
205.1673959999999965
20
-86.6075939999999918
11
205.1369880000000023
21
-86.6380010000000027
0
LINE
8
BLACK
6
CONTINUOUS
10
205.1369880000000023
20
-86.6380010000000027
11
205.1027299999999798
21
-86.7065180000000026
0
LINE
8
BLACK
6
CONTINUOUS
10
205.1027299999999798
20
-86.7065180000000026
11
205.1027299999999798
21
-86.9147349999999932
0
LINE
8
BLACK
6
CONTINUOUS
10
205.1027299999999798
20
-86.9147349999999932
11
205.1465010000000007
21
-87.0460470000000015
0
LINE
8
BLACK
6
CONTINUOUS
10
205.1465010000000007
20
-87.0460470000000015
11
205.1497609999999838
21
-87.0603830000000016
0
LINE
8
BLACK
6
CONTINUOUS
10
205.1497609999999838
20
-87.0603830000000016
11
205.1476869999999906
21
-87.0895730000000015
0
LINE
8
BLACK
6
CONTINUOUS
10
205.1476869999999906
20
-87.0895730000000015
11
205.1345999999999776
21
-87.1157469999999989
0
LINE
8
BLACK
6
CONTINUOUS
10
205.1345999999999776
20
-87.1157469999999989
11
205.1124930000000006
21
-87.1349209999999914
0
LINE
8
BLACK
6
CONTINUOUS
10
205.1124930000000006
20
-87.1349209999999914
11
205.0847309999999766
21
-87.14417499999999
0
LINE
8
BLACK
6
CONTINUOUS
10
205.0847309999999766
20
-87.14417499999999
11
205.0555409999999767
21
-87.1421009999999967
0
LINE
8
BLACK
6
CONTINUOUS
10
205.0555409999999767
20
-87.1421009999999967
11
205.0293669999999793
21
-87.129013999999998
0
LINE
8
BLACK
6
CONTINUOUS
10
205.0293669999999793
20
-87.129013999999998
11
205.0101929999999868
21
-87.1069069999999925
0
LINE
8
BLACK
6
CONTINUOUS
10
205.0101929999999868
20
-87.1069069999999925
11
205.0041989999999998
21
-87.0934819999999945
0
LINE
8
BLACK
6
CONTINUOUS
10
205.0041989999999998
20
-87.0934819999999945
11
204.9565789999999765
21
-86.9506250000000023
0
LINE
8
BLACK
6
CONTINUOUS
10
204.9565789999999765
20
-86.9506250000000023
11
204.9549289999999928
21
-86.9433689999999899
0
LINE
8
BLACK
6
CONTINUOUS
10
204.9549289999999928
20
-86.9433689999999899
11
204.9541710000000023
21
-86.9415389999999917
0
LINE
8
BLACK
6
CONTINUOUS
10
204.9541710000000023
20
-86.9415389999999917
11
204.9539089999999817
21
-86.9388849999999991
0
LINE
8
BLACK
6
CONTINUOUS
10
204.9539089999999817
20
-86.9388849999999991
11
204.9533189999999934
21
-86.9362879999999905
0
LINE
8
BLACK
6
CONTINUOUS
10
204.9533189999999934
20
-86.9362879999999905
11
204.953458999999981
21
-86.9343119999999914
0
LINE
8
BLACK
6
CONTINUOUS
10
204.953458999999981
20
-86.9343119999999914
11
204.9527300000000025
21
-86.9269069999999999
0
LINE
8
BLACK
6
CONTINUOUS
10
204.9527300000000025
20
-86.9269069999999999
11
204.9527300000000025
21
-86.6888119999999986
0
LINE
8
BLACK
6
CONTINUOUS
10
204.9527300000000025
20
-86.6888119999999986
11
204.9541710000000023
21
-86.6741799999999927
0
LINE
8
BLACK
6
CONTINUOUS
10
204.9541710000000023
20
-86.6741799999999927
11
204.9552009999999882
21
-86.6716909999999956
0
LINE
8
BLACK
6
CONTINUOUS
10
204.9552009999999882
20
-86.6716909999999956
11
204.9553929999999866
21
-86.6690019999999919
0
LINE
8
BLACK
6
CONTINUOUS
10
204.9553929999999866
20
-86.6690019999999919
11
204.960647999999992
21
-86.6552700000000016
0
LINE
8
BLACK
6
CONTINUOUS
10
204.960647999999992
20
-86.6552700000000016
11
205.0082679999999868
21
-86.5600319999999925
0
LINE
8
BLACK
6
CONTINUOUS
10
205.0082679999999868
20
-86.5600319999999925
11
205.0122329999999806
21
-86.553732999999994
0
LINE
8
BLACK
6
CONTINUOUS
10
205.0122329999999806
20
-86.553732999999994
11
205.0129900000000021
21
-86.5519060000000025
0
LINE
8
BLACK
6
CONTINUOUS
10
205.0129900000000021
20
-86.5519060000000025
11
205.0146780000000035
21
-86.5498479999999972
0
LINE
8
BLACK
6
CONTINUOUS
10
205.0146780000000035
20
-86.5498479999999972
11
205.0161009999999919
21
-86.5475890000000021
0
LINE
8
BLACK
6
CONTINUOUS
10
205.0161009999999919
20
-86.5475890000000021
11
205.0175989999999899
21
-86.5462890000000016
0
LINE
8
BLACK
6
CONTINUOUS
10
205.0175989999999899
20
-86.5462890000000016
11
205.0223169999999868
21
-86.5405409999999904
0
LINE
8
BLACK
6
CONTINUOUS
10
205.0223169999999868
20
-86.5405409999999904
11
205.0699359999999842
21
-86.492921999999993
0
LINE
8
BLACK
6
CONTINUOUS
10
205.0699359999999842
20
-86.492921999999993
11
205.0756849999999929
21
-86.4882029999999986
0
LINE
8
BLACK
6
CONTINUOUS
10
205.0756849999999929
20
-86.4882029999999986
11
205.0769849999999792
21
-86.4867050000000006
0
LINE
8
BLACK
6
CONTINUOUS
10
205.0769849999999792
20
-86.4867050000000006
11
205.0792439999999885
21
-86.4852829999999955
0
LINE
8
BLACK
6
CONTINUOUS
10
205.0792439999999885
20
-86.4852829999999955
11
205.0813009999999963
21
-86.483594999999994
0
LINE
8
BLACK
6
CONTINUOUS
10
205.0813009999999963
20
-86.483594999999994
11
205.0831279999999879
21
-86.4828369999999893
0
LINE
8
BLACK
6
CONTINUOUS
10
205.0831279999999879
20
-86.4828369999999893
11
205.0894279999999981
21
-86.478872999999993
0
LINE
8
BLACK
6
CONTINUOUS
10
205.0894279999999981
20
-86.478872999999993
11
205.1846659999999929
21
-86.4312539999999956
0
LINE
8
BLACK
6
CONTINUOUS
10
205.1846659999999929
20
-86.4312539999999956
11
205.1983969999999999
21
-86.4259989999999902
0
LINE
8
BLACK
6
CONTINUOUS
10
205.1983969999999999
20
-86.4259989999999902
11
205.2010860000000037
21
-86.4258069999999918
0
LINE
8
BLACK
6
CONTINUOUS
10
205.2010860000000037
20
-86.4258069999999918
11
205.2035750000000007
21
-86.4247769999999917
0
LINE
8
BLACK
6
CONTINUOUS
10
205.2035750000000007
20
-86.4247769999999917
11
205.2182069999999783
21
-86.4233359999999919
0
LINE
8
BLACK
6
CONTINUOUS
10
205.2182069999999783
20
-86.4233359999999919
11
205.3134450000000015
21
-86.4233359999999919
0
LINE
8
BLACK
6
CONTINUOUS
10
205.3134450000000015
20
-86.4233359999999919
11
205.3280769999999791
21
-86.4247769999999917
0
LINE
8
BLACK
6
CONTINUOUS
10
205.3756960000000049
20
-85.4247769999999917
11
205.378185000000002
21
-85.4258079999999893
0
LINE
8
BLACK
6
CONTINUOUS
10
205.378185000000002
20
-85.4258079999999893
11
205.3808729999999798
21
-85.4259989999999902
0
LINE
8
BLACK
6
CONTINUOUS
10
205.3808729999999798
20
-85.4259989999999902
11
205.3946049999999843
21
-85.4312539999999956
0
LINE
8
BLACK
6
CONTINUOUS
10
205.3946049999999843
20
-85.4312539999999956
11
205.4898429999999792
21
-85.478872999999993
0
LINE
8
BLACK
6
CONTINUOUS
10
205.4898429999999792
20
-85.478872999999993
11
205.4961419999999919
21
-85.4828369999999893
0
LINE
8
BLACK
6
CONTINUOUS
10
205.4961419999999919
20
-85.4828369999999893
11
205.4979699999999809
21
-85.483594999999994
0
LINE
8
BLACK
6
CONTINUOUS
10
205.4979699999999809
20
-85.483594999999994
11
205.5000259999999912
21
-85.4852829999999955
0
LINE
8
BLACK
6
CONTINUOUS
10
205.5000259999999912
20
-85.4852829999999955
11
205.502285999999998
21
-85.4867050000000006
0
LINE
8
BLACK
6
CONTINUOUS
10
205.502285999999998
20
-85.4867050000000006
11
205.5035849999999868
21
-85.4882029999999986
0
LINE
8
BLACK
6
CONTINUOUS
10
205.5035849999999868
20
-85.4882029999999986
11
205.509334999999993
21
-85.492921999999993
0
LINE
8
BLACK
6
CONTINUOUS
10
205.509334999999993
20
-85.492921999999993
11
205.5569539999999904
21
-85.5405409999999904
0
LINE
8
BLACK
6
CONTINUOUS
10
205.5569539999999904
20
-85.5405409999999904
11
205.5662810000000036
21
-85.5519060000000025
0
LINE
8
BLACK
6
CONTINUOUS
10
205.5662810000000036
20
-85.5519060000000025
11
205.5673109999999895
21
-85.5543940000000021
0
LINE
8
BLACK
6
CONTINUOUS
10
205.5673109999999895
20
-85.5543940000000021
11
205.5690779999999904
21
-85.5564309999999892
0
LINE
8
BLACK
6
CONTINUOUS
10
205.5690779999999904
20
-85.5564309999999892
11
205.5717870000000005
21
-85.5624979999999908
0
LINE
8
BLACK
6
CONTINUOUS
10
205.5717870000000005
20
-85.5624979999999908
11
205.5937449999999842
21
-85.5405409999999904
0
LINE
8
BLACK
6
CONTINUOUS
10
205.5937449999999842
20
-85.5405409999999904
11
205.5994939999999929
21
-85.535821999999996
0
LINE
8
BLACK
6
CONTINUOUS
10
205.5994939999999929
20
-85.535821999999996
11
205.6007939999999792
21
-85.534323999999998
0
LINE
8
BLACK
6
CONTINUOUS
10
205.6007939999999792
20
-85.534323999999998
11
205.6030529999999885
21
-85.5329019999999929
0
LINE
8
BLACK
6
CONTINUOUS
10
205.6030529999999885
20
-85.5329019999999929
11
205.6051099999999963
21
-85.5312139999999914
0
LINE
8
BLACK
6
CONTINUOUS
10
205.6051099999999963
20
-85.5312139999999914
11
205.6069369999999878
21
-85.5304560000000009
0
LINE
8
BLACK
6
CONTINUOUS
10
205.6069369999999878
20
-85.5304560000000009
11
205.613236999999998
21
-85.5264919999999904
0
LINE
8
BLACK
6
CONTINUOUS
10
205.613236999999998
20
-85.5264919999999904
11
205.7084749999999929
21
-85.478872999999993
0
LINE
8
BLACK
6
CONTINUOUS
10
205.7084749999999929
20
-85.478872999999993
11
205.7222059999999999
21
-85.4736180000000019
0
LINE
8
BLACK
6
CONTINUOUS
10
205.7222059999999999
20
-85.4736180000000019
11
205.7248950000000036
21
-85.4734259999999892
0
LINE
8
BLACK
6
CONTINUOUS
10
205.7248950000000036
20
-85.4734259999999892
11
205.7273840000000007
21
-85.4723959999999892
0
LINE
8
BLACK
6
CONTINUOUS
10
205.7273840000000007
20
-85.4723959999999892
11
205.7420159999999782
21
-85.4709549999999894
0
LINE
8
BLACK
6
CONTINUOUS
10
205.7420159999999782
20
-85.4709549999999894
11
205.8372540000000015
21
-85.4709549999999894
0
LINE
8
BLACK
6
CONTINUOUS
10
205.8372540000000015
20
-85.4709549999999894
11
205.851885999999979
21
-85.4723959999999892
0
LINE
8
BLACK
6
CONTINUOUS
10
205.851885999999979
20
-85.4723959999999892
11
205.8543750000000045
21
-85.4734270000000009
0
LINE
8
BLACK
6
CONTINUOUS
10
205.8543750000000045
20
-85.4734270000000009
11
205.8570629999999824
21
-85.4736180000000019
0
LINE
8
BLACK
6
CONTINUOUS
10
205.8570629999999824
20
-85.4736180000000019
11
205.8707949999999869
21
-85.478872999999993
0
LINE
8
BLACK
6
CONTINUOUS
10
205.8707949999999869
20
-85.478872999999993
11
205.9660329999999817
21
-85.5264919999999904
0
LINE
8
BLACK
6
CONTINUOUS
10
205.9660329999999817
20
-85.5264919999999904
11
205.9723319999999944
21
-85.5304560000000009
0
LINE
8
BLACK
6
CONTINUOUS
10
205.9723319999999944
20
-85.5304560000000009
11
205.9741599999999835
21
-85.5312139999999914
0
LINE
8
BLACK
6
CONTINUOUS
10
205.9741599999999835
20
-85.5312139999999914
11
205.9762159999999938
21
-85.5329019999999929
0
LINE
8
BLACK
6
CONTINUOUS
10
205.9762159999999938
20
-85.5329019999999929
11
205.9784760000000006
21
-85.534323999999998
0
LINE
8
BLACK
6
CONTINUOUS
10
205.9784760000000006
20
-85.534323999999998
11
205.9797749999999894
21
-85.535821999999996
0
LINE
8
BLACK
6
CONTINUOUS
10
205.9797749999999894
20
-85.535821999999996
11
205.9855249999999955
21
-85.5405409999999904
0
LINE
8
BLACK
6
CONTINUOUS
10
205.9855249999999955
20
-85.5405409999999904
11
206.033143999999993
21
-85.588160000000002
0
LINE
8
BLACK
6
CONTINUOUS
10
206.033143999999993
20
-85.588160000000002
11
206.0378619999999898
21
-85.5939089999999965
0
LINE
8
BLACK
6
CONTINUOUS
10
206.0378619999999898
20
-85.5939089999999965
11
206.0393609999999853
21
-85.595208999999997
0
LINE
8
BLACK
6
CONTINUOUS
10
206.0393609999999853
20
-85.595208999999997
11
206.0407819999999788
21
-85.5974679999999921
0
LINE
8
BLACK
6
CONTINUOUS
10
206.0407819999999788
20
-85.5974679999999921
11
206.0424709999999777
21
-85.5995249999999999
0
LINE
8
BLACK
6
CONTINUOUS
10
206.0424709999999777
20
-85.5995249999999999
11
206.0432279999999992
21
-85.6013519999999914
0
LINE
8
BLACK
6
CONTINUOUS
10
206.0432279999999992
20
-85.6013519999999914
11
206.0471929999999929
21
-85.6076520000000016
0
LINE
8
BLACK
6
CONTINUOUS
10
206.0471929999999929
20
-85.6076520000000016
11
206.0948119999999903
21
-85.7028899999999965
0
LINE
8
BLACK
6
CONTINUOUS
10
206.0948119999999903
20
-85.7028899999999965
11
206.1000669999999957
21
-85.7166209999999893
0
LINE
8
BLACK
6
CONTINUOUS
10
206.1000669999999957
20
-85.7166209999999893
11
206.1002579999999966
21
-85.719309999999993
0
LINE
8
BLACK
6
CONTINUOUS
10
206.1002579999999966
20
-85.719309999999993
11
206.10128899999998
21
-85.7217989999999901
0
LINE
8
BLACK
6
CONTINUOUS
10
206.10128899999998
20
-85.7217989999999901
11
206.1027299999999798
21
-85.7364309999999961
0
LINE
8
BLACK
6
CONTINUOUS
10
206.1027299999999798
20
-85.7364309999999961
11
206.1027299999999798
21
-86.0697639999999922
0
LINE
8
BLACK
6
CONTINUOUS
10
206.1027299999999798
20
-86.0697639999999922
11
206.10128899999998
21
-86.0843959999999981
0
LINE
8
BLACK
6
CONTINUOUS
10
206.10128899999998
20
-86.0843959999999981
11
206.0900900000000036
21
-86.1114319999999935
0
LINE
8
BLACK
6
CONTINUOUS
10
206.0900900000000036
20
-86.1114319999999935
11
206.0693979999999783
21
-86.1321239999999904
0
LINE
8
BLACK
6
CONTINUOUS
10
206.0693979999999783
20
-86.1321239999999904
11
206.0423619999999971
21
-86.1433229999999952
0
LINE
8
BLACK
6
CONTINUOUS
10
206.0423619999999971
20
-86.1433229999999952
11
206.0277299999999912
21
-86.144763999999995
0
LINE
8
BLACK
6
CONTINUOUS
10
206.0277299999999912
20
-86.144763999999995
11
205.0277299999999912
21
-86.144763999999995
0
LINE
8
BLACK
6
CONTINUOUS
10
205.0277299999999912
20
-86.144763999999995
11
205.0130979999999852
21
-86.1433229999999952
0
LINE
8
BLACK
6
CONTINUOUS
10
205.0130979999999852
20
-86.1433229999999952
11
204.986062000000004
21
-86.1321239999999904
0
LINE
8
BLACK
6
CONTINUOUS
10
204.986062000000004
20
-86.1321239999999904
11
204.9653699999999787
21
-86.1114319999999935
0
LINE
8
BLACK
6
CONTINUOUS
10
204.9653699999999787
20
-86.1114319999999935
11
204.9541710000000023
21
-86.0843959999999981
0
LINE
8
BLACK
6
CONTINUOUS
10
204.9541710000000023
20
-86.0843959999999981
11
204.9527300000000025
21
-86.0697639999999922
0
LINE
8
BLACK
6
CONTINUOUS
10
204.9527300000000025
20
-86.0697639999999922
11
204.9527300000000025
21
-85.6888119999999986
0
LINE
8
BLACK
6
CONTINUOUS
10
204.9527300000000025
20
-85.6888119999999986
11
204.9541710000000023
21
-85.6741799999999927
0
LINE
8
BLACK
6
CONTINUOUS
10
204.9541710000000023
20
-85.6741799999999927
11
204.9552009999999882
21
-85.6716909999999956
0
LINE
8
BLACK
6
CONTINUOUS
10
204.9552009999999882
20
-85.6716909999999956
11
204.9553929999999866
21
-85.6690019999999919
0
LINE
8
BLACK
6
CONTINUOUS
10
204.9553929999999866
20
-85.6690019999999919
11
204.960647999999992
21
-85.6552700000000016
0
LINE
8
BLACK
6
CONTINUOUS
10
204.960647999999992
20
-85.6552700000000016
11
205.0082679999999868
21
-85.5600319999999925
0
LINE
8
BLACK
6
CONTINUOUS
10
205.0082679999999868
20
-85.5600319999999925
11
205.0122329999999806
21
-85.553732999999994
0
LINE
8
BLACK
6
CONTINUOUS
10
205.0122329999999806
20
-85.553732999999994
11
205.0129900000000021
21
-85.5519060000000025
0
LINE
8
BLACK
6
CONTINUOUS
10
205.0129900000000021
20
-85.5519060000000025
11
205.0146780000000035
21
-85.5498479999999972
0
LINE
8
BLACK
6
CONTINUOUS
10
205.0146780000000035
20
-85.5498479999999972
11
205.0161009999999919
21
-85.5475890000000021
0
LINE
8
BLACK
6
CONTINUOUS
10
205.0161009999999919
20
-85.5475890000000021
11
205.0175989999999899
21
-85.5462890000000016
0
LINE
8
BLACK
6
CONTINUOUS
10
205.0175989999999899
20
-85.5462890000000016
11
205.0223169999999868
21
-85.5405409999999904
0
LINE
8
BLACK
6
CONTINUOUS
10
205.0223169999999868
20
-85.5405409999999904
11
205.0699359999999842
21
-85.492921999999993
0
LINE
8
BLACK
6
CONTINUOUS
10
205.0699359999999842
20
-85.492921999999993
11
205.0756849999999929
21
-85.4882029999999986
0
LINE
8
BLACK
6
CONTINUOUS
10
205.0756849999999929
20
-85.4882029999999986
11
205.0769849999999792
21
-85.4867050000000006
0
LINE
8
BLACK
6
CONTINUOUS
10
205.0769849999999792
20
-85.4867050000000006
11
205.0792439999999885
21
-85.4852829999999955
0
LINE
8
BLACK
6
CONTINUOUS
10
205.0792439999999885
20
-85.4852829999999955
11
205.0813009999999963
21
-85.483594999999994
0
LINE
8
BLACK
6
CONTINUOUS
10
205.0813009999999963
20
-85.483594999999994
11
205.0831279999999879
21
-85.4828369999999893
0
LINE
8
BLACK
6
CONTINUOUS
10
205.0831279999999879
20
-85.4828369999999893
11
205.0894279999999981
21
-85.478872999999993
0
LINE
8
BLACK
6
CONTINUOUS
10
205.0894279999999981
20
-85.478872999999993
11
205.1846659999999929
21
-85.4312539999999956
0
LINE
8
BLACK
6
CONTINUOUS
10
205.1846659999999929
20
-85.4312539999999956
11
205.1983969999999999
21
-85.4259989999999902
0
LINE
8
BLACK
6
CONTINUOUS
10
205.1983969999999999
20
-85.4259989999999902
11
205.2010860000000037
21
-85.4258069999999918
0
LINE
8
BLACK
6
CONTINUOUS
10
205.2010860000000037
20
-85.4258069999999918
11
205.2035750000000007
21
-85.4247769999999917
0
LINE
8
BLACK
6
CONTINUOUS
10
205.2035750000000007
20
-85.4247769999999917
11
205.2182069999999783
21
-85.4233359999999919
0
LINE
8
BLACK
6
CONTINUOUS
10
205.2182069999999783
20
-85.4233359999999919
11
205.3610639999999989
21
-85.4233359999999919
0
LINE
8
BLACK
6
CONTINUOUS
10
205.3610639999999989
20
-85.4233359999999919
11
205.3756960000000049
21
-85.4247769999999917
0
LINE
8
BLACK
6
CONTINUOUS
10
205.1673959999999965
20
-85.6075939999999918
11
205.1369880000000023
21
-85.6380010000000027
0
LINE
8
BLACK
6
CONTINUOUS
10
205.1369880000000023
20
-85.6380010000000027
11
205.1027299999999798
21
-85.7065180000000026
0
LINE
8
BLACK
6
CONTINUOUS
10
205.1027299999999798
20
-85.7065180000000026
11
205.1027299999999798
21
-85.9947639999999893
0
LINE
8
BLACK
6
CONTINUOUS
10
205.1027299999999798
20
-85.9947639999999893
11
205.47654
21
-85.9947639999999893
0
LINE
8
BLACK
6
CONTINUOUS
10
205.47654
20
-85.9947639999999893
11
205.47654
21
-85.7486009999999936
0
LINE
8
BLACK
6
CONTINUOUS
10
205.47654
20
-85.7486009999999936
11
205.4383689999999945
21
-85.6340879999999913
0
LINE
8
BLACK
6
CONTINUOUS
10
205.4383689999999945
20
-85.6340879999999913
11
205.4118749999999807
21
-85.6075939999999918
0
LINE
8
BLACK
6
CONTINUOUS
10
205.4118749999999807
20
-85.6075939999999918
11
205.3433589999999924
21
-85.5733359999999976
0
LINE
8
BLACK
6
CONTINUOUS
10
205.3433589999999924
20
-85.5733359999999976
11
205.2359119999999848
21
-85.5733359999999976
0
LINE
8
BLACK
6
CONTINUOUS
10
205.2359119999999848
20
-85.5733359999999976
11
205.1673959999999965
21
-85.6075939999999918
0
LINE
8
BLACK
6
CONTINUOUS
10
205.6912049999999965
20
-85.6552129999999892
11
205.6607979999999998
21
-85.6856200000000001
0
LINE
8
BLACK
6
CONTINUOUS
10
205.6607979999999998
20
-85.6856200000000001
11
205.6265399999999772
21
-85.7541360000000026
0
LINE
8
BLACK
6
CONTINUOUS
10
205.6265399999999772
20
-85.7541360000000026
11
205.6265399999999772
21
-85.9947639999999893
0
LINE
8
BLACK
6
CONTINUOUS
10
205.6265399999999772
20
-85.9947639999999893
11
205.9527300000000025
21
-85.9947639999999893
0
LINE
8
BLACK
6
CONTINUOUS
10
205.9527300000000025
20
-85.9947639999999893
11
205.9527300000000025
21
-85.7541360000000026
0
LINE
8
BLACK
6
CONTINUOUS
10
205.9527300000000025
20
-85.7541360000000026
11
205.91847199999998
21
-85.6856200000000001
0
LINE
8
BLACK
6
CONTINUOUS
10
205.91847199999998
20
-85.6856200000000001
11
205.8880649999999832
21
-85.6552129999999892
0
LINE
8
BLACK
6
CONTINUOUS
10
205.8880649999999832
20
-85.6552129999999892
11
205.819548999999995
21
-85.620954999999995
0
LINE
8
BLACK
6
CONTINUOUS
10
205.819548999999995
20
-85.620954999999995
11
205.7597209999999848
21
-85.620954999999995
0
LINE
8
BLACK
6
CONTINUOUS
10
205.7597209999999848
20
-85.620954999999995
11
205.6912049999999965
21
-85.6552129999999892
0
LINE
8
BLACK
6
CONTINUOUS
10
201.1554329999999879
20
-85.027039000000002
11
201.1599999999999966
21
-85.0499999999999972
0
LINE
8
BLACK
6
CONTINUOUS
10
201.1599999999999966
20
-85.0499999999999972
11
201.1599999999999966
21
-85.75
0
LINE
8
BLACK
6
CONTINUOUS
10
201.1599999999999966
20
-85.75
11
201.1554329999999879
21
-85.7729609999999951
0
LINE
8
BLACK
6
CONTINUOUS
10
201.1554329999999879
20
-85.7729609999999951
11
201.1229610000000037
21
-85.8054329999999936
0
LINE
8
BLACK
6
CONTINUOUS
10
201.1229610000000037
20
-85.8054329999999936
11
201.077038999999985
21
-85.8054329999999936
0
LINE
8
BLACK
6
CONTINUOUS
10
201.077038999999985
20
-85.8054329999999936
11
201.0445670000000007
21
-85.7729609999999951
0
LINE
8
BLACK
6
CONTINUOUS
10
201.0445670000000007
20
-85.7729609999999951
11
201.039999999999992
21
-85.75
0
LINE
8
BLACK
6
CONTINUOUS
10
201.039999999999992
20
-85.75
11
201.039999999999992
21
-85.0499999999999972
0
LINE
8
BLACK
6
CONTINUOUS
10
201.039999999999992
20
-85.0499999999999972
11
201.0445670000000007
21
-85.027039000000002
0
LINE
8
BLACK
6
CONTINUOUS
10
201.0445670000000007
20
-85.027039000000002
11
201.077038999999985
21
-84.9945669999999893
0
LINE
8
BLACK
6
CONTINUOUS
10
201.077038999999985
20
-84.9945669999999893
11
201.1229610000000037
21
-84.9945669999999893
0
LINE
8
BLACK
6
CONTINUOUS
10
201.1229610000000037
20
-84.9945669999999893
11
201.1554329999999879
21
-85.027039000000002
0
LINE
8
BLACK
6
CONTINUOUS
10
206.4970589999999788
20
-77.5548799999999972
11
206.5331070000000011
21
-77.5698119999999989
0
LINE
8
BLACK
6
CONTINUOUS
10
206.5331070000000011
20
-77.5698119999999989
11
206.5606970000000047
21
-77.5974020000000024
0
LINE
8
BLACK
6
CONTINUOUS
10
206.5606970000000047
20
-77.5974020000000024
11
206.5756289999999922
21
-77.6334499999999963
0
LINE
8
BLACK
6
CONTINUOUS
10
206.5756289999999922
20
-77.6334499999999963
11
206.5775500000000022
21
-77.6529589999999956
0
LINE
8
BLACK
6
CONTINUOUS
10
206.5775500000000022
20
-77.6529589999999956
11
206.5775500000000022
21
-82.0053999999999945
0
LINE
8
BLACK
6
CONTINUOUS
10
206.5775500000000022
20
-82.0053999999999945
11
206.9891590000000008
21
-82.0053999999999945
0
LINE
8
BLACK
6
CONTINUOUS
10
206.9891590000000008
20
-82.0053999999999945
11
207.0082929999999806
21
-82.0092059999999918
0
LINE
8
BLACK
6
CONTINUOUS
10
207.0082929999999806
20
-82.0092059999999918
11
207.0353529999999864
21
-82.0362659999999977
0
LINE
8
BLACK
6
CONTINUOUS
10
207.0353529999999864
20
-82.0362659999999977
11
207.0391589999999837
21
-82.0553999999999917
0
LINE
8
BLACK
6
CONTINUOUS
10
207.0391589999999837
20
-82.0553999999999917
11
207.0391589999999837
21
-91.5553999999999917
0
LINE
8
BLACK
6
CONTINUOUS
10
207.0391589999999837
20
-91.5553999999999917
11
207.0353529999999864
21
-91.5745339999999999
0
LINE
8
BLACK
6
CONTINUOUS
10
207.0353529999999864
20
-91.5745339999999999
11
207.0082929999999806
21
-91.6015939999999915
0
LINE
8
BLACK
6
CONTINUOUS
10
207.0082929999999806
20
-91.6015939999999915
11
206.9891590000000008
21
-91.6053999999999888
0
LINE
8
BLACK
6
CONTINUOUS
10
206.9891590000000008
20
-91.6053999999999888
11
206.5775500000000022
21
-91.6053999999999888
0
LINE
8
BLACK
6
CONTINUOUS
10
206.5775500000000022
20
-91.6053999999999888
11
206.5775500000000022
21
-95.6978599999999915
0
LINE
8
BLACK
6
CONTINUOUS
10
206.5775500000000022
20
-95.6978599999999915
11
206.5756289999999922
21
-95.7173689999999908
0
LINE
8
BLACK
6
CONTINUOUS
10
206.5756289999999922
20
-95.7173689999999908
11
206.5606970000000047
21
-95.7534169999999989
0
LINE
8
BLACK
6
CONTINUOUS
10
206.5606970000000047
20
-95.7534169999999989
11
206.5331070000000011
21
-95.7810070000000024
0
LINE
8
BLACK
6
CONTINUOUS
10
206.5331070000000011
20
-95.7810070000000024
11
206.4970589999999788
21
-95.79593899999999
0
LINE
8
BLACK
6
CONTINUOUS
10
206.4970589999999788
20
-95.79593899999999
11
206.4775499999999795
21
-95.79786
0
LINE
8
BLACK
6
CONTINUOUS
10
206.4775499999999795
20
-95.79786
11
173.1391689999999812
21
-95.79786
0
LINE
8
BLACK
6
CONTINUOUS
10
173.1391689999999812
20
-95.79786
11
173.1196599999999819
21
-95.79593899999999
0
LINE
8
BLACK
6
CONTINUOUS
10
173.1196599999999819
20
-95.79593899999999
11
173.083611999999988
21
-95.7810070000000024
0
LINE
8
BLACK
6
CONTINUOUS
10
173.083611999999988
20
-95.7810070000000024
11
173.0560219999999845
21
-95.7534169999999989
0
LINE
8
BLACK
6
CONTINUOUS
10
173.0560219999999845
20
-95.7534169999999989
11
173.041089999999997
21
-95.7173689999999908
0
LINE
8
BLACK
6
CONTINUOUS
10
173.041089999999997
20
-95.7173689999999908
11
173.0391689999999869
21
-95.6978599999999915
0
LINE
8
BLACK
6
CONTINUOUS
10
173.0391689999999869
20
-95.6978599999999915
11
173.0391689999999869
21
-77.6529589999999956
0
LINE
8
BLACK
6
CONTINUOUS
10
173.0391689999999869
20
-77.6529589999999956
11
173.041089999999997
21
-77.6334499999999963
0
LINE
8
BLACK
6
CONTINUOUS
10
173.041089999999997
20
-77.6334499999999963
11
173.0560219999999845
21
-77.5974020000000024
0
LINE
8
BLACK
6
CONTINUOUS
10
173.0560219999999845
20
-77.5974020000000024
11
173.083611999999988
21
-77.5698119999999989
0
LINE
8
BLACK
6
CONTINUOUS
10
173.083611999999988
20
-77.5698119999999989
11
173.1196599999999819
21
-77.5548799999999972
0
LINE
8
BLACK
6
CONTINUOUS
10
173.1196599999999819
20
-77.5548799999999972
11
173.1391689999999812
21
-77.5529590000000013
0
LINE
8
BLACK
6
CONTINUOUS
10
173.1391689999999812
20
-77.5529590000000013
11
206.4775499999999795
21
-77.5529590000000013
0
LINE
8
BLACK
6
CONTINUOUS
10
206.4775499999999795
20
-77.5529590000000013
11
206.4970589999999788
21
-77.5548799999999972
0
LINE
8
BLACK
6
CONTINUOUS
10
173.239169000000004
20
-77.7529589999999899
11
173.239169000000004
21
-95.5978599999999972
0
LINE
8
BLACK
6
CONTINUOUS
10
173.239169000000004
20
-95.5978599999999972
11
206.3775499999999852
21
-95.5978599999999972
0
LINE
8
BLACK
6
CONTINUOUS
10
206.3775499999999852
20
-95.5978599999999972
11
206.3775499999999852
21
-91.6053999999999888
0
LINE
8
BLACK
6
CONTINUOUS
10
206.3775499999999852
20
-91.6053999999999888
11
200.4891590000000008
21
-91.6053999999999888
0
LINE
8
BLACK
6
CONTINUOUS
10
200.4891590000000008
20
-91.6053999999999888
11
200.4700249999999926
21
-91.6015939999999915
0
LINE
8
BLACK
6
CONTINUOUS
10
200.4700249999999926
20
-91.6015939999999915
11
200.4429649999999867
21
-91.5745339999999999
0
LINE
8
BLACK
6
CONTINUOUS
10
200.4429649999999867
20
-91.5745339999999999
11
200.4391589999999894
21
-91.5553999999999917
0
LINE
8
BLACK
6
CONTINUOUS
10
200.4391589999999894
20
-91.5553999999999917
11
200.4391589999999894
21
-82.0553999999999917
0
LINE
8
BLACK
6
CONTINUOUS
10
200.4391589999999894
20
-82.0553999999999917
11
200.4429649999999867
21
-82.0362659999999977
0
LINE
8
BLACK
6
CONTINUOUS
10
200.4429649999999867
20
-82.0362659999999977
11
200.4700249999999926
21
-82.0092059999999918
0
LINE
8
BLACK
6
CONTINUOUS
10
200.4700249999999926
20
-82.0092059999999918
11
200.4891590000000008
21
-82.0053999999999945
0
LINE
8
BLACK
6
CONTINUOUS
10
200.4891590000000008
20
-82.0053999999999945
11
201.066205999999994
21
-82.0053999999999945
0
LINE
8
BLACK
6
CONTINUOUS
10
201.066205999999994
20
-82.0053999999999945
11
201.077038999999985
21
-81.9945669999999893
0
LINE
8
BLACK
6
CONTINUOUS
10
201.077038999999985
20
-81.9945669999999893
11
201.0999999999999943
21
-81.9899999999999949
0
LINE
8
BLACK
6
CONTINUOUS
10
201.0999999999999943
20
-81.9899999999999949
11
203.3999999999999773
21
-81.9899999999999949
0
LINE
8
BLACK
6
CONTINUOUS
10
203.3999999999999773
20
-81.9899999999999949
11
203.4229609999999866
21
-81.9945669999999893
0
LINE
8
BLACK
6
CONTINUOUS
10
203.4229609999999866
20
-81.9945669999999893
11
203.4337939999999776
21
-82.0053999999999945
0
LINE
8
BLACK
6
CONTINUOUS
10
203.4337939999999776
20
-82.0053999999999945
11
206.3775499999999852
21
-82.0053999999999945
0
LINE
8
BLACK
6
CONTINUOUS
10
206.3775499999999852
20
-82.0053999999999945
11
206.3775499999999852
21
-77.7529589999999899
0
LINE
8
BLACK
6
CONTINUOUS
10
206.3775499999999852
20
-77.7529589999999899
11
173.239169000000004
21
-77.7529589999999899
0
LINE
8
BLACK
6
CONTINUOUS
10
203.4229939999999885
20
-82.105400000000003
11
203.4229609999999866
21
-82.1054329999999908
0
LINE
8
BLACK
6
CONTINUOUS
10
203.4229609999999866
20
-82.1054329999999908
11
203.3999999999999773
21
-82.1099999999999994
0
LINE
8
BLACK
6
CONTINUOUS
10
203.3999999999999773
20
-82.1099999999999994
11
201.1599999999999966
21
-82.1099999999999994
0
LINE
8
BLACK
6
CONTINUOUS
10
201.1599999999999966
20
-82.1099999999999994
11
201.1599999999999966
21
-83.25
0
LINE
8
BLACK
6
CONTINUOUS
10
201.1599999999999966
20
-83.25
11
201.1554329999999879
21
-83.2729609999999951
0
LINE
8
BLACK
6
CONTINUOUS
10
201.1554329999999879
20
-83.2729609999999951
11
201.1229610000000037
21
-83.3054329999999936
0
LINE
8
BLACK
6
CONTINUOUS
10
201.1229610000000037
20
-83.3054329999999936
11
201.077038999999985
21
-83.3054329999999936
0
LINE
8
BLACK
6
CONTINUOUS
10
201.077038999999985
20
-83.3054329999999936
11
201.0445670000000007
21
-83.2729609999999951
0
LINE
8
BLACK
6
CONTINUOUS
10
201.0445670000000007
20
-83.2729609999999951
11
201.039999999999992
21
-83.25
0
LINE
8
BLACK
6
CONTINUOUS
10
201.039999999999992
20
-83.25
11
201.039999999999992
21
-82.105400000000003
0
LINE
8
BLACK
6
CONTINUOUS
10
201.039999999999992
20
-82.105400000000003
11
200.5391589999999837
21
-82.105400000000003
0
LINE
8
BLACK
6
CONTINUOUS
10
200.5391589999999837
20
-82.105400000000003
11
200.5391589999999837
21
-91.5053999999999945
0
LINE
8
BLACK
6
CONTINUOUS
10
200.5391589999999837
20
-91.5053999999999945
11
206.3775499999999852
21
-91.5053999999999945
0
LINE
8
BLACK
6
CONTINUOUS
10
206.3775499999999852
20
-91.5053999999999945
11
206.3775499999999852
21
-82.105400000000003
0
LINE
8
BLACK
6
CONTINUOUS
10
206.3775499999999852
20
-82.105400000000003
11
203.4229939999999885
21
-82.105400000000003
0
LINE
8
BLACK
6
CONTINUOUS
10
206.5775500000000022
20
-82.105400000000003
11
206.5775500000000022
21
-91.5053999999999945
0
LINE
8
BLACK
6
CONTINUOUS
10
206.5775500000000022
20
-91.5053999999999945
11
206.9391589999999894
21
-91.5053999999999945
0
LINE
8
BLACK
6
CONTINUOUS
10
206.9391589999999894
20
-91.5053999999999945
11
206.9391589999999894
21
-82.105400000000003
0
LINE
8
BLACK
6
CONTINUOUS
10
206.9391589999999894
20
-82.105400000000003
11
206.5775500000000022
21
-82.105400000000003
0
LINE
8
BLACK
6
CONTINUOUS
10
168.0987120000000061
20
-93.9492529999999988
11
168.1015579999999829
21
-93.9635609999999986
0
LINE
8
BLACK
6
CONTINUOUS
10
168.1015579999999829
20
-93.9635609999999986
11
168.1015579999999829
21
-94.4939119999999946
0
LINE
8
BLACK
6
CONTINUOUS
10
168.1015579999999829
20
-94.4939119999999946
11
168.3074859999999831
21
-94.4939119999999946
0
LINE
8
BLACK
6
CONTINUOUS
10
168.3074859999999831
20
-94.4939119999999946
11
168.3217939999999828
21
-94.4967579999999998
0
LINE
8
BLACK
6
CONTINUOUS
10
168.3217939999999828
20
-94.4967579999999998
11
168.3420289999999966
21
-94.5169929999999994
0
LINE
8
BLACK
6
CONTINUOUS
10
168.3420289999999966
20
-94.5169929999999994
11
168.3420289999999966
21
-94.5456089999999989
0
LINE
8
BLACK
6
CONTINUOUS
10
168.3420289999999966
20
-94.5456089999999989
11
168.3217939999999828
21
-94.5658439999999985
0
LINE
8
BLACK
6
CONTINUOUS
10
168.3217939999999828
20
-94.5658439999999985
11
168.3074859999999831
21
-94.5686899999999895
0
LINE
8
BLACK
6
CONTINUOUS
10
168.3074859999999831
20
-94.5686899999999895
11
168.1015579999999829
21
-94.5686899999999895
0
LINE
8
BLACK
6
CONTINUOUS
10
168.1015579999999829
20
-94.5686899999999895
11
168.1015579999999829
21
-95.0990419999999972
0
LINE
8
BLACK
6
CONTINUOUS
10
168.1015579999999829
20
-95.0990419999999972
11
168.0987120000000061
21
-95.113349999999997
0
LINE
8
BLACK
6
CONTINUOUS
10
168.0987120000000061
20
-95.113349999999997
11
168.0784769999999924
21
-95.1335849999999965
0
LINE
8
BLACK
6
CONTINUOUS
10
168.0784769999999924
20
-95.1335849999999965
11
168.0498609999999928
21
-95.1335849999999965
0
LINE
8
BLACK
6
CONTINUOUS
10
168.0498609999999928
20
-95.1335849999999965
11
168.0296259999999791
21
-95.113349999999997
0
LINE
8
BLACK
6
CONTINUOUS
10
168.0296259999999791
20
-95.113349999999997
11
168.0267800000000022
21
-95.0990419999999972
0
LINE
8
BLACK
6
CONTINUOUS
10
168.0267800000000022
20
-95.0990419999999972
11
168.0267800000000022
21
-94.5686899999999895
0
LINE
8
BLACK
6
CONTINUOUS
10
168.0267800000000022
20
-94.5686899999999895
11
167.3049849999999878
21
-94.5686899999999895
0
LINE
8
BLACK
6
CONTINUOUS
10
167.3049849999999878
20
-94.5686899999999895
11
167.6941099999999949
21
-95.7360649999999964
0
LINE
8
BLACK
6
CONTINUOUS
10
167.6941099999999949
20
-95.7360649999999964
11
167.6959349999999915
21
-95.7505389999999892
0
LINE
8
BLACK
6
CONTINUOUS
10
167.6959349999999915
20
-95.7505389999999892
11
167.6831369999999879
21
-95.7761349999999965
0
LINE
8
BLACK
6
CONTINUOUS
10
167.6831369999999879
20
-95.7761349999999965
11
167.6559900000000027
21
-95.785184000000001
0
LINE
8
BLACK
6
CONTINUOUS
10
167.6559900000000027
20
-95.785184000000001
11
167.6303939999999955
21
-95.7723859999999974
0
LINE
8
BLACK
6
CONTINUOUS
10
167.6303939999999955
20
-95.7723859999999974
11
167.6231699999999876
21
-95.7597119999999933
0
LINE
8
BLACK
6
CONTINUOUS
10
167.6231699999999876
20
-95.7597119999999933
11
167.2176409999999862
21
-94.5431239999999917
0
LINE
8
BLACK
6
CONTINUOUS
10
167.2176409999999862
20
-94.5431239999999917
11
167.2158159999999896
21
-94.5286509999999964
0
LINE
8
BLACK
6
CONTINUOUS
10
167.2158159999999896
20
-94.5286509999999964
11
167.2185680000000048
21
-94.5231469999999945
0
LINE
8
BLACK
6
CONTINUOUS
10
167.2185680000000048
20
-94.5231469999999945
11
167.2185680000000048
21
-94.5169929999999994
0
LINE
8
BLACK
6
CONTINUOUS
10
167.2185680000000048
20
-94.5169929999999994
11
167.2247219999999857
21
-94.5108389999999901
0
LINE
8
BLACK
6
CONTINUOUS
10
167.2247219999999857
20
-94.5108389999999901
11
167.2286139999999932
21
-94.5030549999999891
0
LINE
8
BLACK
6
CONTINUOUS
10
167.2286139999999932
20
-94.5030549999999891
11
167.2344520000000045
21
-94.5011089999999996
0
LINE
8
BLACK
6
CONTINUOUS
10
167.2344520000000045
20
-94.5011089999999996
11
167.2388029999999901
21
-94.4967579999999998
0
LINE
8
BLACK
6
CONTINUOUS
10
167.2388029999999901
20
-94.4967579999999998
11
167.2531109999999899
21
-94.4939119999999946
0
LINE
8
BLACK
6
CONTINUOUS
10
167.2531109999999899
20
-94.4939119999999946
11
168.0267800000000022
21
-94.4939119999999946
0
LINE
8
BLACK
6
CONTINUOUS
10
168.0267800000000022
20
-94.4939119999999946
11
168.0267800000000022
21
-93.9635609999999986
0
LINE
8
BLACK
6
CONTINUOUS
10
168.0267800000000022
20
-93.9635609999999986
11
168.0296259999999791
21
-93.9492529999999988
0
LINE
8
BLACK
6
CONTINUOUS
10
168.0296259999999791
20
-93.9492529999999988
11
168.0498609999999928
21
-93.9290179999999992
0
LINE
8
BLACK
6
CONTINUOUS
10
168.0498609999999928
20
-93.9290179999999992
11
168.0784769999999924
21
-93.9290179999999992
0
LINE
8
BLACK
6
CONTINUOUS
10
168.0784769999999924
20
-93.9290179999999992
11
168.0987120000000061
21
-93.9492529999999988
0
LINE
8
BLACK
6
CONTINUOUS
10
166.0424040000000048
20
-93.9273409999999984
11
166.0483469999999784
21
-93.9280909999999949
0
LINE
8
BLACK
6
CONTINUOUS
10
166.0483469999999784
20
-93.9280909999999949
11
166.2916649999999947
21
-94.0091970000000003
0
LINE
8
BLACK
6
CONTINUOUS
10
166.2916649999999947
20
-94.0091970000000003
11
166.2932909999999822
21
-94.0101239999999905
0
LINE
8
BLACK
6
CONTINUOUS
10
166.2932909999999822
20
-94.0101239999999905
11
166.2941490000000044
21
-94.0101239999999905
0
LINE
8
BLACK
6
CONTINUOUS
10
166.2941490000000044
20
-94.0101239999999905
11
166.299129999999991
21
-94.0134520000000009
0
LINE
8
BLACK
6
CONTINUOUS
10
166.299129999999991
20
-94.0134520000000009
11
166.3043380000000013
21
-94.016420999999994
0
LINE
8
BLACK
6
CONTINUOUS
10
166.3043380000000013
20
-94.016420999999994
11
166.3047210000000007
21
-94.0171879999999902
0
LINE
8
BLACK
6
CONTINUOUS
10
166.3047210000000007
20
-94.0171879999999902
11
166.3062789999999893
21
-94.0182289999999909
0
LINE
8
BLACK
6
CONTINUOUS
10
166.3062789999999893
20
-94.0182289999999909
11
166.4684910000000002
21
-94.1804399999999902
0
LINE
8
BLACK
6
CONTINUOUS
10
166.4684910000000002
20
-94.1804399999999902
11
166.4695309999999893
21
-94.1819969999999955
0
LINE
8
BLACK
6
CONTINUOUS
10
166.4695309999999893
20
-94.1819969999999955
11
166.4702989999999829
21
-94.1823809999999924
0
LINE
8
BLACK
6
CONTINUOUS
10
166.4702989999999829
20
-94.1823809999999924
11
166.4732649999999978
21
-94.1875849999999986
0
LINE
8
BLACK
6
CONTINUOUS
10
166.4732649999999978
20
-94.1875849999999986
11
166.4765960000000007
21
-94.1925699999999892
0
LINE
8
BLACK
6
CONTINUOUS
10
166.4765960000000007
20
-94.1925699999999892
11
166.4765960000000007
21
-94.1934279999999973
0
LINE
8
BLACK
6
CONTINUOUS
10
166.4765960000000007
20
-94.1934279999999973
11
166.4775229999999908
21
-94.1950549999999964
0
LINE
8
BLACK
6
CONTINUOUS
10
166.4775229999999908
20
-94.1950549999999964
11
166.5586279999999988
21
-94.4383720000000011
0
LINE
8
BLACK
6
CONTINUOUS
10
166.5586279999999988
20
-94.4383720000000011
11
166.5593769999999836
21
-94.4443160000000006
0
LINE
8
BLACK
6
CONTINUOUS
10
166.5593769999999836
20
-94.4443160000000006
11
166.5605469999999855
21
-94.4501959999999912
0
LINE
8
BLACK
6
CONTINUOUS
10
166.5605469999999855
20
-94.4501959999999912
11
166.5605469999999855
21
-95.6667829999999952
0
LINE
8
BLACK
6
CONTINUOUS
10
166.5605469999999855
20
-95.6667829999999952
11
166.5577009999999802
21
-95.681090999999995
0
LINE
8
BLACK
6
CONTINUOUS
10
166.5577009999999802
20
-95.681090999999995
11
166.5374659999999949
21
-95.7013259999999946
0
LINE
8
BLACK
6
CONTINUOUS
10
166.5374659999999949
20
-95.7013259999999946
11
166.5088499999999954
21
-95.7013259999999946
0
LINE
8
BLACK
6
CONTINUOUS
10
166.5088499999999954
20
-95.7013259999999946
11
166.4886149999999816
21
-95.681090999999995
0
LINE
8
BLACK
6
CONTINUOUS
10
166.4886149999999816
20
-95.681090999999995
11
166.4857690000000048
21
-95.6667829999999952
0
LINE
8
BLACK
6
CONTINUOUS
10
166.4857690000000048
20
-95.6667829999999952
11
166.4857690000000048
21
-94.4562609999999978
0
LINE
8
BLACK
6
CONTINUOUS
10
166.4857690000000048
20
-94.4562609999999978
11
166.4093739999999855
21
-94.2270749999999992
0
LINE
8
BLACK
6
CONTINUOUS
10
166.4093739999999855
20
-94.2270749999999992
11
166.2596429999999827
21
-94.077344999999994
0
LINE
8
BLACK
6
CONTINUOUS
10
166.2596429999999827
20
-94.077344999999994
11
166.0304579999999817
21
-94.0009499999999889
0
LINE
8
BLACK
6
CONTINUOUS
10
166.0304579999999817
20
-94.0009499999999889
11
165.8743120000000033
21
-94.0009499999999889
0
LINE
8
BLACK
6
CONTINUOUS
10
165.8743120000000033
20
-94.0009499999999889
11
165.8600040000000035
21
-93.9981039999999979
0
LINE
8
BLACK
6
CONTINUOUS
10
165.8600040000000035
20
-93.9981039999999979
11
165.8397689999999898
21
-93.9778689999999983
0
LINE
8
BLACK
6
CONTINUOUS
10
165.8397689999999898
20
-93.9778689999999983
11
165.8397689999999898
21
-93.9492529999999988
0
LINE
8
BLACK
6
CONTINUOUS
10
165.8397689999999898
20
-93.9492529999999988
11
165.8600040000000035
21
-93.9290179999999992
0
LINE
8
BLACK
6
CONTINUOUS
10
165.8600040000000035
20
-93.9290179999999992
11
165.8743120000000033
21
-93.926171999999994
0
LINE
8
BLACK
6
CONTINUOUS
10
165.8743120000000033
20
-93.926171999999994
11
166.0365239999999858
21
-93.926171999999994
0
LINE
8
BLACK
6
CONTINUOUS
10
166.0365239999999858
20
-93.926171999999994
11
166.0424040000000048
21
-93.9273409999999984
0
LINE
8
BLACK
6
CONTINUOUS
10
165.6148660000000064
20
-92.4192639999999983
11
165.6423340000000053
21
-92.4306419999999918
0
LINE
8
BLACK
6
CONTINUOUS
10
165.6423340000000053
20
-92.4306419999999918
11
165.6633579999999881
21
-92.4516659999999888
0
LINE
8
BLACK
6
CONTINUOUS
10
165.6633579999999881
20
-92.4516659999999888
11
165.6747359999999958
21
-92.4791340000000019
0
LINE
8
BLACK
6
CONTINUOUS
10
165.6747359999999958
20
-92.4791340000000019
11
165.6747359999999958
21
-92.5088659999999976
0
LINE
8
BLACK
6
CONTINUOUS
10
165.6747359999999958
20
-92.5088659999999976
11
165.6633579999999881
21
-92.5363339999999965
0
LINE
8
BLACK
6
CONTINUOUS
10
165.6633579999999881
20
-92.5363339999999965
11
165.6423340000000053
21
-92.5573579999999936
0
LINE
8
BLACK
6
CONTINUOUS
10
165.6423340000000053
20
-92.5573579999999936
11
165.6148660000000064
21
-92.5687360000000012
0
LINE
8
BLACK
6
CONTINUOUS
10
165.6148660000000064
20
-92.5687360000000012
11
165.5999999999999943
21
-92.5701999999999998
0
LINE
8
BLACK
6
CONTINUOUS
10
165.5999999999999943
20
-92.5701999999999998
11
164.4762000000000057
21
-92.5701999999999998
0
LINE
8
BLACK
6
CONTINUOUS
10
164.4762000000000057
20
-92.5701999999999998
11
164.4762000000000057
21
-95.0939999999999941
0
LINE
8
BLACK
6
CONTINUOUS
10
164.4762000000000057
20
-95.0939999999999941
11
164.4747359999999787
21
-95.1088659999999919
0
LINE
8
BLACK
6
CONTINUOUS
10
164.4747359999999787
20
-95.1088659999999919
11
164.4633579999999995
21
-95.1363339999999909
0
LINE
8
BLACK
6
CONTINUOUS
10
164.4633579999999995
20
-95.1363339999999909
11
164.4423339999999882
21
-95.1573580000000021
0
LINE
8
BLACK
6
CONTINUOUS
10
164.4423339999999882
20
-95.1573580000000021
11
164.4148659999999893
21
-95.1687359999999956
0
LINE
8
BLACK
6
CONTINUOUS
10
164.4148659999999893
20
-95.1687359999999956
11
164.3851339999999936
21
-95.1687359999999956
0
LINE
8
BLACK
6
CONTINUOUS
10
164.3851339999999936
20
-95.1687359999999956
11
164.3576659999999947
21
-95.1573580000000021
0
LINE
8
BLACK
6
CONTINUOUS
10
164.3576659999999947
20
-95.1573580000000021
11
164.3366419999999835
21
-95.1363339999999909
0
LINE
8
BLACK
6
CONTINUOUS
10
164.3366419999999835
20
-95.1363339999999909
11
164.3252640000000042
21
-95.1088659999999919
0
LINE
8
BLACK
6
CONTINUOUS
10
164.3252640000000042
20
-95.1088659999999919
11
164.3238000000000056
21
-95.0939999999999941
0
LINE
8
BLACK
6
CONTINUOUS
10
164.3238000000000056
20
-95.0939999999999941
11
164.3238000000000056
21
-92.4939999999999998
0
LINE
8
BLACK
6
CONTINUOUS
10
164.3238000000000056
20
-92.4939999999999998
11
164.3252640000000042
21
-92.4791340000000019
0
LINE
8
BLACK
6
CONTINUOUS
10
164.3252640000000042
20
-92.4791340000000019
11
164.3366419999999835
21
-92.4516659999999888
0
LINE
8
BLACK
6
CONTINUOUS
10
164.3366419999999835
20
-92.4516659999999888
11
164.3576659999999947
21
-92.4306419999999918
0
LINE
8
BLACK
6
CONTINUOUS
10
164.3576659999999947
20
-92.4306419999999918
11
164.3851339999999936
21
-92.4192639999999983
0
LINE
8
BLACK
6
CONTINUOUS
10
164.3851339999999936
20
-92.4192639999999983
11
164.4000000000000057
21
-92.4177999999999997
0
LINE
8
BLACK
6
CONTINUOUS
10
164.4000000000000057
20
-92.4177999999999997
11
165.5999999999999943
21
-92.4177999999999997
0
LINE
8
BLACK
6
CONTINUOUS
10
165.5999999999999943
20
-92.4177999999999997
11
165.6148660000000064
21
-92.4192639999999983
0
LINE
8
BLACK
6
CONTINUOUS
10
170.5148659999999836
20
-92.4192639999999983
11
170.5423339999999826
21
-92.4306419999999918
0
LINE
8
BLACK
6
CONTINUOUS
10
170.5423339999999826
20
-92.4306419999999918
11
170.5633579999999938
21
-92.4516659999999888
0
LINE
8
BLACK
6
CONTINUOUS
10
170.5633579999999938
20
-92.4516659999999888
11
170.5747360000000015
21
-92.4791340000000019
0
LINE
8
BLACK
6
CONTINUOUS
10
170.5747360000000015
20
-92.4791340000000019
11
170.5762
21
-92.4939999999999998
0
LINE
8
BLACK
6
CONTINUOUS
10
170.5762
20
-92.4939999999999998
11
170.5762
21
-95.0939999999999941
0
LINE
8
BLACK
6
CONTINUOUS
10
170.5762
20
-95.0939999999999941
11
170.5747360000000015
21
-95.1088659999999919
0
LINE
8
BLACK
6
CONTINUOUS
10
170.5747360000000015
20
-95.1088659999999919
11
170.5633579999999938
21
-95.1363339999999909
0
LINE
8
BLACK
6
CONTINUOUS
10
170.5633579999999938
20
-95.1363339999999909
11
170.5423339999999826
21
-95.1573580000000021
0
LINE
8
BLACK
6
CONTINUOUS
10
170.5423339999999826
20
-95.1573580000000021
11
170.5148659999999836
21
-95.1687359999999956
0
LINE
8
BLACK
6
CONTINUOUS
10
170.5148659999999836
20
-95.1687359999999956
11
170.485133999999988
21
-95.1687359999999956
0
LINE
8
BLACK
6
CONTINUOUS
10
170.485133999999988
20
-95.1687359999999956
11
170.457665999999989
21
-95.1573580000000021
0
LINE
8
BLACK
6
CONTINUOUS
10
170.457665999999989
20
-95.1573580000000021
11
170.4366420000000062
21
-95.1363339999999909
0
LINE
8
BLACK
6
CONTINUOUS
10
170.4366420000000062
20
-95.1363339999999909
11
170.4252639999999985
21
-95.1088659999999919
0
LINE
8
BLACK
6
CONTINUOUS
10
170.4252639999999985
20
-95.1088659999999919
11
170.4238
21
-95.0939999999999941
0
LINE
8
BLACK
6
CONTINUOUS
10
170.4238
20
-95.0939999999999941
11
170.4238
21
-92.5701999999999998
0
LINE
8
BLACK
6
CONTINUOUS
10
170.4238
20
-92.5701999999999998
11
169.4000000000000057
21
-92.5701999999999998
0
LINE
8
BLACK
6
CONTINUOUS
10
169.4000000000000057
20
-92.5701999999999998
11
169.3851339999999936
21
-92.5687360000000012
0
LINE
8
BLACK
6
CONTINUOUS
10
169.3851339999999936
20
-92.5687360000000012
11
169.3576659999999947
21
-92.5573579999999936
0
LINE
8
BLACK
6
CONTINUOUS
10
169.3576659999999947
20
-92.5573579999999936
11
169.3366419999999835
21
-92.5363339999999965
0
LINE
8
BLACK
6
CONTINUOUS
10
169.3366419999999835
20
-92.5363339999999965
11
169.3252640000000042
21
-92.5088659999999976
0
LINE
8
BLACK
6
CONTINUOUS
10
169.3252640000000042
20
-92.5088659999999976
11
169.3252640000000042
21
-92.4791340000000019
0
LINE
8
BLACK
6
CONTINUOUS
10
169.3252640000000042
20
-92.4791340000000019
11
169.3366419999999835
21
-92.4516659999999888
0
LINE
8
BLACK
6
CONTINUOUS
10
169.3366419999999835
20
-92.4516659999999888
11
169.3576659999999947
21
-92.4306419999999918
0
LINE
8
BLACK
6
CONTINUOUS
10
169.3576659999999947
20
-92.4306419999999918
11
169.3851339999999936
21
-92.4192639999999983
0
LINE
8
BLACK
6
CONTINUOUS
10
169.3851339999999936
20
-92.4192639999999983
11
169.4000000000000057
21
-92.4177999999999997
0
LINE
8
BLACK
6
CONTINUOUS
10
169.4000000000000057
20
-92.4177999999999997
11
170.5
21
-92.4177999999999997
0
LINE
8
BLACK
6
CONTINUOUS
10
170.5
20
-92.4177999999999997
11
170.5148659999999836
21
-92.4192639999999983
0
LINE
8
BLACK
6
CONTINUOUS
10
169.1940259999999796
20
-88.5120519999999971
11
169.2150499999999909
21
-88.5330759999999941
0
LINE
8
BLACK
6
CONTINUOUS
10
169.2150499999999909
20
-88.5330759999999941
11
169.2264279999999985
21
-88.560543999999993
0
LINE
8
BLACK
6
CONTINUOUS
10
169.2264279999999985
20
-88.560543999999993
11
169.2278919999999971
21
-88.5754099999999909
0
LINE
8
BLACK
6
CONTINUOUS
10
169.2278919999999971
20
-88.5754099999999909
11
169.2278919999999971
21
-89.6754099999999994
0
LINE
8
BLACK
6
CONTINUOUS
10
169.2278919999999971
20
-89.6754099999999994
11
169.2264279999999985
21
-89.6902759999999972
0
LINE
8
BLACK
6
CONTINUOUS
10
169.2264279999999985
20
-89.6902759999999972
11
169.2150499999999909
21
-89.7177439999999962
0
LINE
8
BLACK
6
CONTINUOUS
10
169.2150499999999909
20
-89.7177439999999962
11
169.1940259999999796
21
-89.7387679999999932
0
LINE
8
BLACK
6
CONTINUOUS
10
169.1940259999999796
20
-89.7387679999999932
11
169.1665579999999807
21
-89.7501460000000009
0
LINE
8
BLACK
6
CONTINUOUS
10
169.1665579999999807
20
-89.7501460000000009
11
169.1516919999999971
21
-89.7516099999999994
0
LINE
8
BLACK
6
CONTINUOUS
10
169.1516919999999971
20
-89.7516099999999994
11
166.5516920000000027
21
-89.7516099999999994
0
LINE
8
BLACK
6
CONTINUOUS
10
166.5516920000000027
20
-89.7516099999999994
11
166.5368259999999907
21
-89.7501460000000009
0
LINE
8
BLACK
6
CONTINUOUS
10
166.5368259999999907
20
-89.7501460000000009
11
166.5093579999999918
21
-89.7387679999999932
0
LINE
8
BLACK
6
CONTINUOUS
10
166.5093579999999918
20
-89.7387679999999932
11
166.4883339999999805
21
-89.7177439999999962
0
LINE
8
BLACK
6
CONTINUOUS
10
166.4883339999999805
20
-89.7177439999999962
11
166.4769560000000013
21
-89.6902759999999972
0
LINE
8
BLACK
6
CONTINUOUS
10
166.4769560000000013
20
-89.6902759999999972
11
166.4769560000000013
21
-89.6605440000000016
0
LINE
8
BLACK
6
CONTINUOUS
10
166.4769560000000013
20
-89.6605440000000016
11
166.4883339999999805
21
-89.6330760000000026
0
LINE
8
BLACK
6
CONTINUOUS
10
166.4883339999999805
20
-89.6330760000000026
11
166.5093579999999918
21
-89.6120519999999914
0
LINE
8
BLACK
6
CONTINUOUS
10
166.5093579999999918
20
-89.6120519999999914
11
166.5368259999999907
21
-89.6006739999999979
0
LINE
8
BLACK
6
CONTINUOUS
10
166.5368259999999907
20
-89.6006739999999979
11
166.5516920000000027
21
-89.5992099999999994
0
LINE
8
BLACK
6
CONTINUOUS
10
166.5516920000000027
20
-89.5992099999999994
11
169.075491999999997
21
-89.5992099999999994
0
LINE
8
BLACK
6
CONTINUOUS
10
169.075491999999997
20
-89.5992099999999994
11
169.075491999999997
21
-88.5754099999999909
0
LINE
8
BLACK
6
CONTINUOUS
10
169.075491999999997
20
-88.5754099999999909
11
169.0769559999999956
21
-88.560543999999993
0
LINE
8
BLACK
6
CONTINUOUS
10
169.0769559999999956
20
-88.560543999999993
11
169.0883340000000032
21
-88.5330759999999941
0
LINE
8
BLACK
6
CONTINUOUS
10
169.0883340000000032
20
-88.5330759999999941
11
169.1093579999999861
21
-88.5120519999999971
0
LINE
8
BLACK
6
CONTINUOUS
10
169.1093579999999861
20
-88.5120519999999971
11
169.136825999999985
21
-88.5006739999999894
0
LINE
8
BLACK
6
CONTINUOUS
10
169.136825999999985
20
-88.5006739999999894
11
169.1665579999999807
21
-88.5006739999999894
0
LINE
8
BLACK
6
CONTINUOUS
10
169.1665579999999807
20
-88.5006739999999894
11
169.1940259999999796
21
-88.5120519999999971
0
LINE
8
BLACK
6
CONTINUOUS
10
164.8940259999999967
20
-84.5120519999999971
11
164.9150499999999795
21
-84.5330759999999941
0
LINE
8
BLACK
6
CONTINUOUS
10
164.9150499999999795
20
-84.5330759999999941
11
164.9264279999999872
21
-84.560543999999993
0
LINE
8
BLACK
6
CONTINUOUS
10
164.9264279999999872
20
-84.560543999999993
11
164.9278919999999857
21
-84.5754099999999909
0
LINE
8
BLACK
6
CONTINUOUS
10
164.9278919999999857
20
-84.5754099999999909
11
164.9278919999999857
21
-88.7754099999999937
0
LINE
8
BLACK
6
CONTINUOUS
10
164.9278919999999857
20
-88.7754099999999937
11
164.9264279999999872
21
-88.7902759999999915
0
LINE
8
BLACK
6
CONTINUOUS
10
164.9264279999999872
20
-88.7902759999999915
11
164.9150499999999795
21
-88.8177439999999905
0
LINE
8
BLACK
6
CONTINUOUS
10
164.9150499999999795
20
-88.8177439999999905
11
164.8940259999999967
21
-88.8387680000000017
0
LINE
8
BLACK
6
CONTINUOUS
10
164.8940259999999967
20
-88.8387680000000017
11
164.8665579999999977
21
-88.8501459999999952
0
LINE
8
BLACK
6
CONTINUOUS
10
164.8665579999999977
20
-88.8501459999999952
11
164.8368260000000021
21
-88.8501459999999952
0
LINE
8
BLACK
6
CONTINUOUS
10
164.8368260000000021
20
-88.8501459999999952
11
164.8093580000000031
21
-88.8387680000000017
0
LINE
8
BLACK
6
CONTINUOUS
10
164.8093580000000031
20
-88.8387680000000017
11
164.7883339999999919
21
-88.8177439999999905
0
LINE
8
BLACK
6
CONTINUOUS
10
164.7883339999999919
20
-88.8177439999999905
11
164.7769559999999842
21
-88.7902759999999915
0
LINE
8
BLACK
6
CONTINUOUS
10
164.7769559999999842
20
-88.7902759999999915
11
164.7754919999999856
21
-88.7754099999999937
0
LINE
8
BLACK
6
CONTINUOUS
10
164.7754919999999856
20
-88.7754099999999937
11
164.7754919999999856
21
-84.5754099999999909
0
LINE
8
BLACK
6
CONTINUOUS
10
164.7754919999999856
20
-84.5754099999999909
11
164.7769559999999842
21
-84.560543999999993
0
LINE
8
BLACK
6
CONTINUOUS
10
164.7769559999999842
20
-84.560543999999993
11
164.7883339999999919
21
-84.5330759999999941
0
LINE
8
BLACK
6
CONTINUOUS
10
164.7883339999999919
20
-84.5330759999999941
11
164.8093580000000031
21
-84.5120519999999971
0
LINE
8
BLACK
6
CONTINUOUS
10
164.8093580000000031
20
-84.5120519999999971
11
164.8368260000000021
21
-84.5006739999999894
0
LINE
8
BLACK
6
CONTINUOUS
10
164.8368260000000021
20
-84.5006739999999894
11
164.8665579999999977
21
-84.5006739999999894
0
LINE
8
BLACK
6
CONTINUOUS
10
164.8665579999999977
20
-84.5006739999999894
11
164.8940259999999967
21
-84.5120519999999971
0
LINE
8
BLACK
6
CONTINUOUS
10
166.0634509999999864
20
-86.3831069999999954
11
166.0662969999999916
21
-86.3974149999999952
0
LINE
8
BLACK
6
CONTINUOUS
10
166.0662969999999916
20
-86.3974149999999952
11
166.0662969999999916
21
-87.3693930000000023
0
LINE
8
BLACK
6
CONTINUOUS
10
166.0662969999999916
20
-87.3693930000000023
11
166.6531349999999918
21
-86.8559119999999893
0
LINE
8
BLACK
6
CONTINUOUS
10
166.6531349999999918
20
-86.8559119999999893
11
166.6623459999999852
21
-86.8506069999999966
0
LINE
8
BLACK
6
CONTINUOUS
10
166.6623459999999852
20
-86.8506069999999966
11
166.6634469999999908
21
-86.8495070000000027
0
LINE
8
BLACK
6
CONTINUOUS
10
166.6634469999999908
20
-86.8495070000000027
11
166.6642579999999896
21
-86.8495070000000027
0
LINE
8
BLACK
6
CONTINUOUS
10
166.6642579999999896
20
-86.8495070000000027
11
166.6657769999999914
21
-86.8486319999999949
0
LINE
8
BLACK
6
CONTINUOUS
10
166.6657769999999914
20
-86.8486319999999949
11
166.6789059999999836
21
-86.8495070000000027
0
LINE
8
BLACK
6
CONTINUOUS
10
166.6789059999999836
20
-86.8495070000000027
11
166.6920629999999903
21
-86.8495070000000027
0
LINE
8
BLACK
6
CONTINUOUS
10
166.6920629999999903
20
-86.8495070000000027
11
166.6930019999999786
21
-86.8504459999999909
0
LINE
8
BLACK
6
CONTINUOUS
10
166.6930019999999786
20
-86.8504459999999909
11
166.6943299999999795
21
-86.8505349999999936
0
LINE
8
BLACK
6
CONTINUOUS
10
166.6943299999999795
20
-86.8505349999999936
11
166.7030029999999954
21
-86.8604469999999935
0
LINE
8
BLACK
6
CONTINUOUS
10
166.7030029999999954
20
-86.8604469999999935
11
166.7122980000000041
21
-86.8697420000000022
0
LINE
8
BLACK
6
CONTINUOUS
10
166.7122980000000041
20
-86.8697420000000022
11
166.7126389999999958
21
-86.871459999999999
0
LINE
8
BLACK
6
CONTINUOUS
10
166.7126389999999958
20
-86.871459999999999
11
166.7131739999999809
21
-86.8720709999999912
0
LINE
8
BLACK
6
CONTINUOUS
10
166.7131739999999809
20
-86.8720709999999912
11
166.7130699999999877
21
-86.8736249999999899
0
LINE
8
BLACK
6
CONTINUOUS
10
166.7130699999999877
20
-86.8736249999999899
11
166.7151439999999809
21
-86.884050000000002
0
LINE
8
BLACK
6
CONTINUOUS
10
166.7151439999999809
20
-86.884050000000002
11
166.7151439999999809
21
-87.1185399999999959
0
LINE
8
BLACK
6
CONTINUOUS
10
166.7151439999999809
20
-87.1185399999999959
11
166.7895890000000065
21
-87.267431000000002
0
LINE
8
BLACK
6
CONTINUOUS
10
166.7895890000000065
20
-87.267431000000002
11
166.8621129999999937
21
-87.3399549999999891
0
LINE
8
BLACK
6
CONTINUOUS
10
166.8621129999999937
20
-87.3399549999999891
11
167.0110049999999831
21
-87.414400999999998
0
LINE
8
BLACK
6
CONTINUOUS
10
167.0110049999999831
20
-87.414400999999998
11
167.3988799999999912
21
-87.414400999999998
0
LINE
8
BLACK
6
CONTINUOUS
10
167.3988799999999912
20
-87.414400999999998
11
167.5477719999999806
21
-87.3399549999999891
0
LINE
8
BLACK
6
CONTINUOUS
10
167.5477719999999806
20
-87.3399549999999891
11
167.6202949999999987
21
-87.2674319999999994
0
LINE
8
BLACK
6
CONTINUOUS
10
167.6202949999999987
20
-87.2674319999999994
11
167.6947409999999934
21
-87.1185399999999959
0
LINE
8
BLACK
6
CONTINUOUS
10
167.6947409999999934
20
-87.1185399999999959
11
167.6947409999999934
21
-86.649557999999999
0
LINE
8
BLACK
6
CONTINUOUS
10
167.6947409999999934
20
-86.649557999999999
11
167.6202949999999987
21
-86.5006669999999929
0
LINE
8
BLACK
6
CONTINUOUS
10
167.6202949999999987
20
-86.5006669999999929
11
167.5434809999999857
21
-86.423852999999994
0
LINE
8
BLACK
6
CONTINUOUS
10
167.5434809999999857
20
-86.423852999999994
11
167.5353759999999852
21
-86.411722999999995
0
LINE
8
BLACK
6
CONTINUOUS
10
167.5353759999999852
20
-86.411722999999995
11
167.5353759999999852
21
-86.3831069999999954
0
LINE
8
BLACK
6
CONTINUOUS
10
167.5353759999999852
20
-86.3831069999999954
11
167.555610999999999
21
-86.3628719999999959
0
LINE
8
BLACK
6
CONTINUOUS
10
167.555610999999999
20
-86.3628719999999959
11
167.5842269999999985
21
-86.3628719999999959
0
LINE
8
BLACK
6
CONTINUOUS
10
167.5842269999999985
20
-86.3628719999999959
11
167.5963569999999834
21
-86.3709769999999963
0
LINE
8
BLACK
6
CONTINUOUS
10
167.5963569999999834
20
-86.3709769999999963
11
167.6774629999999888
21
-86.4520830000000018
0
LINE
8
BLACK
6
CONTINUOUS
10
167.6774629999999888
20
-86.4520830000000018
11
167.6807879999999784
21
-86.4570599999999985
0
LINE
8
BLACK
6
CONTINUOUS
10
167.6807879999999784
20
-86.4570599999999985
11
167.6844669999999837
21
-86.4617999999999967
0
LINE
8
BLACK
6
CONTINUOUS
10
167.6844669999999837
20
-86.4617999999999967
11
167.7655719999999917
21
-86.6240109999999959
0
LINE
8
BLACK
6
CONTINUOUS
10
167.7655719999999917
20
-86.6240109999999959
11
167.766065999999995
21
-86.6258169999999978
0
LINE
8
BLACK
6
CONTINUOUS
10
167.766065999999995
20
-86.6258169999999978
11
167.7666729999999973
21
-86.6264240000000001
0
LINE
8
BLACK
6
CONTINUOUS
10
167.7666729999999973
20
-86.6264240000000001
11
167.7678410000000042
21
-86.6322979999999916
0
LINE
8
BLACK
6
CONTINUOUS
10
167.7678410000000042
20
-86.6322979999999916
11
167.769424999999984
21
-86.6380809999999997
0
LINE
8
BLACK
6
CONTINUOUS
10
167.769424999999984
20
-86.6380809999999997
11
167.7691529999999887
21
-86.6388949999999909
0
LINE
8
BLACK
6
CONTINUOUS
10
167.7691529999999887
20
-86.6388949999999909
11
167.7695190000000025
21
-86.6407319999999999
0
LINE
8
BLACK
6
CONTINUOUS
10
167.7695190000000025
20
-86.6407319999999999
11
167.7695190000000025
21
-87.1273669999999925
0
LINE
8
BLACK
6
CONTINUOUS
10
167.7695190000000025
20
-87.1273669999999925
11
167.7691529999999887
21
-87.1292029999999897
0
LINE
8
BLACK
6
CONTINUOUS
10
167.7691529999999887
20
-87.1292029999999897
11
167.769424999999984
21
-87.1300179999999926
0
LINE
8
BLACK
6
CONTINUOUS
10
167.769424999999984
20
-87.1300179999999926
11
167.7678410000000042
21
-87.135799999999989
0
LINE
8
BLACK
6
CONTINUOUS
10
167.7678410000000042
20
-87.135799999999989
11
167.7666729999999973
21
-87.1416749999999922
0
LINE
8
BLACK
6
CONTINUOUS
10
167.7666729999999973
20
-87.1416749999999922
11
167.766065999999995
21
-87.142280999999997
0
LINE
8
BLACK
6
CONTINUOUS
10
167.766065999999995
20
-87.142280999999997
11
167.7655719999999917
21
-87.1440879999999964
0
LINE
8
BLACK
6
CONTINUOUS
10
167.7655719999999917
20
-87.1440879999999964
11
167.6844669999999837
21
-87.3062999999999931
0
LINE
8
BLACK
6
CONTINUOUS
10
167.6844669999999837
20
-87.3062999999999931
11
167.6807900000000018
21
-87.3110360000000014
0
LINE
8
BLACK
6
CONTINUOUS
10
167.6807900000000018
20
-87.3110360000000014
11
167.6774629999999888
21
-87.3160170000000022
0
LINE
8
BLACK
6
CONTINUOUS
10
167.6774629999999888
20
-87.3160170000000022
11
167.5963569999999834
21
-87.3971229999999935
0
LINE
8
BLACK
6
CONTINUOUS
10
167.5963569999999834
20
-87.3971229999999935
11
167.5913759999999968
21
-87.4004499999999922
0
LINE
8
BLACK
6
CONTINUOUS
10
167.5913759999999968
20
-87.4004499999999922
11
167.5866399999999885
21
-87.4041270000000026
0
LINE
8
BLACK
6
CONTINUOUS
10
167.5866399999999885
20
-87.4041270000000026
11
167.424428000000006
21
-87.4852319999999963
0
LINE
8
BLACK
6
CONTINUOUS
10
167.424428000000006
20
-87.4852319999999963
11
167.4226209999999924
21
-87.4857259999999997
0
LINE
8
BLACK
6
CONTINUOUS
10
167.4226209999999924
20
-87.4857259999999997
11
167.4220149999999876
21
-87.4863330000000019
0
LINE
8
BLACK
6
CONTINUOUS
10
167.4220149999999876
20
-87.4863330000000019
11
167.4161379999999895
21
-87.4875009999999946
0
LINE
8
BLACK
6
CONTINUOUS
10
167.4161379999999895
20
-87.4875009999999946
11
167.4103570000000047
21
-87.4890850000000029
0
LINE
8
BLACK
6
CONTINUOUS
10
167.4103570000000047
20
-87.4890850000000029
11
167.4095429999999851
21
-87.4888129999999933
0
LINE
8
BLACK
6
CONTINUOUS
10
167.4095429999999851
20
-87.4888129999999933
11
167.4077069999999878
21
-87.4891789999999929
0
LINE
8
BLACK
6
CONTINUOUS
10
167.4077069999999878
20
-87.4891789999999929
11
167.0021779999999865
21
-87.4891789999999929
0
LINE
8
BLACK
6
CONTINUOUS
10
167.0021779999999865
20
-87.4891789999999929
11
167.0003409999999917
21
-87.4888129999999933
0
LINE
8
BLACK
6
CONTINUOUS
10
167.0003409999999917
20
-87.4888129999999933
11
166.9995270000000005
21
-87.4890850000000029
0
LINE
8
BLACK
6
CONTINUOUS
10
166.9995270000000005
20
-87.4890850000000029
11
166.9937439999999924
21
-87.4875009999999946
0
LINE
8
BLACK
6
CONTINUOUS
10
166.9937439999999924
20
-87.4875009999999946
11
166.9878699999999867
21
-87.4863330000000019
0
LINE
8
BLACK
6
CONTINUOUS
10
166.9878699999999867
20
-87.4863330000000019
11
166.9872629999999845
21
-87.4857259999999997
0
LINE
8
BLACK
6
CONTINUOUS
10
166.9872629999999845
20
-87.4857259999999997
11
166.9854569999999967
21
-87.4852319999999963
0
LINE
8
BLACK
6
CONTINUOUS
10
166.9854569999999967
20
-87.4852319999999963
11
166.8232449999999858
21
-87.4041270000000026
0
LINE
8
BLACK
6
CONTINUOUS
10
166.8232449999999858
20
-87.4041270000000026
11
166.8185100000000034
21
-87.4004520000000014
0
LINE
8
BLACK
6
CONTINUOUS
10
166.8185100000000034
20
-87.4004520000000014
11
166.8135269999999934
21
-87.3971229999999935
0
LINE
8
BLACK
6
CONTINUOUS
10
166.8135269999999934
20
-87.3971229999999935
11
166.7324229999999829
21
-87.3160170000000022
0
LINE
8
BLACK
6
CONTINUOUS
10
166.7324229999999829
20
-87.3160170000000022
11
166.7290940000000035
21
-87.3110360000000014
0
LINE
8
BLACK
6
CONTINUOUS
10
166.7290940000000035
20
-87.3110360000000014
11
166.725418999999988
21
-87.3062999999999931
0
LINE
8
BLACK
6
CONTINUOUS
10
166.725418999999988
20
-87.3062999999999931
11
166.6443129999999826
21
-87.1440879999999964
0
LINE
8
BLACK
6
CONTINUOUS
10
166.6443129999999826
20
-87.1440879999999964
11
166.6438179999999818
21
-87.142280999999997
0
LINE
8
BLACK
6
CONTINUOUS
10
166.6438179999999818
20
-87.142280999999997
11
166.6432120000000054
21
-87.1416749999999922
0
LINE
8
BLACK
6
CONTINUOUS
10
166.6432120000000054
20
-87.1416749999999922
11
166.642043000000001
21
-87.135799999999989
0
LINE
8
BLACK
6
CONTINUOUS
10
166.642043000000001
20
-87.135799999999989
11
166.6404599999999903
21
-87.1300179999999926
0
LINE
8
BLACK
6
CONTINUOUS
10
166.6404599999999903
20
-87.1300179999999926
11
166.6407309999999882
21
-87.1292029999999897
0
LINE
8
BLACK
6
CONTINUOUS
10
166.6407309999999882
20
-87.1292029999999897
11
166.6403660000000002
21
-87.1273669999999925
0
LINE
8
BLACK
6
CONTINUOUS
10
166.6403660000000002
20
-87.1273669999999925
11
166.6403660000000002
21
-86.9664459999999906
0
LINE
8
BLACK
6
CONTINUOUS
10
166.6403660000000002
20
-86.9664459999999906
11
166.0535289999999975
21
-87.479928000000001
0
LINE
8
BLACK
6
CONTINUOUS
10
166.0535289999999975
20
-87.479928000000001
11
166.0443149999999832
21
-87.4852329999999938
0
LINE
8
BLACK
6
CONTINUOUS
10
166.0443149999999832
20
-87.4852329999999938
11
166.043216000000001
21
-87.4863330000000019
0
LINE
8
BLACK
6
CONTINUOUS
10
166.043216000000001
20
-87.4863330000000019
11
166.0424059999999997
21
-87.4863330000000019
0
LINE
8
BLACK
6
CONTINUOUS
10
166.0424059999999997
20
-87.4863330000000019
11
166.0408869999999979
21
-87.4872079999999954
0
LINE
8
BLACK
6
CONTINUOUS
10
166.0408869999999979
20
-87.4872079999999954
11
166.0277580000000057
21
-87.4863330000000019
0
LINE
8
BLACK
6
CONTINUOUS
10
166.0277580000000057
20
-87.4863330000000019
11
166.0146000000000015
21
-87.4863330000000019
0
LINE
8
BLACK
6
CONTINUOUS
10
166.0146000000000015
20
-87.4863330000000019
11
166.0136599999999873
21
-87.485393000000002
0
LINE
8
BLACK
6
CONTINUOUS
10
166.0136599999999873
20
-87.485393000000002
11
166.0123339999999814
21
-87.4853049999999968
0
LINE
8
BLACK
6
CONTINUOUS
10
166.0123339999999814
20
-87.4853049999999968
11
166.0036680000000047
21
-87.4754009999999909
0
LINE
8
BLACK
6
CONTINUOUS
10
166.0036680000000047
20
-87.4754009999999909
11
165.9943649999999877
21
-87.4660980000000023
0
LINE
8
BLACK
6
CONTINUOUS
10
165.9943649999999877
20
-87.4660980000000023
11
165.9940220000000011
21
-87.4643779999999964
0
LINE
8
BLACK
6
CONTINUOUS
10
165.9940220000000011
20
-87.4643779999999964
11
165.99348999999998
21
-87.4637689999999992
0
LINE
8
BLACK
6
CONTINUOUS
10
165.99348999999998
20
-87.4637689999999992
11
165.9935930000000042
21
-87.4622179999999929
0
LINE
8
BLACK
6
CONTINUOUS
10
165.9935930000000042
20
-87.4622179999999929
11
165.9915189999999825
21
-87.4517900000000026
0
LINE
8
BLACK
6
CONTINUOUS
10
165.9915189999999825
20
-87.4517900000000026
11
165.9915189999999825
21
-86.3974149999999952
0
LINE
8
BLACK
6
CONTINUOUS
10
165.9915189999999825
20
-86.3974149999999952
11
165.9943649999999877
21
-86.3831069999999954
0
LINE
8
BLACK
6
CONTINUOUS
10
165.9943649999999877
20
-86.3831069999999954
11
166.0146000000000015
21
-86.3628719999999959
0
LINE
8
BLACK
6
CONTINUOUS
10
166.0146000000000015
20
-86.3628719999999959
11
166.043216000000001
21
-86.3628719999999959
0
LINE
8
BLACK
6
CONTINUOUS
10
166.043216000000001
20
-86.3628719999999959
11
166.0634509999999864
21
-86.3831069999999954
0
LINE
8
BLACK
6
CONTINUOUS
10
167.7666729999999973
20
-85.0854140000000001
11
167.7695190000000025
21
-85.0997219999999999
0
LINE
8
BLACK
6
CONTINUOUS
10
167.7695190000000025
20
-85.0997219999999999
11
167.7695190000000025
21
-85.2619339999999966
0
LINE
8
BLACK
6
CONTINUOUS
10
167.7695190000000025
20
-85.2619339999999966
11
167.7683490000000006
21
-85.2678129999999896
0
LINE
8
BLACK
6
CONTINUOUS
10
167.7683490000000006
20
-85.2678129999999896
11
167.7675999999999874
21
-85.2737580000000008
0
LINE
8
BLACK
6
CONTINUOUS
10
167.7675999999999874
20
-85.2737580000000008
11
167.6864949999999794
21
-85.5170739999999938
0
LINE
8
BLACK
6
CONTINUOUS
10
167.6864949999999794
20
-85.5170739999999938
11
167.6855679999999893
21
-85.5186999999999955
0
LINE
8
BLACK
6
CONTINUOUS
10
167.6855679999999893
20
-85.5186999999999955
11
167.6855679999999893
21
-85.5195599999999985
0
LINE
8
BLACK
6
CONTINUOUS
10
167.6855679999999893
20
-85.5195599999999985
11
167.6822349999999915
21
-85.5245469999999983
0
LINE
8
BLACK
6
CONTINUOUS
10
167.6822349999999915
20
-85.5245469999999983
11
167.679271
21
-85.5297479999999979
0
LINE
8
BLACK
6
CONTINUOUS
10
167.679271
20
-85.5297479999999979
11
167.6785030000000063
21
-85.5301309999999972
0
LINE
8
BLACK
6
CONTINUOUS
10
167.6785030000000063
20
-85.5301309999999972
11
167.6774629999999888
21
-85.5316890000000001
0
LINE
8
BLACK
6
CONTINUOUS
10
167.6774629999999888
20
-85.5316890000000001
11
167.5152510000000063
21
-85.6939009999999968
0
LINE
8
BLACK
6
CONTINUOUS
10
167.5152510000000063
20
-85.6939009999999968
11
167.5136929999999893
21
-85.694941
0
LINE
8
BLACK
6
CONTINUOUS
10
167.5136929999999893
20
-85.694941
11
167.5133099999999899
21
-85.6957089999999937
0
LINE
8
BLACK
6
CONTINUOUS
10
167.5133099999999899
20
-85.6957089999999937
11
167.5081050000000005
21
-85.6986749999999944
0
LINE
8
BLACK
6
CONTINUOUS
10
167.5081050000000005
20
-85.6986749999999944
11
167.503120999999993
21
-85.7020059999999972
0
LINE
8
BLACK
6
CONTINUOUS
10
167.503120999999993
20
-85.7020059999999972
11
167.5022620000000018
21
-85.7020059999999972
0
LINE
8
BLACK
6
CONTINUOUS
10
167.5022620000000018
20
-85.7020059999999972
11
167.5006359999999859
21
-85.7029330000000016
0
LINE
8
BLACK
6
CONTINUOUS
10
167.5006359999999859
20
-85.7029330000000016
11
167.2573179999999979
21
-85.7840379999999953
0
LINE
8
BLACK
6
CONTINUOUS
10
167.2573179999999979
20
-85.7840379999999953
11
167.2513749999999959
21
-85.7847869999999944
0
LINE
8
BLACK
6
CONTINUOUS
10
167.2513749999999959
20
-85.7847869999999944
11
167.2454950000000053
21
-85.7859569999999962
0
LINE
8
BLACK
6
CONTINUOUS
10
167.2454950000000053
20
-85.7859569999999962
11
166.0289080000000013
21
-85.7859569999999962
0
LINE
8
BLACK
6
CONTINUOUS
10
166.0289080000000013
20
-85.7859569999999962
11
166.0146000000000015
21
-85.783110999999991
0
LINE
8
BLACK
6
CONTINUOUS
10
166.0146000000000015
20
-85.783110999999991
11
165.9943649999999877
21
-85.7628759999999914
0
LINE
8
BLACK
6
CONTINUOUS
10
165.9943649999999877
20
-85.7628759999999914
11
165.9943649999999877
21
-85.7342599999999919
0
LINE
8
BLACK
6
CONTINUOUS
10
165.9943649999999877
20
-85.7342599999999919
11
166.0146000000000015
21
-85.7140249999999924
0
LINE
8
BLACK
6
CONTINUOUS
10
166.0146000000000015
20
-85.7140249999999924
11
166.0289080000000013
21
-85.7111790000000013
0
LINE
8
BLACK
6
CONTINUOUS
10
166.0289080000000013
20
-85.7111790000000013
11
167.2394290000000012
21
-85.7111790000000013
0
LINE
8
BLACK
6
CONTINUOUS
10
167.2394290000000012
20
-85.7111790000000013
11
167.4686159999999973
21
-85.6347829999999988
0
LINE
8
BLACK
6
CONTINUOUS
10
167.4686159999999973
20
-85.6347829999999988
11
167.6183460000000025
21
-85.4850529999999935
0
LINE
8
BLACK
6
CONTINUOUS
10
167.6183460000000025
20
-85.4850529999999935
11
167.6947409999999934
21
-85.2558679999999924
0
LINE
8
BLACK
6
CONTINUOUS
10
167.6947409999999934
20
-85.2558679999999924
11
167.6947409999999934
21
-85.0997219999999999
0
LINE
8
BLACK
6
CONTINUOUS
10
167.6947409999999934
20
-85.0997219999999999
11
167.6975869999999986
21
-85.0854140000000001
0
LINE
8
BLACK
6
CONTINUOUS
10
167.6975869999999986
20
-85.0854140000000001
11
167.717821999999984
21
-85.0651790000000005
0
LINE
8
BLACK
6
CONTINUOUS
10
167.717821999999984
20
-85.0651790000000005
11
167.7464379999999835
21
-85.0651790000000005
0
LINE
8
BLACK
6
CONTINUOUS
10
167.7464379999999835
20
-85.0651790000000005
11
167.7666729999999973
21
-85.0854140000000001
0
LINE
8
BLACK
6
CONTINUOUS
10
169.1665579999999807
20
-83.5006739999999894
11
169.1940259999999796
21
-83.5120519999999971
0
LINE
8
BLACK
6
CONTINUOUS
10
169.1940259999999796
20
-83.5120519999999971
11
169.2150499999999909
21
-83.5330759999999941
0
LINE
8
BLACK
6
CONTINUOUS
10
169.2150499999999909
20
-83.5330759999999941
11
169.2264279999999985
21
-83.560543999999993
0
LINE
8
BLACK
6
CONTINUOUS
10
169.2264279999999985
20
-83.560543999999993
11
169.2278919999999971
21
-83.5754099999999909
0
LINE
8
BLACK
6
CONTINUOUS
10
169.2278919999999971
20
-83.5754099999999909
11
169.2278919999999971
21
-84.7754099999999937
0
LINE
8
BLACK
6
CONTINUOUS
10
169.2278919999999971
20
-84.7754099999999937
11
169.2264279999999985
21
-84.7902759999999915
0
LINE
8
BLACK
6
CONTINUOUS
10
169.2264279999999985
20
-84.7902759999999915
11
169.2150499999999909
21
-84.8177439999999905
0
LINE
8
BLACK
6
CONTINUOUS
10
169.2150499999999909
20
-84.8177439999999905
11
169.1940259999999796
21
-84.8387680000000017
0
LINE
8
BLACK
6
CONTINUOUS
10
169.1940259999999796
20
-84.8387680000000017
11
169.1665579999999807
21
-84.8501459999999952
0
LINE
8
BLACK
6
CONTINUOUS
10
169.1665579999999807
20
-84.8501459999999952
11
169.136825999999985
21
-84.8501459999999952
0
LINE
8
BLACK
6
CONTINUOUS
10
169.136825999999985
20
-84.8501459999999952
11
169.1093579999999861
21
-84.8387680000000017
0
LINE
8
BLACK
6
CONTINUOUS
10
169.1093579999999861
20
-84.8387680000000017
11
169.0883340000000032
21
-84.8177439999999905
0
LINE
8
BLACK
6
CONTINUOUS
10
169.0883340000000032
20
-84.8177439999999905
11
169.0769559999999956
21
-84.7902759999999915
0
LINE
8
BLACK
6
CONTINUOUS
10
169.0769559999999956
20
-84.7902759999999915
11
169.075491999999997
21
-84.7754099999999937
0
LINE
8
BLACK
6
CONTINUOUS
10
169.075491999999997
20
-84.7754099999999937
11
169.075491999999997
21
-83.6516099999999909
0
LINE
8
BLACK
6
CONTINUOUS
10
169.075491999999997
20
-83.6516099999999909
11
166.5516920000000027
21
-83.6516099999999909
0
LINE
8
BLACK
6
CONTINUOUS
10
166.5516920000000027
20
-83.6516099999999909
11
166.5368259999999907
21
-83.6501459999999923
0
LINE
8
BLACK
6
CONTINUOUS
10
166.5368259999999907
20
-83.6501459999999923
11
166.5093579999999918
21
-83.6387679999999989
0
LINE
8
BLACK
6
CONTINUOUS
10
166.5093579999999918
20
-83.6387679999999989
11
166.4883339999999805
21
-83.6177440000000018
0
LINE
8
BLACK
6
CONTINUOUS
10
166.4883339999999805
20
-83.6177440000000018
11
166.4769560000000013
21
-83.5902760000000029
0
LINE
8
BLACK
6
CONTINUOUS
10
166.4769560000000013
20
-83.5902760000000029
11
166.4769560000000013
21
-83.560543999999993
0
LINE
8
BLACK
6
CONTINUOUS
10
166.4769560000000013
20
-83.560543999999993
11
166.4883339999999805
21
-83.5330759999999941
0
LINE
8
BLACK
6
CONTINUOUS
10
166.4883339999999805
20
-83.5330759999999941
11
166.5093579999999918
21
-83.5120519999999971
0
LINE
8
BLACK
6
CONTINUOUS
10
166.5093579999999918
20
-83.5120519999999971
11
166.5368259999999907
21
-83.5006739999999894
0
LINE
8
BLACK
6
CONTINUOUS
10
166.5368259999999907
20
-83.5006739999999894
11
166.5516920000000027
21
-83.4992099999999908
0
LINE
8
BLACK
6
CONTINUOUS
10
166.5516920000000027
20
-83.4992099999999908
11
169.1516919999999971
21
-83.4992099999999908
0
LINE
8
BLACK
6
CONTINUOUS
10
169.1516919999999971
20
-83.4992099999999908
11
169.1665579999999807
21
-83.5006739999999894
0
LINE
8
BLACK
6
CONTINUOUS
10
164.4423339999999882
20
-78.1426419999999951
11
164.4633579999999995
21
-78.1636659999999921
0
LINE
8
BLACK
6
CONTINUOUS
10
164.4633579999999995
20
-78.1636659999999921
11
164.4747359999999787
21
-78.191133999999991
0
LINE
8
BLACK
6
CONTINUOUS
10
164.4747359999999787
20
-78.191133999999991
11
164.4762000000000057
21
-78.2060000000000031
0
LINE
8
BLACK
6
CONTINUOUS
10
164.4762000000000057
20
-78.2060000000000031
11
164.4762000000000057
21
-80.7297999999999973
0
LINE
8
BLACK
6
CONTINUOUS
10
164.4762000000000057
20
-80.7297999999999973
11
165.5
21
-80.7297999999999973
0
LINE
8
BLACK
6
CONTINUOUS
10
165.5
20
-80.7297999999999973
11
165.5148659999999836
21
-80.7312639999999959
0
LINE
8
BLACK
6
CONTINUOUS
10
165.5148659999999836
20
-80.7312639999999959
11
165.5423339999999826
21
-80.7426419999999894
0
LINE
8
BLACK
6
CONTINUOUS
10
165.5423339999999826
20
-80.7426419999999894
11
165.5633579999999938
21
-80.7636660000000006
0
LINE
8
BLACK
6
CONTINUOUS
10
165.5633579999999938
20
-80.7636660000000006
11
165.5747360000000015
21
-80.7911339999999996
0
LINE
8
BLACK
6
CONTINUOUS
10
165.5747360000000015
20
-80.7911339999999996
11
165.5747360000000015
21
-80.8208659999999952
0
LINE
8
BLACK
6
CONTINUOUS
10
165.5747360000000015
20
-80.8208659999999952
11
165.5633579999999938
21
-80.8483339999999941
0
LINE
8
BLACK
6
CONTINUOUS
10
165.5633579999999938
20
-80.8483339999999941
11
165.5423339999999826
21
-80.8693579999999912
0
LINE
8
BLACK
6
CONTINUOUS
10
165.5423339999999826
20
-80.8693579999999912
11
165.5148659999999836
21
-80.8807359999999989
0
LINE
8
BLACK
6
CONTINUOUS
10
165.5148659999999836
20
-80.8807359999999989
11
165.5
21
-80.8821999999999974
0
LINE
8
BLACK
6
CONTINUOUS
10
165.5
20
-80.8821999999999974
11
164.4000000000000057
21
-80.8821999999999974
0
LINE
8
BLACK
6
CONTINUOUS
10
164.4000000000000057
20
-80.8821999999999974
11
164.3851339999999936
21
-80.8807359999999989
0
LINE
8
BLACK
6
CONTINUOUS
10
164.3851339999999936
20
-80.8807359999999989
11
164.3576659999999947
21
-80.8693579999999912
0
LINE
8
BLACK
6
CONTINUOUS
10
164.3576659999999947
20
-80.8693579999999912
11
164.3366419999999835
21
-80.8483339999999941
0
LINE
8
BLACK
6
CONTINUOUS
10
164.3366419999999835
20
-80.8483339999999941
11
164.3252640000000042
21
-80.8208659999999952
0
LINE
8
BLACK
6
CONTINUOUS
10
164.3252640000000042
20
-80.8208659999999952
11
164.3238000000000056
21
-80.8059999999999974
0
LINE
8
BLACK
6
CONTINUOUS
10
164.3238000000000056
20
-80.8059999999999974
11
164.3238000000000056
21
-78.2060000000000031
0
LINE
8
BLACK
6
CONTINUOUS
10
164.3238000000000056
20
-78.2060000000000031
11
164.3252640000000042
21
-78.191133999999991
0
LINE
8
BLACK
6
CONTINUOUS
10
164.3252640000000042
20
-78.191133999999991
11
164.3366419999999835
21
-78.1636659999999921
0
LINE
8
BLACK
6
CONTINUOUS
10
164.3366419999999835
20
-78.1636659999999921
11
164.3576659999999947
21
-78.1426419999999951
0
LINE
8
BLACK
6
CONTINUOUS
10
164.3576659999999947
20
-78.1426419999999951
11
164.3851339999999936
21
-78.1312640000000016
0
LINE
8
BLACK
6
CONTINUOUS
10
164.3851339999999936
20
-78.1312640000000016
11
164.4148659999999893
21
-78.1312640000000016
0
LINE
8
BLACK
6
CONTINUOUS
10
164.4148659999999893
20
-78.1312640000000016
11
164.4423339999999882
21
-78.1426419999999951
0
LINE
8
BLACK
6
CONTINUOUS
10
170.5423339999999826
20
-78.1426419999999951
11
170.5633579999999938
21
-78.1636659999999921
0
LINE
8
BLACK
6
CONTINUOUS
10
170.5633579999999938
20
-78.1636659999999921
11
170.5747360000000015
21
-78.191133999999991
0
LINE
8
BLACK
6
CONTINUOUS
10
170.5747360000000015
20
-78.191133999999991
11
170.5762
21
-78.2060000000000031
0
LINE
8
BLACK
6
CONTINUOUS
10
170.5762
20
-78.2060000000000031
11
170.5762
21
-80.8059999999999974
0
LINE
8
BLACK
6
CONTINUOUS
10
170.5762
20
-80.8059999999999974
11
170.5747360000000015
21
-80.8208659999999952
0
LINE
8
BLACK
6
CONTINUOUS
10
170.5747360000000015
20
-80.8208659999999952
11
170.5633579999999938
21
-80.8483339999999941
0
LINE
8
BLACK
6
CONTINUOUS
10
170.5633579999999938
20
-80.8483339999999941
11
170.5423339999999826
21
-80.8693579999999912
0
LINE
8
BLACK
6
CONTINUOUS
10
170.5423339999999826
20
-80.8693579999999912
11
170.5148659999999836
21
-80.8807359999999989
0
LINE
8
BLACK
6
CONTINUOUS
10
170.5148659999999836
20
-80.8807359999999989
11
170.5
21
-80.8821999999999974
0
LINE
8
BLACK
6
CONTINUOUS
10
170.5
20
-80.8821999999999974
11
169.2999999999999829
21
-80.8821999999999974
0
LINE
8
BLACK
6
CONTINUOUS
10
169.2999999999999829
20
-80.8821999999999974
11
169.2851339999999993
21
-80.8807359999999989
0
LINE
8
BLACK
6
CONTINUOUS
10
169.2851339999999993
20
-80.8807359999999989
11
169.2576660000000004
21
-80.8693579999999912
0
LINE
8
BLACK
6
CONTINUOUS
10
169.2576660000000004
20
-80.8693579999999912
11
169.2366419999999891
21
-80.8483339999999941
0
LINE
8
BLACK
6
CONTINUOUS
10
169.2366419999999891
20
-80.8483339999999941
11
169.2252639999999815
21
-80.8208659999999952
0
LINE
8
BLACK
6
CONTINUOUS
10
169.2252639999999815
20
-80.8208659999999952
11
169.2252639999999815
21
-80.7911339999999996
0
LINE
8
BLACK
6
CONTINUOUS
10
169.2252639999999815
20
-80.7911339999999996
11
169.2366419999999891
21
-80.7636660000000006
0
LINE
8
BLACK
6
CONTINUOUS
10
169.2366419999999891
20
-80.7636660000000006
11
169.2576660000000004
21
-80.7426419999999894
0
LINE
8
BLACK
6
CONTINUOUS
10
169.2576660000000004
20
-80.7426419999999894
11
169.2851339999999993
21
-80.7312639999999959
0
LINE
8
BLACK
6
CONTINUOUS
10
169.2851339999999993
20
-80.7312639999999959
11
169.2999999999999829
21
-80.7297999999999973
0
LINE
8
BLACK
6
CONTINUOUS
10
169.2999999999999829
20
-80.7297999999999973
11
170.4238
21
-80.7297999999999973
0
LINE
8
BLACK
6
CONTINUOUS
10
170.4238
20
-80.7297999999999973
11
170.4238
21
-78.2060000000000031
0
LINE
8
BLACK
6
CONTINUOUS
10
170.4238
20
-78.2060000000000031
11
170.4252639999999985
21
-78.191133999999991
0
LINE
8
BLACK
6
CONTINUOUS
10
170.4252639999999985
20
-78.191133999999991
11
170.4366420000000062
21
-78.1636659999999921
0
LINE
8
BLACK
6
CONTINUOUS
10
170.4366420000000062
20
-78.1636659999999921
11
170.457665999999989
21
-78.1426419999999951
0
LINE
8
BLACK
6
CONTINUOUS
10
170.457665999999989
20
-78.1426419999999951
11
170.485133999999988
21
-78.1312640000000016
0
LINE
8
BLACK
6
CONTINUOUS
10
170.485133999999988
20
-78.1312640000000016
11
170.5148659999999836
21
-78.1312640000000016
0
LINE
8
BLACK
6
CONTINUOUS
10
170.5148659999999836
20
-78.1312640000000016
11
170.5423339999999826
21
-78.1426419999999951
0
LINE
8
BLACK
6
CONTINUOUS
10
167.2054069999999797
20
-77.4961919999999935
11
167.2062219999999968
21
-77.4959209999999956
0
LINE
8
BLACK
6
CONTINUOUS
10
167.2062219999999968
20
-77.4959209999999956
11
167.212003999999979
21
-77.4975039999999922
0
LINE
8
BLACK
6
CONTINUOUS
10
167.212003999999979
20
-77.4975039999999922
11
167.2178789999999822
21
-77.4986729999999966
0
LINE
8
BLACK
6
CONTINUOUS
10
167.2178789999999822
20
-77.4986729999999966
11
167.2184849999999869
21
-77.4992790000000014
0
LINE
8
BLACK
6
CONTINUOUS
10
167.2184849999999869
20
-77.4992790000000014
11
167.2202920000000006
21
-77.4997740000000022
0
LINE
8
BLACK
6
CONTINUOUS
10
167.2202920000000006
20
-77.4997740000000022
11
167.3825029999999856
21
-77.5808799999999934
0
LINE
8
BLACK
6
CONTINUOUS
10
167.3825029999999856
20
-77.5808799999999934
11
167.3872389999999939
21
-77.5845549999999946
0
LINE
8
BLACK
6
CONTINUOUS
10
167.3872389999999939
20
-77.5845549999999946
11
167.3922199999999805
21
-77.5878840000000025
0
LINE
8
BLACK
6
CONTINUOUS
10
167.3922199999999805
20
-77.5878840000000025
11
167.4733259999999859
21
-77.6689899999999938
0
LINE
8
BLACK
6
CONTINUOUS
10
167.4733259999999859
20
-77.6689899999999938
11
167.4814309999999864
21
-77.6811199999999928
0
LINE
8
BLACK
6
CONTINUOUS
10
167.4814309999999864
20
-77.6811199999999928
11
167.4814309999999864
21
-77.7097359999999924
0
LINE
8
BLACK
6
CONTINUOUS
10
167.4814309999999864
20
-77.7097359999999924
11
167.461196000000001
21
-77.7299709999999919
0
LINE
8
BLACK
6
CONTINUOUS
10
167.461196000000001
20
-77.7299709999999919
11
167.4325800000000015
21
-77.7299709999999919
0
LINE
8
BLACK
6
CONTINUOUS
10
167.4325800000000015
20
-77.7299709999999919
11
167.4204499999999882
21
-77.7218659999999915
0
LINE
8
BLACK
6
CONTINUOUS
10
167.4204499999999882
20
-77.7218659999999915
11
167.3436339999999802
21
-77.6450499999999977
0
LINE
8
BLACK
6
CONTINUOUS
10
167.3436339999999802
20
-77.6450499999999977
11
167.1947439999999858
21
-77.5706050000000005
0
LINE
8
BLACK
6
CONTINUOUS
10
167.1947439999999858
20
-77.5706050000000005
11
166.8068690000000061
21
-77.5706050000000005
0
LINE
8
BLACK
6
CONTINUOUS
10
166.8068690000000061
20
-77.5706050000000005
11
166.6579769999999883
21
-77.6450509999999952
0
LINE
8
BLACK
6
CONTINUOUS
10
166.6579769999999883
20
-77.6450509999999952
11
166.5854530000000011
21
-77.717573999999999
0
LINE
8
BLACK
6
CONTINUOUS
10
166.5854530000000011
20
-77.717573999999999
11
166.5110080000000039
21
-77.8664660000000026
0
LINE
8
BLACK
6
CONTINUOUS
10
166.5110080000000039
20
-77.8664660000000026
11
166.5110080000000039
21
-78.0137849999999986
0
LINE
8
BLACK
6
CONTINUOUS
10
166.5110080000000039
20
-78.0137849999999986
11
166.5874029999999948
21
-78.2429719999999946
0
LINE
8
BLACK
6
CONTINUOUS
10
166.5874029999999948
20
-78.2429719999999946
11
167.5544319999999914
21
-79.2099999999999937
0
LINE
8
BLACK
6
CONTINUOUS
10
167.5544319999999914
20
-79.2099999999999937
11
167.5625369999999918
21
-79.2221299999999928
0
LINE
8
BLACK
6
CONTINUOUS
10
167.5625369999999918
20
-79.2221299999999928
11
167.5625369999999918
21
-79.2507459999999924
0
LINE
8
BLACK
6
CONTINUOUS
10
167.5625369999999918
20
-79.2507459999999924
11
167.5423020000000065
21
-79.2709809999999919
0
LINE
8
BLACK
6
CONTINUOUS
10
167.5423020000000065
20
-79.2709809999999919
11
167.5279939999999783
21
-79.2738269999999972
0
LINE
8
BLACK
6
CONTINUOUS
10
167.5279939999999783
20
-79.2738269999999972
11
166.4736189999999851
21
-79.2738269999999972
0
LINE
8
BLACK
6
CONTINUOUS
10
166.4736189999999851
20
-79.2738269999999972
11
166.4593109999999854
21
-79.2709809999999919
0
LINE
8
BLACK
6
CONTINUOUS
10
166.4593109999999854
20
-79.2709809999999919
11
166.439076
21
-79.2507459999999924
0
LINE
8
BLACK
6
CONTINUOUS
10
166.439076
20
-79.2507459999999924
11
166.439076
21
-79.2221299999999928
0
LINE
8
BLACK
6
CONTINUOUS
10
166.439076
20
-79.2221299999999928
11
166.4593109999999854
21
-79.2018949999999933
0
LINE
8
BLACK
6
CONTINUOUS
10
166.4593109999999854
20
-79.2018949999999933
11
166.4736189999999851
21
-79.1990490000000023
0
LINE
8
BLACK
6
CONTINUOUS
10
166.4736189999999851
20
-79.1990490000000023
11
167.4377289999999903
21
-79.1990490000000023
0
LINE
8
BLACK
6
CONTINUOUS
10
167.4377289999999903
20
-79.1990490000000023
11
166.52828599999998
21
-78.2896069999999895
0
LINE
8
BLACK
6
CONTINUOUS
10
166.52828599999998
20
-78.2896069999999895
11
166.5272449999999935
21
-78.2880490000000009
0
LINE
8
BLACK
6
CONTINUOUS
10
166.5272449999999935
20
-78.2880490000000009
11
166.5264779999999973
21
-78.2876660000000015
0
LINE
8
BLACK
6
CONTINUOUS
10
166.5264779999999973
20
-78.2876660000000015
11
166.523510999999985
21
-78.2824609999999979
0
LINE
8
BLACK
6
CONTINUOUS
10
166.523510999999985
20
-78.2824609999999979
11
166.5201809999999796
21
-78.2774769999999904
0
LINE
8
BLACK
6
CONTINUOUS
10
166.5201809999999796
20
-78.2774769999999904
11
166.5201809999999796
21
-78.2766179999999991
0
LINE
8
BLACK
6
CONTINUOUS
10
166.5201809999999796
20
-78.2766179999999991
11
166.5192539999999894
21
-78.2749919999999975
0
LINE
8
BLACK
6
CONTINUOUS
10
166.5192539999999894
20
-78.2749919999999975
11
166.4381489999999815
21
-78.0316739999999953
0
LINE
8
BLACK
6
CONTINUOUS
10
166.4381489999999815
20
-78.0316739999999953
11
166.4373989999999992
21
-78.0257309999999933
0
LINE
8
BLACK
6
CONTINUOUS
10
166.4373989999999992
20
-78.0257309999999933
11
166.4362299999999948
21
-78.0198510000000027
0
LINE
8
BLACK
6
CONTINUOUS
10
166.4362299999999948
20
-78.0198510000000027
11
166.4362299999999948
21
-77.8576400000000035
0
LINE
8
BLACK
6
CONTINUOUS
10
166.4362299999999948
20
-77.8576400000000035
11
166.4365949999999827
21
-77.8558029999999945
0
LINE
8
BLACK
6
CONTINUOUS
10
166.4365949999999827
20
-77.8558029999999945
11
166.4363239999999848
21
-77.8549900000000008
0
LINE
8
BLACK
6
CONTINUOUS
10
166.4363239999999848
20
-77.8549900000000008
11
166.4379069999999956
21
-77.8492079999999902
0
LINE
8
BLACK
6
CONTINUOUS
10
166.4379069999999956
20
-77.8492079999999902
11
166.439076
21
-77.8433319999999895
0
LINE
8
BLACK
6
CONTINUOUS
10
166.439076
20
-77.8433319999999895
11
166.4396820000000048
21
-77.8427250000000015
0
LINE
8
BLACK
6
CONTINUOUS
10
166.4396820000000048
20
-77.8427250000000015
11
166.4401770000000056
21
-77.8409189999999995
0
LINE
8
BLACK
6
CONTINUOUS
10
166.4401770000000056
20
-77.8409189999999995
11
166.5212819999999851
21
-77.6787070000000028
0
LINE
8
BLACK
6
CONTINUOUS
10
166.5212819999999851
20
-77.6787070000000028
11
166.524957999999998
21
-77.6739699999999971
0
LINE
8
BLACK
6
CONTINUOUS
10
166.524957999999998
20
-77.6739699999999971
11
166.52828599999998
21
-77.6689899999999938
0
LINE
8
BLACK
6
CONTINUOUS
10
166.52828599999998
20
-77.6689899999999938
11
166.6093919999999855
21
-77.5878840000000025
0
LINE
8
BLACK
6
CONTINUOUS
10
166.6093919999999855
20
-77.5878840000000025
11
166.614372000000003
21
-77.5845549999999946
0
LINE
8
BLACK
6
CONTINUOUS
10
166.614372000000003
20
-77.5845549999999946
11
166.6191089999999804
21
-77.5808799999999934
0
LINE
8
BLACK
6
CONTINUOUS
10
166.6191089999999804
20
-77.5808799999999934
11
166.7813219999999887
21
-77.4997740000000022
0
LINE
8
BLACK
6
CONTINUOUS
10
166.7813219999999887
20
-77.4997740000000022
11
166.783126999999979
21
-77.4992790000000014
0
LINE
8
BLACK
6
CONTINUOUS
10
166.783126999999979
20
-77.4992790000000014
11
166.7837339999999813
21
-77.4986729999999966
0
LINE
8
BLACK
6
CONTINUOUS
10
166.7837339999999813
20
-77.4986729999999966
11
166.7896120000000053
21
-77.4975029999999947
0
LINE
8
BLACK
6
CONTINUOUS
10
166.7896120000000053
20
-77.4975029999999947
11
166.7953919999999925
21
-77.4959209999999956
0
LINE
8
BLACK
6
CONTINUOUS
10
166.7953919999999925
20
-77.4959209999999956
11
166.7962049999999863
21
-77.4961919999999935
0
LINE
8
BLACK
6
CONTINUOUS
10
166.7962049999999863
20
-77.4961919999999935
11
166.798041999999981
21
-77.4958269999999914
0
LINE
8
BLACK
6
CONTINUOUS
10
166.798041999999981
20
-77.4958269999999914
11
167.2035709999999824
21
-77.4958269999999914
0
LINE
8
BLACK
6
CONTINUOUS
10
167.2035709999999824
20
-77.4958269999999914
11
167.2054069999999797
21
-77.4961919999999935
0
LINE
8
BLACK
6
CONTINUOUS
10
168.2113839999999811
20
-77.5189079999999962
11
168.2142299999999864
21
-77.5332159999999959
0
LINE
8
BLACK
6
CONTINUOUS
10
168.2142299999999864
20
-77.5332159999999959
11
168.2142299999999864
21
-78.7437369999999959
0
LINE
8
BLACK
6
CONTINUOUS
10
168.2142299999999864
20
-78.7437369999999959
11
168.2906250000000057
21
-78.9729239999999919
0
LINE
8
BLACK
6
CONTINUOUS
10
168.2906250000000057
20
-78.9729239999999919
11
168.4403549999999825
21
-79.1226539999999972
0
LINE
8
BLACK
6
CONTINUOUS
10
168.4403549999999825
20
-79.1226539999999972
11
168.6695409999999811
21
-79.1990490000000023
0
LINE
8
BLACK
6
CONTINUOUS
10
168.6695409999999811
20
-79.1990490000000023
11
168.8256869999999878
21
-79.1990490000000023
0
LINE
8
BLACK
6
CONTINUOUS
10
168.8256869999999878
20
-79.1990490000000023
11
168.8399949999999876
21
-79.2018949999999933
0
LINE
8
BLACK
6
CONTINUOUS
10
168.8399949999999876
20
-79.2018949999999933
11
168.8602300000000014
21
-79.2221299999999928
0
LINE
8
BLACK
6
CONTINUOUS
10
168.8602300000000014
20
-79.2221299999999928
11
168.8602300000000014
21
-79.2507459999999924
0
LINE
8
BLACK
6
CONTINUOUS
10
168.8602300000000014
20
-79.2507459999999924
11
168.8399949999999876
21
-79.2709809999999919
0
LINE
8
BLACK
6
CONTINUOUS
10
168.8399949999999876
20
-79.2709809999999919
11
168.8256869999999878
21
-79.2738269999999972
0
LINE
8
BLACK
6
CONTINUOUS
10
168.8256869999999878
20
-79.2738269999999972
11
168.6634750000000054
21
-79.2738269999999972
0
LINE
8
BLACK
6
CONTINUOUS
10
168.6634750000000054
20
-79.2738269999999972
11
168.6575949999999864
21
-79.2726569999999953
0
LINE
8
BLACK
6
CONTINUOUS
10
168.6575949999999864
20
-79.2726569999999953
11
168.6516509999999869
21
-79.2719079999999963
0
LINE
8
BLACK
6
CONTINUOUS
10
168.6516509999999869
20
-79.2719079999999963
11
168.4083349999999939
21
-79.1908030000000025
0
LINE
8
BLACK
6
CONTINUOUS
10
168.4083349999999939
20
-79.1908030000000025
11
168.4067090000000064
21
-79.1898759999999982
0
LINE
8
BLACK
6
CONTINUOUS
10
168.4067090000000064
20
-79.1898759999999982
11
168.4058489999999892
21
-79.1898759999999982
0
LINE
8
BLACK
6
CONTINUOUS
10
168.4058489999999892
20
-79.1898759999999982
11
168.4008609999999919
21
-79.1865430000000003
0
LINE
8
BLACK
6
CONTINUOUS
10
168.4008609999999919
20
-79.1865430000000003
11
168.3956609999999898
21
-79.1835789999999946
0
LINE
8
BLACK
6
CONTINUOUS
10
168.3956609999999898
20
-79.1835789999999946
11
168.395276999999993
21
-79.1828110000000009
0
LINE
8
BLACK
6
CONTINUOUS
10
168.395276999999993
20
-79.1828110000000009
11
168.3937200000000018
21
-79.1817709999999977
0
LINE
8
BLACK
6
CONTINUOUS
10
168.3937200000000018
20
-79.1817709999999977
11
168.2315079999999909
21
-79.019559000000001
0
LINE
8
BLACK
6
CONTINUOUS
10
168.2315079999999909
20
-79.019559000000001
11
168.2304670000000044
21
-79.0180009999999982
0
LINE
8
BLACK
6
CONTINUOUS
10
168.2304670000000044
20
-79.0180009999999982
11
168.2296999999999798
21
-79.0176179999999988
0
LINE
8
BLACK
6
CONTINUOUS
10
168.2296999999999798
20
-79.0176179999999988
11
168.2267329999999959
21
-79.0124129999999951
0
LINE
8
BLACK
6
CONTINUOUS
10
168.2267329999999959
20
-79.0124129999999951
11
168.2234029999999905
21
-79.0074290000000019
0
LINE
8
BLACK
6
CONTINUOUS
10
168.2234029999999905
20
-79.0074290000000019
11
168.2234029999999905
21
-79.0065699999999964
0
LINE
8
BLACK
6
CONTINUOUS
10
168.2234029999999905
20
-79.0065699999999964
11
168.2224760000000003
21
-79.0049439999999947
0
LINE
8
BLACK
6
CONTINUOUS
10
168.2224760000000003
20
-79.0049439999999947
11
168.1413709999999924
21
-78.7616259999999926
0
LINE
8
BLACK
6
CONTINUOUS
10
168.1413709999999924
20
-78.7616259999999926
11
168.1406209999999817
21
-78.7556829999999906
0
LINE
8
BLACK
6
CONTINUOUS
10
168.1406209999999817
20
-78.7556829999999906
11
168.1394520000000057
21
-78.749803
0
LINE
8
BLACK
6
CONTINUOUS
10
168.1394520000000057
20
-78.749803
11
168.1394520000000057
21
-77.5332159999999959
0
LINE
8
BLACK
6
CONTINUOUS
10
168.1394520000000057
20
-77.5332159999999959
11
168.1422979999999825
21
-77.5189079999999962
0
LINE
8
BLACK
6
CONTINUOUS
10
168.1422979999999825
20
-77.5189079999999962
11
168.1625329999999963
21
-77.4986729999999966
0
LINE
8
BLACK
6
CONTINUOUS
10
168.1625329999999963
20
-77.4986729999999966
11
168.1911489999999958
21
-77.4986729999999966
0
LINE
8
BLACK
6
CONTINUOUS
10
168.1911489999999958
20
-77.4986729999999966
11
168.2113839999999811
21
-77.5189079999999962
0
LINE
8
BLACK
6
CONTINUOUS
10
169.5148659999999836
20
-76.4312639999999988
11
169.5423339999999826
21
-76.4426419999999922
0
LINE
8
BLACK
6
CONTINUOUS
10
169.5423339999999826
20
-76.4426419999999922
11
169.5633579999999938
21
-76.4636660000000035
0
LINE
8
BLACK
6
CONTINUOUS
10
169.5633579999999938
20
-76.4636660000000035
11
169.5747360000000015
21
-76.4911340000000024
0
LINE
8
BLACK
6
CONTINUOUS
10
169.5747360000000015
20
-76.4911340000000024
11
169.5747360000000015
21
-76.5208659999999981
0
LINE
8
BLACK
6
CONTINUOUS
10
169.5747360000000015
20
-76.5208659999999981
11
169.5633579999999938
21
-76.548333999999997
0
LINE
8
BLACK
6
CONTINUOUS
10
169.5633579999999938
20
-76.548333999999997
11
169.5423339999999826
21
-76.569357999999994
0
LINE
8
BLACK
6
CONTINUOUS
10
169.5423339999999826
20
-76.569357999999994
11
169.5148659999999836
21
-76.5807360000000017
0
LINE
8
BLACK
6
CONTINUOUS
10
169.5148659999999836
20
-76.5807360000000017
11
169.5
21
-76.5822000000000003
0
LINE
8
BLACK
6
CONTINUOUS
10
169.5
20
-76.5822000000000003
11
165.2999999999999829
21
-76.5822000000000003
0
LINE
8
BLACK
6
CONTINUOUS
10
165.2999999999999829
20
-76.5822000000000003
11
165.2851339999999993
21
-76.5807360000000017
0
LINE
8
BLACK
6
CONTINUOUS
10
165.2851339999999993
20
-76.5807360000000017
11
165.2576660000000004
21
-76.569357999999994
0
LINE
8
BLACK
6
CONTINUOUS
10
165.2576660000000004
20
-76.569357999999994
11
165.2366419999999891
21
-76.548333999999997
0
LINE
8
BLACK
6
CONTINUOUS
10
165.2366419999999891
20
-76.548333999999997
11
165.2252639999999815
21
-76.5208659999999981
0
LINE
8
BLACK
6
CONTINUOUS
10
165.2252639999999815
20
-76.5208659999999981
11
165.2252639999999815
21
-76.4911340000000024
0
LINE
8
BLACK
6
CONTINUOUS
10
165.2252639999999815
20
-76.4911340000000024
11
165.2366419999999891
21
-76.4636660000000035
0
LINE
8
BLACK
6
CONTINUOUS
10
165.2366419999999891
20
-76.4636660000000035
11
165.2576660000000004
21
-76.4426419999999922
0
LINE
8
BLACK
6
CONTINUOUS
10
165.2576660000000004
20
-76.4426419999999922
11
165.2851339999999993
21
-76.4312639999999988
0
LINE
8
BLACK
6
CONTINUOUS
10
165.2851339999999993
20
-76.4312639999999988
11
165.2999999999999829
21
-76.4298000000000002
0
LINE
8
BLACK
6
CONTINUOUS
10
165.2999999999999829
20
-76.4298000000000002
11
169.5
21
-76.4298000000000002
0
LINE
8
BLACK
6
CONTINUOUS
10
169.5
20
-76.4298000000000002
11
169.5148659999999836
21
-76.4312639999999988
  0
ENDSEC
  0
EOF
