%TF.GenerationSoftware,KiCad,Pcbnew,9.0.0*%
%TF.CreationDate,2025-04-03T20:24:29-07:00*%
%TF.ProjectId,nicenano-breakout,6e696365-6e61-46e6-9f2d-627265616b6f,rev?*%
%TF.SameCoordinates,Original*%
%TF.FileFunction,Soldermask,Bot*%
%TF.FilePolarity,Negative*%
%FSLAX46Y46*%
G04 Gerber Fmt 4.6, Leading zero omitted, Abs format (unit mm)*
G04 Created by KiCad (PCBNEW 9.0.0) date 2025-04-03 20:24:29*
%MOMM*%
%LPD*%
G01*
G04 APERTURE LIST*
G04 Aperture macros list*
%AMRoundRect*
0 Rectangle with rounded corners*
0 $1 Rounding radius*
0 $2 $3 $4 $5 $6 $7 $8 $9 X,Y pos of 4 corners*
0 Add a 4 corners polygon primitive as box body*
4,1,4,$2,$3,$4,$5,$6,$7,$8,$9,$2,$3,0*
0 Add four circle primitives for the rounded corners*
1,1,$1+$1,$2,$3*
1,1,$1+$1,$4,$5*
1,1,$1+$1,$6,$7*
1,1,$1+$1,$8,$9*
0 Add four rect primitives between the rounded corners*
20,1,$1+$1,$2,$3,$4,$5,0*
20,1,$1+$1,$4,$5,$6,$7,0*
20,1,$1+$1,$6,$7,$8,$9,0*
20,1,$1+$1,$8,$9,$2,$3,0*%
G04 Aperture macros list end*
%ADD10C,2.000000*%
%ADD11R,0.600000X1.550000*%
%ADD12R,1.200000X1.800000*%
%ADD13C,0.900000*%
%ADD14RoundRect,0.250000X-1.000000X0.375000X-1.000000X-0.375000X1.000000X-0.375000X1.000000X0.375000X0*%
%ADD15R,1.550000X0.600000*%
%ADD16R,1.800000X1.200000*%
%ADD17RoundRect,0.250000X1.500000X-0.250000X1.500000X0.250000X-1.500000X0.250000X-1.500000X-0.250000X0*%
%ADD18RoundRect,0.250001X1.449999X-0.499999X1.449999X0.499999X-1.449999X0.499999X-1.449999X-0.499999X0*%
G04 APERTURE END LIST*
D10*
%TO.C,U1*%
X202449159Y-79055400D03*
X199909159Y-79055400D03*
X197369159Y-79055400D03*
X194829159Y-79055400D03*
X192289159Y-79055400D03*
X189749159Y-79055400D03*
X187209159Y-79055400D03*
X184669159Y-79055400D03*
X182129159Y-79055400D03*
X179589159Y-79055400D03*
X177049159Y-79055400D03*
X174509159Y-79055400D03*
X174509169Y-94295410D03*
X177049169Y-94295410D03*
X179589169Y-94295410D03*
X182129169Y-94295410D03*
X184669169Y-94295410D03*
X187209169Y-94295410D03*
X189749169Y-94295410D03*
X192289169Y-94295410D03*
X194829169Y-94295410D03*
X197369169Y-94295410D03*
X199909169Y-94295410D03*
X202449169Y-94295410D03*
X204989159Y-79055400D03*
X204989169Y-94295410D03*
%TD*%
D11*
%TO.C,J2*%
X165900000Y-81106000D03*
X166900000Y-81106000D03*
X167900000Y-81106000D03*
X168900000Y-81106000D03*
D12*
X164600000Y-77206000D03*
X170200000Y-77206000D03*
%TD*%
D13*
%TO.C,SW1*%
X203000000Y-83250000D03*
X203000000Y-90050000D03*
D14*
X200250000Y-84150000D03*
X200250000Y-86650000D03*
X200250000Y-89150000D03*
%TD*%
D15*
%TO.C,J3*%
X169451692Y-88175410D03*
X169451692Y-87175410D03*
X169451692Y-86175410D03*
X169451692Y-85175410D03*
D16*
X165551692Y-89475410D03*
X165551692Y-83875410D03*
%TD*%
D11*
%TO.C,J4*%
X169000000Y-92194000D03*
X168000000Y-92194000D03*
X167000000Y-92194000D03*
X166000000Y-92194000D03*
D12*
X170300000Y-96094000D03*
X164700000Y-96094000D03*
%TD*%
D17*
%TO.C,J1*%
X192817550Y-87807860D03*
X192817550Y-85807860D03*
D18*
X187067550Y-90157860D03*
X187067550Y-83457860D03*
%TD*%
M02*
