%TF.GenerationSoftware,KiCad,Pcbnew,9.0.0*%
%TF.CreationDate,2025-04-03T20:24:29-07:00*%
%TF.ProjectId,nicenano-breakout,6e696365-6e61-46e6-9f2d-627265616b6f,rev?*%
%TF.SameCoordinates,Original*%
%TF.FileFunction,Legend,Bot*%
%TF.FilePolarity,Positive*%
%FSLAX46Y46*%
G04 Gerber Fmt 4.6, Leading zero omitted, Abs format (unit mm)*
G04 Created by KiCad (PCBNEW 9.0.0) date 2025-04-03 20:24:29*
%MOMM*%
%LPD*%
G01*
G04 APERTURE LIST*
%ADD10C,0.100000*%
%ADD11C,0.150000*%
%ADD12C,0.074778*%
%ADD13C,0.200000*%
%ADD14C,0.152400*%
%ADD15C,0.120000*%
G04 APERTURE END LIST*
D10*
X202110744Y-80422306D02*
X202110744Y-80993734D01*
X202110744Y-80708020D02*
X203110744Y-80708020D01*
X203110744Y-80708020D02*
X202967887Y-80803258D01*
X202967887Y-80803258D02*
X202872649Y-80898496D01*
X202872649Y-80898496D02*
X202825030Y-80993734D01*
D11*
X206027730Y-88069764D02*
X205218207Y-88069764D01*
X205218207Y-88069764D02*
X205122969Y-88022145D01*
X205122969Y-88022145D02*
X205075350Y-87974526D01*
X205075350Y-87974526D02*
X205027730Y-87879288D01*
X205027730Y-87879288D02*
X205027730Y-87688812D01*
X205027730Y-87688812D02*
X205075350Y-87593574D01*
X205075350Y-87593574D02*
X205122969Y-87545955D01*
X205122969Y-87545955D02*
X205218207Y-87498336D01*
X205218207Y-87498336D02*
X206027730Y-87498336D01*
X205075350Y-87069764D02*
X205027730Y-86926907D01*
X205027730Y-86926907D02*
X205027730Y-86688812D01*
X205027730Y-86688812D02*
X205075350Y-86593574D01*
X205075350Y-86593574D02*
X205122969Y-86545955D01*
X205122969Y-86545955D02*
X205218207Y-86498336D01*
X205218207Y-86498336D02*
X205313445Y-86498336D01*
X205313445Y-86498336D02*
X205408683Y-86545955D01*
X205408683Y-86545955D02*
X205456302Y-86593574D01*
X205456302Y-86593574D02*
X205503921Y-86688812D01*
X205503921Y-86688812D02*
X205551540Y-86879288D01*
X205551540Y-86879288D02*
X205599159Y-86974526D01*
X205599159Y-86974526D02*
X205646778Y-87022145D01*
X205646778Y-87022145D02*
X205742016Y-87069764D01*
X205742016Y-87069764D02*
X205837254Y-87069764D01*
X205837254Y-87069764D02*
X205932492Y-87022145D01*
X205932492Y-87022145D02*
X205980111Y-86974526D01*
X205980111Y-86974526D02*
X206027730Y-86879288D01*
X206027730Y-86879288D02*
X206027730Y-86641193D01*
X206027730Y-86641193D02*
X205980111Y-86498336D01*
X205551540Y-85736431D02*
X205503921Y-85593574D01*
X205503921Y-85593574D02*
X205456302Y-85545955D01*
X205456302Y-85545955D02*
X205361064Y-85498336D01*
X205361064Y-85498336D02*
X205218207Y-85498336D01*
X205218207Y-85498336D02*
X205122969Y-85545955D01*
X205122969Y-85545955D02*
X205075350Y-85593574D01*
X205075350Y-85593574D02*
X205027730Y-85688812D01*
X205027730Y-85688812D02*
X205027730Y-86069764D01*
X205027730Y-86069764D02*
X206027730Y-86069764D01*
X206027730Y-86069764D02*
X206027730Y-85736431D01*
X206027730Y-85736431D02*
X205980111Y-85641193D01*
X205980111Y-85641193D02*
X205932492Y-85593574D01*
X205932492Y-85593574D02*
X205837254Y-85545955D01*
X205837254Y-85545955D02*
X205742016Y-85545955D01*
X205742016Y-85545955D02*
X205646778Y-85593574D01*
X205646778Y-85593574D02*
X205599159Y-85641193D01*
X205599159Y-85641193D02*
X205551540Y-85736431D01*
X205551540Y-85736431D02*
X205551540Y-86069764D01*
D12*
X168176841Y-77533216D02*
X168176841Y-78749803D01*
X168176841Y-78749803D02*
X168257946Y-78993121D01*
X168257946Y-78993121D02*
X168420158Y-79155333D01*
X168420158Y-79155333D02*
X168663475Y-79236438D01*
X168663475Y-79236438D02*
X168825687Y-79236438D01*
X167446888Y-77695428D02*
X167365782Y-77614322D01*
X167365782Y-77614322D02*
X167203571Y-77533216D01*
X167203571Y-77533216D02*
X166798042Y-77533216D01*
X166798042Y-77533216D02*
X166635830Y-77614322D01*
X166635830Y-77614322D02*
X166554724Y-77695428D01*
X166554724Y-77695428D02*
X166473619Y-77857640D01*
X166473619Y-77857640D02*
X166473619Y-78019851D01*
X166473619Y-78019851D02*
X166554724Y-78263169D01*
X166554724Y-78263169D02*
X167527994Y-79236438D01*
X167527994Y-79236438D02*
X166473619Y-79236438D01*
D11*
X198607200Y-85316667D02*
X198654819Y-85459524D01*
X198654819Y-85459524D02*
X198654819Y-85697619D01*
X198654819Y-85697619D02*
X198607200Y-85792857D01*
X198607200Y-85792857D02*
X198559580Y-85840476D01*
X198559580Y-85840476D02*
X198464342Y-85888095D01*
X198464342Y-85888095D02*
X198369104Y-85888095D01*
X198369104Y-85888095D02*
X198273866Y-85840476D01*
X198273866Y-85840476D02*
X198226247Y-85792857D01*
X198226247Y-85792857D02*
X198178628Y-85697619D01*
X198178628Y-85697619D02*
X198131009Y-85507143D01*
X198131009Y-85507143D02*
X198083390Y-85411905D01*
X198083390Y-85411905D02*
X198035771Y-85364286D01*
X198035771Y-85364286D02*
X197940533Y-85316667D01*
X197940533Y-85316667D02*
X197845295Y-85316667D01*
X197845295Y-85316667D02*
X197750057Y-85364286D01*
X197750057Y-85364286D02*
X197702438Y-85411905D01*
X197702438Y-85411905D02*
X197654819Y-85507143D01*
X197654819Y-85507143D02*
X197654819Y-85745238D01*
X197654819Y-85745238D02*
X197702438Y-85888095D01*
X197654819Y-86221429D02*
X198654819Y-86459524D01*
X198654819Y-86459524D02*
X197940533Y-86650000D01*
X197940533Y-86650000D02*
X198654819Y-86840476D01*
X198654819Y-86840476D02*
X197654819Y-87078572D01*
X198654819Y-87983333D02*
X198654819Y-87411905D01*
X198654819Y-87697619D02*
X197654819Y-87697619D01*
X197654819Y-87697619D02*
X197797676Y-87602381D01*
X197797676Y-87602381D02*
X197892914Y-87507143D01*
X197892914Y-87507143D02*
X197940533Y-87411905D01*
D12*
X166028908Y-85748568D02*
X167245495Y-85748568D01*
X167245495Y-85748568D02*
X167488813Y-85667463D01*
X167488813Y-85667463D02*
X167651025Y-85505251D01*
X167651025Y-85505251D02*
X167732130Y-85261934D01*
X167732130Y-85261934D02*
X167732130Y-85099722D01*
X166028908Y-86397415D02*
X166028908Y-87451790D01*
X166028908Y-87451790D02*
X166677755Y-86884050D01*
X166677755Y-86884050D02*
X166677755Y-87127367D01*
X166677755Y-87127367D02*
X166758861Y-87289579D01*
X166758861Y-87289579D02*
X166839966Y-87370685D01*
X166839966Y-87370685D02*
X167002178Y-87451790D01*
X167002178Y-87451790D02*
X167407707Y-87451790D01*
X167407707Y-87451790D02*
X167569919Y-87370685D01*
X167569919Y-87370685D02*
X167651025Y-87289579D01*
X167651025Y-87289579D02*
X167732130Y-87127367D01*
X167732130Y-87127367D02*
X167732130Y-86640732D01*
X167732130Y-86640732D02*
X167651025Y-86478521D01*
X167651025Y-86478521D02*
X167569919Y-86397415D01*
X166523158Y-95666783D02*
X166523158Y-94450196D01*
X166523158Y-94450196D02*
X166442053Y-94206878D01*
X166442053Y-94206878D02*
X166279841Y-94044667D01*
X166279841Y-94044667D02*
X166036524Y-93963561D01*
X166036524Y-93963561D02*
X165874312Y-93963561D01*
X168064169Y-95099042D02*
X168064169Y-93963561D01*
X167658640Y-95747889D02*
X167253111Y-94531301D01*
X167253111Y-94531301D02*
X168307486Y-94531301D01*
D11*
X195222369Y-86474526D02*
X195936654Y-86474526D01*
X195936654Y-86474526D02*
X196079511Y-86426907D01*
X196079511Y-86426907D02*
X196174750Y-86331669D01*
X196174750Y-86331669D02*
X196222369Y-86188812D01*
X196222369Y-86188812D02*
X196222369Y-86093574D01*
X196222369Y-87474526D02*
X196222369Y-86903098D01*
X196222369Y-87188812D02*
X195222369Y-87188812D01*
X195222369Y-87188812D02*
X195365226Y-87093574D01*
X195365226Y-87093574D02*
X195460464Y-86998336D01*
X195460464Y-86998336D02*
X195508083Y-86903098D01*
D10*
%TO.C,U1*%
X206989159Y-82055400D02*
X206989159Y-91555400D01*
X200489159Y-82055400D02*
X206989159Y-82055400D01*
X206989159Y-91555400D02*
X200489159Y-91555400D01*
X200489159Y-91555400D02*
X200489159Y-82055400D01*
D13*
X206477550Y-95697860D02*
X173139169Y-95697860D01*
X173139169Y-77652959D01*
X206477550Y-77652959D01*
X206477550Y-95697860D01*
D14*
%TO.C,J2*%
X164400000Y-78206000D02*
X164400000Y-80806000D01*
X164400000Y-80806000D02*
X165500000Y-80806000D01*
X165300000Y-76506000D02*
X169500000Y-76506000D01*
X169300000Y-80806000D02*
X170500000Y-80806000D01*
X170500000Y-80806000D02*
X170500000Y-78206000D01*
D15*
%TO.C,SW1*%
X201100000Y-82050000D02*
X201100000Y-83250000D01*
X201100000Y-85750000D02*
X201100000Y-85050000D01*
X201100000Y-88250000D02*
X201100000Y-87550000D01*
X201100000Y-90050000D02*
X201100000Y-91250000D01*
X201100000Y-91250000D02*
X203400000Y-91250000D01*
X203400000Y-82050000D02*
X201100000Y-82050000D01*
D14*
%TO.C,J3*%
X164851692Y-88775410D02*
X164851692Y-84575410D01*
X166551692Y-89675410D02*
X169151692Y-89675410D01*
X169151692Y-83575410D02*
X166551692Y-83575410D01*
X169151692Y-84775410D02*
X169151692Y-83575410D01*
X169151692Y-89675410D02*
X169151692Y-88575410D01*
%TO.C,J4*%
X164400000Y-92494000D02*
X164400000Y-95094000D01*
X165600000Y-92494000D02*
X164400000Y-92494000D01*
X169600000Y-96794000D02*
X165400000Y-96794000D01*
X170500000Y-92494000D02*
X169400000Y-92494000D01*
X170500000Y-95094000D02*
X170500000Y-92494000D01*
D15*
%TO.C,J1*%
X185457550Y-89147860D02*
X185457550Y-84467860D01*
X189027550Y-82747860D02*
X193277550Y-82747860D01*
X189027550Y-90867860D02*
X193277550Y-90867860D01*
X191677550Y-83767860D02*
X191677550Y-85047860D01*
X191677550Y-88567860D02*
X194567550Y-88567860D01*
X191677550Y-89847860D02*
X191677550Y-88567860D01*
X193277550Y-82747860D02*
X193277550Y-83767860D01*
X193277550Y-83767860D02*
X191677550Y-83767860D01*
X193277550Y-89847860D02*
X191677550Y-89847860D01*
X193277550Y-90867860D02*
X193277550Y-89847860D01*
%TD*%
M02*
