M48
; DRILL file {KiCad 9.0.0} date 2025-04-03T20:24:31-0700
; FORMAT={-:-/ absolute / metric / decimal}
; #@! TF.CreationDate,2025-04-03T20:24:31-07:00
; #@! TF.GenerationSoftware,Kicad,Pcbnew,9.0.0
; #@! TF.FileFunction,MixedPlating,1,2
FMAT,2
METRIC
; #@! TA.AperFunction,Plated,PTH,ComponentDrill
T1C0.762
; #@! TA.AperFunction,Plated,PTH,ComponentDrill
T2C0.914
; #@! TA.AperFunction,Plated,PTH,ComponentDrill
T3C0.914
; #@! TA.AperFunction,NonPlated,NPTH,ComponentDrill
T4C0.900
%
G90
G05
T1
X204.989Y-79.055
X204.989Y-94.295
T2
X174.509Y-79.055
T3
X174.509Y-94.295
X177.049Y-79.055
X177.049Y-94.295
X179.589Y-79.055
X179.589Y-94.295
X182.129Y-79.055
X182.129Y-94.295
X184.669Y-79.055
X184.669Y-94.295
X187.209Y-79.055
X187.209Y-94.295
X189.749Y-79.055
X189.749Y-94.295
X192.289Y-79.055
X192.289Y-94.295
X194.829Y-79.055
X194.829Y-94.295
X197.369Y-79.055
X197.369Y-94.295
X199.909Y-79.055
X199.909Y-94.295
X202.449Y-79.055
X202.449Y-94.295
T4
X203.0Y-83.25
X203.0Y-90.05
M30
