  0
SECTION
  2
HEADER
  9
$ANGBASE
  50
0.0
  9
$ANGDIR
  70
1
  9
$MEASUREMENT
  70
1
  0
ENDSEC
  0
SECTION
  2
TABLES
  0
TABLE
  2
LTYPE
  70
4
  0
LTYPE
  5
40F
  2
CONTINUOUS
  70
0
  3
Solid line
  72
65
  73
0
  40
0.0
  0
LTYPE
  5
410
  2
DASHDOT
 70
0
  3
Dash Dot ____ _ ____ _
 72
65
 73
4
 40
2.0
 49
1.25
 49
-0.25
 49
0.25
 49
-0.25
  0
LTYPE
  5
411
  2
DASHED
 70
0
  3
Dashed __ __ __ __ __
 72
65
 73
2
 40
0.75
 49
0.5
 49
-0.25
  0
LTYPE
  5
43B
  2
DOTTED
 70
0
  3
Dotted .  .  .  .
 72
65
 73
2
 40
0.2
 49
0.0
 49
-0.2
  0
ENDTAB
  0
TABLE
  2
STYLE
  70
4
  0
STYLE
  2
KICAD
  70
0
  40
0
  41
1
  42
1
  50
0
  71
0
  3
isocp.shx
  0
STYLE
  2
KICADB
  70
0
  40
0
  41
1
  42
1
  50
0
  71
0
  3
isocp.shx
  0
STYLE
  2
KICADI
  70
0
  40
0
  41
1
  42
1
  50
15
  71
0
  3
isocp.shx
  0
STYLE
  2
KICADBI
  70
0
  40
0
  41
1
  42
1
  50
15
  71
0
  3
isocp.shx
  0
ENDTAB
  0
TABLE
  2
LAYER
  70
1
  0
LAYER
  2
BLACK
  70
0
  62
7
  6
CONTINUOUS
  0
ENDTAB
  0
ENDSEC
  0
SECTION
  2
ENTITIES
0
LINE
8
BLACK
6
CONTINUOUS
10
201.3213749999999891
20
-87.713319999999996
11
201.3671559999999943
21
-87.7322829999999954
0
LINE
8
BLACK
6
CONTINUOUS
10
201.3671559999999943
20
-87.7322829999999954
11
201.4021960000000036
21
-87.7673229999999904
0
LINE
8
BLACK
6
CONTINUOUS
10
201.4021960000000036
20
-87.7673229999999904
11
201.4211589999999887
21
-87.8131039999999956
0
LINE
8
BLACK
6
CONTINUOUS
10
201.4211589999999887
20
-87.8131039999999956
11
201.4235989999999958
21
-87.8378799999999984
0
LINE
8
BLACK
6
CONTINUOUS
10
201.4235989999999958
20
-87.8378799999999984
11
201.4235989999999958
21
-89.5878900000000016
0
LINE
8
BLACK
6
CONTINUOUS
10
201.4235989999999958
20
-89.5878900000000016
11
201.4211589999999887
21
-89.6126659999999902
0
LINE
8
BLACK
6
CONTINUOUS
10
201.4211589999999887
20
-89.6126659999999902
11
201.4021960000000036
21
-89.6584469999999953
0
LINE
8
BLACK
6
CONTINUOUS
10
201.4021960000000036
20
-89.6584469999999953
11
201.3671559999999943
21
-89.6934869999999904
0
LINE
8
BLACK
6
CONTINUOUS
10
201.3671559999999943
20
-89.6934869999999904
11
201.3213749999999891
21
-89.7124499999999898
0
LINE
8
BLACK
6
CONTINUOUS
10
201.3213749999999891
20
-89.7124499999999898
11
201.2965989999999863
21
-89.7148899999999969
0
LINE
8
BLACK
6
CONTINUOUS
10
201.2965989999999863
20
-89.7148899999999969
11
200.8542589999999848
21
-89.7148899999999969
0
LINE
8
BLACK
6
CONTINUOUS
10
200.8542589999999848
20
-89.7148899999999969
11
200.829482999999982
21
-89.7124499999999898
0
LINE
8
BLACK
6
CONTINUOUS
10
200.829482999999982
20
-89.7124499999999898
11
200.7837019999999768
21
-89.6934869999999904
0
LINE
8
BLACK
6
CONTINUOUS
10
200.7837019999999768
20
-89.6934869999999904
11
200.7486619999999959
21
-89.6584469999999953
0
LINE
8
BLACK
6
CONTINUOUS
10
200.7486619999999959
20
-89.6584469999999953
11
200.7296989999999823
21
-89.6126659999999902
0
LINE
8
BLACK
6
CONTINUOUS
10
200.7296989999999823
20
-89.6126659999999902
11
200.7296989999999823
21
-89.5631139999999988
0
LINE
8
BLACK
6
CONTINUOUS
10
200.7296989999999823
20
-89.5631139999999988
11
200.7486619999999959
21
-89.5173329999999936
0
LINE
8
BLACK
6
CONTINUOUS
10
200.7486619999999959
20
-89.5173329999999936
11
200.7837019999999768
21
-89.4822929999999985
0
LINE
8
BLACK
6
CONTINUOUS
10
200.7837019999999768
20
-89.4822929999999985
11
200.829482999999982
21
-89.4633299999999991
0
LINE
8
BLACK
6
CONTINUOUS
10
200.829482999999982
20
-89.4633299999999991
11
200.8542589999999848
21
-89.460889999999992
0
LINE
8
BLACK
6
CONTINUOUS
10
200.8542589999999848
20
-89.460889999999992
11
201.1695989999999767
21
-89.460889999999992
0
LINE
8
BLACK
6
CONTINUOUS
10
201.1695989999999767
20
-89.460889999999992
11
201.1695989999999767
21
-87.9648799999999937
0
LINE
8
BLACK
6
CONTINUOUS
10
201.1695989999999767
20
-87.9648799999999937
11
200.8527389999999855
21
-87.9648799999999937
0
LINE
8
BLACK
6
CONTINUOUS
10
200.8527389999999855
20
-87.9648799999999937
11
200.8279629999999827
21
-87.9624400000000009
0
LINE
8
BLACK
6
CONTINUOUS
10
200.8279629999999827
20
-87.9624400000000009
11
200.7821819999999775
21
-87.9434770000000015
0
LINE
8
BLACK
6
CONTINUOUS
10
200.7821819999999775
20
-87.9434770000000015
11
200.7471419999999966
21
-87.9084369999999922
0
LINE
8
BLACK
6
CONTINUOUS
10
200.7471419999999966
20
-87.9084369999999922
11
200.728178999999983
21
-87.8626560000000012
0
LINE
8
BLACK
6
CONTINUOUS
10
200.728178999999983
20
-87.8626560000000012
11
200.728178999999983
21
-87.8131039999999956
0
LINE
8
BLACK
6
CONTINUOUS
10
200.728178999999983
20
-87.8131039999999956
11
200.7471419999999966
21
-87.7673229999999904
0
LINE
8
BLACK
6
CONTINUOUS
10
200.7471419999999966
20
-87.7673229999999904
11
200.7821819999999775
21
-87.7322829999999954
0
LINE
8
BLACK
6
CONTINUOUS
10
200.7821819999999775
20
-87.7322829999999954
11
200.8279629999999827
21
-87.713319999999996
0
LINE
8
BLACK
6
CONTINUOUS
10
200.8279629999999827
20
-87.713319999999996
11
200.8527389999999855
21
-87.7108800000000031
0
LINE
8
BLACK
6
CONTINUOUS
10
200.8527389999999855
20
-87.7108800000000031
11
201.2965989999999863
21
-87.7108800000000031
0
LINE
8
BLACK
6
CONTINUOUS
10
201.2965989999999863
20
-87.7108800000000031
11
201.3213749999999891
21
-87.713319999999996
0
LINE
8
BLACK
6
CONTINUOUS
10
204.1661719999999889
20
-88.7819199999999995
11
204.168660999999986
21
-88.7829509999999971
0
LINE
8
BLACK
6
CONTINUOUS
10
204.168660999999986
20
-88.7829509999999971
11
204.1713489999999922
21
-88.783141999999998
0
LINE
8
BLACK
6
CONTINUOUS
10
204.1713489999999922
20
-88.783141999999998
11
204.1850809999999967
21
-88.7883969999999891
0
LINE
8
BLACK
6
CONTINUOUS
10
204.1850809999999967
20
-88.7883969999999891
11
204.2803189999999915
21
-88.8360160000000008
0
LINE
8
BLACK
6
CONTINUOUS
10
204.2803189999999915
20
-88.8360160000000008
11
204.282765999999981
21
-88.8375559999999922
0
LINE
8
BLACK
6
CONTINUOUS
10
204.282765999999981
20
-88.8375559999999922
11
204.2839199999999948
21
-88.8379410000000007
0
LINE
8
BLACK
6
CONTINUOUS
10
204.2839199999999948
20
-88.8379410000000007
11
204.2853559999999788
21
-88.839185999999998
0
LINE
8
BLACK
6
CONTINUOUS
10
204.2853559999999788
20
-88.839185999999998
11
204.292761999999982
21
-88.8438479999999942
0
LINE
8
BLACK
6
CONTINUOUS
10
204.292761999999982
20
-88.8438479999999942
11
204.298923000000002
21
-88.8509519999999924
0
LINE
8
BLACK
6
CONTINUOUS
10
204.298923000000002
20
-88.8509519999999924
11
204.3060279999999977
21
-88.8571139999999957
0
LINE
8
BLACK
6
CONTINUOUS
10
204.3060279999999977
20
-88.8571139999999957
11
204.3106889999999964
21
-88.8645190000000014
0
LINE
8
BLACK
6
CONTINUOUS
10
204.3106889999999964
20
-88.8645190000000014
11
204.311934999999977
21
-88.8659559999999971
0
LINE
8
BLACK
6
CONTINUOUS
10
204.311934999999977
20
-88.8659559999999971
11
204.3123190000000022
21
-88.8671089999999992
0
LINE
8
BLACK
6
CONTINUOUS
10
204.3123190000000022
20
-88.8671089999999992
11
204.3138599999999769
21
-88.8695570000000004
0
LINE
8
BLACK
6
CONTINUOUS
10
204.3138599999999769
20
-88.8695570000000004
11
204.3614790000000028
21
-88.9647949999999952
0
LINE
8
BLACK
6
CONTINUOUS
10
204.3614790000000028
20
-88.9647949999999952
11
204.3667339999999797
21
-88.9785260000000022
0
LINE
8
BLACK
6
CONTINUOUS
10
204.3667339999999797
20
-88.9785260000000022
11
204.3669249999999806
21
-88.9812149999999917
0
LINE
8
BLACK
6
CONTINUOUS
10
204.3669249999999806
20
-88.9812149999999917
11
204.3679559999999924
21
-88.983704000000003
0
LINE
8
BLACK
6
CONTINUOUS
10
204.3679559999999924
20
-88.983704000000003
11
204.3693969999999922
21
-88.9983359999999948
0
LINE
8
BLACK
6
CONTINUOUS
10
204.3693969999999922
20
-88.9983359999999948
11
204.3693969999999922
21
-89.1888119999999986
0
LINE
8
BLACK
6
CONTINUOUS
10
204.3693969999999922
20
-89.1888119999999986
11
204.3679559999999924
21
-89.2034439999999904
0
LINE
8
BLACK
6
CONTINUOUS
10
204.3679559999999924
20
-89.2034439999999904
11
204.3669249999999806
21
-89.20593199999999
0
LINE
8
BLACK
6
CONTINUOUS
10
204.3669249999999806
20
-89.20593199999999
11
204.3667339999999797
21
-89.2086219999999912
0
LINE
8
BLACK
6
CONTINUOUS
10
204.3667339999999797
20
-89.2086219999999912
11
204.3614790000000028
21
-89.2223529999999982
0
LINE
8
BLACK
6
CONTINUOUS
10
204.3614790000000028
20
-89.2223529999999982
11
204.3138599999999769
21
-89.3175909999999931
0
LINE
8
BLACK
6
CONTINUOUS
10
204.3138599999999769
20
-89.3175909999999931
11
204.3123190000000022
21
-89.3200379999999967
0
LINE
8
BLACK
6
CONTINUOUS
10
204.3123190000000022
20
-89.3200379999999967
11
204.311934999999977
21
-89.3211919999999964
0
LINE
8
BLACK
6
CONTINUOUS
10
204.311934999999977
20
-89.3211919999999964
11
204.3106889999999964
21
-89.3226279999999946
0
LINE
8
BLACK
6
CONTINUOUS
10
204.3106889999999964
20
-89.3226279999999946
11
204.3060279999999977
21
-89.3300339999999977
0
LINE
8
BLACK
6
CONTINUOUS
10
204.3060279999999977
20
-89.3300339999999977
11
204.298923000000002
21
-89.3361949999999894
0
LINE
8
BLACK
6
CONTINUOUS
10
204.298923000000002
20
-89.3361949999999894
11
204.292761999999982
21
-89.3432999999999993
0
LINE
8
BLACK
6
CONTINUOUS
10
204.292761999999982
20
-89.3432999999999993
11
204.2853559999999788
21
-89.347960999999998
0
LINE
8
BLACK
6
CONTINUOUS
10
204.2853559999999788
20
-89.347960999999998
11
204.2839199999999948
21
-89.3492069999999927
0
LINE
8
BLACK
6
CONTINUOUS
10
204.2839199999999948
20
-89.3492069999999927
11
204.282765999999981
21
-89.3495909999999895
0
LINE
8
BLACK
6
CONTINUOUS
10
204.282765999999981
20
-89.3495909999999895
11
204.2803189999999915
21
-89.3511319999999927
0
LINE
8
BLACK
6
CONTINUOUS
10
204.2803189999999915
20
-89.3511319999999927
11
204.1850809999999967
21
-89.3987509999999901
0
LINE
8
BLACK
6
CONTINUOUS
10
204.1850809999999967
20
-89.3987509999999901
11
204.1713489999999922
21
-89.4040059999999954
0
LINE
8
BLACK
6
CONTINUOUS
10
204.1713489999999922
20
-89.4040059999999954
11
204.168660999999986
21
-89.4041959999999989
0
LINE
8
BLACK
6
CONTINUOUS
10
204.168660999999986
20
-89.4041959999999989
11
204.1661719999999889
21
-89.4052279999999939
0
LINE
8
BLACK
6
CONTINUOUS
10
204.1661719999999889
20
-89.4052279999999939
11
204.1515399999999829
21
-89.4066689999999937
0
LINE
8
BLACK
6
CONTINUOUS
10
204.1515399999999829
20
-89.4066689999999937
11
204.0563799999999901
21
-89.4066689999999937
0
LINE
8
BLACK
6
CONTINUOUS
10
204.0563799999999901
20
-89.4066689999999937
11
204.0563019999999881
21
-89.4066689999999937
0
LINE
8
BLACK
6
CONTINUOUS
10
204.0563019999999881
20
-89.4066689999999937
11
204.0416699999999821
21
-89.4052279999999939
0
LINE
8
BLACK
6
CONTINUOUS
10
204.0416699999999821
20
-89.4052279999999939
11
204.034877999999992
21
-89.4024139999999932
0
LINE
8
BLACK
6
CONTINUOUS
10
204.034877999999992
20
-89.4024139999999932
11
204.027672999999993
21
-89.4009889999999956
0
LINE
8
BLACK
6
CONTINUOUS
10
204.027672999999993
20
-89.4009889999999956
11
204.0214969999999823
21
-89.3968720000000019
0
LINE
8
BLACK
6
CONTINUOUS
10
204.0214969999999823
20
-89.3968720000000019
11
204.0146340000000009
21
-89.3940289999999891
0
LINE
8
BLACK
6
CONTINUOUS
10
204.0146340000000009
20
-89.3940289999999891
11
204.0094359999999938
21
-89.3888309999999962
0
LINE
8
BLACK
6
CONTINUOUS
10
204.0094359999999938
20
-89.3888309999999962
11
204.0033249999999896
21
-89.3847569999999934
0
LINE
8
BLACK
6
CONTINUOUS
10
204.0033249999999896
20
-89.3847569999999934
11
203.9991939999999886
21
-89.378588999999991
0
LINE
8
BLACK
6
CONTINUOUS
10
203.9991939999999886
20
-89.378588999999991
11
203.9939420000000041
21
-89.3733369999999923
0
LINE
8
BLACK
6
CONTINUOUS
10
203.9939420000000041
20
-89.3733369999999923
11
203.9911290000000008
21
-89.3665479999999945
0
LINE
8
BLACK
6
CONTINUOUS
10
203.9911290000000008
20
-89.3665479999999945
11
203.9870410000000049
21
-89.3604429999999894
0
LINE
8
BLACK
6
CONTINUOUS
10
203.9870410000000049
20
-89.3604429999999894
11
203.9827579999999898
21
-89.3463769999999897
0
LINE
8
BLACK
6
CONTINUOUS
10
203.9827579999999898
20
-89.3463769999999897
11
203.8995779999999911
21
-88.9304789999999912
0
LINE
8
BLACK
6
CONTINUOUS
10
203.8995779999999911
20
-88.9304789999999912
11
203.7882929999999817
21
-88.9304789999999912
0
LINE
8
BLACK
6
CONTINUOUS
10
203.7882929999999817
20
-88.9304789999999912
11
203.7312509999999861
21
-88.9589989999999915
0
LINE
8
BLACK
6
CONTINUOUS
10
203.7312509999999861
20
-88.9589989999999915
11
203.7027300000000025
21
-89.0160419999999988
0
LINE
8
BLACK
6
CONTINUOUS
10
203.7027300000000025
20
-89.0160419999999988
11
203.7027300000000025
21
-89.1711049999999972
0
LINE
8
BLACK
6
CONTINUOUS
10
203.7027300000000025
20
-89.1711049999999972
11
203.7424319999999796
21
-89.2505089999999939
0
LINE
8
BLACK
6
CONTINUOUS
10
203.7424319999999796
20
-89.2505089999999939
11
203.7476869999999849
21
-89.2642400000000009
0
LINE
8
BLACK
6
CONTINUOUS
10
203.7476869999999849
20
-89.2642400000000009
11
203.7497609999999781
21
-89.2934300000000007
0
LINE
8
BLACK
6
CONTINUOUS
10
203.7497609999999781
20
-89.2934300000000007
11
203.7405079999999771
21
-89.3211919999999964
0
LINE
8
BLACK
6
CONTINUOUS
10
203.7405079999999771
20
-89.3211919999999964
11
203.7213339999999846
21
-89.3432990000000018
0
LINE
8
BLACK
6
CONTINUOUS
10
203.7213339999999846
20
-89.3432990000000018
11
203.6951599999999871
21
-89.356386999999998
0
LINE
8
BLACK
6
CONTINUOUS
10
203.6951599999999871
20
-89.356386999999998
11
203.6659699999999873
21
-89.3584609999999913
0
LINE
8
BLACK
6
CONTINUOUS
10
203.6659699999999873
20
-89.3584609999999913
11
203.6382089999999891
21
-89.3492079999999902
0
LINE
8
BLACK
6
CONTINUOUS
10
203.6382089999999891
20
-89.3492079999999902
11
203.6161009999999862
21
-89.3300349999999952
0
LINE
8
BLACK
6
CONTINUOUS
10
203.6161009999999862
20
-89.3300349999999952
11
203.6082679999999812
21
-89.3175919999999905
0
LINE
8
BLACK
6
CONTINUOUS
10
203.6082679999999812
20
-89.3175919999999905
11
203.5606479999999863
21
-89.2223539999999957
0
LINE
8
BLACK
6
CONTINUOUS
10
203.5606479999999863
20
-89.2223539999999957
11
203.5553929999999809
21
-89.2086219999999912
0
LINE
8
BLACK
6
CONTINUOUS
10
203.5553929999999809
20
-89.2086219999999912
11
203.5552009999999825
21
-89.20593199999999
0
LINE
8
BLACK
6
CONTINUOUS
10
203.5552009999999825
20
-89.20593199999999
11
203.5541709999999966
21
-89.2034439999999904
0
LINE
8
BLACK
6
CONTINUOUS
10
203.5541709999999966
20
-89.2034439999999904
11
203.5527299999999968
21
-89.1888119999999986
0
LINE
8
BLACK
6
CONTINUOUS
10
203.5527299999999968
20
-89.1888119999999986
11
203.5527299999999968
21
-88.9983359999999948
0
LINE
8
BLACK
6
CONTINUOUS
10
203.5527299999999968
20
-88.9983359999999948
11
203.5541709999999966
21
-88.983704000000003
0
LINE
8
BLACK
6
CONTINUOUS
10
203.5541709999999966
20
-88.983704000000003
11
203.5552009999999825
21
-88.9812149999999917
0
LINE
8
BLACK
6
CONTINUOUS
10
203.5552009999999825
20
-88.9812149999999917
11
203.5553929999999809
21
-88.9785260000000022
0
LINE
8
BLACK
6
CONTINUOUS
10
203.5553929999999809
20
-88.9785260000000022
11
203.5606479999999863
21
-88.9647939999999977
0
LINE
8
BLACK
6
CONTINUOUS
10
203.5606479999999863
20
-88.9647939999999977
11
203.6082679999999812
21
-88.8695560000000029
0
LINE
8
BLACK
6
CONTINUOUS
10
203.6082679999999812
20
-88.8695560000000029
11
203.6098079999999868
21
-88.8671080000000018
0
LINE
8
BLACK
6
CONTINUOUS
10
203.6098079999999868
20
-88.8671080000000018
11
203.6101929999999811
21
-88.8659559999999971
0
LINE
8
BLACK
6
CONTINUOUS
10
203.6101929999999811
20
-88.8659559999999971
11
203.6114369999999951
21
-88.8645199999999988
0
LINE
8
BLACK
6
CONTINUOUS
10
203.6114369999999951
20
-88.8645199999999988
11
203.6161009999999862
21
-88.8571129999999982
0
LINE
8
BLACK
6
CONTINUOUS
10
203.6161009999999862
20
-88.8571129999999982
11
203.6232049999999845
21
-88.8509519999999924
0
LINE
8
BLACK
6
CONTINUOUS
10
203.6232049999999845
20
-88.8509519999999924
11
203.6293660000000045
21
-88.8438479999999942
0
LINE
8
BLACK
6
CONTINUOUS
10
203.6293660000000045
20
-88.8438479999999942
11
203.6367709999999818
21
-88.8391869999999955
0
LINE
8
BLACK
6
CONTINUOUS
10
203.6367709999999818
20
-88.8391869999999955
11
203.6382089999999891
21
-88.837939999999989
0
LINE
8
BLACK
6
CONTINUOUS
10
203.6382089999999891
20
-88.837939999999989
11
203.639363000000003
21
-88.8375549999999947
0
LINE
8
BLACK
6
CONTINUOUS
10
203.639363000000003
20
-88.8375549999999947
11
203.641808999999995
21
-88.8360160000000008
0
LINE
8
BLACK
6
CONTINUOUS
10
203.641808999999995
20
-88.8360160000000008
11
203.7370469999999898
21
-88.7883969999999891
0
LINE
8
BLACK
6
CONTINUOUS
10
203.7370469999999898
20
-88.7883969999999891
11
203.7507779999999968
21
-88.783141999999998
0
LINE
8
BLACK
6
CONTINUOUS
10
203.7507779999999968
20
-88.783141999999998
11
203.7534670000000006
21
-88.7829499999999996
0
LINE
8
BLACK
6
CONTINUOUS
10
203.7534670000000006
20
-88.7829499999999996
11
203.7559559999999976
21
-88.7819199999999995
0
LINE
8
BLACK
6
CONTINUOUS
10
203.7559559999999976
20
-88.7819199999999995
11
203.7705880000000036
21
-88.7804789999999997
0
LINE
8
BLACK
6
CONTINUOUS
10
203.7705880000000036
20
-88.7804789999999997
11
204.1515399999999829
21
-88.7804789999999997
0
LINE
8
BLACK
6
CONTINUOUS
10
204.1515399999999829
20
-88.7804789999999997
11
204.1661719999999889
21
-88.7819199999999995
0
LINE
8
BLACK
6
CONTINUOUS
10
204.1177869999999928
20
-89.2566690000000023
11
204.1338350000000048
21
-89.2566690000000023
0
LINE
8
BLACK
6
CONTINUOUS
10
204.1338350000000048
20
-89.2566690000000023
11
204.1908760000000029
21
-89.2281479999999902
0
LINE
8
BLACK
6
CONTINUOUS
10
204.1908760000000029
20
-89.2281479999999902
11
204.2193969999999865
21
-89.1711069999999921
0
LINE
8
BLACK
6
CONTINUOUS
10
204.2193969999999865
20
-89.1711069999999921
11
204.2193969999999865
21
-89.0160410000000013
0
LINE
8
BLACK
6
CONTINUOUS
10
204.2193969999999865
20
-89.0160410000000013
11
204.1908760000000029
21
-88.9589989999999915
0
LINE
8
BLACK
6
CONTINUOUS
10
204.1908760000000029
20
-88.9589989999999915
11
204.1338350000000048
21
-88.9304789999999912
0
LINE
8
BLACK
6
CONTINUOUS
10
204.1338350000000048
20
-88.9304789999999912
11
204.0525499999999965
21
-88.9304789999999912
0
LINE
8
BLACK
6
CONTINUOUS
10
204.0525499999999965
20
-88.9304789999999912
11
204.1177869999999928
21
-89.2566690000000023
0
LINE
8
BLACK
6
CONTINUOUS
10
204.1185529999999915
20
-87.8771579999999943
11
204.1210419999999885
21
-87.8781889999999919
0
LINE
8
BLACK
6
CONTINUOUS
10
204.1210419999999885
20
-87.8781889999999919
11
204.1237299999999948
21
-87.8783799999999928
0
LINE
8
BLACK
6
CONTINUOUS
10
204.1237299999999948
20
-87.8783799999999928
11
204.1374619999999993
21
-87.8836349999999982
0
LINE
8
BLACK
6
CONTINUOUS
10
204.1374619999999993
20
-87.8836349999999982
11
204.2326999999999941
21
-87.9312539999999956
0
LINE
8
BLACK
6
CONTINUOUS
10
204.2326999999999941
20
-87.9312539999999956
11
204.2389989999999784
21
-87.9352179999999919
0
LINE
8
BLACK
6
CONTINUOUS
10
204.2389989999999784
20
-87.9352179999999919
11
204.2408269999999959
21
-87.9359759999999966
0
LINE
8
BLACK
6
CONTINUOUS
10
204.2408269999999959
20
-87.9359759999999966
11
204.2428829999999778
21
-87.9376639999999981
0
LINE
8
BLACK
6
CONTINUOUS
10
204.2428829999999778
20
-87.9376639999999981
11
204.2451429999999846
21
-87.939085999999989
0
LINE
8
BLACK
6
CONTINUOUS
10
204.2451429999999846
20
-87.939085999999989
11
204.2464420000000018
21
-87.9405840000000012
0
LINE
8
BLACK
6
CONTINUOUS
10
204.2464420000000018
20
-87.9405840000000012
11
204.2521919999999795
21
-87.9453029999999956
0
LINE
8
BLACK
6
CONTINUOUS
10
204.2521919999999795
20
-87.9453029999999956
11
204.299810999999977
21
-87.992921999999993
0
LINE
8
BLACK
6
CONTINUOUS
10
204.299810999999977
20
-87.992921999999993
11
204.3045290000000023
21
-87.9986710000000016
0
LINE
8
BLACK
6
CONTINUOUS
10
204.3045290000000023
20
-87.9986710000000016
11
204.3060279999999977
21
-87.9999710000000022
0
LINE
8
BLACK
6
CONTINUOUS
10
204.3060279999999977
20
-87.9999710000000022
11
204.3074489999999912
21
-88.0022299999999973
0
LINE
8
BLACK
6
CONTINUOUS
10
204.3074489999999912
20
-88.0022299999999973
11
204.3091379999999901
21
-88.0042869999999908
0
LINE
8
BLACK
6
CONTINUOUS
10
204.3091379999999901
20
-88.0042869999999908
11
204.3098949999999832
21
-88.0061139999999966
0
LINE
8
BLACK
6
CONTINUOUS
10
204.3098949999999832
20
-88.0061139999999966
11
204.3138599999999769
21
-88.0124139999999926
0
LINE
8
BLACK
6
CONTINUOUS
10
204.3138599999999769
20
-88.0124139999999926
11
204.3614790000000028
21
-88.1076520000000016
0
LINE
8
BLACK
6
CONTINUOUS
10
204.3614790000000028
20
-88.1076520000000016
11
204.3667339999999797
21
-88.1213829999999945
0
LINE
8
BLACK
6
CONTINUOUS
10
204.3667339999999797
20
-88.1213829999999945
11
204.3669249999999806
21
-88.1240719999999982
0
LINE
8
BLACK
6
CONTINUOUS
10
204.3669249999999806
20
-88.1240719999999982
11
204.3679559999999924
21
-88.1265609999999953
0
LINE
8
BLACK
6
CONTINUOUS
10
204.3679559999999924
20
-88.1265609999999953
11
204.3693969999999922
21
-88.1411930000000012
0
LINE
8
BLACK
6
CONTINUOUS
10
204.3693969999999922
20
-88.1411930000000012
11
204.3693969999999922
21
-88.3316689999999909
0
LINE
8
BLACK
6
CONTINUOUS
10
204.3693969999999922
20
-88.3316689999999909
11
204.3679559999999924
21
-88.3463009999999969
0
LINE
8
BLACK
6
CONTINUOUS
10
204.3679559999999924
20
-88.3463009999999969
11
204.3669249999999806
21
-88.3487889999999965
0
LINE
8
BLACK
6
CONTINUOUS
10
204.3669249999999806
20
-88.3487889999999965
11
204.3667339999999797
21
-88.3514789999999977
0
LINE
8
BLACK
6
CONTINUOUS
10
204.3667339999999797
20
-88.3514789999999977
11
204.3665699999999958
21
-88.3519069999999971
0
LINE
8
BLACK
6
CONTINUOUS
10
204.3665699999999958
20
-88.3519069999999971
11
204.6277299999999855
21
-88.3519069999999971
0
LINE
8
BLACK
6
CONTINUOUS
10
204.6277299999999855
20
-88.3519069999999971
11
204.6423619999999914
21
-88.3533479999999969
0
LINE
8
BLACK
6
CONTINUOUS
10
204.6423619999999914
20
-88.3533479999999969
11
204.669398000000001
21
-88.3645470000000017
0
LINE
8
BLACK
6
CONTINUOUS
10
204.669398000000001
20
-88.3645470000000017
11
204.6900899999999979
21
-88.3852389999999986
0
LINE
8
BLACK
6
CONTINUOUS
10
204.6900899999999979
20
-88.3852389999999986
11
204.7012890000000027
21
-88.412274999999994
0
LINE
8
BLACK
6
CONTINUOUS
10
204.7012890000000027
20
-88.412274999999994
11
204.7012890000000027
21
-88.4415389999999917
0
LINE
8
BLACK
6
CONTINUOUS
10
204.7012890000000027
20
-88.4415389999999917
11
204.6900899999999979
21
-88.4685750000000013
0
LINE
8
BLACK
6
CONTINUOUS
10
204.6900899999999979
20
-88.4685750000000013
11
204.669398000000001
21
-88.4892669999999981
0
LINE
8
BLACK
6
CONTINUOUS
10
204.669398000000001
20
-88.4892669999999981
11
204.6423619999999914
21
-88.500466000000003
0
LINE
8
BLACK
6
CONTINUOUS
10
204.6423619999999914
20
-88.500466000000003
11
204.6277299999999855
21
-88.5019070000000028
0
LINE
8
BLACK
6
CONTINUOUS
10
204.6277299999999855
20
-88.5019070000000028
11
203.6277299999999855
21
-88.5019070000000028
0
LINE
8
BLACK
6
CONTINUOUS
10
203.6277299999999855
20
-88.5019070000000028
11
203.6130979999999795
21
-88.500466000000003
0
LINE
8
BLACK
6
CONTINUOUS
10
203.6130979999999795
20
-88.500466000000003
11
203.5860619999999983
21
-88.4892669999999981
0
LINE
8
BLACK
6
CONTINUOUS
10
203.5860619999999983
20
-88.4892669999999981
11
203.5653700000000015
21
-88.4685750000000013
0
LINE
8
BLACK
6
CONTINUOUS
10
203.5653700000000015
20
-88.4685750000000013
11
203.5541709999999966
21
-88.4415389999999917
0
LINE
8
BLACK
6
CONTINUOUS
10
203.5541709999999966
20
-88.4415389999999917
11
203.5541709999999966
21
-88.412274999999994
0
LINE
8
BLACK
6
CONTINUOUS
10
203.5541709999999966
20
-88.412274999999994
11
203.5653700000000015
21
-88.3852389999999986
0
LINE
8
BLACK
6
CONTINUOUS
10
203.5653700000000015
20
-88.3852389999999986
11
203.5688979999999901
21
-88.3817099999999982
0
LINE
8
BLACK
6
CONTINUOUS
10
203.5688979999999901
20
-88.3817099999999982
11
203.5606479999999863
21
-88.3652110000000022
0
LINE
8
BLACK
6
CONTINUOUS
10
203.5606479999999863
20
-88.3652110000000022
11
203.5553929999999809
21
-88.3514789999999977
0
LINE
8
BLACK
6
CONTINUOUS
10
203.5553929999999809
20
-88.3514789999999977
11
203.5552009999999825
21
-88.3487889999999965
0
LINE
8
BLACK
6
CONTINUOUS
10
203.5552009999999825
20
-88.3487889999999965
11
203.5541709999999966
21
-88.3463009999999969
0
LINE
8
BLACK
6
CONTINUOUS
10
203.5541709999999966
20
-88.3463009999999969
11
203.5527299999999968
21
-88.3316689999999909
0
LINE
8
BLACK
6
CONTINUOUS
10
203.5527299999999968
20
-88.3316689999999909
11
203.5527299999999968
21
-88.1411930000000012
0
LINE
8
BLACK
6
CONTINUOUS
10
203.5527299999999968
20
-88.1411930000000012
11
203.5541709999999966
21
-88.1265609999999953
0
LINE
8
BLACK
6
CONTINUOUS
10
203.5541709999999966
20
-88.1265609999999953
11
203.5552009999999825
21
-88.1240719999999982
0
LINE
8
BLACK
6
CONTINUOUS
10
203.5552009999999825
20
-88.1240719999999982
11
203.5553929999999809
21
-88.1213829999999945
0
LINE
8
BLACK
6
CONTINUOUS
10
203.5553929999999809
20
-88.1213829999999945
11
203.5606479999999863
21
-88.1076509999999899
0
LINE
8
BLACK
6
CONTINUOUS
10
203.5606479999999863
20
-88.1076509999999899
11
203.6082679999999812
21
-88.0124129999999951
0
LINE
8
BLACK
6
CONTINUOUS
10
203.6082679999999812
20
-88.0124129999999951
11
203.6122330000000034
21
-88.0061139999999966
0
LINE
8
BLACK
6
CONTINUOUS
10
203.6122330000000034
20
-88.0061139999999966
11
203.6129899999999964
21
-88.0042869999999908
0
LINE
8
BLACK
6
CONTINUOUS
10
203.6129899999999964
20
-88.0042869999999908
11
203.6146779999999978
21
-88.0022289999999998
0
LINE
8
BLACK
6
CONTINUOUS
10
203.6146779999999978
20
-88.0022289999999998
11
203.6161009999999862
21
-87.9999699999999905
0
LINE
8
BLACK
6
CONTINUOUS
10
203.6161009999999862
20
-87.9999699999999905
11
203.6175989999999842
21
-87.99866999999999
0
LINE
8
BLACK
6
CONTINUOUS
10
203.6175989999999842
20
-87.99866999999999
11
203.6223169999999811
21
-87.992921999999993
0
LINE
8
BLACK
6
CONTINUOUS
10
203.6223169999999811
20
-87.992921999999993
11
203.6699359999999785
21
-87.9453029999999956
0
LINE
8
BLACK
6
CONTINUOUS
10
203.6699359999999785
20
-87.9453029999999956
11
203.6756849999999872
21
-87.9405840000000012
0
LINE
8
BLACK
6
CONTINUOUS
10
203.6756849999999872
20
-87.9405840000000012
11
203.6769850000000019
21
-87.939085999999989
0
LINE
8
BLACK
6
CONTINUOUS
10
203.6769850000000019
20
-87.939085999999989
11
203.6792439999999829
21
-87.9376639999999981
0
LINE
8
BLACK
6
CONTINUOUS
10
203.6792439999999829
20
-87.9376639999999981
11
203.6813009999999906
21
-87.9359759999999966
0
LINE
8
BLACK
6
CONTINUOUS
10
203.6813009999999906
20
-87.9359759999999966
11
203.6831279999999822
21
-87.9352179999999919
0
LINE
8
BLACK
6
CONTINUOUS
10
203.6831279999999822
20
-87.9352179999999919
11
203.6894279999999924
21
-87.9312539999999956
0
LINE
8
BLACK
6
CONTINUOUS
10
203.6894279999999924
20
-87.9312539999999956
11
203.7846659999999872
21
-87.8836349999999982
0
LINE
8
BLACK
6
CONTINUOUS
10
203.7846659999999872
20
-87.8836349999999982
11
203.7983969999999943
21
-87.8783799999999928
0
LINE
8
BLACK
6
CONTINUOUS
10
203.7983969999999943
20
-87.8783799999999928
11
203.801085999999998
21
-87.8781879999999944
0
LINE
8
BLACK
6
CONTINUOUS
10
203.801085999999998
20
-87.8781879999999944
11
203.803574999999995
21
-87.8771579999999943
0
LINE
8
BLACK
6
CONTINUOUS
10
203.803574999999995
20
-87.8771579999999943
11
203.818207000000001
21
-87.8757169999999945
0
LINE
8
BLACK
6
CONTINUOUS
10
203.818207000000001
20
-87.8757169999999945
11
204.1039209999999855
21
-87.8757169999999945
0
LINE
8
BLACK
6
CONTINUOUS
10
204.1039209999999855
20
-87.8757169999999945
11
204.1185529999999915
21
-87.8771579999999943
0
LINE
8
BLACK
6
CONTINUOUS
10
203.7673959999999909
20
-88.0599749999999943
11
203.7369879999999966
21
-88.0903819999999911
0
LINE
8
BLACK
6
CONTINUOUS
10
203.7369879999999966
20
-88.0903819999999911
11
203.7027300000000025
21
-88.158898999999991
0
LINE
8
BLACK
6
CONTINUOUS
10
203.7027300000000025
20
-88.158898999999991
11
203.7027300000000025
21
-88.3139619999999894
0
LINE
8
BLACK
6
CONTINUOUS
10
203.7027300000000025
20
-88.3139619999999894
11
203.7217019999999934
21
-88.3519069999999971
0
LINE
8
BLACK
6
CONTINUOUS
10
203.7217019999999934
20
-88.3519069999999971
11
204.2004259999999931
21
-88.3519069999999971
0
LINE
8
BLACK
6
CONTINUOUS
10
204.2004259999999931
20
-88.3519069999999971
11
204.2193969999999865
21
-88.3139639999999986
0
LINE
8
BLACK
6
CONTINUOUS
10
204.2193969999999865
20
-88.3139639999999986
11
204.2193969999999865
21
-88.1588979999999935
0
LINE
8
BLACK
6
CONTINUOUS
10
204.2193969999999865
20
-88.1588979999999935
11
204.1851389999999924
21
-88.0903819999999911
0
LINE
8
BLACK
6
CONTINUOUS
10
204.1851389999999924
20
-88.0903819999999911
11
204.1547319999999957
21
-88.0599749999999943
0
LINE
8
BLACK
6
CONTINUOUS
10
204.1547319999999957
20
-88.0599749999999943
11
204.086215999999979
21
-88.0257170000000002
0
LINE
8
BLACK
6
CONTINUOUS
10
204.086215999999979
20
-88.0257170000000002
11
203.8359119999999791
21
-88.0257170000000002
0
LINE
8
BLACK
6
CONTINUOUS
10
203.8359119999999791
20
-88.0257170000000002
11
203.7673959999999909
21
-88.0599749999999943
0
LINE
8
BLACK
6
CONTINUOUS
10
206.0423619999999971
20
-87.4723959999999892
11
206.0693979999999783
21
-87.483594999999994
0
LINE
8
BLACK
6
CONTINUOUS
10
206.0693979999999783
20
-87.483594999999994
11
206.0900900000000036
21
-87.5042869999999908
0
LINE
8
BLACK
6
CONTINUOUS
10
206.0900900000000036
20
-87.5042869999999908
11
206.10128899999998
21
-87.5313230000000004
0
LINE
8
BLACK
6
CONTINUOUS
10
206.10128899999998
20
-87.5313230000000004
11
206.1027299999999798
21
-87.5459549999999922
0
LINE
8
BLACK
6
CONTINUOUS
10
206.1027299999999798
20
-87.5459549999999922
11
206.1027299999999798
21
-87.8792880000000025
0
LINE
8
BLACK
6
CONTINUOUS
10
206.1027299999999798
20
-87.8792880000000025
11
206.10128899999998
21
-87.8939199999999943
0
LINE
8
BLACK
6
CONTINUOUS
10
206.10128899999998
20
-87.8939199999999943
11
206.1002579999999966
21
-87.8964079999999939
0
LINE
8
BLACK
6
CONTINUOUS
10
206.1002579999999966
20
-87.8964079999999939
11
206.1000669999999957
21
-87.8990979999999951
0
LINE
8
BLACK
6
CONTINUOUS
10
206.1000669999999957
20
-87.8990979999999951
11
206.0948119999999903
21
-87.9128290000000021
0
LINE
8
BLACK
6
CONTINUOUS
10
206.0948119999999903
20
-87.9128290000000021
11
206.0471929999999929
21
-88.0080669999999969
0
LINE
8
BLACK
6
CONTINUOUS
10
206.0471929999999929
20
-88.0080669999999969
11
206.0432279999999992
21
-88.0143659999999954
0
LINE
8
BLACK
6
CONTINUOUS
10
206.0432279999999992
20
-88.0143659999999954
11
206.0424709999999777
21
-88.0161939999999987
0
LINE
8
BLACK
6
CONTINUOUS
10
206.0424709999999777
20
-88.0161939999999987
11
206.0407819999999788
21
-88.0182499999999948
0
LINE
8
BLACK
6
CONTINUOUS
10
206.0407819999999788
20
-88.0182499999999948
11
206.0393609999999853
21
-88.0205100000000016
0
LINE
8
BLACK
6
CONTINUOUS
10
206.0393609999999853
20
-88.0205100000000016
11
206.0378619999999898
21
-88.0218089999999904
0
LINE
8
BLACK
6
CONTINUOUS
10
206.0378619999999898
20
-88.0218089999999904
11
206.033143999999993
21
-88.0275589999999966
0
LINE
8
BLACK
6
CONTINUOUS
10
206.033143999999993
20
-88.0275589999999966
11
205.9855249999999955
21
-88.075177999999994
0
LINE
8
BLACK
6
CONTINUOUS
10
205.9855249999999955
20
-88.075177999999994
11
205.9797749999999894
21
-88.0798959999999909
0
LINE
8
BLACK
6
CONTINUOUS
10
205.9797749999999894
20
-88.0798959999999909
11
205.9784760000000006
21
-88.0813950000000006
0
LINE
8
BLACK
6
CONTINUOUS
10
205.9784760000000006
20
-88.0813950000000006
11
205.9762159999999938
21
-88.082815999999994
0
LINE
8
BLACK
6
CONTINUOUS
10
205.9762159999999938
20
-88.082815999999994
11
205.9741599999999835
21
-88.0845049999999929
0
LINE
8
BLACK
6
CONTINUOUS
10
205.9741599999999835
20
-88.0845049999999929
11
205.9723319999999944
21
-88.0852620000000002
0
LINE
8
BLACK
6
CONTINUOUS
10
205.9723319999999944
20
-88.0852620000000002
11
205.9660329999999817
21
-88.089226999999994
0
LINE
8
BLACK
6
CONTINUOUS
10
205.9660329999999817
20
-88.089226999999994
11
205.8707949999999869
21
-88.1368459999999914
0
LINE
8
BLACK
6
CONTINUOUS
10
205.8707949999999869
20
-88.1368459999999914
11
205.8570629999999824
21
-88.1421009999999967
0
LINE
8
BLACK
6
CONTINUOUS
10
205.8570629999999824
20
-88.1421009999999967
11
205.8543750000000045
21
-88.1422910000000002
0
LINE
8
BLACK
6
CONTINUOUS
10
205.8543750000000045
20
-88.1422910000000002
11
205.851885999999979
21
-88.1433229999999952
0
LINE
8
BLACK
6
CONTINUOUS
10
205.851885999999979
20
-88.1433229999999952
11
205.8372540000000015
21
-88.144763999999995
0
LINE
8
BLACK
6
CONTINUOUS
10
205.8372540000000015
20
-88.144763999999995
11
205.7420159999999782
21
-88.144763999999995
0
LINE
8
BLACK
6
CONTINUOUS
10
205.7420159999999782
20
-88.144763999999995
11
205.7273840000000007
21
-88.1433229999999952
0
LINE
8
BLACK
6
CONTINUOUS
10
205.7273840000000007
20
-88.1433229999999952
11
205.7248950000000036
21
-88.1422919999999976
0
LINE
8
BLACK
6
CONTINUOUS
10
205.7248950000000036
20
-88.1422919999999976
11
205.7222059999999999
21
-88.1421009999999967
0
LINE
8
BLACK
6
CONTINUOUS
10
205.7222059999999999
20
-88.1421009999999967
11
205.7084749999999929
21
-88.1368459999999914
0
LINE
8
BLACK
6
CONTINUOUS
10
205.7084749999999929
20
-88.1368459999999914
11
205.613236999999998
21
-88.089226999999994
0
LINE
8
BLACK
6
CONTINUOUS
10
205.613236999999998
20
-88.089226999999994
11
205.6069369999999878
21
-88.0852620000000002
0
LINE
8
BLACK
6
CONTINUOUS
10
205.6069369999999878
20
-88.0852620000000002
11
205.6051099999999963
21
-88.0845049999999929
0
LINE
8
BLACK
6
CONTINUOUS
10
205.6051099999999963
20
-88.0845049999999929
11
205.6030529999999885
21
-88.082815999999994
0
LINE
8
BLACK
6
CONTINUOUS
10
205.6030529999999885
20
-88.082815999999994
11
205.6007939999999792
21
-88.0813950000000006
0
LINE
8
BLACK
6
CONTINUOUS
10
205.6007939999999792
20
-88.0813950000000006
11
205.5994939999999929
21
-88.0798959999999909
0
LINE
8
BLACK
6
CONTINUOUS
10
205.5994939999999929
20
-88.0798959999999909
11
205.5937449999999842
21
-88.075177999999994
0
LINE
8
BLACK
6
CONTINUOUS
10
205.5937449999999842
20
-88.075177999999994
11
205.5717870000000005
21
-88.053219999999996
0
LINE
8
BLACK
6
CONTINUOUS
10
205.5717870000000005
20
-88.053219999999996
11
205.5690779999999904
21
-88.0592879999999951
0
LINE
8
BLACK
6
CONTINUOUS
10
205.5690779999999904
20
-88.0592879999999951
11
205.5673109999999895
21
-88.061323999999999
0
LINE
8
BLACK
6
CONTINUOUS
10
205.5673109999999895
20
-88.061323999999999
11
205.5662810000000036
21
-88.0638129999999961
0
LINE
8
BLACK
6
CONTINUOUS
10
205.5662810000000036
20
-88.0638129999999961
11
205.5569539999999904
21
-88.075177999999994
0
LINE
8
BLACK
6
CONTINUOUS
10
205.5569539999999904
20
-88.075177999999994
11
205.509334999999993
21
-88.1227969999999914
0
LINE
8
BLACK
6
CONTINUOUS
10
205.509334999999993
20
-88.1227969999999914
11
205.5035849999999868
21
-88.1275150000000025
0
LINE
8
BLACK
6
CONTINUOUS
10
205.5035849999999868
20
-88.1275150000000025
11
205.502285999999998
21
-88.129013999999998
0
LINE
8
BLACK
6
CONTINUOUS
10
205.502285999999998
20
-88.129013999999998
11
205.5000259999999912
21
-88.1304349999999914
0
LINE
8
BLACK
6
CONTINUOUS
10
205.5000259999999912
20
-88.1304349999999914
11
205.4979699999999809
21
-88.1321239999999904
0
LINE
8
BLACK
6
CONTINUOUS
10
205.4979699999999809
20
-88.1321239999999904
11
205.4961419999999919
21
-88.1328809999999976
0
LINE
8
BLACK
6
CONTINUOUS
10
205.4961419999999919
20
-88.1328809999999976
11
205.4898429999999792
21
-88.1368459999999914
0
LINE
8
BLACK
6
CONTINUOUS
10
205.4898429999999792
20
-88.1368459999999914
11
205.3946049999999843
21
-88.184465000000003
0
LINE
8
BLACK
6
CONTINUOUS
10
205.3946049999999843
20
-88.184465000000003
11
205.3808729999999798
21
-88.1897199999999941
0
LINE
8
BLACK
6
CONTINUOUS
10
205.3808729999999798
20
-88.1897199999999941
11
205.378185000000002
21
-88.1899099999999976
0
LINE
8
BLACK
6
CONTINUOUS
10
205.378185000000002
20
-88.1899099999999976
11
205.3756960000000049
21
-88.1909419999999926
0
LINE
8
BLACK
6
CONTINUOUS
10
205.3756960000000049
20
-88.1909419999999926
11
205.3610639999999989
21
-88.1923829999999924
0
LINE
8
BLACK
6
CONTINUOUS
10
205.3610639999999989
20
-88.1923829999999924
11
205.2182069999999783
21
-88.1923829999999924
0
LINE
8
BLACK
6
CONTINUOUS
10
205.2182069999999783
20
-88.1923829999999924
11
205.2035750000000007
21
-88.1909419999999926
0
LINE
8
BLACK
6
CONTINUOUS
10
205.2035750000000007
20
-88.1909419999999926
11
205.2010860000000037
21
-88.1899109999999951
0
LINE
8
BLACK
6
CONTINUOUS
10
205.2010860000000037
20
-88.1899109999999951
11
205.1983969999999999
21
-88.1897199999999941
0
LINE
8
BLACK
6
CONTINUOUS
10
205.1983969999999999
20
-88.1897199999999941
11
205.1846659999999929
21
-88.184465000000003
0
LINE
8
BLACK
6
CONTINUOUS
10
205.1846659999999929
20
-88.184465000000003
11
205.0894279999999981
21
-88.1368459999999914
0
LINE
8
BLACK
6
CONTINUOUS
10
205.0894279999999981
20
-88.1368459999999914
11
205.0831279999999879
21
-88.1328809999999976
0
LINE
8
BLACK
6
CONTINUOUS
10
205.0831279999999879
20
-88.1328809999999976
11
205.0813009999999963
21
-88.1321239999999904
0
LINE
8
BLACK
6
CONTINUOUS
10
205.0813009999999963
20
-88.1321239999999904
11
205.0792439999999885
21
-88.1304349999999914
0
LINE
8
BLACK
6
CONTINUOUS
10
205.0792439999999885
20
-88.1304349999999914
11
205.0769849999999792
21
-88.129013999999998
0
LINE
8
BLACK
6
CONTINUOUS
10
205.0769849999999792
20
-88.129013999999998
11
205.0756849999999929
21
-88.1275150000000025
0
LINE
8
BLACK
6
CONTINUOUS
10
205.0756849999999929
20
-88.1275150000000025
11
205.0699359999999842
21
-88.1227969999999914
0
LINE
8
BLACK
6
CONTINUOUS
10
205.0699359999999842
20
-88.1227969999999914
11
205.0223169999999868
21
-88.075177999999994
0
LINE
8
BLACK
6
CONTINUOUS
10
205.0223169999999868
20
-88.075177999999994
11
205.0175989999999899
21
-88.0694289999999995
0
LINE
8
BLACK
6
CONTINUOUS
10
205.0175989999999899
20
-88.0694289999999995
11
205.0161009999999919
21
-88.0681299999999965
0
LINE
8
BLACK
6
CONTINUOUS
10
205.0161009999999919
20
-88.0681299999999965
11
205.0146780000000035
21
-88.0658699999999897
0
LINE
8
BLACK
6
CONTINUOUS
10
205.0146780000000035
20
-88.0658699999999897
11
205.0129900000000021
21
-88.0638129999999961
0
LINE
8
BLACK
6
CONTINUOUS
10
205.0129900000000021
20
-88.0638129999999961
11
205.0122329999999806
21
-88.0619849999999929
0
LINE
8
BLACK
6
CONTINUOUS
10
205.0122329999999806
20
-88.0619849999999929
11
205.0082679999999868
21
-88.0556869999999918
0
LINE
8
BLACK
6
CONTINUOUS
10
205.0082679999999868
20
-88.0556869999999918
11
204.960647999999992
21
-87.960448999999997
0
LINE
8
BLACK
6
CONTINUOUS
10
204.960647999999992
20
-87.960448999999997
11
204.9553929999999866
21
-87.9467169999999925
0
LINE
8
BLACK
6
CONTINUOUS
10
204.9553929999999866
20
-87.9467169999999925
11
204.9552009999999882
21
-87.9440269999999913
0
LINE
8
BLACK
6
CONTINUOUS
10
204.9552009999999882
20
-87.9440269999999913
11
204.9541710000000023
21
-87.9415389999999917
0
LINE
8
BLACK
6
CONTINUOUS
10
204.9541710000000023
20
-87.9415389999999917
11
204.9527300000000025
21
-87.9269069999999999
0
LINE
8
BLACK
6
CONTINUOUS
10
204.9527300000000025
20
-87.9269069999999999
11
204.9527300000000025
21
-87.5459549999999922
0
LINE
8
BLACK
6
CONTINUOUS
10
204.9527300000000025
20
-87.5459549999999922
11
204.9541710000000023
21
-87.5313230000000004
0
LINE
8
BLACK
6
CONTINUOUS
10
204.9541710000000023
20
-87.5313230000000004
11
204.9653699999999787
21
-87.5042869999999908
0
LINE
8
BLACK
6
CONTINUOUS
10
204.9653699999999787
20
-87.5042869999999908
11
204.986062000000004
21
-87.483594999999994
0
LINE
8
BLACK
6
CONTINUOUS
10
204.986062000000004
20
-87.483594999999994
11
205.0130979999999852
21
-87.4723959999999892
0
LINE
8
BLACK
6
CONTINUOUS
10
205.0130979999999852
20
-87.4723959999999892
11
205.0277299999999912
21
-87.4709549999999894
0
LINE
8
BLACK
6
CONTINUOUS
10
205.0277299999999912
20
-87.4709549999999894
11
206.0277299999999912
21
-87.4709549999999894
0
LINE
8
BLACK
6
CONTINUOUS
10
206.0277299999999912
20
-87.4709549999999894
11
206.0423619999999971
21
-87.4723959999999892
0
LINE
8
BLACK
6
CONTINUOUS
10
205.1027299999999798
20
-87.9091999999999985
11
205.1369880000000023
21
-87.9777169999999984
0
LINE
8
BLACK
6
CONTINUOUS
10
205.1369880000000023
20
-87.9777169999999984
11
205.1673959999999965
21
-88.0081249999999926
0
LINE
8
BLACK
6
CONTINUOUS
10
205.1673959999999965
20
-88.0081249999999926
11
205.2359119999999848
21
-88.0423830000000009
0
LINE
8
BLACK
6
CONTINUOUS
10
205.2359119999999848
20
-88.0423830000000009
11
205.3433589999999924
21
-88.0423830000000009
0
LINE
8
BLACK
6
CONTINUOUS
10
205.3433589999999924
20
-88.0423830000000009
11
205.4118749999999807
21
-88.0081249999999926
0
LINE
8
BLACK
6
CONTINUOUS
10
205.4118749999999807
20
-88.0081249999999926
11
205.4383689999999945
21
-87.981630999999993
0
LINE
8
BLACK
6
CONTINUOUS
10
205.4383689999999945
20
-87.981630999999993
11
205.47654
21
-87.8671179999999907
0
LINE
8
BLACK
6
CONTINUOUS
10
205.47654
20
-87.8671179999999907
11
205.47654
21
-87.620954999999995
0
LINE
8
BLACK
6
CONTINUOUS
10
205.47654
20
-87.620954999999995
11
205.1027299999999798
21
-87.620954999999995
0
LINE
8
BLACK
6
CONTINUOUS
10
205.1027299999999798
20
-87.620954999999995
11
205.1027299999999798
21
-87.9091999999999985
0
LINE
8
BLACK
6
CONTINUOUS
10
205.6265399999999772
20
-87.861582999999996
11
205.6607979999999998
21
-87.9300989999999985
0
LINE
8
BLACK
6
CONTINUOUS
10
205.6607979999999998
20
-87.9300989999999985
11
205.6912049999999965
21
-87.9605059999999952
0
LINE
8
BLACK
6
CONTINUOUS
10
205.6912049999999965
20
-87.9605059999999952
11
205.7597209999999848
21
-87.9947639999999893
0
LINE
8
BLACK
6
CONTINUOUS
10
205.7597209999999848
20
-87.9947639999999893
11
205.819548999999995
21
-87.9947639999999893
0
LINE
8
BLACK
6
CONTINUOUS
10
205.819548999999995
20
-87.9947639999999893
11
205.8880649999999832
21
-87.9605059999999952
0
LINE
8
BLACK
6
CONTINUOUS
10
205.8880649999999832
20
-87.9605059999999952
11
205.91847199999998
21
-87.9300989999999985
0
LINE
8
BLACK
6
CONTINUOUS
10
205.91847199999998
20
-87.9300989999999985
11
205.9527300000000025
21
-87.861582999999996
0
LINE
8
BLACK
6
CONTINUOUS
10
205.9527300000000025
20
-87.861582999999996
11
205.9527300000000025
21
-87.620954999999995
0
LINE
8
BLACK
6
CONTINUOUS
10
205.9527300000000025
20
-87.620954999999995
11
205.6265399999999772
21
-87.620954999999995
0
LINE
8
BLACK
6
CONTINUOUS
10
205.6265399999999772
20
-87.620954999999995
11
205.6265399999999772
21
-87.861582999999996
0
LINE
8
BLACK
6
CONTINUOUS
10
204.6217790000000036
20
-87.4121669999999966
11
204.6331439999999873
21
-87.4214939999999956
0
LINE
8
BLACK
6
CONTINUOUS
10
204.6331439999999873
20
-87.4214939999999956
11
204.6807629999999847
21
-87.469112999999993
0
LINE
8
BLACK
6
CONTINUOUS
10
204.6807629999999847
20
-87.469112999999993
11
204.6900899999999979
21
-87.4804779999999909
0
LINE
8
BLACK
6
CONTINUOUS
10
204.6900899999999979
20
-87.4804779999999909
11
204.6936859999999854
21
-87.4891590000000008
0
LINE
8
BLACK
6
CONTINUOUS
10
204.6936859999999854
20
-87.4891590000000008
11
204.7012890000000027
21
-87.5075149999999979
0
LINE
8
BLACK
6
CONTINUOUS
10
204.7012890000000027
20
-87.5075149999999979
11
204.7012890000000027
21
-87.5367779999999982
0
LINE
8
BLACK
6
CONTINUOUS
10
204.7012890000000027
20
-87.5367779999999982
11
204.6900899999999979
21
-87.5638139999999936
0
LINE
8
BLACK
6
CONTINUOUS
10
204.6900899999999979
20
-87.5638139999999936
11
204.6807629999999847
21
-87.5751789999999914
0
LINE
8
BLACK
6
CONTINUOUS
10
204.6807629999999847
20
-87.5751789999999914
11
204.6331439999999873
21
-87.6227980000000031
0
LINE
8
BLACK
6
CONTINUOUS
10
204.6331439999999873
20
-87.6227980000000031
11
204.6217790000000036
21
-87.632125000000002
0
LINE
8
BLACK
6
CONTINUOUS
10
204.6217790000000036
20
-87.632125000000002
11
204.5947419999999966
21
-87.6433239999999927
0
LINE
8
BLACK
6
CONTINUOUS
10
204.5947419999999966
20
-87.6433239999999927
11
204.5654799999999796
21
-87.6433239999999927
0
LINE
8
BLACK
6
CONTINUOUS
10
204.5654799999999796
20
-87.6433239999999927
11
204.5654789999999821
21
-87.6433239999999927
0
LINE
8
BLACK
6
CONTINUOUS
10
204.5654789999999821
20
-87.6433239999999927
11
204.5384430000000009
21
-87.632125000000002
0
LINE
8
BLACK
6
CONTINUOUS
10
204.5384430000000009
20
-87.632125000000002
11
204.5270779999999888
21
-87.6227980000000031
0
LINE
8
BLACK
6
CONTINUOUS
10
204.5270779999999888
20
-87.6227980000000031
11
204.4794589999999914
21
-87.5751789999999914
0
LINE
8
BLACK
6
CONTINUOUS
10
204.4794589999999914
20
-87.5751789999999914
11
204.4701319999999782
21
-87.5638139999999936
0
LINE
8
BLACK
6
CONTINUOUS
10
204.4701319999999782
20
-87.5638139999999936
11
204.4589330000000018
21
-87.5367770000000007
0
LINE
8
BLACK
6
CONTINUOUS
10
204.4589330000000018
20
-87.5367770000000007
11
204.4589330000000018
21
-87.5075149999999979
0
LINE
8
BLACK
6
CONTINUOUS
10
204.4589330000000018
20
-87.5075149999999979
11
204.4701319999999782
21
-87.4804779999999909
0
LINE
8
BLACK
6
CONTINUOUS
10
204.4701319999999782
20
-87.4804779999999909
11
204.4794589999999914
21
-87.469112999999993
0
LINE
8
BLACK
6
CONTINUOUS
10
204.4794589999999914
20
-87.469112999999993
11
204.5270779999999888
21
-87.4214939999999956
0
LINE
8
BLACK
6
CONTINUOUS
10
204.5270779999999888
20
-87.4214939999999956
11
204.5384430000000009
21
-87.4121669999999966
0
LINE
8
BLACK
6
CONTINUOUS
10
204.5384430000000009
20
-87.4121669999999966
11
204.5654789999999821
21
-87.4009679999999918
0
LINE
8
BLACK
6
CONTINUOUS
10
204.5654789999999821
20
-87.4009679999999918
11
204.5947419999999966
21
-87.4009679999999918
0
LINE
8
BLACK
6
CONTINUOUS
10
204.5947419999999966
20
-87.4009679999999918
11
204.6217790000000036
21
-87.4121669999999966
0
LINE
8
BLACK
6
CONTINUOUS
10
204.3090289999999811
20
-87.4485869999999892
11
204.3360649999999907
21
-87.459785999999994
0
LINE
8
BLACK
6
CONTINUOUS
10
204.3360649999999907
20
-87.459785999999994
11
204.3567569999999876
21
-87.4804779999999909
0
LINE
8
BLACK
6
CONTINUOUS
10
204.3567569999999876
20
-87.4804779999999909
11
204.3679559999999924
21
-87.5075140000000005
0
LINE
8
BLACK
6
CONTINUOUS
10
204.3679559999999924
20
-87.5075140000000005
11
204.3679559999999924
21
-87.5367779999999982
0
LINE
8
BLACK
6
CONTINUOUS
10
204.3679559999999924
20
-87.5367779999999982
11
204.3567569999999876
21
-87.5638139999999936
0
LINE
8
BLACK
6
CONTINUOUS
10
204.3567569999999876
20
-87.5638139999999936
11
204.3360649999999907
21
-87.5845059999999904
0
LINE
8
BLACK
6
CONTINUOUS
10
204.3360649999999907
20
-87.5845059999999904
11
204.3090289999999811
21
-87.5957049999999953
0
LINE
8
BLACK
6
CONTINUOUS
10
204.3090289999999811
20
-87.5957049999999953
11
204.2943970000000036
21
-87.5971459999999951
0
LINE
8
BLACK
6
CONTINUOUS
10
204.2943970000000036
20
-87.5971459999999951
11
203.6277299999999855
21
-87.5971459999999951
0
LINE
8
BLACK
6
CONTINUOUS
10
203.6277299999999855
20
-87.5971459999999951
11
203.6130979999999795
21
-87.5957049999999953
0
LINE
8
BLACK
6
CONTINUOUS
10
203.6130979999999795
20
-87.5957049999999953
11
203.5860619999999983
21
-87.5845059999999904
0
LINE
8
BLACK
6
CONTINUOUS
10
203.5860619999999983
20
-87.5845059999999904
11
203.5653700000000015
21
-87.5638139999999936
0
LINE
8
BLACK
6
CONTINUOUS
10
203.5653700000000015
20
-87.5638139999999936
11
203.5541709999999966
21
-87.5367779999999982
0
LINE
8
BLACK
6
CONTINUOUS
10
203.5541709999999966
20
-87.5367779999999982
11
203.5541709999999966
21
-87.5075140000000005
0
LINE
8
BLACK
6
CONTINUOUS
10
203.5541709999999966
20
-87.5075140000000005
11
203.5653700000000015
21
-87.4804779999999909
0
LINE
8
BLACK
6
CONTINUOUS
10
203.5653700000000015
20
-87.4804779999999909
11
203.5860619999999983
21
-87.459785999999994
0
LINE
8
BLACK
6
CONTINUOUS
10
203.5860619999999983
20
-87.459785999999994
11
203.6130979999999795
21
-87.4485869999999892
0
LINE
8
BLACK
6
CONTINUOUS
10
203.6130979999999795
20
-87.4485869999999892
11
203.6277299999999855
21
-87.4471459999999894
0
LINE
8
BLACK
6
CONTINUOUS
10
203.6277299999999855
20
-87.4471459999999894
11
204.2943970000000036
21
-87.4471459999999894
0
LINE
8
BLACK
6
CONTINUOUS
10
204.2943970000000036
20
-87.4471459999999894
11
204.3090289999999811
21
-87.4485869999999892
0
LINE
8
BLACK
6
CONTINUOUS
10
205.851885999999979
20
-86.4723959999999892
11
205.8543750000000045
21
-86.4734270000000009
0
LINE
8
BLACK
6
CONTINUOUS
10
205.8543750000000045
20
-86.4734270000000009
11
205.8570629999999824
21
-86.4736180000000019
0
LINE
8
BLACK
6
CONTINUOUS
10
205.8570629999999824
20
-86.4736180000000019
11
205.8707949999999869
21
-86.478872999999993
0
LINE
8
BLACK
6
CONTINUOUS
10
205.8707949999999869
20
-86.478872999999993
11
205.9660329999999817
21
-86.5264919999999904
0
LINE
8
BLACK
6
CONTINUOUS
10
205.9660329999999817
20
-86.5264919999999904
11
205.9723319999999944
21
-86.5304560000000009
0
LINE
8
BLACK
6
CONTINUOUS
10
205.9723319999999944
20
-86.5304560000000009
11
205.9741599999999835
21
-86.5312139999999914
0
LINE
8
BLACK
6
CONTINUOUS
10
205.9741599999999835
20
-86.5312139999999914
11
205.9762159999999938
21
-86.5329019999999929
0
LINE
8
BLACK
6
CONTINUOUS
10
205.9762159999999938
20
-86.5329019999999929
11
205.9784760000000006
21
-86.534323999999998
0
LINE
8
BLACK
6
CONTINUOUS
10
205.9784760000000006
20
-86.534323999999998
11
205.9797749999999894
21
-86.535821999999996
0
LINE
8
BLACK
6
CONTINUOUS
10
205.9797749999999894
20
-86.535821999999996
11
205.9855249999999955
21
-86.5405409999999904
0
LINE
8
BLACK
6
CONTINUOUS
10
205.9855249999999955
20
-86.5405409999999904
11
206.033143999999993
21
-86.588160000000002
0
LINE
8
BLACK
6
CONTINUOUS
10
206.033143999999993
20
-86.588160000000002
11
206.0378619999999898
21
-86.5939089999999965
0
LINE
8
BLACK
6
CONTINUOUS
10
206.0378619999999898
20
-86.5939089999999965
11
206.0393609999999853
21
-86.595208999999997
0
LINE
8
BLACK
6
CONTINUOUS
10
206.0393609999999853
20
-86.595208999999997
11
206.0407819999999788
21
-86.5974679999999921
0
LINE
8
BLACK
6
CONTINUOUS
10
206.0407819999999788
20
-86.5974679999999921
11
206.0424709999999777
21
-86.5995249999999999
0
LINE
8
BLACK
6
CONTINUOUS
10
206.0424709999999777
20
-86.5995249999999999
11
206.0432279999999992
21
-86.6013519999999914
0
LINE
8
BLACK
6
CONTINUOUS
10
206.0432279999999992
20
-86.6013519999999914
11
206.0471929999999929
21
-86.6076520000000016
0
LINE
8
BLACK
6
CONTINUOUS
10
206.0471929999999929
20
-86.6076520000000016
11
206.0948119999999903
21
-86.7028899999999965
0
LINE
8
BLACK
6
CONTINUOUS
10
206.0948119999999903
20
-86.7028899999999965
11
206.1000669999999957
21
-86.7166209999999893
0
LINE
8
BLACK
6
CONTINUOUS
10
206.1000669999999957
20
-86.7166209999999893
11
206.1002579999999966
21
-86.719309999999993
0
LINE
8
BLACK
6
CONTINUOUS
10
206.1002579999999966
20
-86.719309999999993
11
206.10128899999998
21
-86.7217989999999901
0
LINE
8
BLACK
6
CONTINUOUS
10
206.10128899999998
20
-86.7217989999999901
11
206.1027299999999798
21
-86.7364309999999961
0
LINE
8
BLACK
6
CONTINUOUS
10
206.1027299999999798
20
-86.7364309999999961
11
206.1027299999999798
21
-86.9745259999999973
0
LINE
8
BLACK
6
CONTINUOUS
10
206.1027299999999798
20
-86.9745259999999973
11
206.1020000000000039
21
-86.9819320000000005
0
LINE
8
BLACK
6
CONTINUOUS
10
206.1020000000000039
20
-86.9819320000000005
11
206.1021409999999889
21
-86.9839070000000021
0
LINE
8
BLACK
6
CONTINUOUS
10
206.1021409999999889
20
-86.9839070000000021
11
206.1015500000000031
21
-86.9865039999999965
0
LINE
8
BLACK
6
CONTINUOUS
10
206.1015500000000031
20
-86.9865039999999965
11
206.10128899999998
21
-86.9891579999999891
0
LINE
8
BLACK
6
CONTINUOUS
10
206.10128899999998
20
-86.9891579999999891
11
206.100529999999992
21
-86.9909880000000015
0
LINE
8
BLACK
6
CONTINUOUS
10
206.100529999999992
20
-86.9909880000000015
11
206.0988809999999773
21
-86.9982439999999997
0
LINE
8
BLACK
6
CONTINUOUS
10
206.0988809999999773
20
-86.9982439999999997
11
206.0512619999999799
21
-87.1410999999999945
0
LINE
8
BLACK
6
CONTINUOUS
10
206.0512619999999799
20
-87.1410999999999945
11
206.045267999999993
21
-87.1545259999999899
0
LINE
8
BLACK
6
CONTINUOUS
10
206.045267999999993
20
-87.1545259999999899
11
206.0260940000000005
21
-87.1766329999999954
0
LINE
8
BLACK
6
CONTINUOUS
10
206.0260940000000005
20
-87.1766329999999954
11
205.9999210000000005
21
-87.1897189999999966
0
LINE
8
BLACK
6
CONTINUOUS
10
205.9999210000000005
20
-87.1897189999999966
11
205.9707310000000007
21
-87.1917940000000016
0
LINE
8
BLACK
6
CONTINUOUS
10
205.9707310000000007
20
-87.1917940000000016
11
205.9429679999999792
21
-87.182540000000003
0
LINE
8
BLACK
6
CONTINUOUS
10
205.9429679999999792
20
-87.182540000000003
11
205.9208610000000022
21
-87.1633659999999963
0
LINE
8
BLACK
6
CONTINUOUS
10
205.9208610000000022
20
-87.1633659999999963
11
205.9077749999999867
21
-87.1371929999999963
0
LINE
8
BLACK
6
CONTINUOUS
10
205.9077749999999867
20
-87.1371929999999963
11
205.905699999999996
21
-87.1080029999999965
0
LINE
8
BLACK
6
CONTINUOUS
10
205.905699999999996
20
-87.1080029999999965
11
205.9089599999999791
21
-87.0936659999999989
0
LINE
8
BLACK
6
CONTINUOUS
10
205.9089599999999791
20
-87.0936659999999989
11
205.9527300000000025
21
-86.9623559999999998
0
LINE
8
BLACK
6
CONTINUOUS
10
205.9527300000000025
20
-86.9623559999999998
11
205.9527300000000025
21
-86.7541360000000026
0
LINE
8
BLACK
6
CONTINUOUS
10
205.9527300000000025
20
-86.7541360000000026
11
205.91847199999998
21
-86.6856200000000001
0
LINE
8
BLACK
6
CONTINUOUS
10
205.91847199999998
20
-86.6856200000000001
11
205.8880649999999832
21
-86.6552129999999892
0
LINE
8
BLACK
6
CONTINUOUS
10
205.8880649999999832
20
-86.6552129999999892
11
205.819548999999995
21
-86.620954999999995
0
LINE
8
BLACK
6
CONTINUOUS
10
205.819548999999995
20
-86.620954999999995
11
205.7597209999999848
21
-86.620954999999995
0
LINE
8
BLACK
6
CONTINUOUS
10
205.7597209999999848
20
-86.620954999999995
11
205.6912049999999965
21
-86.6552129999999892
0
LINE
8
BLACK
6
CONTINUOUS
10
205.6912049999999965
20
-86.6552129999999892
11
205.6607979999999998
21
-86.6856200000000001
0
LINE
8
BLACK
6
CONTINUOUS
10
205.6607979999999998
20
-86.6856200000000001
11
205.6223039999999855
21
-86.7626070000000027
0
LINE
8
BLACK
6
CONTINUOUS
10
205.6223039999999855
20
-86.7626070000000027
11
205.5766819999999768
21
-86.9450969999999899
0
LINE
8
BLACK
6
CONTINUOUS
10
205.5766819999999768
20
-86.9450969999999899
11
205.576295999999985
21
-86.9461759999999941
0
LINE
8
BLACK
6
CONTINUOUS
10
205.576295999999985
20
-86.9461759999999941
11
205.5762579999999957
21
-86.9467169999999925
0
LINE
8
BLACK
6
CONTINUOUS
10
205.5762579999999957
20
-86.9467169999999925
11
205.5739269999999976
21
-86.9528059999999954
0
LINE
8
BLACK
6
CONTINUOUS
10
205.5739269999999976
20
-86.9528059999999954
11
205.5717349999999897
21
-86.9589429999999908
0
LINE
8
BLACK
6
CONTINUOUS
10
205.5717349999999897
20
-86.9589429999999908
11
205.5714119999999809
21
-86.959378000000001
0
LINE
8
BLACK
6
CONTINUOUS
10
205.5714119999999809
20
-86.959378000000001
11
205.5710029999999904
21
-86.9604479999999995
0
LINE
8
BLACK
6
CONTINUOUS
10
205.5710029999999904
20
-86.9604479999999995
11
205.523383999999993
21
-87.0556859999999944
0
LINE
8
BLACK
6
CONTINUOUS
10
205.523383999999993
20
-87.0556859999999944
11
205.5194189999999992
21
-87.0619849999999929
0
LINE
8
BLACK
6
CONTINUOUS
10
205.5194189999999992
20
-87.0619849999999929
11
205.5186619999999778
21
-87.0638129999999961
0
LINE
8
BLACK
6
CONTINUOUS
10
205.5186619999999778
20
-87.0638129999999961
11
205.5169729999999788
21
-87.0658689999999922
0
LINE
8
BLACK
6
CONTINUOUS
10
205.5169729999999788
20
-87.0658689999999922
11
205.5155519999999854
21
-87.068128999999999
0
LINE
8
BLACK
6
CONTINUOUS
10
205.5155519999999854
20
-87.068128999999999
11
205.5140529999999899
21
-87.069428000000002
0
LINE
8
BLACK
6
CONTINUOUS
10
205.5140529999999899
20
-87.069428000000002
11
205.509334999999993
21
-87.075177999999994
0
LINE
8
BLACK
6
CONTINUOUS
10
205.509334999999993
20
-87.075177999999994
11
205.4617159999999956
21
-87.1227969999999914
0
LINE
8
BLACK
6
CONTINUOUS
10
205.4617159999999956
20
-87.1227969999999914
11
205.4559659999999894
21
-87.1275150000000025
0
LINE
8
BLACK
6
CONTINUOUS
10
205.4559659999999894
20
-87.1275150000000025
11
205.4546670000000006
21
-87.129013999999998
0
LINE
8
BLACK
6
CONTINUOUS
10
205.4546670000000006
20
-87.129013999999998
11
205.4524069999999938
21
-87.1304349999999914
0
LINE
8
BLACK
6
CONTINUOUS
10
205.4524069999999938
20
-87.1304349999999914
11
205.4503509999999835
21
-87.1321239999999904
0
LINE
8
BLACK
6
CONTINUOUS
10
205.4503509999999835
20
-87.1321239999999904
11
205.4485229999999945
21
-87.1328809999999976
0
LINE
8
BLACK
6
CONTINUOUS
10
205.4485229999999945
20
-87.1328809999999976
11
205.4422239999999817
21
-87.1368459999999914
0
LINE
8
BLACK
6
CONTINUOUS
10
205.4422239999999817
20
-87.1368459999999914
11
205.3469859999999869
21
-87.184465000000003
0
LINE
8
BLACK
6
CONTINUOUS
10
205.3469859999999869
20
-87.184465000000003
11
205.3332539999999824
21
-87.1897199999999941
0
LINE
8
BLACK
6
CONTINUOUS
10
205.3332539999999824
20
-87.1897199999999941
11
205.3305660000000046
21
-87.1899099999999976
0
LINE
8
BLACK
6
CONTINUOUS
10
205.3305660000000046
20
-87.1899099999999976
11
205.3280769999999791
21
-87.1909419999999926
0
LINE
8
BLACK
6
CONTINUOUS
10
205.3280769999999791
20
-87.1909419999999926
11
205.3134450000000015
21
-87.1923829999999924
0
LINE
8
BLACK
6
CONTINUOUS
10
205.3134450000000015
20
-87.1923829999999924
11
205.2182069999999783
21
-87.1923829999999924
0
LINE
8
BLACK
6
CONTINUOUS
10
205.2182069999999783
20
-87.1923829999999924
11
205.2035750000000007
21
-87.1909419999999926
0
LINE
8
BLACK
6
CONTINUOUS
10
205.2035750000000007
20
-87.1909419999999926
11
205.2010860000000037
21
-87.1899109999999951
0
LINE
8
BLACK
6
CONTINUOUS
10
205.2010860000000037
20
-87.1899109999999951
11
205.1983969999999999
21
-87.1897199999999941
0
LINE
8
BLACK
6
CONTINUOUS
10
205.1983969999999999
20
-87.1897199999999941
11
205.1846659999999929
21
-87.184465000000003
0
LINE
8
BLACK
6
CONTINUOUS
10
205.1846659999999929
20
-87.184465000000003
11
205.0894279999999981
21
-87.1368459999999914
0
LINE
8
BLACK
6
CONTINUOUS
10
205.0894279999999981
20
-87.1368459999999914
11
205.0831279999999879
21
-87.1328809999999976
0
LINE
8
BLACK
6
CONTINUOUS
10
205.0831279999999879
20
-87.1328809999999976
11
205.0813009999999963
21
-87.1321239999999904
0
LINE
8
BLACK
6
CONTINUOUS
10
205.0813009999999963
20
-87.1321239999999904
11
205.0792439999999885
21
-87.1304349999999914
0
LINE
8
BLACK
6
CONTINUOUS
10
205.0792439999999885
20
-87.1304349999999914
11
205.0769849999999792
21
-87.129013999999998
0
LINE
8
BLACK
6
CONTINUOUS
10
205.0769849999999792
20
-87.129013999999998
11
205.0756849999999929
21
-87.1275150000000025
0
LINE
8
BLACK
6
CONTINUOUS
10
205.0756849999999929
20
-87.1275150000000025
11
205.0699359999999842
21
-87.1227969999999914
0
LINE
8
BLACK
6
CONTINUOUS
10
205.0699359999999842
20
-87.1227969999999914
11
205.0223169999999868
21
-87.075177999999994
0
LINE
8
BLACK
6
CONTINUOUS
10
205.0223169999999868
20
-87.075177999999994
11
205.0175989999999899
21
-87.0694289999999995
0
LINE
8
BLACK
6
CONTINUOUS
10
205.0175989999999899
20
-87.0694289999999995
11
205.0161009999999919
21
-87.0681299999999965
0
LINE
8
BLACK
6
CONTINUOUS
10
205.0161009999999919
20
-87.0681299999999965
11
205.0146780000000035
21
-87.0658699999999897
0
LINE
8
BLACK
6
CONTINUOUS
10
205.0146780000000035
20
-87.0658699999999897
11
205.0129900000000021
21
-87.0638129999999961
0
LINE
8
BLACK
6
CONTINUOUS
10
205.0129900000000021
20
-87.0638129999999961
11
205.0122329999999806
21
-87.0619849999999929
0
LINE
8
BLACK
6
CONTINUOUS
10
205.0122329999999806
20
-87.0619849999999929
11
205.0082679999999868
21
-87.0556869999999918
0
LINE
8
BLACK
6
CONTINUOUS
10
205.0082679999999868
20
-87.0556869999999918
11
204.960647999999992
21
-86.960448999999997
0
LINE
8
BLACK
6
CONTINUOUS
10
204.960647999999992
20
-86.960448999999997
11
204.9553929999999866
21
-86.9467169999999925
0
LINE
8
BLACK
6
CONTINUOUS
10
204.9553929999999866
20
-86.9467169999999925
11
204.9552009999999882
21
-86.9440269999999913
0
LINE
8
BLACK
6
CONTINUOUS
10
204.9552009999999882
20
-86.9440269999999913
11
204.9541710000000023
21
-86.9415389999999917
0
LINE
8
BLACK
6
CONTINUOUS
10
204.9541710000000023
20
-86.9415389999999917
11
204.9527300000000025
21
-86.9269069999999999
0
LINE
8
BLACK
6
CONTINUOUS
10
204.9527300000000025
20
-86.9269069999999999
11
204.9527300000000025
21
-86.6888119999999986
0
LINE
8
BLACK
6
CONTINUOUS
10
204.9527300000000025
20
-86.6888119999999986
11
204.953458999999981
21
-86.6814059999999955
0
LINE
8
BLACK
6
CONTINUOUS
10
204.953458999999981
20
-86.6814059999999955
11
204.9533189999999934
21
-86.6794309999999939
0
LINE
8
BLACK
6
CONTINUOUS
10
204.9533189999999934
20
-86.6794309999999939
11
204.9539089999999817
21
-86.676833000000002
0
LINE
8
BLACK
6
CONTINUOUS
10
204.9539089999999817
20
-86.676833000000002
11
204.9541710000000023
21
-86.6741799999999927
0
LINE
8
BLACK
6
CONTINUOUS
10
204.9541710000000023
20
-86.6741799999999927
11
204.9549289999999928
21
-86.672348999999997
0
LINE
8
BLACK
6
CONTINUOUS
10
204.9549289999999928
20
-86.672348999999997
11
204.9565789999999765
21
-86.6650939999999963
0
LINE
8
BLACK
6
CONTINUOUS
10
204.9565789999999765
20
-86.6650939999999963
11
205.0041989999999998
21
-86.5222369999999898
0
LINE
8
BLACK
6
CONTINUOUS
10
205.0041989999999998
20
-86.5222369999999898
11
205.0101929999999868
21
-86.5088119999999918
0
LINE
8
BLACK
6
CONTINUOUS
10
205.0101929999999868
20
-86.5088119999999918
11
205.0293669999999793
21
-86.4867050000000006
0
LINE
8
BLACK
6
CONTINUOUS
10
205.0293669999999793
20
-86.4867050000000006
11
205.0555409999999767
21
-86.4736180000000019
0
LINE
8
BLACK
6
CONTINUOUS
10
205.0555409999999767
20
-86.4736180000000019
11
205.0847309999999766
21
-86.4715439999999944
0
LINE
8
BLACK
6
CONTINUOUS
10
205.0847309999999766
20
-86.4715439999999944
11
205.1124930000000006
21
-86.480797999999993
0
LINE
8
BLACK
6
CONTINUOUS
10
205.1124930000000006
20
-86.480797999999993
11
205.1345999999999776
21
-86.4999719999999996
0
LINE
8
BLACK
6
CONTINUOUS
10
205.1345999999999776
20
-86.4999719999999996
11
205.1476869999999906
21
-86.5261459999999971
0
LINE
8
BLACK
6
CONTINUOUS
10
205.1476869999999906
20
-86.5261459999999971
11
205.1497609999999838
21
-86.5553359999999969
0
LINE
8
BLACK
6
CONTINUOUS
10
205.1497609999999838
20
-86.5553359999999969
11
205.1465010000000007
21
-86.5696719999999971
0
LINE
8
BLACK
6
CONTINUOUS
10
205.1465010000000007
20
-86.5696719999999971
11
205.1027299999999798
21
-86.7009829999999937
0
LINE
8
BLACK
6
CONTINUOUS
10
205.1027299999999798
20
-86.7009829999999937
11
205.1027299999999798
21
-86.9091999999999985
0
LINE
8
BLACK
6
CONTINUOUS
10
205.1027299999999798
20
-86.9091999999999985
11
205.1369880000000023
21
-86.9777169999999984
0
LINE
8
BLACK
6
CONTINUOUS
10
205.1369880000000023
20
-86.9777169999999984
11
205.1673959999999965
21
-87.0081249999999926
0
LINE
8
BLACK
6
CONTINUOUS
10
205.1673959999999965
20
-87.0081249999999926
11
205.2359119999999848
21
-87.0423830000000009
0
LINE
8
BLACK
6
CONTINUOUS
10
205.2359119999999848
20
-87.0423830000000009
11
205.295739999999995
21
-87.0423830000000009
0
LINE
8
BLACK
6
CONTINUOUS
10
205.295739999999995
20
-87.0423830000000009
11
205.3642559999999833
21
-87.0081249999999926
0
LINE
8
BLACK
6
CONTINUOUS
10
205.3642559999999833
20
-87.0081249999999926
11
205.39466299999998
21
-86.9777179999999959
0
LINE
8
BLACK
6
CONTINUOUS
10
205.39466299999998
20
-86.9777179999999959
11
205.4331559999999968
21
-86.9007309999999933
0
LINE
8
BLACK
6
CONTINUOUS
10
205.4331559999999968
20
-86.9007309999999933
11
205.478779000000003
21
-86.7182409999999919
0
LINE
8
BLACK
6
CONTINUOUS
10
205.478779000000003
20
-86.7182409999999919
11
205.4791639999999973
21
-86.7171609999999902
0
LINE
8
BLACK
6
CONTINUOUS
10
205.4791639999999973
20
-86.7171609999999902
11
205.4792029999999841
21
-86.716622000000001
0
LINE
8
BLACK
6
CONTINUOUS
10
205.4792029999999841
20
-86.716622000000001
11
205.4815299999999922
21
-86.7105399999999946
0
LINE
8
BLACK
6
CONTINUOUS
10
205.4815299999999922
20
-86.7105399999999946
11
205.4837259999999901
21
-86.704394999999991
0
LINE
8
BLACK
6
CONTINUOUS
10
205.4837259999999901
20
-86.704394999999991
11
205.4840480000000014
21
-86.7039589999999976
0
LINE
8
BLACK
6
CONTINUOUS
10
205.4840480000000014
20
-86.7039589999999976
11
205.4844579999999894
21
-86.7028899999999965
0
LINE
8
BLACK
6
CONTINUOUS
10
205.4844579999999894
20
-86.7028899999999965
11
205.5320769999999868
21
-86.6076520000000016
0
LINE
8
BLACK
6
CONTINUOUS
10
205.5320769999999868
20
-86.6076520000000016
11
205.5360409999999831
21
-86.6013519999999914
0
LINE
8
BLACK
6
CONTINUOUS
10
205.5360409999999831
20
-86.6013519999999914
11
205.536799000000002
21
-86.5995249999999999
0
LINE
8
BLACK
6
CONTINUOUS
10
205.536799000000002
20
-86.5995249999999999
11
205.5384870000000035
21
-86.5974679999999921
0
LINE
8
BLACK
6
CONTINUOUS
10
205.5384870000000035
20
-86.5974679999999921
11
205.5399089999999944
21
-86.595208999999997
0
LINE
8
BLACK
6
CONTINUOUS
10
205.5399089999999944
20
-86.595208999999997
11
205.5414069999999924
21
-86.5939089999999965
0
LINE
8
BLACK
6
CONTINUOUS
10
205.5414069999999924
20
-86.5939089999999965
11
205.5461259999999868
21
-86.588160000000002
0
LINE
8
BLACK
6
CONTINUOUS
10
205.5461259999999868
20
-86.588160000000002
11
205.5937449999999842
21
-86.5405409999999904
0
LINE
8
BLACK
6
CONTINUOUS
10
205.5937449999999842
20
-86.5405409999999904
11
205.5994939999999929
21
-86.535821999999996
0
LINE
8
BLACK
6
CONTINUOUS
10
205.5994939999999929
20
-86.535821999999996
11
205.6007939999999792
21
-86.534323999999998
0
LINE
8
BLACK
6
CONTINUOUS
10
205.6007939999999792
20
-86.534323999999998
11
205.6030529999999885
21
-86.5329019999999929
0
LINE
8
BLACK
6
CONTINUOUS
10
205.6030529999999885
20
-86.5329019999999929
11
205.6051099999999963
21
-86.5312139999999914
0
LINE
8
BLACK
6
CONTINUOUS
10
205.6051099999999963
20
-86.5312139999999914
11
205.6069369999999878
21
-86.5304560000000009
0
LINE
8
BLACK
6
CONTINUOUS
10
205.6069369999999878
20
-86.5304560000000009
11
205.613236999999998
21
-86.5264919999999904
0
LINE
8
BLACK
6
CONTINUOUS
10
205.613236999999998
20
-86.5264919999999904
11
205.7084749999999929
21
-86.478872999999993
0
LINE
8
BLACK
6
CONTINUOUS
10
205.7084749999999929
20
-86.478872999999993
11
205.7222059999999999
21
-86.4736180000000019
0
LINE
8
BLACK
6
CONTINUOUS
10
205.7222059999999999
20
-86.4736180000000019
11
205.7248950000000036
21
-86.4734259999999892
0
LINE
8
BLACK
6
CONTINUOUS
10
205.7248950000000036
20
-86.4734259999999892
11
205.7273840000000007
21
-86.4723959999999892
0
LINE
8
BLACK
6
CONTINUOUS
10
205.7273840000000007
20
-86.4723959999999892
11
205.7420159999999782
21
-86.4709549999999894
0
LINE
8
BLACK
6
CONTINUOUS
10
205.7420159999999782
20
-86.4709549999999894
11
205.8372540000000015
21
-86.4709549999999894
0
LINE
8
BLACK
6
CONTINUOUS
10
205.8372540000000015
20
-86.4709549999999894
11
205.851885999999979
21
-86.4723959999999892
0
LINE
8
BLACK
6
CONTINUOUS
10
204.1661719999999889
20
-86.5914439999999956
11
204.168660999999986
21
-86.5924749999999932
0
LINE
8
BLACK
6
CONTINUOUS
10
204.168660999999986
20
-86.5924749999999932
11
204.1713489999999922
21
-86.5926659999999941
0
LINE
8
BLACK
6
CONTINUOUS
10
204.1713489999999922
20
-86.5926659999999941
11
204.1850809999999967
21
-86.5979209999999995
0
LINE
8
BLACK
6
CONTINUOUS
10
204.1850809999999967
20
-86.5979209999999995
11
204.2803189999999915
21
-86.6455399999999969
0
LINE
8
BLACK
6
CONTINUOUS
10
204.2803189999999915
20
-86.6455399999999969
11
204.282765999999981
21
-86.6470800000000025
0
LINE
8
BLACK
6
CONTINUOUS
10
204.282765999999981
20
-86.6470800000000025
11
204.2839199999999948
21
-86.6474649999999968
0
LINE
8
BLACK
6
CONTINUOUS
10
204.2839199999999948
20
-86.6474649999999968
11
204.2853559999999788
21
-86.6487099999999941
0
LINE
8
BLACK
6
CONTINUOUS
10
204.2853559999999788
20
-86.6487099999999941
11
204.292761999999982
21
-86.6533719999999903
0
LINE
8
BLACK
6
CONTINUOUS
10
204.292761999999982
20
-86.6533719999999903
11
204.298923000000002
21
-86.6604760000000027
0
LINE
8
BLACK
6
CONTINUOUS
10
204.298923000000002
20
-86.6604760000000027
11
204.3060279999999977
21
-86.6666379999999918
0
LINE
8
BLACK
6
CONTINUOUS
10
204.3060279999999977
20
-86.6666379999999918
11
204.3106889999999964
21
-86.6740429999999975
0
LINE
8
BLACK
6
CONTINUOUS
10
204.3106889999999964
20
-86.6740429999999975
11
204.311934999999977
21
-86.6754799999999932
0
LINE
8
BLACK
6
CONTINUOUS
10
204.311934999999977
20
-86.6754799999999932
11
204.3123190000000022
21
-86.6766329999999954
0
LINE
8
BLACK
6
CONTINUOUS
10
204.3123190000000022
20
-86.6766329999999954
11
204.3138599999999769
21
-86.6790809999999965
0
LINE
8
BLACK
6
CONTINUOUS
10
204.3138599999999769
20
-86.6790809999999965
11
204.3614790000000028
21
-86.7743189999999913
0
LINE
8
BLACK
6
CONTINUOUS
10
204.3614790000000028
20
-86.7743189999999913
11
204.3667339999999797
21
-86.7880499999999984
0
LINE
8
BLACK
6
CONTINUOUS
10
204.3667339999999797
20
-86.7880499999999984
11
204.3669249999999806
21
-86.7907390000000021
0
LINE
8
BLACK
6
CONTINUOUS
10
204.3669249999999806
20
-86.7907390000000021
11
204.3679559999999924
21
-86.7932279999999992
0
LINE
8
BLACK
6
CONTINUOUS
10
204.3679559999999924
20
-86.7932279999999992
11
204.3693969999999922
21
-86.8078599999999909
0
LINE
8
BLACK
6
CONTINUOUS
10
204.3693969999999922
20
-86.8078599999999909
11
204.3693969999999922
21
-86.9507169999999974
0
LINE
8
BLACK
6
CONTINUOUS
10
204.3693969999999922
20
-86.9507169999999974
11
204.3679559999999924
21
-86.9653489999999891
0
LINE
8
BLACK
6
CONTINUOUS
10
204.3679559999999924
20
-86.9653489999999891
11
204.3669249999999806
21
-86.9678370000000029
0
LINE
8
BLACK
6
CONTINUOUS
10
204.3669249999999806
20
-86.9678370000000029
11
204.3667339999999797
21
-86.9705269999999899
0
LINE
8
BLACK
6
CONTINUOUS
10
204.3667339999999797
20
-86.9705269999999899
11
204.3614790000000028
21
-86.984257999999997
0
LINE
8
BLACK
6
CONTINUOUS
10
204.3614790000000028
20
-86.984257999999997
11
204.3138599999999769
21
-87.0794959999999918
0
LINE
8
BLACK
6
CONTINUOUS
10
204.3138599999999769
20
-87.0794959999999918
11
204.3060279999999977
21
-87.0919389999999964
0
LINE
8
BLACK
6
CONTINUOUS
10
204.3060279999999977
20
-87.0919389999999964
11
204.2839199999999948
21
-87.1111119999999914
0
LINE
8
BLACK
6
CONTINUOUS
10
204.2839199999999948
20
-87.1111119999999914
11
204.2561589999999967
21
-87.12036599999999
0
LINE
8
BLACK
6
CONTINUOUS
10
204.2561589999999967
20
-87.12036599999999
11
204.2269689999999969
21
-87.1182919999999967
0
LINE
8
BLACK
6
CONTINUOUS
10
204.2269689999999969
20
-87.1182919999999967
11
204.2007940000000019
21
-87.105204999999998
0
LINE
8
BLACK
6
CONTINUOUS
10
204.2007940000000019
20
-87.105204999999998
11
204.1816209999999785
21
-87.0830969999999951
0
LINE
8
BLACK
6
CONTINUOUS
10
204.1816209999999785
20
-87.0830969999999951
11
204.17236699999998
21
-87.0553359999999969
0
LINE
8
BLACK
6
CONTINUOUS
10
204.17236699999998
20
-87.0553359999999969
11
204.1744410000000016
21
-87.0261459999999971
0
LINE
8
BLACK
6
CONTINUOUS
10
204.1744410000000016
20
-87.0261459999999971
11
204.1796959999999785
21
-87.0124139999999926
0
LINE
8
BLACK
6
CONTINUOUS
10
204.1796959999999785
20
-87.0124139999999926
11
204.2193969999999865
21
-86.9330119999999908
0
LINE
8
BLACK
6
CONTINUOUS
10
204.2193969999999865
20
-86.9330119999999908
11
204.2193969999999865
21
-86.8255649999999974
0
LINE
8
BLACK
6
CONTINUOUS
10
204.2193969999999865
20
-86.8255649999999974
11
204.1908760000000029
21
-86.7685230000000018
0
LINE
8
BLACK
6
CONTINUOUS
10
204.1908760000000029
20
-86.7685230000000018
11
204.1338350000000048
21
-86.7400030000000015
0
LINE
8
BLACK
6
CONTINUOUS
10
204.1338350000000048
20
-86.7400030000000015
11
204.121625999999992
21
-86.7400030000000015
0
LINE
8
BLACK
6
CONTINUOUS
10
204.121625999999992
20
-86.7400030000000015
11
204.0645839999999964
21
-86.7685230000000018
0
LINE
8
BLACK
6
CONTINUOUS
10
204.0645839999999964
20
-86.7685230000000018
11
204.0360639999999819
21
-86.8255649999999974
0
LINE
8
BLACK
6
CONTINUOUS
10
204.0360639999999819
20
-86.8255649999999974
11
204.0360639999999819
21
-86.9507169999999974
0
LINE
8
BLACK
6
CONTINUOUS
10
204.0360639999999819
20
-86.9507169999999974
11
204.0346229999999821
21
-86.9653489999999891
0
LINE
8
BLACK
6
CONTINUOUS
10
204.0346229999999821
20
-86.9653489999999891
11
204.0335919999999987
21
-86.9678370000000029
0
LINE
8
BLACK
6
CONTINUOUS
10
204.0335919999999987
20
-86.9678370000000029
11
204.0334009999999978
21
-86.9705269999999899
0
LINE
8
BLACK
6
CONTINUOUS
10
204.0334009999999978
20
-86.9705269999999899
11
204.0281459999999925
21
-86.984257999999997
0
LINE
8
BLACK
6
CONTINUOUS
10
204.0281459999999925
20
-86.984257999999997
11
203.980526999999995
21
-87.0794959999999918
0
LINE
8
BLACK
6
CONTINUOUS
10
203.980526999999995
20
-87.0794959999999918
11
203.9789859999999919
21
-87.0819429999999954
0
LINE
8
BLACK
6
CONTINUOUS
10
203.9789859999999919
20
-87.0819429999999954
11
203.9786019999999951
21
-87.0830969999999951
0
LINE
8
BLACK
6
CONTINUOUS
10
203.9786019999999951
20
-87.0830969999999951
11
203.9773559999999861
21
-87.0845329999999933
0
LINE
8
BLACK
6
CONTINUOUS
10
203.9773559999999861
20
-87.0845329999999933
11
203.9726949999999874
21
-87.0919389999999964
0
LINE
8
BLACK
6
CONTINUOUS
10
203.9726949999999874
20
-87.0919389999999964
11
203.9655899999999917
21
-87.0981000000000023
0
LINE
8
BLACK
6
CONTINUOUS
10
203.9655899999999917
20
-87.0981000000000023
11
203.9594290000000001
21
-87.105204999999998
0
LINE
8
BLACK
6
CONTINUOUS
10
203.9594290000000001
20
-87.105204999999998
11
203.952022999999997
21
-87.1098659999999967
0
LINE
8
BLACK
6
CONTINUOUS
10
203.952022999999997
20
-87.1098659999999967
11
203.9505869999999845
21
-87.1111119999999914
0
LINE
8
BLACK
6
CONTINUOUS
10
203.9505869999999845
20
-87.1111119999999914
11
203.9494329999999991
21
-87.1114960000000025
0
LINE
8
BLACK
6
CONTINUOUS
10
203.9494329999999991
20
-87.1114960000000025
11
203.9469859999999812
21
-87.1130369999999914
0
LINE
8
BLACK
6
CONTINUOUS
10
203.9469859999999812
20
-87.1130369999999914
11
203.8517479999999864
21
-87.160656000000003
0
LINE
8
BLACK
6
CONTINUOUS
10
203.8517479999999864
20
-87.160656000000003
11
203.8380159999999819
21
-87.1659109999999941
0
LINE
8
BLACK
6
CONTINUOUS
10
203.8380159999999819
20
-87.1659109999999941
11
203.8353280000000041
21
-87.1661009999999976
0
LINE
8
BLACK
6
CONTINUOUS
10
203.8353280000000041
20
-87.1661009999999976
11
203.8328389999999786
21
-87.1671329999999926
0
LINE
8
BLACK
6
CONTINUOUS
10
203.8328389999999786
20
-87.1671329999999926
11
203.818207000000001
21
-87.1685739999999925
0
LINE
8
BLACK
6
CONTINUOUS
10
203.818207000000001
20
-87.1685739999999925
11
203.7705880000000036
21
-87.1685739999999925
0
LINE
8
BLACK
6
CONTINUOUS
10
203.7705880000000036
20
-87.1685739999999925
11
203.7559559999999976
21
-87.1671329999999926
0
LINE
8
BLACK
6
CONTINUOUS
10
203.7559559999999976
20
-87.1671329999999926
11
203.7534670000000006
21
-87.1661019999999951
0
LINE
8
BLACK
6
CONTINUOUS
10
203.7534670000000006
20
-87.1661019999999951
11
203.7507779999999968
21
-87.1659109999999941
0
LINE
8
BLACK
6
CONTINUOUS
10
203.7507779999999968
20
-87.1659109999999941
11
203.7370469999999898
21
-87.160656000000003
0
LINE
8
BLACK
6
CONTINUOUS
10
203.7370469999999898
20
-87.160656000000003
11
203.641808999999995
21
-87.1130369999999914
0
LINE
8
BLACK
6
CONTINUOUS
10
203.641808999999995
20
-87.1130369999999914
11
203.639363000000003
21
-87.111497
0
LINE
8
BLACK
6
CONTINUOUS
10
203.639363000000003
20
-87.111497
11
203.6382089999999891
21
-87.1111130000000031
0
LINE
8
BLACK
6
CONTINUOUS
10
203.6382089999999891
20
-87.1111130000000031
11
203.6367709999999818
21
-87.1098649999999992
0
LINE
8
BLACK
6
CONTINUOUS
10
203.6367709999999818
20
-87.1098649999999992
11
203.6293660000000045
21
-87.105204999999998
0
LINE
8
BLACK
6
CONTINUOUS
10
203.6293660000000045
20
-87.105204999999998
11
203.6232049999999845
21
-87.0981000000000023
0
LINE
8
BLACK
6
CONTINUOUS
10
203.6232049999999845
20
-87.0981000000000023
11
203.6161009999999862
21
-87.0919399999999939
0
LINE
8
BLACK
6
CONTINUOUS
10
203.6161009999999862
20
-87.0919399999999939
11
203.6114369999999951
21
-87.0845319999999958
0
LINE
8
BLACK
6
CONTINUOUS
10
203.6114369999999951
20
-87.0845319999999958
11
203.6101929999999811
21
-87.0830969999999951
0
LINE
8
BLACK
6
CONTINUOUS
10
203.6101929999999811
20
-87.0830969999999951
11
203.6098079999999868
21
-87.0819439999999929
0
LINE
8
BLACK
6
CONTINUOUS
10
203.6098079999999868
20
-87.0819439999999929
11
203.6082679999999812
21
-87.0794969999999893
0
LINE
8
BLACK
6
CONTINUOUS
10
203.6082679999999812
20
-87.0794969999999893
11
203.5606479999999863
21
-86.9842589999999944
0
LINE
8
BLACK
6
CONTINUOUS
10
203.5606479999999863
20
-86.9842589999999944
11
203.5553929999999809
21
-86.9705269999999899
0
LINE
8
BLACK
6
CONTINUOUS
10
203.5553929999999809
20
-86.9705269999999899
11
203.5552009999999825
21
-86.9678370000000029
0
LINE
8
BLACK
6
CONTINUOUS
10
203.5552009999999825
20
-86.9678370000000029
11
203.5541709999999966
21
-86.9653489999999891
0
LINE
8
BLACK
6
CONTINUOUS
10
203.5541709999999966
20
-86.9653489999999891
11
203.5527299999999968
21
-86.9507169999999974
0
LINE
8
BLACK
6
CONTINUOUS
10
203.5527299999999968
20
-86.9507169999999974
11
203.5527299999999968
21
-86.7602409999999935
0
LINE
8
BLACK
6
CONTINUOUS
10
203.5527299999999968
20
-86.7602409999999935
11
203.5541709999999966
21
-86.7456090000000017
0
LINE
8
BLACK
6
CONTINUOUS
10
203.5541709999999966
20
-86.7456090000000017
11
203.5552009999999825
21
-86.7431199999999905
0
LINE
8
BLACK
6
CONTINUOUS
10
203.5552009999999825
20
-86.7431199999999905
11
203.5553929999999809
21
-86.7404310000000009
0
LINE
8
BLACK
6
CONTINUOUS
10
203.5553929999999809
20
-86.7404310000000009
11
203.5606479999999863
21
-86.7266989999999964
0
LINE
8
BLACK
6
CONTINUOUS
10
203.5606479999999863
20
-86.7266989999999964
11
203.6082679999999812
21
-86.6314610000000016
0
LINE
8
BLACK
6
CONTINUOUS
10
203.6082679999999812
20
-86.6314610000000016
11
203.6161009999999862
21
-86.619017999999997
0
LINE
8
BLACK
6
CONTINUOUS
10
203.6161009999999862
20
-86.619017999999997
11
203.6382089999999891
21
-86.599845000000002
0
LINE
8
BLACK
6
CONTINUOUS
10
203.6382089999999891
20
-86.599845000000002
11
203.6659699999999873
21
-86.5905920000000009
0
LINE
8
BLACK
6
CONTINUOUS
10
203.6659699999999873
20
-86.5905920000000009
11
203.6951599999999871
21
-86.5926659999999941
0
LINE
8
BLACK
6
CONTINUOUS
10
203.6951599999999871
20
-86.5926659999999941
11
203.7213339999999846
21
-86.6057539999999904
0
LINE
8
BLACK
6
CONTINUOUS
10
203.7213339999999846
20
-86.6057539999999904
11
203.7405079999999771
21
-86.6278609999999958
0
LINE
8
BLACK
6
CONTINUOUS
10
203.7405079999999771
20
-86.6278609999999958
11
203.7497609999999781
21
-86.6556229999999914
0
LINE
8
BLACK
6
CONTINUOUS
10
203.7497609999999781
20
-86.6556229999999914
11
203.7476869999999849
21
-86.6848129999999912
0
LINE
8
BLACK
6
CONTINUOUS
10
203.7476869999999849
20
-86.6848129999999912
11
203.7424319999999796
21
-86.6985439999999983
0
LINE
8
BLACK
6
CONTINUOUS
10
203.7424319999999796
20
-86.6985439999999983
11
203.7027300000000025
21
-86.7779469999999975
0
LINE
8
BLACK
6
CONTINUOUS
10
203.7027300000000025
20
-86.7779469999999975
11
203.7027300000000025
21
-86.9330099999999959
0
LINE
8
BLACK
6
CONTINUOUS
10
203.7027300000000025
20
-86.9330099999999959
11
203.7312509999999861
21
-86.990052999999989
0
LINE
8
BLACK
6
CONTINUOUS
10
203.7312509999999861
20
-86.990052999999989
11
203.7882929999999817
21
-87.018574000000001
0
LINE
8
BLACK
6
CONTINUOUS
10
203.7882929999999817
20
-87.018574000000001
11
203.8005019999999945
21
-87.018574000000001
0
LINE
8
BLACK
6
CONTINUOUS
10
203.8005019999999945
20
-87.018574000000001
11
203.8575429999999926
21
-86.990052999999989
0
LINE
8
BLACK
6
CONTINUOUS
10
203.8575429999999926
20
-86.990052999999989
11
203.8860640000000046
21
-86.9330119999999908
0
LINE
8
BLACK
6
CONTINUOUS
10
203.8860640000000046
20
-86.9330119999999908
11
203.8860640000000046
21
-86.8078599999999909
0
LINE
8
BLACK
6
CONTINUOUS
10
203.8860640000000046
20
-86.8078599999999909
11
203.8875050000000044
21
-86.7932279999999992
0
LINE
8
BLACK
6
CONTINUOUS
10
203.8875050000000044
20
-86.7932279999999992
11
203.8885359999999878
21
-86.7907379999999904
0
LINE
8
BLACK
6
CONTINUOUS
10
203.8885359999999878
20
-86.7907379999999904
11
203.8887269999999887
21
-86.7880509999999958
0
LINE
8
BLACK
6
CONTINUOUS
10
203.8887269999999887
20
-86.7880509999999958
11
203.8939819999999941
21
-86.7743189999999913
0
LINE
8
BLACK
6
CONTINUOUS
10
203.8939819999999941
20
-86.7743189999999913
11
203.9416009999999915
21
-86.6790809999999965
0
LINE
8
BLACK
6
CONTINUOUS
10
203.9416009999999915
20
-86.6790809999999965
11
203.9431409999999971
21
-86.6766329999999954
0
LINE
8
BLACK
6
CONTINUOUS
10
203.9431409999999971
20
-86.6766329999999954
11
203.9435259999999914
21
-86.6754799999999932
0
LINE
8
BLACK
6
CONTINUOUS
10
203.9435259999999914
20
-86.6754799999999932
11
203.9447710000000029
21
-86.6740429999999975
0
LINE
8
BLACK
6
CONTINUOUS
10
203.9447710000000029
20
-86.6740429999999975
11
203.9494329999999991
21
-86.6666379999999918
0
LINE
8
BLACK
6
CONTINUOUS
10
203.9494329999999991
20
-86.6666379999999918
11
203.9565369999999973
21
-86.6604760000000027
0
LINE
8
BLACK
6
CONTINUOUS
10
203.9565369999999973
20
-86.6604760000000027
11
203.9626989999999864
21
-86.6533719999999903
0
LINE
8
BLACK
6
CONTINUOUS
10
203.9626989999999864
20
-86.6533719999999903
11
203.9701039999999921
21
-86.6487099999999941
0
LINE
8
BLACK
6
CONTINUOUS
10
203.9701039999999921
20
-86.6487099999999941
11
203.971541000000002
21
-86.6474649999999968
0
LINE
8
BLACK
6
CONTINUOUS
10
203.971541000000002
20
-86.6474649999999968
11
203.97269399999999
21
-86.6470800000000025
0
LINE
8
BLACK
6
CONTINUOUS
10
203.97269399999999
20
-86.6470800000000025
11
203.9751419999999769
21
-86.6455399999999969
0
LINE
8
BLACK
6
CONTINUOUS
10
203.9751419999999769
20
-86.6455399999999969
11
204.0703800000000001
21
-86.5979209999999995
0
LINE
8
BLACK
6
CONTINUOUS
10
204.0703800000000001
20
-86.5979209999999995
11
204.0841109999999787
21
-86.5926659999999941
0
LINE
8
BLACK
6
CONTINUOUS
10
204.0841109999999787
20
-86.5926659999999941
11
204.0867999999999824
21
-86.5924739999999957
0
LINE
8
BLACK
6
CONTINUOUS
10
204.0867999999999824
20
-86.5924739999999957
11
204.0892889999999795
21
-86.5914439999999956
0
LINE
8
BLACK
6
CONTINUOUS
10
204.0892889999999795
20
-86.5914439999999956
11
204.1039209999999855
21
-86.5900029999999958
0
LINE
8
BLACK
6
CONTINUOUS
10
204.1039209999999855
20
-86.5900029999999958
11
204.1515399999999829
21
-86.5900029999999958
0
LINE
8
BLACK
6
CONTINUOUS
10
204.1515399999999829
20
-86.5900029999999958
11
204.1661719999999889
21
-86.5914439999999956
0
LINE
8
BLACK
6
CONTINUOUS
10
204.3090289999999811
20
-85.7343010000000021
11
204.3360649999999907
21
-85.7454999999999927
0
LINE
8
BLACK
6
CONTINUOUS
10
204.3360649999999907
20
-85.7454999999999927
11
204.3567569999999876
21
-85.7661919999999895
0
LINE
8
BLACK
6
CONTINUOUS
10
204.3567569999999876
20
-85.7661919999999895
11
204.3679559999999924
21
-85.7932279999999992
0
LINE
8
BLACK
6
CONTINUOUS
10
204.3679559999999924
20
-85.7932279999999992
11
204.3679559999999924
21
-85.8224919999999969
0
LINE
8
BLACK
6
CONTINUOUS
10
204.3679559999999924
20
-85.8224919999999969
11
204.3567569999999876
21
-85.8495279999999923
0
LINE
8
BLACK
6
CONTINUOUS
10
204.3567569999999876
20
-85.8495279999999923
11
204.3532280000000014
21
-85.8530559999999952
0
LINE
8
BLACK
6
CONTINUOUS
10
204.3532280000000014
20
-85.8530559999999952
11
204.3614790000000028
21
-85.8695570000000004
0
LINE
8
BLACK
6
CONTINUOUS
10
204.3614790000000028
20
-85.8695570000000004
11
204.3667339999999797
21
-85.8832879999999932
0
LINE
8
BLACK
6
CONTINUOUS
10
204.3667339999999797
20
-85.8832879999999932
11
204.3669249999999806
21
-85.8859769999999969
0
LINE
8
BLACK
6
CONTINUOUS
10
204.3669249999999806
20
-85.8859769999999969
11
204.3679559999999924
21
-85.888465999999994
0
LINE
8
BLACK
6
CONTINUOUS
10
204.3679559999999924
20
-85.888465999999994
11
204.3693969999999922
21
-85.903098
0
LINE
8
BLACK
6
CONTINUOUS
10
204.3693969999999922
20
-85.903098
11
204.3693969999999922
21
-86.0935739999999896
0
LINE
8
BLACK
6
CONTINUOUS
10
204.3693969999999922
20
-86.0935739999999896
11
204.3679559999999924
21
-86.1082059999999956
0
LINE
8
BLACK
6
CONTINUOUS
10
204.3679559999999924
20
-86.1082059999999956
11
204.3669249999999806
21
-86.1106939999999952
0
LINE
8
BLACK
6
CONTINUOUS
10
204.3669249999999806
20
-86.1106939999999952
11
204.3667339999999797
21
-86.1133839999999964
0
LINE
8
BLACK
6
CONTINUOUS
10
204.3667339999999797
20
-86.1133839999999964
11
204.3614790000000028
21
-86.1271149999999892
0
LINE
8
BLACK
6
CONTINUOUS
10
204.3614790000000028
20
-86.1271149999999892
11
204.3138599999999769
21
-86.2223529999999982
0
LINE
8
BLACK
6
CONTINUOUS
10
204.3138599999999769
20
-86.2223529999999982
11
204.3098949999999832
21
-86.2286519999999967
0
LINE
8
BLACK
6
CONTINUOUS
10
204.3098949999999832
20
-86.2286519999999967
11
204.3091379999999901
21
-86.23048
0
LINE
8
BLACK
6
CONTINUOUS
10
204.3091379999999901
20
-86.23048
11
204.3074489999999912
21
-86.2325359999999961
0
LINE
8
BLACK
6
CONTINUOUS
10
204.3074489999999912
20
-86.2325359999999961
11
204.3060279999999977
21
-86.2347960000000029
0
LINE
8
BLACK
6
CONTINUOUS
10
204.3060279999999977
20
-86.2347960000000029
11
204.3045290000000023
21
-86.2360949999999917
0
LINE
8
BLACK
6
CONTINUOUS
10
204.3045290000000023
20
-86.2360949999999917
11
204.299810999999977
21
-86.2418449999999979
0
LINE
8
BLACK
6
CONTINUOUS
10
204.299810999999977
20
-86.2418449999999979
11
204.2521919999999795
21
-86.2894639999999953
0
LINE
8
BLACK
6
CONTINUOUS
10
204.2521919999999795
20
-86.2894639999999953
11
204.2464420000000018
21
-86.2941819999999922
0
LINE
8
BLACK
6
CONTINUOUS
10
204.2464420000000018
20
-86.2941819999999922
11
204.2451429999999846
21
-86.2956810000000019
0
LINE
8
BLACK
6
CONTINUOUS
10
204.2451429999999846
20
-86.2956810000000019
11
204.2428829999999778
21
-86.2971019999999953
0
LINE
8
BLACK
6
CONTINUOUS
10
204.2428829999999778
20
-86.2971019999999953
11
204.2408269999999959
21
-86.2987909999999943
0
LINE
8
BLACK
6
CONTINUOUS
10
204.2408269999999959
20
-86.2987909999999943
11
204.2389989999999784
21
-86.2995480000000015
0
LINE
8
BLACK
6
CONTINUOUS
10
204.2389989999999784
20
-86.2995480000000015
11
204.2326999999999941
21
-86.3035129999999953
0
LINE
8
BLACK
6
CONTINUOUS
10
204.2326999999999941
20
-86.3035129999999953
11
204.1374619999999993
21
-86.3511319999999927
0
LINE
8
BLACK
6
CONTINUOUS
10
204.1374619999999993
20
-86.3511319999999927
11
204.1237299999999948
21
-86.356386999999998
0
LINE
8
BLACK
6
CONTINUOUS
10
204.1237299999999948
20
-86.356386999999998
11
204.1210419999999885
21
-86.3565770000000015
0
LINE
8
BLACK
6
CONTINUOUS
10
204.1210419999999885
20
-86.3565770000000015
11
204.1185529999999915
21
-86.3576089999999965
0
LINE
8
BLACK
6
CONTINUOUS
10
204.1185529999999915
20
-86.3576089999999965
11
204.1039209999999855
21
-86.3590499999999963
0
LINE
8
BLACK
6
CONTINUOUS
10
204.1039209999999855
20
-86.3590499999999963
11
203.818207000000001
21
-86.3590499999999963
0
LINE
8
BLACK
6
CONTINUOUS
10
203.818207000000001
20
-86.3590499999999963
11
203.803574999999995
21
-86.3576089999999965
0
LINE
8
BLACK
6
CONTINUOUS
10
203.803574999999995
20
-86.3576089999999965
11
203.801085999999998
21
-86.356577999999999
0
LINE
8
BLACK
6
CONTINUOUS
10
203.801085999999998
20
-86.356577999999999
11
203.7983969999999943
21
-86.356386999999998
0
LINE
8
BLACK
6
CONTINUOUS
10
203.7983969999999943
20
-86.356386999999998
11
203.7846659999999872
21
-86.3511319999999927
0
LINE
8
BLACK
6
CONTINUOUS
10
203.7846659999999872
20
-86.3511319999999927
11
203.6894279999999924
21
-86.3035129999999953
0
LINE
8
BLACK
6
CONTINUOUS
10
203.6894279999999924
20
-86.3035129999999953
11
203.6831279999999822
21
-86.2995480000000015
0
LINE
8
BLACK
6
CONTINUOUS
10
203.6831279999999822
20
-86.2995480000000015
11
203.6813009999999906
21
-86.2987909999999943
0
LINE
8
BLACK
6
CONTINUOUS
10
203.6813009999999906
20
-86.2987909999999943
11
203.6792439999999829
21
-86.2971019999999953
0
LINE
8
BLACK
6
CONTINUOUS
10
203.6792439999999829
20
-86.2971019999999953
11
203.6769850000000019
21
-86.2956810000000019
0
LINE
8
BLACK
6
CONTINUOUS
10
203.6769850000000019
20
-86.2956810000000019
11
203.6756849999999872
21
-86.2941819999999922
0
LINE
8
BLACK
6
CONTINUOUS
10
203.6756849999999872
20
-86.2941819999999922
11
203.6699359999999785
21
-86.2894639999999953
0
LINE
8
BLACK
6
CONTINUOUS
10
203.6699359999999785
20
-86.2894639999999953
11
203.6223169999999811
21
-86.2418449999999979
0
LINE
8
BLACK
6
CONTINUOUS
10
203.6223169999999811
20
-86.2418449999999979
11
203.6175989999999842
21
-86.2360959999999892
0
LINE
8
BLACK
6
CONTINUOUS
10
203.6175989999999842
20
-86.2360959999999892
11
203.6161009999999862
21
-86.2347970000000004
0
LINE
8
BLACK
6
CONTINUOUS
10
203.6161009999999862
20
-86.2347970000000004
11
203.6146779999999978
21
-86.2325369999999936
0
LINE
8
BLACK
6
CONTINUOUS
10
203.6146779999999978
20
-86.2325369999999936
11
203.6129899999999964
21
-86.23048
0
LINE
8
BLACK
6
CONTINUOUS
10
203.6129899999999964
20
-86.23048
11
203.6122330000000034
21
-86.2286519999999967
0
LINE
8
BLACK
6
CONTINUOUS
10
203.6122330000000034
20
-86.2286519999999967
11
203.6082679999999812
21
-86.2223539999999957
0
LINE
8
BLACK
6
CONTINUOUS
10
203.6082679999999812
20
-86.2223539999999957
11
203.5606479999999863
21
-86.1271160000000009
0
LINE
8
BLACK
6
CONTINUOUS
10
203.5606479999999863
20
-86.1271160000000009
11
203.5553929999999809
21
-86.1133839999999964
0
LINE
8
BLACK
6
CONTINUOUS
10
203.5553929999999809
20
-86.1133839999999964
11
203.5552009999999825
21
-86.1106939999999952
0
LINE
8
BLACK
6
CONTINUOUS
10
203.5552009999999825
20
-86.1106939999999952
11
203.5541709999999966
21
-86.1082059999999956
0
LINE
8
BLACK
6
CONTINUOUS
10
203.5541709999999966
20
-86.1082059999999956
11
203.5527299999999968
21
-86.0935739999999896
0
LINE
8
BLACK
6
CONTINUOUS
10
203.5527299999999968
20
-86.0935739999999896
11
203.5527299999999968
21
-85.903098
0
LINE
8
BLACK
6
CONTINUOUS
10
203.5527299999999968
20
-85.903098
11
203.5541709999999966
21
-85.888465999999994
0
LINE
8
BLACK
6
CONTINUOUS
10
203.5541709999999966
20
-85.888465999999994
11
203.5552009999999825
21
-85.8859769999999969
0
LINE
8
BLACK
6
CONTINUOUS
10
203.5552009999999825
20
-85.8859769999999969
11
203.5553929999999809
21
-85.8832879999999932
0
LINE
8
BLACK
6
CONTINUOUS
10
203.5553929999999809
20
-85.8832879999999932
11
203.5555569999999932
21
-85.8828599999999938
0
LINE
8
BLACK
6
CONTINUOUS
10
203.5555569999999932
20
-85.8828599999999938
11
203.2943970000000036
21
-85.8828599999999938
0
LINE
8
BLACK
6
CONTINUOUS
10
203.2943970000000036
20
-85.8828599999999938
11
203.2797649999999976
21
-85.881418999999994
0
LINE
8
BLACK
6
CONTINUOUS
10
203.2797649999999976
20
-85.881418999999994
11
203.252728999999988
21
-85.8702199999999891
0
LINE
8
BLACK
6
CONTINUOUS
10
203.252728999999988
20
-85.8702199999999891
11
203.2320369999999912
21
-85.8495279999999923
0
LINE
8
BLACK
6
CONTINUOUS
10
203.2320369999999912
20
-85.8495279999999923
11
203.2208379999999863
21
-85.8224919999999969
0
LINE
8
BLACK
6
CONTINUOUS
10
203.2208379999999863
20
-85.8224919999999969
11
203.2208379999999863
21
-85.7932279999999992
0
LINE
8
BLACK
6
CONTINUOUS
10
203.2208379999999863
20
-85.7932279999999992
11
203.2320369999999912
21
-85.7661919999999895
0
LINE
8
BLACK
6
CONTINUOUS
10
203.2320369999999912
20
-85.7661919999999895
11
203.252728999999988
21
-85.7454999999999927
0
LINE
8
BLACK
6
CONTINUOUS
10
203.252728999999988
20
-85.7454999999999927
11
203.2797649999999976
21
-85.7343010000000021
0
LINE
8
BLACK
6
CONTINUOUS
10
203.2797649999999976
20
-85.7343010000000021
11
203.2943970000000036
21
-85.7328600000000023
0
LINE
8
BLACK
6
CONTINUOUS
10
203.2943970000000036
20
-85.7328600000000023
11
204.2943970000000036
21
-85.7328600000000023
0
LINE
8
BLACK
6
CONTINUOUS
10
204.2943970000000036
20
-85.7328600000000023
11
204.3090289999999811
21
-85.7343010000000021
0
LINE
8
BLACK
6
CONTINUOUS
10
203.7027300000000025
20
-85.9208039999999897
11
203.7027300000000025
21
-86.0758670000000023
0
LINE
8
BLACK
6
CONTINUOUS
10
203.7027300000000025
20
-86.0758670000000023
11
203.7369879999999966
21
-86.1443840000000023
0
LINE
8
BLACK
6
CONTINUOUS
10
203.7369879999999966
20
-86.1443840000000023
11
203.7673959999999909
21
-86.1747919999999965
0
LINE
8
BLACK
6
CONTINUOUS
10
203.7673959999999909
20
-86.1747919999999965
11
203.8359119999999791
21
-86.2090499999999906
0
LINE
8
BLACK
6
CONTINUOUS
10
203.8359119999999791
20
-86.2090499999999906
11
204.086215999999979
21
-86.2090499999999906
0
LINE
8
BLACK
6
CONTINUOUS
10
204.086215999999979
20
-86.2090499999999906
11
204.1547319999999957
21
-86.1747919999999965
0
LINE
8
BLACK
6
CONTINUOUS
10
204.1547319999999957
20
-86.1747919999999965
11
204.1851389999999924
21
-86.1443849999999998
0
LINE
8
BLACK
6
CONTINUOUS
10
204.1851389999999924
20
-86.1443849999999998
11
204.2193969999999865
21
-86.0758689999999973
0
LINE
8
BLACK
6
CONTINUOUS
10
204.2193969999999865
20
-86.0758689999999973
11
204.2193969999999865
21
-85.9208029999999923
0
LINE
8
BLACK
6
CONTINUOUS
10
204.2193969999999865
20
-85.9208029999999923
11
204.2004249999999956
21
-85.8828599999999938
0
LINE
8
BLACK
6
CONTINUOUS
10
204.2004249999999956
20
-85.8828599999999938
11
203.7217019999999934
21
-85.8828599999999938
0
LINE
8
BLACK
6
CONTINUOUS
10
203.7217019999999934
20
-85.8828599999999938
11
203.7027300000000025
21
-85.9208039999999897
0
LINE
8
BLACK
6
CONTINUOUS
10
206.0423619999999971
20
-85.4723959999999892
11
206.0693979999999783
21
-85.483594999999994
0
LINE
8
BLACK
6
CONTINUOUS
10
206.0693979999999783
20
-85.483594999999994
11
206.0900900000000036
21
-85.5042869999999908
0
LINE
8
BLACK
6
CONTINUOUS
10
206.0900900000000036
20
-85.5042869999999908
11
206.10128899999998
21
-85.5313230000000004
0
LINE
8
BLACK
6
CONTINUOUS
10
206.10128899999998
20
-85.5313230000000004
11
206.10128899999998
21
-85.5605869999999982
0
LINE
8
BLACK
6
CONTINUOUS
10
206.10128899999998
20
-85.5605869999999982
11
206.0900900000000036
21
-85.5876229999999936
0
LINE
8
BLACK
6
CONTINUOUS
10
206.0900900000000036
20
-85.5876229999999936
11
206.0693979999999783
21
-85.6083149999999904
0
LINE
8
BLACK
6
CONTINUOUS
10
206.0693979999999783
20
-85.6083149999999904
11
206.0423619999999971
21
-85.6195139999999952
0
LINE
8
BLACK
6
CONTINUOUS
10
206.0423619999999971
20
-85.6195139999999952
11
206.0277299999999912
21
-85.620954999999995
0
LINE
8
BLACK
6
CONTINUOUS
10
206.0277299999999912
20
-85.620954999999995
11
205.2359119999999848
21
-85.620954999999995
0
LINE
8
BLACK
6
CONTINUOUS
10
205.2359119999999848
20
-85.620954999999995
11
205.1673959999999965
21
-85.6552129999999892
0
LINE
8
BLACK
6
CONTINUOUS
10
205.1673959999999965
20
-85.6552129999999892
11
205.1369880000000023
21
-85.6856200000000001
0
LINE
8
BLACK
6
CONTINUOUS
10
205.1369880000000023
20
-85.6856200000000001
11
205.1027299999999798
21
-85.7541370000000001
0
LINE
8
BLACK
6
CONTINUOUS
10
205.1027299999999798
20
-85.7541370000000001
11
205.1027299999999798
21
-85.9091999999999985
0
LINE
8
BLACK
6
CONTINUOUS
10
205.1027299999999798
20
-85.9091999999999985
11
205.1369880000000023
21
-85.9777169999999984
0
LINE
8
BLACK
6
CONTINUOUS
10
205.1369880000000023
20
-85.9777169999999984
11
205.1673959999999965
21
-86.0081249999999926
0
LINE
8
BLACK
6
CONTINUOUS
10
205.1673959999999965
20
-86.0081249999999926
11
205.2359119999999848
21
-86.0423830000000009
0
LINE
8
BLACK
6
CONTINUOUS
10
205.2359119999999848
20
-86.0423830000000009
11
206.0277299999999912
21
-86.0423830000000009
0
LINE
8
BLACK
6
CONTINUOUS
10
206.0277299999999912
20
-86.0423830000000009
11
206.0423619999999971
21
-86.0438240000000008
0
LINE
8
BLACK
6
CONTINUOUS
10
206.0423619999999971
20
-86.0438240000000008
11
206.0693979999999783
21
-86.0550229999999914
0
LINE
8
BLACK
6
CONTINUOUS
10
206.0693979999999783
20
-86.0550229999999914
11
206.0900900000000036
21
-86.0757150000000024
0
LINE
8
BLACK
6
CONTINUOUS
10
206.0900900000000036
20
-86.0757150000000024
11
206.10128899999998
21
-86.1027509999999978
0
LINE
8
BLACK
6
CONTINUOUS
10
206.10128899999998
20
-86.1027509999999978
11
206.10128899999998
21
-86.1320149999999956
0
LINE
8
BLACK
6
CONTINUOUS
10
206.10128899999998
20
-86.1320149999999956
11
206.0900900000000036
21
-86.1590509999999909
0
LINE
8
BLACK
6
CONTINUOUS
10
206.0900900000000036
20
-86.1590509999999909
11
206.0693979999999783
21
-86.179743000000002
0
LINE
8
BLACK
6
CONTINUOUS
10
206.0693979999999783
20
-86.179743000000002
11
206.0423619999999971
21
-86.1909419999999926
0
LINE
8
BLACK
6
CONTINUOUS
10
206.0423619999999971
20
-86.1909419999999926
11
206.0277299999999912
21
-86.1923829999999924
0
LINE
8
BLACK
6
CONTINUOUS
10
206.0277299999999912
20
-86.1923829999999924
11
205.2182069999999783
21
-86.1923829999999924
0
LINE
8
BLACK
6
CONTINUOUS
10
205.2182069999999783
20
-86.1923829999999924
11
205.2035750000000007
21
-86.1909419999999926
0
LINE
8
BLACK
6
CONTINUOUS
10
205.2035750000000007
20
-86.1909419999999926
11
205.2010860000000037
21
-86.1899109999999951
0
LINE
8
BLACK
6
CONTINUOUS
10
205.2010860000000037
20
-86.1899109999999951
11
205.1983969999999999
21
-86.1897199999999941
0
LINE
8
BLACK
6
CONTINUOUS
10
205.1983969999999999
20
-86.1897199999999941
11
205.1846659999999929
21
-86.184465000000003
0
LINE
8
BLACK
6
CONTINUOUS
10
205.1846659999999929
20
-86.184465000000003
11
205.0894279999999981
21
-86.1368459999999914
0
LINE
8
BLACK
6
CONTINUOUS
10
205.0894279999999981
20
-86.1368459999999914
11
205.0831279999999879
21
-86.1328809999999976
0
LINE
8
BLACK
6
CONTINUOUS
10
205.0831279999999879
20
-86.1328809999999976
11
205.0813009999999963
21
-86.1321239999999904
0
LINE
8
BLACK
6
CONTINUOUS
10
205.0813009999999963
20
-86.1321239999999904
11
205.0792439999999885
21
-86.1304349999999914
0
LINE
8
BLACK
6
CONTINUOUS
10
205.0792439999999885
20
-86.1304349999999914
11
205.0769849999999792
21
-86.129013999999998
0
LINE
8
BLACK
6
CONTINUOUS
10
205.0769849999999792
20
-86.129013999999998
11
205.0756849999999929
21
-86.1275150000000025
0
LINE
8
BLACK
6
CONTINUOUS
10
205.0756849999999929
20
-86.1275150000000025
11
205.0699359999999842
21
-86.1227969999999914
0
LINE
8
BLACK
6
CONTINUOUS
10
205.0699359999999842
20
-86.1227969999999914
11
205.0223169999999868
21
-86.075177999999994
0
LINE
8
BLACK
6
CONTINUOUS
10
205.0223169999999868
20
-86.075177999999994
11
205.0175989999999899
21
-86.0694289999999995
0
LINE
8
BLACK
6
CONTINUOUS
10
205.0175989999999899
20
-86.0694289999999995
11
205.0161009999999919
21
-86.0681299999999965
0
LINE
8
BLACK
6
CONTINUOUS
10
205.0161009999999919
20
-86.0681299999999965
11
205.0146780000000035
21
-86.0658699999999897
0
LINE
8
BLACK
6
CONTINUOUS
10
205.0146780000000035
20
-86.0658699999999897
11
205.0129900000000021
21
-86.0638129999999961
0
LINE
8
BLACK
6
CONTINUOUS
10
205.0129900000000021
20
-86.0638129999999961
11
205.0122329999999806
21
-86.0619849999999929
0
LINE
8
BLACK
6
CONTINUOUS
10
205.0122329999999806
20
-86.0619849999999929
11
205.0082679999999868
21
-86.0556869999999918
0
LINE
8
BLACK
6
CONTINUOUS
10
205.0082679999999868
20
-86.0556869999999918
11
204.960647999999992
21
-85.960448999999997
0
LINE
8
BLACK
6
CONTINUOUS
10
204.960647999999992
20
-85.960448999999997
11
204.9553929999999866
21
-85.9467169999999925
0
LINE
8
BLACK
6
CONTINUOUS
10
204.9553929999999866
20
-85.9467169999999925
11
204.9552009999999882
21
-85.9440269999999913
0
LINE
8
BLACK
6
CONTINUOUS
10
204.9552009999999882
20
-85.9440269999999913
11
204.9541710000000023
21
-85.9415389999999917
0
LINE
8
BLACK
6
CONTINUOUS
10
204.9541710000000023
20
-85.9415389999999917
11
204.9527300000000025
21
-85.9269069999999999
0
LINE
8
BLACK
6
CONTINUOUS
10
204.9527300000000025
20
-85.9269069999999999
11
204.9527300000000025
21
-85.7364309999999961
0
LINE
8
BLACK
6
CONTINUOUS
10
204.9527300000000025
20
-85.7364309999999961
11
204.9541710000000023
21
-85.7217989999999901
0
LINE
8
BLACK
6
CONTINUOUS
10
204.9541710000000023
20
-85.7217989999999901
11
204.9552009999999882
21
-85.719309999999993
0
LINE
8
BLACK
6
CONTINUOUS
10
204.9552009999999882
20
-85.719309999999993
11
204.9553929999999866
21
-85.7166209999999893
0
LINE
8
BLACK
6
CONTINUOUS
10
204.9553929999999866
20
-85.7166209999999893
11
204.960647999999992
21
-85.702888999999999
0
LINE
8
BLACK
6
CONTINUOUS
10
204.960647999999992
20
-85.702888999999999
11
205.0082679999999868
21
-85.6076509999999899
0
LINE
8
BLACK
6
CONTINUOUS
10
205.0082679999999868
20
-85.6076509999999899
11
205.0122329999999806
21
-85.6013519999999914
0
LINE
8
BLACK
6
CONTINUOUS
10
205.0122329999999806
20
-85.6013519999999914
11
205.0129900000000021
21
-85.5995249999999999
0
LINE
8
BLACK
6
CONTINUOUS
10
205.0129900000000021
20
-85.5995249999999999
11
205.0146780000000035
21
-85.5974669999999946
0
LINE
8
BLACK
6
CONTINUOUS
10
205.0146780000000035
20
-85.5974669999999946
11
205.0161009999999919
21
-85.5952079999999995
0
LINE
8
BLACK
6
CONTINUOUS
10
205.0161009999999919
20
-85.5952079999999995
11
205.0175989999999899
21
-85.593907999999999
0
LINE
8
BLACK
6
CONTINUOUS
10
205.0175989999999899
20
-85.593907999999999
11
205.0223169999999868
21
-85.588160000000002
0
LINE
8
BLACK
6
CONTINUOUS
10
205.0223169999999868
20
-85.588160000000002
11
205.0699359999999842
21
-85.5405409999999904
0
LINE
8
BLACK
6
CONTINUOUS
10
205.0699359999999842
20
-85.5405409999999904
11
205.0756849999999929
21
-85.535821999999996
0
LINE
8
BLACK
6
CONTINUOUS
10
205.0756849999999929
20
-85.535821999999996
11
205.0769849999999792
21
-85.534323999999998
0
LINE
8
BLACK
6
CONTINUOUS
10
205.0769849999999792
20
-85.534323999999998
11
205.0792439999999885
21
-85.5329019999999929
0
LINE
8
BLACK
6
CONTINUOUS
10
205.0792439999999885
20
-85.5329019999999929
11
205.0813009999999963
21
-85.5312139999999914
0
LINE
8
BLACK
6
CONTINUOUS
10
205.0813009999999963
20
-85.5312139999999914
11
205.0831279999999879
21
-85.5304560000000009
0
LINE
8
BLACK
6
CONTINUOUS
10
205.0831279999999879
20
-85.5304560000000009
11
205.0894279999999981
21
-85.5264919999999904
0
LINE
8
BLACK
6
CONTINUOUS
10
205.0894279999999981
20
-85.5264919999999904
11
205.1846659999999929
21
-85.478872999999993
0
LINE
8
BLACK
6
CONTINUOUS
10
205.1846659999999929
20
-85.478872999999993
11
205.1983969999999999
21
-85.4736180000000019
0
LINE
8
BLACK
6
CONTINUOUS
10
205.1983969999999999
20
-85.4736180000000019
11
205.2010860000000037
21
-85.4734259999999892
0
LINE
8
BLACK
6
CONTINUOUS
10
205.2010860000000037
20
-85.4734259999999892
11
205.2035750000000007
21
-85.4723959999999892
0
LINE
8
BLACK
6
CONTINUOUS
10
205.2035750000000007
20
-85.4723959999999892
11
205.2182069999999783
21
-85.4709549999999894
0
LINE
8
BLACK
6
CONTINUOUS
10
205.2182069999999783
20
-85.4709549999999894
11
206.0277299999999912
21
-85.4709549999999894
0
LINE
8
BLACK
6
CONTINUOUS
10
206.0277299999999912
20
-85.4709549999999894
11
206.0423619999999971
21
-85.4723959999999892
0
LINE
8
BLACK
6
CONTINUOUS
10
201.3192449999999951
20
-83.4664199999999994
11
201.3650260000000003
21
-83.4853829999999988
0
LINE
8
BLACK
6
CONTINUOUS
10
201.3650260000000003
20
-83.4853829999999988
11
201.4000659999999812
21
-83.5204229999999939
0
LINE
8
BLACK
6
CONTINUOUS
10
201.4000659999999812
20
-83.5204229999999939
11
201.4190289999999948
21
-83.566203999999999
0
LINE
8
BLACK
6
CONTINUOUS
10
201.4190289999999948
20
-83.566203999999999
11
201.4214690000000019
21
-83.5909800000000018
0
LINE
8
BLACK
6
CONTINUOUS
10
201.4214690000000019
20
-83.5909800000000018
11
201.4214690000000019
21
-85.3409899999999908
0
LINE
8
BLACK
6
CONTINUOUS
10
201.4214690000000019
20
-85.3409899999999908
11
201.4190289999999948
21
-85.3657659999999936
0
LINE
8
BLACK
6
CONTINUOUS
10
201.4190289999999948
20
-85.3657659999999936
11
201.4000659999999812
21
-85.4115469999999988
0
LINE
8
BLACK
6
CONTINUOUS
10
201.4000659999999812
20
-85.4115469999999988
11
201.3650260000000003
21
-85.4465869999999938
0
LINE
8
BLACK
6
CONTINUOUS
10
201.3650260000000003
20
-85.4465869999999938
11
201.3192449999999951
21
-85.4655499999999932
0
LINE
8
BLACK
6
CONTINUOUS
10
201.3192449999999951
20
-85.4655499999999932
11
201.2944689999999923
21
-85.4679900000000004
0
LINE
8
BLACK
6
CONTINUOUS
10
201.2944689999999923
20
-85.4679900000000004
11
200.8527389999999855
21
-85.4679900000000004
0
LINE
8
BLACK
6
CONTINUOUS
10
200.8527389999999855
20
-85.4679900000000004
11
200.8279629999999827
21
-85.4655499999999932
0
LINE
8
BLACK
6
CONTINUOUS
10
200.8279629999999827
20
-85.4655499999999932
11
200.7821819999999775
21
-85.4465869999999938
0
LINE
8
BLACK
6
CONTINUOUS
10
200.7821819999999775
20
-85.4465869999999938
11
200.7471419999999966
21
-85.4115469999999988
0
LINE
8
BLACK
6
CONTINUOUS
10
200.7471419999999966
20
-85.4115469999999988
11
200.728178999999983
21
-85.3657659999999936
0
LINE
8
BLACK
6
CONTINUOUS
10
200.728178999999983
20
-85.3657659999999936
11
200.728178999999983
21
-85.3162140000000022
0
LINE
8
BLACK
6
CONTINUOUS
10
200.728178999999983
20
-85.3162140000000022
11
200.7471419999999966
21
-85.270432999999997
0
LINE
8
BLACK
6
CONTINUOUS
10
200.7471419999999966
20
-85.270432999999997
11
200.7821819999999775
21
-85.235393000000002
0
LINE
8
BLACK
6
CONTINUOUS
10
200.7821819999999775
20
-85.235393000000002
11
200.8279629999999827
21
-85.2164300000000026
0
LINE
8
BLACK
6
CONTINUOUS
10
200.8279629999999827
20
-85.2164300000000026
11
200.8527389999999855
21
-85.2139899999999955
0
LINE
8
BLACK
6
CONTINUOUS
10
200.8527389999999855
20
-85.2139899999999955
11
201.1674689999999828
21
-85.2139899999999955
0
LINE
8
BLACK
6
CONTINUOUS
10
201.1674689999999828
20
-85.2139899999999955
11
201.1674689999999828
21
-83.7179799999999972
0
LINE
8
BLACK
6
CONTINUOUS
10
201.1674689999999828
20
-83.7179799999999972
11
200.8527389999999855
21
-83.7179799999999972
0
LINE
8
BLACK
6
CONTINUOUS
10
200.8527389999999855
20
-83.7179799999999972
11
200.8279629999999827
21
-83.7155399999999901
0
LINE
8
BLACK
6
CONTINUOUS
10
200.8279629999999827
20
-83.7155399999999901
11
200.7821819999999775
21
-83.6965769999999907
0
LINE
8
BLACK
6
CONTINUOUS
10
200.7821819999999775
20
-83.6965769999999907
11
200.7471419999999966
21
-83.6615369999999956
0
LINE
8
BLACK
6
CONTINUOUS
10
200.7471419999999966
20
-83.6615369999999956
11
200.728178999999983
21
-83.6157559999999904
0
LINE
8
BLACK
6
CONTINUOUS
10
200.728178999999983
20
-83.6157559999999904
11
200.728178999999983
21
-83.566203999999999
0
LINE
8
BLACK
6
CONTINUOUS
10
200.728178999999983
20
-83.566203999999999
11
200.7471419999999966
21
-83.5204229999999939
0
LINE
8
BLACK
6
CONTINUOUS
10
200.7471419999999966
20
-83.5204229999999939
11
200.7821819999999775
21
-83.4853829999999988
0
LINE
8
BLACK
6
CONTINUOUS
10
200.7821819999999775
20
-83.4853829999999988
11
200.8279629999999827
21
-83.4664199999999994
0
LINE
8
BLACK
6
CONTINUOUS
10
200.8279629999999827
20
-83.4664199999999994
11
200.8527389999999855
21
-83.4639799999999923
0
LINE
8
BLACK
6
CONTINUOUS
10
200.8527389999999855
20
-83.4639799999999923
11
201.2944689999999923
21
-83.4639799999999923
0
LINE
8
BLACK
6
CONTINUOUS
10
201.2944689999999923
20
-83.4639799999999923
11
201.3192449999999951
21
-83.4664199999999994
0
LINE
8
BLACK
6
CONTINUOUS
10
204.1185529999999915
20
-84.7819199999999995
11
204.1210419999999885
21
-84.7829509999999971
0
LINE
8
BLACK
6
CONTINUOUS
10
204.1210419999999885
20
-84.7829509999999971
11
204.1237299999999948
21
-84.783141999999998
0
LINE
8
BLACK
6
CONTINUOUS
10
204.1237299999999948
20
-84.783141999999998
11
204.1374619999999993
21
-84.7883969999999891
0
LINE
8
BLACK
6
CONTINUOUS
10
204.1374619999999993
20
-84.7883969999999891
11
204.2326999999999941
21
-84.8360160000000008
0
LINE
8
BLACK
6
CONTINUOUS
10
204.2326999999999941
20
-84.8360160000000008
11
204.2389989999999784
21
-84.8399799999999971
0
LINE
8
BLACK
6
CONTINUOUS
10
204.2389989999999784
20
-84.8399799999999971
11
204.2408269999999959
21
-84.8407380000000018
0
LINE
8
BLACK
6
CONTINUOUS
10
204.2408269999999959
20
-84.8407380000000018
11
204.2428829999999778
21
-84.8424260000000032
0
LINE
8
BLACK
6
CONTINUOUS
10
204.2428829999999778
20
-84.8424260000000032
11
204.2451429999999846
21
-84.8438479999999942
0
LINE
8
BLACK
6
CONTINUOUS
10
204.2451429999999846
20
-84.8438479999999942
11
204.2464420000000018
21
-84.8453459999999922
0
LINE
8
BLACK
6
CONTINUOUS
10
204.2464420000000018
20
-84.8453459999999922
11
204.2521919999999795
21
-84.8500650000000007
0
LINE
8
BLACK
6
CONTINUOUS
10
204.2521919999999795
20
-84.8500650000000007
11
204.299810999999977
21
-84.8976839999999982
0
LINE
8
BLACK
6
CONTINUOUS
10
204.299810999999977
20
-84.8976839999999982
11
204.3045290000000023
21
-84.9034329999999926
0
LINE
8
BLACK
6
CONTINUOUS
10
204.3045290000000023
20
-84.9034329999999926
11
204.3060279999999977
21
-84.9047329999999931
0
LINE
8
BLACK
6
CONTINUOUS
10
204.3060279999999977
20
-84.9047329999999931
11
204.3074489999999912
21
-84.9069920000000025
0
LINE
8
BLACK
6
CONTINUOUS
10
204.3074489999999912
20
-84.9069920000000025
11
204.3091379999999901
21
-84.909048999999996
0
LINE
8
BLACK
6
CONTINUOUS
10
204.3091379999999901
20
-84.909048999999996
11
204.3098949999999832
21
-84.9108760000000018
0
LINE
8
BLACK
6
CONTINUOUS
10
204.3098949999999832
20
-84.9108760000000018
11
204.3138599999999769
21
-84.9171759999999978
0
LINE
8
BLACK
6
CONTINUOUS
10
204.3138599999999769
20
-84.9171759999999978
11
204.3614790000000028
21
-85.0124139999999926
0
LINE
8
BLACK
6
CONTINUOUS
10
204.3614790000000028
20
-85.0124139999999926
11
204.3667339999999797
21
-85.0261449999999996
0
LINE
8
BLACK
6
CONTINUOUS
10
204.3667339999999797
20
-85.0261449999999996
11
204.3669249999999806
21
-85.0288339999999891
0
LINE
8
BLACK
6
CONTINUOUS
10
204.3669249999999806
20
-85.0288339999999891
11
204.3679559999999924
21
-85.0313230000000004
0
LINE
8
BLACK
6
CONTINUOUS
10
204.3679559999999924
20
-85.0313230000000004
11
204.3693969999999922
21
-85.0459549999999922
0
LINE
8
BLACK
6
CONTINUOUS
10
204.3693969999999922
20
-85.0459549999999922
11
204.3693969999999922
21
-85.1888119999999986
0
LINE
8
BLACK
6
CONTINUOUS
10
204.3693969999999922
20
-85.1888119999999986
11
204.3679559999999924
21
-85.2034439999999904
0
LINE
8
BLACK
6
CONTINUOUS
10
204.3679559999999924
20
-85.2034439999999904
11
204.3669249999999806
21
-85.20593199999999
0
LINE
8
BLACK
6
CONTINUOUS
10
204.3669249999999806
20
-85.20593199999999
11
204.3667339999999797
21
-85.2086219999999912
0
LINE
8
BLACK
6
CONTINUOUS
10
204.3667339999999797
20
-85.2086219999999912
11
204.3614790000000028
21
-85.2223529999999982
0
LINE
8
BLACK
6
CONTINUOUS
10
204.3614790000000028
20
-85.2223529999999982
11
204.3138599999999769
21
-85.3175909999999931
0
LINE
8
BLACK
6
CONTINUOUS
10
204.3138599999999769
20
-85.3175909999999931
11
204.3098949999999832
21
-85.3238899999999916
0
LINE
8
BLACK
6
CONTINUOUS
10
204.3098949999999832
20
-85.3238899999999916
11
204.3091379999999901
21
-85.3257179999999948
0
LINE
8
BLACK
6
CONTINUOUS
10
204.3091379999999901
20
-85.3257179999999948
11
204.3074489999999912
21
-85.3277739999999909
0
LINE
8
BLACK
6
CONTINUOUS
10
204.3074489999999912
20
-85.3277739999999909
11
204.3060279999999977
21
-85.3300339999999977
0
LINE
8
BLACK
6
CONTINUOUS
10
204.3060279999999977
20
-85.3300339999999977
11
204.3045290000000023
21
-85.3313330000000008
0
LINE
8
BLACK
6
CONTINUOUS
10
204.3045290000000023
20
-85.3313330000000008
11
204.299810999999977
21
-85.3370829999999927
0
LINE
8
BLACK
6
CONTINUOUS
10
204.299810999999977
20
-85.3370829999999927
11
204.2521919999999795
21
-85.3847019999999901
0
LINE
8
BLACK
6
CONTINUOUS
10
204.2521919999999795
20
-85.3847019999999901
11
204.2464420000000018
21
-85.3894200000000012
0
LINE
8
BLACK
6
CONTINUOUS
10
204.2464420000000018
20
-85.3894200000000012
11
204.2451429999999846
21
-85.3909189999999967
0
LINE
8
BLACK
6
CONTINUOUS
10
204.2451429999999846
20
-85.3909189999999967
11
204.2428829999999778
21
-85.3923399999999901
0
LINE
8
BLACK
6
CONTINUOUS
10
204.2428829999999778
20
-85.3923399999999901
11
204.2408269999999959
21
-85.3940289999999891
0
LINE
8
BLACK
6
CONTINUOUS
10
204.2408269999999959
20
-85.3940289999999891
11
204.2389989999999784
21
-85.3947859999999963
0
LINE
8
BLACK
6
CONTINUOUS
10
204.2389989999999784
20
-85.3947859999999963
11
204.2326999999999941
21
-85.3987509999999901
0
LINE
8
BLACK
6
CONTINUOUS
10
204.2326999999999941
20
-85.3987509999999901
11
204.1374619999999993
21
-85.4463700000000017
0
LINE
8
BLACK
6
CONTINUOUS
10
204.1374619999999993
20
-85.4463700000000017
11
204.1237299999999948
21
-85.4516249999999928
0
LINE
8
BLACK
6
CONTINUOUS
10
204.1237299999999948
20
-85.4516249999999928
11
204.1210419999999885
21
-85.4518149999999963
0
LINE
8
BLACK
6
CONTINUOUS
10
204.1210419999999885
20
-85.4518149999999963
11
204.1185529999999915
21
-85.4528469999999913
0
LINE
8
BLACK
6
CONTINUOUS
10
204.1185529999999915
20
-85.4528469999999913
11
204.1039209999999855
21
-85.4542879999999911
0
LINE
8
BLACK
6
CONTINUOUS
10
204.1039209999999855
20
-85.4542879999999911
11
203.818207000000001
21
-85.4542879999999911
0
LINE
8
BLACK
6
CONTINUOUS
10
203.818207000000001
20
-85.4542879999999911
11
203.803574999999995
21
-85.4528469999999913
0
LINE
8
BLACK
6
CONTINUOUS
10
203.803574999999995
20
-85.4528469999999913
11
203.801085999999998
21
-85.4518159999999938
0
LINE
8
BLACK
6
CONTINUOUS
10
203.801085999999998
20
-85.4518159999999938
11
203.7983969999999943
21
-85.4516249999999928
0
LINE
8
BLACK
6
CONTINUOUS
10
203.7983969999999943
20
-85.4516249999999928
11
203.7846659999999872
21
-85.4463700000000017
0
LINE
8
BLACK
6
CONTINUOUS
10
203.7846659999999872
20
-85.4463700000000017
11
203.6894279999999924
21
-85.3987509999999901
0
LINE
8
BLACK
6
CONTINUOUS
10
203.6894279999999924
20
-85.3987509999999901
11
203.6831279999999822
21
-85.3947859999999963
0
LINE
8
BLACK
6
CONTINUOUS
10
203.6831279999999822
20
-85.3947859999999963
11
203.6813009999999906
21
-85.3940289999999891
0
LINE
8
BLACK
6
CONTINUOUS
10
203.6813009999999906
20
-85.3940289999999891
11
203.6792439999999829
21
-85.3923399999999901
0
LINE
8
BLACK
6
CONTINUOUS
10
203.6792439999999829
20
-85.3923399999999901
11
203.6769850000000019
21
-85.3909189999999967
0
LINE
8
BLACK
6
CONTINUOUS
10
203.6769850000000019
20
-85.3909189999999967
11
203.6756849999999872
21
-85.3894200000000012
0
LINE
8
BLACK
6
CONTINUOUS
10
203.6756849999999872
20
-85.3894200000000012
11
203.6699359999999785
21
-85.3847019999999901
0
LINE
8
BLACK
6
CONTINUOUS
10
203.6699359999999785
20
-85.3847019999999901
11
203.6223169999999811
21
-85.3370829999999927
0
LINE
8
BLACK
6
CONTINUOUS
10
203.6223169999999811
20
-85.3370829999999927
11
203.6175989999999842
21
-85.3313339999999982
0
LINE
8
BLACK
6
CONTINUOUS
10
203.6175989999999842
20
-85.3313339999999982
11
203.6161009999999862
21
-85.3300349999999952
0
LINE
8
BLACK
6
CONTINUOUS
10
203.6161009999999862
20
-85.3300349999999952
11
203.6146779999999978
21
-85.3277750000000026
0
LINE
8
BLACK
6
CONTINUOUS
10
203.6146779999999978
20
-85.3277750000000026
11
203.6129899999999964
21
-85.3257179999999948
0
LINE
8
BLACK
6
CONTINUOUS
10
203.6129899999999964
20
-85.3257179999999948
11
203.6122330000000034
21
-85.3238899999999916
0
LINE
8
BLACK
6
CONTINUOUS
10
203.6122330000000034
20
-85.3238899999999916
11
203.6082679999999812
21
-85.3175919999999905
0
LINE
8
BLACK
6
CONTINUOUS
10
203.6082679999999812
20
-85.3175919999999905
11
203.5606479999999863
21
-85.2223539999999957
0
LINE
8
BLACK
6
CONTINUOUS
10
203.5606479999999863
20
-85.2223539999999957
11
203.5553929999999809
21
-85.2086219999999912
0
LINE
8
BLACK
6
CONTINUOUS
10
203.5553929999999809
20
-85.2086219999999912
11
203.5552009999999825
21
-85.20593199999999
0
LINE
8
BLACK
6
CONTINUOUS
10
203.5552009999999825
20
-85.20593199999999
11
203.5541709999999966
21
-85.2034439999999904
0
LINE
8
BLACK
6
CONTINUOUS
10
203.5541709999999966
20
-85.2034439999999904
11
203.5527299999999968
21
-85.1888119999999986
0
LINE
8
BLACK
6
CONTINUOUS
10
203.5527299999999968
20
-85.1888119999999986
11
203.5527299999999968
21
-85.0459549999999922
0
LINE
8
BLACK
6
CONTINUOUS
10
203.5527299999999968
20
-85.0459549999999922
11
203.5541709999999966
21
-85.0313230000000004
0
LINE
8
BLACK
6
CONTINUOUS
10
203.5541709999999966
20
-85.0313230000000004
11
203.5552009999999825
21
-85.0288339999999891
0
LINE
8
BLACK
6
CONTINUOUS
10
203.5552009999999825
20
-85.0288339999999891
11
203.5553929999999809
21
-85.0261449999999996
0
LINE
8
BLACK
6
CONTINUOUS
10
203.5553929999999809
20
-85.0261449999999996
11
203.5606479999999863
21
-85.0124129999999951
0
LINE
8
BLACK
6
CONTINUOUS
10
203.5606479999999863
20
-85.0124129999999951
11
203.6082679999999812
21
-84.9171750000000003
0
LINE
8
BLACK
6
CONTINUOUS
10
203.6082679999999812
20
-84.9171750000000003
11
203.6122330000000034
21
-84.9108760000000018
0
LINE
8
BLACK
6
CONTINUOUS
10
203.6122330000000034
20
-84.9108760000000018
11
203.6129899999999964
21
-84.909048999999996
0
LINE
8
BLACK
6
CONTINUOUS
10
203.6129899999999964
20
-84.909048999999996
11
203.6146779999999978
21
-84.9069909999999908
0
LINE
8
BLACK
6
CONTINUOUS
10
203.6146779999999978
20
-84.9069909999999908
11
203.6161009999999862
21
-84.9047319999999957
0
LINE
8
BLACK
6
CONTINUOUS
10
203.6161009999999862
20
-84.9047319999999957
11
203.6175989999999842
21
-84.9034319999999951
0
LINE
8
BLACK
6
CONTINUOUS
10
203.6175989999999842
20
-84.9034319999999951
11
203.6223169999999811
21
-84.8976839999999982
0
LINE
8
BLACK
6
CONTINUOUS
10
203.6223169999999811
20
-84.8976839999999982
11
203.6699359999999785
21
-84.8500650000000007
0
LINE
8
BLACK
6
CONTINUOUS
10
203.6699359999999785
20
-84.8500650000000007
11
203.6756849999999872
21
-84.8453459999999922
0
LINE
8
BLACK
6
CONTINUOUS
10
203.6756849999999872
20
-84.8453459999999922
11
203.6769850000000019
21
-84.8438479999999942
0
LINE
8
BLACK
6
CONTINUOUS
10
203.6769850000000019
20
-84.8438479999999942
11
203.6792439999999829
21
-84.8424260000000032
0
LINE
8
BLACK
6
CONTINUOUS
10
203.6792439999999829
20
-84.8424260000000032
11
203.6813009999999906
21
-84.8407380000000018
0
LINE
8
BLACK
6
CONTINUOUS
10
203.6813009999999906
20
-84.8407380000000018
11
203.6831279999999822
21
-84.8399799999999971
0
LINE
8
BLACK
6
CONTINUOUS
10
203.6831279999999822
20
-84.8399799999999971
11
203.6894279999999924
21
-84.8360160000000008
0
LINE
8
BLACK
6
CONTINUOUS
10
203.6894279999999924
20
-84.8360160000000008
11
203.7846659999999872
21
-84.7883969999999891
0
LINE
8
BLACK
6
CONTINUOUS
10
203.7846659999999872
20
-84.7883969999999891
11
203.7983969999999943
21
-84.783141999999998
0
LINE
8
BLACK
6
CONTINUOUS
10
203.7983969999999943
20
-84.783141999999998
11
203.801085999999998
21
-84.7829499999999996
0
LINE
8
BLACK
6
CONTINUOUS
10
203.801085999999998
20
-84.7829499999999996
11
203.803574999999995
21
-84.7819199999999995
0
LINE
8
BLACK
6
CONTINUOUS
10
203.803574999999995
20
-84.7819199999999995
11
203.818207000000001
21
-84.7804789999999997
0
LINE
8
BLACK
6
CONTINUOUS
10
203.818207000000001
20
-84.7804789999999997
11
204.1039209999999855
21
-84.7804789999999997
0
LINE
8
BLACK
6
CONTINUOUS
10
204.1039209999999855
20
-84.7804789999999997
11
204.1185529999999915
21
-84.7819199999999995
0
LINE
8
BLACK
6
CONTINUOUS
10
203.7673959999999909
20
-84.9647369999999995
11
203.7369879999999966
21
-84.9951439999999963
0
LINE
8
BLACK
6
CONTINUOUS
10
203.7369879999999966
20
-84.9951439999999963
11
203.7027300000000025
21
-85.0636609999999962
0
LINE
8
BLACK
6
CONTINUOUS
10
203.7027300000000025
20
-85.0636609999999962
11
203.7027300000000025
21
-85.1711049999999972
0
LINE
8
BLACK
6
CONTINUOUS
10
203.7027300000000025
20
-85.1711049999999972
11
203.7369879999999966
21
-85.2396219999999971
0
LINE
8
BLACK
6
CONTINUOUS
10
203.7369879999999966
20
-85.2396219999999971
11
203.7673959999999909
21
-85.2700299999999913
0
LINE
8
BLACK
6
CONTINUOUS
10
203.7673959999999909
20
-85.2700299999999913
11
203.8359119999999791
21
-85.3042879999999997
0
LINE
8
BLACK
6
CONTINUOUS
10
203.8359119999999791
20
-85.3042879999999997
11
204.086215999999979
21
-85.3042879999999997
0
LINE
8
BLACK
6
CONTINUOUS
10
204.086215999999979
20
-85.3042879999999997
11
204.1547319999999957
21
-85.2700299999999913
0
LINE
8
BLACK
6
CONTINUOUS
10
204.1547319999999957
20
-85.2700299999999913
11
204.1851389999999924
21
-85.2396229999999946
0
LINE
8
BLACK
6
CONTINUOUS
10
204.1851389999999924
20
-85.2396229999999946
11
204.2193969999999865
21
-85.1711069999999921
0
LINE
8
BLACK
6
CONTINUOUS
10
204.2193969999999865
20
-85.1711069999999921
11
204.2193969999999865
21
-85.0636599999999987
0
LINE
8
BLACK
6
CONTINUOUS
10
204.2193969999999865
20
-85.0636599999999987
11
204.1851389999999924
21
-84.9951439999999963
0
LINE
8
BLACK
6
CONTINUOUS
10
204.1851389999999924
20
-84.9951439999999963
11
204.1547319999999957
21
-84.9647369999999995
0
LINE
8
BLACK
6
CONTINUOUS
10
204.1547319999999957
20
-84.9647369999999995
11
204.086215999999979
21
-84.9304789999999912
0
LINE
8
BLACK
6
CONTINUOUS
10
204.086215999999979
20
-84.9304789999999912
11
203.8359119999999791
21
-84.9304789999999912
0
LINE
8
BLACK
6
CONTINUOUS
10
203.8359119999999791
20
-84.9304789999999912
11
203.7673959999999909
21
-84.9647369999999995
0
LINE
8
BLACK
6
CONTINUOUS
10
204.3360649999999907
20
-84.1264520000000005
11
204.3567569999999876
21
-84.1471439999999973
0
LINE
8
BLACK
6
CONTINUOUS
10
204.3567569999999876
20
-84.1471439999999973
11
204.3679559999999924
21
-84.1741799999999927
0
LINE
8
BLACK
6
CONTINUOUS
10
204.3679559999999924
20
-84.1741799999999927
11
204.3693969999999922
21
-84.1888119999999986
0
LINE
8
BLACK
6
CONTINUOUS
10
204.3693969999999922
20
-84.1888119999999986
11
204.3693969999999922
21
-84.2566690000000023
0
LINE
8
BLACK
6
CONTINUOUS
10
204.3693969999999922
20
-84.2566690000000023
11
204.6277299999999855
21
-84.2566690000000023
0
LINE
8
BLACK
6
CONTINUOUS
10
204.6277299999999855
20
-84.2566690000000023
11
204.6423619999999914
21
-84.2581100000000021
0
LINE
8
BLACK
6
CONTINUOUS
10
204.6423619999999914
20
-84.2581100000000021
11
204.669398000000001
21
-84.2693089999999927
0
LINE
8
BLACK
6
CONTINUOUS
10
204.669398000000001
20
-84.2693089999999927
11
204.6900899999999979
21
-84.2900009999999895
0
LINE
8
BLACK
6
CONTINUOUS
10
204.6900899999999979
20
-84.2900009999999895
11
204.7012890000000027
21
-84.3170369999999991
0
LINE
8
BLACK
6
CONTINUOUS
10
204.7012890000000027
20
-84.3170369999999991
11
204.7012890000000027
21
-84.3463009999999969
0
LINE
8
BLACK
6
CONTINUOUS
10
204.7012890000000027
20
-84.3463009999999969
11
204.6900899999999979
21
-84.3733369999999923
0
LINE
8
BLACK
6
CONTINUOUS
10
204.6900899999999979
20
-84.3733369999999923
11
204.669398000000001
21
-84.3940289999999891
0
LINE
8
BLACK
6
CONTINUOUS
10
204.669398000000001
20
-84.3940289999999891
11
204.6423619999999914
21
-84.4052279999999939
0
LINE
8
BLACK
6
CONTINUOUS
10
204.6423619999999914
20
-84.4052279999999939
11
204.6277299999999855
21
-84.4066689999999937
0
LINE
8
BLACK
6
CONTINUOUS
10
204.6277299999999855
20
-84.4066689999999937
11
204.3693969999999922
21
-84.4066689999999937
0
LINE
8
BLACK
6
CONTINUOUS
10
204.3693969999999922
20
-84.4066689999999937
11
204.3693969999999922
21
-84.5697639999999922
0
LINE
8
BLACK
6
CONTINUOUS
10
204.3693969999999922
20
-84.5697639999999922
11
204.3679559999999924
21
-84.5843959999999981
0
LINE
8
BLACK
6
CONTINUOUS
10
204.3679559999999924
20
-84.5843959999999981
11
204.3567569999999876
21
-84.6114319999999935
0
LINE
8
BLACK
6
CONTINUOUS
10
204.3567569999999876
20
-84.6114319999999935
11
204.3360649999999907
21
-84.6321239999999904
0
LINE
8
BLACK
6
CONTINUOUS
10
204.3360649999999907
20
-84.6321239999999904
11
204.3090289999999811
21
-84.6433229999999952
0
LINE
8
BLACK
6
CONTINUOUS
10
204.3090289999999811
20
-84.6433229999999952
11
204.2797649999999976
21
-84.6433229999999952
0
LINE
8
BLACK
6
CONTINUOUS
10
204.2797649999999976
20
-84.6433229999999952
11
204.252728999999988
21
-84.6321239999999904
0
LINE
8
BLACK
6
CONTINUOUS
10
204.252728999999988
20
-84.6321239999999904
11
204.2320369999999912
21
-84.6114319999999935
0
LINE
8
BLACK
6
CONTINUOUS
10
204.2320369999999912
20
-84.6114319999999935
11
204.2208379999999863
21
-84.5843959999999981
0
LINE
8
BLACK
6
CONTINUOUS
10
204.2208379999999863
20
-84.5843959999999981
11
204.2193969999999865
21
-84.5697639999999922
0
LINE
8
BLACK
6
CONTINUOUS
10
204.2193969999999865
20
-84.5697639999999922
11
204.2193969999999865
21
-84.4066689999999937
0
LINE
8
BLACK
6
CONTINUOUS
10
204.2193969999999865
20
-84.4066689999999937
11
203.7882929999999817
21
-84.4066689999999937
0
LINE
8
BLACK
6
CONTINUOUS
10
203.7882929999999817
20
-84.4066689999999937
11
203.7312509999999861
21
-84.4351889999999941
0
LINE
8
BLACK
6
CONTINUOUS
10
203.7312509999999861
20
-84.4351889999999941
11
203.7027300000000025
21
-84.4922320000000013
0
LINE
8
BLACK
6
CONTINUOUS
10
203.7027300000000025
20
-84.4922320000000013
11
203.7027300000000025
21
-84.5697639999999922
0
LINE
8
BLACK
6
CONTINUOUS
10
203.7027300000000025
20
-84.5697639999999922
11
203.7012890000000027
21
-84.5843959999999981
0
LINE
8
BLACK
6
CONTINUOUS
10
203.7012890000000027
20
-84.5843959999999981
11
203.6900899999999979
21
-84.6114319999999935
0
LINE
8
BLACK
6
CONTINUOUS
10
203.6900899999999979
20
-84.6114319999999935
11
203.669398000000001
21
-84.6321239999999904
0
LINE
8
BLACK
6
CONTINUOUS
10
203.669398000000001
20
-84.6321239999999904
11
203.6423619999999914
21
-84.6433229999999952
0
LINE
8
BLACK
6
CONTINUOUS
10
203.6423619999999914
20
-84.6433229999999952
11
203.6130979999999795
21
-84.6433229999999952
0
LINE
8
BLACK
6
CONTINUOUS
10
203.6130979999999795
20
-84.6433229999999952
11
203.5860619999999983
21
-84.6321239999999904
0
LINE
8
BLACK
6
CONTINUOUS
10
203.5860619999999983
20
-84.6321239999999904
11
203.5653700000000015
21
-84.6114319999999935
0
LINE
8
BLACK
6
CONTINUOUS
10
203.5653700000000015
20
-84.6114319999999935
11
203.5541709999999966
21
-84.5843959999999981
0
LINE
8
BLACK
6
CONTINUOUS
10
203.5541709999999966
20
-84.5843959999999981
11
203.5527299999999968
21
-84.5697639999999922
0
LINE
8
BLACK
6
CONTINUOUS
10
203.5527299999999968
20
-84.5697639999999922
11
203.5527299999999968
21
-84.4745259999999973
0
LINE
8
BLACK
6
CONTINUOUS
10
203.5527299999999968
20
-84.4745259999999973
11
203.5541709999999966
21
-84.4598939999999914
0
LINE
8
BLACK
6
CONTINUOUS
10
203.5541709999999966
20
-84.4598939999999914
11
203.5552009999999825
21
-84.4574049999999943
0
LINE
8
BLACK
6
CONTINUOUS
10
203.5552009999999825
20
-84.4574049999999943
11
203.5553929999999809
21
-84.4547159999999906
0
LINE
8
BLACK
6
CONTINUOUS
10
203.5553929999999809
20
-84.4547159999999906
11
203.5606479999999863
21
-84.4409840000000003
0
LINE
8
BLACK
6
CONTINUOUS
10
203.5606479999999863
20
-84.4409840000000003
11
203.6082679999999812
21
-84.3457459999999912
0
LINE
8
BLACK
6
CONTINUOUS
10
203.6082679999999812
20
-84.3457459999999912
11
203.6098079999999868
21
-84.3432979999999901
0
LINE
8
BLACK
6
CONTINUOUS
10
203.6098079999999868
20
-84.3432979999999901
11
203.6101929999999811
21
-84.3421459999999996
0
LINE
8
BLACK
6
CONTINUOUS
10
203.6101929999999811
20
-84.3421459999999996
11
203.6114369999999951
21
-84.3407100000000014
0
LINE
8
BLACK
6
CONTINUOUS
10
203.6114369999999951
20
-84.3407100000000014
11
203.6161009999999862
21
-84.3333030000000008
0
LINE
8
BLACK
6
CONTINUOUS
10
203.6161009999999862
20
-84.3333030000000008
11
203.6232049999999845
21
-84.3271419999999949
0
LINE
8
BLACK
6
CONTINUOUS
10
203.6232049999999845
20
-84.3271419999999949
11
203.6293660000000045
21
-84.3200379999999967
0
LINE
8
BLACK
6
CONTINUOUS
10
203.6293660000000045
20
-84.3200379999999967
11
203.6367709999999818
21
-84.315376999999998
0
LINE
8
BLACK
6
CONTINUOUS
10
203.6367709999999818
20
-84.315376999999998
11
203.6382089999999891
21
-84.3141299999999916
0
LINE
8
BLACK
6
CONTINUOUS
10
203.6382089999999891
20
-84.3141299999999916
11
203.639363000000003
21
-84.3137449999999973
0
LINE
8
BLACK
6
CONTINUOUS
10
203.639363000000003
20
-84.3137449999999973
11
203.641808999999995
21
-84.3122059999999891
0
LINE
8
BLACK
6
CONTINUOUS
10
203.641808999999995
20
-84.3122059999999891
11
203.7370469999999898
21
-84.2645869999999917
0
LINE
8
BLACK
6
CONTINUOUS
10
203.7370469999999898
20
-84.2645869999999917
11
203.7507779999999968
21
-84.2593320000000006
0
LINE
8
BLACK
6
CONTINUOUS
10
203.7507779999999968
20
-84.2593320000000006
11
203.7534670000000006
21
-84.2591400000000021
0
LINE
8
BLACK
6
CONTINUOUS
10
203.7534670000000006
20
-84.2591400000000021
11
203.7559559999999976
21
-84.2581100000000021
0
LINE
8
BLACK
6
CONTINUOUS
10
203.7559559999999976
20
-84.2581100000000021
11
203.7705880000000036
21
-84.2566690000000023
0
LINE
8
BLACK
6
CONTINUOUS
10
203.7705880000000036
20
-84.2566690000000023
11
204.2193969999999865
21
-84.2566690000000023
0
LINE
8
BLACK
6
CONTINUOUS
10
204.2193969999999865
20
-84.2566690000000023
11
204.2193969999999865
21
-84.1888119999999986
0
LINE
8
BLACK
6
CONTINUOUS
10
204.2193969999999865
20
-84.1888119999999986
11
204.2208379999999863
21
-84.1741799999999927
0
LINE
8
BLACK
6
CONTINUOUS
10
204.2208379999999863
20
-84.1741799999999927
11
204.2320369999999912
21
-84.1471439999999973
0
LINE
8
BLACK
6
CONTINUOUS
10
204.2320369999999912
20
-84.1471439999999973
11
204.252728999999988
21
-84.1264520000000005
0
LINE
8
BLACK
6
CONTINUOUS
10
204.252728999999988
20
-84.1264520000000005
11
204.2797649999999976
21
-84.1152529999999956
0
LINE
8
BLACK
6
CONTINUOUS
10
204.2797649999999976
20
-84.1152529999999956
11
204.3090289999999811
21
-84.1152529999999956
0
LINE
8
BLACK
6
CONTINUOUS
10
204.3090289999999811
20
-84.1152529999999956
11
204.3360649999999907
21
-84.1264520000000005
0
LINE
8
BLACK
6
CONTINUOUS
10
202.8567669999999907
20
-80.6806909999999959
11
202.8687280000000044
21
-80.6961029999999937
0
LINE
8
BLACK
6
CONTINUOUS
10
202.8687280000000044
20
-80.6961029999999937
11
202.9127189999999814
21
-80.7840849999999904
0
LINE
8
BLACK
6
CONTINUOUS
10
202.9127189999999814
20
-80.7840849999999904
11
202.9987150000000042
21
-80.870080999999999
0
LINE
8
BLACK
6
CONTINUOUS
10
202.9987150000000042
20
-80.870080999999999
11
203.137455999999986
21
-80.9625759999999985
0
LINE
8
BLACK
6
CONTINUOUS
10
203.137455999999986
20
-80.9625759999999985
11
203.1512649999999951
21
-80.9763559999999956
0
LINE
8
BLACK
6
CONTINUOUS
10
203.1512649999999951
20
-80.9763559999999956
11
203.1522739999999771
21
-80.9814030000000002
0
LINE
8
BLACK
6
CONTINUOUS
10
203.1522739999999771
20
-80.9814030000000002
11
203.1559149999999931
21
-80.985044000000002
0
LINE
8
BLACK
6
CONTINUOUS
10
203.1559149999999931
20
-80.985044000000002
11
203.1559149999999931
21
-80.9996029999999934
0
LINE
8
BLACK
6
CONTINUOUS
10
203.1559149999999931
20
-80.9996029999999934
11
203.1587710000000015
21
-81.0138819999999953
0
LINE
8
BLACK
6
CONTINUOUS
10
203.1587710000000015
20
-81.0138819999999953
11
203.1559149999999931
21
-81.0181649999999962
0
LINE
8
BLACK
6
CONTINUOUS
10
203.1559149999999931
20
-81.0181649999999962
11
203.1559149999999931
21
-81.02331199999999
0
LINE
8
BLACK
6
CONTINUOUS
10
203.1559149999999931
20
-81.02331199999999
11
203.1456199999999797
21
-81.0336059999999918
0
LINE
8
BLACK
6
CONTINUOUS
10
203.1456199999999797
20
-81.0336059999999918
11
203.1375429999999938
21
-81.0457219999999978
0
LINE
8
BLACK
6
CONTINUOUS
10
203.1375429999999938
20
-81.0457219999999978
11
203.1324949999999774
21
-81.0467309999999941
0
LINE
8
BLACK
6
CONTINUOUS
10
203.1324949999999774
20
-81.0467309999999941
11
203.1288549999999873
21
-81.0503719999999959
0
LINE
8
BLACK
6
CONTINUOUS
10
203.1288549999999873
20
-81.0503719999999959
11
203.1097209999999791
21
-81.0541779999999932
0
LINE
8
BLACK
6
CONTINUOUS
10
203.1097209999999791
20
-81.0541779999999932
11
202.1597209999999905
21
-81.0541779999999932
0
LINE
8
BLACK
6
CONTINUOUS
10
202.1597209999999905
20
-81.0541779999999932
11
202.1597209999999905
21
-81.2898919999999947
0
LINE
8
BLACK
6
CONTINUOUS
10
202.1597209999999905
20
-81.2898919999999947
11
202.1559149999999931
21
-81.3090260000000029
0
LINE
8
BLACK
6
CONTINUOUS
10
202.1559149999999931
20
-81.3090260000000029
11
202.1288549999999873
21
-81.3360859999999946
0
LINE
8
BLACK
6
CONTINUOUS
10
202.1288549999999873
20
-81.3360859999999946
11
202.0905869999999993
21
-81.3360859999999946
0
LINE
8
BLACK
6
CONTINUOUS
10
202.0905869999999993
20
-81.3360859999999946
11
202.0635269999999934
21
-81.3090260000000029
0
LINE
8
BLACK
6
CONTINUOUS
10
202.0635269999999934
20
-81.3090260000000029
11
202.0597209999999961
21
-81.2898919999999947
0
LINE
8
BLACK
6
CONTINUOUS
10
202.0597209999999961
20
-81.2898919999999947
11
202.0597209999999961
21
-80.7184639999999973
0
LINE
8
BLACK
6
CONTINUOUS
10
202.0597209999999961
20
-80.7184639999999973
11
202.0635269999999934
21
-80.6993300000000033
0
LINE
8
BLACK
6
CONTINUOUS
10
202.0635269999999934
20
-80.6993300000000033
11
202.0905869999999993
21
-80.6722699999999975
0
LINE
8
BLACK
6
CONTINUOUS
10
202.0905869999999993
20
-80.6722699999999975
11
202.1288549999999873
21
-80.6722699999999975
0
LINE
8
BLACK
6
CONTINUOUS
10
202.1288549999999873
20
-80.6722699999999975
11
202.1559149999999931
21
-80.6993300000000033
0
LINE
8
BLACK
6
CONTINUOUS
10
202.1559149999999931
20
-80.6993300000000033
11
202.1597209999999905
21
-80.7184639999999973
0
LINE
8
BLACK
6
CONTINUOUS
10
202.1597209999999905
20
-80.7184639999999973
11
202.1597209999999905
21
-80.9541779999999989
0
LINE
8
BLACK
6
CONTINUOUS
10
202.1597209999999905
20
-80.9541779999999989
11
202.9445819999999969
21
-80.9541779999999989
0
LINE
8
BLACK
6
CONTINUOUS
10
202.9445819999999969
20
-80.9541779999999989
11
202.9391289999999799
21
-80.9505429999999961
0
LINE
8
BLACK
6
CONTINUOUS
10
202.9391289999999799
20
-80.9505429999999961
11
202.9356219999999951
21
-80.9470429999999936
0
LINE
8
BLACK
6
CONTINUOUS
10
202.9356219999999951
20
-80.9470429999999936
11
202.931508999999977
21
-80.9442949999999968
0
LINE
8
BLACK
6
CONTINUOUS
10
202.931508999999977
20
-80.9442949999999968
11
202.8362709999999822
21
-80.8490570000000019
0
LINE
8
BLACK
6
CONTINUOUS
10
202.8362709999999822
20
-80.8490570000000019
11
202.8318189999999959
21
-80.8423949999999962
0
LINE
8
BLACK
6
CONTINUOUS
10
202.8318189999999959
20
-80.8423949999999962
11
202.8269039999999848
21
-80.8360619999999983
0
LINE
8
BLACK
6
CONTINUOUS
10
202.8269039999999848
20
-80.8360619999999983
11
202.7792859999999848
21
-80.740825000000001
0
LINE
8
BLACK
6
CONTINUOUS
10
202.7792859999999848
20
-80.740825000000001
11
202.7741329999999778
21
-80.7220089999999999
0
LINE
8
BLACK
6
CONTINUOUS
10
202.7741329999999778
20
-80.7220089999999999
11
202.786233999999979
21
-80.6857040000000012
0
LINE
8
BLACK
6
CONTINUOUS
10
202.786233999999979
20
-80.6857040000000012
11
202.820461999999992
21
-80.6685899999999947
0
LINE
8
BLACK
6
CONTINUOUS
10
202.820461999999992
20
-80.6685899999999947
11
202.8567669999999907
21
-80.6806909999999959
0
LINE
8
BLACK
6
CONTINUOUS
10
206.4970589999999788
20
-77.5548799999999972
11
206.5331070000000011
21
-77.5698119999999989
0
LINE
8
BLACK
6
CONTINUOUS
10
206.5331070000000011
20
-77.5698119999999989
11
206.5606970000000047
21
-77.5974020000000024
0
LINE
8
BLACK
6
CONTINUOUS
10
206.5606970000000047
20
-77.5974020000000024
11
206.5756289999999922
21
-77.6334499999999963
0
LINE
8
BLACK
6
CONTINUOUS
10
206.5756289999999922
20
-77.6334499999999963
11
206.5775500000000022
21
-77.6529589999999956
0
LINE
8
BLACK
6
CONTINUOUS
10
206.5775500000000022
20
-77.6529589999999956
11
206.5775500000000022
21
-82.0484099999999899
0
LINE
8
BLACK
6
CONTINUOUS
10
206.5775500000000022
20
-82.0484099999999899
11
206.9415989999999965
21
-82.0484099999999899
0
LINE
8
BLACK
6
CONTINUOUS
10
206.9415989999999965
20
-82.0484099999999899
11
206.9663749999999993
21
-82.050849999999997
0
LINE
8
BLACK
6
CONTINUOUS
10
206.9663749999999993
20
-82.050849999999997
11
207.0121560000000045
21
-82.0698129999999964
0
LINE
8
BLACK
6
CONTINUOUS
10
207.0121560000000045
20
-82.0698129999999964
11
207.0471959999999854
21
-82.1048529999999914
0
LINE
8
BLACK
6
CONTINUOUS
10
207.0471959999999854
20
-82.1048529999999914
11
207.066158999999999
21
-82.1506339999999966
0
LINE
8
BLACK
6
CONTINUOUS
10
207.066158999999999
20
-82.1506339999999966
11
207.0685989999999777
21
-82.1754099999999994
0
LINE
8
BLACK
6
CONTINUOUS
10
207.0685989999999777
20
-82.1754099999999994
11
207.0685989999999777
21
-82.2253999999999934
0
LINE
8
BLACK
6
CONTINUOUS
10
207.0685989999999777
20
-82.2253999999999934
11
207.0685989999999777
21
-91.1753899999999931
0
LINE
8
BLACK
6
CONTINUOUS
10
207.0685989999999777
20
-91.1753899999999931
11
207.066158999999999
21
-91.2001659999999958
0
LINE
8
BLACK
6
CONTINUOUS
10
207.066158999999999
20
-91.2001659999999958
11
207.0471959999999854
21
-91.245947000000001
0
LINE
8
BLACK
6
CONTINUOUS
10
207.0471959999999854
20
-91.245947000000001
11
207.0121560000000045
21
-91.2809869999999961
0
LINE
8
BLACK
6
CONTINUOUS
10
207.0121560000000045
20
-91.2809869999999961
11
206.9663749999999993
21
-91.2999499999999955
0
LINE
8
BLACK
6
CONTINUOUS
10
206.9663749999999993
20
-91.2999499999999955
11
206.9415989999999965
21
-91.3023900000000026
0
LINE
8
BLACK
6
CONTINUOUS
10
206.9415989999999965
20
-91.3023900000000026
11
206.5775500000000022
21
-91.3023900000000026
0
LINE
8
BLACK
6
CONTINUOUS
10
206.5775500000000022
20
-91.3023900000000026
11
206.5775500000000022
21
-95.6978599999999915
0
LINE
8
BLACK
6
CONTINUOUS
10
206.5775500000000022
20
-95.6978599999999915
11
206.5756289999999922
21
-95.7173689999999908
0
LINE
8
BLACK
6
CONTINUOUS
10
206.5756289999999922
20
-95.7173689999999908
11
206.5606970000000047
21
-95.7534169999999989
0
LINE
8
BLACK
6
CONTINUOUS
10
206.5606970000000047
20
-95.7534169999999989
11
206.5331070000000011
21
-95.7810070000000024
0
LINE
8
BLACK
6
CONTINUOUS
10
206.5331070000000011
20
-95.7810070000000024
11
206.4970589999999788
21
-95.79593899999999
0
LINE
8
BLACK
6
CONTINUOUS
10
206.4970589999999788
20
-95.79593899999999
11
206.4775499999999795
21
-95.79786
0
LINE
8
BLACK
6
CONTINUOUS
10
206.4775499999999795
20
-95.79786
11
173.1391689999999812
21
-95.79786
0
LINE
8
BLACK
6
CONTINUOUS
10
173.1391689999999812
20
-95.79786
11
173.1196599999999819
21
-95.79593899999999
0
LINE
8
BLACK
6
CONTINUOUS
10
173.1196599999999819
20
-95.79593899999999
11
173.083611999999988
21
-95.7810070000000024
0
LINE
8
BLACK
6
CONTINUOUS
10
173.083611999999988
20
-95.7810070000000024
11
173.0560219999999845
21
-95.7534169999999989
0
LINE
8
BLACK
6
CONTINUOUS
10
173.0560219999999845
20
-95.7534169999999989
11
173.041089999999997
21
-95.7173689999999908
0
LINE
8
BLACK
6
CONTINUOUS
10
173.041089999999997
20
-95.7173689999999908
11
173.0391689999999869
21
-95.6978599999999915
0
LINE
8
BLACK
6
CONTINUOUS
10
173.0391689999999869
20
-95.6978599999999915
11
173.0391689999999869
21
-77.6529589999999956
0
LINE
8
BLACK
6
CONTINUOUS
10
173.0391689999999869
20
-77.6529589999999956
11
173.041089999999997
21
-77.6334499999999963
0
LINE
8
BLACK
6
CONTINUOUS
10
173.041089999999997
20
-77.6334499999999963
11
173.0560219999999845
21
-77.5974020000000024
0
LINE
8
BLACK
6
CONTINUOUS
10
173.0560219999999845
20
-77.5974020000000024
11
173.083611999999988
21
-77.5698119999999989
0
LINE
8
BLACK
6
CONTINUOUS
10
173.083611999999988
20
-77.5698119999999989
11
173.1196599999999819
21
-77.5548799999999972
0
LINE
8
BLACK
6
CONTINUOUS
10
173.1196599999999819
20
-77.5548799999999972
11
173.1391689999999812
21
-77.5529590000000013
0
LINE
8
BLACK
6
CONTINUOUS
10
173.1391689999999812
20
-77.5529590000000013
11
206.4775499999999795
21
-77.5529590000000013
0
LINE
8
BLACK
6
CONTINUOUS
10
206.4775499999999795
20
-77.5529590000000013
11
206.4970589999999788
21
-77.5548799999999972
0
LINE
8
BLACK
6
CONTINUOUS
10
173.239169000000004
20
-77.7529589999999899
11
173.239169000000004
21
-95.5978599999999972
0
LINE
8
BLACK
6
CONTINUOUS
10
173.239169000000004
20
-95.5978599999999972
11
206.3775499999999852
21
-95.5978599999999972
0
LINE
8
BLACK
6
CONTINUOUS
10
206.3775499999999852
20
-95.5978599999999972
11
206.3775499999999852
21
-91.3023900000000026
0
LINE
8
BLACK
6
CONTINUOUS
10
206.3775499999999852
20
-91.3023900000000026
11
200.4416089999999997
21
-91.3023900000000026
0
LINE
8
BLACK
6
CONTINUOUS
10
200.4416089999999997
20
-91.3023900000000026
11
200.4168329999999969
21
-91.2999499999999955
0
LINE
8
BLACK
6
CONTINUOUS
10
200.4168329999999969
20
-91.2999499999999955
11
200.3710519999999917
21
-91.2809869999999961
0
LINE
8
BLACK
6
CONTINUOUS
10
200.3710519999999917
20
-91.2809869999999961
11
200.3360119999999824
21
-91.245947000000001
0
LINE
8
BLACK
6
CONTINUOUS
10
200.3360119999999824
20
-91.245947000000001
11
200.3170489999999972
21
-91.2001659999999958
0
LINE
8
BLACK
6
CONTINUOUS
10
200.3170489999999972
20
-91.2001659999999958
11
200.3146089999999901
21
-91.1753899999999931
0
LINE
8
BLACK
6
CONTINUOUS
10
200.3146089999999901
20
-91.1753899999999931
11
200.3146089999999901
21
-90.4165899999999993
0
LINE
8
BLACK
6
CONTINUOUS
10
200.3146089999999901
20
-90.4165899999999993
11
200.3170489999999972
21
-90.3918139999999966
0
LINE
8
BLACK
6
CONTINUOUS
10
200.3170489999999972
20
-90.3918139999999966
11
200.3360119999999824
21
-90.3460329999999914
0
LINE
8
BLACK
6
CONTINUOUS
10
200.3360119999999824
20
-90.3460329999999914
11
200.3710519999999917
21
-90.3109929999999963
0
LINE
8
BLACK
6
CONTINUOUS
10
200.3710519999999917
20
-90.3109929999999963
11
200.4168329999999969
21
-90.2920299999999969
0
LINE
8
BLACK
6
CONTINUOUS
10
200.4168329999999969
20
-90.2920299999999969
11
200.4663850000000025
21
-90.2920299999999969
0
LINE
8
BLACK
6
CONTINUOUS
10
200.4663850000000025
20
-90.2920299999999969
11
200.5121659999999792
21
-90.3109929999999963
0
LINE
8
BLACK
6
CONTINUOUS
10
200.5121659999999792
20
-90.3109929999999963
11
200.5472059999999885
21
-90.3460329999999914
0
LINE
8
BLACK
6
CONTINUOUS
10
200.5472059999999885
20
-90.3460329999999914
11
200.5661690000000021
21
-90.3918139999999966
0
LINE
8
BLACK
6
CONTINUOUS
10
200.5661690000000021
20
-90.3918139999999966
11
200.5686089999999808
21
-90.4165899999999993
0
LINE
8
BLACK
6
CONTINUOUS
10
200.5686089999999808
20
-90.4165899999999993
11
200.5686089999999808
21
-91.0483899999999977
0
LINE
8
BLACK
6
CONTINUOUS
10
200.5686089999999808
20
-91.0483899999999977
11
206.3775499999999852
21
-91.0483899999999977
0
LINE
8
BLACK
6
CONTINUOUS
10
206.3775499999999852
20
-91.0483899999999977
11
206.3775499999999852
21
-82.3024099999999947
0
LINE
8
BLACK
6
CONTINUOUS
10
206.3775499999999852
20
-82.3024099999999947
11
200.5686089999999808
21
-82.3024099999999947
0
LINE
8
BLACK
6
CONTINUOUS
10
200.5686089999999808
20
-82.3024099999999947
11
200.5686089999999808
21
-82.87988
0
LINE
8
BLACK
6
CONTINUOUS
10
200.5686089999999808
20
-82.87988
11
200.5686089999999808
21
-82.9343399999999917
0
LINE
8
BLACK
6
CONTINUOUS
10
200.5686089999999808
20
-82.9343399999999917
11
200.5661690000000021
21
-82.9591159999999945
0
LINE
8
BLACK
6
CONTINUOUS
10
200.5661690000000021
20
-82.9591159999999945
11
200.5472059999999885
21
-83.0048969999999997
0
LINE
8
BLACK
6
CONTINUOUS
10
200.5472059999999885
20
-83.0048969999999997
11
200.5121659999999792
21
-83.0399369999999948
0
LINE
8
BLACK
6
CONTINUOUS
10
200.5121659999999792
20
-83.0399369999999948
11
200.4663850000000025
21
-83.0588999999999942
0
LINE
8
BLACK
6
CONTINUOUS
10
200.4663850000000025
20
-83.0588999999999942
11
200.4168329999999969
21
-83.0588999999999942
0
LINE
8
BLACK
6
CONTINUOUS
10
200.4168329999999969
20
-83.0588999999999942
11
200.3710519999999917
21
-83.0399369999999948
0
LINE
8
BLACK
6
CONTINUOUS
10
200.3710519999999917
20
-83.0399369999999948
11
200.3360119999999824
21
-83.0048969999999997
0
LINE
8
BLACK
6
CONTINUOUS
10
200.3360119999999824
20
-83.0048969999999997
11
200.3170489999999972
21
-82.9591159999999945
0
LINE
8
BLACK
6
CONTINUOUS
10
200.3170489999999972
20
-82.9591159999999945
11
200.3146089999999901
21
-82.9343399999999917
0
LINE
8
BLACK
6
CONTINUOUS
10
200.3146089999999901
20
-82.9343399999999917
11
200.3146089999999901
21
-82.87988
0
LINE
8
BLACK
6
CONTINUOUS
10
200.3146089999999901
20
-82.87988
11
200.3146089999999901
21
-82.1709400000000016
0
LINE
8
BLACK
6
CONTINUOUS
10
200.3146089999999901
20
-82.1709400000000016
11
200.3170489999999972
21
-82.1461639999999989
0
LINE
8
BLACK
6
CONTINUOUS
10
200.3170489999999972
20
-82.1461639999999989
11
200.3360119999999824
21
-82.1003829999999937
0
LINE
8
BLACK
6
CONTINUOUS
10
200.3360119999999824
20
-82.1003829999999937
11
200.3710519999999917
21
-82.0653429999999986
0
LINE
8
BLACK
6
CONTINUOUS
10
200.3710519999999917
20
-82.0653429999999986
11
200.4168329999999969
21
-82.0463799999999992
0
LINE
8
BLACK
6
CONTINUOUS
10
200.4168329999999969
20
-82.0463799999999992
11
200.4663850000000025
21
-82.0463799999999992
0
LINE
8
BLACK
6
CONTINUOUS
10
200.4663850000000025
20
-82.0463799999999992
11
200.4712859999999921
21
-82.0484099999999899
0
LINE
8
BLACK
6
CONTINUOUS
10
200.4712859999999921
20
-82.0484099999999899
11
206.3775499999999852
21
-82.0484099999999899
0
LINE
8
BLACK
6
CONTINUOUS
10
206.3775499999999852
20
-82.0484099999999899
11
206.3775499999999852
21
-77.7529589999999899
0
LINE
8
BLACK
6
CONTINUOUS
10
206.3775499999999852
20
-77.7529589999999899
11
173.239169000000004
21
-77.7529589999999899
0
LINE
8
BLACK
6
CONTINUOUS
10
206.5775500000000022
20
-82.3024099999999947
11
206.5775500000000022
21
-91.0483899999999977
0
LINE
8
BLACK
6
CONTINUOUS
10
206.5775500000000022
20
-91.0483899999999977
11
206.814598999999987
21
-91.0483899999999977
0
LINE
8
BLACK
6
CONTINUOUS
10
206.814598999999987
20
-91.0483899999999977
11
206.814598999999987
21
-82.3024099999999947
0
LINE
8
BLACK
6
CONTINUOUS
10
206.814598999999987
20
-82.3024099999999947
11
206.5775500000000022
21
-82.3024099999999947
  0
ENDSEC
  0
EOF
