%TF.GenerationSoftware,KiCad,Pcbnew,9.0.0*%
%TF.CreationDate,2025-04-27T09:25:50-07:00*%
%TF.ProjectId,c7k-rt,63376b2d-7274-42e6-9b69-6361645f7063,rev?*%
%TF.SameCoordinates,Original*%
%TF.FileFunction,Profile,NP*%
%FSLAX46Y46*%
G04 Gerber Fmt 4.6, Leading zero omitted, Abs format (unit mm)*
G04 Created by KiCad (PCBNEW 9.0.0) date 2025-04-27 09:25:50*
%MOMM*%
%LPD*%
G01*
G04 APERTURE LIST*
%TA.AperFunction,Profile*%
%ADD10C,0.050000*%
%TD*%
G04 APERTURE END LIST*
D10*
X228602098Y-103497918D02*
X247897898Y-103497918D01*
X197902080Y-101802082D02*
G75*
G02*
X196202080Y-103502080I-1699980J-18D01*
G01*
X225197916Y-95902082D02*
G75*
G02*
X226897918Y-97602082I-16J-1700018D01*
G01*
X249597916Y-101797918D02*
G75*
G02*
X247897916Y-103497916I-1700016J18D01*
G01*
X247897916Y-85902082D02*
G75*
G02*
X249597918Y-87602082I-16J-1700018D01*
G01*
X199599998Y-69500000D02*
G75*
G02*
X201302100Y-71202082I2J-1702100D01*
G01*
X203002080Y-78097918D02*
G75*
G02*
X201302082Y-76397918I20J1700018D01*
G01*
X249597916Y-101797900D02*
X249597916Y-87602082D01*
X197574998Y-72900000D02*
G75*
G02*
X194824998Y-72900000I-1375000J0D01*
G01*
X194824998Y-72900000D02*
G75*
G02*
X197574998Y-72900000I1375000J0D01*
G01*
X201299998Y-71202100D02*
X201302080Y-76397900D01*
X247897916Y-85902082D02*
X236250000Y-85875000D01*
X202999998Y-78097918D02*
X234547900Y-78092076D01*
X236250000Y-85875000D02*
X236247924Y-79792100D01*
X197903262Y-101800000D02*
X197900899Y-97604164D01*
X165869998Y-103500000D02*
G75*
G02*
X164170000Y-101800000I2J1700000D01*
G01*
X197902080Y-97602082D02*
G75*
G02*
X199602080Y-95902080I1700020J-18D01*
G01*
X230825000Y-98300000D02*
G75*
G02*
X228075000Y-98300000I-1375000J0D01*
G01*
X228075000Y-98300000D02*
G75*
G02*
X230825000Y-98300000I1375000J0D01*
G01*
X165869998Y-69500000D02*
X199599998Y-69502082D01*
X228602080Y-103497918D02*
G75*
G02*
X226902082Y-101797918I20J1700018D01*
G01*
X196249998Y-98325000D02*
G75*
G02*
X193499998Y-98325000I-1375000J0D01*
G01*
X193499998Y-98325000D02*
G75*
G02*
X196249998Y-98325000I1375000J0D01*
G01*
X234299998Y-84000000D02*
G75*
G02*
X231549998Y-84000000I-1375000J0D01*
G01*
X231549998Y-84000000D02*
G75*
G02*
X234299998Y-84000000I1375000J0D01*
G01*
X165869998Y-103500000D02*
X196202098Y-103502082D01*
X164169998Y-71202082D02*
X164169998Y-101797900D01*
X226902081Y-101797918D02*
X226899718Y-97602082D01*
X164169998Y-71200000D02*
G75*
G02*
X165869998Y-69499998I1700002J0D01*
G01*
X234547924Y-78092076D02*
G75*
G02*
X236247924Y-79792076I-24J-1700024D01*
G01*
X225197916Y-95902082D02*
X199602080Y-95900071D01*
M02*
