  0
SECTION
  2
HEADER
  9
$ANGBASE
  50
0.0
  9
$ANGDIR
  70
1
  9
$MEASUREMENT
  70
1
  0
ENDSEC
  0
SECTION
  2
TABLES
  0
TABLE
  2
LTYPE
  70
4
  0
LTYPE
  5
40F
  2
CONTINUOUS
  70
0
  3
Solid line
  72
65
  73
0
  40
0.0
  0
LTYPE
  5
410
  2
DASHDOT
 70
0
  3
Dash Dot ____ _ ____ _
 72
65
 73
4
 40
2.0
 49
1.25
 49
-0.25
 49
0.25
 49
-0.25
  0
LTYPE
  5
411
  2
DASHED
 70
0
  3
Dashed __ __ __ __ __
 72
65
 73
2
 40
0.75
 49
0.5
 49
-0.25
  0
LTYPE
  5
43B
  2
DOTTED
 70
0
  3
Dotted .  .  .  .
 72
65
 73
2
 40
0.2
 49
0.0
 49
-0.2
  0
ENDTAB
  0
TABLE
  2
STYLE
  70
4
  0
STYLE
  2
KICAD
  70
0
  40
0
  41
1
  42
1
  50
0
  71
0
  3
isocp.shx
  0
STYLE
  2
KICADB
  70
0
  40
0
  41
1
  42
1
  50
0
  71
0
  3
isocp.shx
  0
STYLE
  2
KICADI
  70
0
  40
0
  41
1
  42
1
  50
15
  71
0
  3
isocp.shx
  0
STYLE
  2
KICADBI
  70
0
  40
0
  41
1
  42
1
  50
15
  71
0
  3
isocp.shx
  0
ENDTAB
  0
TABLE
  2
LAYER
  70
1
  0
LAYER
  2
BLACK
  70
0
  62
7
  6
CONTINUOUS
  0
ENDTAB
  0
ENDSEC
  0
SECTION
  2
ENTITIES
0
LINE
8
BLACK
6
CONTINUOUS
10
170.290284999999983
20
-99.9780599999999993
11
170.4713969999999961
21
-100.0530789999999968
0
LINE
8
BLACK
6
CONTINUOUS
10
170.4713969999999961
20
-100.0530789999999968
11
170.6343929999999887
21
-100.1619899999999888
0
LINE
8
BLACK
6
CONTINUOUS
10
170.6343929999999887
20
-100.1619899999999888
11
170.7730099999999993
21
-100.3006069999999994
0
LINE
8
BLACK
6
CONTINUOUS
10
170.7730099999999993
20
-100.3006069999999994
11
170.8819210000000055
21
-100.463602999999992
0
LINE
8
BLACK
6
CONTINUOUS
10
170.8819210000000055
20
-100.463602999999992
11
170.956940000000003
21
-100.6447149999999908
0
LINE
8
BLACK
6
CONTINUOUS
10
170.956940000000003
20
-100.6447149999999908
11
170.9951849999999922
21
-100.8369829999999894
0
LINE
8
BLACK
6
CONTINUOUS
10
170.9951849999999922
20
-100.8369829999999894
11
170.9951849999999922
21
-101.033017000000001
0
LINE
8
BLACK
6
CONTINUOUS
10
170.9951849999999922
20
-101.033017000000001
11
170.956940000000003
21
-101.2252849999999995
0
LINE
8
BLACK
6
CONTINUOUS
10
170.956940000000003
20
-101.2252849999999995
11
170.8819210000000055
21
-101.4063969999999983
0
LINE
8
BLACK
6
CONTINUOUS
10
170.8819210000000055
20
-101.4063969999999983
11
170.7730099999999993
21
-101.5693929999999909
0
LINE
8
BLACK
6
CONTINUOUS
10
170.7730099999999993
20
-101.5693929999999909
11
170.6343929999999887
21
-101.7080100000000016
0
LINE
8
BLACK
6
CONTINUOUS
10
170.6343929999999887
20
-101.7080100000000016
11
170.4713969999999961
21
-101.8169209999999936
0
LINE
8
BLACK
6
CONTINUOUS
10
170.4713969999999961
20
-101.8169209999999936
11
170.290284999999983
21
-101.8919399999999911
0
LINE
8
BLACK
6
CONTINUOUS
10
170.290284999999983
20
-101.8919399999999911
11
170.0980169999999987
21
-101.9301849999999945
0
LINE
8
BLACK
6
CONTINUOUS
10
170.0980169999999987
20
-101.9301849999999945
11
169.9019830000000013
21
-101.9301849999999945
0
LINE
8
BLACK
6
CONTINUOUS
10
169.9019830000000013
20
-101.9301849999999945
11
169.7097149999999885
21
-101.8919399999999911
0
LINE
8
BLACK
6
CONTINUOUS
10
169.7097149999999885
20
-101.8919399999999911
11
169.5286030000000039
21
-101.8169209999999936
0
LINE
8
BLACK
6
CONTINUOUS
10
169.5286030000000039
20
-101.8169209999999936
11
169.3656069999999829
21
-101.7080100000000016
0
LINE
8
BLACK
6
CONTINUOUS
10
169.3656069999999829
20
-101.7080100000000016
11
169.2269900000000007
21
-101.5693929999999909
0
LINE
8
BLACK
6
CONTINUOUS
10
169.2269900000000007
20
-101.5693929999999909
11
169.1180789999999945
21
-101.4063969999999983
0
LINE
8
BLACK
6
CONTINUOUS
10
169.1180789999999945
20
-101.4063969999999983
11
169.043059999999997
21
-101.2252849999999995
0
LINE
8
BLACK
6
CONTINUOUS
10
169.043059999999997
20
-101.2252849999999995
11
169.0048149999999794
21
-101.033017000000001
0
LINE
8
BLACK
6
CONTINUOUS
10
169.0048149999999794
20
-101.033017000000001
11
169.0048149999999794
21
-100.8369829999999894
0
LINE
8
BLACK
6
CONTINUOUS
10
169.0048149999999794
20
-100.8369829999999894
11
169.043059999999997
21
-100.6447149999999908
0
LINE
8
BLACK
6
CONTINUOUS
10
169.043059999999997
20
-100.6447149999999908
11
169.1180789999999945
21
-100.463602999999992
0
LINE
8
BLACK
6
CONTINUOUS
10
169.1180789999999945
20
-100.463602999999992
11
169.2269900000000007
21
-100.3006069999999994
0
LINE
8
BLACK
6
CONTINUOUS
10
169.2269900000000007
20
-100.3006069999999994
11
169.3656069999999829
21
-100.1619899999999888
0
LINE
8
BLACK
6
CONTINUOUS
10
169.3656069999999829
20
-100.1619899999999888
11
169.5286030000000039
21
-100.0530789999999968
0
LINE
8
BLACK
6
CONTINUOUS
10
169.5286030000000039
20
-100.0530789999999968
11
169.7097149999999885
21
-99.9780599999999993
0
LINE
8
BLACK
6
CONTINUOUS
10
169.7097149999999885
20
-99.9780599999999993
11
169.9019830000000013
21
-99.9398149999999958
0
LINE
8
BLACK
6
CONTINUOUS
10
169.9019830000000013
20
-99.9398149999999958
11
170.0980169999999987
21
-99.9398149999999958
0
LINE
8
BLACK
6
CONTINUOUS
10
170.0980169999999987
20
-99.9398149999999958
11
170.290284999999983
21
-99.9780599999999993
0
LINE
8
BLACK
6
CONTINUOUS
10
167.8002850000000024
20
-98.7280599999999993
11
167.981396999999987
21
-98.8030789999999968
0
LINE
8
BLACK
6
CONTINUOUS
10
167.981396999999987
20
-98.8030789999999968
11
168.1443929999999796
21
-98.9119899999999888
0
LINE
8
BLACK
6
CONTINUOUS
10
168.1443929999999796
20
-98.9119899999999888
11
168.2830099999999902
21
-99.0506069999999994
0
LINE
8
BLACK
6
CONTINUOUS
10
168.2830099999999902
20
-99.0506069999999994
11
168.3919209999999964
21
-99.213602999999992
0
LINE
8
BLACK
6
CONTINUOUS
10
168.3919209999999964
20
-99.213602999999992
11
168.4669399999999939
21
-99.3947149999999908
0
LINE
8
BLACK
6
CONTINUOUS
10
168.4669399999999939
20
-99.3947149999999908
11
168.5051849999999831
21
-99.5869829999999894
0
LINE
8
BLACK
6
CONTINUOUS
10
168.5051849999999831
20
-99.5869829999999894
11
168.5051849999999831
21
-99.783017000000001
0
LINE
8
BLACK
6
CONTINUOUS
10
168.5051849999999831
20
-99.783017000000001
11
168.4669399999999939
21
-99.9752849999999995
0
LINE
8
BLACK
6
CONTINUOUS
10
168.4669399999999939
20
-99.9752849999999995
11
168.3919209999999964
21
-100.1563969999999983
0
LINE
8
BLACK
6
CONTINUOUS
10
168.3919209999999964
20
-100.1563969999999983
11
168.2830099999999902
21
-100.3193929999999909
0
LINE
8
BLACK
6
CONTINUOUS
10
168.2830099999999902
20
-100.3193929999999909
11
168.1443929999999796
21
-100.4580100000000016
0
LINE
8
BLACK
6
CONTINUOUS
10
168.1443929999999796
20
-100.4580100000000016
11
167.981396999999987
21
-100.5669209999999936
0
LINE
8
BLACK
6
CONTINUOUS
10
167.981396999999987
20
-100.5669209999999936
11
167.8002850000000024
21
-100.6419399999999911
0
LINE
8
BLACK
6
CONTINUOUS
10
167.8002850000000024
20
-100.6419399999999911
11
167.6080169999999896
21
-100.6801849999999945
0
LINE
8
BLACK
6
CONTINUOUS
10
167.6080169999999896
20
-100.6801849999999945
11
167.4119829999999922
21
-100.6801849999999945
0
LINE
8
BLACK
6
CONTINUOUS
10
167.4119829999999922
20
-100.6801849999999945
11
167.2197149999999795
21
-100.6419399999999911
0
LINE
8
BLACK
6
CONTINUOUS
10
167.2197149999999795
20
-100.6419399999999911
11
167.0386029999999948
21
-100.5669209999999936
0
LINE
8
BLACK
6
CONTINUOUS
10
167.0386029999999948
20
-100.5669209999999936
11
166.8756070000000022
21
-100.4580100000000016
0
LINE
8
BLACK
6
CONTINUOUS
10
166.8756070000000022
20
-100.4580100000000016
11
166.7369899999999916
21
-100.3193929999999909
0
LINE
8
BLACK
6
CONTINUOUS
10
166.7369899999999916
20
-100.3193929999999909
11
166.6280789999999854
21
-100.1563969999999983
0
LINE
8
BLACK
6
CONTINUOUS
10
166.6280789999999854
20
-100.1563969999999983
11
166.5530599999999879
21
-99.9752849999999995
0
LINE
8
BLACK
6
CONTINUOUS
10
166.5530599999999879
20
-99.9752849999999995
11
166.5148149999999987
21
-99.783017000000001
0
LINE
8
BLACK
6
CONTINUOUS
10
166.5148149999999987
20
-99.783017000000001
11
166.5148149999999987
21
-99.5869829999999894
0
LINE
8
BLACK
6
CONTINUOUS
10
166.5148149999999987
20
-99.5869829999999894
11
166.5530599999999879
21
-99.3947149999999908
0
LINE
8
BLACK
6
CONTINUOUS
10
166.5530599999999879
20
-99.3947149999999908
11
166.6280789999999854
21
-99.213602999999992
0
LINE
8
BLACK
6
CONTINUOUS
10
166.6280789999999854
20
-99.213602999999992
11
166.7369899999999916
21
-99.0506069999999994
0
LINE
8
BLACK
6
CONTINUOUS
10
166.7369899999999916
20
-99.0506069999999994
11
166.8756070000000022
21
-98.9119899999999888
0
LINE
8
BLACK
6
CONTINUOUS
10
166.8756070000000022
20
-98.9119899999999888
11
167.0386029999999948
21
-98.8030789999999968
0
LINE
8
BLACK
6
CONTINUOUS
10
167.0386029999999948
20
-98.8030789999999968
11
167.2197149999999795
21
-98.7280599999999993
0
LINE
8
BLACK
6
CONTINUOUS
10
167.2197149999999795
20
-98.7280599999999993
11
167.4119829999999922
21
-98.6898149999999958
0
LINE
8
BLACK
6
CONTINUOUS
10
167.4119829999999922
20
-98.6898149999999958
11
167.6080169999999896
21
-98.6898149999999958
0
LINE
8
BLACK
6
CONTINUOUS
10
167.6080169999999896
20
-98.6898149999999958
11
167.8002850000000024
21
-98.7280599999999993
0
LINE
8
BLACK
6
CONTINUOUS
10
167.8002850000000024
20
-94.2280599999999993
11
167.981396999999987
21
-94.3030789999999968
0
LINE
8
BLACK
6
CONTINUOUS
10
167.981396999999987
20
-94.3030789999999968
11
168.1443929999999796
21
-94.4119899999999888
0
LINE
8
BLACK
6
CONTINUOUS
10
168.1443929999999796
20
-94.4119899999999888
11
168.2830099999999902
21
-94.5506069999999994
0
LINE
8
BLACK
6
CONTINUOUS
10
168.2830099999999902
20
-94.5506069999999994
11
168.3919209999999964
21
-94.713602999999992
0
LINE
8
BLACK
6
CONTINUOUS
10
168.3919209999999964
20
-94.713602999999992
11
168.4669399999999939
21
-94.8947149999999908
0
LINE
8
BLACK
6
CONTINUOUS
10
168.4669399999999939
20
-94.8947149999999908
11
168.5051849999999831
21
-95.0869829999999894
0
LINE
8
BLACK
6
CONTINUOUS
10
168.5051849999999831
20
-95.0869829999999894
11
168.5051849999999831
21
-95.283017000000001
0
LINE
8
BLACK
6
CONTINUOUS
10
168.5051849999999831
20
-95.283017000000001
11
168.4669399999999939
21
-95.4752849999999995
0
LINE
8
BLACK
6
CONTINUOUS
10
168.4669399999999939
20
-95.4752849999999995
11
168.3919209999999964
21
-95.6563969999999983
0
LINE
8
BLACK
6
CONTINUOUS
10
168.3919209999999964
20
-95.6563969999999983
11
168.2830099999999902
21
-95.8193929999999909
0
LINE
8
BLACK
6
CONTINUOUS
10
168.2830099999999902
20
-95.8193929999999909
11
168.1443929999999796
21
-95.9580100000000016
0
LINE
8
BLACK
6
CONTINUOUS
10
168.1443929999999796
20
-95.9580100000000016
11
167.981396999999987
21
-96.0669209999999936
0
LINE
8
BLACK
6
CONTINUOUS
10
167.981396999999987
20
-96.0669209999999936
11
167.8002850000000024
21
-96.1419399999999911
0
LINE
8
BLACK
6
CONTINUOUS
10
167.8002850000000024
20
-96.1419399999999911
11
167.6080169999999896
21
-96.1801849999999945
0
LINE
8
BLACK
6
CONTINUOUS
10
167.6080169999999896
20
-96.1801849999999945
11
167.4119829999999922
21
-96.1801849999999945
0
LINE
8
BLACK
6
CONTINUOUS
10
167.4119829999999922
20
-96.1801849999999945
11
167.2197149999999795
21
-96.1419399999999911
0
LINE
8
BLACK
6
CONTINUOUS
10
167.2197149999999795
20
-96.1419399999999911
11
167.0386029999999948
21
-96.0669209999999936
0
LINE
8
BLACK
6
CONTINUOUS
10
167.0386029999999948
20
-96.0669209999999936
11
166.8756070000000022
21
-95.9580100000000016
0
LINE
8
BLACK
6
CONTINUOUS
10
166.8756070000000022
20
-95.9580100000000016
11
166.7369899999999916
21
-95.8193929999999909
0
LINE
8
BLACK
6
CONTINUOUS
10
166.7369899999999916
20
-95.8193929999999909
11
166.6280789999999854
21
-95.6563969999999983
0
LINE
8
BLACK
6
CONTINUOUS
10
166.6280789999999854
20
-95.6563969999999983
11
166.5530599999999879
21
-95.4752849999999995
0
LINE
8
BLACK
6
CONTINUOUS
10
166.5530599999999879
20
-95.4752849999999995
11
166.5148149999999987
21
-95.283017000000001
0
LINE
8
BLACK
6
CONTINUOUS
10
166.5148149999999987
20
-95.283017000000001
11
166.5148149999999987
21
-95.0869829999999894
0
LINE
8
BLACK
6
CONTINUOUS
10
166.5148149999999987
20
-95.0869829999999894
11
166.5530599999999879
21
-94.8947149999999908
0
LINE
8
BLACK
6
CONTINUOUS
10
166.5530599999999879
20
-94.8947149999999908
11
166.6280789999999854
21
-94.713602999999992
0
LINE
8
BLACK
6
CONTINUOUS
10
166.6280789999999854
20
-94.713602999999992
11
166.7369899999999916
21
-94.5506069999999994
0
LINE
8
BLACK
6
CONTINUOUS
10
166.7369899999999916
20
-94.5506069999999994
11
166.8756070000000022
21
-94.4119899999999888
0
LINE
8
BLACK
6
CONTINUOUS
10
166.8756070000000022
20
-94.4119899999999888
11
167.0386029999999948
21
-94.3030789999999968
0
LINE
8
BLACK
6
CONTINUOUS
10
167.0386029999999948
20
-94.3030789999999968
11
167.2197149999999795
21
-94.2280599999999993
0
LINE
8
BLACK
6
CONTINUOUS
10
167.2197149999999795
20
-94.2280599999999993
11
167.4119829999999922
21
-94.1898149999999958
0
LINE
8
BLACK
6
CONTINUOUS
10
167.4119829999999922
20
-94.1898149999999958
11
167.6080169999999896
21
-94.1898149999999958
0
LINE
8
BLACK
6
CONTINUOUS
10
167.6080169999999896
20
-94.1898149999999958
11
167.8002850000000024
21
-94.2280599999999993
0
LINE
8
BLACK
6
CONTINUOUS
10
170.290284999999983
20
-92.9680599999999941
11
170.4713969999999961
21
-93.0430789999999917
0
LINE
8
BLACK
6
CONTINUOUS
10
170.4713969999999961
20
-93.0430789999999917
11
170.6343929999999887
21
-93.1519899999999978
0
LINE
8
BLACK
6
CONTINUOUS
10
170.6343929999999887
20
-93.1519899999999978
11
170.7730099999999993
21
-93.2906069999999943
0
LINE
8
BLACK
6
CONTINUOUS
10
170.7730099999999993
20
-93.2906069999999943
11
170.8819210000000055
21
-93.4536030000000011
0
LINE
8
BLACK
6
CONTINUOUS
10
170.8819210000000055
20
-93.4536030000000011
11
170.956940000000003
21
-93.6347149999999999
0
LINE
8
BLACK
6
CONTINUOUS
10
170.956940000000003
20
-93.6347149999999999
11
170.9951849999999922
21
-93.8269829999999985
0
LINE
8
BLACK
6
CONTINUOUS
10
170.9951849999999922
20
-93.8269829999999985
11
170.9951849999999922
21
-94.0230169999999958
0
LINE
8
BLACK
6
CONTINUOUS
10
170.9951849999999922
20
-94.0230169999999958
11
170.956940000000003
21
-94.2152849999999944
0
LINE
8
BLACK
6
CONTINUOUS
10
170.956940000000003
20
-94.2152849999999944
11
170.8819210000000055
21
-94.3963969999999932
0
LINE
8
BLACK
6
CONTINUOUS
10
170.8819210000000055
20
-94.3963969999999932
11
170.7730099999999993
21
-94.559393
0
LINE
8
BLACK
6
CONTINUOUS
10
170.7730099999999993
20
-94.559393
11
170.6343929999999887
21
-94.6980099999999965
0
LINE
8
BLACK
6
CONTINUOUS
10
170.6343929999999887
20
-94.6980099999999965
11
170.4713969999999961
21
-94.8069210000000027
0
LINE
8
BLACK
6
CONTINUOUS
10
170.4713969999999961
20
-94.8069210000000027
11
170.290284999999983
21
-94.8819400000000002
0
LINE
8
BLACK
6
CONTINUOUS
10
170.290284999999983
20
-94.8819400000000002
11
170.0980169999999987
21
-94.9201849999999894
0
LINE
8
BLACK
6
CONTINUOUS
10
170.0980169999999987
20
-94.9201849999999894
11
169.9019830000000013
21
-94.9201849999999894
0
LINE
8
BLACK
6
CONTINUOUS
10
169.9019830000000013
20
-94.9201849999999894
11
169.7097149999999885
21
-94.8819400000000002
0
LINE
8
BLACK
6
CONTINUOUS
10
169.7097149999999885
20
-94.8819400000000002
11
169.5286030000000039
21
-94.8069210000000027
0
LINE
8
BLACK
6
CONTINUOUS
10
169.5286030000000039
20
-94.8069210000000027
11
169.3656069999999829
21
-94.6980099999999965
0
LINE
8
BLACK
6
CONTINUOUS
10
169.3656069999999829
20
-94.6980099999999965
11
169.2269900000000007
21
-94.559393
0
LINE
8
BLACK
6
CONTINUOUS
10
169.2269900000000007
20
-94.559393
11
169.1180789999999945
21
-94.3963969999999932
0
LINE
8
BLACK
6
CONTINUOUS
10
169.1180789999999945
20
-94.3963969999999932
11
169.043059999999997
21
-94.2152849999999944
0
LINE
8
BLACK
6
CONTINUOUS
10
169.043059999999997
20
-94.2152849999999944
11
169.0048149999999794
21
-94.0230169999999958
0
LINE
8
BLACK
6
CONTINUOUS
10
169.0048149999999794
20
-94.0230169999999958
11
169.0048149999999794
21
-93.8269829999999985
0
LINE
8
BLACK
6
CONTINUOUS
10
169.0048149999999794
20
-93.8269829999999985
11
169.043059999999997
21
-93.6347149999999999
0
LINE
8
BLACK
6
CONTINUOUS
10
169.043059999999997
20
-93.6347149999999999
11
169.1180789999999945
21
-93.4536030000000011
0
LINE
8
BLACK
6
CONTINUOUS
10
169.1180789999999945
20
-93.4536030000000011
11
169.2269900000000007
21
-93.2906069999999943
0
LINE
8
BLACK
6
CONTINUOUS
10
169.2269900000000007
20
-93.2906069999999943
11
169.3656069999999829
21
-93.1519899999999978
0
LINE
8
BLACK
6
CONTINUOUS
10
169.3656069999999829
20
-93.1519899999999978
11
169.5286030000000039
21
-93.0430789999999917
0
LINE
8
BLACK
6
CONTINUOUS
10
169.5286030000000039
20
-93.0430789999999917
11
169.7097149999999885
21
-92.9680599999999941
0
LINE
8
BLACK
6
CONTINUOUS
10
169.7097149999999885
20
-92.9680599999999941
11
169.9019830000000013
21
-92.9298149999999907
0
LINE
8
BLACK
6
CONTINUOUS
10
169.9019830000000013
20
-92.9298149999999907
11
170.0980169999999987
21
-92.9298149999999907
0
LINE
8
BLACK
6
CONTINUOUS
10
170.0980169999999987
20
-92.9298149999999907
11
170.290284999999983
21
-92.9680599999999941
0
LINE
8
BLACK
6
CONTINUOUS
10
170.290284999999983
20
-89.3830600000000004
11
170.4713969999999961
21
-89.4580789999999979
0
LINE
8
BLACK
6
CONTINUOUS
10
170.4713969999999961
20
-89.4580789999999979
11
170.6343929999999887
21
-89.5669899999999899
0
LINE
8
BLACK
6
CONTINUOUS
10
170.6343929999999887
20
-89.5669899999999899
11
170.7730099999999993
21
-89.7056070000000005
0
LINE
8
BLACK
6
CONTINUOUS
10
170.7730099999999993
20
-89.7056070000000005
11
170.8819210000000055
21
-89.8686029999999931
0
LINE
8
BLACK
6
CONTINUOUS
10
170.8819210000000055
20
-89.8686029999999931
11
170.956940000000003
21
-90.049714999999992
0
LINE
8
BLACK
6
CONTINUOUS
10
170.956940000000003
20
-90.049714999999992
11
170.9951849999999922
21
-90.2419829999999905
0
LINE
8
BLACK
6
CONTINUOUS
10
170.9951849999999922
20
-90.2419829999999905
11
170.9951849999999922
21
-90.4380170000000021
0
LINE
8
BLACK
6
CONTINUOUS
10
170.9951849999999922
20
-90.4380170000000021
11
170.956940000000003
21
-90.6302850000000007
0
LINE
8
BLACK
6
CONTINUOUS
10
170.956940000000003
20
-90.6302850000000007
11
170.8819210000000055
21
-90.8113969999999995
0
LINE
8
BLACK
6
CONTINUOUS
10
170.8819210000000055
20
-90.8113969999999995
11
170.7730099999999993
21
-90.9743929999999921
0
LINE
8
BLACK
6
CONTINUOUS
10
170.7730099999999993
20
-90.9743929999999921
11
170.6343929999999887
21
-91.1130100000000027
0
LINE
8
BLACK
6
CONTINUOUS
10
170.6343929999999887
20
-91.1130100000000027
11
170.4713969999999961
21
-91.2219209999999947
0
LINE
8
BLACK
6
CONTINUOUS
10
170.4713969999999961
20
-91.2219209999999947
11
170.290284999999983
21
-91.2969399999999922
0
LINE
8
BLACK
6
CONTINUOUS
10
170.290284999999983
20
-91.2969399999999922
11
170.0980169999999987
21
-91.3351849999999956
0
LINE
8
BLACK
6
CONTINUOUS
10
170.0980169999999987
20
-91.3351849999999956
11
169.9019830000000013
21
-91.3351849999999956
0
LINE
8
BLACK
6
CONTINUOUS
10
169.9019830000000013
20
-91.3351849999999956
11
169.7097149999999885
21
-91.2969399999999922
0
LINE
8
BLACK
6
CONTINUOUS
10
169.7097149999999885
20
-91.2969399999999922
11
169.5286030000000039
21
-91.2219209999999947
0
LINE
8
BLACK
6
CONTINUOUS
10
169.5286030000000039
20
-91.2219209999999947
11
169.3656069999999829
21
-91.1130100000000027
0
LINE
8
BLACK
6
CONTINUOUS
10
169.3656069999999829
20
-91.1130100000000027
11
169.2269900000000007
21
-90.9743929999999921
0
LINE
8
BLACK
6
CONTINUOUS
10
169.2269900000000007
20
-90.9743929999999921
11
169.1180789999999945
21
-90.8113969999999995
0
LINE
8
BLACK
6
CONTINUOUS
10
169.1180789999999945
20
-90.8113969999999995
11
169.043059999999997
21
-90.6302850000000007
0
LINE
8
BLACK
6
CONTINUOUS
10
169.043059999999997
20
-90.6302850000000007
11
169.0048149999999794
21
-90.4380170000000021
0
LINE
8
BLACK
6
CONTINUOUS
10
169.0048149999999794
20
-90.4380170000000021
11
169.0048149999999794
21
-90.2419829999999905
0
LINE
8
BLACK
6
CONTINUOUS
10
169.0048149999999794
20
-90.2419829999999905
11
169.043059999999997
21
-90.049714999999992
0
LINE
8
BLACK
6
CONTINUOUS
10
169.043059999999997
20
-90.049714999999992
11
169.1180789999999945
21
-89.8686029999999931
0
LINE
8
BLACK
6
CONTINUOUS
10
169.1180789999999945
20
-89.8686029999999931
11
169.2269900000000007
21
-89.7056070000000005
0
LINE
8
BLACK
6
CONTINUOUS
10
169.2269900000000007
20
-89.7056070000000005
11
169.3656069999999829
21
-89.5669899999999899
0
LINE
8
BLACK
6
CONTINUOUS
10
169.3656069999999829
20
-89.5669899999999899
11
169.5286030000000039
21
-89.4580789999999979
0
LINE
8
BLACK
6
CONTINUOUS
10
169.5286030000000039
20
-89.4580789999999979
11
169.7097149999999885
21
-89.3830600000000004
0
LINE
8
BLACK
6
CONTINUOUS
10
169.7097149999999885
20
-89.3830600000000004
11
169.9019830000000013
21
-89.344814999999997
0
LINE
8
BLACK
6
CONTINUOUS
10
169.9019830000000013
20
-89.344814999999997
11
170.0980169999999987
21
-89.344814999999997
0
LINE
8
BLACK
6
CONTINUOUS
10
170.0980169999999987
20
-89.344814999999997
11
170.290284999999983
21
-89.3830600000000004
0
LINE
8
BLACK
6
CONTINUOUS
10
167.8002850000000024
20
-88.1330600000000004
11
167.981396999999987
21
-88.2080789999999979
0
LINE
8
BLACK
6
CONTINUOUS
10
167.981396999999987
20
-88.2080789999999979
11
168.1443929999999796
21
-88.3169899999999899
0
LINE
8
BLACK
6
CONTINUOUS
10
168.1443929999999796
20
-88.3169899999999899
11
168.2830099999999902
21
-88.4556070000000005
0
LINE
8
BLACK
6
CONTINUOUS
10
168.2830099999999902
20
-88.4556070000000005
11
168.3919209999999964
21
-88.6186029999999931
0
LINE
8
BLACK
6
CONTINUOUS
10
168.3919209999999964
20
-88.6186029999999931
11
168.4669399999999939
21
-88.799714999999992
0
LINE
8
BLACK
6
CONTINUOUS
10
168.4669399999999939
20
-88.799714999999992
11
168.5051849999999831
21
-88.9919829999999905
0
LINE
8
BLACK
6
CONTINUOUS
10
168.5051849999999831
20
-88.9919829999999905
11
168.5051849999999831
21
-89.1880170000000021
0
LINE
8
BLACK
6
CONTINUOUS
10
168.5051849999999831
20
-89.1880170000000021
11
168.4669399999999939
21
-89.3802850000000007
0
LINE
8
BLACK
6
CONTINUOUS
10
168.4669399999999939
20
-89.3802850000000007
11
168.3919209999999964
21
-89.5613969999999995
0
LINE
8
BLACK
6
CONTINUOUS
10
168.3919209999999964
20
-89.5613969999999995
11
168.2830099999999902
21
-89.7243929999999921
0
LINE
8
BLACK
6
CONTINUOUS
10
168.2830099999999902
20
-89.7243929999999921
11
168.1443929999999796
21
-89.8630100000000027
0
LINE
8
BLACK
6
CONTINUOUS
10
168.1443929999999796
20
-89.8630100000000027
11
167.981396999999987
21
-89.9719209999999947
0
LINE
8
BLACK
6
CONTINUOUS
10
167.981396999999987
20
-89.9719209999999947
11
167.8002850000000024
21
-90.0469399999999922
0
LINE
8
BLACK
6
CONTINUOUS
10
167.8002850000000024
20
-90.0469399999999922
11
167.6080169999999896
21
-90.0851849999999956
0
LINE
8
BLACK
6
CONTINUOUS
10
167.6080169999999896
20
-90.0851849999999956
11
167.4119829999999922
21
-90.0851849999999956
0
LINE
8
BLACK
6
CONTINUOUS
10
167.4119829999999922
20
-90.0851849999999956
11
167.2197149999999795
21
-90.0469399999999922
0
LINE
8
BLACK
6
CONTINUOUS
10
167.2197149999999795
20
-90.0469399999999922
11
167.0386029999999948
21
-89.9719209999999947
0
LINE
8
BLACK
6
CONTINUOUS
10
167.0386029999999948
20
-89.9719209999999947
11
166.8756070000000022
21
-89.8630100000000027
0
LINE
8
BLACK
6
CONTINUOUS
10
166.8756070000000022
20
-89.8630100000000027
11
166.7369899999999916
21
-89.7243929999999921
0
LINE
8
BLACK
6
CONTINUOUS
10
166.7369899999999916
20
-89.7243929999999921
11
166.6280789999999854
21
-89.5613969999999995
0
LINE
8
BLACK
6
CONTINUOUS
10
166.6280789999999854
20
-89.5613969999999995
11
166.5530599999999879
21
-89.3802850000000007
0
LINE
8
BLACK
6
CONTINUOUS
10
166.5530599999999879
20
-89.3802850000000007
11
166.5148149999999987
21
-89.1880170000000021
0
LINE
8
BLACK
6
CONTINUOUS
10
166.5148149999999987
20
-89.1880170000000021
11
166.5148149999999987
21
-88.9919829999999905
0
LINE
8
BLACK
6
CONTINUOUS
10
166.5148149999999987
20
-88.9919829999999905
11
166.5530599999999879
21
-88.799714999999992
0
LINE
8
BLACK
6
CONTINUOUS
10
166.5530599999999879
20
-88.799714999999992
11
166.6280789999999854
21
-88.6186029999999931
0
LINE
8
BLACK
6
CONTINUOUS
10
166.6280789999999854
20
-88.6186029999999931
11
166.7369899999999916
21
-88.4556070000000005
0
LINE
8
BLACK
6
CONTINUOUS
10
166.7369899999999916
20
-88.4556070000000005
11
166.8756070000000022
21
-88.3169899999999899
0
LINE
8
BLACK
6
CONTINUOUS
10
166.8756070000000022
20
-88.3169899999999899
11
167.0386029999999948
21
-88.2080789999999979
0
LINE
8
BLACK
6
CONTINUOUS
10
167.0386029999999948
20
-88.2080789999999979
11
167.2197149999999795
21
-88.1330600000000004
0
LINE
8
BLACK
6
CONTINUOUS
10
167.2197149999999795
20
-88.1330600000000004
11
167.4119829999999922
21
-88.094814999999997
0
LINE
8
BLACK
6
CONTINUOUS
10
167.4119829999999922
20
-88.094814999999997
11
167.6080169999999896
21
-88.094814999999997
0
LINE
8
BLACK
6
CONTINUOUS
10
167.6080169999999896
20
-88.094814999999997
11
167.8002850000000024
21
-88.1330600000000004
0
LINE
8
BLACK
6
CONTINUOUS
10
167.8002850000000024
20
-83.6330600000000004
11
167.981396999999987
21
-83.7080789999999979
0
LINE
8
BLACK
6
CONTINUOUS
10
167.981396999999987
20
-83.7080789999999979
11
168.1443929999999796
21
-83.8169899999999899
0
LINE
8
BLACK
6
CONTINUOUS
10
168.1443929999999796
20
-83.8169899999999899
11
168.2830099999999902
21
-83.9556070000000005
0
LINE
8
BLACK
6
CONTINUOUS
10
168.2830099999999902
20
-83.9556070000000005
11
168.3919209999999964
21
-84.1186029999999931
0
LINE
8
BLACK
6
CONTINUOUS
10
168.3919209999999964
20
-84.1186029999999931
11
168.4669399999999939
21
-84.299714999999992
0
LINE
8
BLACK
6
CONTINUOUS
10
168.4669399999999939
20
-84.299714999999992
11
168.5051849999999831
21
-84.4919829999999905
0
LINE
8
BLACK
6
CONTINUOUS
10
168.5051849999999831
20
-84.4919829999999905
11
168.5051849999999831
21
-84.6880170000000021
0
LINE
8
BLACK
6
CONTINUOUS
10
168.5051849999999831
20
-84.6880170000000021
11
168.4669399999999939
21
-84.8802850000000007
0
LINE
8
BLACK
6
CONTINUOUS
10
168.4669399999999939
20
-84.8802850000000007
11
168.3919209999999964
21
-85.0613969999999995
0
LINE
8
BLACK
6
CONTINUOUS
10
168.3919209999999964
20
-85.0613969999999995
11
168.2830099999999902
21
-85.2243929999999921
0
LINE
8
BLACK
6
CONTINUOUS
10
168.2830099999999902
20
-85.2243929999999921
11
168.1443929999999796
21
-85.3630100000000027
0
LINE
8
BLACK
6
CONTINUOUS
10
168.1443929999999796
20
-85.3630100000000027
11
167.981396999999987
21
-85.4719209999999947
0
LINE
8
BLACK
6
CONTINUOUS
10
167.981396999999987
20
-85.4719209999999947
11
167.8002850000000024
21
-85.5469399999999922
0
LINE
8
BLACK
6
CONTINUOUS
10
167.8002850000000024
20
-85.5469399999999922
11
167.6080169999999896
21
-85.5851849999999956
0
LINE
8
BLACK
6
CONTINUOUS
10
167.6080169999999896
20
-85.5851849999999956
11
167.4119829999999922
21
-85.5851849999999956
0
LINE
8
BLACK
6
CONTINUOUS
10
167.4119829999999922
20
-85.5851849999999956
11
167.2197149999999795
21
-85.5469399999999922
0
LINE
8
BLACK
6
CONTINUOUS
10
167.2197149999999795
20
-85.5469399999999922
11
167.0386029999999948
21
-85.4719209999999947
0
LINE
8
BLACK
6
CONTINUOUS
10
167.0386029999999948
20
-85.4719209999999947
11
166.8756070000000022
21
-85.3630100000000027
0
LINE
8
BLACK
6
CONTINUOUS
10
166.8756070000000022
20
-85.3630100000000027
11
166.7369899999999916
21
-85.2243929999999921
0
LINE
8
BLACK
6
CONTINUOUS
10
166.7369899999999916
20
-85.2243929999999921
11
166.6280789999999854
21
-85.0613969999999995
0
LINE
8
BLACK
6
CONTINUOUS
10
166.6280789999999854
20
-85.0613969999999995
11
166.5530599999999879
21
-84.8802850000000007
0
LINE
8
BLACK
6
CONTINUOUS
10
166.5530599999999879
20
-84.8802850000000007
11
166.5148149999999987
21
-84.6880170000000021
0
LINE
8
BLACK
6
CONTINUOUS
10
166.5148149999999987
20
-84.6880170000000021
11
166.5148149999999987
21
-84.4919829999999905
0
LINE
8
BLACK
6
CONTINUOUS
10
166.5148149999999987
20
-84.4919829999999905
11
166.5530599999999879
21
-84.299714999999992
0
LINE
8
BLACK
6
CONTINUOUS
10
166.5530599999999879
20
-84.299714999999992
11
166.6280789999999854
21
-84.1186029999999931
0
LINE
8
BLACK
6
CONTINUOUS
10
166.6280789999999854
20
-84.1186029999999931
11
166.7369899999999916
21
-83.9556070000000005
0
LINE
8
BLACK
6
CONTINUOUS
10
166.7369899999999916
20
-83.9556070000000005
11
166.8756070000000022
21
-83.8169899999999899
0
LINE
8
BLACK
6
CONTINUOUS
10
166.8756070000000022
20
-83.8169899999999899
11
167.0386029999999948
21
-83.7080789999999979
0
LINE
8
BLACK
6
CONTINUOUS
10
167.0386029999999948
20
-83.7080789999999979
11
167.2197149999999795
21
-83.6330600000000004
0
LINE
8
BLACK
6
CONTINUOUS
10
167.2197149999999795
20
-83.6330600000000004
11
167.4119829999999922
21
-83.594814999999997
0
LINE
8
BLACK
6
CONTINUOUS
10
167.4119829999999922
20
-83.594814999999997
11
167.6080169999999896
21
-83.594814999999997
0
LINE
8
BLACK
6
CONTINUOUS
10
167.6080169999999896
20
-83.594814999999997
11
167.8002850000000024
21
-83.6330600000000004
0
LINE
8
BLACK
6
CONTINUOUS
10
170.290284999999983
20
-82.3730599999999953
11
170.4713969999999961
21
-82.4480789999999928
0
LINE
8
BLACK
6
CONTINUOUS
10
170.4713969999999961
20
-82.4480789999999928
11
170.6343929999999887
21
-82.556989999999999
0
LINE
8
BLACK
6
CONTINUOUS
10
170.6343929999999887
20
-82.556989999999999
11
170.7730099999999993
21
-82.6956069999999954
0
LINE
8
BLACK
6
CONTINUOUS
10
170.7730099999999993
20
-82.6956069999999954
11
170.8819210000000055
21
-82.8586030000000022
0
LINE
8
BLACK
6
CONTINUOUS
10
170.8819210000000055
20
-82.8586030000000022
11
170.956940000000003
21
-83.0397150000000011
0
LINE
8
BLACK
6
CONTINUOUS
10
170.956940000000003
20
-83.0397150000000011
11
170.9951849999999922
21
-83.2319829999999996
0
LINE
8
BLACK
6
CONTINUOUS
10
170.9951849999999922
20
-83.2319829999999996
11
170.9951849999999922
21
-83.428016999999997
0
LINE
8
BLACK
6
CONTINUOUS
10
170.9951849999999922
20
-83.428016999999997
11
170.956940000000003
21
-83.6202849999999955
0
LINE
8
BLACK
6
CONTINUOUS
10
170.956940000000003
20
-83.6202849999999955
11
170.8819210000000055
21
-83.8013969999999944
0
LINE
8
BLACK
6
CONTINUOUS
10
170.8819210000000055
20
-83.8013969999999944
11
170.7730099999999993
21
-83.9643930000000012
0
LINE
8
BLACK
6
CONTINUOUS
10
170.7730099999999993
20
-83.9643930000000012
11
170.6343929999999887
21
-84.1030099999999976
0
LINE
8
BLACK
6
CONTINUOUS
10
170.6343929999999887
20
-84.1030099999999976
11
170.4713969999999961
21
-84.2119209999999896
0
LINE
8
BLACK
6
CONTINUOUS
10
170.4713969999999961
20
-84.2119209999999896
11
170.290284999999983
21
-84.2869400000000013
0
LINE
8
BLACK
6
CONTINUOUS
10
170.290284999999983
20
-84.2869400000000013
11
170.0980169999999987
21
-84.3251849999999905
0
LINE
8
BLACK
6
CONTINUOUS
10
170.0980169999999987
20
-84.3251849999999905
11
169.9019830000000013
21
-84.3251849999999905
0
LINE
8
BLACK
6
CONTINUOUS
10
169.9019830000000013
20
-84.3251849999999905
11
169.7097149999999885
21
-84.2869400000000013
0
LINE
8
BLACK
6
CONTINUOUS
10
169.7097149999999885
20
-84.2869400000000013
11
169.5286030000000039
21
-84.2119209999999896
0
LINE
8
BLACK
6
CONTINUOUS
10
169.5286030000000039
20
-84.2119209999999896
11
169.3656069999999829
21
-84.1030099999999976
0
LINE
8
BLACK
6
CONTINUOUS
10
169.3656069999999829
20
-84.1030099999999976
11
169.2269900000000007
21
-83.9643930000000012
0
LINE
8
BLACK
6
CONTINUOUS
10
169.2269900000000007
20
-83.9643930000000012
11
169.1180789999999945
21
-83.8013969999999944
0
LINE
8
BLACK
6
CONTINUOUS
10
169.1180789999999945
20
-83.8013969999999944
11
169.043059999999997
21
-83.6202849999999955
0
LINE
8
BLACK
6
CONTINUOUS
10
169.043059999999997
20
-83.6202849999999955
11
169.0048149999999794
21
-83.428016999999997
0
LINE
8
BLACK
6
CONTINUOUS
10
169.0048149999999794
20
-83.428016999999997
11
169.0048149999999794
21
-83.2319829999999996
0
LINE
8
BLACK
6
CONTINUOUS
10
169.0048149999999794
20
-83.2319829999999996
11
169.043059999999997
21
-83.0397150000000011
0
LINE
8
BLACK
6
CONTINUOUS
10
169.043059999999997
20
-83.0397150000000011
11
169.1180789999999945
21
-82.8586030000000022
0
LINE
8
BLACK
6
CONTINUOUS
10
169.1180789999999945
20
-82.8586030000000022
11
169.2269900000000007
21
-82.6956069999999954
0
LINE
8
BLACK
6
CONTINUOUS
10
169.2269900000000007
20
-82.6956069999999954
11
169.3656069999999829
21
-82.556989999999999
0
LINE
8
BLACK
6
CONTINUOUS
10
169.3656069999999829
20
-82.556989999999999
11
169.5286030000000039
21
-82.4480789999999928
0
LINE
8
BLACK
6
CONTINUOUS
10
169.5286030000000039
20
-82.4480789999999928
11
169.7097149999999885
21
-82.3730599999999953
0
LINE
8
BLACK
6
CONTINUOUS
10
169.7097149999999885
20
-82.3730599999999953
11
169.9019830000000013
21
-82.3348149999999919
0
LINE
8
BLACK
6
CONTINUOUS
10
169.9019830000000013
20
-82.3348149999999919
11
170.0980169999999987
21
-82.3348149999999919
0
LINE
8
BLACK
6
CONTINUOUS
10
170.0980169999999987
20
-82.3348149999999919
11
170.290284999999983
21
-82.3730599999999953
0
LINE
8
BLACK
6
CONTINUOUS
10
170.3002850000000024
20
-78.7980599999999924
11
170.481396999999987
21
-78.8730789999999899
0
LINE
8
BLACK
6
CONTINUOUS
10
170.481396999999987
20
-78.8730789999999899
11
170.6443929999999796
21
-78.9819899999999961
0
LINE
8
BLACK
6
CONTINUOUS
10
170.6443929999999796
20
-78.9819899999999961
11
170.7830099999999902
21
-79.1206069999999926
0
LINE
8
BLACK
6
CONTINUOUS
10
170.7830099999999902
20
-79.1206069999999926
11
170.8919209999999964
21
-79.2836029999999994
0
LINE
8
BLACK
6
CONTINUOUS
10
170.8919209999999964
20
-79.2836029999999994
11
170.9669399999999939
21
-79.4647149999999982
0
LINE
8
BLACK
6
CONTINUOUS
10
170.9669399999999939
20
-79.4647149999999982
11
171.0051849999999831
21
-79.6569829999999968
0
LINE
8
BLACK
6
CONTINUOUS
10
171.0051849999999831
20
-79.6569829999999968
11
171.0051849999999831
21
-79.8530169999999941
0
LINE
8
BLACK
6
CONTINUOUS
10
171.0051849999999831
20
-79.8530169999999941
11
170.9669399999999939
21
-80.0452849999999927
0
LINE
8
BLACK
6
CONTINUOUS
10
170.9669399999999939
20
-80.0452849999999927
11
170.8919209999999964
21
-80.2263969999999915
0
LINE
8
BLACK
6
CONTINUOUS
10
170.8919209999999964
20
-80.2263969999999915
11
170.7830099999999902
21
-80.3893929999999983
0
LINE
8
BLACK
6
CONTINUOUS
10
170.7830099999999902
20
-80.3893929999999983
11
170.6443929999999796
21
-80.5280099999999948
0
LINE
8
BLACK
6
CONTINUOUS
10
170.6443929999999796
20
-80.5280099999999948
11
170.481396999999987
21
-80.636921000000001
0
LINE
8
BLACK
6
CONTINUOUS
10
170.481396999999987
20
-80.636921000000001
11
170.3002850000000024
21
-80.7119399999999985
0
LINE
8
BLACK
6
CONTINUOUS
10
170.3002850000000024
20
-80.7119399999999985
11
170.1080169999999896
21
-80.7501850000000019
0
LINE
8
BLACK
6
CONTINUOUS
10
170.1080169999999896
20
-80.7501850000000019
11
169.9119829999999922
21
-80.7501850000000019
0
LINE
8
BLACK
6
CONTINUOUS
10
169.9119829999999922
20
-80.7501850000000019
11
169.7197149999999795
21
-80.7119399999999985
0
LINE
8
BLACK
6
CONTINUOUS
10
169.7197149999999795
20
-80.7119399999999985
11
169.5386029999999948
21
-80.636921000000001
0
LINE
8
BLACK
6
CONTINUOUS
10
169.5386029999999948
20
-80.636921000000001
11
169.3756070000000022
21
-80.5280099999999948
0
LINE
8
BLACK
6
CONTINUOUS
10
169.3756070000000022
20
-80.5280099999999948
11
169.2369899999999916
21
-80.3893929999999983
0
LINE
8
BLACK
6
CONTINUOUS
10
169.2369899999999916
20
-80.3893929999999983
11
169.1280789999999854
21
-80.2263969999999915
0
LINE
8
BLACK
6
CONTINUOUS
10
169.1280789999999854
20
-80.2263969999999915
11
169.0530599999999879
21
-80.0452849999999927
0
LINE
8
BLACK
6
CONTINUOUS
10
169.0530599999999879
20
-80.0452849999999927
11
169.0148149999999987
21
-79.8530169999999941
0
LINE
8
BLACK
6
CONTINUOUS
10
169.0148149999999987
20
-79.8530169999999941
11
169.0148149999999987
21
-79.6569829999999968
0
LINE
8
BLACK
6
CONTINUOUS
10
169.0148149999999987
20
-79.6569829999999968
11
169.0530599999999879
21
-79.4647149999999982
0
LINE
8
BLACK
6
CONTINUOUS
10
169.0530599999999879
20
-79.4647149999999982
11
169.1280789999999854
21
-79.2836029999999994
0
LINE
8
BLACK
6
CONTINUOUS
10
169.1280789999999854
20
-79.2836029999999994
11
169.2369899999999916
21
-79.1206069999999926
0
LINE
8
BLACK
6
CONTINUOUS
10
169.2369899999999916
20
-79.1206069999999926
11
169.3756070000000022
21
-78.9819899999999961
0
LINE
8
BLACK
6
CONTINUOUS
10
169.3756070000000022
20
-78.9819899999999961
11
169.5386029999999948
21
-78.8730789999999899
0
LINE
8
BLACK
6
CONTINUOUS
10
169.5386029999999948
20
-78.8730789999999899
11
169.7197149999999795
21
-78.7980599999999924
0
LINE
8
BLACK
6
CONTINUOUS
10
169.7197149999999795
20
-78.7980599999999924
11
169.9119829999999922
21
-78.7598150000000032
0
LINE
8
BLACK
6
CONTINUOUS
10
169.9119829999999922
20
-78.7598150000000032
11
170.1080169999999896
21
-78.7598150000000032
0
LINE
8
BLACK
6
CONTINUOUS
10
170.1080169999999896
20
-78.7598150000000032
11
170.3002850000000024
21
-78.7980599999999924
0
LINE
8
BLACK
6
CONTINUOUS
10
167.8102849999999933
20
-77.5480599999999924
11
167.9913970000000063
21
-77.6230789999999899
0
LINE
8
BLACK
6
CONTINUOUS
10
167.9913970000000063
20
-77.6230789999999899
11
168.1543929999999989
21
-77.7319899999999961
0
LINE
8
BLACK
6
CONTINUOUS
10
168.1543929999999989
20
-77.7319899999999961
11
168.2930099999999811
21
-77.8706069999999926
0
LINE
8
BLACK
6
CONTINUOUS
10
168.2930099999999811
20
-77.8706069999999926
11
168.4019209999999873
21
-78.0336029999999994
0
LINE
8
BLACK
6
CONTINUOUS
10
168.4019209999999873
20
-78.0336029999999994
11
168.4769399999999848
21
-78.2147149999999982
0
LINE
8
BLACK
6
CONTINUOUS
10
168.4769399999999848
20
-78.2147149999999982
11
168.5151850000000024
21
-78.4069829999999968
0
LINE
8
BLACK
6
CONTINUOUS
10
168.5151850000000024
20
-78.4069829999999968
11
168.5151850000000024
21
-78.6030169999999941
0
LINE
8
BLACK
6
CONTINUOUS
10
168.5151850000000024
20
-78.6030169999999941
11
168.4769399999999848
21
-78.7952849999999927
0
LINE
8
BLACK
6
CONTINUOUS
10
168.4769399999999848
20
-78.7952849999999927
11
168.4019209999999873
21
-78.9763969999999915
0
LINE
8
BLACK
6
CONTINUOUS
10
168.4019209999999873
20
-78.9763969999999915
11
168.2930099999999811
21
-79.1393929999999983
0
LINE
8
BLACK
6
CONTINUOUS
10
168.2930099999999811
20
-79.1393929999999983
11
168.1543929999999989
21
-79.2780099999999948
0
LINE
8
BLACK
6
CONTINUOUS
10
168.1543929999999989
20
-79.2780099999999948
11
167.9913970000000063
21
-79.386921000000001
0
LINE
8
BLACK
6
CONTINUOUS
10
167.9913970000000063
20
-79.386921000000001
11
167.8102849999999933
21
-79.4619399999999985
0
LINE
8
BLACK
6
CONTINUOUS
10
167.8102849999999933
20
-79.4619399999999985
11
167.6180169999999805
21
-79.5001850000000019
0
LINE
8
BLACK
6
CONTINUOUS
10
167.6180169999999805
20
-79.5001850000000019
11
167.4219829999999831
21
-79.5001850000000019
0
LINE
8
BLACK
6
CONTINUOUS
10
167.4219829999999831
20
-79.5001850000000019
11
167.2297149999999988
21
-79.4619399999999985
0
LINE
8
BLACK
6
CONTINUOUS
10
167.2297149999999988
20
-79.4619399999999985
11
167.0486029999999857
21
-79.386921000000001
0
LINE
8
BLACK
6
CONTINUOUS
10
167.0486029999999857
20
-79.386921000000001
11
166.8856069999999931
21
-79.2780099999999948
0
LINE
8
BLACK
6
CONTINUOUS
10
166.8856069999999931
20
-79.2780099999999948
11
166.7469899999999825
21
-79.1393929999999983
0
LINE
8
BLACK
6
CONTINUOUS
10
166.7469899999999825
20
-79.1393929999999983
11
166.6380790000000047
21
-78.9763969999999915
0
LINE
8
BLACK
6
CONTINUOUS
10
166.6380790000000047
20
-78.9763969999999915
11
166.5630599999999788
21
-78.7952849999999927
0
LINE
8
BLACK
6
CONTINUOUS
10
166.5630599999999788
20
-78.7952849999999927
11
166.5248149999999896
21
-78.6030169999999941
0
LINE
8
BLACK
6
CONTINUOUS
10
166.5248149999999896
20
-78.6030169999999941
11
166.5248149999999896
21
-78.4069829999999968
0
LINE
8
BLACK
6
CONTINUOUS
10
166.5248149999999896
20
-78.4069829999999968
11
166.5630599999999788
21
-78.2147149999999982
0
LINE
8
BLACK
6
CONTINUOUS
10
166.5630599999999788
20
-78.2147149999999982
11
166.6380790000000047
21
-78.0336029999999994
0
LINE
8
BLACK
6
CONTINUOUS
10
166.6380790000000047
20
-78.0336029999999994
11
166.7469899999999825
21
-77.8706069999999926
0
LINE
8
BLACK
6
CONTINUOUS
10
166.7469899999999825
20
-77.8706069999999926
11
166.8856069999999931
21
-77.7319899999999961
0
LINE
8
BLACK
6
CONTINUOUS
10
166.8856069999999931
20
-77.7319899999999961
11
167.0486029999999857
21
-77.6230789999999899
0
LINE
8
BLACK
6
CONTINUOUS
10
167.0486029999999857
20
-77.6230789999999899
11
167.2297149999999988
21
-77.5480599999999924
0
LINE
8
BLACK
6
CONTINUOUS
10
167.2297149999999988
20
-77.5480599999999924
11
167.4219829999999831
21
-77.5098150000000032
0
LINE
8
BLACK
6
CONTINUOUS
10
167.4219829999999831
20
-77.5098150000000032
11
167.6180169999999805
21
-77.5098150000000032
0
LINE
8
BLACK
6
CONTINUOUS
10
167.6180169999999805
20
-77.5098150000000032
11
167.8102849999999933
21
-77.5480599999999924
0
LINE
8
BLACK
6
CONTINUOUS
10
167.8102849999999933
20
-73.0480599999999924
11
167.9913970000000063
21
-73.1230789999999899
0
LINE
8
BLACK
6
CONTINUOUS
10
167.9913970000000063
20
-73.1230789999999899
11
168.1543929999999989
21
-73.2319899999999961
0
LINE
8
BLACK
6
CONTINUOUS
10
168.1543929999999989
20
-73.2319899999999961
11
168.2930099999999811
21
-73.3706069999999926
0
LINE
8
BLACK
6
CONTINUOUS
10
168.2930099999999811
20
-73.3706069999999926
11
168.4019209999999873
21
-73.5336029999999994
0
LINE
8
BLACK
6
CONTINUOUS
10
168.4019209999999873
20
-73.5336029999999994
11
168.4769399999999848
21
-73.7147149999999982
0
LINE
8
BLACK
6
CONTINUOUS
10
168.4769399999999848
20
-73.7147149999999982
11
168.5151850000000024
21
-73.9069829999999968
0
LINE
8
BLACK
6
CONTINUOUS
10
168.5151850000000024
20
-73.9069829999999968
11
168.5151850000000024
21
-74.1030169999999941
0
LINE
8
BLACK
6
CONTINUOUS
10
168.5151850000000024
20
-74.1030169999999941
11
168.4769399999999848
21
-74.2952849999999927
0
LINE
8
BLACK
6
CONTINUOUS
10
168.4769399999999848
20
-74.2952849999999927
11
168.4019209999999873
21
-74.4763969999999915
0
LINE
8
BLACK
6
CONTINUOUS
10
168.4019209999999873
20
-74.4763969999999915
11
168.2930099999999811
21
-74.6393929999999983
0
LINE
8
BLACK
6
CONTINUOUS
10
168.2930099999999811
20
-74.6393929999999983
11
168.1543929999999989
21
-74.7780099999999948
0
LINE
8
BLACK
6
CONTINUOUS
10
168.1543929999999989
20
-74.7780099999999948
11
167.9913970000000063
21
-74.886921000000001
0
LINE
8
BLACK
6
CONTINUOUS
10
167.9913970000000063
20
-74.886921000000001
11
167.8102849999999933
21
-74.9619399999999985
0
LINE
8
BLACK
6
CONTINUOUS
10
167.8102849999999933
20
-74.9619399999999985
11
167.6180169999999805
21
-75.0001850000000019
0
LINE
8
BLACK
6
CONTINUOUS
10
167.6180169999999805
20
-75.0001850000000019
11
167.4219829999999831
21
-75.0001850000000019
0
LINE
8
BLACK
6
CONTINUOUS
10
167.4219829999999831
20
-75.0001850000000019
11
167.2297149999999988
21
-74.9619399999999985
0
LINE
8
BLACK
6
CONTINUOUS
10
167.2297149999999988
20
-74.9619399999999985
11
167.0486029999999857
21
-74.886921000000001
0
LINE
8
BLACK
6
CONTINUOUS
10
167.0486029999999857
20
-74.886921000000001
11
166.8856069999999931
21
-74.7780099999999948
0
LINE
8
BLACK
6
CONTINUOUS
10
166.8856069999999931
20
-74.7780099999999948
11
166.7469899999999825
21
-74.6393929999999983
0
LINE
8
BLACK
6
CONTINUOUS
10
166.7469899999999825
20
-74.6393929999999983
11
166.6380790000000047
21
-74.4763969999999915
0
LINE
8
BLACK
6
CONTINUOUS
10
166.6380790000000047
20
-74.4763969999999915
11
166.5630599999999788
21
-74.2952849999999927
0
LINE
8
BLACK
6
CONTINUOUS
10
166.5630599999999788
20
-74.2952849999999927
11
166.5248149999999896
21
-74.1030169999999941
0
LINE
8
BLACK
6
CONTINUOUS
10
166.5248149999999896
20
-74.1030169999999941
11
166.5248149999999896
21
-73.9069829999999968
0
LINE
8
BLACK
6
CONTINUOUS
10
166.5248149999999896
20
-73.9069829999999968
11
166.5630599999999788
21
-73.7147149999999982
0
LINE
8
BLACK
6
CONTINUOUS
10
166.5630599999999788
20
-73.7147149999999982
11
166.6380790000000047
21
-73.5336029999999994
0
LINE
8
BLACK
6
CONTINUOUS
10
166.6380790000000047
20
-73.5336029999999994
11
166.7469899999999825
21
-73.3706069999999926
0
LINE
8
BLACK
6
CONTINUOUS
10
166.7469899999999825
20
-73.3706069999999926
11
166.8856069999999931
21
-73.2319899999999961
0
LINE
8
BLACK
6
CONTINUOUS
10
166.8856069999999931
20
-73.2319899999999961
11
167.0486029999999857
21
-73.1230789999999899
0
LINE
8
BLACK
6
CONTINUOUS
10
167.0486029999999857
20
-73.1230789999999899
11
167.2297149999999988
21
-73.0480599999999924
0
LINE
8
BLACK
6
CONTINUOUS
10
167.2297149999999988
20
-73.0480599999999924
11
167.4219829999999831
21
-73.0098150000000032
0
LINE
8
BLACK
6
CONTINUOUS
10
167.4219829999999831
20
-73.0098150000000032
11
167.6180169999999805
21
-73.0098150000000032
0
LINE
8
BLACK
6
CONTINUOUS
10
167.6180169999999805
20
-73.0098150000000032
11
167.8102849999999933
21
-73.0480599999999924
0
LINE
8
BLACK
6
CONTINUOUS
10
170.3002850000000024
20
-71.7880600000000015
11
170.481396999999987
21
-71.863078999999999
0
LINE
8
BLACK
6
CONTINUOUS
10
170.481396999999987
20
-71.863078999999999
11
170.6443929999999796
21
-71.971989999999991
0
LINE
8
BLACK
6
CONTINUOUS
10
170.6443929999999796
20
-71.971989999999991
11
170.7830099999999902
21
-72.1106070000000017
0
LINE
8
BLACK
6
CONTINUOUS
10
170.7830099999999902
20
-72.1106070000000017
11
170.8919209999999964
21
-72.2736029999999943
0
LINE
8
BLACK
6
CONTINUOUS
10
170.8919209999999964
20
-72.2736029999999943
11
170.9669399999999939
21
-72.4547149999999931
0
LINE
8
BLACK
6
CONTINUOUS
10
170.9669399999999939
20
-72.4547149999999931
11
171.0051849999999831
21
-72.6469829999999916
0
LINE
8
BLACK
6
CONTINUOUS
10
171.0051849999999831
20
-72.6469829999999916
11
171.0051849999999831
21
-72.8430170000000032
0
LINE
8
BLACK
6
CONTINUOUS
10
171.0051849999999831
20
-72.8430170000000032
11
170.9669399999999939
21
-73.0352850000000018
0
LINE
8
BLACK
6
CONTINUOUS
10
170.9669399999999939
20
-73.0352850000000018
11
170.8919209999999964
21
-73.2163970000000006
0
LINE
8
BLACK
6
CONTINUOUS
10
170.8919209999999964
20
-73.2163970000000006
11
170.7830099999999902
21
-73.3793929999999932
0
LINE
8
BLACK
6
CONTINUOUS
10
170.7830099999999902
20
-73.3793929999999932
11
170.6443929999999796
21
-73.5180099999999896
0
LINE
8
BLACK
6
CONTINUOUS
10
170.6443929999999796
20
-73.5180099999999896
11
170.481396999999987
21
-73.6269209999999958
0
LINE
8
BLACK
6
CONTINUOUS
10
170.481396999999987
20
-73.6269209999999958
11
170.3002850000000024
21
-73.7019399999999933
0
LINE
8
BLACK
6
CONTINUOUS
10
170.3002850000000024
20
-73.7019399999999933
11
170.1080169999999896
21
-73.7401849999999968
0
LINE
8
BLACK
6
CONTINUOUS
10
170.1080169999999896
20
-73.7401849999999968
11
169.9119829999999922
21
-73.7401849999999968
0
LINE
8
BLACK
6
CONTINUOUS
10
169.9119829999999922
20
-73.7401849999999968
11
169.7197149999999795
21
-73.7019399999999933
0
LINE
8
BLACK
6
CONTINUOUS
10
169.7197149999999795
20
-73.7019399999999933
11
169.5386029999999948
21
-73.6269209999999958
0
LINE
8
BLACK
6
CONTINUOUS
10
169.5386029999999948
20
-73.6269209999999958
11
169.3756070000000022
21
-73.5180099999999896
0
LINE
8
BLACK
6
CONTINUOUS
10
169.3756070000000022
20
-73.5180099999999896
11
169.2369899999999916
21
-73.3793929999999932
0
LINE
8
BLACK
6
CONTINUOUS
10
169.2369899999999916
20
-73.3793929999999932
11
169.1280789999999854
21
-73.2163970000000006
0
LINE
8
BLACK
6
CONTINUOUS
10
169.1280789999999854
20
-73.2163970000000006
11
169.0530599999999879
21
-73.0352850000000018
0
LINE
8
BLACK
6
CONTINUOUS
10
169.0530599999999879
20
-73.0352850000000018
11
169.0148149999999987
21
-72.8430170000000032
0
LINE
8
BLACK
6
CONTINUOUS
10
169.0148149999999987
20
-72.8430170000000032
11
169.0148149999999987
21
-72.6469829999999916
0
LINE
8
BLACK
6
CONTINUOUS
10
169.0148149999999987
20
-72.6469829999999916
11
169.0530599999999879
21
-72.4547149999999931
0
LINE
8
BLACK
6
CONTINUOUS
10
169.0530599999999879
20
-72.4547149999999931
11
169.1280789999999854
21
-72.2736029999999943
0
LINE
8
BLACK
6
CONTINUOUS
10
169.1280789999999854
20
-72.2736029999999943
11
169.2369899999999916
21
-72.1106070000000017
0
LINE
8
BLACK
6
CONTINUOUS
10
169.2369899999999916
20
-72.1106070000000017
11
169.3756070000000022
21
-71.971989999999991
0
LINE
8
BLACK
6
CONTINUOUS
10
169.3756070000000022
20
-71.971989999999991
11
169.5386029999999948
21
-71.863078999999999
0
LINE
8
BLACK
6
CONTINUOUS
10
169.5386029999999948
20
-71.863078999999999
11
169.7197149999999795
21
-71.7880600000000015
0
LINE
8
BLACK
6
CONTINUOUS
10
169.7197149999999795
20
-71.7880600000000015
11
169.9119829999999922
21
-71.7498149999999981
0
LINE
8
BLACK
6
CONTINUOUS
10
169.9119829999999922
20
-71.7498149999999981
11
170.1080169999999896
21
-71.7498149999999981
0
LINE
8
BLACK
6
CONTINUOUS
10
170.1080169999999896
20
-71.7498149999999981
11
170.3002850000000024
21
-71.7880600000000015
  0
ENDSEC
  0
EOF
