  0
SECTION
  2
HEADER
  9
$ANGBASE
  50
0.0
  9
$ANGDIR
  70
1
  9
$MEASUREMENT
  70
1
  0
ENDSEC
  0
SECTION
  2
TABLES
  0
TABLE
  2
LTYPE
  70
4
  0
LTYPE
  5
40F
  2
CONTINUOUS
  70
0
  3
Solid line
  72
65
  73
0
  40
0.0
  0
LTYPE
  5
410
  2
DASHDOT
 70
0
  3
Dash Dot ____ _ ____ _
 72
65
 73
4
 40
2.0
 49
1.25
 49
-0.25
 49
0.25
 49
-0.25
  0
LTYPE
  5
411
  2
DASHED
 70
0
  3
Dashed __ __ __ __ __
 72
65
 73
2
 40
0.75
 49
0.5
 49
-0.25
  0
LTYPE
  5
43B
  2
DOTTED
 70
0
  3
Dotted .  .  .  .
 72
65
 73
2
 40
0.2
 49
0.0
 49
-0.2
  0
ENDTAB
  0
TABLE
  2
STYLE
  70
4
  0
STYLE
  2
KICAD
  70
0
  40
0
  41
1
  42
1
  50
0
  71
0
  3
isocp.shx
  0
STYLE
  2
KICADB
  70
0
  40
0
  41
1
  42
1
  50
0
  71
0
  3
isocp.shx
  0
STYLE
  2
KICADI
  70
0
  40
0
  41
1
  42
1
  50
15
  71
0
  3
isocp.shx
  0
STYLE
  2
KICADBI
  70
0
  40
0
  41
1
  42
1
  50
15
  71
0
  3
isocp.shx
  0
ENDTAB
  0
TABLE
  2
LAYER
  70
1
  0
LAYER
  2
BLACK
  70
0
  62
7
  6
CONTINUOUS
  0
ENDTAB
  0
ENDSEC
  0
SECTION
  2
ENTITIES
0
LINE
8
BLACK
6
CONTINUOUS
10
191.7749999999999773
20
-92.5
11
189.1749999999999829
21
-92.5
0
LINE
8
BLACK
6
CONTINUOUS
10
189.1749999999999829
20
-92.5
11
189.1749999999999829
21
-89.8999999999999915
0
LINE
8
BLACK
6
CONTINUOUS
10
189.1749999999999829
20
-89.8999999999999915
11
191.7749999999999773
21
-89.8999999999999915
0
LINE
8
BLACK
6
CONTINUOUS
10
191.7749999999999773
20
-89.8999999999999915
11
191.7749999999999773
21
-92.5
0
LINE
8
BLACK
6
CONTINUOUS
10
248.7749999999999773
20
-92.3999999999999915
11
246.1749999999999829
21
-92.3999999999999915
0
LINE
8
BLACK
6
CONTINUOUS
10
246.1749999999999829
20
-92.3999999999999915
11
246.1749999999999829
21
-89.7999999999999972
0
LINE
8
BLACK
6
CONTINUOUS
10
246.1749999999999829
20
-89.7999999999999972
11
248.7749999999999773
21
-89.7999999999999972
0
LINE
8
BLACK
6
CONTINUOUS
10
248.7749999999999773
20
-89.7999999999999972
11
248.7749999999999773
21
-92.3999999999999915
0
LINE
8
BLACK
6
CONTINUOUS
10
180.2249999999999943
20
-90.2999999999999972
11
177.625
21
-90.2999999999999972
0
LINE
8
BLACK
6
CONTINUOUS
10
177.625
20
-90.2999999999999972
11
177.625
21
-87.7000000000000028
0
LINE
8
BLACK
6
CONTINUOUS
10
177.625
20
-87.7000000000000028
11
180.2249999999999943
21
-87.7000000000000028
0
LINE
8
BLACK
6
CONTINUOUS
10
180.2249999999999943
20
-87.7000000000000028
11
180.2249999999999943
21
-90.2999999999999972
0
LINE
8
BLACK
6
CONTINUOUS
10
237.2249999999999943
20
-90.2000000000000028
11
234.625
21
-90.2000000000000028
0
LINE
8
BLACK
6
CONTINUOUS
10
234.625
20
-90.2000000000000028
11
234.625
21
-87.5999999999999943
0
LINE
8
BLACK
6
CONTINUOUS
10
234.625
20
-87.5999999999999943
11
237.2249999999999943
21
-87.5999999999999943
0
LINE
8
BLACK
6
CONTINUOUS
10
237.2249999999999943
20
-87.5999999999999943
11
237.2249999999999943
21
-90.2000000000000028
0
LINE
8
BLACK
6
CONTINUOUS
10
174.7092979999999898
20
-83.6690299999999922
11
174.7904039999999952
21
-83.7232229999999902
0
LINE
8
BLACK
6
CONTINUOUS
10
174.7904039999999952
20
-83.7232229999999902
11
174.8445969999999932
21
-83.8043289999999956
0
LINE
8
BLACK
6
CONTINUOUS
10
174.8445969999999932
20
-83.8043289999999956
11
174.8636269999999797
21
-83.8999999999999915
0
LINE
8
BLACK
6
CONTINUOUS
10
174.8636269999999797
20
-83.8999999999999915
11
174.8636269999999797
21
-84.7999999999999972
0
LINE
8
BLACK
6
CONTINUOUS
10
174.8636269999999797
20
-84.7999999999999972
11
174.8445969999999932
21
-84.895670999999993
0
LINE
8
BLACK
6
CONTINUOUS
10
174.8445969999999932
20
-84.895670999999993
11
174.7904039999999952
21
-84.9767769999999985
0
LINE
8
BLACK
6
CONTINUOUS
10
174.7904039999999952
20
-84.9767769999999985
11
174.7092979999999898
21
-85.0309699999999964
0
LINE
8
BLACK
6
CONTINUOUS
10
174.7092979999999898
20
-85.0309699999999964
11
174.6136269999999797
21
-85.0499999999999972
0
LINE
8
BLACK
6
CONTINUOUS
10
174.6136269999999797
20
-85.0499999999999972
11
173.9136269999999911
21
-85.0499999999999972
0
LINE
8
BLACK
6
CONTINUOUS
10
173.9136269999999911
20
-85.0499999999999972
11
173.817955999999981
21
-85.0309699999999964
0
LINE
8
BLACK
6
CONTINUOUS
10
173.817955999999981
20
-85.0309699999999964
11
173.736850000000004
21
-84.9767769999999985
0
LINE
8
BLACK
6
CONTINUOUS
10
173.736850000000004
20
-84.9767769999999985
11
173.6826570000000061
21
-84.895670999999993
0
LINE
8
BLACK
6
CONTINUOUS
10
173.6826570000000061
20
-84.895670999999993
11
173.6636269999999911
21
-84.7999999999999972
0
LINE
8
BLACK
6
CONTINUOUS
10
173.6636269999999911
20
-84.7999999999999972
11
173.6636269999999911
21
-83.8999999999999915
0
LINE
8
BLACK
6
CONTINUOUS
10
173.6636269999999911
20
-83.8999999999999915
11
173.6826570000000061
21
-83.8043289999999956
0
LINE
8
BLACK
6
CONTINUOUS
10
173.6826570000000061
20
-83.8043289999999956
11
173.736850000000004
21
-83.7232229999999902
0
LINE
8
BLACK
6
CONTINUOUS
10
173.736850000000004
20
-83.7232229999999902
11
173.817955999999981
21
-83.6690299999999922
0
LINE
8
BLACK
6
CONTINUOUS
10
173.817955999999981
20
-83.6690299999999922
11
173.9136269999999911
21
-83.6499999999999915
0
LINE
8
BLACK
6
CONTINUOUS
10
173.9136269999999911
20
-83.6499999999999915
11
174.6136269999999797
21
-83.6499999999999915
0
LINE
8
BLACK
6
CONTINUOUS
10
174.6136269999999797
20
-83.6499999999999915
11
174.7092979999999898
21
-83.6690299999999922
0
LINE
8
BLACK
6
CONTINUOUS
10
176.7092979999999898
20
-83.6690299999999922
11
176.7904039999999952
21
-83.7232229999999902
0
LINE
8
BLACK
6
CONTINUOUS
10
176.7904039999999952
20
-83.7232229999999902
11
176.8445969999999932
21
-83.8043289999999956
0
LINE
8
BLACK
6
CONTINUOUS
10
176.8445969999999932
20
-83.8043289999999956
11
176.8636269999999797
21
-83.8999999999999915
0
LINE
8
BLACK
6
CONTINUOUS
10
176.8636269999999797
20
-83.8999999999999915
11
176.8636269999999797
21
-84.7999999999999972
0
LINE
8
BLACK
6
CONTINUOUS
10
176.8636269999999797
20
-84.7999999999999972
11
176.8445969999999932
21
-84.895670999999993
0
LINE
8
BLACK
6
CONTINUOUS
10
176.8445969999999932
20
-84.895670999999993
11
176.7904039999999952
21
-84.9767769999999985
0
LINE
8
BLACK
6
CONTINUOUS
10
176.7904039999999952
20
-84.9767769999999985
11
176.7092979999999898
21
-85.0309699999999964
0
LINE
8
BLACK
6
CONTINUOUS
10
176.7092979999999898
20
-85.0309699999999964
11
176.6136269999999797
21
-85.0499999999999972
0
LINE
8
BLACK
6
CONTINUOUS
10
176.6136269999999797
20
-85.0499999999999972
11
175.9136269999999911
21
-85.0499999999999972
0
LINE
8
BLACK
6
CONTINUOUS
10
175.9136269999999911
20
-85.0499999999999972
11
175.817955999999981
21
-85.0309699999999964
0
LINE
8
BLACK
6
CONTINUOUS
10
175.817955999999981
20
-85.0309699999999964
11
175.736850000000004
21
-84.9767769999999985
0
LINE
8
BLACK
6
CONTINUOUS
10
175.736850000000004
20
-84.9767769999999985
11
175.6826570000000061
21
-84.895670999999993
0
LINE
8
BLACK
6
CONTINUOUS
10
175.6826570000000061
20
-84.895670999999993
11
175.6636269999999911
21
-84.7999999999999972
0
LINE
8
BLACK
6
CONTINUOUS
10
175.6636269999999911
20
-84.7999999999999972
11
175.6636269999999911
21
-83.8999999999999915
0
LINE
8
BLACK
6
CONTINUOUS
10
175.6636269999999911
20
-83.8999999999999915
11
175.6826570000000061
21
-83.8043289999999956
0
LINE
8
BLACK
6
CONTINUOUS
10
175.6826570000000061
20
-83.8043289999999956
11
175.736850000000004
21
-83.7232229999999902
0
LINE
8
BLACK
6
CONTINUOUS
10
175.736850000000004
20
-83.7232229999999902
11
175.817955999999981
21
-83.6690299999999922
0
LINE
8
BLACK
6
CONTINUOUS
10
175.817955999999981
20
-83.6690299999999922
11
175.9136269999999911
21
-83.6499999999999915
0
LINE
8
BLACK
6
CONTINUOUS
10
175.9136269999999911
20
-83.6499999999999915
11
176.6136269999999797
21
-83.6499999999999915
0
LINE
8
BLACK
6
CONTINUOUS
10
176.6136269999999797
20
-83.6499999999999915
11
176.7092979999999898
21
-83.6690299999999922
0
LINE
8
BLACK
6
CONTINUOUS
10
180.8028349999999875
20
-84.5145150000000029
11
180.8433880000000045
21
-84.5416120000000006
0
LINE
8
BLACK
6
CONTINUOUS
10
180.8433880000000045
20
-84.5416120000000006
11
180.8704850000000022
21
-84.5821649999999892
0
LINE
8
BLACK
6
CONTINUOUS
10
180.8704850000000022
20
-84.5821649999999892
11
180.8799999999999955
21
-84.6299999999999955
0
LINE
8
BLACK
6
CONTINUOUS
10
180.8799999999999955
20
-84.6299999999999955
11
180.8799999999999955
21
-84.8799999999999955
0
LINE
8
BLACK
6
CONTINUOUS
10
180.8799999999999955
20
-84.8799999999999955
11
180.8704850000000022
21
-84.9278350000000017
0
LINE
8
BLACK
6
CONTINUOUS
10
180.8704850000000022
20
-84.9278350000000017
11
180.8433880000000045
21
-84.9683879999999903
0
LINE
8
BLACK
6
CONTINUOUS
10
180.8433880000000045
20
-84.9683879999999903
11
180.8028349999999875
21
-84.9954850000000022
0
LINE
8
BLACK
6
CONTINUOUS
10
180.8028349999999875
20
-84.9954850000000022
11
180.7549999999999955
21
-85.0049999999999955
0
LINE
8
BLACK
6
CONTINUOUS
10
180.7549999999999955
20
-85.0049999999999955
11
179.1049999999999898
21
-85.0049999999999955
0
LINE
8
BLACK
6
CONTINUOUS
10
179.1049999999999898
20
-85.0049999999999955
11
179.0571649999999977
21
-84.9954850000000022
0
LINE
8
BLACK
6
CONTINUOUS
10
179.0571649999999977
20
-84.9954850000000022
11
179.0166119999999808
21
-84.9683879999999903
0
LINE
8
BLACK
6
CONTINUOUS
10
179.0166119999999808
20
-84.9683879999999903
11
178.989514999999983
21
-84.9278350000000017
0
LINE
8
BLACK
6
CONTINUOUS
10
178.989514999999983
20
-84.9278350000000017
11
178.9799999999999898
21
-84.8799999999999955
0
LINE
8
BLACK
6
CONTINUOUS
10
178.9799999999999898
20
-84.8799999999999955
11
178.9799999999999898
21
-84.6299999999999955
0
LINE
8
BLACK
6
CONTINUOUS
10
178.9799999999999898
20
-84.6299999999999955
11
178.989514999999983
21
-84.5821649999999892
0
LINE
8
BLACK
6
CONTINUOUS
10
178.989514999999983
20
-84.5821649999999892
11
179.0166119999999808
21
-84.5416120000000006
0
LINE
8
BLACK
6
CONTINUOUS
10
179.0166119999999808
20
-84.5416120000000006
11
179.0571649999999977
21
-84.5145150000000029
0
LINE
8
BLACK
6
CONTINUOUS
10
179.0571649999999977
20
-84.5145150000000029
11
179.1049999999999898
21
-84.5049999999999955
0
LINE
8
BLACK
6
CONTINUOUS
10
179.1049999999999898
20
-84.5049999999999955
11
180.7549999999999955
21
-84.5049999999999955
0
LINE
8
BLACK
6
CONTINUOUS
10
180.7549999999999955
20
-84.5049999999999955
11
180.8028349999999875
21
-84.5145150000000029
0
LINE
8
BLACK
6
CONTINUOUS
10
187.8028349999999875
20
-84.5145150000000029
11
187.8433880000000045
21
-84.5416120000000006
0
LINE
8
BLACK
6
CONTINUOUS
10
187.8433880000000045
20
-84.5416120000000006
11
187.8704850000000022
21
-84.5821649999999892
0
LINE
8
BLACK
6
CONTINUOUS
10
187.8704850000000022
20
-84.5821649999999892
11
187.8799999999999955
21
-84.6299999999999955
0
LINE
8
BLACK
6
CONTINUOUS
10
187.8799999999999955
20
-84.6299999999999955
11
187.8799999999999955
21
-84.8799999999999955
0
LINE
8
BLACK
6
CONTINUOUS
10
187.8799999999999955
20
-84.8799999999999955
11
187.8704850000000022
21
-84.9278350000000017
0
LINE
8
BLACK
6
CONTINUOUS
10
187.8704850000000022
20
-84.9278350000000017
11
187.8433880000000045
21
-84.9683879999999903
0
LINE
8
BLACK
6
CONTINUOUS
10
187.8433880000000045
20
-84.9683879999999903
11
187.8028349999999875
21
-84.9954850000000022
0
LINE
8
BLACK
6
CONTINUOUS
10
187.8028349999999875
20
-84.9954850000000022
11
187.7549999999999955
21
-85.0049999999999955
0
LINE
8
BLACK
6
CONTINUOUS
10
187.7549999999999955
20
-85.0049999999999955
11
186.1049999999999898
21
-85.0049999999999955
0
LINE
8
BLACK
6
CONTINUOUS
10
186.1049999999999898
20
-85.0049999999999955
11
186.0571649999999977
21
-84.9954850000000022
0
LINE
8
BLACK
6
CONTINUOUS
10
186.0571649999999977
20
-84.9954850000000022
11
186.0166119999999808
21
-84.9683879999999903
0
LINE
8
BLACK
6
CONTINUOUS
10
186.0166119999999808
20
-84.9683879999999903
11
185.989514999999983
21
-84.9278350000000017
0
LINE
8
BLACK
6
CONTINUOUS
10
185.989514999999983
20
-84.9278350000000017
11
185.9799999999999898
21
-84.8799999999999955
0
LINE
8
BLACK
6
CONTINUOUS
10
185.9799999999999898
20
-84.8799999999999955
11
185.9799999999999898
21
-84.6299999999999955
0
LINE
8
BLACK
6
CONTINUOUS
10
185.9799999999999898
20
-84.6299999999999955
11
185.989514999999983
21
-84.5821649999999892
0
LINE
8
BLACK
6
CONTINUOUS
10
185.989514999999983
20
-84.5821649999999892
11
186.0166119999999808
21
-84.5416120000000006
0
LINE
8
BLACK
6
CONTINUOUS
10
186.0166119999999808
20
-84.5416120000000006
11
186.0571649999999977
21
-84.5145150000000029
0
LINE
8
BLACK
6
CONTINUOUS
10
186.0571649999999977
20
-84.5145150000000029
11
186.1049999999999898
21
-84.5049999999999955
0
LINE
8
BLACK
6
CONTINUOUS
10
186.1049999999999898
20
-84.5049999999999955
11
187.7549999999999955
21
-84.5049999999999955
0
LINE
8
BLACK
6
CONTINUOUS
10
187.7549999999999955
20
-84.5049999999999955
11
187.8028349999999875
21
-84.5145150000000029
0
LINE
8
BLACK
6
CONTINUOUS
10
210.7749999999999773
20
-84.8699999999999903
11
208.1749999999999829
21
-84.8699999999999903
0
LINE
8
BLACK
6
CONTINUOUS
10
208.1749999999999829
20
-84.8699999999999903
11
208.1749999999999829
21
-82.269999999999996
0
LINE
8
BLACK
6
CONTINUOUS
10
208.1749999999999829
20
-82.269999999999996
11
210.7749999999999773
21
-82.269999999999996
0
LINE
8
BLACK
6
CONTINUOUS
10
210.7749999999999773
20
-82.269999999999996
11
210.7749999999999773
21
-84.8699999999999903
0
LINE
8
BLACK
6
CONTINUOUS
10
229.7749999999999773
20
-84.8699999999999903
11
227.1749999999999829
21
-84.8699999999999903
0
LINE
8
BLACK
6
CONTINUOUS
10
227.1749999999999829
20
-84.8699999999999903
11
227.1749999999999829
21
-82.269999999999996
0
LINE
8
BLACK
6
CONTINUOUS
10
227.1749999999999829
20
-82.269999999999996
11
229.7749999999999773
21
-82.269999999999996
0
LINE
8
BLACK
6
CONTINUOUS
10
229.7749999999999773
20
-82.269999999999996
11
229.7749999999999773
21
-84.8699999999999903
0
LINE
8
BLACK
6
CONTINUOUS
10
180.8028349999999875
20
-83.8645149999999973
11
180.8433880000000045
21
-83.891611999999995
0
LINE
8
BLACK
6
CONTINUOUS
10
180.8433880000000045
20
-83.891611999999995
11
180.8704850000000022
21
-83.9321649999999977
0
LINE
8
BLACK
6
CONTINUOUS
10
180.8704850000000022
20
-83.9321649999999977
11
180.8799999999999955
21
-83.9799999999999898
0
LINE
8
BLACK
6
CONTINUOUS
10
180.8799999999999955
20
-83.9799999999999898
11
180.8799999999999955
21
-84.2299999999999898
0
LINE
8
BLACK
6
CONTINUOUS
10
180.8799999999999955
20
-84.2299999999999898
11
180.8704850000000022
21
-84.2778349999999961
0
LINE
8
BLACK
6
CONTINUOUS
10
180.8704850000000022
20
-84.2778349999999961
11
180.8433880000000045
21
-84.3183879999999988
0
LINE
8
BLACK
6
CONTINUOUS
10
180.8433880000000045
20
-84.3183879999999988
11
180.8028349999999875
21
-84.3454849999999965
0
LINE
8
BLACK
6
CONTINUOUS
10
180.8028349999999875
20
-84.3454849999999965
11
180.7549999999999955
21
-84.3549999999999898
0
LINE
8
BLACK
6
CONTINUOUS
10
180.7549999999999955
20
-84.3549999999999898
11
179.1049999999999898
21
-84.3549999999999898
0
LINE
8
BLACK
6
CONTINUOUS
10
179.1049999999999898
20
-84.3549999999999898
11
179.0571649999999977
21
-84.3454849999999965
0
LINE
8
BLACK
6
CONTINUOUS
10
179.0571649999999977
20
-84.3454849999999965
11
179.0166119999999808
21
-84.3183879999999988
0
LINE
8
BLACK
6
CONTINUOUS
10
179.0166119999999808
20
-84.3183879999999988
11
178.989514999999983
21
-84.2778349999999961
0
LINE
8
BLACK
6
CONTINUOUS
10
178.989514999999983
20
-84.2778349999999961
11
178.9799999999999898
21
-84.2299999999999898
0
LINE
8
BLACK
6
CONTINUOUS
10
178.9799999999999898
20
-84.2299999999999898
11
178.9799999999999898
21
-83.9799999999999898
0
LINE
8
BLACK
6
CONTINUOUS
10
178.9799999999999898
20
-83.9799999999999898
11
178.989514999999983
21
-83.9321649999999977
0
LINE
8
BLACK
6
CONTINUOUS
10
178.989514999999983
20
-83.9321649999999977
11
179.0166119999999808
21
-83.891611999999995
0
LINE
8
BLACK
6
CONTINUOUS
10
179.0166119999999808
20
-83.891611999999995
11
179.0571649999999977
21
-83.8645149999999973
0
LINE
8
BLACK
6
CONTINUOUS
10
179.0571649999999977
20
-83.8645149999999973
11
179.1049999999999898
21
-83.8549999999999898
0
LINE
8
BLACK
6
CONTINUOUS
10
179.1049999999999898
20
-83.8549999999999898
11
180.7549999999999955
21
-83.8549999999999898
0
LINE
8
BLACK
6
CONTINUOUS
10
180.7549999999999955
20
-83.8549999999999898
11
180.8028349999999875
21
-83.8645149999999973
0
LINE
8
BLACK
6
CONTINUOUS
10
187.8028349999999875
20
-83.8645149999999973
11
187.8433880000000045
21
-83.891611999999995
0
LINE
8
BLACK
6
CONTINUOUS
10
187.8433880000000045
20
-83.891611999999995
11
187.8704850000000022
21
-83.9321649999999977
0
LINE
8
BLACK
6
CONTINUOUS
10
187.8704850000000022
20
-83.9321649999999977
11
187.8799999999999955
21
-83.9799999999999898
0
LINE
8
BLACK
6
CONTINUOUS
10
187.8799999999999955
20
-83.9799999999999898
11
187.8799999999999955
21
-84.2299999999999898
0
LINE
8
BLACK
6
CONTINUOUS
10
187.8799999999999955
20
-84.2299999999999898
11
187.8704850000000022
21
-84.2778349999999961
0
LINE
8
BLACK
6
CONTINUOUS
10
187.8704850000000022
20
-84.2778349999999961
11
187.8433880000000045
21
-84.3183879999999988
0
LINE
8
BLACK
6
CONTINUOUS
10
187.8433880000000045
20
-84.3183879999999988
11
187.8028349999999875
21
-84.3454849999999965
0
LINE
8
BLACK
6
CONTINUOUS
10
187.8028349999999875
20
-84.3454849999999965
11
187.7549999999999955
21
-84.3549999999999898
0
LINE
8
BLACK
6
CONTINUOUS
10
187.7549999999999955
20
-84.3549999999999898
11
186.1049999999999898
21
-84.3549999999999898
0
LINE
8
BLACK
6
CONTINUOUS
10
186.1049999999999898
20
-84.3549999999999898
11
186.0571649999999977
21
-84.3454849999999965
0
LINE
8
BLACK
6
CONTINUOUS
10
186.0571649999999977
20
-84.3454849999999965
11
186.0166119999999808
21
-84.3183879999999988
0
LINE
8
BLACK
6
CONTINUOUS
10
186.0166119999999808
20
-84.3183879999999988
11
185.989514999999983
21
-84.2778349999999961
0
LINE
8
BLACK
6
CONTINUOUS
10
185.989514999999983
20
-84.2778349999999961
11
185.9799999999999898
21
-84.2299999999999898
0
LINE
8
BLACK
6
CONTINUOUS
10
185.9799999999999898
20
-84.2299999999999898
11
185.9799999999999898
21
-83.9799999999999898
0
LINE
8
BLACK
6
CONTINUOUS
10
185.9799999999999898
20
-83.9799999999999898
11
185.989514999999983
21
-83.9321649999999977
0
LINE
8
BLACK
6
CONTINUOUS
10
185.989514999999983
20
-83.9321649999999977
11
186.0166119999999808
21
-83.891611999999995
0
LINE
8
BLACK
6
CONTINUOUS
10
186.0166119999999808
20
-83.891611999999995
11
186.0571649999999977
21
-83.8645149999999973
0
LINE
8
BLACK
6
CONTINUOUS
10
186.0571649999999977
20
-83.8645149999999973
11
186.1049999999999898
21
-83.8549999999999898
0
LINE
8
BLACK
6
CONTINUOUS
10
186.1049999999999898
20
-83.8549999999999898
11
187.7549999999999955
21
-83.8549999999999898
0
LINE
8
BLACK
6
CONTINUOUS
10
187.7549999999999955
20
-83.8549999999999898
11
187.8028349999999875
21
-83.8645149999999973
0
LINE
8
BLACK
6
CONTINUOUS
10
190.2856709999999794
20
-82.7490299999999905
11
190.3667769999999848
21
-82.8032230000000027
0
LINE
8
BLACK
6
CONTINUOUS
10
190.3667769999999848
20
-82.8032230000000027
11
190.4209699999999827
21
-82.8843289999999939
0
LINE
8
BLACK
6
CONTINUOUS
10
190.4209699999999827
20
-82.8843289999999939
11
190.4399999999999977
21
-82.9799999999999898
0
LINE
8
BLACK
6
CONTINUOUS
10
190.4399999999999977
20
-82.9799999999999898
11
190.4399999999999977
21
-83.8799999999999955
0
LINE
8
BLACK
6
CONTINUOUS
10
190.4399999999999977
20
-83.8799999999999955
11
190.4209699999999827
21
-83.9756709999999913
0
LINE
8
BLACK
6
CONTINUOUS
10
190.4209699999999827
20
-83.9756709999999913
11
190.3667769999999848
21
-84.0567769999999967
0
LINE
8
BLACK
6
CONTINUOUS
10
190.3667769999999848
20
-84.0567769999999967
11
190.2856709999999794
21
-84.1109699999999947
0
LINE
8
BLACK
6
CONTINUOUS
10
190.2856709999999794
20
-84.1109699999999947
11
190.1899999999999977
21
-84.1299999999999955
0
LINE
8
BLACK
6
CONTINUOUS
10
190.1899999999999977
20
-84.1299999999999955
11
189.4899999999999807
21
-84.1299999999999955
0
LINE
8
BLACK
6
CONTINUOUS
10
189.4899999999999807
20
-84.1299999999999955
11
189.394328999999999
21
-84.1109699999999947
0
LINE
8
BLACK
6
CONTINUOUS
10
189.394328999999999
20
-84.1109699999999947
11
189.3132229999999936
21
-84.0567769999999967
0
LINE
8
BLACK
6
CONTINUOUS
10
189.3132229999999936
20
-84.0567769999999967
11
189.2590299999999957
21
-83.9756709999999913
0
LINE
8
BLACK
6
CONTINUOUS
10
189.2590299999999957
20
-83.9756709999999913
11
189.2399999999999807
21
-83.8799999999999955
0
LINE
8
BLACK
6
CONTINUOUS
10
189.2399999999999807
20
-83.8799999999999955
11
189.2399999999999807
21
-82.9799999999999898
0
LINE
8
BLACK
6
CONTINUOUS
10
189.2399999999999807
20
-82.9799999999999898
11
189.2590299999999957
21
-82.8843289999999939
0
LINE
8
BLACK
6
CONTINUOUS
10
189.2590299999999957
20
-82.8843289999999939
11
189.3132229999999936
21
-82.8032230000000027
0
LINE
8
BLACK
6
CONTINUOUS
10
189.3132229999999936
20
-82.8032230000000027
11
189.394328999999999
21
-82.7490299999999905
0
LINE
8
BLACK
6
CONTINUOUS
10
189.394328999999999
20
-82.7490299999999905
11
189.4899999999999807
21
-82.7299999999999898
0
LINE
8
BLACK
6
CONTINUOUS
10
189.4899999999999807
20
-82.7299999999999898
11
190.1899999999999977
21
-82.7299999999999898
0
LINE
8
BLACK
6
CONTINUOUS
10
190.1899999999999977
20
-82.7299999999999898
11
190.2856709999999794
21
-82.7490299999999905
0
LINE
8
BLACK
6
CONTINUOUS
10
192.2856709999999794
20
-82.7490299999999905
11
192.3667769999999848
21
-82.8032230000000027
0
LINE
8
BLACK
6
CONTINUOUS
10
192.3667769999999848
20
-82.8032230000000027
11
192.4209699999999827
21
-82.8843289999999939
0
LINE
8
BLACK
6
CONTINUOUS
10
192.4209699999999827
20
-82.8843289999999939
11
192.4399999999999977
21
-82.9799999999999898
0
LINE
8
BLACK
6
CONTINUOUS
10
192.4399999999999977
20
-82.9799999999999898
11
192.4399999999999977
21
-83.8799999999999955
0
LINE
8
BLACK
6
CONTINUOUS
10
192.4399999999999977
20
-83.8799999999999955
11
192.4209699999999827
21
-83.9756709999999913
0
LINE
8
BLACK
6
CONTINUOUS
10
192.4209699999999827
20
-83.9756709999999913
11
192.3667769999999848
21
-84.0567769999999967
0
LINE
8
BLACK
6
CONTINUOUS
10
192.3667769999999848
20
-84.0567769999999967
11
192.2856709999999794
21
-84.1109699999999947
0
LINE
8
BLACK
6
CONTINUOUS
10
192.2856709999999794
20
-84.1109699999999947
11
192.1899999999999977
21
-84.1299999999999955
0
LINE
8
BLACK
6
CONTINUOUS
10
192.1899999999999977
20
-84.1299999999999955
11
191.4899999999999807
21
-84.1299999999999955
0
LINE
8
BLACK
6
CONTINUOUS
10
191.4899999999999807
20
-84.1299999999999955
11
191.394328999999999
21
-84.1109699999999947
0
LINE
8
BLACK
6
CONTINUOUS
10
191.394328999999999
20
-84.1109699999999947
11
191.3132229999999936
21
-84.0567769999999967
0
LINE
8
BLACK
6
CONTINUOUS
10
191.3132229999999936
20
-84.0567769999999967
11
191.2590299999999957
21
-83.9756709999999913
0
LINE
8
BLACK
6
CONTINUOUS
10
191.2590299999999957
20
-83.9756709999999913
11
191.2399999999999807
21
-83.8799999999999955
0
LINE
8
BLACK
6
CONTINUOUS
10
191.2399999999999807
20
-83.8799999999999955
11
191.2399999999999807
21
-82.9799999999999898
0
LINE
8
BLACK
6
CONTINUOUS
10
191.2399999999999807
20
-82.9799999999999898
11
191.2590299999999957
21
-82.8843289999999939
0
LINE
8
BLACK
6
CONTINUOUS
10
191.2590299999999957
20
-82.8843289999999939
11
191.3132229999999936
21
-82.8032230000000027
0
LINE
8
BLACK
6
CONTINUOUS
10
191.3132229999999936
20
-82.8032230000000027
11
191.394328999999999
21
-82.7490299999999905
0
LINE
8
BLACK
6
CONTINUOUS
10
191.394328999999999
20
-82.7490299999999905
11
191.4899999999999807
21
-82.7299999999999898
0
LINE
8
BLACK
6
CONTINUOUS
10
191.4899999999999807
20
-82.7299999999999898
11
192.1899999999999977
21
-82.7299999999999898
0
LINE
8
BLACK
6
CONTINUOUS
10
192.1899999999999977
20
-82.7299999999999898
11
192.2856709999999794
21
-82.7490299999999905
0
LINE
8
BLACK
6
CONTINUOUS
10
180.8028349999999875
20
-83.2145149999999916
11
180.8433880000000045
21
-83.2416119999999893
0
LINE
8
BLACK
6
CONTINUOUS
10
180.8433880000000045
20
-83.2416119999999893
11
180.8704850000000022
21
-83.282164999999992
0
LINE
8
BLACK
6
CONTINUOUS
10
180.8704850000000022
20
-83.282164999999992
11
180.8799999999999955
21
-83.3299999999999983
0
LINE
8
BLACK
6
CONTINUOUS
10
180.8799999999999955
20
-83.3299999999999983
11
180.8799999999999955
21
-83.5799999999999983
0
LINE
8
BLACK
6
CONTINUOUS
10
180.8799999999999955
20
-83.5799999999999983
11
180.8704850000000022
21
-83.6278349999999904
0
LINE
8
BLACK
6
CONTINUOUS
10
180.8704850000000022
20
-83.6278349999999904
11
180.8433880000000045
21
-83.6683879999999931
0
LINE
8
BLACK
6
CONTINUOUS
10
180.8433880000000045
20
-83.6683879999999931
11
180.8028349999999875
21
-83.6954849999999908
0
LINE
8
BLACK
6
CONTINUOUS
10
180.8028349999999875
20
-83.6954849999999908
11
180.7549999999999955
21
-83.7049999999999983
0
LINE
8
BLACK
6
CONTINUOUS
10
180.7549999999999955
20
-83.7049999999999983
11
179.1049999999999898
21
-83.7049999999999983
0
LINE
8
BLACK
6
CONTINUOUS
10
179.1049999999999898
20
-83.7049999999999983
11
179.0571649999999977
21
-83.6954849999999908
0
LINE
8
BLACK
6
CONTINUOUS
10
179.0571649999999977
20
-83.6954849999999908
11
179.0166119999999808
21
-83.6683879999999931
0
LINE
8
BLACK
6
CONTINUOUS
10
179.0166119999999808
20
-83.6683879999999931
11
178.989514999999983
21
-83.6278349999999904
0
LINE
8
BLACK
6
CONTINUOUS
10
178.989514999999983
20
-83.6278349999999904
11
178.9799999999999898
21
-83.5799999999999983
0
LINE
8
BLACK
6
CONTINUOUS
10
178.9799999999999898
20
-83.5799999999999983
11
178.9799999999999898
21
-83.3299999999999983
0
LINE
8
BLACK
6
CONTINUOUS
10
178.9799999999999898
20
-83.3299999999999983
11
178.989514999999983
21
-83.282164999999992
0
LINE
8
BLACK
6
CONTINUOUS
10
178.989514999999983
20
-83.282164999999992
11
179.0166119999999808
21
-83.2416119999999893
0
LINE
8
BLACK
6
CONTINUOUS
10
179.0166119999999808
20
-83.2416119999999893
11
179.0571649999999977
21
-83.2145149999999916
0
LINE
8
BLACK
6
CONTINUOUS
10
179.0571649999999977
20
-83.2145149999999916
11
179.1049999999999898
21
-83.2049999999999983
0
LINE
8
BLACK
6
CONTINUOUS
10
179.1049999999999898
20
-83.2049999999999983
11
180.7549999999999955
21
-83.2049999999999983
0
LINE
8
BLACK
6
CONTINUOUS
10
180.7549999999999955
20
-83.2049999999999983
11
180.8028349999999875
21
-83.2145149999999916
0
LINE
8
BLACK
6
CONTINUOUS
10
187.8028349999999875
20
-83.2145149999999916
11
187.8433880000000045
21
-83.2416119999999893
0
LINE
8
BLACK
6
CONTINUOUS
10
187.8433880000000045
20
-83.2416119999999893
11
187.8704850000000022
21
-83.282164999999992
0
LINE
8
BLACK
6
CONTINUOUS
10
187.8704850000000022
20
-83.282164999999992
11
187.8799999999999955
21
-83.3299999999999983
0
LINE
8
BLACK
6
CONTINUOUS
10
187.8799999999999955
20
-83.3299999999999983
11
187.8799999999999955
21
-83.5799999999999983
0
LINE
8
BLACK
6
CONTINUOUS
10
187.8799999999999955
20
-83.5799999999999983
11
187.8704850000000022
21
-83.6278349999999904
0
LINE
8
BLACK
6
CONTINUOUS
10
187.8704850000000022
20
-83.6278349999999904
11
187.8433880000000045
21
-83.6683879999999931
0
LINE
8
BLACK
6
CONTINUOUS
10
187.8433880000000045
20
-83.6683879999999931
11
187.8028349999999875
21
-83.6954849999999908
0
LINE
8
BLACK
6
CONTINUOUS
10
187.8028349999999875
20
-83.6954849999999908
11
187.7549999999999955
21
-83.7049999999999983
0
LINE
8
BLACK
6
CONTINUOUS
10
187.7549999999999955
20
-83.7049999999999983
11
186.1049999999999898
21
-83.7049999999999983
0
LINE
8
BLACK
6
CONTINUOUS
10
186.1049999999999898
20
-83.7049999999999983
11
186.0571649999999977
21
-83.6954849999999908
0
LINE
8
BLACK
6
CONTINUOUS
10
186.0571649999999977
20
-83.6954849999999908
11
186.0166119999999808
21
-83.6683879999999931
0
LINE
8
BLACK
6
CONTINUOUS
10
186.0166119999999808
20
-83.6683879999999931
11
185.989514999999983
21
-83.6278349999999904
0
LINE
8
BLACK
6
CONTINUOUS
10
185.989514999999983
20
-83.6278349999999904
11
185.9799999999999898
21
-83.5799999999999983
0
LINE
8
BLACK
6
CONTINUOUS
10
185.9799999999999898
20
-83.5799999999999983
11
185.9799999999999898
21
-83.3299999999999983
0
LINE
8
BLACK
6
CONTINUOUS
10
185.9799999999999898
20
-83.3299999999999983
11
185.989514999999983
21
-83.282164999999992
0
LINE
8
BLACK
6
CONTINUOUS
10
185.989514999999983
20
-83.282164999999992
11
186.0166119999999808
21
-83.2416119999999893
0
LINE
8
BLACK
6
CONTINUOUS
10
186.0166119999999808
20
-83.2416119999999893
11
186.0571649999999977
21
-83.2145149999999916
0
LINE
8
BLACK
6
CONTINUOUS
10
186.0571649999999977
20
-83.2145149999999916
11
186.1049999999999898
21
-83.2049999999999983
0
LINE
8
BLACK
6
CONTINUOUS
10
186.1049999999999898
20
-83.2049999999999983
11
187.7549999999999955
21
-83.2049999999999983
0
LINE
8
BLACK
6
CONTINUOUS
10
187.7549999999999955
20
-83.2049999999999983
11
187.8028349999999875
21
-83.2145149999999916
0
LINE
8
BLACK
6
CONTINUOUS
10
180.8028349999999875
20
-82.5645150000000001
11
180.8433880000000045
21
-82.5916119999999978
0
LINE
8
BLACK
6
CONTINUOUS
10
180.8433880000000045
20
-82.5916119999999978
11
180.8704850000000022
21
-82.6321650000000005
0
LINE
8
BLACK
6
CONTINUOUS
10
180.8704850000000022
20
-82.6321650000000005
11
180.8799999999999955
21
-82.6799999999999926
0
LINE
8
BLACK
6
CONTINUOUS
10
180.8799999999999955
20
-82.6799999999999926
11
180.8799999999999955
21
-82.9299999999999926
0
LINE
8
BLACK
6
CONTINUOUS
10
180.8799999999999955
20
-82.9299999999999926
11
180.8704850000000022
21
-82.9778349999999989
0
LINE
8
BLACK
6
CONTINUOUS
10
180.8704850000000022
20
-82.9778349999999989
11
180.8433880000000045
21
-83.0183880000000016
0
LINE
8
BLACK
6
CONTINUOUS
10
180.8433880000000045
20
-83.0183880000000016
11
180.8028349999999875
21
-83.0454849999999993
0
LINE
8
BLACK
6
CONTINUOUS
10
180.8028349999999875
20
-83.0454849999999993
11
180.7549999999999955
21
-83.0549999999999926
0
LINE
8
BLACK
6
CONTINUOUS
10
180.7549999999999955
20
-83.0549999999999926
11
179.1049999999999898
21
-83.0549999999999926
0
LINE
8
BLACK
6
CONTINUOUS
10
179.1049999999999898
20
-83.0549999999999926
11
179.0571649999999977
21
-83.0454849999999993
0
LINE
8
BLACK
6
CONTINUOUS
10
179.0571649999999977
20
-83.0454849999999993
11
179.0166119999999808
21
-83.0183880000000016
0
LINE
8
BLACK
6
CONTINUOUS
10
179.0166119999999808
20
-83.0183880000000016
11
178.989514999999983
21
-82.9778349999999989
0
LINE
8
BLACK
6
CONTINUOUS
10
178.989514999999983
20
-82.9778349999999989
11
178.9799999999999898
21
-82.9299999999999926
0
LINE
8
BLACK
6
CONTINUOUS
10
178.9799999999999898
20
-82.9299999999999926
11
178.9799999999999898
21
-82.6799999999999926
0
LINE
8
BLACK
6
CONTINUOUS
10
178.9799999999999898
20
-82.6799999999999926
11
178.989514999999983
21
-82.6321650000000005
0
LINE
8
BLACK
6
CONTINUOUS
10
178.989514999999983
20
-82.6321650000000005
11
179.0166119999999808
21
-82.5916119999999978
0
LINE
8
BLACK
6
CONTINUOUS
10
179.0166119999999808
20
-82.5916119999999978
11
179.0571649999999977
21
-82.5645150000000001
0
LINE
8
BLACK
6
CONTINUOUS
10
179.0571649999999977
20
-82.5645150000000001
11
179.1049999999999898
21
-82.5549999999999926
0
LINE
8
BLACK
6
CONTINUOUS
10
179.1049999999999898
20
-82.5549999999999926
11
180.7549999999999955
21
-82.5549999999999926
0
LINE
8
BLACK
6
CONTINUOUS
10
180.7549999999999955
20
-82.5549999999999926
11
180.8028349999999875
21
-82.5645150000000001
0
LINE
8
BLACK
6
CONTINUOUS
10
187.8028349999999875
20
-82.5645150000000001
11
187.8433880000000045
21
-82.5916119999999978
0
LINE
8
BLACK
6
CONTINUOUS
10
187.8433880000000045
20
-82.5916119999999978
11
187.8704850000000022
21
-82.6321650000000005
0
LINE
8
BLACK
6
CONTINUOUS
10
187.8704850000000022
20
-82.6321650000000005
11
187.8799999999999955
21
-82.6799999999999926
0
LINE
8
BLACK
6
CONTINUOUS
10
187.8799999999999955
20
-82.6799999999999926
11
187.8799999999999955
21
-82.9299999999999926
0
LINE
8
BLACK
6
CONTINUOUS
10
187.8799999999999955
20
-82.9299999999999926
11
187.8704850000000022
21
-82.9778349999999989
0
LINE
8
BLACK
6
CONTINUOUS
10
187.8704850000000022
20
-82.9778349999999989
11
187.8433880000000045
21
-83.0183880000000016
0
LINE
8
BLACK
6
CONTINUOUS
10
187.8433880000000045
20
-83.0183880000000016
11
187.8028349999999875
21
-83.0454849999999993
0
LINE
8
BLACK
6
CONTINUOUS
10
187.8028349999999875
20
-83.0454849999999993
11
187.7549999999999955
21
-83.0549999999999926
0
LINE
8
BLACK
6
CONTINUOUS
10
187.7549999999999955
20
-83.0549999999999926
11
186.1049999999999898
21
-83.0549999999999926
0
LINE
8
BLACK
6
CONTINUOUS
10
186.1049999999999898
20
-83.0549999999999926
11
186.0571649999999977
21
-83.0454849999999993
0
LINE
8
BLACK
6
CONTINUOUS
10
186.0571649999999977
20
-83.0454849999999993
11
186.0166119999999808
21
-83.0183880000000016
0
LINE
8
BLACK
6
CONTINUOUS
10
186.0166119999999808
20
-83.0183880000000016
11
185.989514999999983
21
-82.9778349999999989
0
LINE
8
BLACK
6
CONTINUOUS
10
185.989514999999983
20
-82.9778349999999989
11
185.9799999999999898
21
-82.9299999999999926
0
LINE
8
BLACK
6
CONTINUOUS
10
185.9799999999999898
20
-82.9299999999999926
11
185.9799999999999898
21
-82.6799999999999926
0
LINE
8
BLACK
6
CONTINUOUS
10
185.9799999999999898
20
-82.6799999999999926
11
185.989514999999983
21
-82.6321650000000005
0
LINE
8
BLACK
6
CONTINUOUS
10
185.989514999999983
20
-82.6321650000000005
11
186.0166119999999808
21
-82.5916119999999978
0
LINE
8
BLACK
6
CONTINUOUS
10
186.0166119999999808
20
-82.5916119999999978
11
186.0571649999999977
21
-82.5645150000000001
0
LINE
8
BLACK
6
CONTINUOUS
10
186.0571649999999977
20
-82.5645150000000001
11
186.1049999999999898
21
-82.5549999999999926
0
LINE
8
BLACK
6
CONTINUOUS
10
186.1049999999999898
20
-82.5549999999999926
11
187.7549999999999955
21
-82.5549999999999926
0
LINE
8
BLACK
6
CONTINUOUS
10
187.7549999999999955
20
-82.5549999999999926
11
187.8028349999999875
21
-82.5645150000000001
0
LINE
8
BLACK
6
CONTINUOUS
10
199.2249999999999943
20
-82.6700000000000017
11
196.625
21
-82.6700000000000017
0
LINE
8
BLACK
6
CONTINUOUS
10
196.625
20
-82.6700000000000017
11
196.625
21
-80.0699999999999932
0
LINE
8
BLACK
6
CONTINUOUS
10
196.625
20
-80.0699999999999932
11
199.2249999999999943
21
-80.0699999999999932
0
LINE
8
BLACK
6
CONTINUOUS
10
199.2249999999999943
20
-80.0699999999999932
11
199.2249999999999943
21
-82.6700000000000017
0
LINE
8
BLACK
6
CONTINUOUS
10
218.2249999999999943
20
-82.6700000000000017
11
215.625
21
-82.6700000000000017
0
LINE
8
BLACK
6
CONTINUOUS
10
215.625
20
-82.6700000000000017
11
215.625
21
-80.0699999999999932
0
LINE
8
BLACK
6
CONTINUOUS
10
215.625
20
-80.0699999999999932
11
218.2249999999999943
21
-80.0699999999999932
0
LINE
8
BLACK
6
CONTINUOUS
10
218.2249999999999943
20
-80.0699999999999932
11
218.2249999999999943
21
-82.6700000000000017
0
LINE
8
BLACK
6
CONTINUOUS
10
180.8028349999999875
20
-81.9145149999999944
11
180.8433880000000045
21
-81.9416119999999921
0
LINE
8
BLACK
6
CONTINUOUS
10
180.8433880000000045
20
-81.9416119999999921
11
180.8704850000000022
21
-81.9821649999999948
0
LINE
8
BLACK
6
CONTINUOUS
10
180.8704850000000022
20
-81.9821649999999948
11
180.8799999999999955
21
-82.0300000000000011
0
LINE
8
BLACK
6
CONTINUOUS
10
180.8799999999999955
20
-82.0300000000000011
11
180.8799999999999955
21
-82.2800000000000011
0
LINE
8
BLACK
6
CONTINUOUS
10
180.8799999999999955
20
-82.2800000000000011
11
180.8704850000000022
21
-82.3278349999999932
0
LINE
8
BLACK
6
CONTINUOUS
10
180.8704850000000022
20
-82.3278349999999932
11
180.8433880000000045
21
-82.3683879999999959
0
LINE
8
BLACK
6
CONTINUOUS
10
180.8433880000000045
20
-82.3683879999999959
11
180.8028349999999875
21
-82.3954849999999936
0
LINE
8
BLACK
6
CONTINUOUS
10
180.8028349999999875
20
-82.3954849999999936
11
180.7549999999999955
21
-82.4050000000000011
0
LINE
8
BLACK
6
CONTINUOUS
10
180.7549999999999955
20
-82.4050000000000011
11
179.1049999999999898
21
-82.4050000000000011
0
LINE
8
BLACK
6
CONTINUOUS
10
179.1049999999999898
20
-82.4050000000000011
11
179.0571649999999977
21
-82.3954849999999936
0
LINE
8
BLACK
6
CONTINUOUS
10
179.0571649999999977
20
-82.3954849999999936
11
179.0166119999999808
21
-82.3683879999999959
0
LINE
8
BLACK
6
CONTINUOUS
10
179.0166119999999808
20
-82.3683879999999959
11
178.989514999999983
21
-82.3278349999999932
0
LINE
8
BLACK
6
CONTINUOUS
10
178.989514999999983
20
-82.3278349999999932
11
178.9799999999999898
21
-82.2800000000000011
0
LINE
8
BLACK
6
CONTINUOUS
10
178.9799999999999898
20
-82.2800000000000011
11
178.9799999999999898
21
-82.0300000000000011
0
LINE
8
BLACK
6
CONTINUOUS
10
178.9799999999999898
20
-82.0300000000000011
11
178.989514999999983
21
-81.9821649999999948
0
LINE
8
BLACK
6
CONTINUOUS
10
178.989514999999983
20
-81.9821649999999948
11
179.0166119999999808
21
-81.9416119999999921
0
LINE
8
BLACK
6
CONTINUOUS
10
179.0166119999999808
20
-81.9416119999999921
11
179.0571649999999977
21
-81.9145149999999944
0
LINE
8
BLACK
6
CONTINUOUS
10
179.0571649999999977
20
-81.9145149999999944
11
179.1049999999999898
21
-81.9050000000000011
0
LINE
8
BLACK
6
CONTINUOUS
10
179.1049999999999898
20
-81.9050000000000011
11
180.7549999999999955
21
-81.9050000000000011
0
LINE
8
BLACK
6
CONTINUOUS
10
180.7549999999999955
20
-81.9050000000000011
11
180.8028349999999875
21
-81.9145149999999944
0
LINE
8
BLACK
6
CONTINUOUS
10
187.8028349999999875
20
-81.9145149999999944
11
187.8433880000000045
21
-81.9416119999999921
0
LINE
8
BLACK
6
CONTINUOUS
10
187.8433880000000045
20
-81.9416119999999921
11
187.8704850000000022
21
-81.9821649999999948
0
LINE
8
BLACK
6
CONTINUOUS
10
187.8704850000000022
20
-81.9821649999999948
11
187.8799999999999955
21
-82.0300000000000011
0
LINE
8
BLACK
6
CONTINUOUS
10
187.8799999999999955
20
-82.0300000000000011
11
187.8799999999999955
21
-82.2800000000000011
0
LINE
8
BLACK
6
CONTINUOUS
10
187.8799999999999955
20
-82.2800000000000011
11
187.8704850000000022
21
-82.3278349999999932
0
LINE
8
BLACK
6
CONTINUOUS
10
187.8704850000000022
20
-82.3278349999999932
11
187.8433880000000045
21
-82.3683879999999959
0
LINE
8
BLACK
6
CONTINUOUS
10
187.8433880000000045
20
-82.3683879999999959
11
187.8028349999999875
21
-82.3954849999999936
0
LINE
8
BLACK
6
CONTINUOUS
10
187.8028349999999875
20
-82.3954849999999936
11
187.7549999999999955
21
-82.4050000000000011
0
LINE
8
BLACK
6
CONTINUOUS
10
187.7549999999999955
20
-82.4050000000000011
11
186.1049999999999898
21
-82.4050000000000011
0
LINE
8
BLACK
6
CONTINUOUS
10
186.1049999999999898
20
-82.4050000000000011
11
186.0571649999999977
21
-82.3954849999999936
0
LINE
8
BLACK
6
CONTINUOUS
10
186.0571649999999977
20
-82.3954849999999936
11
186.0166119999999808
21
-82.3683879999999959
0
LINE
8
BLACK
6
CONTINUOUS
10
186.0166119999999808
20
-82.3683879999999959
11
185.989514999999983
21
-82.3278349999999932
0
LINE
8
BLACK
6
CONTINUOUS
10
185.989514999999983
20
-82.3278349999999932
11
185.9799999999999898
21
-82.2800000000000011
0
LINE
8
BLACK
6
CONTINUOUS
10
185.9799999999999898
20
-82.2800000000000011
11
185.9799999999999898
21
-82.0300000000000011
0
LINE
8
BLACK
6
CONTINUOUS
10
185.9799999999999898
20
-82.0300000000000011
11
185.989514999999983
21
-81.9821649999999948
0
LINE
8
BLACK
6
CONTINUOUS
10
185.989514999999983
20
-81.9821649999999948
11
186.0166119999999808
21
-81.9416119999999921
0
LINE
8
BLACK
6
CONTINUOUS
10
186.0166119999999808
20
-81.9416119999999921
11
186.0571649999999977
21
-81.9145149999999944
0
LINE
8
BLACK
6
CONTINUOUS
10
186.0571649999999977
20
-81.9145149999999944
11
186.1049999999999898
21
-81.9050000000000011
0
LINE
8
BLACK
6
CONTINUOUS
10
186.1049999999999898
20
-81.9050000000000011
11
187.7549999999999955
21
-81.9050000000000011
0
LINE
8
BLACK
6
CONTINUOUS
10
187.7549999999999955
20
-81.9050000000000011
11
187.8028349999999875
21
-81.9145149999999944
0
LINE
8
BLACK
6
CONTINUOUS
10
174.7092979999999898
20
-80.5890299999999939
11
174.7904039999999952
21
-80.6432229999999919
0
LINE
8
BLACK
6
CONTINUOUS
10
174.7904039999999952
20
-80.6432229999999919
11
174.8445969999999932
21
-80.7243289999999973
0
LINE
8
BLACK
6
CONTINUOUS
10
174.8445969999999932
20
-80.7243289999999973
11
174.8636269999999797
21
-80.8199999999999932
0
LINE
8
BLACK
6
CONTINUOUS
10
174.8636269999999797
20
-80.8199999999999932
11
174.8636269999999797
21
-81.7199999999999989
0
LINE
8
BLACK
6
CONTINUOUS
10
174.8636269999999797
20
-81.7199999999999989
11
174.8445969999999932
21
-81.8156709999999947
0
LINE
8
BLACK
6
CONTINUOUS
10
174.8445969999999932
20
-81.8156709999999947
11
174.7904039999999952
21
-81.8967770000000002
0
LINE
8
BLACK
6
CONTINUOUS
10
174.7904039999999952
20
-81.8967770000000002
11
174.7092979999999898
21
-81.9509699999999981
0
LINE
8
BLACK
6
CONTINUOUS
10
174.7092979999999898
20
-81.9509699999999981
11
174.6136269999999797
21
-81.9699999999999989
0
LINE
8
BLACK
6
CONTINUOUS
10
174.6136269999999797
20
-81.9699999999999989
11
173.9136269999999911
21
-81.9699999999999989
0
LINE
8
BLACK
6
CONTINUOUS
10
173.9136269999999911
20
-81.9699999999999989
11
173.817955999999981
21
-81.9509699999999981
0
LINE
8
BLACK
6
CONTINUOUS
10
173.817955999999981
20
-81.9509699999999981
11
173.736850000000004
21
-81.8967770000000002
0
LINE
8
BLACK
6
CONTINUOUS
10
173.736850000000004
20
-81.8967770000000002
11
173.6826570000000061
21
-81.8156709999999947
0
LINE
8
BLACK
6
CONTINUOUS
10
173.6826570000000061
20
-81.8156709999999947
11
173.6636269999999911
21
-81.7199999999999989
0
LINE
8
BLACK
6
CONTINUOUS
10
173.6636269999999911
20
-81.7199999999999989
11
173.6636269999999911
21
-80.8199999999999932
0
LINE
8
BLACK
6
CONTINUOUS
10
173.6636269999999911
20
-80.8199999999999932
11
173.6826570000000061
21
-80.7243289999999973
0
LINE
8
BLACK
6
CONTINUOUS
10
173.6826570000000061
20
-80.7243289999999973
11
173.736850000000004
21
-80.6432229999999919
0
LINE
8
BLACK
6
CONTINUOUS
10
173.736850000000004
20
-80.6432229999999919
11
173.817955999999981
21
-80.5890299999999939
0
LINE
8
BLACK
6
CONTINUOUS
10
173.817955999999981
20
-80.5890299999999939
11
173.9136269999999911
21
-80.5699999999999932
0
LINE
8
BLACK
6
CONTINUOUS
10
173.9136269999999911
20
-80.5699999999999932
11
174.6136269999999797
21
-80.5699999999999932
0
LINE
8
BLACK
6
CONTINUOUS
10
174.6136269999999797
20
-80.5699999999999932
11
174.7092979999999898
21
-80.5890299999999939
0
LINE
8
BLACK
6
CONTINUOUS
10
176.7092979999999898
20
-80.5890299999999939
11
176.7904039999999952
21
-80.6432229999999919
0
LINE
8
BLACK
6
CONTINUOUS
10
176.7904039999999952
20
-80.6432229999999919
11
176.8445969999999932
21
-80.7243289999999973
0
LINE
8
BLACK
6
CONTINUOUS
10
176.8445969999999932
20
-80.7243289999999973
11
176.8636269999999797
21
-80.8199999999999932
0
LINE
8
BLACK
6
CONTINUOUS
10
176.8636269999999797
20
-80.8199999999999932
11
176.8636269999999797
21
-81.7199999999999989
0
LINE
8
BLACK
6
CONTINUOUS
10
176.8636269999999797
20
-81.7199999999999989
11
176.8445969999999932
21
-81.8156709999999947
0
LINE
8
BLACK
6
CONTINUOUS
10
176.8445969999999932
20
-81.8156709999999947
11
176.7904039999999952
21
-81.8967770000000002
0
LINE
8
BLACK
6
CONTINUOUS
10
176.7904039999999952
20
-81.8967770000000002
11
176.7092979999999898
21
-81.9509699999999981
0
LINE
8
BLACK
6
CONTINUOUS
10
176.7092979999999898
20
-81.9509699999999981
11
176.6136269999999797
21
-81.9699999999999989
0
LINE
8
BLACK
6
CONTINUOUS
10
176.6136269999999797
20
-81.9699999999999989
11
175.9136269999999911
21
-81.9699999999999989
0
LINE
8
BLACK
6
CONTINUOUS
10
175.9136269999999911
20
-81.9699999999999989
11
175.817955999999981
21
-81.9509699999999981
0
LINE
8
BLACK
6
CONTINUOUS
10
175.817955999999981
20
-81.9509699999999981
11
175.736850000000004
21
-81.8967770000000002
0
LINE
8
BLACK
6
CONTINUOUS
10
175.736850000000004
20
-81.8967770000000002
11
175.6826570000000061
21
-81.8156709999999947
0
LINE
8
BLACK
6
CONTINUOUS
10
175.6826570000000061
20
-81.8156709999999947
11
175.6636269999999911
21
-81.7199999999999989
0
LINE
8
BLACK
6
CONTINUOUS
10
175.6636269999999911
20
-81.7199999999999989
11
175.6636269999999911
21
-80.8199999999999932
0
LINE
8
BLACK
6
CONTINUOUS
10
175.6636269999999911
20
-80.8199999999999932
11
175.6826570000000061
21
-80.7243289999999973
0
LINE
8
BLACK
6
CONTINUOUS
10
175.6826570000000061
20
-80.7243289999999973
11
175.736850000000004
21
-80.6432229999999919
0
LINE
8
BLACK
6
CONTINUOUS
10
175.736850000000004
20
-80.6432229999999919
11
175.817955999999981
21
-80.5890299999999939
0
LINE
8
BLACK
6
CONTINUOUS
10
175.817955999999981
20
-80.5890299999999939
11
175.9136269999999911
21
-80.5699999999999932
0
LINE
8
BLACK
6
CONTINUOUS
10
175.9136269999999911
20
-80.5699999999999932
11
176.6136269999999797
21
-80.5699999999999932
0
LINE
8
BLACK
6
CONTINUOUS
10
176.6136269999999797
20
-80.5699999999999932
11
176.7092979999999898
21
-80.5890299999999939
0
LINE
8
BLACK
6
CONTINUOUS
10
180.8028349999999875
20
-81.2645150000000029
11
180.8433880000000045
21
-81.2916120000000006
0
LINE
8
BLACK
6
CONTINUOUS
10
180.8433880000000045
20
-81.2916120000000006
11
180.8704850000000022
21
-81.3321650000000034
0
LINE
8
BLACK
6
CONTINUOUS
10
180.8704850000000022
20
-81.3321650000000034
11
180.8799999999999955
21
-81.3799999999999955
0
LINE
8
BLACK
6
CONTINUOUS
10
180.8799999999999955
20
-81.3799999999999955
11
180.8799999999999955
21
-81.6299999999999955
0
LINE
8
BLACK
6
CONTINUOUS
10
180.8799999999999955
20
-81.6299999999999955
11
180.8704850000000022
21
-81.6778350000000017
0
LINE
8
BLACK
6
CONTINUOUS
10
180.8704850000000022
20
-81.6778350000000017
11
180.8433880000000045
21
-81.7183879999999903
0
LINE
8
BLACK
6
CONTINUOUS
10
180.8433880000000045
20
-81.7183879999999903
11
180.8028349999999875
21
-81.7454850000000022
0
LINE
8
BLACK
6
CONTINUOUS
10
180.8028349999999875
20
-81.7454850000000022
11
180.7549999999999955
21
-81.7549999999999955
0
LINE
8
BLACK
6
CONTINUOUS
10
180.7549999999999955
20
-81.7549999999999955
11
179.1049999999999898
21
-81.7549999999999955
0
LINE
8
BLACK
6
CONTINUOUS
10
179.1049999999999898
20
-81.7549999999999955
11
179.0571649999999977
21
-81.7454850000000022
0
LINE
8
BLACK
6
CONTINUOUS
10
179.0571649999999977
20
-81.7454850000000022
11
179.0166119999999808
21
-81.7183879999999903
0
LINE
8
BLACK
6
CONTINUOUS
10
179.0166119999999808
20
-81.7183879999999903
11
178.989514999999983
21
-81.6778350000000017
0
LINE
8
BLACK
6
CONTINUOUS
10
178.989514999999983
20
-81.6778350000000017
11
178.9799999999999898
21
-81.6299999999999955
0
LINE
8
BLACK
6
CONTINUOUS
10
178.9799999999999898
20
-81.6299999999999955
11
178.9799999999999898
21
-81.3799999999999955
0
LINE
8
BLACK
6
CONTINUOUS
10
178.9799999999999898
20
-81.3799999999999955
11
178.989514999999983
21
-81.3321650000000034
0
LINE
8
BLACK
6
CONTINUOUS
10
178.989514999999983
20
-81.3321650000000034
11
179.0166119999999808
21
-81.2916120000000006
0
LINE
8
BLACK
6
CONTINUOUS
10
179.0166119999999808
20
-81.2916120000000006
11
179.0571649999999977
21
-81.2645150000000029
0
LINE
8
BLACK
6
CONTINUOUS
10
179.0571649999999977
20
-81.2645150000000029
11
179.1049999999999898
21
-81.2549999999999955
0
LINE
8
BLACK
6
CONTINUOUS
10
179.1049999999999898
20
-81.2549999999999955
11
180.7549999999999955
21
-81.2549999999999955
0
LINE
8
BLACK
6
CONTINUOUS
10
180.7549999999999955
20
-81.2549999999999955
11
180.8028349999999875
21
-81.2645150000000029
0
LINE
8
BLACK
6
CONTINUOUS
10
187.8028349999999875
20
-81.2645150000000029
11
187.8433880000000045
21
-81.2916120000000006
0
LINE
8
BLACK
6
CONTINUOUS
10
187.8433880000000045
20
-81.2916120000000006
11
187.8704850000000022
21
-81.3321650000000034
0
LINE
8
BLACK
6
CONTINUOUS
10
187.8704850000000022
20
-81.3321650000000034
11
187.8799999999999955
21
-81.3799999999999955
0
LINE
8
BLACK
6
CONTINUOUS
10
187.8799999999999955
20
-81.3799999999999955
11
187.8799999999999955
21
-81.6299999999999955
0
LINE
8
BLACK
6
CONTINUOUS
10
187.8799999999999955
20
-81.6299999999999955
11
187.8704850000000022
21
-81.6778350000000017
0
LINE
8
BLACK
6
CONTINUOUS
10
187.8704850000000022
20
-81.6778350000000017
11
187.8433880000000045
21
-81.7183879999999903
0
LINE
8
BLACK
6
CONTINUOUS
10
187.8433880000000045
20
-81.7183879999999903
11
187.8028349999999875
21
-81.7454850000000022
0
LINE
8
BLACK
6
CONTINUOUS
10
187.8028349999999875
20
-81.7454850000000022
11
187.7549999999999955
21
-81.7549999999999955
0
LINE
8
BLACK
6
CONTINUOUS
10
187.7549999999999955
20
-81.7549999999999955
11
186.1049999999999898
21
-81.7549999999999955
0
LINE
8
BLACK
6
CONTINUOUS
10
186.1049999999999898
20
-81.7549999999999955
11
186.0571649999999977
21
-81.7454850000000022
0
LINE
8
BLACK
6
CONTINUOUS
10
186.0571649999999977
20
-81.7454850000000022
11
186.0166119999999808
21
-81.7183879999999903
0
LINE
8
BLACK
6
CONTINUOUS
10
186.0166119999999808
20
-81.7183879999999903
11
185.989514999999983
21
-81.6778350000000017
0
LINE
8
BLACK
6
CONTINUOUS
10
185.989514999999983
20
-81.6778350000000017
11
185.9799999999999898
21
-81.6299999999999955
0
LINE
8
BLACK
6
CONTINUOUS
10
185.9799999999999898
20
-81.6299999999999955
11
185.9799999999999898
21
-81.3799999999999955
0
LINE
8
BLACK
6
CONTINUOUS
10
185.9799999999999898
20
-81.3799999999999955
11
185.989514999999983
21
-81.3321650000000034
0
LINE
8
BLACK
6
CONTINUOUS
10
185.989514999999983
20
-81.3321650000000034
11
186.0166119999999808
21
-81.2916120000000006
0
LINE
8
BLACK
6
CONTINUOUS
10
186.0166119999999808
20
-81.2916120000000006
11
186.0571649999999977
21
-81.2645150000000029
0
LINE
8
BLACK
6
CONTINUOUS
10
186.0571649999999977
20
-81.2645150000000029
11
186.1049999999999898
21
-81.2549999999999955
0
LINE
8
BLACK
6
CONTINUOUS
10
186.1049999999999898
20
-81.2549999999999955
11
187.7549999999999955
21
-81.2549999999999955
0
LINE
8
BLACK
6
CONTINUOUS
10
187.7549999999999955
20
-81.2549999999999955
11
187.8028349999999875
21
-81.2645150000000029
0
LINE
8
BLACK
6
CONTINUOUS
10
180.8028349999999875
20
-80.6145149999999973
11
180.8433880000000045
21
-80.641611999999995
0
LINE
8
BLACK
6
CONTINUOUS
10
180.8433880000000045
20
-80.641611999999995
11
180.8704850000000022
21
-80.6821649999999977
0
LINE
8
BLACK
6
CONTINUOUS
10
180.8704850000000022
20
-80.6821649999999977
11
180.8799999999999955
21
-80.7299999999999898
0
LINE
8
BLACK
6
CONTINUOUS
10
180.8799999999999955
20
-80.7299999999999898
11
180.8799999999999955
21
-80.9799999999999898
0
LINE
8
BLACK
6
CONTINUOUS
10
180.8799999999999955
20
-80.9799999999999898
11
180.8704850000000022
21
-81.0278349999999961
0
LINE
8
BLACK
6
CONTINUOUS
10
180.8704850000000022
20
-81.0278349999999961
11
180.8433880000000045
21
-81.0683879999999988
0
LINE
8
BLACK
6
CONTINUOUS
10
180.8433880000000045
20
-81.0683879999999988
11
180.8028349999999875
21
-81.0954849999999965
0
LINE
8
BLACK
6
CONTINUOUS
10
180.8028349999999875
20
-81.0954849999999965
11
180.7549999999999955
21
-81.1049999999999898
0
LINE
8
BLACK
6
CONTINUOUS
10
180.7549999999999955
20
-81.1049999999999898
11
179.1049999999999898
21
-81.1049999999999898
0
LINE
8
BLACK
6
CONTINUOUS
10
179.1049999999999898
20
-81.1049999999999898
11
179.0571649999999977
21
-81.0954849999999965
0
LINE
8
BLACK
6
CONTINUOUS
10
179.0571649999999977
20
-81.0954849999999965
11
179.0166119999999808
21
-81.0683879999999988
0
LINE
8
BLACK
6
CONTINUOUS
10
179.0166119999999808
20
-81.0683879999999988
11
178.989514999999983
21
-81.0278349999999961
0
LINE
8
BLACK
6
CONTINUOUS
10
178.989514999999983
20
-81.0278349999999961
11
178.9799999999999898
21
-80.9799999999999898
0
LINE
8
BLACK
6
CONTINUOUS
10
178.9799999999999898
20
-80.9799999999999898
11
178.9799999999999898
21
-80.7299999999999898
0
LINE
8
BLACK
6
CONTINUOUS
10
178.9799999999999898
20
-80.7299999999999898
11
178.989514999999983
21
-80.6821649999999977
0
LINE
8
BLACK
6
CONTINUOUS
10
178.989514999999983
20
-80.6821649999999977
11
179.0166119999999808
21
-80.641611999999995
0
LINE
8
BLACK
6
CONTINUOUS
10
179.0166119999999808
20
-80.641611999999995
11
179.0571649999999977
21
-80.6145149999999973
0
LINE
8
BLACK
6
CONTINUOUS
10
179.0571649999999977
20
-80.6145149999999973
11
179.1049999999999898
21
-80.6049999999999898
0
LINE
8
BLACK
6
CONTINUOUS
10
179.1049999999999898
20
-80.6049999999999898
11
180.7549999999999955
21
-80.6049999999999898
0
LINE
8
BLACK
6
CONTINUOUS
10
180.7549999999999955
20
-80.6049999999999898
11
180.8028349999999875
21
-80.6145149999999973
0
LINE
8
BLACK
6
CONTINUOUS
10
187.8028349999999875
20
-80.6145149999999973
11
187.8433880000000045
21
-80.641611999999995
0
LINE
8
BLACK
6
CONTINUOUS
10
187.8433880000000045
20
-80.641611999999995
11
187.8704850000000022
21
-80.6821649999999977
0
LINE
8
BLACK
6
CONTINUOUS
10
187.8704850000000022
20
-80.6821649999999977
11
187.8799999999999955
21
-80.7299999999999898
0
LINE
8
BLACK
6
CONTINUOUS
10
187.8799999999999955
20
-80.7299999999999898
11
187.8799999999999955
21
-80.9799999999999898
0
LINE
8
BLACK
6
CONTINUOUS
10
187.8799999999999955
20
-80.9799999999999898
11
187.8704850000000022
21
-81.0278349999999961
0
LINE
8
BLACK
6
CONTINUOUS
10
187.8704850000000022
20
-81.0278349999999961
11
187.8433880000000045
21
-81.0683879999999988
0
LINE
8
BLACK
6
CONTINUOUS
10
187.8433880000000045
20
-81.0683879999999988
11
187.8028349999999875
21
-81.0954849999999965
0
LINE
8
BLACK
6
CONTINUOUS
10
187.8028349999999875
20
-81.0954849999999965
11
187.7549999999999955
21
-81.1049999999999898
0
LINE
8
BLACK
6
CONTINUOUS
10
187.7549999999999955
20
-81.1049999999999898
11
186.1049999999999898
21
-81.1049999999999898
0
LINE
8
BLACK
6
CONTINUOUS
10
186.1049999999999898
20
-81.1049999999999898
11
186.0571649999999977
21
-81.0954849999999965
0
LINE
8
BLACK
6
CONTINUOUS
10
186.0571649999999977
20
-81.0954849999999965
11
186.0166119999999808
21
-81.0683879999999988
0
LINE
8
BLACK
6
CONTINUOUS
10
186.0166119999999808
20
-81.0683879999999988
11
185.989514999999983
21
-81.0278349999999961
0
LINE
8
BLACK
6
CONTINUOUS
10
185.989514999999983
20
-81.0278349999999961
11
185.9799999999999898
21
-80.9799999999999898
0
LINE
8
BLACK
6
CONTINUOUS
10
185.9799999999999898
20
-80.9799999999999898
11
185.9799999999999898
21
-80.7299999999999898
0
LINE
8
BLACK
6
CONTINUOUS
10
185.9799999999999898
20
-80.7299999999999898
11
185.989514999999983
21
-80.6821649999999977
0
LINE
8
BLACK
6
CONTINUOUS
10
185.989514999999983
20
-80.6821649999999977
11
186.0166119999999808
21
-80.641611999999995
0
LINE
8
BLACK
6
CONTINUOUS
10
186.0166119999999808
20
-80.641611999999995
11
186.0571649999999977
21
-80.6145149999999973
0
LINE
8
BLACK
6
CONTINUOUS
10
186.0571649999999977
20
-80.6145149999999973
11
186.1049999999999898
21
-80.6049999999999898
0
LINE
8
BLACK
6
CONTINUOUS
10
186.1049999999999898
20
-80.6049999999999898
11
187.7549999999999955
21
-80.6049999999999898
0
LINE
8
BLACK
6
CONTINUOUS
10
187.7549999999999955
20
-80.6049999999999898
11
187.8028349999999875
21
-80.6145149999999973
0
LINE
8
BLACK
6
CONTINUOUS
10
180.8028349999999875
20
-79.9645149999999916
11
180.8433880000000045
21
-79.9916119999999893
0
LINE
8
BLACK
6
CONTINUOUS
10
180.8433880000000045
20
-79.9916119999999893
11
180.8704850000000022
21
-80.032164999999992
0
LINE
8
BLACK
6
CONTINUOUS
10
180.8704850000000022
20
-80.032164999999992
11
180.8799999999999955
21
-80.0799999999999983
0
LINE
8
BLACK
6
CONTINUOUS
10
180.8799999999999955
20
-80.0799999999999983
11
180.8799999999999955
21
-80.3299999999999983
0
LINE
8
BLACK
6
CONTINUOUS
10
180.8799999999999955
20
-80.3299999999999983
11
180.8704850000000022
21
-80.3778349999999904
0
LINE
8
BLACK
6
CONTINUOUS
10
180.8704850000000022
20
-80.3778349999999904
11
180.8433880000000045
21
-80.4183879999999931
0
LINE
8
BLACK
6
CONTINUOUS
10
180.8433880000000045
20
-80.4183879999999931
11
180.8028349999999875
21
-80.4454849999999908
0
LINE
8
BLACK
6
CONTINUOUS
10
180.8028349999999875
20
-80.4454849999999908
11
180.7549999999999955
21
-80.4549999999999983
0
LINE
8
BLACK
6
CONTINUOUS
10
180.7549999999999955
20
-80.4549999999999983
11
179.1049999999999898
21
-80.4549999999999983
0
LINE
8
BLACK
6
CONTINUOUS
10
179.1049999999999898
20
-80.4549999999999983
11
179.0571649999999977
21
-80.4454849999999908
0
LINE
8
BLACK
6
CONTINUOUS
10
179.0571649999999977
20
-80.4454849999999908
11
179.0166119999999808
21
-80.4183879999999931
0
LINE
8
BLACK
6
CONTINUOUS
10
179.0166119999999808
20
-80.4183879999999931
11
178.989514999999983
21
-80.3778349999999904
0
LINE
8
BLACK
6
CONTINUOUS
10
178.989514999999983
20
-80.3778349999999904
11
178.9799999999999898
21
-80.3299999999999983
0
LINE
8
BLACK
6
CONTINUOUS
10
178.9799999999999898
20
-80.3299999999999983
11
178.9799999999999898
21
-80.0799999999999983
0
LINE
8
BLACK
6
CONTINUOUS
10
178.9799999999999898
20
-80.0799999999999983
11
178.989514999999983
21
-80.032164999999992
0
LINE
8
BLACK
6
CONTINUOUS
10
178.989514999999983
20
-80.032164999999992
11
179.0166119999999808
21
-79.9916119999999893
0
LINE
8
BLACK
6
CONTINUOUS
10
179.0166119999999808
20
-79.9916119999999893
11
179.0571649999999977
21
-79.9645149999999916
0
LINE
8
BLACK
6
CONTINUOUS
10
179.0571649999999977
20
-79.9645149999999916
11
179.1049999999999898
21
-79.9549999999999983
0
LINE
8
BLACK
6
CONTINUOUS
10
179.1049999999999898
20
-79.9549999999999983
11
180.7549999999999955
21
-79.9549999999999983
0
LINE
8
BLACK
6
CONTINUOUS
10
180.7549999999999955
20
-79.9549999999999983
11
180.8028349999999875
21
-79.9645149999999916
0
LINE
8
BLACK
6
CONTINUOUS
10
187.8028349999999875
20
-79.9645149999999916
11
187.8433880000000045
21
-79.9916119999999893
0
LINE
8
BLACK
6
CONTINUOUS
10
187.8433880000000045
20
-79.9916119999999893
11
187.8704850000000022
21
-80.032164999999992
0
LINE
8
BLACK
6
CONTINUOUS
10
187.8704850000000022
20
-80.032164999999992
11
187.8799999999999955
21
-80.0799999999999983
0
LINE
8
BLACK
6
CONTINUOUS
10
187.8799999999999955
20
-80.0799999999999983
11
187.8799999999999955
21
-80.3299999999999983
0
LINE
8
BLACK
6
CONTINUOUS
10
187.8799999999999955
20
-80.3299999999999983
11
187.8704850000000022
21
-80.3778349999999904
0
LINE
8
BLACK
6
CONTINUOUS
10
187.8704850000000022
20
-80.3778349999999904
11
187.8433880000000045
21
-80.4183879999999931
0
LINE
8
BLACK
6
CONTINUOUS
10
187.8433880000000045
20
-80.4183879999999931
11
187.8028349999999875
21
-80.4454849999999908
0
LINE
8
BLACK
6
CONTINUOUS
10
187.8028349999999875
20
-80.4454849999999908
11
187.7549999999999955
21
-80.4549999999999983
0
LINE
8
BLACK
6
CONTINUOUS
10
187.7549999999999955
20
-80.4549999999999983
11
186.1049999999999898
21
-80.4549999999999983
0
LINE
8
BLACK
6
CONTINUOUS
10
186.1049999999999898
20
-80.4549999999999983
11
186.0571649999999977
21
-80.4454849999999908
0
LINE
8
BLACK
6
CONTINUOUS
10
186.0571649999999977
20
-80.4454849999999908
11
186.0166119999999808
21
-80.4183879999999931
0
LINE
8
BLACK
6
CONTINUOUS
10
186.0166119999999808
20
-80.4183879999999931
11
185.989514999999983
21
-80.3778349999999904
0
LINE
8
BLACK
6
CONTINUOUS
10
185.989514999999983
20
-80.3778349999999904
11
185.9799999999999898
21
-80.3299999999999983
0
LINE
8
BLACK
6
CONTINUOUS
10
185.9799999999999898
20
-80.3299999999999983
11
185.9799999999999898
21
-80.0799999999999983
0
LINE
8
BLACK
6
CONTINUOUS
10
185.9799999999999898
20
-80.0799999999999983
11
185.989514999999983
21
-80.032164999999992
0
LINE
8
BLACK
6
CONTINUOUS
10
185.989514999999983
20
-80.032164999999992
11
186.0166119999999808
21
-79.9916119999999893
0
LINE
8
BLACK
6
CONTINUOUS
10
186.0166119999999808
20
-79.9916119999999893
11
186.0571649999999977
21
-79.9645149999999916
0
LINE
8
BLACK
6
CONTINUOUS
10
186.0571649999999977
20
-79.9645149999999916
11
186.1049999999999898
21
-79.9549999999999983
0
LINE
8
BLACK
6
CONTINUOUS
10
186.1049999999999898
20
-79.9549999999999983
11
187.7549999999999955
21
-79.9549999999999983
0
LINE
8
BLACK
6
CONTINUOUS
10
187.7549999999999955
20
-79.9549999999999983
11
187.8028349999999875
21
-79.9645149999999916
0
LINE
8
BLACK
6
CONTINUOUS
10
180.8028349999999875
20
-79.3145150000000001
11
180.8433880000000045
21
-79.3416119999999978
0
LINE
8
BLACK
6
CONTINUOUS
10
180.8433880000000045
20
-79.3416119999999978
11
180.8704850000000022
21
-79.3821650000000005
0
LINE
8
BLACK
6
CONTINUOUS
10
180.8704850000000022
20
-79.3821650000000005
11
180.8799999999999955
21
-79.4299999999999926
0
LINE
8
BLACK
6
CONTINUOUS
10
180.8799999999999955
20
-79.4299999999999926
11
180.8799999999999955
21
-79.6799999999999926
0
LINE
8
BLACK
6
CONTINUOUS
10
180.8799999999999955
20
-79.6799999999999926
11
180.8704850000000022
21
-79.7278349999999989
0
LINE
8
BLACK
6
CONTINUOUS
10
180.8704850000000022
20
-79.7278349999999989
11
180.8433880000000045
21
-79.7683880000000016
0
LINE
8
BLACK
6
CONTINUOUS
10
180.8433880000000045
20
-79.7683880000000016
11
180.8028349999999875
21
-79.7954849999999993
0
LINE
8
BLACK
6
CONTINUOUS
10
180.8028349999999875
20
-79.7954849999999993
11
180.7549999999999955
21
-79.8049999999999926
0
LINE
8
BLACK
6
CONTINUOUS
10
180.7549999999999955
20
-79.8049999999999926
11
179.1049999999999898
21
-79.8049999999999926
0
LINE
8
BLACK
6
CONTINUOUS
10
179.1049999999999898
20
-79.8049999999999926
11
179.0571649999999977
21
-79.7954849999999993
0
LINE
8
BLACK
6
CONTINUOUS
10
179.0571649999999977
20
-79.7954849999999993
11
179.0166119999999808
21
-79.7683880000000016
0
LINE
8
BLACK
6
CONTINUOUS
10
179.0166119999999808
20
-79.7683880000000016
11
178.989514999999983
21
-79.7278349999999989
0
LINE
8
BLACK
6
CONTINUOUS
10
178.989514999999983
20
-79.7278349999999989
11
178.9799999999999898
21
-79.6799999999999926
0
LINE
8
BLACK
6
CONTINUOUS
10
178.9799999999999898
20
-79.6799999999999926
11
178.9799999999999898
21
-79.4299999999999926
0
LINE
8
BLACK
6
CONTINUOUS
10
178.9799999999999898
20
-79.4299999999999926
11
178.989514999999983
21
-79.3821650000000005
0
LINE
8
BLACK
6
CONTINUOUS
10
178.989514999999983
20
-79.3821650000000005
11
179.0166119999999808
21
-79.3416119999999978
0
LINE
8
BLACK
6
CONTINUOUS
10
179.0166119999999808
20
-79.3416119999999978
11
179.0571649999999977
21
-79.3145150000000001
0
LINE
8
BLACK
6
CONTINUOUS
10
179.0571649999999977
20
-79.3145150000000001
11
179.1049999999999898
21
-79.3049999999999926
0
LINE
8
BLACK
6
CONTINUOUS
10
179.1049999999999898
20
-79.3049999999999926
11
180.7549999999999955
21
-79.3049999999999926
0
LINE
8
BLACK
6
CONTINUOUS
10
180.7549999999999955
20
-79.3049999999999926
11
180.8028349999999875
21
-79.3145150000000001
0
LINE
8
BLACK
6
CONTINUOUS
10
187.8028349999999875
20
-79.3145150000000001
11
187.8433880000000045
21
-79.3416119999999978
0
LINE
8
BLACK
6
CONTINUOUS
10
187.8433880000000045
20
-79.3416119999999978
11
187.8704850000000022
21
-79.3821650000000005
0
LINE
8
BLACK
6
CONTINUOUS
10
187.8704850000000022
20
-79.3821650000000005
11
187.8799999999999955
21
-79.4299999999999926
0
LINE
8
BLACK
6
CONTINUOUS
10
187.8799999999999955
20
-79.4299999999999926
11
187.8799999999999955
21
-79.6799999999999926
0
LINE
8
BLACK
6
CONTINUOUS
10
187.8799999999999955
20
-79.6799999999999926
11
187.8704850000000022
21
-79.7278349999999989
0
LINE
8
BLACK
6
CONTINUOUS
10
187.8704850000000022
20
-79.7278349999999989
11
187.8433880000000045
21
-79.7683880000000016
0
LINE
8
BLACK
6
CONTINUOUS
10
187.8433880000000045
20
-79.7683880000000016
11
187.8028349999999875
21
-79.7954849999999993
0
LINE
8
BLACK
6
CONTINUOUS
10
187.8028349999999875
20
-79.7954849999999993
11
187.7549999999999955
21
-79.8049999999999926
0
LINE
8
BLACK
6
CONTINUOUS
10
187.7549999999999955
20
-79.8049999999999926
11
186.1049999999999898
21
-79.8049999999999926
0
LINE
8
BLACK
6
CONTINUOUS
10
186.1049999999999898
20
-79.8049999999999926
11
186.0571649999999977
21
-79.7954849999999993
0
LINE
8
BLACK
6
CONTINUOUS
10
186.0571649999999977
20
-79.7954849999999993
11
186.0166119999999808
21
-79.7683880000000016
0
LINE
8
BLACK
6
CONTINUOUS
10
186.0166119999999808
20
-79.7683880000000016
11
185.989514999999983
21
-79.7278349999999989
0
LINE
8
BLACK
6
CONTINUOUS
10
185.989514999999983
20
-79.7278349999999989
11
185.9799999999999898
21
-79.6799999999999926
0
LINE
8
BLACK
6
CONTINUOUS
10
185.9799999999999898
20
-79.6799999999999926
11
185.9799999999999898
21
-79.4299999999999926
0
LINE
8
BLACK
6
CONTINUOUS
10
185.9799999999999898
20
-79.4299999999999926
11
185.989514999999983
21
-79.3821650000000005
0
LINE
8
BLACK
6
CONTINUOUS
10
185.989514999999983
20
-79.3821650000000005
11
186.0166119999999808
21
-79.3416119999999978
0
LINE
8
BLACK
6
CONTINUOUS
10
186.0166119999999808
20
-79.3416119999999978
11
186.0571649999999977
21
-79.3145150000000001
0
LINE
8
BLACK
6
CONTINUOUS
10
186.0571649999999977
20
-79.3145150000000001
11
186.1049999999999898
21
-79.3049999999999926
0
LINE
8
BLACK
6
CONTINUOUS
10
186.1049999999999898
20
-79.3049999999999926
11
187.7549999999999955
21
-79.3049999999999926
0
LINE
8
BLACK
6
CONTINUOUS
10
187.7549999999999955
20
-79.3049999999999926
11
187.8028349999999875
21
-79.3145150000000001
0
LINE
8
BLACK
6
CONTINUOUS
10
180.8028349999999875
20
-78.6645149999999944
11
180.8433880000000045
21
-78.6916119999999921
0
LINE
8
BLACK
6
CONTINUOUS
10
180.8433880000000045
20
-78.6916119999999921
11
180.8704850000000022
21
-78.7321649999999948
0
LINE
8
BLACK
6
CONTINUOUS
10
180.8704850000000022
20
-78.7321649999999948
11
180.8799999999999955
21
-78.7800000000000011
0
LINE
8
BLACK
6
CONTINUOUS
10
180.8799999999999955
20
-78.7800000000000011
11
180.8799999999999955
21
-79.0300000000000011
0
LINE
8
BLACK
6
CONTINUOUS
10
180.8799999999999955
20
-79.0300000000000011
11
180.8704850000000022
21
-79.0778349999999932
0
LINE
8
BLACK
6
CONTINUOUS
10
180.8704850000000022
20
-79.0778349999999932
11
180.8433880000000045
21
-79.1183879999999959
0
LINE
8
BLACK
6
CONTINUOUS
10
180.8433880000000045
20
-79.1183879999999959
11
180.8028349999999875
21
-79.1454849999999936
0
LINE
8
BLACK
6
CONTINUOUS
10
180.8028349999999875
20
-79.1454849999999936
11
180.7549999999999955
21
-79.1550000000000011
0
LINE
8
BLACK
6
CONTINUOUS
10
180.7549999999999955
20
-79.1550000000000011
11
179.1049999999999898
21
-79.1550000000000011
0
LINE
8
BLACK
6
CONTINUOUS
10
179.1049999999999898
20
-79.1550000000000011
11
179.0571649999999977
21
-79.1454849999999936
0
LINE
8
BLACK
6
CONTINUOUS
10
179.0571649999999977
20
-79.1454849999999936
11
179.0166119999999808
21
-79.1183879999999959
0
LINE
8
BLACK
6
CONTINUOUS
10
179.0166119999999808
20
-79.1183879999999959
11
178.989514999999983
21
-79.0778349999999932
0
LINE
8
BLACK
6
CONTINUOUS
10
178.989514999999983
20
-79.0778349999999932
11
178.9799999999999898
21
-79.0300000000000011
0
LINE
8
BLACK
6
CONTINUOUS
10
178.9799999999999898
20
-79.0300000000000011
11
178.9799999999999898
21
-78.7800000000000011
0
LINE
8
BLACK
6
CONTINUOUS
10
178.9799999999999898
20
-78.7800000000000011
11
178.989514999999983
21
-78.7321649999999948
0
LINE
8
BLACK
6
CONTINUOUS
10
178.989514999999983
20
-78.7321649999999948
11
179.0166119999999808
21
-78.6916119999999921
0
LINE
8
BLACK
6
CONTINUOUS
10
179.0166119999999808
20
-78.6916119999999921
11
179.0571649999999977
21
-78.6645149999999944
0
LINE
8
BLACK
6
CONTINUOUS
10
179.0571649999999977
20
-78.6645149999999944
11
179.1049999999999898
21
-78.6550000000000011
0
LINE
8
BLACK
6
CONTINUOUS
10
179.1049999999999898
20
-78.6550000000000011
11
180.7549999999999955
21
-78.6550000000000011
0
LINE
8
BLACK
6
CONTINUOUS
10
180.7549999999999955
20
-78.6550000000000011
11
180.8028349999999875
21
-78.6645149999999944
0
LINE
8
BLACK
6
CONTINUOUS
10
187.8028349999999875
20
-78.6645149999999944
11
187.8433880000000045
21
-78.6916119999999921
0
LINE
8
BLACK
6
CONTINUOUS
10
187.8433880000000045
20
-78.6916119999999921
11
187.8704850000000022
21
-78.7321649999999948
0
LINE
8
BLACK
6
CONTINUOUS
10
187.8704850000000022
20
-78.7321649999999948
11
187.8799999999999955
21
-78.7800000000000011
0
LINE
8
BLACK
6
CONTINUOUS
10
187.8799999999999955
20
-78.7800000000000011
11
187.8799999999999955
21
-79.0300000000000011
0
LINE
8
BLACK
6
CONTINUOUS
10
187.8799999999999955
20
-79.0300000000000011
11
187.8704850000000022
21
-79.0778349999999932
0
LINE
8
BLACK
6
CONTINUOUS
10
187.8704850000000022
20
-79.0778349999999932
11
187.8433880000000045
21
-79.1183879999999959
0
LINE
8
BLACK
6
CONTINUOUS
10
187.8433880000000045
20
-79.1183879999999959
11
187.8028349999999875
21
-79.1454849999999936
0
LINE
8
BLACK
6
CONTINUOUS
10
187.8028349999999875
20
-79.1454849999999936
11
187.7549999999999955
21
-79.1550000000000011
0
LINE
8
BLACK
6
CONTINUOUS
10
187.7549999999999955
20
-79.1550000000000011
11
186.1049999999999898
21
-79.1550000000000011
0
LINE
8
BLACK
6
CONTINUOUS
10
186.1049999999999898
20
-79.1550000000000011
11
186.0571649999999977
21
-79.1454849999999936
0
LINE
8
BLACK
6
CONTINUOUS
10
186.0571649999999977
20
-79.1454849999999936
11
186.0166119999999808
21
-79.1183879999999959
0
LINE
8
BLACK
6
CONTINUOUS
10
186.0166119999999808
20
-79.1183879999999959
11
185.989514999999983
21
-79.0778349999999932
0
LINE
8
BLACK
6
CONTINUOUS
10
185.989514999999983
20
-79.0778349999999932
11
185.9799999999999898
21
-79.0300000000000011
0
LINE
8
BLACK
6
CONTINUOUS
10
185.9799999999999898
20
-79.0300000000000011
11
185.9799999999999898
21
-78.7800000000000011
0
LINE
8
BLACK
6
CONTINUOUS
10
185.9799999999999898
20
-78.7800000000000011
11
185.989514999999983
21
-78.7321649999999948
0
LINE
8
BLACK
6
CONTINUOUS
10
185.989514999999983
20
-78.7321649999999948
11
186.0166119999999808
21
-78.6916119999999921
0
LINE
8
BLACK
6
CONTINUOUS
10
186.0166119999999808
20
-78.6916119999999921
11
186.0571649999999977
21
-78.6645149999999944
0
LINE
8
BLACK
6
CONTINUOUS
10
186.0571649999999977
20
-78.6645149999999944
11
186.1049999999999898
21
-78.6550000000000011
0
LINE
8
BLACK
6
CONTINUOUS
10
186.1049999999999898
20
-78.6550000000000011
11
187.7549999999999955
21
-78.6550000000000011
0
LINE
8
BLACK
6
CONTINUOUS
10
187.7549999999999955
20
-78.6550000000000011
11
187.8028349999999875
21
-78.6645149999999944
0
LINE
8
BLACK
6
CONTINUOUS
10
174.7092979999999898
20
-77.7390299999999996
11
174.7904039999999952
21
-77.7932229999999976
0
LINE
8
BLACK
6
CONTINUOUS
10
174.7904039999999952
20
-77.7932229999999976
11
174.8445969999999932
21
-77.874329000000003
0
LINE
8
BLACK
6
CONTINUOUS
10
174.8445969999999932
20
-77.874329000000003
11
174.8636269999999797
21
-77.9699999999999989
0
LINE
8
BLACK
6
CONTINUOUS
10
174.8636269999999797
20
-77.9699999999999989
11
174.8636269999999797
21
-78.8699999999999903
0
LINE
8
BLACK
6
CONTINUOUS
10
174.8636269999999797
20
-78.8699999999999903
11
174.8445969999999932
21
-78.9656710000000004
0
LINE
8
BLACK
6
CONTINUOUS
10
174.8445969999999932
20
-78.9656710000000004
11
174.7904039999999952
21
-79.0467769999999916
0
LINE
8
BLACK
6
CONTINUOUS
10
174.7904039999999952
20
-79.0467769999999916
11
174.7092979999999898
21
-79.1009699999999896
0
LINE
8
BLACK
6
CONTINUOUS
10
174.7092979999999898
20
-79.1009699999999896
11
174.6136269999999797
21
-79.1199999999999903
0
LINE
8
BLACK
6
CONTINUOUS
10
174.6136269999999797
20
-79.1199999999999903
11
173.9136269999999911
21
-79.1199999999999903
0
LINE
8
BLACK
6
CONTINUOUS
10
173.9136269999999911
20
-79.1199999999999903
11
173.817955999999981
21
-79.1009699999999896
0
LINE
8
BLACK
6
CONTINUOUS
10
173.817955999999981
20
-79.1009699999999896
11
173.736850000000004
21
-79.0467769999999916
0
LINE
8
BLACK
6
CONTINUOUS
10
173.736850000000004
20
-79.0467769999999916
11
173.6826570000000061
21
-78.9656710000000004
0
LINE
8
BLACK
6
CONTINUOUS
10
173.6826570000000061
20
-78.9656710000000004
11
173.6636269999999911
21
-78.8699999999999903
0
LINE
8
BLACK
6
CONTINUOUS
10
173.6636269999999911
20
-78.8699999999999903
11
173.6636269999999911
21
-77.9699999999999989
0
LINE
8
BLACK
6
CONTINUOUS
10
173.6636269999999911
20
-77.9699999999999989
11
173.6826570000000061
21
-77.874329000000003
0
LINE
8
BLACK
6
CONTINUOUS
10
173.6826570000000061
20
-77.874329000000003
11
173.736850000000004
21
-77.7932229999999976
0
LINE
8
BLACK
6
CONTINUOUS
10
173.736850000000004
20
-77.7932229999999976
11
173.817955999999981
21
-77.7390299999999996
0
LINE
8
BLACK
6
CONTINUOUS
10
173.817955999999981
20
-77.7390299999999996
11
173.9136269999999911
21
-77.7199999999999989
0
LINE
8
BLACK
6
CONTINUOUS
10
173.9136269999999911
20
-77.7199999999999989
11
174.6136269999999797
21
-77.7199999999999989
0
LINE
8
BLACK
6
CONTINUOUS
10
174.6136269999999797
20
-77.7199999999999989
11
174.7092979999999898
21
-77.7390299999999996
0
LINE
8
BLACK
6
CONTINUOUS
10
176.7092979999999898
20
-77.7390299999999996
11
176.7904039999999952
21
-77.7932229999999976
0
LINE
8
BLACK
6
CONTINUOUS
10
176.7904039999999952
20
-77.7932229999999976
11
176.8445969999999932
21
-77.874329000000003
0
LINE
8
BLACK
6
CONTINUOUS
10
176.8445969999999932
20
-77.874329000000003
11
176.8636269999999797
21
-77.9699999999999989
0
LINE
8
BLACK
6
CONTINUOUS
10
176.8636269999999797
20
-77.9699999999999989
11
176.8636269999999797
21
-78.8699999999999903
0
LINE
8
BLACK
6
CONTINUOUS
10
176.8636269999999797
20
-78.8699999999999903
11
176.8445969999999932
21
-78.9656710000000004
0
LINE
8
BLACK
6
CONTINUOUS
10
176.8445969999999932
20
-78.9656710000000004
11
176.7904039999999952
21
-79.0467769999999916
0
LINE
8
BLACK
6
CONTINUOUS
10
176.7904039999999952
20
-79.0467769999999916
11
176.7092979999999898
21
-79.1009699999999896
0
LINE
8
BLACK
6
CONTINUOUS
10
176.7092979999999898
20
-79.1009699999999896
11
176.6136269999999797
21
-79.1199999999999903
0
LINE
8
BLACK
6
CONTINUOUS
10
176.6136269999999797
20
-79.1199999999999903
11
175.9136269999999911
21
-79.1199999999999903
0
LINE
8
BLACK
6
CONTINUOUS
10
175.9136269999999911
20
-79.1199999999999903
11
175.817955999999981
21
-79.1009699999999896
0
LINE
8
BLACK
6
CONTINUOUS
10
175.817955999999981
20
-79.1009699999999896
11
175.736850000000004
21
-79.0467769999999916
0
LINE
8
BLACK
6
CONTINUOUS
10
175.736850000000004
20
-79.0467769999999916
11
175.6826570000000061
21
-78.9656710000000004
0
LINE
8
BLACK
6
CONTINUOUS
10
175.6826570000000061
20
-78.9656710000000004
11
175.6636269999999911
21
-78.8699999999999903
0
LINE
8
BLACK
6
CONTINUOUS
10
175.6636269999999911
20
-78.8699999999999903
11
175.6636269999999911
21
-77.9699999999999989
0
LINE
8
BLACK
6
CONTINUOUS
10
175.6636269999999911
20
-77.9699999999999989
11
175.6826570000000061
21
-77.874329000000003
0
LINE
8
BLACK
6
CONTINUOUS
10
175.6826570000000061
20
-77.874329000000003
11
175.736850000000004
21
-77.7932229999999976
0
LINE
8
BLACK
6
CONTINUOUS
10
175.736850000000004
20
-77.7932229999999976
11
175.817955999999981
21
-77.7390299999999996
0
LINE
8
BLACK
6
CONTINUOUS
10
175.817955999999981
20
-77.7390299999999996
11
175.9136269999999911
21
-77.7199999999999989
0
LINE
8
BLACK
6
CONTINUOUS
10
175.9136269999999911
20
-77.7199999999999989
11
176.6136269999999797
21
-77.7199999999999989
0
LINE
8
BLACK
6
CONTINUOUS
10
176.6136269999999797
20
-77.7199999999999989
11
176.7092979999999898
21
-77.7390299999999996
0
LINE
8
BLACK
6
CONTINUOUS
10
176.033489000000003
20
-74.9004520000000014
11
176.1145939999999825
21
-74.9546449999999993
0
LINE
8
BLACK
6
CONTINUOUS
10
176.1145939999999825
20
-74.9546449999999993
11
176.6095689999999934
21
-75.4496199999999959
0
LINE
8
BLACK
6
CONTINUOUS
10
176.6095689999999934
20
-75.4496199999999959
11
176.6637619999999913
21
-75.5307249999999897
0
LINE
8
BLACK
6
CONTINUOUS
10
176.6637619999999913
20
-75.5307249999999897
11
176.6827930000000038
21
-75.6263959999999997
0
LINE
8
BLACK
6
CONTINUOUS
10
176.6827930000000038
20
-75.6263959999999997
11
176.6637619999999913
21
-75.7220669999999956
0
LINE
8
BLACK
6
CONTINUOUS
10
176.6637619999999913
20
-75.7220669999999956
11
176.6095689999999934
21
-75.803173000000001
0
LINE
8
BLACK
6
CONTINUOUS
10
176.6095689999999934
20
-75.803173000000001
11
175.9731730000000027
21
-76.4395689999999917
0
LINE
8
BLACK
6
CONTINUOUS
10
175.9731730000000027
20
-76.4395689999999917
11
175.8920669999999973
21
-76.4937619999999896
0
LINE
8
BLACK
6
CONTINUOUS
10
175.8920669999999973
20
-76.4937619999999896
11
175.7963959999999872
21
-76.5127930000000021
0
LINE
8
BLACK
6
CONTINUOUS
10
175.7963959999999872
20
-76.5127930000000021
11
175.7007250000000056
21
-76.4937619999999896
0
LINE
8
BLACK
6
CONTINUOUS
10
175.7007250000000056
20
-76.4937619999999896
11
175.6196199999999976
21
-76.4395689999999917
0
LINE
8
BLACK
6
CONTINUOUS
10
175.6196199999999976
20
-76.4395689999999917
11
175.1246449999999868
21
-75.944593999999995
0
LINE
8
BLACK
6
CONTINUOUS
10
175.1246449999999868
20
-75.944593999999995
11
175.0704519999999889
21
-75.8634890000000013
0
LINE
8
BLACK
6
CONTINUOUS
10
175.0704519999999889
20
-75.8634890000000013
11
175.0514210000000048
21
-75.7678179999999912
0
LINE
8
BLACK
6
CONTINUOUS
10
175.0514210000000048
20
-75.7678179999999912
11
175.0704519999999889
21
-75.6721469999999954
0
LINE
8
BLACK
6
CONTINUOUS
10
175.0704519999999889
20
-75.6721469999999954
11
175.1246449999999868
21
-75.5910409999999899
0
LINE
8
BLACK
6
CONTINUOUS
10
175.1246449999999868
20
-75.5910409999999899
11
175.7610410000000059
21
-74.9546449999999993
0
LINE
8
BLACK
6
CONTINUOUS
10
175.7610410000000059
20
-74.9546449999999993
11
175.8421469999999829
21
-74.9004520000000014
0
LINE
8
BLACK
6
CONTINUOUS
10
175.8421469999999829
20
-74.9004520000000014
11
175.9378179999999929
21
-74.8814210000000031
0
LINE
8
BLACK
6
CONTINUOUS
10
175.9378179999999929
20
-74.8814210000000031
11
176.033489000000003
21
-74.9004520000000014
0
LINE
8
BLACK
6
CONTINUOUS
10
187.7874029999999834
20
-74.6364179999999919
11
187.8360659999999882
21
-74.668933999999993
0
LINE
8
BLACK
6
CONTINUOUS
10
187.8360659999999882
20
-74.668933999999993
11
187.8685820000000035
21
-74.7175969999999978
0
LINE
8
BLACK
6
CONTINUOUS
10
187.8685820000000035
20
-74.7175969999999978
11
187.8799999999999955
21
-74.7749999999999915
0
LINE
8
BLACK
6
CONTINUOUS
10
187.8799999999999955
20
-74.7749999999999915
11
187.8799999999999955
21
-76.0249999999999915
0
LINE
8
BLACK
6
CONTINUOUS
10
187.8799999999999955
20
-76.0249999999999915
11
187.8685820000000035
21
-76.0824029999999993
0
LINE
8
BLACK
6
CONTINUOUS
10
187.8685820000000035
20
-76.0824029999999993
11
187.8360659999999882
21
-76.1310659999999899
0
LINE
8
BLACK
6
CONTINUOUS
10
187.8360659999999882
20
-76.1310659999999899
11
187.7874029999999834
21
-76.163581999999991
0
LINE
8
BLACK
6
CONTINUOUS
10
187.7874029999999834
20
-76.163581999999991
11
187.7299999999999898
21
-76.1749999999999972
0
LINE
8
BLACK
6
CONTINUOUS
10
187.7299999999999898
20
-76.1749999999999972
11
187.4299999999999784
21
-76.1749999999999972
0
LINE
8
BLACK
6
CONTINUOUS
10
187.4299999999999784
20
-76.1749999999999972
11
187.3725969999999847
21
-76.163581999999991
0
LINE
8
BLACK
6
CONTINUOUS
10
187.3725969999999847
20
-76.163581999999991
11
187.32393399999998
21
-76.1310659999999899
0
LINE
8
BLACK
6
CONTINUOUS
10
187.32393399999998
20
-76.1310659999999899
11
187.2914179999999931
21
-76.0824029999999993
0
LINE
8
BLACK
6
CONTINUOUS
10
187.2914179999999931
20
-76.0824029999999993
11
187.2800000000000011
21
-76.0249999999999915
0
LINE
8
BLACK
6
CONTINUOUS
10
187.2800000000000011
20
-76.0249999999999915
11
187.2800000000000011
21
-74.7749999999999915
0
LINE
8
BLACK
6
CONTINUOUS
10
187.2800000000000011
20
-74.7749999999999915
11
187.2914179999999931
21
-74.7175969999999978
0
LINE
8
BLACK
6
CONTINUOUS
10
187.2914179999999931
20
-74.7175969999999978
11
187.32393399999998
21
-74.668933999999993
0
LINE
8
BLACK
6
CONTINUOUS
10
187.32393399999998
20
-74.668933999999993
11
187.3725969999999847
21
-74.6364179999999919
0
LINE
8
BLACK
6
CONTINUOUS
10
187.3725969999999847
20
-74.6364179999999919
11
187.4299999999999784
21
-74.625
0
LINE
8
BLACK
6
CONTINUOUS
10
187.4299999999999784
20
-74.625
11
187.7299999999999898
21
-74.625
0
LINE
8
BLACK
6
CONTINUOUS
10
187.7299999999999898
20
-74.625
11
187.7874029999999834
21
-74.6364179999999919
0
LINE
8
BLACK
6
CONTINUOUS
10
188.7874029999999834
20
-74.6364179999999919
11
188.8360659999999882
21
-74.668933999999993
0
LINE
8
BLACK
6
CONTINUOUS
10
188.8360659999999882
20
-74.668933999999993
11
188.8685820000000035
21
-74.7175969999999978
0
LINE
8
BLACK
6
CONTINUOUS
10
188.8685820000000035
20
-74.7175969999999978
11
188.8799999999999955
21
-74.7749999999999915
0
LINE
8
BLACK
6
CONTINUOUS
10
188.8799999999999955
20
-74.7749999999999915
11
188.8799999999999955
21
-76.0249999999999915
0
LINE
8
BLACK
6
CONTINUOUS
10
188.8799999999999955
20
-76.0249999999999915
11
188.8685820000000035
21
-76.0824029999999993
0
LINE
8
BLACK
6
CONTINUOUS
10
188.8685820000000035
20
-76.0824029999999993
11
188.8360659999999882
21
-76.1310659999999899
0
LINE
8
BLACK
6
CONTINUOUS
10
188.8360659999999882
20
-76.1310659999999899
11
188.7874029999999834
21
-76.163581999999991
0
LINE
8
BLACK
6
CONTINUOUS
10
188.7874029999999834
20
-76.163581999999991
11
188.7299999999999898
21
-76.1749999999999972
0
LINE
8
BLACK
6
CONTINUOUS
10
188.7299999999999898
20
-76.1749999999999972
11
188.4299999999999784
21
-76.1749999999999972
0
LINE
8
BLACK
6
CONTINUOUS
10
188.4299999999999784
20
-76.1749999999999972
11
188.3725969999999847
21
-76.163581999999991
0
LINE
8
BLACK
6
CONTINUOUS
10
188.3725969999999847
20
-76.163581999999991
11
188.32393399999998
21
-76.1310659999999899
0
LINE
8
BLACK
6
CONTINUOUS
10
188.32393399999998
20
-76.1310659999999899
11
188.2914179999999931
21
-76.0824029999999993
0
LINE
8
BLACK
6
CONTINUOUS
10
188.2914179999999931
20
-76.0824029999999993
11
188.2800000000000011
21
-76.0249999999999915
0
LINE
8
BLACK
6
CONTINUOUS
10
188.2800000000000011
20
-76.0249999999999915
11
188.2800000000000011
21
-74.7749999999999915
0
LINE
8
BLACK
6
CONTINUOUS
10
188.2800000000000011
20
-74.7749999999999915
11
188.2914179999999931
21
-74.7175969999999978
0
LINE
8
BLACK
6
CONTINUOUS
10
188.2914179999999931
20
-74.7175969999999978
11
188.32393399999998
21
-74.668933999999993
0
LINE
8
BLACK
6
CONTINUOUS
10
188.32393399999998
20
-74.668933999999993
11
188.3725969999999847
21
-74.6364179999999919
0
LINE
8
BLACK
6
CONTINUOUS
10
188.3725969999999847
20
-74.6364179999999919
11
188.4299999999999784
21
-74.625
0
LINE
8
BLACK
6
CONTINUOUS
10
188.4299999999999784
20
-74.625
11
188.7299999999999898
21
-74.625
0
LINE
8
BLACK
6
CONTINUOUS
10
188.7299999999999898
20
-74.625
11
188.7874029999999834
21
-74.6364179999999919
0
LINE
8
BLACK
6
CONTINUOUS
10
189.7874029999999834
20
-74.6364179999999919
11
189.8360659999999882
21
-74.668933999999993
0
LINE
8
BLACK
6
CONTINUOUS
10
189.8360659999999882
20
-74.668933999999993
11
189.8685820000000035
21
-74.7175969999999978
0
LINE
8
BLACK
6
CONTINUOUS
10
189.8685820000000035
20
-74.7175969999999978
11
189.8799999999999955
21
-74.7749999999999915
0
LINE
8
BLACK
6
CONTINUOUS
10
189.8799999999999955
20
-74.7749999999999915
11
189.8799999999999955
21
-76.0249999999999915
0
LINE
8
BLACK
6
CONTINUOUS
10
189.8799999999999955
20
-76.0249999999999915
11
189.8685820000000035
21
-76.0824029999999993
0
LINE
8
BLACK
6
CONTINUOUS
10
189.8685820000000035
20
-76.0824029999999993
11
189.8360659999999882
21
-76.1310659999999899
0
LINE
8
BLACK
6
CONTINUOUS
10
189.8360659999999882
20
-76.1310659999999899
11
189.7874029999999834
21
-76.163581999999991
0
LINE
8
BLACK
6
CONTINUOUS
10
189.7874029999999834
20
-76.163581999999991
11
189.7299999999999898
21
-76.1749999999999972
0
LINE
8
BLACK
6
CONTINUOUS
10
189.7299999999999898
20
-76.1749999999999972
11
189.4299999999999784
21
-76.1749999999999972
0
LINE
8
BLACK
6
CONTINUOUS
10
189.4299999999999784
20
-76.1749999999999972
11
189.3725969999999847
21
-76.163581999999991
0
LINE
8
BLACK
6
CONTINUOUS
10
189.3725969999999847
20
-76.163581999999991
11
189.32393399999998
21
-76.1310659999999899
0
LINE
8
BLACK
6
CONTINUOUS
10
189.32393399999998
20
-76.1310659999999899
11
189.2914179999999931
21
-76.0824029999999993
0
LINE
8
BLACK
6
CONTINUOUS
10
189.2914179999999931
20
-76.0824029999999993
11
189.2800000000000011
21
-76.0249999999999915
0
LINE
8
BLACK
6
CONTINUOUS
10
189.2800000000000011
20
-76.0249999999999915
11
189.2800000000000011
21
-74.7749999999999915
0
LINE
8
BLACK
6
CONTINUOUS
10
189.2800000000000011
20
-74.7749999999999915
11
189.2914179999999931
21
-74.7175969999999978
0
LINE
8
BLACK
6
CONTINUOUS
10
189.2914179999999931
20
-74.7175969999999978
11
189.32393399999998
21
-74.668933999999993
0
LINE
8
BLACK
6
CONTINUOUS
10
189.32393399999998
20
-74.668933999999993
11
189.3725969999999847
21
-74.6364179999999919
0
LINE
8
BLACK
6
CONTINUOUS
10
189.3725969999999847
20
-74.6364179999999919
11
189.4299999999999784
21
-74.625
0
LINE
8
BLACK
6
CONTINUOUS
10
189.4299999999999784
20
-74.625
11
189.7299999999999898
21
-74.625
0
LINE
8
BLACK
6
CONTINUOUS
10
189.7299999999999898
20
-74.625
11
189.7874029999999834
21
-74.6364179999999919
0
LINE
8
BLACK
6
CONTINUOUS
10
190.7874029999999834
20
-74.6364179999999919
11
190.8360659999999882
21
-74.668933999999993
0
LINE
8
BLACK
6
CONTINUOUS
10
190.8360659999999882
20
-74.668933999999993
11
190.8685820000000035
21
-74.7175969999999978
0
LINE
8
BLACK
6
CONTINUOUS
10
190.8685820000000035
20
-74.7175969999999978
11
190.8799999999999955
21
-74.7749999999999915
0
LINE
8
BLACK
6
CONTINUOUS
10
190.8799999999999955
20
-74.7749999999999915
11
190.8799999999999955
21
-76.0249999999999915
0
LINE
8
BLACK
6
CONTINUOUS
10
190.8799999999999955
20
-76.0249999999999915
11
190.8685820000000035
21
-76.0824029999999993
0
LINE
8
BLACK
6
CONTINUOUS
10
190.8685820000000035
20
-76.0824029999999993
11
190.8360659999999882
21
-76.1310659999999899
0
LINE
8
BLACK
6
CONTINUOUS
10
190.8360659999999882
20
-76.1310659999999899
11
190.7874029999999834
21
-76.163581999999991
0
LINE
8
BLACK
6
CONTINUOUS
10
190.7874029999999834
20
-76.163581999999991
11
190.7299999999999898
21
-76.1749999999999972
0
LINE
8
BLACK
6
CONTINUOUS
10
190.7299999999999898
20
-76.1749999999999972
11
190.4299999999999784
21
-76.1749999999999972
0
LINE
8
BLACK
6
CONTINUOUS
10
190.4299999999999784
20
-76.1749999999999972
11
190.3725969999999847
21
-76.163581999999991
0
LINE
8
BLACK
6
CONTINUOUS
10
190.3725969999999847
20
-76.163581999999991
11
190.32393399999998
21
-76.1310659999999899
0
LINE
8
BLACK
6
CONTINUOUS
10
190.32393399999998
20
-76.1310659999999899
11
190.2914179999999931
21
-76.0824029999999993
0
LINE
8
BLACK
6
CONTINUOUS
10
190.2914179999999931
20
-76.0824029999999993
11
190.2800000000000011
21
-76.0249999999999915
0
LINE
8
BLACK
6
CONTINUOUS
10
190.2800000000000011
20
-76.0249999999999915
11
190.2800000000000011
21
-74.7749999999999915
0
LINE
8
BLACK
6
CONTINUOUS
10
190.2800000000000011
20
-74.7749999999999915
11
190.2914179999999931
21
-74.7175969999999978
0
LINE
8
BLACK
6
CONTINUOUS
10
190.2914179999999931
20
-74.7175969999999978
11
190.32393399999998
21
-74.668933999999993
0
LINE
8
BLACK
6
CONTINUOUS
10
190.32393399999998
20
-74.668933999999993
11
190.3725969999999847
21
-74.6364179999999919
0
LINE
8
BLACK
6
CONTINUOUS
10
190.3725969999999847
20
-74.6364179999999919
11
190.4299999999999784
21
-74.625
0
LINE
8
BLACK
6
CONTINUOUS
10
190.4299999999999784
20
-74.625
11
190.7299999999999898
21
-74.625
0
LINE
8
BLACK
6
CONTINUOUS
10
190.7299999999999898
20
-74.625
11
190.7874029999999834
21
-74.6364179999999919
0
LINE
8
BLACK
6
CONTINUOUS
10
179.7356709999999964
20
-74.0590299999999928
11
179.8167770000000019
21
-74.1132229999999907
0
LINE
8
BLACK
6
CONTINUOUS
10
179.8167770000000019
20
-74.1132229999999907
11
179.8709699999999998
21
-74.1943289999999962
0
LINE
8
BLACK
6
CONTINUOUS
10
179.8709699999999998
20
-74.1943289999999962
11
179.8899999999999864
21
-74.289999999999992
0
LINE
8
BLACK
6
CONTINUOUS
10
179.8899999999999864
20
-74.289999999999992
11
179.8899999999999864
21
-74.9899999999999949
0
LINE
8
BLACK
6
CONTINUOUS
10
179.8899999999999864
20
-74.9899999999999949
11
179.8709699999999998
21
-75.0856709999999907
0
LINE
8
BLACK
6
CONTINUOUS
10
179.8709699999999998
20
-75.0856709999999907
11
179.8167770000000019
21
-75.1667769999999962
0
LINE
8
BLACK
6
CONTINUOUS
10
179.8167770000000019
20
-75.1667769999999962
11
179.7356709999999964
21
-75.2209699999999941
0
LINE
8
BLACK
6
CONTINUOUS
10
179.7356709999999964
20
-75.2209699999999941
11
179.6399999999999864
21
-75.2399999999999949
0
LINE
8
BLACK
6
CONTINUOUS
10
179.6399999999999864
20
-75.2399999999999949
11
178.7399999999999807
21
-75.2399999999999949
0
LINE
8
BLACK
6
CONTINUOUS
10
178.7399999999999807
20
-75.2399999999999949
11
178.644328999999999
21
-75.2209699999999941
0
LINE
8
BLACK
6
CONTINUOUS
10
178.644328999999999
20
-75.2209699999999941
11
178.5632229999999936
21
-75.1667769999999962
0
LINE
8
BLACK
6
CONTINUOUS
10
178.5632229999999936
20
-75.1667769999999962
11
178.5090299999999957
21
-75.0856709999999907
0
LINE
8
BLACK
6
CONTINUOUS
10
178.5090299999999957
20
-75.0856709999999907
11
178.4899999999999807
21
-74.9899999999999949
0
LINE
8
BLACK
6
CONTINUOUS
10
178.4899999999999807
20
-74.9899999999999949
11
178.4899999999999807
21
-74.289999999999992
0
LINE
8
BLACK
6
CONTINUOUS
10
178.4899999999999807
20
-74.289999999999992
11
178.5090299999999957
21
-74.1943289999999962
0
LINE
8
BLACK
6
CONTINUOUS
10
178.5090299999999957
20
-74.1943289999999962
11
178.5632229999999936
21
-74.1132229999999907
0
LINE
8
BLACK
6
CONTINUOUS
10
178.5632229999999936
20
-74.1132229999999907
11
178.644328999999999
21
-74.0590299999999928
0
LINE
8
BLACK
6
CONTINUOUS
10
178.644328999999999
20
-74.0590299999999928
11
178.7399999999999807
21
-74.039999999999992
0
LINE
8
BLACK
6
CONTINUOUS
10
178.7399999999999807
20
-74.039999999999992
11
179.6399999999999864
21
-74.039999999999992
0
LINE
8
BLACK
6
CONTINUOUS
10
179.6399999999999864
20
-74.039999999999992
11
179.7356709999999964
21
-74.0590299999999928
0
LINE
8
BLACK
6
CONTINUOUS
10
174.6192749999999876
20
-73.4862380000000002
11
174.7003799999999956
21
-73.5404309999999981
0
LINE
8
BLACK
6
CONTINUOUS
10
174.7003799999999956
20
-73.5404309999999981
11
175.195354999999978
21
-74.0354059999999947
0
LINE
8
BLACK
6
CONTINUOUS
10
175.195354999999978
20
-74.0354059999999947
11
175.2495480000000043
21
-74.1165110000000027
0
LINE
8
BLACK
6
CONTINUOUS
10
175.2495480000000043
20
-74.1165110000000027
11
175.2685789999999884
21
-74.2121819999999985
0
LINE
8
BLACK
6
CONTINUOUS
10
175.2685789999999884
20
-74.2121819999999985
11
175.2495480000000043
21
-74.3078529999999944
0
LINE
8
BLACK
6
CONTINUOUS
10
175.2495480000000043
20
-74.3078529999999944
11
175.195354999999978
21
-74.3889589999999998
0
LINE
8
BLACK
6
CONTINUOUS
10
175.195354999999978
20
-74.3889589999999998
11
174.5589589999999873
21
-75.0253549999999905
0
LINE
8
BLACK
6
CONTINUOUS
10
174.5589589999999873
20
-75.0253549999999905
11
174.4778529999999819
21
-75.0795480000000026
0
LINE
8
BLACK
6
CONTINUOUS
10
174.4778529999999819
20
-75.0795480000000026
11
174.3821820000000002
21
-75.0985790000000009
0
LINE
8
BLACK
6
CONTINUOUS
10
174.3821820000000002
20
-75.0985790000000009
11
174.2865109999999902
21
-75.0795480000000026
0
LINE
8
BLACK
6
CONTINUOUS
10
174.2865109999999902
20
-75.0795480000000026
11
174.2054059999999822
21
-75.0253549999999905
0
LINE
8
BLACK
6
CONTINUOUS
10
174.2054059999999822
20
-75.0253549999999905
11
173.7104309999999998
21
-74.5303799999999939
0
LINE
8
BLACK
6
CONTINUOUS
10
173.7104309999999998
20
-74.5303799999999939
11
173.6562380000000019
21
-74.4492750000000001
0
LINE
8
BLACK
6
CONTINUOUS
10
173.6562380000000019
20
-74.4492750000000001
11
173.6372069999999894
21
-74.35360399999999
0
LINE
8
BLACK
6
CONTINUOUS
10
173.6372069999999894
20
-74.35360399999999
11
173.6562380000000019
21
-74.2579329999999942
0
LINE
8
BLACK
6
CONTINUOUS
10
173.6562380000000019
20
-74.2579329999999942
11
173.7104309999999998
21
-74.176827000000003
0
LINE
8
BLACK
6
CONTINUOUS
10
173.7104309999999998
20
-74.176827000000003
11
174.3468269999999904
21
-73.5404309999999981
0
LINE
8
BLACK
6
CONTINUOUS
10
174.3468269999999904
20
-73.5404309999999981
11
174.4279329999999959
21
-73.4862380000000002
0
LINE
8
BLACK
6
CONTINUOUS
10
174.4279329999999959
20
-73.4862380000000002
11
174.523604000000006
21
-73.4672070000000019
0
LINE
8
BLACK
6
CONTINUOUS
10
174.523604000000006
20
-73.4672070000000019
11
174.6192749999999876
21
-73.4862380000000002
0
LINE
8
BLACK
6
CONTINUOUS
10
179.7356709999999964
20
-72.0590299999999928
11
179.8167770000000019
21
-72.1132229999999907
0
LINE
8
BLACK
6
CONTINUOUS
10
179.8167770000000019
20
-72.1132229999999907
11
179.8709699999999998
21
-72.1943289999999962
0
LINE
8
BLACK
6
CONTINUOUS
10
179.8709699999999998
20
-72.1943289999999962
11
179.8899999999999864
21
-72.289999999999992
0
LINE
8
BLACK
6
CONTINUOUS
10
179.8899999999999864
20
-72.289999999999992
11
179.8899999999999864
21
-72.9899999999999949
0
LINE
8
BLACK
6
CONTINUOUS
10
179.8899999999999864
20
-72.9899999999999949
11
179.8709699999999998
21
-73.0856709999999907
0
LINE
8
BLACK
6
CONTINUOUS
10
179.8709699999999998
20
-73.0856709999999907
11
179.8167770000000019
21
-73.1667769999999962
0
LINE
8
BLACK
6
CONTINUOUS
10
179.8167770000000019
20
-73.1667769999999962
11
179.7356709999999964
21
-73.2209699999999941
0
LINE
8
BLACK
6
CONTINUOUS
10
179.7356709999999964
20
-73.2209699999999941
11
179.6399999999999864
21
-73.2399999999999949
0
LINE
8
BLACK
6
CONTINUOUS
10
179.6399999999999864
20
-73.2399999999999949
11
178.7399999999999807
21
-73.2399999999999949
0
LINE
8
BLACK
6
CONTINUOUS
10
178.7399999999999807
20
-73.2399999999999949
11
178.644328999999999
21
-73.2209699999999941
0
LINE
8
BLACK
6
CONTINUOUS
10
178.644328999999999
20
-73.2209699999999941
11
178.5632229999999936
21
-73.1667769999999962
0
LINE
8
BLACK
6
CONTINUOUS
10
178.5632229999999936
20
-73.1667769999999962
11
178.5090299999999957
21
-73.0856709999999907
0
LINE
8
BLACK
6
CONTINUOUS
10
178.5090299999999957
20
-73.0856709999999907
11
178.4899999999999807
21
-72.9899999999999949
0
LINE
8
BLACK
6
CONTINUOUS
10
178.4899999999999807
20
-72.9899999999999949
11
178.4899999999999807
21
-72.289999999999992
0
LINE
8
BLACK
6
CONTINUOUS
10
178.4899999999999807
20
-72.289999999999992
11
178.5090299999999957
21
-72.1943289999999962
0
LINE
8
BLACK
6
CONTINUOUS
10
178.5090299999999957
20
-72.1943289999999962
11
178.5632229999999936
21
-72.1132229999999907
0
LINE
8
BLACK
6
CONTINUOUS
10
178.5632229999999936
20
-72.1132229999999907
11
178.644328999999999
21
-72.0590299999999928
0
LINE
8
BLACK
6
CONTINUOUS
10
178.644328999999999
20
-72.0590299999999928
11
178.7399999999999807
21
-72.039999999999992
0
LINE
8
BLACK
6
CONTINUOUS
10
178.7399999999999807
20
-72.039999999999992
11
179.6399999999999864
21
-72.039999999999992
0
LINE
8
BLACK
6
CONTINUOUS
10
179.6399999999999864
20
-72.039999999999992
11
179.7356709999999964
21
-72.0590299999999928
0
LINE
8
BLACK
6
CONTINUOUS
10
186.7256710000000055
20
-70.6440300000000008
11
186.8067769999999825
21
-70.6982229999999987
0
LINE
8
BLACK
6
CONTINUOUS
10
186.8067769999999825
20
-70.6982229999999987
11
186.8609699999999805
21
-70.7793289999999899
0
LINE
8
BLACK
6
CONTINUOUS
10
186.8609699999999805
20
-70.7793289999999899
11
186.8799999999999955
21
-70.875
0
LINE
8
BLACK
6
CONTINUOUS
10
186.8799999999999955
20
-70.875
11
186.8799999999999955
21
-72.1749999999999972
0
LINE
8
BLACK
6
CONTINUOUS
10
186.8799999999999955
20
-72.1749999999999972
11
186.8609699999999805
21
-72.270670999999993
0
LINE
8
BLACK
6
CONTINUOUS
10
186.8609699999999805
20
-72.270670999999993
11
186.8067769999999825
21
-72.3517769999999985
0
LINE
8
BLACK
6
CONTINUOUS
10
186.8067769999999825
20
-72.3517769999999985
11
186.7256710000000055
21
-72.4059699999999964
0
LINE
8
BLACK
6
CONTINUOUS
10
186.7256710000000055
20
-72.4059699999999964
11
186.6299999999999955
21
-72.4249999999999972
0
LINE
8
BLACK
6
CONTINUOUS
10
186.6299999999999955
20
-72.4249999999999972
11
185.9299999999999784
21
-72.4249999999999972
0
LINE
8
BLACK
6
CONTINUOUS
10
185.9299999999999784
20
-72.4249999999999972
11
185.8343289999999968
21
-72.4059699999999964
0
LINE
8
BLACK
6
CONTINUOUS
10
185.8343289999999968
20
-72.4059699999999964
11
185.7532229999999913
21
-72.3517769999999985
0
LINE
8
BLACK
6
CONTINUOUS
10
185.7532229999999913
20
-72.3517769999999985
11
185.6990299999999934
21
-72.270670999999993
0
LINE
8
BLACK
6
CONTINUOUS
10
185.6990299999999934
20
-72.270670999999993
11
185.6799999999999784
21
-72.1749999999999972
0
LINE
8
BLACK
6
CONTINUOUS
10
185.6799999999999784
20
-72.1749999999999972
11
185.6799999999999784
21
-70.875
0
LINE
8
BLACK
6
CONTINUOUS
10
185.6799999999999784
20
-70.875
11
185.6990299999999934
21
-70.7793289999999899
0
LINE
8
BLACK
6
CONTINUOUS
10
185.6990299999999934
20
-70.7793289999999899
11
185.7532229999999913
21
-70.6982229999999987
0
LINE
8
BLACK
6
CONTINUOUS
10
185.7532229999999913
20
-70.6982229999999987
11
185.8343289999999968
21
-70.6440300000000008
0
LINE
8
BLACK
6
CONTINUOUS
10
185.8343289999999968
20
-70.6440300000000008
11
185.9299999999999784
21
-70.625
0
LINE
8
BLACK
6
CONTINUOUS
10
185.9299999999999784
20
-70.625
11
186.6299999999999955
21
-70.625
0
LINE
8
BLACK
6
CONTINUOUS
10
186.6299999999999955
20
-70.625
11
186.7256710000000055
21
-70.6440300000000008
0
LINE
8
BLACK
6
CONTINUOUS
10
192.3256709999999998
20
-70.6440300000000008
11
192.4067770000000053
21
-70.6982229999999987
0
LINE
8
BLACK
6
CONTINUOUS
10
192.4067770000000053
20
-70.6982229999999987
11
192.4609700000000032
21
-70.7793289999999899
0
LINE
8
BLACK
6
CONTINUOUS
10
192.4609700000000032
20
-70.7793289999999899
11
192.4799999999999898
21
-70.875
0
LINE
8
BLACK
6
CONTINUOUS
10
192.4799999999999898
20
-70.875
11
192.4799999999999898
21
-72.1749999999999972
0
LINE
8
BLACK
6
CONTINUOUS
10
192.4799999999999898
20
-72.1749999999999972
11
192.4609700000000032
21
-72.270670999999993
0
LINE
8
BLACK
6
CONTINUOUS
10
192.4609700000000032
20
-72.270670999999993
11
192.4067770000000053
21
-72.3517769999999985
0
LINE
8
BLACK
6
CONTINUOUS
10
192.4067770000000053
20
-72.3517769999999985
11
192.3256709999999998
21
-72.4059699999999964
0
LINE
8
BLACK
6
CONTINUOUS
10
192.3256709999999998
20
-72.4059699999999964
11
192.2299999999999898
21
-72.4249999999999972
0
LINE
8
BLACK
6
CONTINUOUS
10
192.2299999999999898
20
-72.4249999999999972
11
191.5300000000000011
21
-72.4249999999999972
0
LINE
8
BLACK
6
CONTINUOUS
10
191.5300000000000011
20
-72.4249999999999972
11
191.4343289999999911
21
-72.4059699999999964
0
LINE
8
BLACK
6
CONTINUOUS
10
191.4343289999999911
20
-72.4059699999999964
11
191.3532229999999856
21
-72.3517769999999985
0
LINE
8
BLACK
6
CONTINUOUS
10
191.3532229999999856
20
-72.3517769999999985
11
191.2990299999999877
21
-72.270670999999993
0
LINE
8
BLACK
6
CONTINUOUS
10
191.2990299999999877
20
-72.270670999999993
11
191.2800000000000011
21
-72.1749999999999972
0
LINE
8
BLACK
6
CONTINUOUS
10
191.2800000000000011
20
-72.1749999999999972
11
191.2800000000000011
21
-70.875
0
LINE
8
BLACK
6
CONTINUOUS
10
191.2800000000000011
20
-70.875
11
191.2990299999999877
21
-70.7793289999999899
0
LINE
8
BLACK
6
CONTINUOUS
10
191.2990299999999877
20
-70.7793289999999899
11
191.3532229999999856
21
-70.6982229999999987
0
LINE
8
BLACK
6
CONTINUOUS
10
191.3532229999999856
20
-70.6982229999999987
11
191.4343289999999911
21
-70.6440300000000008
0
LINE
8
BLACK
6
CONTINUOUS
10
191.4343289999999911
20
-70.6440300000000008
11
191.5300000000000011
21
-70.625
0
LINE
8
BLACK
6
CONTINUOUS
10
191.5300000000000011
20
-70.625
11
192.2299999999999898
21
-70.625
0
LINE
8
BLACK
6
CONTINUOUS
10
192.2299999999999898
20
-70.625
11
192.3256709999999998
21
-70.6440300000000008
  0
ENDSEC
  0
EOF
