%TF.GenerationSoftware,KiCad,Pcbnew,9.0.0*%
%TF.CreationDate,2025-04-27T09:25:50-07:00*%
%TF.ProjectId,c7k-rt,63376b2d-7274-42e6-9b69-6361645f7063,rev?*%
%TF.SameCoordinates,Original*%
%TF.FileFunction,Legend,Top*%
%TF.FilePolarity,Positive*%
%FSLAX46Y46*%
G04 Gerber Fmt 4.6, Leading zero omitted, Abs format (unit mm)*
G04 Created by KiCad (PCBNEW 9.0.0) date 2025-04-27 09:25:50*
%MOMM*%
%LPD*%
G01*
G04 APERTURE LIST*
%ADD10C,0.150000*%
%ADD11C,0.120000*%
G04 APERTURE END LIST*
D10*
X169607200Y-77588332D02*
X169654819Y-77445475D01*
X169654819Y-77445475D02*
X169654819Y-77207380D01*
X169654819Y-77207380D02*
X169607200Y-77112142D01*
X169607200Y-77112142D02*
X169559580Y-77064523D01*
X169559580Y-77064523D02*
X169464342Y-77016904D01*
X169464342Y-77016904D02*
X169369104Y-77016904D01*
X169369104Y-77016904D02*
X169273866Y-77064523D01*
X169273866Y-77064523D02*
X169226247Y-77112142D01*
X169226247Y-77112142D02*
X169178628Y-77207380D01*
X169178628Y-77207380D02*
X169131009Y-77397856D01*
X169131009Y-77397856D02*
X169083390Y-77493094D01*
X169083390Y-77493094D02*
X169035771Y-77540713D01*
X169035771Y-77540713D02*
X168940533Y-77588332D01*
X168940533Y-77588332D02*
X168845295Y-77588332D01*
X168845295Y-77588332D02*
X168750057Y-77540713D01*
X168750057Y-77540713D02*
X168702438Y-77493094D01*
X168702438Y-77493094D02*
X168654819Y-77397856D01*
X168654819Y-77397856D02*
X168654819Y-77159761D01*
X168654819Y-77159761D02*
X168702438Y-77016904D01*
X168654819Y-76683570D02*
X169654819Y-76445475D01*
X169654819Y-76445475D02*
X168940533Y-76254999D01*
X168940533Y-76254999D02*
X169654819Y-76064523D01*
X169654819Y-76064523D02*
X168654819Y-75826428D01*
X168988152Y-75016904D02*
X169654819Y-75016904D01*
X168607200Y-75254999D02*
X169321485Y-75493094D01*
X169321485Y-75493094D02*
X169321485Y-74874047D01*
X169597200Y-88173332D02*
X169644819Y-88030475D01*
X169644819Y-88030475D02*
X169644819Y-87792380D01*
X169644819Y-87792380D02*
X169597200Y-87697142D01*
X169597200Y-87697142D02*
X169549580Y-87649523D01*
X169549580Y-87649523D02*
X169454342Y-87601904D01*
X169454342Y-87601904D02*
X169359104Y-87601904D01*
X169359104Y-87601904D02*
X169263866Y-87649523D01*
X169263866Y-87649523D02*
X169216247Y-87697142D01*
X169216247Y-87697142D02*
X169168628Y-87792380D01*
X169168628Y-87792380D02*
X169121009Y-87982856D01*
X169121009Y-87982856D02*
X169073390Y-88078094D01*
X169073390Y-88078094D02*
X169025771Y-88125713D01*
X169025771Y-88125713D02*
X168930533Y-88173332D01*
X168930533Y-88173332D02*
X168835295Y-88173332D01*
X168835295Y-88173332D02*
X168740057Y-88125713D01*
X168740057Y-88125713D02*
X168692438Y-88078094D01*
X168692438Y-88078094D02*
X168644819Y-87982856D01*
X168644819Y-87982856D02*
X168644819Y-87744761D01*
X168644819Y-87744761D02*
X168692438Y-87601904D01*
X168644819Y-87268570D02*
X169644819Y-87030475D01*
X169644819Y-87030475D02*
X168930533Y-86839999D01*
X168930533Y-86839999D02*
X169644819Y-86649523D01*
X169644819Y-86649523D02*
X168644819Y-86411428D01*
X168644819Y-85554285D02*
X168644819Y-86030475D01*
X168644819Y-86030475D02*
X169121009Y-86078094D01*
X169121009Y-86078094D02*
X169073390Y-86030475D01*
X169073390Y-86030475D02*
X169025771Y-85935237D01*
X169025771Y-85935237D02*
X169025771Y-85697142D01*
X169025771Y-85697142D02*
X169073390Y-85601904D01*
X169073390Y-85601904D02*
X169121009Y-85554285D01*
X169121009Y-85554285D02*
X169216247Y-85506666D01*
X169216247Y-85506666D02*
X169454342Y-85506666D01*
X169454342Y-85506666D02*
X169549580Y-85554285D01*
X169549580Y-85554285D02*
X169597200Y-85601904D01*
X169597200Y-85601904D02*
X169644819Y-85697142D01*
X169644819Y-85697142D02*
X169644819Y-85935237D01*
X169644819Y-85935237D02*
X169597200Y-86030475D01*
X169597200Y-86030475D02*
X169549580Y-86078094D01*
X169597200Y-98768332D02*
X169644819Y-98625475D01*
X169644819Y-98625475D02*
X169644819Y-98387380D01*
X169644819Y-98387380D02*
X169597200Y-98292142D01*
X169597200Y-98292142D02*
X169549580Y-98244523D01*
X169549580Y-98244523D02*
X169454342Y-98196904D01*
X169454342Y-98196904D02*
X169359104Y-98196904D01*
X169359104Y-98196904D02*
X169263866Y-98244523D01*
X169263866Y-98244523D02*
X169216247Y-98292142D01*
X169216247Y-98292142D02*
X169168628Y-98387380D01*
X169168628Y-98387380D02*
X169121009Y-98577856D01*
X169121009Y-98577856D02*
X169073390Y-98673094D01*
X169073390Y-98673094D02*
X169025771Y-98720713D01*
X169025771Y-98720713D02*
X168930533Y-98768332D01*
X168930533Y-98768332D02*
X168835295Y-98768332D01*
X168835295Y-98768332D02*
X168740057Y-98720713D01*
X168740057Y-98720713D02*
X168692438Y-98673094D01*
X168692438Y-98673094D02*
X168644819Y-98577856D01*
X168644819Y-98577856D02*
X168644819Y-98339761D01*
X168644819Y-98339761D02*
X168692438Y-98196904D01*
X168644819Y-97863570D02*
X169644819Y-97625475D01*
X169644819Y-97625475D02*
X168930533Y-97434999D01*
X168930533Y-97434999D02*
X169644819Y-97244523D01*
X169644819Y-97244523D02*
X168644819Y-97006428D01*
X168644819Y-96196904D02*
X168644819Y-96387380D01*
X168644819Y-96387380D02*
X168692438Y-96482618D01*
X168692438Y-96482618D02*
X168740057Y-96530237D01*
X168740057Y-96530237D02*
X168882914Y-96625475D01*
X168882914Y-96625475D02*
X169073390Y-96673094D01*
X169073390Y-96673094D02*
X169454342Y-96673094D01*
X169454342Y-96673094D02*
X169549580Y-96625475D01*
X169549580Y-96625475D02*
X169597200Y-96577856D01*
X169597200Y-96577856D02*
X169644819Y-96482618D01*
X169644819Y-96482618D02*
X169644819Y-96292142D01*
X169644819Y-96292142D02*
X169597200Y-96196904D01*
X169597200Y-96196904D02*
X169549580Y-96149285D01*
X169549580Y-96149285D02*
X169454342Y-96101666D01*
X169454342Y-96101666D02*
X169216247Y-96101666D01*
X169216247Y-96101666D02*
X169121009Y-96149285D01*
X169121009Y-96149285D02*
X169073390Y-96196904D01*
X169073390Y-96196904D02*
X169025771Y-96292142D01*
X169025771Y-96292142D02*
X169025771Y-96482618D01*
X169025771Y-96482618D02*
X169073390Y-96577856D01*
X169073390Y-96577856D02*
X169121009Y-96625475D01*
X169121009Y-96625475D02*
X169216247Y-96673094D01*
D11*
%TO.C,SW4*%
X166620000Y-72395000D02*
X168720000Y-72395000D01*
X166620000Y-80115000D02*
X168720000Y-80115000D01*
X168490000Y-72915000D02*
X168720000Y-72915000D01*
X168490000Y-73455000D02*
X168490000Y-72915000D01*
X168490000Y-77955000D02*
X168490000Y-74555000D01*
X168490000Y-79595000D02*
X168490000Y-79055000D01*
X168490000Y-79595000D02*
X168720000Y-79595000D01*
X171320000Y-72395000D02*
X171830000Y-72395000D01*
X171320000Y-72915000D02*
X171830000Y-72915000D01*
X171320000Y-79595000D02*
X171830000Y-79595000D01*
X171320000Y-80115000D02*
X171830000Y-80115000D01*
X171830000Y-72915000D02*
X171830000Y-72395000D01*
X171830000Y-80115000D02*
X171830000Y-79595000D01*
%TO.C,SW5*%
X166610000Y-82980000D02*
X168710000Y-82980000D01*
X166610000Y-90700000D02*
X168710000Y-90700000D01*
X168480000Y-83500000D02*
X168710000Y-83500000D01*
X168480000Y-84040000D02*
X168480000Y-83500000D01*
X168480000Y-88540000D02*
X168480000Y-85140000D01*
X168480000Y-90180000D02*
X168480000Y-89640000D01*
X168480000Y-90180000D02*
X168710000Y-90180000D01*
X171310000Y-82980000D02*
X171820000Y-82980000D01*
X171310000Y-83500000D02*
X171820000Y-83500000D01*
X171310000Y-90180000D02*
X171820000Y-90180000D01*
X171310000Y-90700000D02*
X171820000Y-90700000D01*
X171820000Y-83500000D02*
X171820000Y-82980000D01*
X171820000Y-90700000D02*
X171820000Y-90180000D01*
D10*
%TO.C,SW0*%
X232200000Y-87850000D02*
X233200000Y-87850000D01*
X232200000Y-88850000D02*
X232200000Y-87850000D01*
X232200000Y-101850000D02*
X232200000Y-100850000D01*
X232200000Y-101850000D02*
X233200000Y-101850000D01*
X233200000Y-87850000D02*
X232200000Y-87850000D01*
X245200000Y-101850000D02*
X246200000Y-101850000D01*
X246200000Y-87850000D02*
X245200000Y-87850000D01*
X246200000Y-87850000D02*
X246200000Y-88850000D01*
X246200000Y-100850000D02*
X246200000Y-101850000D01*
D11*
%TO.C,SW6*%
X166610000Y-93575000D02*
X168710000Y-93575000D01*
X166610000Y-101295000D02*
X168710000Y-101295000D01*
X168480000Y-94095000D02*
X168710000Y-94095000D01*
X168480000Y-94635000D02*
X168480000Y-94095000D01*
X168480000Y-99135000D02*
X168480000Y-95735000D01*
X168480000Y-100775000D02*
X168480000Y-100235000D01*
X168480000Y-100775000D02*
X168710000Y-100775000D01*
X171310000Y-93575000D02*
X171820000Y-93575000D01*
X171310000Y-94095000D02*
X171820000Y-94095000D01*
X171310000Y-100775000D02*
X171820000Y-100775000D01*
X171310000Y-101295000D02*
X171820000Y-101295000D01*
X171820000Y-94095000D02*
X171820000Y-93575000D01*
X171820000Y-101295000D02*
X171820000Y-100775000D01*
D10*
%TO.C,SW2*%
X194200000Y-80320000D02*
X195200000Y-80320000D01*
X194200000Y-81320000D02*
X194200000Y-80320000D01*
X194200000Y-94320000D02*
X194200000Y-93320000D01*
X194200000Y-94320000D02*
X195200000Y-94320000D01*
X195200000Y-80320000D02*
X194200000Y-80320000D01*
X207200000Y-94320000D02*
X208200000Y-94320000D01*
X208200000Y-80320000D02*
X207200000Y-80320000D01*
X208200000Y-80320000D02*
X208200000Y-81320000D01*
X208200000Y-93320000D02*
X208200000Y-94320000D01*
%TO.C,SW3*%
X175200000Y-87950000D02*
X176200000Y-87950000D01*
X175200000Y-88950000D02*
X175200000Y-87950000D01*
X175200000Y-101950000D02*
X175200000Y-100950000D01*
X175200000Y-101950000D02*
X176200000Y-101950000D01*
X176200000Y-87950000D02*
X175200000Y-87950000D01*
X188200000Y-101950000D02*
X189200000Y-101950000D01*
X189200000Y-87950000D02*
X188200000Y-87950000D01*
X189200000Y-87950000D02*
X189200000Y-88950000D01*
X189200000Y-100950000D02*
X189200000Y-101950000D01*
%TO.C,SW1*%
X213200000Y-80320000D02*
X214200000Y-80320000D01*
X213200000Y-81320000D02*
X213200000Y-80320000D01*
X213200000Y-94320000D02*
X213200000Y-93320000D01*
X213200000Y-94320000D02*
X214200000Y-94320000D01*
X214200000Y-80320000D02*
X213200000Y-80320000D01*
X226200000Y-94320000D02*
X227200000Y-94320000D01*
X227200000Y-80320000D02*
X226200000Y-80320000D01*
X227200000Y-80320000D02*
X227200000Y-81320000D01*
X227200000Y-93320000D02*
X227200000Y-94320000D01*
%TD*%
M02*
