  0
SECTION
  2
HEADER
  9
$ANGBASE
  50
0.0
  9
$ANGDIR
  70
1
  9
$MEASUREMENT
  70
1
  0
ENDSEC
  0
SECTION
  2
TABLES
  0
TABLE
  2
LTYPE
  70
4
  0
LTYPE
  5
40F
  2
CONTINUOUS
  70
0
  3
Solid line
  72
65
  73
0
  40
0.0
  0
LTYPE
  5
410
  2
DASHDOT
 70
0
  3
Dash Dot ____ _ ____ _
 72
65
 73
4
 40
2.0
 49
1.25
 49
-0.25
 49
0.25
 49
-0.25
  0
LTYPE
  5
411
  2
DASHED
 70
0
  3
Dashed __ __ __ __ __
 72
65
 73
2
 40
0.75
 49
0.5
 49
-0.25
  0
LTYPE
  5
43B
  2
DOTTED
 70
0
  3
Dotted .  .  .  .
 72
65
 73
2
 40
0.2
 49
0.0
 49
-0.2
  0
ENDTAB
  0
TABLE
  2
STYLE
  70
4
  0
STYLE
  2
KICAD
  70
0
  40
0
  41
1
  42
1
  50
0
  71
0
  3
isocp.shx
  0
STYLE
  2
KICADB
  70
0
  40
0
  41
1
  42
1
  50
0
  71
0
  3
isocp.shx
  0
STYLE
  2
KICADI
  70
0
  40
0
  41
1
  42
1
  50
15
  71
0
  3
isocp.shx
  0
STYLE
  2
KICADBI
  70
0
  40
0
  41
1
  42
1
  50
15
  71
0
  3
isocp.shx
  0
ENDTAB
  0
TABLE
  2
LAYER
  70
1
  0
LAYER
  2
BLACK
  70
0
  62
7
  6
CONTINUOUS
  0
ENDTAB
  0
ENDSEC
  0
SECTION
  2
ENTITIES
0
LINE
8
BLACK
6
CONTINUOUS
10
170.290284999999983
20
-99.9780599999999993
11
170.4713969999999961
21
-100.0530789999999968
0
LINE
8
BLACK
6
CONTINUOUS
10
170.4713969999999961
20
-100.0530789999999968
11
170.6343929999999887
21
-100.1619899999999888
0
LINE
8
BLACK
6
CONTINUOUS
10
170.6343929999999887
20
-100.1619899999999888
11
170.7730099999999993
21
-100.3006069999999994
0
LINE
8
BLACK
6
CONTINUOUS
10
170.7730099999999993
20
-100.3006069999999994
11
170.8819210000000055
21
-100.463602999999992
0
LINE
8
BLACK
6
CONTINUOUS
10
170.8819210000000055
20
-100.463602999999992
11
170.956940000000003
21
-100.6447149999999908
0
LINE
8
BLACK
6
CONTINUOUS
10
170.956940000000003
20
-100.6447149999999908
11
170.9951849999999922
21
-100.8369829999999894
0
LINE
8
BLACK
6
CONTINUOUS
10
170.9951849999999922
20
-100.8369829999999894
11
170.9951849999999922
21
-101.033017000000001
0
LINE
8
BLACK
6
CONTINUOUS
10
170.9951849999999922
20
-101.033017000000001
11
170.956940000000003
21
-101.2252849999999995
0
LINE
8
BLACK
6
CONTINUOUS
10
170.956940000000003
20
-101.2252849999999995
11
170.8819210000000055
21
-101.4063969999999983
0
LINE
8
BLACK
6
CONTINUOUS
10
170.8819210000000055
20
-101.4063969999999983
11
170.7730099999999993
21
-101.5693929999999909
0
LINE
8
BLACK
6
CONTINUOUS
10
170.7730099999999993
20
-101.5693929999999909
11
170.6343929999999887
21
-101.7080100000000016
0
LINE
8
BLACK
6
CONTINUOUS
10
170.6343929999999887
20
-101.7080100000000016
11
170.4713969999999961
21
-101.8169209999999936
0
LINE
8
BLACK
6
CONTINUOUS
10
170.4713969999999961
20
-101.8169209999999936
11
170.290284999999983
21
-101.8919399999999911
0
LINE
8
BLACK
6
CONTINUOUS
10
170.290284999999983
20
-101.8919399999999911
11
170.0980169999999987
21
-101.9301849999999945
0
LINE
8
BLACK
6
CONTINUOUS
10
170.0980169999999987
20
-101.9301849999999945
11
169.9019830000000013
21
-101.9301849999999945
0
LINE
8
BLACK
6
CONTINUOUS
10
169.9019830000000013
20
-101.9301849999999945
11
169.7097149999999885
21
-101.8919399999999911
0
LINE
8
BLACK
6
CONTINUOUS
10
169.7097149999999885
20
-101.8919399999999911
11
169.5286030000000039
21
-101.8169209999999936
0
LINE
8
BLACK
6
CONTINUOUS
10
169.5286030000000039
20
-101.8169209999999936
11
169.3656069999999829
21
-101.7080100000000016
0
LINE
8
BLACK
6
CONTINUOUS
10
169.3656069999999829
20
-101.7080100000000016
11
169.2269900000000007
21
-101.5693929999999909
0
LINE
8
BLACK
6
CONTINUOUS
10
169.2269900000000007
20
-101.5693929999999909
11
169.1180789999999945
21
-101.4063969999999983
0
LINE
8
BLACK
6
CONTINUOUS
10
169.1180789999999945
20
-101.4063969999999983
11
169.043059999999997
21
-101.2252849999999995
0
LINE
8
BLACK
6
CONTINUOUS
10
169.043059999999997
20
-101.2252849999999995
11
169.0048149999999794
21
-101.033017000000001
0
LINE
8
BLACK
6
CONTINUOUS
10
169.0048149999999794
20
-101.033017000000001
11
169.0048149999999794
21
-100.8369829999999894
0
LINE
8
BLACK
6
CONTINUOUS
10
169.0048149999999794
20
-100.8369829999999894
11
169.043059999999997
21
-100.6447149999999908
0
LINE
8
BLACK
6
CONTINUOUS
10
169.043059999999997
20
-100.6447149999999908
11
169.1180789999999945
21
-100.463602999999992
0
LINE
8
BLACK
6
CONTINUOUS
10
169.1180789999999945
20
-100.463602999999992
11
169.2269900000000007
21
-100.3006069999999994
0
LINE
8
BLACK
6
CONTINUOUS
10
169.2269900000000007
20
-100.3006069999999994
11
169.3656069999999829
21
-100.1619899999999888
0
LINE
8
BLACK
6
CONTINUOUS
10
169.3656069999999829
20
-100.1619899999999888
11
169.5286030000000039
21
-100.0530789999999968
0
LINE
8
BLACK
6
CONTINUOUS
10
169.5286030000000039
20
-100.0530789999999968
11
169.7097149999999885
21
-99.9780599999999993
0
LINE
8
BLACK
6
CONTINUOUS
10
169.7097149999999885
20
-99.9780599999999993
11
169.9019830000000013
21
-99.9398149999999958
0
LINE
8
BLACK
6
CONTINUOUS
10
169.9019830000000013
20
-99.9398149999999958
11
170.0980169999999987
21
-99.9398149999999958
0
LINE
8
BLACK
6
CONTINUOUS
10
170.0980169999999987
20
-99.9398149999999958
11
170.290284999999983
21
-99.9780599999999993
0
LINE
8
BLACK
6
CONTINUOUS
10
167.8002850000000024
20
-98.7280599999999993
11
167.981396999999987
21
-98.8030789999999968
0
LINE
8
BLACK
6
CONTINUOUS
10
167.981396999999987
20
-98.8030789999999968
11
168.1443929999999796
21
-98.9119899999999888
0
LINE
8
BLACK
6
CONTINUOUS
10
168.1443929999999796
20
-98.9119899999999888
11
168.2830099999999902
21
-99.0506069999999994
0
LINE
8
BLACK
6
CONTINUOUS
10
168.2830099999999902
20
-99.0506069999999994
11
168.3919209999999964
21
-99.213602999999992
0
LINE
8
BLACK
6
CONTINUOUS
10
168.3919209999999964
20
-99.213602999999992
11
168.4669399999999939
21
-99.3947149999999908
0
LINE
8
BLACK
6
CONTINUOUS
10
168.4669399999999939
20
-99.3947149999999908
11
168.5051849999999831
21
-99.5869829999999894
0
LINE
8
BLACK
6
CONTINUOUS
10
168.5051849999999831
20
-99.5869829999999894
11
168.5051849999999831
21
-99.783017000000001
0
LINE
8
BLACK
6
CONTINUOUS
10
168.5051849999999831
20
-99.783017000000001
11
168.4669399999999939
21
-99.9752849999999995
0
LINE
8
BLACK
6
CONTINUOUS
10
168.4669399999999939
20
-99.9752849999999995
11
168.3919209999999964
21
-100.1563969999999983
0
LINE
8
BLACK
6
CONTINUOUS
10
168.3919209999999964
20
-100.1563969999999983
11
168.2830099999999902
21
-100.3193929999999909
0
LINE
8
BLACK
6
CONTINUOUS
10
168.2830099999999902
20
-100.3193929999999909
11
168.1443929999999796
21
-100.4580100000000016
0
LINE
8
BLACK
6
CONTINUOUS
10
168.1443929999999796
20
-100.4580100000000016
11
167.981396999999987
21
-100.5669209999999936
0
LINE
8
BLACK
6
CONTINUOUS
10
167.981396999999987
20
-100.5669209999999936
11
167.8002850000000024
21
-100.6419399999999911
0
LINE
8
BLACK
6
CONTINUOUS
10
167.8002850000000024
20
-100.6419399999999911
11
167.6080169999999896
21
-100.6801849999999945
0
LINE
8
BLACK
6
CONTINUOUS
10
167.6080169999999896
20
-100.6801849999999945
11
167.4119829999999922
21
-100.6801849999999945
0
LINE
8
BLACK
6
CONTINUOUS
10
167.4119829999999922
20
-100.6801849999999945
11
167.2197149999999795
21
-100.6419399999999911
0
LINE
8
BLACK
6
CONTINUOUS
10
167.2197149999999795
20
-100.6419399999999911
11
167.0386029999999948
21
-100.5669209999999936
0
LINE
8
BLACK
6
CONTINUOUS
10
167.0386029999999948
20
-100.5669209999999936
11
166.8756070000000022
21
-100.4580100000000016
0
LINE
8
BLACK
6
CONTINUOUS
10
166.8756070000000022
20
-100.4580100000000016
11
166.7369899999999916
21
-100.3193929999999909
0
LINE
8
BLACK
6
CONTINUOUS
10
166.7369899999999916
20
-100.3193929999999909
11
166.6280789999999854
21
-100.1563969999999983
0
LINE
8
BLACK
6
CONTINUOUS
10
166.6280789999999854
20
-100.1563969999999983
11
166.5530599999999879
21
-99.9752849999999995
0
LINE
8
BLACK
6
CONTINUOUS
10
166.5530599999999879
20
-99.9752849999999995
11
166.5148149999999987
21
-99.783017000000001
0
LINE
8
BLACK
6
CONTINUOUS
10
166.5148149999999987
20
-99.783017000000001
11
166.5148149999999987
21
-99.5869829999999894
0
LINE
8
BLACK
6
CONTINUOUS
10
166.5148149999999987
20
-99.5869829999999894
11
166.5530599999999879
21
-99.3947149999999908
0
LINE
8
BLACK
6
CONTINUOUS
10
166.5530599999999879
20
-99.3947149999999908
11
166.6280789999999854
21
-99.213602999999992
0
LINE
8
BLACK
6
CONTINUOUS
10
166.6280789999999854
20
-99.213602999999992
11
166.7369899999999916
21
-99.0506069999999994
0
LINE
8
BLACK
6
CONTINUOUS
10
166.7369899999999916
20
-99.0506069999999994
11
166.8756070000000022
21
-98.9119899999999888
0
LINE
8
BLACK
6
CONTINUOUS
10
166.8756070000000022
20
-98.9119899999999888
11
167.0386029999999948
21
-98.8030789999999968
0
LINE
8
BLACK
6
CONTINUOUS
10
167.0386029999999948
20
-98.8030789999999968
11
167.2197149999999795
21
-98.7280599999999993
0
LINE
8
BLACK
6
CONTINUOUS
10
167.2197149999999795
20
-98.7280599999999993
11
167.4119829999999922
21
-98.6898149999999958
0
LINE
8
BLACK
6
CONTINUOUS
10
167.4119829999999922
20
-98.6898149999999958
11
167.6080169999999896
21
-98.6898149999999958
0
LINE
8
BLACK
6
CONTINUOUS
10
167.6080169999999896
20
-98.6898149999999958
11
167.8002850000000024
21
-98.7280599999999993
0
LINE
8
BLACK
6
CONTINUOUS
10
182.534481999999997
20
-93.2684440000000023
11
182.7511079999999879
21
-93.3264879999999977
0
LINE
8
BLACK
6
CONTINUOUS
10
182.7511079999999879
20
-93.3264879999999977
11
182.9583039999999983
21
-93.412312
0
LINE
8
BLACK
6
CONTINUOUS
10
182.9583039999999983
20
-93.412312
11
183.1525249999999971
21
-93.5244450000000001
0
LINE
8
BLACK
6
CONTINUOUS
10
183.1525249999999971
20
-93.5244450000000001
11
183.3304479999999899
21
-93.6609709999999893
0
LINE
8
BLACK
6
CONTINUOUS
10
183.3304479999999899
20
-93.6609709999999893
11
183.4890289999999879
21
-93.8195520000000016
0
LINE
8
BLACK
6
CONTINUOUS
10
183.4890289999999879
20
-93.8195520000000016
11
183.6255549999999914
21
-93.9974749999999943
0
LINE
8
BLACK
6
CONTINUOUS
10
183.6255549999999914
20
-93.9974749999999943
11
183.7376879999999915
21
-94.1916959999999932
0
LINE
8
BLACK
6
CONTINUOUS
10
183.7376879999999915
20
-94.1916959999999932
11
183.8235119999999938
21
-94.3988919999999894
0
LINE
8
BLACK
6
CONTINUOUS
10
183.8235119999999938
20
-94.3988919999999894
11
183.8815559999999891
21
-94.6155179999999945
0
LINE
8
BLACK
6
CONTINUOUS
10
183.8815559999999891
20
-94.6155179999999945
11
183.9108289999999784
21
-94.8378659999999911
0
LINE
8
BLACK
6
CONTINUOUS
10
183.9108289999999784
20
-94.8378659999999911
11
183.9108289999999784
21
-95.0621340000000004
0
LINE
8
BLACK
6
CONTINUOUS
10
183.9108289999999784
20
-95.0621340000000004
11
183.8815559999999891
21
-95.284481999999997
0
LINE
8
BLACK
6
CONTINUOUS
10
183.8815559999999891
20
-95.284481999999997
11
183.8235119999999938
21
-95.5011080000000021
0
LINE
8
BLACK
6
CONTINUOUS
10
183.8235119999999938
20
-95.5011080000000021
11
183.7376879999999915
21
-95.7083039999999983
0
LINE
8
BLACK
6
CONTINUOUS
10
183.7376879999999915
20
-95.7083039999999983
11
183.6255549999999914
21
-95.9025249999999971
0
LINE
8
BLACK
6
CONTINUOUS
10
183.6255549999999914
20
-95.9025249999999971
11
183.4890289999999879
21
-96.0804479999999899
0
LINE
8
BLACK
6
CONTINUOUS
10
183.4890289999999879
20
-96.0804479999999899
11
183.3304479999999899
21
-96.2390290000000022
0
LINE
8
BLACK
6
CONTINUOUS
10
183.3304479999999899
20
-96.2390290000000022
11
183.1525249999999971
21
-96.3755549999999914
0
LINE
8
BLACK
6
CONTINUOUS
10
183.1525249999999971
20
-96.3755549999999914
11
182.9583039999999983
21
-96.4876879999999915
0
LINE
8
BLACK
6
CONTINUOUS
10
182.9583039999999983
20
-96.4876879999999915
11
182.7511079999999879
21
-96.5735119999999938
0
LINE
8
BLACK
6
CONTINUOUS
10
182.7511079999999879
20
-96.5735119999999938
11
182.534481999999997
21
-96.6315559999999891
0
LINE
8
BLACK
6
CONTINUOUS
10
182.534481999999997
20
-96.6315559999999891
11
182.3121339999999861
21
-96.6608289999999926
0
LINE
8
BLACK
6
CONTINUOUS
10
182.3121339999999861
20
-96.6608289999999926
11
182.0878659999999911
21
-96.6608289999999926
0
LINE
8
BLACK
6
CONTINUOUS
10
182.0878659999999911
20
-96.6608289999999926
11
181.8655179999999802
21
-96.6315559999999891
0
LINE
8
BLACK
6
CONTINUOUS
10
181.8655179999999802
20
-96.6315559999999891
11
181.6488919999999894
21
-96.5735119999999938
0
LINE
8
BLACK
6
CONTINUOUS
10
181.6488919999999894
20
-96.5735119999999938
11
181.441695999999979
21
-96.4876879999999915
0
LINE
8
BLACK
6
CONTINUOUS
10
181.441695999999979
20
-96.4876879999999915
11
181.2474749999999801
21
-96.3755549999999914
0
LINE
8
BLACK
6
CONTINUOUS
10
181.2474749999999801
20
-96.3755549999999914
11
181.0695519999999874
21
-96.2390290000000022
0
LINE
8
BLACK
6
CONTINUOUS
10
181.0695519999999874
20
-96.2390290000000022
11
180.9109709999999893
21
-96.0804479999999899
0
LINE
8
BLACK
6
CONTINUOUS
10
180.9109709999999893
20
-96.0804479999999899
11
180.7744449999999858
21
-95.9025249999999971
0
LINE
8
BLACK
6
CONTINUOUS
10
180.7744449999999858
20
-95.9025249999999971
11
180.6623119999999858
21
-95.7083039999999983
0
LINE
8
BLACK
6
CONTINUOUS
10
180.6623119999999858
20
-95.7083039999999983
11
180.5764879999999835
21
-95.5011080000000021
0
LINE
8
BLACK
6
CONTINUOUS
10
180.5764879999999835
20
-95.5011080000000021
11
180.5184439999999881
21
-95.284481999999997
0
LINE
8
BLACK
6
CONTINUOUS
10
180.5184439999999881
20
-95.284481999999997
11
180.4891709999999989
21
-95.0621340000000004
0
LINE
8
BLACK
6
CONTINUOUS
10
180.4891709999999989
20
-95.0621340000000004
11
180.4891709999999989
21
-94.8378659999999911
0
LINE
8
BLACK
6
CONTINUOUS
10
180.4891709999999989
20
-94.8378659999999911
11
180.5184439999999881
21
-94.6155179999999945
0
LINE
8
BLACK
6
CONTINUOUS
10
180.5184439999999881
20
-94.6155179999999945
11
180.5764879999999835
21
-94.3988919999999894
0
LINE
8
BLACK
6
CONTINUOUS
10
180.5764879999999835
20
-94.3988919999999894
11
180.6623119999999858
21
-94.1916959999999932
0
LINE
8
BLACK
6
CONTINUOUS
10
180.6623119999999858
20
-94.1916959999999932
11
180.7744449999999858
21
-93.9974749999999943
0
LINE
8
BLACK
6
CONTINUOUS
10
180.7744449999999858
20
-93.9974749999999943
11
180.9109709999999893
21
-93.8195520000000016
0
LINE
8
BLACK
6
CONTINUOUS
10
180.9109709999999893
20
-93.8195520000000016
11
181.0695519999999874
21
-93.6609709999999893
0
LINE
8
BLACK
6
CONTINUOUS
10
181.0695519999999874
20
-93.6609709999999893
11
181.2474749999999801
21
-93.5244450000000001
0
LINE
8
BLACK
6
CONTINUOUS
10
181.2474749999999801
20
-93.5244450000000001
11
181.441695999999979
21
-93.412312
0
LINE
8
BLACK
6
CONTINUOUS
10
181.441695999999979
20
-93.412312
11
181.6488919999999894
21
-93.3264879999999977
0
LINE
8
BLACK
6
CONTINUOUS
10
181.6488919999999894
20
-93.3264879999999977
11
181.8655179999999802
21
-93.2684440000000023
0
LINE
8
BLACK
6
CONTINUOUS
10
181.8655179999999802
20
-93.2684440000000023
11
182.0878659999999911
21
-93.2391709999999989
0
LINE
8
BLACK
6
CONTINUOUS
10
182.0878659999999911
20
-93.2391709999999989
11
182.3121339999999861
21
-93.2391709999999989
0
LINE
8
BLACK
6
CONTINUOUS
10
182.3121339999999861
20
-93.2391709999999989
11
182.534481999999997
21
-93.2684440000000023
0
LINE
8
BLACK
6
CONTINUOUS
10
239.534481999999997
20
-93.1684439999999938
11
239.7511079999999879
21
-93.2264879999999891
0
LINE
8
BLACK
6
CONTINUOUS
10
239.7511079999999879
20
-93.2264879999999891
11
239.9583039999999983
21
-93.3123119999999915
0
LINE
8
BLACK
6
CONTINUOUS
10
239.9583039999999983
20
-93.3123119999999915
11
240.1525249999999971
21
-93.4244449999999915
0
LINE
8
BLACK
6
CONTINUOUS
10
240.1525249999999971
20
-93.4244449999999915
11
240.3304479999999899
21
-93.560970999999995
0
LINE
8
BLACK
6
CONTINUOUS
10
240.3304479999999899
20
-93.560970999999995
11
240.4890289999999879
21
-93.7195519999999931
0
LINE
8
BLACK
6
CONTINUOUS
10
240.4890289999999879
20
-93.7195519999999931
11
240.6255549999999914
21
-93.897475
0
LINE
8
BLACK
6
CONTINUOUS
10
240.6255549999999914
20
-93.897475
11
240.7376879999999915
21
-94.0916959999999989
0
LINE
8
BLACK
6
CONTINUOUS
10
240.7376879999999915
20
-94.0916959999999989
11
240.8235119999999938
21
-94.2988919999999951
0
LINE
8
BLACK
6
CONTINUOUS
10
240.8235119999999938
20
-94.2988919999999951
11
240.8815559999999891
21
-94.5155180000000001
0
LINE
8
BLACK
6
CONTINUOUS
10
240.8815559999999891
20
-94.5155180000000001
11
240.9108289999999784
21
-94.7378659999999968
0
LINE
8
BLACK
6
CONTINUOUS
10
240.9108289999999784
20
-94.7378659999999968
11
240.9108289999999784
21
-94.9621339999999918
0
LINE
8
BLACK
6
CONTINUOUS
10
240.9108289999999784
20
-94.9621339999999918
11
240.8815559999999891
21
-95.1844820000000027
0
LINE
8
BLACK
6
CONTINUOUS
10
240.8815559999999891
20
-95.1844820000000027
11
240.8235119999999938
21
-95.4011079999999936
0
LINE
8
BLACK
6
CONTINUOUS
10
240.8235119999999938
20
-95.4011079999999936
11
240.7376879999999915
21
-95.6083039999999897
0
LINE
8
BLACK
6
CONTINUOUS
10
240.7376879999999915
20
-95.6083039999999897
11
240.6255549999999914
21
-95.8025249999999886
0
LINE
8
BLACK
6
CONTINUOUS
10
240.6255549999999914
20
-95.8025249999999886
11
240.4890289999999879
21
-95.9804479999999955
0
LINE
8
BLACK
6
CONTINUOUS
10
240.4890289999999879
20
-95.9804479999999955
11
240.3304479999999899
21
-96.1390289999999936
0
LINE
8
BLACK
6
CONTINUOUS
10
240.3304479999999899
20
-96.1390289999999936
11
240.1525249999999971
21
-96.2755549999999971
0
LINE
8
BLACK
6
CONTINUOUS
10
240.1525249999999971
20
-96.2755549999999971
11
239.9583039999999983
21
-96.3876879999999971
0
LINE
8
BLACK
6
CONTINUOUS
10
239.9583039999999983
20
-96.3876879999999971
11
239.7511079999999879
21
-96.4735119999999995
0
LINE
8
BLACK
6
CONTINUOUS
10
239.7511079999999879
20
-96.4735119999999995
11
239.534481999999997
21
-96.5315559999999948
0
LINE
8
BLACK
6
CONTINUOUS
10
239.534481999999997
20
-96.5315559999999948
11
239.3121339999999861
21
-96.5608289999999982
0
LINE
8
BLACK
6
CONTINUOUS
10
239.3121339999999861
20
-96.5608289999999982
11
239.0878659999999911
21
-96.5608289999999982
0
LINE
8
BLACK
6
CONTINUOUS
10
239.0878659999999911
20
-96.5608289999999982
11
238.8655179999999802
21
-96.5315559999999948
0
LINE
8
BLACK
6
CONTINUOUS
10
238.8655179999999802
20
-96.5315559999999948
11
238.6488919999999894
21
-96.4735119999999995
0
LINE
8
BLACK
6
CONTINUOUS
10
238.6488919999999894
20
-96.4735119999999995
11
238.441695999999979
21
-96.3876879999999971
0
LINE
8
BLACK
6
CONTINUOUS
10
238.441695999999979
20
-96.3876879999999971
11
238.2474749999999801
21
-96.2755549999999971
0
LINE
8
BLACK
6
CONTINUOUS
10
238.2474749999999801
20
-96.2755549999999971
11
238.0695519999999874
21
-96.1390289999999936
0
LINE
8
BLACK
6
CONTINUOUS
10
238.0695519999999874
20
-96.1390289999999936
11
237.9109709999999893
21
-95.9804479999999955
0
LINE
8
BLACK
6
CONTINUOUS
10
237.9109709999999893
20
-95.9804479999999955
11
237.7744449999999858
21
-95.8025249999999886
0
LINE
8
BLACK
6
CONTINUOUS
10
237.7744449999999858
20
-95.8025249999999886
11
237.6623119999999858
21
-95.6083039999999897
0
LINE
8
BLACK
6
CONTINUOUS
10
237.6623119999999858
20
-95.6083039999999897
11
237.5764879999999835
21
-95.4011079999999936
0
LINE
8
BLACK
6
CONTINUOUS
10
237.5764879999999835
20
-95.4011079999999936
11
237.5184439999999881
21
-95.1844820000000027
0
LINE
8
BLACK
6
CONTINUOUS
10
237.5184439999999881
20
-95.1844820000000027
11
237.4891709999999989
21
-94.9621339999999918
0
LINE
8
BLACK
6
CONTINUOUS
10
237.4891709999999989
20
-94.9621339999999918
11
237.4891709999999989
21
-94.7378659999999968
0
LINE
8
BLACK
6
CONTINUOUS
10
237.4891709999999989
20
-94.7378659999999968
11
237.5184439999999881
21
-94.5155180000000001
0
LINE
8
BLACK
6
CONTINUOUS
10
237.5184439999999881
20
-94.5155180000000001
11
237.5764879999999835
21
-94.2988919999999951
0
LINE
8
BLACK
6
CONTINUOUS
10
237.5764879999999835
20
-94.2988919999999951
11
237.6623119999999858
21
-94.0916959999999989
0
LINE
8
BLACK
6
CONTINUOUS
10
237.6623119999999858
20
-94.0916959999999989
11
237.7744449999999858
21
-93.897475
0
LINE
8
BLACK
6
CONTINUOUS
10
237.7744449999999858
20
-93.897475
11
237.9109709999999893
21
-93.7195519999999931
0
LINE
8
BLACK
6
CONTINUOUS
10
237.9109709999999893
20
-93.7195519999999931
11
238.0695519999999874
21
-93.560970999999995
0
LINE
8
BLACK
6
CONTINUOUS
10
238.0695519999999874
20
-93.560970999999995
11
238.2474749999999801
21
-93.4244449999999915
0
LINE
8
BLACK
6
CONTINUOUS
10
238.2474749999999801
20
-93.4244449999999915
11
238.441695999999979
21
-93.3123119999999915
0
LINE
8
BLACK
6
CONTINUOUS
10
238.441695999999979
20
-93.3123119999999915
11
238.6488919999999894
21
-93.2264879999999891
0
LINE
8
BLACK
6
CONTINUOUS
10
238.6488919999999894
20
-93.2264879999999891
11
238.8655179999999802
21
-93.1684439999999938
0
LINE
8
BLACK
6
CONTINUOUS
10
238.8655179999999802
20
-93.1684439999999938
11
239.0878659999999911
21
-93.1391709999999904
0
LINE
8
BLACK
6
CONTINUOUS
10
239.0878659999999911
20
-93.1391709999999904
11
239.3121339999999861
21
-93.1391709999999904
0
LINE
8
BLACK
6
CONTINUOUS
10
239.3121339999999861
20
-93.1391709999999904
11
239.534481999999997
21
-93.1684439999999938
0
LINE
8
BLACK
6
CONTINUOUS
10
167.8002850000000024
20
-94.2280599999999993
11
167.981396999999987
21
-94.3030789999999968
0
LINE
8
BLACK
6
CONTINUOUS
10
167.981396999999987
20
-94.3030789999999968
11
168.1443929999999796
21
-94.4119899999999888
0
LINE
8
BLACK
6
CONTINUOUS
10
168.1443929999999796
20
-94.4119899999999888
11
168.2830099999999902
21
-94.5506069999999994
0
LINE
8
BLACK
6
CONTINUOUS
10
168.2830099999999902
20
-94.5506069999999994
11
168.3919209999999964
21
-94.713602999999992
0
LINE
8
BLACK
6
CONTINUOUS
10
168.3919209999999964
20
-94.713602999999992
11
168.4669399999999939
21
-94.8947149999999908
0
LINE
8
BLACK
6
CONTINUOUS
10
168.4669399999999939
20
-94.8947149999999908
11
168.5051849999999831
21
-95.0869829999999894
0
LINE
8
BLACK
6
CONTINUOUS
10
168.5051849999999831
20
-95.0869829999999894
11
168.5051849999999831
21
-95.283017000000001
0
LINE
8
BLACK
6
CONTINUOUS
10
168.5051849999999831
20
-95.283017000000001
11
168.4669399999999939
21
-95.4752849999999995
0
LINE
8
BLACK
6
CONTINUOUS
10
168.4669399999999939
20
-95.4752849999999995
11
168.3919209999999964
21
-95.6563969999999983
0
LINE
8
BLACK
6
CONTINUOUS
10
168.3919209999999964
20
-95.6563969999999983
11
168.2830099999999902
21
-95.8193929999999909
0
LINE
8
BLACK
6
CONTINUOUS
10
168.2830099999999902
20
-95.8193929999999909
11
168.1443929999999796
21
-95.9580100000000016
0
LINE
8
BLACK
6
CONTINUOUS
10
168.1443929999999796
20
-95.9580100000000016
11
167.981396999999987
21
-96.0669209999999936
0
LINE
8
BLACK
6
CONTINUOUS
10
167.981396999999987
20
-96.0669209999999936
11
167.8002850000000024
21
-96.1419399999999911
0
LINE
8
BLACK
6
CONTINUOUS
10
167.8002850000000024
20
-96.1419399999999911
11
167.6080169999999896
21
-96.1801849999999945
0
LINE
8
BLACK
6
CONTINUOUS
10
167.6080169999999896
20
-96.1801849999999945
11
167.4119829999999922
21
-96.1801849999999945
0
LINE
8
BLACK
6
CONTINUOUS
10
167.4119829999999922
20
-96.1801849999999945
11
167.2197149999999795
21
-96.1419399999999911
0
LINE
8
BLACK
6
CONTINUOUS
10
167.2197149999999795
20
-96.1419399999999911
11
167.0386029999999948
21
-96.0669209999999936
0
LINE
8
BLACK
6
CONTINUOUS
10
167.0386029999999948
20
-96.0669209999999936
11
166.8756070000000022
21
-95.9580100000000016
0
LINE
8
BLACK
6
CONTINUOUS
10
166.8756070000000022
20
-95.9580100000000016
11
166.7369899999999916
21
-95.8193929999999909
0
LINE
8
BLACK
6
CONTINUOUS
10
166.7369899999999916
20
-95.8193929999999909
11
166.6280789999999854
21
-95.6563969999999983
0
LINE
8
BLACK
6
CONTINUOUS
10
166.6280789999999854
20
-95.6563969999999983
11
166.5530599999999879
21
-95.4752849999999995
0
LINE
8
BLACK
6
CONTINUOUS
10
166.5530599999999879
20
-95.4752849999999995
11
166.5148149999999987
21
-95.283017000000001
0
LINE
8
BLACK
6
CONTINUOUS
10
166.5148149999999987
20
-95.283017000000001
11
166.5148149999999987
21
-95.0869829999999894
0
LINE
8
BLACK
6
CONTINUOUS
10
166.5148149999999987
20
-95.0869829999999894
11
166.5530599999999879
21
-94.8947149999999908
0
LINE
8
BLACK
6
CONTINUOUS
10
166.5530599999999879
20
-94.8947149999999908
11
166.6280789999999854
21
-94.713602999999992
0
LINE
8
BLACK
6
CONTINUOUS
10
166.6280789999999854
20
-94.713602999999992
11
166.7369899999999916
21
-94.5506069999999994
0
LINE
8
BLACK
6
CONTINUOUS
10
166.7369899999999916
20
-94.5506069999999994
11
166.8756070000000022
21
-94.4119899999999888
0
LINE
8
BLACK
6
CONTINUOUS
10
166.8756070000000022
20
-94.4119899999999888
11
167.0386029999999948
21
-94.3030789999999968
0
LINE
8
BLACK
6
CONTINUOUS
10
167.0386029999999948
20
-94.3030789999999968
11
167.2197149999999795
21
-94.2280599999999993
0
LINE
8
BLACK
6
CONTINUOUS
10
167.2197149999999795
20
-94.2280599999999993
11
167.4119829999999922
21
-94.1898149999999958
0
LINE
8
BLACK
6
CONTINUOUS
10
167.4119829999999922
20
-94.1898149999999958
11
167.6080169999999896
21
-94.1898149999999958
0
LINE
8
BLACK
6
CONTINUOUS
10
167.6080169999999896
20
-94.1898149999999958
11
167.8002850000000024
21
-94.2280599999999993
0
LINE
8
BLACK
6
CONTINUOUS
10
176.9470029999999952
20
-94.1357390000000009
11
177.1011110000000031
21
-94.1995730000000009
0
LINE
8
BLACK
6
CONTINUOUS
10
177.1011110000000031
20
-94.1995730000000009
11
177.2398049999999898
21
-94.2922449999999941
0
LINE
8
BLACK
6
CONTINUOUS
10
177.2398049999999898
20
-94.2922449999999941
11
177.3577549999999974
21
-94.4101950000000016
0
LINE
8
BLACK
6
CONTINUOUS
10
177.3577549999999974
20
-94.4101950000000016
11
177.4504269999999906
21
-94.5488890000000026
0
LINE
8
BLACK
6
CONTINUOUS
10
177.4504269999999906
20
-94.5488890000000026
11
177.5142610000000047
21
-94.7029969999999963
0
LINE
8
BLACK
6
CONTINUOUS
10
177.5142610000000047
20
-94.7029969999999963
11
177.5468029999999828
21
-94.8665969999999987
0
LINE
8
BLACK
6
CONTINUOUS
10
177.5468029999999828
20
-94.8665969999999987
11
177.5468029999999828
21
-95.0334029999999927
0
LINE
8
BLACK
6
CONTINUOUS
10
177.5468029999999828
20
-95.0334029999999927
11
177.5142610000000047
21
-95.1970029999999952
0
LINE
8
BLACK
6
CONTINUOUS
10
177.5142610000000047
20
-95.1970029999999952
11
177.4504269999999906
21
-95.3511109999999888
0
LINE
8
BLACK
6
CONTINUOUS
10
177.4504269999999906
20
-95.3511109999999888
11
177.3577549999999974
21
-95.4898049999999898
0
LINE
8
BLACK
6
CONTINUOUS
10
177.3577549999999974
20
-95.4898049999999898
11
177.2398049999999898
21
-95.6077549999999974
0
LINE
8
BLACK
6
CONTINUOUS
10
177.2398049999999898
20
-95.6077549999999974
11
177.1011110000000031
21
-95.7004269999999906
0
LINE
8
BLACK
6
CONTINUOUS
10
177.1011110000000031
20
-95.7004269999999906
11
176.9470029999999952
21
-95.7642609999999905
0
LINE
8
BLACK
6
CONTINUOUS
10
176.9470029999999952
20
-95.7642609999999905
11
176.7834029999999927
21
-95.796802999999997
0
LINE
8
BLACK
6
CONTINUOUS
10
176.7834029999999927
20
-95.796802999999997
11
176.6165969999999845
21
-95.796802999999997
0
LINE
8
BLACK
6
CONTINUOUS
10
176.6165969999999845
20
-95.796802999999997
11
176.4529969999999821
21
-95.7642609999999905
0
LINE
8
BLACK
6
CONTINUOUS
10
176.4529969999999821
20
-95.7642609999999905
11
176.2988890000000026
21
-95.7004269999999906
0
LINE
8
BLACK
6
CONTINUOUS
10
176.2988890000000026
20
-95.7004269999999906
11
176.1601949999999874
21
-95.6077549999999974
0
LINE
8
BLACK
6
CONTINUOUS
10
176.1601949999999874
20
-95.6077549999999974
11
176.0422449999999799
21
-95.4898049999999898
0
LINE
8
BLACK
6
CONTINUOUS
10
176.0422449999999799
20
-95.4898049999999898
11
175.9495729999999867
21
-95.3511109999999888
0
LINE
8
BLACK
6
CONTINUOUS
10
175.9495729999999867
20
-95.3511109999999888
11
175.8857390000000009
21
-95.1970029999999952
0
LINE
8
BLACK
6
CONTINUOUS
10
175.8857390000000009
20
-95.1970029999999952
11
175.8531969999999944
21
-95.0334029999999927
0
LINE
8
BLACK
6
CONTINUOUS
10
175.8531969999999944
20
-95.0334029999999927
11
175.8531969999999944
21
-94.8665969999999987
0
LINE
8
BLACK
6
CONTINUOUS
10
175.8531969999999944
20
-94.8665969999999987
11
175.8857390000000009
21
-94.7029969999999963
0
LINE
8
BLACK
6
CONTINUOUS
10
175.8857390000000009
20
-94.7029969999999963
11
175.9495729999999867
21
-94.5488890000000026
0
LINE
8
BLACK
6
CONTINUOUS
10
175.9495729999999867
20
-94.5488890000000026
11
176.0422449999999799
21
-94.4101950000000016
0
LINE
8
BLACK
6
CONTINUOUS
10
176.0422449999999799
20
-94.4101950000000016
11
176.1601949999999874
21
-94.2922449999999941
0
LINE
8
BLACK
6
CONTINUOUS
10
176.1601949999999874
20
-94.2922449999999941
11
176.2988890000000026
21
-94.1995730000000009
0
LINE
8
BLACK
6
CONTINUOUS
10
176.2988890000000026
20
-94.1995730000000009
11
176.4529969999999821
21
-94.1357390000000009
0
LINE
8
BLACK
6
CONTINUOUS
10
176.4529969999999821
20
-94.1357390000000009
11
176.6165969999999845
21
-94.1031969999999944
0
LINE
8
BLACK
6
CONTINUOUS
10
176.6165969999999845
20
-94.1031969999999944
11
176.7834029999999927
21
-94.1031969999999944
0
LINE
8
BLACK
6
CONTINUOUS
10
176.7834029999999927
20
-94.1031969999999944
11
176.9470029999999952
21
-94.1357390000000009
0
LINE
8
BLACK
6
CONTINUOUS
10
187.9470029999999952
20
-94.1357390000000009
11
188.1011110000000031
21
-94.1995730000000009
0
LINE
8
BLACK
6
CONTINUOUS
10
188.1011110000000031
20
-94.1995730000000009
11
188.2398049999999898
21
-94.2922449999999941
0
LINE
8
BLACK
6
CONTINUOUS
10
188.2398049999999898
20
-94.2922449999999941
11
188.3577549999999974
21
-94.4101950000000016
0
LINE
8
BLACK
6
CONTINUOUS
10
188.3577549999999974
20
-94.4101950000000016
11
188.4504269999999906
21
-94.5488890000000026
0
LINE
8
BLACK
6
CONTINUOUS
10
188.4504269999999906
20
-94.5488890000000026
11
188.5142610000000047
21
-94.7029969999999963
0
LINE
8
BLACK
6
CONTINUOUS
10
188.5142610000000047
20
-94.7029969999999963
11
188.5468029999999828
21
-94.8665969999999987
0
LINE
8
BLACK
6
CONTINUOUS
10
188.5468029999999828
20
-94.8665969999999987
11
188.5468029999999828
21
-95.0334029999999927
0
LINE
8
BLACK
6
CONTINUOUS
10
188.5468029999999828
20
-95.0334029999999927
11
188.5142610000000047
21
-95.1970029999999952
0
LINE
8
BLACK
6
CONTINUOUS
10
188.5142610000000047
20
-95.1970029999999952
11
188.4504269999999906
21
-95.3511109999999888
0
LINE
8
BLACK
6
CONTINUOUS
10
188.4504269999999906
20
-95.3511109999999888
11
188.3577549999999974
21
-95.4898049999999898
0
LINE
8
BLACK
6
CONTINUOUS
10
188.3577549999999974
20
-95.4898049999999898
11
188.2398049999999898
21
-95.6077549999999974
0
LINE
8
BLACK
6
CONTINUOUS
10
188.2398049999999898
20
-95.6077549999999974
11
188.1011110000000031
21
-95.7004269999999906
0
LINE
8
BLACK
6
CONTINUOUS
10
188.1011110000000031
20
-95.7004269999999906
11
187.9470029999999952
21
-95.7642609999999905
0
LINE
8
BLACK
6
CONTINUOUS
10
187.9470029999999952
20
-95.7642609999999905
11
187.7834029999999927
21
-95.796802999999997
0
LINE
8
BLACK
6
CONTINUOUS
10
187.7834029999999927
20
-95.796802999999997
11
187.6165969999999845
21
-95.796802999999997
0
LINE
8
BLACK
6
CONTINUOUS
10
187.6165969999999845
20
-95.796802999999997
11
187.4529969999999821
21
-95.7642609999999905
0
LINE
8
BLACK
6
CONTINUOUS
10
187.4529969999999821
20
-95.7642609999999905
11
187.2988890000000026
21
-95.7004269999999906
0
LINE
8
BLACK
6
CONTINUOUS
10
187.2988890000000026
20
-95.7004269999999906
11
187.1601949999999874
21
-95.6077549999999974
0
LINE
8
BLACK
6
CONTINUOUS
10
187.1601949999999874
20
-95.6077549999999974
11
187.0422449999999799
21
-95.4898049999999898
0
LINE
8
BLACK
6
CONTINUOUS
10
187.0422449999999799
20
-95.4898049999999898
11
186.9495729999999867
21
-95.3511109999999888
0
LINE
8
BLACK
6
CONTINUOUS
10
186.9495729999999867
20
-95.3511109999999888
11
186.8857390000000009
21
-95.1970029999999952
0
LINE
8
BLACK
6
CONTINUOUS
10
186.8857390000000009
20
-95.1970029999999952
11
186.8531969999999944
21
-95.0334029999999927
0
LINE
8
BLACK
6
CONTINUOUS
10
186.8531969999999944
20
-95.0334029999999927
11
186.8531969999999944
21
-94.8665969999999987
0
LINE
8
BLACK
6
CONTINUOUS
10
186.8531969999999944
20
-94.8665969999999987
11
186.8857390000000009
21
-94.7029969999999963
0
LINE
8
BLACK
6
CONTINUOUS
10
186.8857390000000009
20
-94.7029969999999963
11
186.9495729999999867
21
-94.5488890000000026
0
LINE
8
BLACK
6
CONTINUOUS
10
186.9495729999999867
20
-94.5488890000000026
11
187.0422449999999799
21
-94.4101950000000016
0
LINE
8
BLACK
6
CONTINUOUS
10
187.0422449999999799
20
-94.4101950000000016
11
187.1601949999999874
21
-94.2922449999999941
0
LINE
8
BLACK
6
CONTINUOUS
10
187.1601949999999874
20
-94.2922449999999941
11
187.2988890000000026
21
-94.1995730000000009
0
LINE
8
BLACK
6
CONTINUOUS
10
187.2988890000000026
20
-94.1995730000000009
11
187.4529969999999821
21
-94.1357390000000009
0
LINE
8
BLACK
6
CONTINUOUS
10
187.4529969999999821
20
-94.1357390000000009
11
187.6165969999999845
21
-94.1031969999999944
0
LINE
8
BLACK
6
CONTINUOUS
10
187.6165969999999845
20
-94.1031969999999944
11
187.7834029999999927
21
-94.1031969999999944
0
LINE
8
BLACK
6
CONTINUOUS
10
187.7834029999999927
20
-94.1031969999999944
11
187.9470029999999952
21
-94.1357390000000009
0
LINE
8
BLACK
6
CONTINUOUS
10
233.9470029999999952
20
-94.0357389999999924
11
234.1011110000000031
21
-94.0995729999999924
0
LINE
8
BLACK
6
CONTINUOUS
10
234.1011110000000031
20
-94.0995729999999924
11
234.2398049999999898
21
-94.1922449999999998
0
LINE
8
BLACK
6
CONTINUOUS
10
234.2398049999999898
20
-94.1922449999999998
11
234.3577549999999974
21
-94.3101949999999931
0
LINE
8
BLACK
6
CONTINUOUS
10
234.3577549999999974
20
-94.3101949999999931
11
234.4504269999999906
21
-94.4488889999999941
0
LINE
8
BLACK
6
CONTINUOUS
10
234.4504269999999906
20
-94.4488889999999941
11
234.5142609999999763
21
-94.602997000000002
0
LINE
8
BLACK
6
CONTINUOUS
10
234.5142609999999763
20
-94.602997000000002
11
234.5468029999999828
21
-94.7665969999999902
0
LINE
8
BLACK
6
CONTINUOUS
10
234.5468029999999828
20
-94.7665969999999902
11
234.5468029999999828
21
-94.9334029999999984
0
LINE
8
BLACK
6
CONTINUOUS
10
234.5468029999999828
20
-94.9334029999999984
11
234.5142609999999763
21
-95.0970030000000008
0
LINE
8
BLACK
6
CONTINUOUS
10
234.5142609999999763
20
-95.0970030000000008
11
234.4504269999999906
21
-95.2511109999999945
0
LINE
8
BLACK
6
CONTINUOUS
10
234.4504269999999906
20
-95.2511109999999945
11
234.3577549999999974
21
-95.3898049999999955
0
LINE
8
BLACK
6
CONTINUOUS
10
234.3577549999999974
20
-95.3898049999999955
11
234.2398049999999898
21
-95.5077549999999889
0
LINE
8
BLACK
6
CONTINUOUS
10
234.2398049999999898
20
-95.5077549999999889
11
234.1011110000000031
21
-95.6004269999999963
0
LINE
8
BLACK
6
CONTINUOUS
10
234.1011110000000031
20
-95.6004269999999963
11
233.9470029999999952
21
-95.6642609999999962
0
LINE
8
BLACK
6
CONTINUOUS
10
233.9470029999999952
20
-95.6642609999999962
11
233.7834029999999927
21
-95.6968030000000027
0
LINE
8
BLACK
6
CONTINUOUS
10
233.7834029999999927
20
-95.6968030000000027
11
233.6165969999999845
21
-95.6968030000000027
0
LINE
8
BLACK
6
CONTINUOUS
10
233.6165969999999845
20
-95.6968030000000027
11
233.4529969999999821
21
-95.6642609999999962
0
LINE
8
BLACK
6
CONTINUOUS
10
233.4529969999999821
20
-95.6642609999999962
11
233.2988890000000026
21
-95.6004269999999963
0
LINE
8
BLACK
6
CONTINUOUS
10
233.2988890000000026
20
-95.6004269999999963
11
233.1601949999999874
21
-95.5077549999999889
0
LINE
8
BLACK
6
CONTINUOUS
10
233.1601949999999874
20
-95.5077549999999889
11
233.0422449999999799
21
-95.3898049999999955
0
LINE
8
BLACK
6
CONTINUOUS
10
233.0422449999999799
20
-95.3898049999999955
11
232.9495729999999867
21
-95.2511109999999945
0
LINE
8
BLACK
6
CONTINUOUS
10
232.9495729999999867
20
-95.2511109999999945
11
232.8857390000000009
21
-95.0970030000000008
0
LINE
8
BLACK
6
CONTINUOUS
10
232.8857390000000009
20
-95.0970030000000008
11
232.8531969999999944
21
-94.9334029999999984
0
LINE
8
BLACK
6
CONTINUOUS
10
232.8531969999999944
20
-94.9334029999999984
11
232.8531969999999944
21
-94.7665969999999902
0
LINE
8
BLACK
6
CONTINUOUS
10
232.8531969999999944
20
-94.7665969999999902
11
232.8857390000000009
21
-94.602997000000002
0
LINE
8
BLACK
6
CONTINUOUS
10
232.8857390000000009
20
-94.602997000000002
11
232.9495729999999867
21
-94.4488889999999941
0
LINE
8
BLACK
6
CONTINUOUS
10
232.9495729999999867
20
-94.4488889999999941
11
233.0422449999999799
21
-94.3101949999999931
0
LINE
8
BLACK
6
CONTINUOUS
10
233.0422449999999799
20
-94.3101949999999931
11
233.1601949999999874
21
-94.1922449999999998
0
LINE
8
BLACK
6
CONTINUOUS
10
233.1601949999999874
20
-94.1922449999999998
11
233.2988890000000026
21
-94.0995729999999924
0
LINE
8
BLACK
6
CONTINUOUS
10
233.2988890000000026
20
-94.0995729999999924
11
233.4529969999999821
21
-94.0357389999999924
0
LINE
8
BLACK
6
CONTINUOUS
10
233.4529969999999821
20
-94.0357389999999924
11
233.6165969999999845
21
-94.0031970000000001
0
LINE
8
BLACK
6
CONTINUOUS
10
233.6165969999999845
20
-94.0031970000000001
11
233.7834029999999927
21
-94.0031970000000001
0
LINE
8
BLACK
6
CONTINUOUS
10
233.7834029999999927
20
-94.0031970000000001
11
233.9470029999999952
21
-94.0357389999999924
0
LINE
8
BLACK
6
CONTINUOUS
10
244.9470029999999952
20
-94.0357389999999924
11
245.1011110000000031
21
-94.0995729999999924
0
LINE
8
BLACK
6
CONTINUOUS
10
245.1011110000000031
20
-94.0995729999999924
11
245.2398049999999898
21
-94.1922449999999998
0
LINE
8
BLACK
6
CONTINUOUS
10
245.2398049999999898
20
-94.1922449999999998
11
245.3577549999999974
21
-94.3101949999999931
0
LINE
8
BLACK
6
CONTINUOUS
10
245.3577549999999974
20
-94.3101949999999931
11
245.4504269999999906
21
-94.4488889999999941
0
LINE
8
BLACK
6
CONTINUOUS
10
245.4504269999999906
20
-94.4488889999999941
11
245.5142609999999763
21
-94.602997000000002
0
LINE
8
BLACK
6
CONTINUOUS
10
245.5142609999999763
20
-94.602997000000002
11
245.5468029999999828
21
-94.7665969999999902
0
LINE
8
BLACK
6
CONTINUOUS
10
245.5468029999999828
20
-94.7665969999999902
11
245.5468029999999828
21
-94.9334029999999984
0
LINE
8
BLACK
6
CONTINUOUS
10
245.5468029999999828
20
-94.9334029999999984
11
245.5142609999999763
21
-95.0970030000000008
0
LINE
8
BLACK
6
CONTINUOUS
10
245.5142609999999763
20
-95.0970030000000008
11
245.4504269999999906
21
-95.2511109999999945
0
LINE
8
BLACK
6
CONTINUOUS
10
245.4504269999999906
20
-95.2511109999999945
11
245.3577549999999974
21
-95.3898049999999955
0
LINE
8
BLACK
6
CONTINUOUS
10
245.3577549999999974
20
-95.3898049999999955
11
245.2398049999999898
21
-95.5077549999999889
0
LINE
8
BLACK
6
CONTINUOUS
10
245.2398049999999898
20
-95.5077549999999889
11
245.1011110000000031
21
-95.6004269999999963
0
LINE
8
BLACK
6
CONTINUOUS
10
245.1011110000000031
20
-95.6004269999999963
11
244.9470029999999952
21
-95.6642609999999962
0
LINE
8
BLACK
6
CONTINUOUS
10
244.9470029999999952
20
-95.6642609999999962
11
244.7834029999999927
21
-95.6968030000000027
0
LINE
8
BLACK
6
CONTINUOUS
10
244.7834029999999927
20
-95.6968030000000027
11
244.6165969999999845
21
-95.6968030000000027
0
LINE
8
BLACK
6
CONTINUOUS
10
244.6165969999999845
20
-95.6968030000000027
11
244.4529969999999821
21
-95.6642609999999962
0
LINE
8
BLACK
6
CONTINUOUS
10
244.4529969999999821
20
-95.6642609999999962
11
244.2988890000000026
21
-95.6004269999999963
0
LINE
8
BLACK
6
CONTINUOUS
10
244.2988890000000026
20
-95.6004269999999963
11
244.1601949999999874
21
-95.5077549999999889
0
LINE
8
BLACK
6
CONTINUOUS
10
244.1601949999999874
20
-95.5077549999999889
11
244.0422449999999799
21
-95.3898049999999955
0
LINE
8
BLACK
6
CONTINUOUS
10
244.0422449999999799
20
-95.3898049999999955
11
243.9495729999999867
21
-95.2511109999999945
0
LINE
8
BLACK
6
CONTINUOUS
10
243.9495729999999867
20
-95.2511109999999945
11
243.8857390000000009
21
-95.0970030000000008
0
LINE
8
BLACK
6
CONTINUOUS
10
243.8857390000000009
20
-95.0970030000000008
11
243.8531969999999944
21
-94.9334029999999984
0
LINE
8
BLACK
6
CONTINUOUS
10
243.8531969999999944
20
-94.9334029999999984
11
243.8531969999999944
21
-94.7665969999999902
0
LINE
8
BLACK
6
CONTINUOUS
10
243.8531969999999944
20
-94.7665969999999902
11
243.8857390000000009
21
-94.602997000000002
0
LINE
8
BLACK
6
CONTINUOUS
10
243.8857390000000009
20
-94.602997000000002
11
243.9495729999999867
21
-94.4488889999999941
0
LINE
8
BLACK
6
CONTINUOUS
10
243.9495729999999867
20
-94.4488889999999941
11
244.0422449999999799
21
-94.3101949999999931
0
LINE
8
BLACK
6
CONTINUOUS
10
244.0422449999999799
20
-94.3101949999999931
11
244.1601949999999874
21
-94.1922449999999998
0
LINE
8
BLACK
6
CONTINUOUS
10
244.1601949999999874
20
-94.1922449999999998
11
244.2988890000000026
21
-94.0995729999999924
0
LINE
8
BLACK
6
CONTINUOUS
10
244.2988890000000026
20
-94.0995729999999924
11
244.4529969999999821
21
-94.0357389999999924
0
LINE
8
BLACK
6
CONTINUOUS
10
244.4529969999999821
20
-94.0357389999999924
11
244.6165969999999845
21
-94.0031970000000001
0
LINE
8
BLACK
6
CONTINUOUS
10
244.6165969999999845
20
-94.0031970000000001
11
244.7834029999999927
21
-94.0031970000000001
0
LINE
8
BLACK
6
CONTINUOUS
10
244.7834029999999927
20
-94.0031970000000001
11
244.9470029999999952
21
-94.0357389999999924
0
LINE
8
BLACK
6
CONTINUOUS
10
170.290284999999983
20
-92.9680599999999941
11
170.4713969999999961
21
-93.0430789999999917
0
LINE
8
BLACK
6
CONTINUOUS
10
170.4713969999999961
20
-93.0430789999999917
11
170.6343929999999887
21
-93.1519899999999978
0
LINE
8
BLACK
6
CONTINUOUS
10
170.6343929999999887
20
-93.1519899999999978
11
170.7730099999999993
21
-93.2906069999999943
0
LINE
8
BLACK
6
CONTINUOUS
10
170.7730099999999993
20
-93.2906069999999943
11
170.8819210000000055
21
-93.4536030000000011
0
LINE
8
BLACK
6
CONTINUOUS
10
170.8819210000000055
20
-93.4536030000000011
11
170.956940000000003
21
-93.6347149999999999
0
LINE
8
BLACK
6
CONTINUOUS
10
170.956940000000003
20
-93.6347149999999999
11
170.9951849999999922
21
-93.8269829999999985
0
LINE
8
BLACK
6
CONTINUOUS
10
170.9951849999999922
20
-93.8269829999999985
11
170.9951849999999922
21
-94.0230169999999958
0
LINE
8
BLACK
6
CONTINUOUS
10
170.9951849999999922
20
-94.0230169999999958
11
170.956940000000003
21
-94.2152849999999944
0
LINE
8
BLACK
6
CONTINUOUS
10
170.956940000000003
20
-94.2152849999999944
11
170.8819210000000055
21
-94.3963969999999932
0
LINE
8
BLACK
6
CONTINUOUS
10
170.8819210000000055
20
-94.3963969999999932
11
170.7730099999999993
21
-94.559393
0
LINE
8
BLACK
6
CONTINUOUS
10
170.7730099999999993
20
-94.559393
11
170.6343929999999887
21
-94.6980099999999965
0
LINE
8
BLACK
6
CONTINUOUS
10
170.6343929999999887
20
-94.6980099999999965
11
170.4713969999999961
21
-94.8069210000000027
0
LINE
8
BLACK
6
CONTINUOUS
10
170.4713969999999961
20
-94.8069210000000027
11
170.290284999999983
21
-94.8819400000000002
0
LINE
8
BLACK
6
CONTINUOUS
10
170.290284999999983
20
-94.8819400000000002
11
170.0980169999999987
21
-94.9201849999999894
0
LINE
8
BLACK
6
CONTINUOUS
10
170.0980169999999987
20
-94.9201849999999894
11
169.9019830000000013
21
-94.9201849999999894
0
LINE
8
BLACK
6
CONTINUOUS
10
169.9019830000000013
20
-94.9201849999999894
11
169.7097149999999885
21
-94.8819400000000002
0
LINE
8
BLACK
6
CONTINUOUS
10
169.7097149999999885
20
-94.8819400000000002
11
169.5286030000000039
21
-94.8069210000000027
0
LINE
8
BLACK
6
CONTINUOUS
10
169.5286030000000039
20
-94.8069210000000027
11
169.3656069999999829
21
-94.6980099999999965
0
LINE
8
BLACK
6
CONTINUOUS
10
169.3656069999999829
20
-94.6980099999999965
11
169.2269900000000007
21
-94.559393
0
LINE
8
BLACK
6
CONTINUOUS
10
169.2269900000000007
20
-94.559393
11
169.1180789999999945
21
-94.3963969999999932
0
LINE
8
BLACK
6
CONTINUOUS
10
169.1180789999999945
20
-94.3963969999999932
11
169.043059999999997
21
-94.2152849999999944
0
LINE
8
BLACK
6
CONTINUOUS
10
169.043059999999997
20
-94.2152849999999944
11
169.0048149999999794
21
-94.0230169999999958
0
LINE
8
BLACK
6
CONTINUOUS
10
169.0048149999999794
20
-94.0230169999999958
11
169.0048149999999794
21
-93.8269829999999985
0
LINE
8
BLACK
6
CONTINUOUS
10
169.0048149999999794
20
-93.8269829999999985
11
169.043059999999997
21
-93.6347149999999999
0
LINE
8
BLACK
6
CONTINUOUS
10
169.043059999999997
20
-93.6347149999999999
11
169.1180789999999945
21
-93.4536030000000011
0
LINE
8
BLACK
6
CONTINUOUS
10
169.1180789999999945
20
-93.4536030000000011
11
169.2269900000000007
21
-93.2906069999999943
0
LINE
8
BLACK
6
CONTINUOUS
10
169.2269900000000007
20
-93.2906069999999943
11
169.3656069999999829
21
-93.1519899999999978
0
LINE
8
BLACK
6
CONTINUOUS
10
169.3656069999999829
20
-93.1519899999999978
11
169.5286030000000039
21
-93.0430789999999917
0
LINE
8
BLACK
6
CONTINUOUS
10
169.5286030000000039
20
-93.0430789999999917
11
169.7097149999999885
21
-92.9680599999999941
0
LINE
8
BLACK
6
CONTINUOUS
10
169.7097149999999885
20
-92.9680599999999941
11
169.9019830000000013
21
-92.9298149999999907
0
LINE
8
BLACK
6
CONTINUOUS
10
169.9019830000000013
20
-92.9298149999999907
11
170.0980169999999987
21
-92.9298149999999907
0
LINE
8
BLACK
6
CONTINUOUS
10
170.0980169999999987
20
-92.9298149999999907
11
170.290284999999983
21
-92.9680599999999941
0
LINE
8
BLACK
6
CONTINUOUS
10
187.5501679999999851
20
-89.7414449999999988
11
187.7740249999999946
21
-89.8141809999999907
0
LINE
8
BLACK
6
CONTINUOUS
10
187.7740249999999946
20
-89.8141809999999907
11
187.9837479999999914
21
-89.9210399999999908
0
LINE
8
BLACK
6
CONTINUOUS
10
187.9837479999999914
20
-89.9210399999999908
11
188.1741719999999987
21
-90.0593909999999909
0
LINE
8
BLACK
6
CONTINUOUS
10
188.1741719999999987
20
-90.0593909999999909
11
188.3406090000000006
21
-90.2258279999999928
0
LINE
8
BLACK
6
CONTINUOUS
10
188.3406090000000006
20
-90.2258279999999928
11
188.4789600000000007
21
-90.4162520000000001
0
LINE
8
BLACK
6
CONTINUOUS
10
188.4789600000000007
20
-90.4162520000000001
11
188.5858189999999865
21
-90.6259749999999968
0
LINE
8
BLACK
6
CONTINUOUS
10
188.5858189999999865
20
-90.6259749999999968
11
188.6585549999999785
21
-90.8498319999999921
0
LINE
8
BLACK
6
CONTINUOUS
10
188.6585549999999785
20
-90.8498319999999921
11
188.6953759999999818
21
-91.08231099999999
0
LINE
8
BLACK
6
CONTINUOUS
10
188.6953759999999818
20
-91.08231099999999
11
188.6953759999999818
21
-91.3176890000000014
0
LINE
8
BLACK
6
CONTINUOUS
10
188.6953759999999818
20
-91.3176890000000014
11
188.6585549999999785
21
-91.5501679999999993
0
LINE
8
BLACK
6
CONTINUOUS
10
188.6585549999999785
20
-91.5501679999999993
11
188.5858189999999865
21
-91.7740249999999946
0
LINE
8
BLACK
6
CONTINUOUS
10
188.5858189999999865
20
-91.7740249999999946
11
188.4789600000000007
21
-91.9837479999999914
0
LINE
8
BLACK
6
CONTINUOUS
10
188.4789600000000007
20
-91.9837479999999914
11
188.3406090000000006
21
-92.1741719999999987
0
LINE
8
BLACK
6
CONTINUOUS
10
188.3406090000000006
20
-92.1741719999999987
11
188.1741719999999987
21
-92.3406090000000006
0
LINE
8
BLACK
6
CONTINUOUS
10
188.1741719999999987
20
-92.3406090000000006
11
187.9837479999999914
21
-92.4789600000000007
0
LINE
8
BLACK
6
CONTINUOUS
10
187.9837479999999914
20
-92.4789600000000007
11
187.7740249999999946
21
-92.5858190000000008
0
LINE
8
BLACK
6
CONTINUOUS
10
187.7740249999999946
20
-92.5858190000000008
11
187.5501679999999851
21
-92.6585549999999927
0
LINE
8
BLACK
6
CONTINUOUS
10
187.5501679999999851
20
-92.6585549999999927
11
187.3176890000000014
21
-92.695375999999996
0
LINE
8
BLACK
6
CONTINUOUS
10
187.3176890000000014
20
-92.695375999999996
11
187.0823110000000042
21
-92.695375999999996
0
LINE
8
BLACK
6
CONTINUOUS
10
187.0823110000000042
20
-92.695375999999996
11
186.8498319999999921
21
-92.6585549999999927
0
LINE
8
BLACK
6
CONTINUOUS
10
186.8498319999999921
20
-92.6585549999999927
11
186.6259749999999826
21
-92.5858190000000008
0
LINE
8
BLACK
6
CONTINUOUS
10
186.6259749999999826
20
-92.5858190000000008
11
186.4162519999999859
21
-92.4789600000000007
0
LINE
8
BLACK
6
CONTINUOUS
10
186.4162519999999859
20
-92.4789600000000007
11
186.2258279999999786
21
-92.3406090000000006
0
LINE
8
BLACK
6
CONTINUOUS
10
186.2258279999999786
20
-92.3406090000000006
11
186.0593910000000051
21
-92.1741719999999987
0
LINE
8
BLACK
6
CONTINUOUS
10
186.0593910000000051
20
-92.1741719999999987
11
185.921040000000005
21
-91.9837479999999914
0
LINE
8
BLACK
6
CONTINUOUS
10
185.921040000000005
20
-91.9837479999999914
11
185.8141809999999907
21
-91.7740249999999946
0
LINE
8
BLACK
6
CONTINUOUS
10
185.8141809999999907
20
-91.7740249999999946
11
185.7414449999999988
21
-91.5501679999999993
0
LINE
8
BLACK
6
CONTINUOUS
10
185.7414449999999988
20
-91.5501679999999993
11
185.7046239999999955
21
-91.3176890000000014
0
LINE
8
BLACK
6
CONTINUOUS
10
185.7046239999999955
20
-91.3176890000000014
11
185.7046239999999955
21
-91.08231099999999
0
LINE
8
BLACK
6
CONTINUOUS
10
185.7046239999999955
20
-91.08231099999999
11
185.7414449999999988
21
-90.8498319999999921
0
LINE
8
BLACK
6
CONTINUOUS
10
185.7414449999999988
20
-90.8498319999999921
11
185.8141809999999907
21
-90.6259749999999968
0
LINE
8
BLACK
6
CONTINUOUS
10
185.8141809999999907
20
-90.6259749999999968
11
185.921040000000005
21
-90.4162520000000001
0
LINE
8
BLACK
6
CONTINUOUS
10
185.921040000000005
20
-90.4162520000000001
11
186.0593910000000051
21
-90.2258279999999928
0
LINE
8
BLACK
6
CONTINUOUS
10
186.0593910000000051
20
-90.2258279999999928
11
186.2258279999999786
21
-90.0593909999999909
0
LINE
8
BLACK
6
CONTINUOUS
10
186.2258279999999786
20
-90.0593909999999909
11
186.4162519999999859
21
-89.9210399999999908
0
LINE
8
BLACK
6
CONTINUOUS
10
186.4162519999999859
20
-89.9210399999999908
11
186.6259749999999826
21
-89.8141809999999907
0
LINE
8
BLACK
6
CONTINUOUS
10
186.6259749999999826
20
-89.8141809999999907
11
186.8498319999999921
21
-89.7414449999999988
0
LINE
8
BLACK
6
CONTINUOUS
10
186.8498319999999921
20
-89.7414449999999988
11
187.0823110000000042
21
-89.7046239999999955
0
LINE
8
BLACK
6
CONTINUOUS
10
187.0823110000000042
20
-89.7046239999999955
11
187.3176890000000014
21
-89.7046239999999955
0
LINE
8
BLACK
6
CONTINUOUS
10
187.3176890000000014
20
-89.7046239999999955
11
187.5501679999999851
21
-89.7414449999999988
0
LINE
8
BLACK
6
CONTINUOUS
10
244.5501679999999851
20
-89.6414449999999903
11
244.7740249999999946
21
-89.7141809999999964
0
LINE
8
BLACK
6
CONTINUOUS
10
244.7740249999999946
20
-89.7141809999999964
11
244.9837479999999914
21
-89.8210399999999964
0
LINE
8
BLACK
6
CONTINUOUS
10
244.9837479999999914
20
-89.8210399999999964
11
245.1741719999999987
21
-89.9593909999999966
0
LINE
8
BLACK
6
CONTINUOUS
10
245.1741719999999987
20
-89.9593909999999966
11
245.3406090000000006
21
-90.1258279999999985
0
LINE
8
BLACK
6
CONTINUOUS
10
245.3406090000000006
20
-90.1258279999999985
11
245.4789600000000007
21
-90.3162519999999915
0
LINE
8
BLACK
6
CONTINUOUS
10
245.4789600000000007
20
-90.3162519999999915
11
245.5858189999999865
21
-90.5259750000000025
0
LINE
8
BLACK
6
CONTINUOUS
10
245.5858189999999865
20
-90.5259750000000025
11
245.6585549999999785
21
-90.7498319999999978
0
LINE
8
BLACK
6
CONTINUOUS
10
245.6585549999999785
20
-90.7498319999999978
11
245.6953759999999818
21
-90.9823109999999957
0
LINE
8
BLACK
6
CONTINUOUS
10
245.6953759999999818
20
-90.9823109999999957
11
245.6953759999999818
21
-91.2176889999999929
0
LINE
8
BLACK
6
CONTINUOUS
10
245.6953759999999818
20
-91.2176889999999929
11
245.6585549999999785
21
-91.4501679999999908
0
LINE
8
BLACK
6
CONTINUOUS
10
245.6585549999999785
20
-91.4501679999999908
11
245.5858189999999865
21
-91.6740250000000003
0
LINE
8
BLACK
6
CONTINUOUS
10
245.5858189999999865
20
-91.6740250000000003
11
245.4789600000000007
21
-91.8837479999999971
0
LINE
8
BLACK
6
CONTINUOUS
10
245.4789600000000007
20
-91.8837479999999971
11
245.3406090000000006
21
-92.0741719999999901
0
LINE
8
BLACK
6
CONTINUOUS
10
245.3406090000000006
20
-92.0741719999999901
11
245.1741719999999987
21
-92.2406089999999921
0
LINE
8
BLACK
6
CONTINUOUS
10
245.1741719999999987
20
-92.2406089999999921
11
244.9837479999999914
21
-92.3789599999999922
0
LINE
8
BLACK
6
CONTINUOUS
10
244.9837479999999914
20
-92.3789599999999922
11
244.7740249999999946
21
-92.4858189999999922
0
LINE
8
BLACK
6
CONTINUOUS
10
244.7740249999999946
20
-92.4858189999999922
11
244.5501679999999851
21
-92.5585549999999984
0
LINE
8
BLACK
6
CONTINUOUS
10
244.5501679999999851
20
-92.5585549999999984
11
244.3176890000000014
21
-92.5953760000000017
0
LINE
8
BLACK
6
CONTINUOUS
10
244.3176890000000014
20
-92.5953760000000017
11
244.0823109999999758
21
-92.5953760000000017
0
LINE
8
BLACK
6
CONTINUOUS
10
244.0823109999999758
20
-92.5953760000000017
11
243.8498319999999921
21
-92.5585549999999984
0
LINE
8
BLACK
6
CONTINUOUS
10
243.8498319999999921
20
-92.5585549999999984
11
243.6259749999999826
21
-92.4858189999999922
0
LINE
8
BLACK
6
CONTINUOUS
10
243.6259749999999826
20
-92.4858189999999922
11
243.4162519999999859
21
-92.3789599999999922
0
LINE
8
BLACK
6
CONTINUOUS
10
243.4162519999999859
20
-92.3789599999999922
11
243.2258279999999786
21
-92.2406089999999921
0
LINE
8
BLACK
6
CONTINUOUS
10
243.2258279999999786
20
-92.2406089999999921
11
243.0593909999999767
21
-92.0741719999999901
0
LINE
8
BLACK
6
CONTINUOUS
10
243.0593909999999767
20
-92.0741719999999901
11
242.9210399999999765
21
-91.8837479999999971
0
LINE
8
BLACK
6
CONTINUOUS
10
242.9210399999999765
20
-91.8837479999999971
11
242.8141809999999907
21
-91.6740250000000003
0
LINE
8
BLACK
6
CONTINUOUS
10
242.8141809999999907
20
-91.6740250000000003
11
242.7414449999999988
21
-91.4501679999999908
0
LINE
8
BLACK
6
CONTINUOUS
10
242.7414449999999988
20
-91.4501679999999908
11
242.7046239999999955
21
-91.2176889999999929
0
LINE
8
BLACK
6
CONTINUOUS
10
242.7046239999999955
20
-91.2176889999999929
11
242.7046239999999955
21
-90.9823109999999957
0
LINE
8
BLACK
6
CONTINUOUS
10
242.7046239999999955
20
-90.9823109999999957
11
242.7414449999999988
21
-90.7498319999999978
0
LINE
8
BLACK
6
CONTINUOUS
10
242.7414449999999988
20
-90.7498319999999978
11
242.8141809999999907
21
-90.5259750000000025
0
LINE
8
BLACK
6
CONTINUOUS
10
242.8141809999999907
20
-90.5259750000000025
11
242.9210399999999765
21
-90.3162519999999915
0
LINE
8
BLACK
6
CONTINUOUS
10
242.9210399999999765
20
-90.3162519999999915
11
243.0593909999999767
21
-90.1258279999999985
0
LINE
8
BLACK
6
CONTINUOUS
10
243.0593909999999767
20
-90.1258279999999985
11
243.2258279999999786
21
-89.9593909999999966
0
LINE
8
BLACK
6
CONTINUOUS
10
243.2258279999999786
20
-89.9593909999999966
11
243.4162519999999859
21
-89.8210399999999964
0
LINE
8
BLACK
6
CONTINUOUS
10
243.4162519999999859
20
-89.8210399999999964
11
243.6259749999999826
21
-89.7141809999999964
0
LINE
8
BLACK
6
CONTINUOUS
10
243.6259749999999826
20
-89.7141809999999964
11
243.8498319999999921
21
-89.6414449999999903
0
LINE
8
BLACK
6
CONTINUOUS
10
243.8498319999999921
20
-89.6414449999999903
11
244.0823109999999758
21
-89.6046240000000012
0
LINE
8
BLACK
6
CONTINUOUS
10
244.0823109999999758
20
-89.6046240000000012
11
244.3176890000000014
21
-89.6046240000000012
0
LINE
8
BLACK
6
CONTINUOUS
10
244.3176890000000014
20
-89.6046240000000012
11
244.5501679999999851
21
-89.6414449999999903
0
LINE
8
BLACK
6
CONTINUOUS
10
170.290284999999983
20
-89.3830600000000004
11
170.4713969999999961
21
-89.4580789999999979
0
LINE
8
BLACK
6
CONTINUOUS
10
170.4713969999999961
20
-89.4580789999999979
11
170.6343929999999887
21
-89.5669899999999899
0
LINE
8
BLACK
6
CONTINUOUS
10
170.6343929999999887
20
-89.5669899999999899
11
170.7730099999999993
21
-89.7056070000000005
0
LINE
8
BLACK
6
CONTINUOUS
10
170.7730099999999993
20
-89.7056070000000005
11
170.8819210000000055
21
-89.8686029999999931
0
LINE
8
BLACK
6
CONTINUOUS
10
170.8819210000000055
20
-89.8686029999999931
11
170.956940000000003
21
-90.049714999999992
0
LINE
8
BLACK
6
CONTINUOUS
10
170.956940000000003
20
-90.049714999999992
11
170.9951849999999922
21
-90.2419829999999905
0
LINE
8
BLACK
6
CONTINUOUS
10
170.9951849999999922
20
-90.2419829999999905
11
170.9951849999999922
21
-90.4380170000000021
0
LINE
8
BLACK
6
CONTINUOUS
10
170.9951849999999922
20
-90.4380170000000021
11
170.956940000000003
21
-90.6302850000000007
0
LINE
8
BLACK
6
CONTINUOUS
10
170.956940000000003
20
-90.6302850000000007
11
170.8819210000000055
21
-90.8113969999999995
0
LINE
8
BLACK
6
CONTINUOUS
10
170.8819210000000055
20
-90.8113969999999995
11
170.7730099999999993
21
-90.9743929999999921
0
LINE
8
BLACK
6
CONTINUOUS
10
170.7730099999999993
20
-90.9743929999999921
11
170.6343929999999887
21
-91.1130100000000027
0
LINE
8
BLACK
6
CONTINUOUS
10
170.6343929999999887
20
-91.1130100000000027
11
170.4713969999999961
21
-91.2219209999999947
0
LINE
8
BLACK
6
CONTINUOUS
10
170.4713969999999961
20
-91.2219209999999947
11
170.290284999999983
21
-91.2969399999999922
0
LINE
8
BLACK
6
CONTINUOUS
10
170.290284999999983
20
-91.2969399999999922
11
170.0980169999999987
21
-91.3351849999999956
0
LINE
8
BLACK
6
CONTINUOUS
10
170.0980169999999987
20
-91.3351849999999956
11
169.9019830000000013
21
-91.3351849999999956
0
LINE
8
BLACK
6
CONTINUOUS
10
169.9019830000000013
20
-91.3351849999999956
11
169.7097149999999885
21
-91.2969399999999922
0
LINE
8
BLACK
6
CONTINUOUS
10
169.7097149999999885
20
-91.2969399999999922
11
169.5286030000000039
21
-91.2219209999999947
0
LINE
8
BLACK
6
CONTINUOUS
10
169.5286030000000039
20
-91.2219209999999947
11
169.3656069999999829
21
-91.1130100000000027
0
LINE
8
BLACK
6
CONTINUOUS
10
169.3656069999999829
20
-91.1130100000000027
11
169.2269900000000007
21
-90.9743929999999921
0
LINE
8
BLACK
6
CONTINUOUS
10
169.2269900000000007
20
-90.9743929999999921
11
169.1180789999999945
21
-90.8113969999999995
0
LINE
8
BLACK
6
CONTINUOUS
10
169.1180789999999945
20
-90.8113969999999995
11
169.043059999999997
21
-90.6302850000000007
0
LINE
8
BLACK
6
CONTINUOUS
10
169.043059999999997
20
-90.6302850000000007
11
169.0048149999999794
21
-90.4380170000000021
0
LINE
8
BLACK
6
CONTINUOUS
10
169.0048149999999794
20
-90.4380170000000021
11
169.0048149999999794
21
-90.2419829999999905
0
LINE
8
BLACK
6
CONTINUOUS
10
169.0048149999999794
20
-90.2419829999999905
11
169.043059999999997
21
-90.049714999999992
0
LINE
8
BLACK
6
CONTINUOUS
10
169.043059999999997
20
-90.049714999999992
11
169.1180789999999945
21
-89.8686029999999931
0
LINE
8
BLACK
6
CONTINUOUS
10
169.1180789999999945
20
-89.8686029999999931
11
169.2269900000000007
21
-89.7056070000000005
0
LINE
8
BLACK
6
CONTINUOUS
10
169.2269900000000007
20
-89.7056070000000005
11
169.3656069999999829
21
-89.5669899999999899
0
LINE
8
BLACK
6
CONTINUOUS
10
169.3656069999999829
20
-89.5669899999999899
11
169.5286030000000039
21
-89.4580789999999979
0
LINE
8
BLACK
6
CONTINUOUS
10
169.5286030000000039
20
-89.4580789999999979
11
169.7097149999999885
21
-89.3830600000000004
0
LINE
8
BLACK
6
CONTINUOUS
10
169.7097149999999885
20
-89.3830600000000004
11
169.9019830000000013
21
-89.344814999999997
0
LINE
8
BLACK
6
CONTINUOUS
10
169.9019830000000013
20
-89.344814999999997
11
170.0980169999999987
21
-89.344814999999997
0
LINE
8
BLACK
6
CONTINUOUS
10
170.0980169999999987
20
-89.344814999999997
11
170.290284999999983
21
-89.3830600000000004
0
LINE
8
BLACK
6
CONTINUOUS
10
182.5501679999999851
20
-87.541444999999996
11
182.7740249999999946
21
-87.6141810000000021
0
LINE
8
BLACK
6
CONTINUOUS
10
182.7740249999999946
20
-87.6141810000000021
11
182.9837479999999914
21
-87.7210400000000021
0
LINE
8
BLACK
6
CONTINUOUS
10
182.9837479999999914
20
-87.7210400000000021
11
183.1741719999999987
21
-87.8593910000000022
0
LINE
8
BLACK
6
CONTINUOUS
10
183.1741719999999987
20
-87.8593910000000022
11
183.3406090000000006
21
-88.02582799999999
0
LINE
8
BLACK
6
CONTINUOUS
10
183.3406090000000006
20
-88.02582799999999
11
183.4789600000000007
21
-88.2162519999999972
0
LINE
8
BLACK
6
CONTINUOUS
10
183.4789600000000007
20
-88.2162519999999972
11
183.5858189999999865
21
-88.425974999999994
0
LINE
8
BLACK
6
CONTINUOUS
10
183.5858189999999865
20
-88.425974999999994
11
183.6585549999999785
21
-88.6498319999999893
0
LINE
8
BLACK
6
CONTINUOUS
10
183.6585549999999785
20
-88.6498319999999893
11
183.6953759999999818
21
-88.8823110000000014
0
LINE
8
BLACK
6
CONTINUOUS
10
183.6953759999999818
20
-88.8823110000000014
11
183.6953759999999818
21
-89.1176889999999986
0
LINE
8
BLACK
6
CONTINUOUS
10
183.6953759999999818
20
-89.1176889999999986
11
183.6585549999999785
21
-89.3501679999999965
0
LINE
8
BLACK
6
CONTINUOUS
10
183.6585549999999785
20
-89.3501679999999965
11
183.5858189999999865
21
-89.5740249999999918
0
LINE
8
BLACK
6
CONTINUOUS
10
183.5858189999999865
20
-89.5740249999999918
11
183.4789600000000007
21
-89.7837480000000028
0
LINE
8
BLACK
6
CONTINUOUS
10
183.4789600000000007
20
-89.7837480000000028
11
183.3406090000000006
21
-89.9741719999999958
0
LINE
8
BLACK
6
CONTINUOUS
10
183.3406090000000006
20
-89.9741719999999958
11
183.1741719999999987
21
-90.1406089999999978
0
LINE
8
BLACK
6
CONTINUOUS
10
183.1741719999999987
20
-90.1406089999999978
11
182.9837479999999914
21
-90.2789599999999979
0
LINE
8
BLACK
6
CONTINUOUS
10
182.9837479999999914
20
-90.2789599999999979
11
182.7740249999999946
21
-90.3858189999999979
0
LINE
8
BLACK
6
CONTINUOUS
10
182.7740249999999946
20
-90.3858189999999979
11
182.5501679999999851
21
-90.4585549999999898
0
LINE
8
BLACK
6
CONTINUOUS
10
182.5501679999999851
20
-90.4585549999999898
11
182.3176890000000014
21
-90.4953759999999932
0
LINE
8
BLACK
6
CONTINUOUS
10
182.3176890000000014
20
-90.4953759999999932
11
182.0823110000000042
21
-90.4953759999999932
0
LINE
8
BLACK
6
CONTINUOUS
10
182.0823110000000042
20
-90.4953759999999932
11
181.8498319999999921
21
-90.4585549999999898
0
LINE
8
BLACK
6
CONTINUOUS
10
181.8498319999999921
20
-90.4585549999999898
11
181.6259749999999826
21
-90.3858189999999979
0
LINE
8
BLACK
6
CONTINUOUS
10
181.6259749999999826
20
-90.3858189999999979
11
181.4162519999999859
21
-90.2789599999999979
0
LINE
8
BLACK
6
CONTINUOUS
10
181.4162519999999859
20
-90.2789599999999979
11
181.2258279999999786
21
-90.1406089999999978
0
LINE
8
BLACK
6
CONTINUOUS
10
181.2258279999999786
20
-90.1406089999999978
11
181.0593910000000051
21
-89.9741719999999958
0
LINE
8
BLACK
6
CONTINUOUS
10
181.0593910000000051
20
-89.9741719999999958
11
180.921040000000005
21
-89.7837480000000028
0
LINE
8
BLACK
6
CONTINUOUS
10
180.921040000000005
20
-89.7837480000000028
11
180.8141809999999907
21
-89.5740249999999918
0
LINE
8
BLACK
6
CONTINUOUS
10
180.8141809999999907
20
-89.5740249999999918
11
180.7414449999999988
21
-89.3501679999999965
0
LINE
8
BLACK
6
CONTINUOUS
10
180.7414449999999988
20
-89.3501679999999965
11
180.7046239999999955
21
-89.1176889999999986
0
LINE
8
BLACK
6
CONTINUOUS
10
180.7046239999999955
20
-89.1176889999999986
11
180.7046239999999955
21
-88.8823110000000014
0
LINE
8
BLACK
6
CONTINUOUS
10
180.7046239999999955
20
-88.8823110000000014
11
180.7414449999999988
21
-88.6498319999999893
0
LINE
8
BLACK
6
CONTINUOUS
10
180.7414449999999988
20
-88.6498319999999893
11
180.8141809999999907
21
-88.425974999999994
0
LINE
8
BLACK
6
CONTINUOUS
10
180.8141809999999907
20
-88.425974999999994
11
180.921040000000005
21
-88.2162519999999972
0
LINE
8
BLACK
6
CONTINUOUS
10
180.921040000000005
20
-88.2162519999999972
11
181.0593910000000051
21
-88.02582799999999
0
LINE
8
BLACK
6
CONTINUOUS
10
181.0593910000000051
20
-88.02582799999999
11
181.2258279999999786
21
-87.8593910000000022
0
LINE
8
BLACK
6
CONTINUOUS
10
181.2258279999999786
20
-87.8593910000000022
11
181.4162519999999859
21
-87.7210400000000021
0
LINE
8
BLACK
6
CONTINUOUS
10
181.4162519999999859
20
-87.7210400000000021
11
181.6259749999999826
21
-87.6141810000000021
0
LINE
8
BLACK
6
CONTINUOUS
10
181.6259749999999826
20
-87.6141810000000021
11
181.8498319999999921
21
-87.541444999999996
0
LINE
8
BLACK
6
CONTINUOUS
10
181.8498319999999921
20
-87.541444999999996
11
182.0823110000000042
21
-87.5046239999999926
0
LINE
8
BLACK
6
CONTINUOUS
10
182.0823110000000042
20
-87.5046239999999926
11
182.3176890000000014
21
-87.5046239999999926
0
LINE
8
BLACK
6
CONTINUOUS
10
182.3176890000000014
20
-87.5046239999999926
11
182.5501679999999851
21
-87.541444999999996
0
LINE
8
BLACK
6
CONTINUOUS
10
239.5501679999999851
20
-87.4414450000000016
11
239.7740249999999946
21
-87.5141809999999936
0
LINE
8
BLACK
6
CONTINUOUS
10
239.7740249999999946
20
-87.5141809999999936
11
239.9837479999999914
21
-87.6210399999999936
0
LINE
8
BLACK
6
CONTINUOUS
10
239.9837479999999914
20
-87.6210399999999936
11
240.1741719999999987
21
-87.7593909999999937
0
LINE
8
BLACK
6
CONTINUOUS
10
240.1741719999999987
20
-87.7593909999999937
11
240.3406090000000006
21
-87.9258279999999957
0
LINE
8
BLACK
6
CONTINUOUS
10
240.3406090000000006
20
-87.9258279999999957
11
240.4789600000000007
21
-88.1162520000000029
0
LINE
8
BLACK
6
CONTINUOUS
10
240.4789600000000007
20
-88.1162520000000029
11
240.5858189999999865
21
-88.3259749999999997
0
LINE
8
BLACK
6
CONTINUOUS
10
240.5858189999999865
20
-88.3259749999999997
11
240.6585549999999785
21
-88.549831999999995
0
LINE
8
BLACK
6
CONTINUOUS
10
240.6585549999999785
20
-88.549831999999995
11
240.6953759999999818
21
-88.7823109999999929
0
LINE
8
BLACK
6
CONTINUOUS
10
240.6953759999999818
20
-88.7823109999999929
11
240.6953759999999818
21
-89.0176889999999901
0
LINE
8
BLACK
6
CONTINUOUS
10
240.6953759999999818
20
-89.0176889999999901
11
240.6585549999999785
21
-89.2501680000000022
0
LINE
8
BLACK
6
CONTINUOUS
10
240.6585549999999785
20
-89.2501680000000022
11
240.5858189999999865
21
-89.4740249999999975
0
LINE
8
BLACK
6
CONTINUOUS
10
240.5858189999999865
20
-89.4740249999999975
11
240.4789600000000007
21
-89.6837479999999942
0
LINE
8
BLACK
6
CONTINUOUS
10
240.4789600000000007
20
-89.6837479999999942
11
240.3406090000000006
21
-89.8741720000000015
0
LINE
8
BLACK
6
CONTINUOUS
10
240.3406090000000006
20
-89.8741720000000015
11
240.1741719999999987
21
-90.0406089999999892
0
LINE
8
BLACK
6
CONTINUOUS
10
240.1741719999999987
20
-90.0406089999999892
11
239.9837479999999914
21
-90.1789599999999893
0
LINE
8
BLACK
6
CONTINUOUS
10
239.9837479999999914
20
-90.1789599999999893
11
239.7740249999999946
21
-90.2858189999999894
0
LINE
8
BLACK
6
CONTINUOUS
10
239.7740249999999946
20
-90.2858189999999894
11
239.5501679999999851
21
-90.3585549999999955
0
LINE
8
BLACK
6
CONTINUOUS
10
239.5501679999999851
20
-90.3585549999999955
11
239.3176890000000014
21
-90.3953759999999988
0
LINE
8
BLACK
6
CONTINUOUS
10
239.3176890000000014
20
-90.3953759999999988
11
239.0823109999999758
21
-90.3953759999999988
0
LINE
8
BLACK
6
CONTINUOUS
10
239.0823109999999758
20
-90.3953759999999988
11
238.8498319999999921
21
-90.3585549999999955
0
LINE
8
BLACK
6
CONTINUOUS
10
238.8498319999999921
20
-90.3585549999999955
11
238.6259749999999826
21
-90.2858189999999894
0
LINE
8
BLACK
6
CONTINUOUS
10
238.6259749999999826
20
-90.2858189999999894
11
238.4162519999999859
21
-90.1789599999999893
0
LINE
8
BLACK
6
CONTINUOUS
10
238.4162519999999859
20
-90.1789599999999893
11
238.2258279999999786
21
-90.0406089999999892
0
LINE
8
BLACK
6
CONTINUOUS
10
238.2258279999999786
20
-90.0406089999999892
11
238.0593909999999767
21
-89.8741720000000015
0
LINE
8
BLACK
6
CONTINUOUS
10
238.0593909999999767
20
-89.8741720000000015
11
237.9210399999999765
21
-89.6837479999999942
0
LINE
8
BLACK
6
CONTINUOUS
10
237.9210399999999765
20
-89.6837479999999942
11
237.8141809999999907
21
-89.4740249999999975
0
LINE
8
BLACK
6
CONTINUOUS
10
237.8141809999999907
20
-89.4740249999999975
11
237.7414449999999988
21
-89.2501680000000022
0
LINE
8
BLACK
6
CONTINUOUS
10
237.7414449999999988
20
-89.2501680000000022
11
237.7046239999999955
21
-89.0176889999999901
0
LINE
8
BLACK
6
CONTINUOUS
10
237.7046239999999955
20
-89.0176889999999901
11
237.7046239999999955
21
-88.7823109999999929
0
LINE
8
BLACK
6
CONTINUOUS
10
237.7046239999999955
20
-88.7823109999999929
11
237.7414449999999988
21
-88.549831999999995
0
LINE
8
BLACK
6
CONTINUOUS
10
237.7414449999999988
20
-88.549831999999995
11
237.8141809999999907
21
-88.3259749999999997
0
LINE
8
BLACK
6
CONTINUOUS
10
237.8141809999999907
20
-88.3259749999999997
11
237.9210399999999765
21
-88.1162520000000029
0
LINE
8
BLACK
6
CONTINUOUS
10
237.9210399999999765
20
-88.1162520000000029
11
238.0593909999999767
21
-87.9258279999999957
0
LINE
8
BLACK
6
CONTINUOUS
10
238.0593909999999767
20
-87.9258279999999957
11
238.2258279999999786
21
-87.7593909999999937
0
LINE
8
BLACK
6
CONTINUOUS
10
238.2258279999999786
20
-87.7593909999999937
11
238.4162519999999859
21
-87.6210399999999936
0
LINE
8
BLACK
6
CONTINUOUS
10
238.4162519999999859
20
-87.6210399999999936
11
238.6259749999999826
21
-87.5141809999999936
0
LINE
8
BLACK
6
CONTINUOUS
10
238.6259749999999826
20
-87.5141809999999936
11
238.8498319999999921
21
-87.4414450000000016
0
LINE
8
BLACK
6
CONTINUOUS
10
238.8498319999999921
20
-87.4414450000000016
11
239.0823109999999758
21
-87.4046239999999983
0
LINE
8
BLACK
6
CONTINUOUS
10
239.0823109999999758
20
-87.4046239999999983
11
239.3176890000000014
21
-87.4046239999999983
0
LINE
8
BLACK
6
CONTINUOUS
10
239.3176890000000014
20
-87.4046239999999983
11
239.5501679999999851
21
-87.4414450000000016
0
LINE
8
BLACK
6
CONTINUOUS
10
167.8002850000000024
20
-88.1330600000000004
11
167.981396999999987
21
-88.2080789999999979
0
LINE
8
BLACK
6
CONTINUOUS
10
167.981396999999987
20
-88.2080789999999979
11
168.1443929999999796
21
-88.3169899999999899
0
LINE
8
BLACK
6
CONTINUOUS
10
168.1443929999999796
20
-88.3169899999999899
11
168.2830099999999902
21
-88.4556070000000005
0
LINE
8
BLACK
6
CONTINUOUS
10
168.2830099999999902
20
-88.4556070000000005
11
168.3919209999999964
21
-88.6186029999999931
0
LINE
8
BLACK
6
CONTINUOUS
10
168.3919209999999964
20
-88.6186029999999931
11
168.4669399999999939
21
-88.799714999999992
0
LINE
8
BLACK
6
CONTINUOUS
10
168.4669399999999939
20
-88.799714999999992
11
168.5051849999999831
21
-88.9919829999999905
0
LINE
8
BLACK
6
CONTINUOUS
10
168.5051849999999831
20
-88.9919829999999905
11
168.5051849999999831
21
-89.1880170000000021
0
LINE
8
BLACK
6
CONTINUOUS
10
168.5051849999999831
20
-89.1880170000000021
11
168.4669399999999939
21
-89.3802850000000007
0
LINE
8
BLACK
6
CONTINUOUS
10
168.4669399999999939
20
-89.3802850000000007
11
168.3919209999999964
21
-89.5613969999999995
0
LINE
8
BLACK
6
CONTINUOUS
10
168.3919209999999964
20
-89.5613969999999995
11
168.2830099999999902
21
-89.7243929999999921
0
LINE
8
BLACK
6
CONTINUOUS
10
168.2830099999999902
20
-89.7243929999999921
11
168.1443929999999796
21
-89.8630100000000027
0
LINE
8
BLACK
6
CONTINUOUS
10
168.1443929999999796
20
-89.8630100000000027
11
167.981396999999987
21
-89.9719209999999947
0
LINE
8
BLACK
6
CONTINUOUS
10
167.981396999999987
20
-89.9719209999999947
11
167.8002850000000024
21
-90.0469399999999922
0
LINE
8
BLACK
6
CONTINUOUS
10
167.8002850000000024
20
-90.0469399999999922
11
167.6080169999999896
21
-90.0851849999999956
0
LINE
8
BLACK
6
CONTINUOUS
10
167.6080169999999896
20
-90.0851849999999956
11
167.4119829999999922
21
-90.0851849999999956
0
LINE
8
BLACK
6
CONTINUOUS
10
167.4119829999999922
20
-90.0851849999999956
11
167.2197149999999795
21
-90.0469399999999922
0
LINE
8
BLACK
6
CONTINUOUS
10
167.2197149999999795
20
-90.0469399999999922
11
167.0386029999999948
21
-89.9719209999999947
0
LINE
8
BLACK
6
CONTINUOUS
10
167.0386029999999948
20
-89.9719209999999947
11
166.8756070000000022
21
-89.8630100000000027
0
LINE
8
BLACK
6
CONTINUOUS
10
166.8756070000000022
20
-89.8630100000000027
11
166.7369899999999916
21
-89.7243929999999921
0
LINE
8
BLACK
6
CONTINUOUS
10
166.7369899999999916
20
-89.7243929999999921
11
166.6280789999999854
21
-89.5613969999999995
0
LINE
8
BLACK
6
CONTINUOUS
10
166.6280789999999854
20
-89.5613969999999995
11
166.5530599999999879
21
-89.3802850000000007
0
LINE
8
BLACK
6
CONTINUOUS
10
166.5530599999999879
20
-89.3802850000000007
11
166.5148149999999987
21
-89.1880170000000021
0
LINE
8
BLACK
6
CONTINUOUS
10
166.5148149999999987
20
-89.1880170000000021
11
166.5148149999999987
21
-88.9919829999999905
0
LINE
8
BLACK
6
CONTINUOUS
10
166.5148149999999987
20
-88.9919829999999905
11
166.5530599999999879
21
-88.799714999999992
0
LINE
8
BLACK
6
CONTINUOUS
10
166.5530599999999879
20
-88.799714999999992
11
166.6280789999999854
21
-88.6186029999999931
0
LINE
8
BLACK
6
CONTINUOUS
10
166.6280789999999854
20
-88.6186029999999931
11
166.7369899999999916
21
-88.4556070000000005
0
LINE
8
BLACK
6
CONTINUOUS
10
166.7369899999999916
20
-88.4556070000000005
11
166.8756070000000022
21
-88.3169899999999899
0
LINE
8
BLACK
6
CONTINUOUS
10
166.8756070000000022
20
-88.3169899999999899
11
167.0386029999999948
21
-88.2080789999999979
0
LINE
8
BLACK
6
CONTINUOUS
10
167.0386029999999948
20
-88.2080789999999979
11
167.2197149999999795
21
-88.1330600000000004
0
LINE
8
BLACK
6
CONTINUOUS
10
167.2197149999999795
20
-88.1330600000000004
11
167.4119829999999922
21
-88.094814999999997
0
LINE
8
BLACK
6
CONTINUOUS
10
167.4119829999999922
20
-88.094814999999997
11
167.6080169999999896
21
-88.094814999999997
0
LINE
8
BLACK
6
CONTINUOUS
10
167.6080169999999896
20
-88.094814999999997
11
167.8002850000000024
21
-88.1330600000000004
0
LINE
8
BLACK
6
CONTINUOUS
10
201.534481999999997
20
-85.6384439999999927
11
201.7511079999999879
21
-85.6964880000000022
0
LINE
8
BLACK
6
CONTINUOUS
10
201.7511079999999879
20
-85.6964880000000022
11
201.9583039999999983
21
-85.7823119999999903
0
LINE
8
BLACK
6
CONTINUOUS
10
201.9583039999999983
20
-85.7823119999999903
11
202.1525249999999971
21
-85.8944449999999904
0
LINE
8
BLACK
6
CONTINUOUS
10
202.1525249999999971
20
-85.8944449999999904
11
202.3304479999999899
21
-86.0309709999999939
0
LINE
8
BLACK
6
CONTINUOUS
10
202.3304479999999899
20
-86.0309709999999939
11
202.4890289999999879
21
-86.1895519999999919
0
LINE
8
BLACK
6
CONTINUOUS
10
202.4890289999999879
20
-86.1895519999999919
11
202.6255549999999914
21
-86.3674749999999989
0
LINE
8
BLACK
6
CONTINUOUS
10
202.6255549999999914
20
-86.3674749999999989
11
202.7376879999999915
21
-86.5616959999999978
0
LINE
8
BLACK
6
CONTINUOUS
10
202.7376879999999915
20
-86.5616959999999978
11
202.8235119999999938
21
-86.7688919999999939
0
LINE
8
BLACK
6
CONTINUOUS
10
202.8235119999999938
20
-86.7688919999999939
11
202.8815559999999891
21
-86.985517999999999
0
LINE
8
BLACK
6
CONTINUOUS
10
202.8815559999999891
20
-86.985517999999999
11
202.9108289999999784
21
-87.2078659999999957
0
LINE
8
BLACK
6
CONTINUOUS
10
202.9108289999999784
20
-87.2078659999999957
11
202.9108289999999784
21
-87.4321339999999907
0
LINE
8
BLACK
6
CONTINUOUS
10
202.9108289999999784
20
-87.4321339999999907
11
202.8815559999999891
21
-87.6544820000000016
0
LINE
8
BLACK
6
CONTINUOUS
10
202.8815559999999891
20
-87.6544820000000016
11
202.8235119999999938
21
-87.8711079999999924
0
LINE
8
BLACK
6
CONTINUOUS
10
202.8235119999999938
20
-87.8711079999999924
11
202.7376879999999915
21
-88.0783040000000028
0
LINE
8
BLACK
6
CONTINUOUS
10
202.7376879999999915
20
-88.0783040000000028
11
202.6255549999999914
21
-88.2725250000000017
0
LINE
8
BLACK
6
CONTINUOUS
10
202.6255549999999914
20
-88.2725250000000017
11
202.4890289999999879
21
-88.4504479999999944
0
LINE
8
BLACK
6
CONTINUOUS
10
202.4890289999999879
20
-88.4504479999999944
11
202.3304479999999899
21
-88.6090289999999925
0
LINE
8
BLACK
6
CONTINUOUS
10
202.3304479999999899
20
-88.6090289999999925
11
202.1525249999999971
21
-88.745554999999996
0
LINE
8
BLACK
6
CONTINUOUS
10
202.1525249999999971
20
-88.745554999999996
11
201.9583039999999983
21
-88.857687999999996
0
LINE
8
BLACK
6
CONTINUOUS
10
201.9583039999999983
20
-88.857687999999996
11
201.7511079999999879
21
-88.9435119999999984
0
LINE
8
BLACK
6
CONTINUOUS
10
201.7511079999999879
20
-88.9435119999999984
11
201.534481999999997
21
-89.0015559999999937
0
LINE
8
BLACK
6
CONTINUOUS
10
201.534481999999997
20
-89.0015559999999937
11
201.3121339999999861
21
-89.0308289999999971
0
LINE
8
BLACK
6
CONTINUOUS
10
201.3121339999999861
20
-89.0308289999999971
11
201.0878659999999911
21
-89.0308289999999971
0
LINE
8
BLACK
6
CONTINUOUS
10
201.0878659999999911
20
-89.0308289999999971
11
200.8655179999999802
21
-89.0015559999999937
0
LINE
8
BLACK
6
CONTINUOUS
10
200.8655179999999802
20
-89.0015559999999937
11
200.6488919999999894
21
-88.9435119999999984
0
LINE
8
BLACK
6
CONTINUOUS
10
200.6488919999999894
20
-88.9435119999999984
11
200.441695999999979
21
-88.857687999999996
0
LINE
8
BLACK
6
CONTINUOUS
10
200.441695999999979
20
-88.857687999999996
11
200.2474749999999801
21
-88.745554999999996
0
LINE
8
BLACK
6
CONTINUOUS
10
200.2474749999999801
20
-88.745554999999996
11
200.0695519999999874
21
-88.6090289999999925
0
LINE
8
BLACK
6
CONTINUOUS
10
200.0695519999999874
20
-88.6090289999999925
11
199.9109709999999893
21
-88.4504479999999944
0
LINE
8
BLACK
6
CONTINUOUS
10
199.9109709999999893
20
-88.4504479999999944
11
199.7744449999999858
21
-88.2725250000000017
0
LINE
8
BLACK
6
CONTINUOUS
10
199.7744449999999858
20
-88.2725250000000017
11
199.6623119999999858
21
-88.0783040000000028
0
LINE
8
BLACK
6
CONTINUOUS
10
199.6623119999999858
20
-88.0783040000000028
11
199.5764879999999835
21
-87.8711079999999924
0
LINE
8
BLACK
6
CONTINUOUS
10
199.5764879999999835
20
-87.8711079999999924
11
199.5184439999999881
21
-87.6544820000000016
0
LINE
8
BLACK
6
CONTINUOUS
10
199.5184439999999881
20
-87.6544820000000016
11
199.4891709999999989
21
-87.4321339999999907
0
LINE
8
BLACK
6
CONTINUOUS
10
199.4891709999999989
20
-87.4321339999999907
11
199.4891709999999989
21
-87.2078659999999957
0
LINE
8
BLACK
6
CONTINUOUS
10
199.4891709999999989
20
-87.2078659999999957
11
199.5184439999999881
21
-86.985517999999999
0
LINE
8
BLACK
6
CONTINUOUS
10
199.5184439999999881
20
-86.985517999999999
11
199.5764879999999835
21
-86.7688919999999939
0
LINE
8
BLACK
6
CONTINUOUS
10
199.5764879999999835
20
-86.7688919999999939
11
199.6623119999999858
21
-86.5616959999999978
0
LINE
8
BLACK
6
CONTINUOUS
10
199.6623119999999858
20
-86.5616959999999978
11
199.7744449999999858
21
-86.3674749999999989
0
LINE
8
BLACK
6
CONTINUOUS
10
199.7744449999999858
20
-86.3674749999999989
11
199.9109709999999893
21
-86.1895519999999919
0
LINE
8
BLACK
6
CONTINUOUS
10
199.9109709999999893
20
-86.1895519999999919
11
200.0695519999999874
21
-86.0309709999999939
0
LINE
8
BLACK
6
CONTINUOUS
10
200.0695519999999874
20
-86.0309709999999939
11
200.2474749999999801
21
-85.8944449999999904
0
LINE
8
BLACK
6
CONTINUOUS
10
200.2474749999999801
20
-85.8944449999999904
11
200.441695999999979
21
-85.7823119999999903
0
LINE
8
BLACK
6
CONTINUOUS
10
200.441695999999979
20
-85.7823119999999903
11
200.6488919999999894
21
-85.6964880000000022
0
LINE
8
BLACK
6
CONTINUOUS
10
200.6488919999999894
20
-85.6964880000000022
11
200.8655179999999802
21
-85.6384439999999927
0
LINE
8
BLACK
6
CONTINUOUS
10
200.8655179999999802
20
-85.6384439999999927
11
201.0878659999999911
21
-85.6091709999999892
0
LINE
8
BLACK
6
CONTINUOUS
10
201.0878659999999911
20
-85.6091709999999892
11
201.3121339999999861
21
-85.6091709999999892
0
LINE
8
BLACK
6
CONTINUOUS
10
201.3121339999999861
20
-85.6091709999999892
11
201.534481999999997
21
-85.6384439999999927
0
LINE
8
BLACK
6
CONTINUOUS
10
220.534481999999997
20
-85.6384439999999927
11
220.7511079999999879
21
-85.6964880000000022
0
LINE
8
BLACK
6
CONTINUOUS
10
220.7511079999999879
20
-85.6964880000000022
11
220.9583039999999983
21
-85.7823119999999903
0
LINE
8
BLACK
6
CONTINUOUS
10
220.9583039999999983
20
-85.7823119999999903
11
221.1525249999999971
21
-85.8944449999999904
0
LINE
8
BLACK
6
CONTINUOUS
10
221.1525249999999971
20
-85.8944449999999904
11
221.3304479999999899
21
-86.0309709999999939
0
LINE
8
BLACK
6
CONTINUOUS
10
221.3304479999999899
20
-86.0309709999999939
11
221.4890289999999879
21
-86.1895519999999919
0
LINE
8
BLACK
6
CONTINUOUS
10
221.4890289999999879
20
-86.1895519999999919
11
221.6255549999999914
21
-86.3674749999999989
0
LINE
8
BLACK
6
CONTINUOUS
10
221.6255549999999914
20
-86.3674749999999989
11
221.7376879999999915
21
-86.5616959999999978
0
LINE
8
BLACK
6
CONTINUOUS
10
221.7376879999999915
20
-86.5616959999999978
11
221.8235119999999938
21
-86.7688919999999939
0
LINE
8
BLACK
6
CONTINUOUS
10
221.8235119999999938
20
-86.7688919999999939
11
221.8815559999999891
21
-86.985517999999999
0
LINE
8
BLACK
6
CONTINUOUS
10
221.8815559999999891
20
-86.985517999999999
11
221.9108289999999784
21
-87.2078659999999957
0
LINE
8
BLACK
6
CONTINUOUS
10
221.9108289999999784
20
-87.2078659999999957
11
221.9108289999999784
21
-87.4321339999999907
0
LINE
8
BLACK
6
CONTINUOUS
10
221.9108289999999784
20
-87.4321339999999907
11
221.8815559999999891
21
-87.6544820000000016
0
LINE
8
BLACK
6
CONTINUOUS
10
221.8815559999999891
20
-87.6544820000000016
11
221.8235119999999938
21
-87.8711079999999924
0
LINE
8
BLACK
6
CONTINUOUS
10
221.8235119999999938
20
-87.8711079999999924
11
221.7376879999999915
21
-88.0783040000000028
0
LINE
8
BLACK
6
CONTINUOUS
10
221.7376879999999915
20
-88.0783040000000028
11
221.6255549999999914
21
-88.2725250000000017
0
LINE
8
BLACK
6
CONTINUOUS
10
221.6255549999999914
20
-88.2725250000000017
11
221.4890289999999879
21
-88.4504479999999944
0
LINE
8
BLACK
6
CONTINUOUS
10
221.4890289999999879
20
-88.4504479999999944
11
221.3304479999999899
21
-88.6090289999999925
0
LINE
8
BLACK
6
CONTINUOUS
10
221.3304479999999899
20
-88.6090289999999925
11
221.1525249999999971
21
-88.745554999999996
0
LINE
8
BLACK
6
CONTINUOUS
10
221.1525249999999971
20
-88.745554999999996
11
220.9583039999999983
21
-88.857687999999996
0
LINE
8
BLACK
6
CONTINUOUS
10
220.9583039999999983
20
-88.857687999999996
11
220.7511079999999879
21
-88.9435119999999984
0
LINE
8
BLACK
6
CONTINUOUS
10
220.7511079999999879
20
-88.9435119999999984
11
220.534481999999997
21
-89.0015559999999937
0
LINE
8
BLACK
6
CONTINUOUS
10
220.534481999999997
20
-89.0015559999999937
11
220.3121339999999861
21
-89.0308289999999971
0
LINE
8
BLACK
6
CONTINUOUS
10
220.3121339999999861
20
-89.0308289999999971
11
220.0878659999999911
21
-89.0308289999999971
0
LINE
8
BLACK
6
CONTINUOUS
10
220.0878659999999911
20
-89.0308289999999971
11
219.8655179999999802
21
-89.0015559999999937
0
LINE
8
BLACK
6
CONTINUOUS
10
219.8655179999999802
20
-89.0015559999999937
11
219.6488919999999894
21
-88.9435119999999984
0
LINE
8
BLACK
6
CONTINUOUS
10
219.6488919999999894
20
-88.9435119999999984
11
219.441695999999979
21
-88.857687999999996
0
LINE
8
BLACK
6
CONTINUOUS
10
219.441695999999979
20
-88.857687999999996
11
219.2474749999999801
21
-88.745554999999996
0
LINE
8
BLACK
6
CONTINUOUS
10
219.2474749999999801
20
-88.745554999999996
11
219.0695519999999874
21
-88.6090289999999925
0
LINE
8
BLACK
6
CONTINUOUS
10
219.0695519999999874
20
-88.6090289999999925
11
218.9109709999999893
21
-88.4504479999999944
0
LINE
8
BLACK
6
CONTINUOUS
10
218.9109709999999893
20
-88.4504479999999944
11
218.7744449999999858
21
-88.2725250000000017
0
LINE
8
BLACK
6
CONTINUOUS
10
218.7744449999999858
20
-88.2725250000000017
11
218.6623119999999858
21
-88.0783040000000028
0
LINE
8
BLACK
6
CONTINUOUS
10
218.6623119999999858
20
-88.0783040000000028
11
218.5764879999999835
21
-87.8711079999999924
0
LINE
8
BLACK
6
CONTINUOUS
10
218.5764879999999835
20
-87.8711079999999924
11
218.5184439999999881
21
-87.6544820000000016
0
LINE
8
BLACK
6
CONTINUOUS
10
218.5184439999999881
20
-87.6544820000000016
11
218.4891709999999989
21
-87.4321339999999907
0
LINE
8
BLACK
6
CONTINUOUS
10
218.4891709999999989
20
-87.4321339999999907
11
218.4891709999999989
21
-87.2078659999999957
0
LINE
8
BLACK
6
CONTINUOUS
10
218.4891709999999989
20
-87.2078659999999957
11
218.5184439999999881
21
-86.985517999999999
0
LINE
8
BLACK
6
CONTINUOUS
10
218.5184439999999881
20
-86.985517999999999
11
218.5764879999999835
21
-86.7688919999999939
0
LINE
8
BLACK
6
CONTINUOUS
10
218.5764879999999835
20
-86.7688919999999939
11
218.6623119999999858
21
-86.5616959999999978
0
LINE
8
BLACK
6
CONTINUOUS
10
218.6623119999999858
20
-86.5616959999999978
11
218.7744449999999858
21
-86.3674749999999989
0
LINE
8
BLACK
6
CONTINUOUS
10
218.7744449999999858
20
-86.3674749999999989
11
218.9109709999999893
21
-86.1895519999999919
0
LINE
8
BLACK
6
CONTINUOUS
10
218.9109709999999893
20
-86.1895519999999919
11
219.0695519999999874
21
-86.0309709999999939
0
LINE
8
BLACK
6
CONTINUOUS
10
219.0695519999999874
20
-86.0309709999999939
11
219.2474749999999801
21
-85.8944449999999904
0
LINE
8
BLACK
6
CONTINUOUS
10
219.2474749999999801
20
-85.8944449999999904
11
219.441695999999979
21
-85.7823119999999903
0
LINE
8
BLACK
6
CONTINUOUS
10
219.441695999999979
20
-85.7823119999999903
11
219.6488919999999894
21
-85.6964880000000022
0
LINE
8
BLACK
6
CONTINUOUS
10
219.6488919999999894
20
-85.6964880000000022
11
219.8655179999999802
21
-85.6384439999999927
0
LINE
8
BLACK
6
CONTINUOUS
10
219.8655179999999802
20
-85.6384439999999927
11
220.0878659999999911
21
-85.6091709999999892
0
LINE
8
BLACK
6
CONTINUOUS
10
220.0878659999999911
20
-85.6091709999999892
11
220.3121339999999861
21
-85.6091709999999892
0
LINE
8
BLACK
6
CONTINUOUS
10
220.3121339999999861
20
-85.6091709999999892
11
220.534481999999997
21
-85.6384439999999927
0
LINE
8
BLACK
6
CONTINUOUS
10
195.9470029999999952
20
-86.5057389999999913
11
196.1011110000000031
21
-86.5695729999999912
0
LINE
8
BLACK
6
CONTINUOUS
10
196.1011110000000031
20
-86.5695729999999912
11
196.2398049999999898
21
-86.6622449999999986
0
LINE
8
BLACK
6
CONTINUOUS
10
196.2398049999999898
20
-86.6622449999999986
11
196.3577549999999974
21
-86.780194999999992
0
LINE
8
BLACK
6
CONTINUOUS
10
196.3577549999999974
20
-86.780194999999992
11
196.4504269999999906
21
-86.918888999999993
0
LINE
8
BLACK
6
CONTINUOUS
10
196.4504269999999906
20
-86.918888999999993
11
196.5142610000000047
21
-87.0729970000000009
0
LINE
8
BLACK
6
CONTINUOUS
10
196.5142610000000047
20
-87.0729970000000009
11
196.5468029999999828
21
-87.2365969999999891
0
LINE
8
BLACK
6
CONTINUOUS
10
196.5468029999999828
20
-87.2365969999999891
11
196.5468029999999828
21
-87.4034029999999973
0
LINE
8
BLACK
6
CONTINUOUS
10
196.5468029999999828
20
-87.4034029999999973
11
196.5142610000000047
21
-87.5670029999999997
0
LINE
8
BLACK
6
CONTINUOUS
10
196.5142610000000047
20
-87.5670029999999997
11
196.4504269999999906
21
-87.7211109999999934
0
LINE
8
BLACK
6
CONTINUOUS
10
196.4504269999999906
20
-87.7211109999999934
11
196.3577549999999974
21
-87.8598049999999944
0
LINE
8
BLACK
6
CONTINUOUS
10
196.3577549999999974
20
-87.8598049999999944
11
196.2398049999999898
21
-87.9777550000000019
0
LINE
8
BLACK
6
CONTINUOUS
10
196.2398049999999898
20
-87.9777550000000019
11
196.1011110000000031
21
-88.0704269999999951
0
LINE
8
BLACK
6
CONTINUOUS
10
196.1011110000000031
20
-88.0704269999999951
11
195.9470029999999952
21
-88.1342609999999951
0
LINE
8
BLACK
6
CONTINUOUS
10
195.9470029999999952
20
-88.1342609999999951
11
195.7834029999999927
21
-88.1668030000000016
0
LINE
8
BLACK
6
CONTINUOUS
10
195.7834029999999927
20
-88.1668030000000016
11
195.6165969999999845
21
-88.1668030000000016
0
LINE
8
BLACK
6
CONTINUOUS
10
195.6165969999999845
20
-88.1668030000000016
11
195.4529969999999821
21
-88.1342609999999951
0
LINE
8
BLACK
6
CONTINUOUS
10
195.4529969999999821
20
-88.1342609999999951
11
195.2988890000000026
21
-88.0704269999999951
0
LINE
8
BLACK
6
CONTINUOUS
10
195.2988890000000026
20
-88.0704269999999951
11
195.1601949999999874
21
-87.9777550000000019
0
LINE
8
BLACK
6
CONTINUOUS
10
195.1601949999999874
20
-87.9777550000000019
11
195.0422449999999799
21
-87.8598049999999944
0
LINE
8
BLACK
6
CONTINUOUS
10
195.0422449999999799
20
-87.8598049999999944
11
194.9495729999999867
21
-87.7211109999999934
0
LINE
8
BLACK
6
CONTINUOUS
10
194.9495729999999867
20
-87.7211109999999934
11
194.8857390000000009
21
-87.5670029999999997
0
LINE
8
BLACK
6
CONTINUOUS
10
194.8857390000000009
20
-87.5670029999999997
11
194.8531969999999944
21
-87.4034029999999973
0
LINE
8
BLACK
6
CONTINUOUS
10
194.8531969999999944
20
-87.4034029999999973
11
194.8531969999999944
21
-87.2365969999999891
0
LINE
8
BLACK
6
CONTINUOUS
10
194.8531969999999944
20
-87.2365969999999891
11
194.8857390000000009
21
-87.0729970000000009
0
LINE
8
BLACK
6
CONTINUOUS
10
194.8857390000000009
20
-87.0729970000000009
11
194.9495729999999867
21
-86.918888999999993
0
LINE
8
BLACK
6
CONTINUOUS
10
194.9495729999999867
20
-86.918888999999993
11
195.0422449999999799
21
-86.780194999999992
0
LINE
8
BLACK
6
CONTINUOUS
10
195.0422449999999799
20
-86.780194999999992
11
195.1601949999999874
21
-86.6622449999999986
0
LINE
8
BLACK
6
CONTINUOUS
10
195.1601949999999874
20
-86.6622449999999986
11
195.2988890000000026
21
-86.5695729999999912
0
LINE
8
BLACK
6
CONTINUOUS
10
195.2988890000000026
20
-86.5695729999999912
11
195.4529969999999821
21
-86.5057389999999913
0
LINE
8
BLACK
6
CONTINUOUS
10
195.4529969999999821
20
-86.5057389999999913
11
195.6165969999999845
21
-86.473196999999999
0
LINE
8
BLACK
6
CONTINUOUS
10
195.6165969999999845
20
-86.473196999999999
11
195.7834029999999927
21
-86.473196999999999
0
LINE
8
BLACK
6
CONTINUOUS
10
195.7834029999999927
20
-86.473196999999999
11
195.9470029999999952
21
-86.5057389999999913
0
LINE
8
BLACK
6
CONTINUOUS
10
206.9470029999999952
20
-86.5057389999999913
11
207.1011110000000031
21
-86.5695729999999912
0
LINE
8
BLACK
6
CONTINUOUS
10
207.1011110000000031
20
-86.5695729999999912
11
207.2398049999999898
21
-86.6622449999999986
0
LINE
8
BLACK
6
CONTINUOUS
10
207.2398049999999898
20
-86.6622449999999986
11
207.3577549999999974
21
-86.780194999999992
0
LINE
8
BLACK
6
CONTINUOUS
10
207.3577549999999974
20
-86.780194999999992
11
207.4504269999999906
21
-86.918888999999993
0
LINE
8
BLACK
6
CONTINUOUS
10
207.4504269999999906
20
-86.918888999999993
11
207.5142610000000047
21
-87.0729970000000009
0
LINE
8
BLACK
6
CONTINUOUS
10
207.5142610000000047
20
-87.0729970000000009
11
207.5468029999999828
21
-87.2365969999999891
0
LINE
8
BLACK
6
CONTINUOUS
10
207.5468029999999828
20
-87.2365969999999891
11
207.5468029999999828
21
-87.4034029999999973
0
LINE
8
BLACK
6
CONTINUOUS
10
207.5468029999999828
20
-87.4034029999999973
11
207.5142610000000047
21
-87.5670029999999997
0
LINE
8
BLACK
6
CONTINUOUS
10
207.5142610000000047
20
-87.5670029999999997
11
207.4504269999999906
21
-87.7211109999999934
0
LINE
8
BLACK
6
CONTINUOUS
10
207.4504269999999906
20
-87.7211109999999934
11
207.3577549999999974
21
-87.8598049999999944
0
LINE
8
BLACK
6
CONTINUOUS
10
207.3577549999999974
20
-87.8598049999999944
11
207.2398049999999898
21
-87.9777550000000019
0
LINE
8
BLACK
6
CONTINUOUS
10
207.2398049999999898
20
-87.9777550000000019
11
207.1011110000000031
21
-88.0704269999999951
0
LINE
8
BLACK
6
CONTINUOUS
10
207.1011110000000031
20
-88.0704269999999951
11
206.9470029999999952
21
-88.1342609999999951
0
LINE
8
BLACK
6
CONTINUOUS
10
206.9470029999999952
20
-88.1342609999999951
11
206.7834029999999927
21
-88.1668030000000016
0
LINE
8
BLACK
6
CONTINUOUS
10
206.7834029999999927
20
-88.1668030000000016
11
206.6165969999999845
21
-88.1668030000000016
0
LINE
8
BLACK
6
CONTINUOUS
10
206.6165969999999845
20
-88.1668030000000016
11
206.4529969999999821
21
-88.1342609999999951
0
LINE
8
BLACK
6
CONTINUOUS
10
206.4529969999999821
20
-88.1342609999999951
11
206.2988890000000026
21
-88.0704269999999951
0
LINE
8
BLACK
6
CONTINUOUS
10
206.2988890000000026
20
-88.0704269999999951
11
206.1601949999999874
21
-87.9777550000000019
0
LINE
8
BLACK
6
CONTINUOUS
10
206.1601949999999874
20
-87.9777550000000019
11
206.0422449999999799
21
-87.8598049999999944
0
LINE
8
BLACK
6
CONTINUOUS
10
206.0422449999999799
20
-87.8598049999999944
11
205.9495729999999867
21
-87.7211109999999934
0
LINE
8
BLACK
6
CONTINUOUS
10
205.9495729999999867
20
-87.7211109999999934
11
205.8857390000000009
21
-87.5670029999999997
0
LINE
8
BLACK
6
CONTINUOUS
10
205.8857390000000009
20
-87.5670029999999997
11
205.8531969999999944
21
-87.4034029999999973
0
LINE
8
BLACK
6
CONTINUOUS
10
205.8531969999999944
20
-87.4034029999999973
11
205.8531969999999944
21
-87.2365969999999891
0
LINE
8
BLACK
6
CONTINUOUS
10
205.8531969999999944
20
-87.2365969999999891
11
205.8857390000000009
21
-87.0729970000000009
0
LINE
8
BLACK
6
CONTINUOUS
10
205.8857390000000009
20
-87.0729970000000009
11
205.9495729999999867
21
-86.918888999999993
0
LINE
8
BLACK
6
CONTINUOUS
10
205.9495729999999867
20
-86.918888999999993
11
206.0422449999999799
21
-86.780194999999992
0
LINE
8
BLACK
6
CONTINUOUS
10
206.0422449999999799
20
-86.780194999999992
11
206.1601949999999874
21
-86.6622449999999986
0
LINE
8
BLACK
6
CONTINUOUS
10
206.1601949999999874
20
-86.6622449999999986
11
206.2988890000000026
21
-86.5695729999999912
0
LINE
8
BLACK
6
CONTINUOUS
10
206.2988890000000026
20
-86.5695729999999912
11
206.4529969999999821
21
-86.5057389999999913
0
LINE
8
BLACK
6
CONTINUOUS
10
206.4529969999999821
20
-86.5057389999999913
11
206.6165969999999845
21
-86.473196999999999
0
LINE
8
BLACK
6
CONTINUOUS
10
206.6165969999999845
20
-86.473196999999999
11
206.7834029999999927
21
-86.473196999999999
0
LINE
8
BLACK
6
CONTINUOUS
10
206.7834029999999927
20
-86.473196999999999
11
206.9470029999999952
21
-86.5057389999999913
0
LINE
8
BLACK
6
CONTINUOUS
10
214.9470029999999952
20
-86.5057389999999913
11
215.1011110000000031
21
-86.5695729999999912
0
LINE
8
BLACK
6
CONTINUOUS
10
215.1011110000000031
20
-86.5695729999999912
11
215.2398049999999898
21
-86.6622449999999986
0
LINE
8
BLACK
6
CONTINUOUS
10
215.2398049999999898
20
-86.6622449999999986
11
215.3577549999999974
21
-86.780194999999992
0
LINE
8
BLACK
6
CONTINUOUS
10
215.3577549999999974
20
-86.780194999999992
11
215.4504269999999906
21
-86.918888999999993
0
LINE
8
BLACK
6
CONTINUOUS
10
215.4504269999999906
20
-86.918888999999993
11
215.5142609999999763
21
-87.0729970000000009
0
LINE
8
BLACK
6
CONTINUOUS
10
215.5142609999999763
20
-87.0729970000000009
11
215.5468029999999828
21
-87.2365969999999891
0
LINE
8
BLACK
6
CONTINUOUS
10
215.5468029999999828
20
-87.2365969999999891
11
215.5468029999999828
21
-87.4034029999999973
0
LINE
8
BLACK
6
CONTINUOUS
10
215.5468029999999828
20
-87.4034029999999973
11
215.5142609999999763
21
-87.5670029999999997
0
LINE
8
BLACK
6
CONTINUOUS
10
215.5142609999999763
20
-87.5670029999999997
11
215.4504269999999906
21
-87.7211109999999934
0
LINE
8
BLACK
6
CONTINUOUS
10
215.4504269999999906
20
-87.7211109999999934
11
215.3577549999999974
21
-87.8598049999999944
0
LINE
8
BLACK
6
CONTINUOUS
10
215.3577549999999974
20
-87.8598049999999944
11
215.2398049999999898
21
-87.9777550000000019
0
LINE
8
BLACK
6
CONTINUOUS
10
215.2398049999999898
20
-87.9777550000000019
11
215.1011110000000031
21
-88.0704269999999951
0
LINE
8
BLACK
6
CONTINUOUS
10
215.1011110000000031
20
-88.0704269999999951
11
214.9470029999999952
21
-88.1342609999999951
0
LINE
8
BLACK
6
CONTINUOUS
10
214.9470029999999952
20
-88.1342609999999951
11
214.7834029999999927
21
-88.1668030000000016
0
LINE
8
BLACK
6
CONTINUOUS
10
214.7834029999999927
20
-88.1668030000000016
11
214.6165969999999845
21
-88.1668030000000016
0
LINE
8
BLACK
6
CONTINUOUS
10
214.6165969999999845
20
-88.1668030000000016
11
214.4529969999999821
21
-88.1342609999999951
0
LINE
8
BLACK
6
CONTINUOUS
10
214.4529969999999821
20
-88.1342609999999951
11
214.2988890000000026
21
-88.0704269999999951
0
LINE
8
BLACK
6
CONTINUOUS
10
214.2988890000000026
20
-88.0704269999999951
11
214.1601949999999874
21
-87.9777550000000019
0
LINE
8
BLACK
6
CONTINUOUS
10
214.1601949999999874
20
-87.9777550000000019
11
214.0422449999999799
21
-87.8598049999999944
0
LINE
8
BLACK
6
CONTINUOUS
10
214.0422449999999799
20
-87.8598049999999944
11
213.9495729999999867
21
-87.7211109999999934
0
LINE
8
BLACK
6
CONTINUOUS
10
213.9495729999999867
20
-87.7211109999999934
11
213.8857390000000009
21
-87.5670029999999997
0
LINE
8
BLACK
6
CONTINUOUS
10
213.8857390000000009
20
-87.5670029999999997
11
213.8531969999999944
21
-87.4034029999999973
0
LINE
8
BLACK
6
CONTINUOUS
10
213.8531969999999944
20
-87.4034029999999973
11
213.8531969999999944
21
-87.2365969999999891
0
LINE
8
BLACK
6
CONTINUOUS
10
213.8531969999999944
20
-87.2365969999999891
11
213.8857390000000009
21
-87.0729970000000009
0
LINE
8
BLACK
6
CONTINUOUS
10
213.8857390000000009
20
-87.0729970000000009
11
213.9495729999999867
21
-86.918888999999993
0
LINE
8
BLACK
6
CONTINUOUS
10
213.9495729999999867
20
-86.918888999999993
11
214.0422449999999799
21
-86.780194999999992
0
LINE
8
BLACK
6
CONTINUOUS
10
214.0422449999999799
20
-86.780194999999992
11
214.1601949999999874
21
-86.6622449999999986
0
LINE
8
BLACK
6
CONTINUOUS
10
214.1601949999999874
20
-86.6622449999999986
11
214.2988890000000026
21
-86.5695729999999912
0
LINE
8
BLACK
6
CONTINUOUS
10
214.2988890000000026
20
-86.5695729999999912
11
214.4529969999999821
21
-86.5057389999999913
0
LINE
8
BLACK
6
CONTINUOUS
10
214.4529969999999821
20
-86.5057389999999913
11
214.6165969999999845
21
-86.473196999999999
0
LINE
8
BLACK
6
CONTINUOUS
10
214.6165969999999845
20
-86.473196999999999
11
214.7834029999999927
21
-86.473196999999999
0
LINE
8
BLACK
6
CONTINUOUS
10
214.7834029999999927
20
-86.473196999999999
11
214.9470029999999952
21
-86.5057389999999913
0
LINE
8
BLACK
6
CONTINUOUS
10
225.9470029999999952
20
-86.5057389999999913
11
226.1011110000000031
21
-86.5695729999999912
0
LINE
8
BLACK
6
CONTINUOUS
10
226.1011110000000031
20
-86.5695729999999912
11
226.2398049999999898
21
-86.6622449999999986
0
LINE
8
BLACK
6
CONTINUOUS
10
226.2398049999999898
20
-86.6622449999999986
11
226.3577549999999974
21
-86.780194999999992
0
LINE
8
BLACK
6
CONTINUOUS
10
226.3577549999999974
20
-86.780194999999992
11
226.4504269999999906
21
-86.918888999999993
0
LINE
8
BLACK
6
CONTINUOUS
10
226.4504269999999906
20
-86.918888999999993
11
226.5142609999999763
21
-87.0729970000000009
0
LINE
8
BLACK
6
CONTINUOUS
10
226.5142609999999763
20
-87.0729970000000009
11
226.5468029999999828
21
-87.2365969999999891
0
LINE
8
BLACK
6
CONTINUOUS
10
226.5468029999999828
20
-87.2365969999999891
11
226.5468029999999828
21
-87.4034029999999973
0
LINE
8
BLACK
6
CONTINUOUS
10
226.5468029999999828
20
-87.4034029999999973
11
226.5142609999999763
21
-87.5670029999999997
0
LINE
8
BLACK
6
CONTINUOUS
10
226.5142609999999763
20
-87.5670029999999997
11
226.4504269999999906
21
-87.7211109999999934
0
LINE
8
BLACK
6
CONTINUOUS
10
226.4504269999999906
20
-87.7211109999999934
11
226.3577549999999974
21
-87.8598049999999944
0
LINE
8
BLACK
6
CONTINUOUS
10
226.3577549999999974
20
-87.8598049999999944
11
226.2398049999999898
21
-87.9777550000000019
0
LINE
8
BLACK
6
CONTINUOUS
10
226.2398049999999898
20
-87.9777550000000019
11
226.1011110000000031
21
-88.0704269999999951
0
LINE
8
BLACK
6
CONTINUOUS
10
226.1011110000000031
20
-88.0704269999999951
11
225.9470029999999952
21
-88.1342609999999951
0
LINE
8
BLACK
6
CONTINUOUS
10
225.9470029999999952
20
-88.1342609999999951
11
225.7834029999999927
21
-88.1668030000000016
0
LINE
8
BLACK
6
CONTINUOUS
10
225.7834029999999927
20
-88.1668030000000016
11
225.6165969999999845
21
-88.1668030000000016
0
LINE
8
BLACK
6
CONTINUOUS
10
225.6165969999999845
20
-88.1668030000000016
11
225.4529969999999821
21
-88.1342609999999951
0
LINE
8
BLACK
6
CONTINUOUS
10
225.4529969999999821
20
-88.1342609999999951
11
225.2988890000000026
21
-88.0704269999999951
0
LINE
8
BLACK
6
CONTINUOUS
10
225.2988890000000026
20
-88.0704269999999951
11
225.1601949999999874
21
-87.9777550000000019
0
LINE
8
BLACK
6
CONTINUOUS
10
225.1601949999999874
20
-87.9777550000000019
11
225.0422449999999799
21
-87.8598049999999944
0
LINE
8
BLACK
6
CONTINUOUS
10
225.0422449999999799
20
-87.8598049999999944
11
224.9495729999999867
21
-87.7211109999999934
0
LINE
8
BLACK
6
CONTINUOUS
10
224.9495729999999867
20
-87.7211109999999934
11
224.8857390000000009
21
-87.5670029999999997
0
LINE
8
BLACK
6
CONTINUOUS
10
224.8857390000000009
20
-87.5670029999999997
11
224.8531969999999944
21
-87.4034029999999973
0
LINE
8
BLACK
6
CONTINUOUS
10
224.8531969999999944
20
-87.4034029999999973
11
224.8531969999999944
21
-87.2365969999999891
0
LINE
8
BLACK
6
CONTINUOUS
10
224.8531969999999944
20
-87.2365969999999891
11
224.8857390000000009
21
-87.0729970000000009
0
LINE
8
BLACK
6
CONTINUOUS
10
224.8857390000000009
20
-87.0729970000000009
11
224.9495729999999867
21
-86.918888999999993
0
LINE
8
BLACK
6
CONTINUOUS
10
224.9495729999999867
20
-86.918888999999993
11
225.0422449999999799
21
-86.780194999999992
0
LINE
8
BLACK
6
CONTINUOUS
10
225.0422449999999799
20
-86.780194999999992
11
225.1601949999999874
21
-86.6622449999999986
0
LINE
8
BLACK
6
CONTINUOUS
10
225.1601949999999874
20
-86.6622449999999986
11
225.2988890000000026
21
-86.5695729999999912
0
LINE
8
BLACK
6
CONTINUOUS
10
225.2988890000000026
20
-86.5695729999999912
11
225.4529969999999821
21
-86.5057389999999913
0
LINE
8
BLACK
6
CONTINUOUS
10
225.4529969999999821
20
-86.5057389999999913
11
225.6165969999999845
21
-86.473196999999999
0
LINE
8
BLACK
6
CONTINUOUS
10
225.6165969999999845
20
-86.473196999999999
11
225.7834029999999927
21
-86.473196999999999
0
LINE
8
BLACK
6
CONTINUOUS
10
225.7834029999999927
20
-86.473196999999999
11
225.9470029999999952
21
-86.5057389999999913
0
LINE
8
BLACK
6
CONTINUOUS
10
167.8002850000000024
20
-83.6330600000000004
11
167.981396999999987
21
-83.7080789999999979
0
LINE
8
BLACK
6
CONTINUOUS
10
167.981396999999987
20
-83.7080789999999979
11
168.1443929999999796
21
-83.8169899999999899
0
LINE
8
BLACK
6
CONTINUOUS
10
168.1443929999999796
20
-83.8169899999999899
11
168.2830099999999902
21
-83.9556070000000005
0
LINE
8
BLACK
6
CONTINUOUS
10
168.2830099999999902
20
-83.9556070000000005
11
168.3919209999999964
21
-84.1186029999999931
0
LINE
8
BLACK
6
CONTINUOUS
10
168.3919209999999964
20
-84.1186029999999931
11
168.4669399999999939
21
-84.299714999999992
0
LINE
8
BLACK
6
CONTINUOUS
10
168.4669399999999939
20
-84.299714999999992
11
168.5051849999999831
21
-84.4919829999999905
0
LINE
8
BLACK
6
CONTINUOUS
10
168.5051849999999831
20
-84.4919829999999905
11
168.5051849999999831
21
-84.6880170000000021
0
LINE
8
BLACK
6
CONTINUOUS
10
168.5051849999999831
20
-84.6880170000000021
11
168.4669399999999939
21
-84.8802850000000007
0
LINE
8
BLACK
6
CONTINUOUS
10
168.4669399999999939
20
-84.8802850000000007
11
168.3919209999999964
21
-85.0613969999999995
0
LINE
8
BLACK
6
CONTINUOUS
10
168.3919209999999964
20
-85.0613969999999995
11
168.2830099999999902
21
-85.2243929999999921
0
LINE
8
BLACK
6
CONTINUOUS
10
168.2830099999999902
20
-85.2243929999999921
11
168.1443929999999796
21
-85.3630100000000027
0
LINE
8
BLACK
6
CONTINUOUS
10
168.1443929999999796
20
-85.3630100000000027
11
167.981396999999987
21
-85.4719209999999947
0
LINE
8
BLACK
6
CONTINUOUS
10
167.981396999999987
20
-85.4719209999999947
11
167.8002850000000024
21
-85.5469399999999922
0
LINE
8
BLACK
6
CONTINUOUS
10
167.8002850000000024
20
-85.5469399999999922
11
167.6080169999999896
21
-85.5851849999999956
0
LINE
8
BLACK
6
CONTINUOUS
10
167.6080169999999896
20
-85.5851849999999956
11
167.4119829999999922
21
-85.5851849999999956
0
LINE
8
BLACK
6
CONTINUOUS
10
167.4119829999999922
20
-85.5851849999999956
11
167.2197149999999795
21
-85.5469399999999922
0
LINE
8
BLACK
6
CONTINUOUS
10
167.2197149999999795
20
-85.5469399999999922
11
167.0386029999999948
21
-85.4719209999999947
0
LINE
8
BLACK
6
CONTINUOUS
10
167.0386029999999948
20
-85.4719209999999947
11
166.8756070000000022
21
-85.3630100000000027
0
LINE
8
BLACK
6
CONTINUOUS
10
166.8756070000000022
20
-85.3630100000000027
11
166.7369899999999916
21
-85.2243929999999921
0
LINE
8
BLACK
6
CONTINUOUS
10
166.7369899999999916
20
-85.2243929999999921
11
166.6280789999999854
21
-85.0613969999999995
0
LINE
8
BLACK
6
CONTINUOUS
10
166.6280789999999854
20
-85.0613969999999995
11
166.5530599999999879
21
-84.8802850000000007
0
LINE
8
BLACK
6
CONTINUOUS
10
166.5530599999999879
20
-84.8802850000000007
11
166.5148149999999987
21
-84.6880170000000021
0
LINE
8
BLACK
6
CONTINUOUS
10
166.5148149999999987
20
-84.6880170000000021
11
166.5148149999999987
21
-84.4919829999999905
0
LINE
8
BLACK
6
CONTINUOUS
10
166.5148149999999987
20
-84.4919829999999905
11
166.5530599999999879
21
-84.299714999999992
0
LINE
8
BLACK
6
CONTINUOUS
10
166.5530599999999879
20
-84.299714999999992
11
166.6280789999999854
21
-84.1186029999999931
0
LINE
8
BLACK
6
CONTINUOUS
10
166.6280789999999854
20
-84.1186029999999931
11
166.7369899999999916
21
-83.9556070000000005
0
LINE
8
BLACK
6
CONTINUOUS
10
166.7369899999999916
20
-83.9556070000000005
11
166.8756070000000022
21
-83.8169899999999899
0
LINE
8
BLACK
6
CONTINUOUS
10
166.8756070000000022
20
-83.8169899999999899
11
167.0386029999999948
21
-83.7080789999999979
0
LINE
8
BLACK
6
CONTINUOUS
10
167.0386029999999948
20
-83.7080789999999979
11
167.2197149999999795
21
-83.6330600000000004
0
LINE
8
BLACK
6
CONTINUOUS
10
167.2197149999999795
20
-83.6330600000000004
11
167.4119829999999922
21
-83.594814999999997
0
LINE
8
BLACK
6
CONTINUOUS
10
167.4119829999999922
20
-83.594814999999997
11
167.6080169999999896
21
-83.594814999999997
0
LINE
8
BLACK
6
CONTINUOUS
10
167.6080169999999896
20
-83.594814999999997
11
167.8002850000000024
21
-83.6330600000000004
0
LINE
8
BLACK
6
CONTINUOUS
10
206.5501679999999851
20
-82.1114450000000033
11
206.7740249999999946
21
-82.1841809999999953
0
LINE
8
BLACK
6
CONTINUOUS
10
206.7740249999999946
20
-82.1841809999999953
11
206.9837479999999914
21
-82.2910399999999953
0
LINE
8
BLACK
6
CONTINUOUS
10
206.9837479999999914
20
-82.2910399999999953
11
207.1741719999999987
21
-82.4293909999999954
0
LINE
8
BLACK
6
CONTINUOUS
10
207.1741719999999987
20
-82.4293909999999954
11
207.3406090000000006
21
-82.5958279999999974
0
LINE
8
BLACK
6
CONTINUOUS
10
207.3406090000000006
20
-82.5958279999999974
11
207.4789600000000007
21
-82.7862519999999904
0
LINE
8
BLACK
6
CONTINUOUS
10
207.4789600000000007
20
-82.7862519999999904
11
207.5858189999999865
21
-82.9959750000000014
0
LINE
8
BLACK
6
CONTINUOUS
10
207.5858189999999865
20
-82.9959750000000014
11
207.6585549999999785
21
-83.2198319999999967
0
LINE
8
BLACK
6
CONTINUOUS
10
207.6585549999999785
20
-83.2198319999999967
11
207.6953759999999818
21
-83.4523109999999946
0
LINE
8
BLACK
6
CONTINUOUS
10
207.6953759999999818
20
-83.4523109999999946
11
207.6953759999999818
21
-83.6876889999999918
0
LINE
8
BLACK
6
CONTINUOUS
10
207.6953759999999818
20
-83.6876889999999918
11
207.6585549999999785
21
-83.9201679999999897
0
LINE
8
BLACK
6
CONTINUOUS
10
207.6585549999999785
20
-83.9201679999999897
11
207.5858189999999865
21
-84.1440249999999992
0
LINE
8
BLACK
6
CONTINUOUS
10
207.5858189999999865
20
-84.1440249999999992
11
207.4789600000000007
21
-84.353747999999996
0
LINE
8
BLACK
6
CONTINUOUS
10
207.4789600000000007
20
-84.353747999999996
11
207.3406090000000006
21
-84.5441720000000032
0
LINE
8
BLACK
6
CONTINUOUS
10
207.3406090000000006
20
-84.5441720000000032
11
207.1741719999999987
21
-84.7106089999999909
0
LINE
8
BLACK
6
CONTINUOUS
10
207.1741719999999987
20
-84.7106089999999909
11
206.9837479999999914
21
-84.8489599999999911
0
LINE
8
BLACK
6
CONTINUOUS
10
206.9837479999999914
20
-84.8489599999999911
11
206.7740249999999946
21
-84.9558189999999911
0
LINE
8
BLACK
6
CONTINUOUS
10
206.7740249999999946
20
-84.9558189999999911
11
206.5501679999999851
21
-85.0285549999999972
0
LINE
8
BLACK
6
CONTINUOUS
10
206.5501679999999851
20
-85.0285549999999972
11
206.3176890000000014
21
-85.0653760000000005
0
LINE
8
BLACK
6
CONTINUOUS
10
206.3176890000000014
20
-85.0653760000000005
11
206.0823110000000042
21
-85.0653760000000005
0
LINE
8
BLACK
6
CONTINUOUS
10
206.0823110000000042
20
-85.0653760000000005
11
205.8498319999999921
21
-85.0285549999999972
0
LINE
8
BLACK
6
CONTINUOUS
10
205.8498319999999921
20
-85.0285549999999972
11
205.6259749999999826
21
-84.9558189999999911
0
LINE
8
BLACK
6
CONTINUOUS
10
205.6259749999999826
20
-84.9558189999999911
11
205.4162519999999859
21
-84.8489599999999911
0
LINE
8
BLACK
6
CONTINUOUS
10
205.4162519999999859
20
-84.8489599999999911
11
205.2258279999999786
21
-84.7106089999999909
0
LINE
8
BLACK
6
CONTINUOUS
10
205.2258279999999786
20
-84.7106089999999909
11
205.0593909999999767
21
-84.5441720000000032
0
LINE
8
BLACK
6
CONTINUOUS
10
205.0593909999999767
20
-84.5441720000000032
11
204.9210399999999765
21
-84.353747999999996
0
LINE
8
BLACK
6
CONTINUOUS
10
204.9210399999999765
20
-84.353747999999996
11
204.8141809999999907
21
-84.1440249999999992
0
LINE
8
BLACK
6
CONTINUOUS
10
204.8141809999999907
20
-84.1440249999999992
11
204.7414449999999988
21
-83.9201679999999897
0
LINE
8
BLACK
6
CONTINUOUS
10
204.7414449999999988
20
-83.9201679999999897
11
204.7046239999999955
21
-83.6876889999999918
0
LINE
8
BLACK
6
CONTINUOUS
10
204.7046239999999955
20
-83.6876889999999918
11
204.7046239999999955
21
-83.4523109999999946
0
LINE
8
BLACK
6
CONTINUOUS
10
204.7046239999999955
20
-83.4523109999999946
11
204.7414449999999988
21
-83.2198319999999967
0
LINE
8
BLACK
6
CONTINUOUS
10
204.7414449999999988
20
-83.2198319999999967
11
204.8141809999999907
21
-82.9959750000000014
0
LINE
8
BLACK
6
CONTINUOUS
10
204.8141809999999907
20
-82.9959750000000014
11
204.9210399999999765
21
-82.7862519999999904
0
LINE
8
BLACK
6
CONTINUOUS
10
204.9210399999999765
20
-82.7862519999999904
11
205.0593909999999767
21
-82.5958279999999974
0
LINE
8
BLACK
6
CONTINUOUS
10
205.0593909999999767
20
-82.5958279999999974
11
205.2258279999999786
21
-82.4293909999999954
0
LINE
8
BLACK
6
CONTINUOUS
10
205.2258279999999786
20
-82.4293909999999954
11
205.4162519999999859
21
-82.2910399999999953
0
LINE
8
BLACK
6
CONTINUOUS
10
205.4162519999999859
20
-82.2910399999999953
11
205.6259749999999826
21
-82.1841809999999953
0
LINE
8
BLACK
6
CONTINUOUS
10
205.6259749999999826
20
-82.1841809999999953
11
205.8498319999999921
21
-82.1114450000000033
0
LINE
8
BLACK
6
CONTINUOUS
10
205.8498319999999921
20
-82.1114450000000033
11
206.0823110000000042
21
-82.074624
0
LINE
8
BLACK
6
CONTINUOUS
10
206.0823110000000042
20
-82.074624
11
206.3176890000000014
21
-82.074624
0
LINE
8
BLACK
6
CONTINUOUS
10
206.3176890000000014
20
-82.074624
11
206.5501679999999851
21
-82.1114450000000033
0
LINE
8
BLACK
6
CONTINUOUS
10
225.5501679999999851
20
-82.1114450000000033
11
225.7740249999999946
21
-82.1841809999999953
0
LINE
8
BLACK
6
CONTINUOUS
10
225.7740249999999946
20
-82.1841809999999953
11
225.9837479999999914
21
-82.2910399999999953
0
LINE
8
BLACK
6
CONTINUOUS
10
225.9837479999999914
20
-82.2910399999999953
11
226.1741719999999987
21
-82.4293909999999954
0
LINE
8
BLACK
6
CONTINUOUS
10
226.1741719999999987
20
-82.4293909999999954
11
226.3406090000000006
21
-82.5958279999999974
0
LINE
8
BLACK
6
CONTINUOUS
10
226.3406090000000006
20
-82.5958279999999974
11
226.4789600000000007
21
-82.7862519999999904
0
LINE
8
BLACK
6
CONTINUOUS
10
226.4789600000000007
20
-82.7862519999999904
11
226.5858189999999865
21
-82.9959750000000014
0
LINE
8
BLACK
6
CONTINUOUS
10
226.5858189999999865
20
-82.9959750000000014
11
226.6585549999999785
21
-83.2198319999999967
0
LINE
8
BLACK
6
CONTINUOUS
10
226.6585549999999785
20
-83.2198319999999967
11
226.6953759999999818
21
-83.4523109999999946
0
LINE
8
BLACK
6
CONTINUOUS
10
226.6953759999999818
20
-83.4523109999999946
11
226.6953759999999818
21
-83.6876889999999918
0
LINE
8
BLACK
6
CONTINUOUS
10
226.6953759999999818
20
-83.6876889999999918
11
226.6585549999999785
21
-83.9201679999999897
0
LINE
8
BLACK
6
CONTINUOUS
10
226.6585549999999785
20
-83.9201679999999897
11
226.5858189999999865
21
-84.1440249999999992
0
LINE
8
BLACK
6
CONTINUOUS
10
226.5858189999999865
20
-84.1440249999999992
11
226.4789600000000007
21
-84.353747999999996
0
LINE
8
BLACK
6
CONTINUOUS
10
226.4789600000000007
20
-84.353747999999996
11
226.3406090000000006
21
-84.5441720000000032
0
LINE
8
BLACK
6
CONTINUOUS
10
226.3406090000000006
20
-84.5441720000000032
11
226.1741719999999987
21
-84.7106089999999909
0
LINE
8
BLACK
6
CONTINUOUS
10
226.1741719999999987
20
-84.7106089999999909
11
225.9837479999999914
21
-84.8489599999999911
0
LINE
8
BLACK
6
CONTINUOUS
10
225.9837479999999914
20
-84.8489599999999911
11
225.7740249999999946
21
-84.9558189999999911
0
LINE
8
BLACK
6
CONTINUOUS
10
225.7740249999999946
20
-84.9558189999999911
11
225.5501679999999851
21
-85.0285549999999972
0
LINE
8
BLACK
6
CONTINUOUS
10
225.5501679999999851
20
-85.0285549999999972
11
225.3176890000000014
21
-85.0653760000000005
0
LINE
8
BLACK
6
CONTINUOUS
10
225.3176890000000014
20
-85.0653760000000005
11
225.0823109999999758
21
-85.0653760000000005
0
LINE
8
BLACK
6
CONTINUOUS
10
225.0823109999999758
20
-85.0653760000000005
11
224.8498319999999921
21
-85.0285549999999972
0
LINE
8
BLACK
6
CONTINUOUS
10
224.8498319999999921
20
-85.0285549999999972
11
224.6259749999999826
21
-84.9558189999999911
0
LINE
8
BLACK
6
CONTINUOUS
10
224.6259749999999826
20
-84.9558189999999911
11
224.4162519999999859
21
-84.8489599999999911
0
LINE
8
BLACK
6
CONTINUOUS
10
224.4162519999999859
20
-84.8489599999999911
11
224.2258279999999786
21
-84.7106089999999909
0
LINE
8
BLACK
6
CONTINUOUS
10
224.2258279999999786
20
-84.7106089999999909
11
224.0593909999999767
21
-84.5441720000000032
0
LINE
8
BLACK
6
CONTINUOUS
10
224.0593909999999767
20
-84.5441720000000032
11
223.9210399999999765
21
-84.353747999999996
0
LINE
8
BLACK
6
CONTINUOUS
10
223.9210399999999765
20
-84.353747999999996
11
223.8141809999999907
21
-84.1440249999999992
0
LINE
8
BLACK
6
CONTINUOUS
10
223.8141809999999907
20
-84.1440249999999992
11
223.7414449999999988
21
-83.9201679999999897
0
LINE
8
BLACK
6
CONTINUOUS
10
223.7414449999999988
20
-83.9201679999999897
11
223.7046239999999955
21
-83.6876889999999918
0
LINE
8
BLACK
6
CONTINUOUS
10
223.7046239999999955
20
-83.6876889999999918
11
223.7046239999999955
21
-83.4523109999999946
0
LINE
8
BLACK
6
CONTINUOUS
10
223.7046239999999955
20
-83.4523109999999946
11
223.7414449999999988
21
-83.2198319999999967
0
LINE
8
BLACK
6
CONTINUOUS
10
223.7414449999999988
20
-83.2198319999999967
11
223.8141809999999907
21
-82.9959750000000014
0
LINE
8
BLACK
6
CONTINUOUS
10
223.8141809999999907
20
-82.9959750000000014
11
223.9210399999999765
21
-82.7862519999999904
0
LINE
8
BLACK
6
CONTINUOUS
10
223.9210399999999765
20
-82.7862519999999904
11
224.0593909999999767
21
-82.5958279999999974
0
LINE
8
BLACK
6
CONTINUOUS
10
224.0593909999999767
20
-82.5958279999999974
11
224.2258279999999786
21
-82.4293909999999954
0
LINE
8
BLACK
6
CONTINUOUS
10
224.2258279999999786
20
-82.4293909999999954
11
224.4162519999999859
21
-82.2910399999999953
0
LINE
8
BLACK
6
CONTINUOUS
10
224.4162519999999859
20
-82.2910399999999953
11
224.6259749999999826
21
-82.1841809999999953
0
LINE
8
BLACK
6
CONTINUOUS
10
224.6259749999999826
20
-82.1841809999999953
11
224.8498319999999921
21
-82.1114450000000033
0
LINE
8
BLACK
6
CONTINUOUS
10
224.8498319999999921
20
-82.1114450000000033
11
225.0823109999999758
21
-82.074624
0
LINE
8
BLACK
6
CONTINUOUS
10
225.0823109999999758
20
-82.074624
11
225.3176890000000014
21
-82.074624
0
LINE
8
BLACK
6
CONTINUOUS
10
225.3176890000000014
20
-82.074624
11
225.5501679999999851
21
-82.1114450000000033
0
LINE
8
BLACK
6
CONTINUOUS
10
170.290284999999983
20
-82.3730599999999953
11
170.4713969999999961
21
-82.4480789999999928
0
LINE
8
BLACK
6
CONTINUOUS
10
170.4713969999999961
20
-82.4480789999999928
11
170.6343929999999887
21
-82.556989999999999
0
LINE
8
BLACK
6
CONTINUOUS
10
170.6343929999999887
20
-82.556989999999999
11
170.7730099999999993
21
-82.6956069999999954
0
LINE
8
BLACK
6
CONTINUOUS
10
170.7730099999999993
20
-82.6956069999999954
11
170.8819210000000055
21
-82.8586030000000022
0
LINE
8
BLACK
6
CONTINUOUS
10
170.8819210000000055
20
-82.8586030000000022
11
170.956940000000003
21
-83.0397150000000011
0
LINE
8
BLACK
6
CONTINUOUS
10
170.956940000000003
20
-83.0397150000000011
11
170.9951849999999922
21
-83.2319829999999996
0
LINE
8
BLACK
6
CONTINUOUS
10
170.9951849999999922
20
-83.2319829999999996
11
170.9951849999999922
21
-83.428016999999997
0
LINE
8
BLACK
6
CONTINUOUS
10
170.9951849999999922
20
-83.428016999999997
11
170.956940000000003
21
-83.6202849999999955
0
LINE
8
BLACK
6
CONTINUOUS
10
170.956940000000003
20
-83.6202849999999955
11
170.8819210000000055
21
-83.8013969999999944
0
LINE
8
BLACK
6
CONTINUOUS
10
170.8819210000000055
20
-83.8013969999999944
11
170.7730099999999993
21
-83.9643930000000012
0
LINE
8
BLACK
6
CONTINUOUS
10
170.7730099999999993
20
-83.9643930000000012
11
170.6343929999999887
21
-84.1030099999999976
0
LINE
8
BLACK
6
CONTINUOUS
10
170.6343929999999887
20
-84.1030099999999976
11
170.4713969999999961
21
-84.2119209999999896
0
LINE
8
BLACK
6
CONTINUOUS
10
170.4713969999999961
20
-84.2119209999999896
11
170.290284999999983
21
-84.2869400000000013
0
LINE
8
BLACK
6
CONTINUOUS
10
170.290284999999983
20
-84.2869400000000013
11
170.0980169999999987
21
-84.3251849999999905
0
LINE
8
BLACK
6
CONTINUOUS
10
170.0980169999999987
20
-84.3251849999999905
11
169.9019830000000013
21
-84.3251849999999905
0
LINE
8
BLACK
6
CONTINUOUS
10
169.9019830000000013
20
-84.3251849999999905
11
169.7097149999999885
21
-84.2869400000000013
0
LINE
8
BLACK
6
CONTINUOUS
10
169.7097149999999885
20
-84.2869400000000013
11
169.5286030000000039
21
-84.2119209999999896
0
LINE
8
BLACK
6
CONTINUOUS
10
169.5286030000000039
20
-84.2119209999999896
11
169.3656069999999829
21
-84.1030099999999976
0
LINE
8
BLACK
6
CONTINUOUS
10
169.3656069999999829
20
-84.1030099999999976
11
169.2269900000000007
21
-83.9643930000000012
0
LINE
8
BLACK
6
CONTINUOUS
10
169.2269900000000007
20
-83.9643930000000012
11
169.1180789999999945
21
-83.8013969999999944
0
LINE
8
BLACK
6
CONTINUOUS
10
169.1180789999999945
20
-83.8013969999999944
11
169.043059999999997
21
-83.6202849999999955
0
LINE
8
BLACK
6
CONTINUOUS
10
169.043059999999997
20
-83.6202849999999955
11
169.0048149999999794
21
-83.428016999999997
0
LINE
8
BLACK
6
CONTINUOUS
10
169.0048149999999794
20
-83.428016999999997
11
169.0048149999999794
21
-83.2319829999999996
0
LINE
8
BLACK
6
CONTINUOUS
10
169.0048149999999794
20
-83.2319829999999996
11
169.043059999999997
21
-83.0397150000000011
0
LINE
8
BLACK
6
CONTINUOUS
10
169.043059999999997
20
-83.0397150000000011
11
169.1180789999999945
21
-82.8586030000000022
0
LINE
8
BLACK
6
CONTINUOUS
10
169.1180789999999945
20
-82.8586030000000022
11
169.2269900000000007
21
-82.6956069999999954
0
LINE
8
BLACK
6
CONTINUOUS
10
169.2269900000000007
20
-82.6956069999999954
11
169.3656069999999829
21
-82.556989999999999
0
LINE
8
BLACK
6
CONTINUOUS
10
169.3656069999999829
20
-82.556989999999999
11
169.5286030000000039
21
-82.4480789999999928
0
LINE
8
BLACK
6
CONTINUOUS
10
169.5286030000000039
20
-82.4480789999999928
11
169.7097149999999885
21
-82.3730599999999953
0
LINE
8
BLACK
6
CONTINUOUS
10
169.7097149999999885
20
-82.3730599999999953
11
169.9019830000000013
21
-82.3348149999999919
0
LINE
8
BLACK
6
CONTINUOUS
10
169.9019830000000013
20
-82.3348149999999919
11
170.0980169999999987
21
-82.3348149999999919
0
LINE
8
BLACK
6
CONTINUOUS
10
170.0980169999999987
20
-82.3348149999999919
11
170.290284999999983
21
-82.3730599999999953
0
LINE
8
BLACK
6
CONTINUOUS
10
201.5501679999999851
20
-79.9114450000000005
11
201.7740249999999946
21
-79.9841809999999924
0
LINE
8
BLACK
6
CONTINUOUS
10
201.7740249999999946
20
-79.9841809999999924
11
201.9837479999999914
21
-80.0910399999999925
0
LINE
8
BLACK
6
CONTINUOUS
10
201.9837479999999914
20
-80.0910399999999925
11
202.1741719999999987
21
-80.2293909999999926
0
LINE
8
BLACK
6
CONTINUOUS
10
202.1741719999999987
20
-80.2293909999999926
11
202.3406090000000006
21
-80.3958279999999945
0
LINE
8
BLACK
6
CONTINUOUS
10
202.3406090000000006
20
-80.3958279999999945
11
202.4789600000000007
21
-80.5862520000000018
0
LINE
8
BLACK
6
CONTINUOUS
10
202.4789600000000007
20
-80.5862520000000018
11
202.5858189999999865
21
-80.7959749999999985
0
LINE
8
BLACK
6
CONTINUOUS
10
202.5858189999999865
20
-80.7959749999999985
11
202.6585549999999785
21
-81.0198319999999939
0
LINE
8
BLACK
6
CONTINUOUS
10
202.6585549999999785
20
-81.0198319999999939
11
202.6953759999999818
21
-81.2523109999999917
0
LINE
8
BLACK
6
CONTINUOUS
10
202.6953759999999818
20
-81.2523109999999917
11
202.6953759999999818
21
-81.4876890000000031
0
LINE
8
BLACK
6
CONTINUOUS
10
202.6953759999999818
20
-81.4876890000000031
11
202.6585549999999785
21
-81.720168000000001
0
LINE
8
BLACK
6
CONTINUOUS
10
202.6585549999999785
20
-81.720168000000001
11
202.5858189999999865
21
-81.9440249999999963
0
LINE
8
BLACK
6
CONTINUOUS
10
202.5858189999999865
20
-81.9440249999999963
11
202.4789600000000007
21
-82.1537479999999931
0
LINE
8
BLACK
6
CONTINUOUS
10
202.4789600000000007
20
-82.1537479999999931
11
202.3406090000000006
21
-82.3441720000000004
0
LINE
8
BLACK
6
CONTINUOUS
10
202.3406090000000006
20
-82.3441720000000004
11
202.1741719999999987
21
-82.5106090000000023
0
LINE
8
BLACK
6
CONTINUOUS
10
202.1741719999999987
20
-82.5106090000000023
11
201.9837479999999914
21
-82.6489600000000024
0
LINE
8
BLACK
6
CONTINUOUS
10
201.9837479999999914
20
-82.6489600000000024
11
201.7740249999999946
21
-82.7558190000000025
0
LINE
8
BLACK
6
CONTINUOUS
10
201.7740249999999946
20
-82.7558190000000025
11
201.5501679999999851
21
-82.8285549999999944
0
LINE
8
BLACK
6
CONTINUOUS
10
201.5501679999999851
20
-82.8285549999999944
11
201.3176890000000014
21
-82.8653759999999977
0
LINE
8
BLACK
6
CONTINUOUS
10
201.3176890000000014
20
-82.8653759999999977
11
201.0823110000000042
21
-82.8653759999999977
0
LINE
8
BLACK
6
CONTINUOUS
10
201.0823110000000042
20
-82.8653759999999977
11
200.8498319999999921
21
-82.8285549999999944
0
LINE
8
BLACK
6
CONTINUOUS
10
200.8498319999999921
20
-82.8285549999999944
11
200.6259749999999826
21
-82.7558190000000025
0
LINE
8
BLACK
6
CONTINUOUS
10
200.6259749999999826
20
-82.7558190000000025
11
200.4162519999999859
21
-82.6489600000000024
0
LINE
8
BLACK
6
CONTINUOUS
10
200.4162519999999859
20
-82.6489600000000024
11
200.2258279999999786
21
-82.5106090000000023
0
LINE
8
BLACK
6
CONTINUOUS
10
200.2258279999999786
20
-82.5106090000000023
11
200.0593910000000051
21
-82.3441720000000004
0
LINE
8
BLACK
6
CONTINUOUS
10
200.0593910000000051
20
-82.3441720000000004
11
199.921040000000005
21
-82.1537479999999931
0
LINE
8
BLACK
6
CONTINUOUS
10
199.921040000000005
20
-82.1537479999999931
11
199.8141809999999907
21
-81.9440249999999963
0
LINE
8
BLACK
6
CONTINUOUS
10
199.8141809999999907
20
-81.9440249999999963
11
199.7414449999999988
21
-81.720168000000001
0
LINE
8
BLACK
6
CONTINUOUS
10
199.7414449999999988
20
-81.720168000000001
11
199.7046239999999955
21
-81.4876890000000031
0
LINE
8
BLACK
6
CONTINUOUS
10
199.7046239999999955
20
-81.4876890000000031
11
199.7046239999999955
21
-81.2523109999999917
0
LINE
8
BLACK
6
CONTINUOUS
10
199.7046239999999955
20
-81.2523109999999917
11
199.7414449999999988
21
-81.0198319999999939
0
LINE
8
BLACK
6
CONTINUOUS
10
199.7414449999999988
20
-81.0198319999999939
11
199.8141809999999907
21
-80.7959749999999985
0
LINE
8
BLACK
6
CONTINUOUS
10
199.8141809999999907
20
-80.7959749999999985
11
199.921040000000005
21
-80.5862520000000018
0
LINE
8
BLACK
6
CONTINUOUS
10
199.921040000000005
20
-80.5862520000000018
11
200.0593910000000051
21
-80.3958279999999945
0
LINE
8
BLACK
6
CONTINUOUS
10
200.0593910000000051
20
-80.3958279999999945
11
200.2258279999999786
21
-80.2293909999999926
0
LINE
8
BLACK
6
CONTINUOUS
10
200.2258279999999786
20
-80.2293909999999926
11
200.4162519999999859
21
-80.0910399999999925
0
LINE
8
BLACK
6
CONTINUOUS
10
200.4162519999999859
20
-80.0910399999999925
11
200.6259749999999826
21
-79.9841809999999924
0
LINE
8
BLACK
6
CONTINUOUS
10
200.6259749999999826
20
-79.9841809999999924
11
200.8498319999999921
21
-79.9114450000000005
0
LINE
8
BLACK
6
CONTINUOUS
10
200.8498319999999921
20
-79.9114450000000005
11
201.0823110000000042
21
-79.8746239999999972
0
LINE
8
BLACK
6
CONTINUOUS
10
201.0823110000000042
20
-79.8746239999999972
11
201.3176890000000014
21
-79.8746239999999972
0
LINE
8
BLACK
6
CONTINUOUS
10
201.3176890000000014
20
-79.8746239999999972
11
201.5501679999999851
21
-79.9114450000000005
0
LINE
8
BLACK
6
CONTINUOUS
10
220.5501679999999851
20
-79.9114450000000005
11
220.7740249999999946
21
-79.9841809999999924
0
LINE
8
BLACK
6
CONTINUOUS
10
220.7740249999999946
20
-79.9841809999999924
11
220.9837479999999914
21
-80.0910399999999925
0
LINE
8
BLACK
6
CONTINUOUS
10
220.9837479999999914
20
-80.0910399999999925
11
221.1741719999999987
21
-80.2293909999999926
0
LINE
8
BLACK
6
CONTINUOUS
10
221.1741719999999987
20
-80.2293909999999926
11
221.3406090000000006
21
-80.3958279999999945
0
LINE
8
BLACK
6
CONTINUOUS
10
221.3406090000000006
20
-80.3958279999999945
11
221.4789600000000007
21
-80.5862520000000018
0
LINE
8
BLACK
6
CONTINUOUS
10
221.4789600000000007
20
-80.5862520000000018
11
221.5858189999999865
21
-80.7959749999999985
0
LINE
8
BLACK
6
CONTINUOUS
10
221.5858189999999865
20
-80.7959749999999985
11
221.6585549999999785
21
-81.0198319999999939
0
LINE
8
BLACK
6
CONTINUOUS
10
221.6585549999999785
20
-81.0198319999999939
11
221.6953759999999818
21
-81.2523109999999917
0
LINE
8
BLACK
6
CONTINUOUS
10
221.6953759999999818
20
-81.2523109999999917
11
221.6953759999999818
21
-81.4876890000000031
0
LINE
8
BLACK
6
CONTINUOUS
10
221.6953759999999818
20
-81.4876890000000031
11
221.6585549999999785
21
-81.720168000000001
0
LINE
8
BLACK
6
CONTINUOUS
10
221.6585549999999785
20
-81.720168000000001
11
221.5858189999999865
21
-81.9440249999999963
0
LINE
8
BLACK
6
CONTINUOUS
10
221.5858189999999865
20
-81.9440249999999963
11
221.4789600000000007
21
-82.1537479999999931
0
LINE
8
BLACK
6
CONTINUOUS
10
221.4789600000000007
20
-82.1537479999999931
11
221.3406090000000006
21
-82.3441720000000004
0
LINE
8
BLACK
6
CONTINUOUS
10
221.3406090000000006
20
-82.3441720000000004
11
221.1741719999999987
21
-82.5106090000000023
0
LINE
8
BLACK
6
CONTINUOUS
10
221.1741719999999987
20
-82.5106090000000023
11
220.9837479999999914
21
-82.6489600000000024
0
LINE
8
BLACK
6
CONTINUOUS
10
220.9837479999999914
20
-82.6489600000000024
11
220.7740249999999946
21
-82.7558190000000025
0
LINE
8
BLACK
6
CONTINUOUS
10
220.7740249999999946
20
-82.7558190000000025
11
220.5501679999999851
21
-82.8285549999999944
0
LINE
8
BLACK
6
CONTINUOUS
10
220.5501679999999851
20
-82.8285549999999944
11
220.3176890000000014
21
-82.8653759999999977
0
LINE
8
BLACK
6
CONTINUOUS
10
220.3176890000000014
20
-82.8653759999999977
11
220.0823110000000042
21
-82.8653759999999977
0
LINE
8
BLACK
6
CONTINUOUS
10
220.0823110000000042
20
-82.8653759999999977
11
219.8498319999999921
21
-82.8285549999999944
0
LINE
8
BLACK
6
CONTINUOUS
10
219.8498319999999921
20
-82.8285549999999944
11
219.6259749999999826
21
-82.7558190000000025
0
LINE
8
BLACK
6
CONTINUOUS
10
219.6259749999999826
20
-82.7558190000000025
11
219.4162519999999859
21
-82.6489600000000024
0
LINE
8
BLACK
6
CONTINUOUS
10
219.4162519999999859
20
-82.6489600000000024
11
219.2258279999999786
21
-82.5106090000000023
0
LINE
8
BLACK
6
CONTINUOUS
10
219.2258279999999786
20
-82.5106090000000023
11
219.0593909999999767
21
-82.3441720000000004
0
LINE
8
BLACK
6
CONTINUOUS
10
219.0593909999999767
20
-82.3441720000000004
11
218.9210399999999765
21
-82.1537479999999931
0
LINE
8
BLACK
6
CONTINUOUS
10
218.9210399999999765
20
-82.1537479999999931
11
218.8141809999999907
21
-81.9440249999999963
0
LINE
8
BLACK
6
CONTINUOUS
10
218.8141809999999907
20
-81.9440249999999963
11
218.7414449999999988
21
-81.720168000000001
0
LINE
8
BLACK
6
CONTINUOUS
10
218.7414449999999988
20
-81.720168000000001
11
218.7046239999999955
21
-81.4876890000000031
0
LINE
8
BLACK
6
CONTINUOUS
10
218.7046239999999955
20
-81.4876890000000031
11
218.7046239999999955
21
-81.2523109999999917
0
LINE
8
BLACK
6
CONTINUOUS
10
218.7046239999999955
20
-81.2523109999999917
11
218.7414449999999988
21
-81.0198319999999939
0
LINE
8
BLACK
6
CONTINUOUS
10
218.7414449999999988
20
-81.0198319999999939
11
218.8141809999999907
21
-80.7959749999999985
0
LINE
8
BLACK
6
CONTINUOUS
10
218.8141809999999907
20
-80.7959749999999985
11
218.9210399999999765
21
-80.5862520000000018
0
LINE
8
BLACK
6
CONTINUOUS
10
218.9210399999999765
20
-80.5862520000000018
11
219.0593909999999767
21
-80.3958279999999945
0
LINE
8
BLACK
6
CONTINUOUS
10
219.0593909999999767
20
-80.3958279999999945
11
219.2258279999999786
21
-80.2293909999999926
0
LINE
8
BLACK
6
CONTINUOUS
10
219.2258279999999786
20
-80.2293909999999926
11
219.4162519999999859
21
-80.0910399999999925
0
LINE
8
BLACK
6
CONTINUOUS
10
219.4162519999999859
20
-80.0910399999999925
11
219.6259749999999826
21
-79.9841809999999924
0
LINE
8
BLACK
6
CONTINUOUS
10
219.6259749999999826
20
-79.9841809999999924
11
219.8498319999999921
21
-79.9114450000000005
0
LINE
8
BLACK
6
CONTINUOUS
10
219.8498319999999921
20
-79.9114450000000005
11
220.0823110000000042
21
-79.8746239999999972
0
LINE
8
BLACK
6
CONTINUOUS
10
220.0823110000000042
20
-79.8746239999999972
11
220.3176890000000014
21
-79.8746239999999972
0
LINE
8
BLACK
6
CONTINUOUS
10
220.3176890000000014
20
-79.8746239999999972
11
220.5501679999999851
21
-79.9114450000000005
0
LINE
8
BLACK
6
CONTINUOUS
10
170.3002850000000024
20
-78.7980599999999924
11
170.481396999999987
21
-78.8730789999999899
0
LINE
8
BLACK
6
CONTINUOUS
10
170.481396999999987
20
-78.8730789999999899
11
170.6443929999999796
21
-78.9819899999999961
0
LINE
8
BLACK
6
CONTINUOUS
10
170.6443929999999796
20
-78.9819899999999961
11
170.7830099999999902
21
-79.1206069999999926
0
LINE
8
BLACK
6
CONTINUOUS
10
170.7830099999999902
20
-79.1206069999999926
11
170.8919209999999964
21
-79.2836029999999994
0
LINE
8
BLACK
6
CONTINUOUS
10
170.8919209999999964
20
-79.2836029999999994
11
170.9669399999999939
21
-79.4647149999999982
0
LINE
8
BLACK
6
CONTINUOUS
10
170.9669399999999939
20
-79.4647149999999982
11
171.0051849999999831
21
-79.6569829999999968
0
LINE
8
BLACK
6
CONTINUOUS
10
171.0051849999999831
20
-79.6569829999999968
11
171.0051849999999831
21
-79.8530169999999941
0
LINE
8
BLACK
6
CONTINUOUS
10
171.0051849999999831
20
-79.8530169999999941
11
170.9669399999999939
21
-80.0452849999999927
0
LINE
8
BLACK
6
CONTINUOUS
10
170.9669399999999939
20
-80.0452849999999927
11
170.8919209999999964
21
-80.2263969999999915
0
LINE
8
BLACK
6
CONTINUOUS
10
170.8919209999999964
20
-80.2263969999999915
11
170.7830099999999902
21
-80.3893929999999983
0
LINE
8
BLACK
6
CONTINUOUS
10
170.7830099999999902
20
-80.3893929999999983
11
170.6443929999999796
21
-80.5280099999999948
0
LINE
8
BLACK
6
CONTINUOUS
10
170.6443929999999796
20
-80.5280099999999948
11
170.481396999999987
21
-80.636921000000001
0
LINE
8
BLACK
6
CONTINUOUS
10
170.481396999999987
20
-80.636921000000001
11
170.3002850000000024
21
-80.7119399999999985
0
LINE
8
BLACK
6
CONTINUOUS
10
170.3002850000000024
20
-80.7119399999999985
11
170.1080169999999896
21
-80.7501850000000019
0
LINE
8
BLACK
6
CONTINUOUS
10
170.1080169999999896
20
-80.7501850000000019
11
169.9119829999999922
21
-80.7501850000000019
0
LINE
8
BLACK
6
CONTINUOUS
10
169.9119829999999922
20
-80.7501850000000019
11
169.7197149999999795
21
-80.7119399999999985
0
LINE
8
BLACK
6
CONTINUOUS
10
169.7197149999999795
20
-80.7119399999999985
11
169.5386029999999948
21
-80.636921000000001
0
LINE
8
BLACK
6
CONTINUOUS
10
169.5386029999999948
20
-80.636921000000001
11
169.3756070000000022
21
-80.5280099999999948
0
LINE
8
BLACK
6
CONTINUOUS
10
169.3756070000000022
20
-80.5280099999999948
11
169.2369899999999916
21
-80.3893929999999983
0
LINE
8
BLACK
6
CONTINUOUS
10
169.2369899999999916
20
-80.3893929999999983
11
169.1280789999999854
21
-80.2263969999999915
0
LINE
8
BLACK
6
CONTINUOUS
10
169.1280789999999854
20
-80.2263969999999915
11
169.0530599999999879
21
-80.0452849999999927
0
LINE
8
BLACK
6
CONTINUOUS
10
169.0530599999999879
20
-80.0452849999999927
11
169.0148149999999987
21
-79.8530169999999941
0
LINE
8
BLACK
6
CONTINUOUS
10
169.0148149999999987
20
-79.8530169999999941
11
169.0148149999999987
21
-79.6569829999999968
0
LINE
8
BLACK
6
CONTINUOUS
10
169.0148149999999987
20
-79.6569829999999968
11
169.0530599999999879
21
-79.4647149999999982
0
LINE
8
BLACK
6
CONTINUOUS
10
169.0530599999999879
20
-79.4647149999999982
11
169.1280789999999854
21
-79.2836029999999994
0
LINE
8
BLACK
6
CONTINUOUS
10
169.1280789999999854
20
-79.2836029999999994
11
169.2369899999999916
21
-79.1206069999999926
0
LINE
8
BLACK
6
CONTINUOUS
10
169.2369899999999916
20
-79.1206069999999926
11
169.3756070000000022
21
-78.9819899999999961
0
LINE
8
BLACK
6
CONTINUOUS
10
169.3756070000000022
20
-78.9819899999999961
11
169.5386029999999948
21
-78.8730789999999899
0
LINE
8
BLACK
6
CONTINUOUS
10
169.5386029999999948
20
-78.8730789999999899
11
169.7197149999999795
21
-78.7980599999999924
0
LINE
8
BLACK
6
CONTINUOUS
10
169.7197149999999795
20
-78.7980599999999924
11
169.9119829999999922
21
-78.7598150000000032
0
LINE
8
BLACK
6
CONTINUOUS
10
169.9119829999999922
20
-78.7598150000000032
11
170.1080169999999896
21
-78.7598150000000032
0
LINE
8
BLACK
6
CONTINUOUS
10
170.1080169999999896
20
-78.7598150000000032
11
170.3002850000000024
21
-78.7980599999999924
0
LINE
8
BLACK
6
CONTINUOUS
10
167.8102849999999933
20
-77.5480599999999924
11
167.9913970000000063
21
-77.6230789999999899
0
LINE
8
BLACK
6
CONTINUOUS
10
167.9913970000000063
20
-77.6230789999999899
11
168.1543929999999989
21
-77.7319899999999961
0
LINE
8
BLACK
6
CONTINUOUS
10
168.1543929999999989
20
-77.7319899999999961
11
168.2930099999999811
21
-77.8706069999999926
0
LINE
8
BLACK
6
CONTINUOUS
10
168.2930099999999811
20
-77.8706069999999926
11
168.4019209999999873
21
-78.0336029999999994
0
LINE
8
BLACK
6
CONTINUOUS
10
168.4019209999999873
20
-78.0336029999999994
11
168.4769399999999848
21
-78.2147149999999982
0
LINE
8
BLACK
6
CONTINUOUS
10
168.4769399999999848
20
-78.2147149999999982
11
168.5151850000000024
21
-78.4069829999999968
0
LINE
8
BLACK
6
CONTINUOUS
10
168.5151850000000024
20
-78.4069829999999968
11
168.5151850000000024
21
-78.6030169999999941
0
LINE
8
BLACK
6
CONTINUOUS
10
168.5151850000000024
20
-78.6030169999999941
11
168.4769399999999848
21
-78.7952849999999927
0
LINE
8
BLACK
6
CONTINUOUS
10
168.4769399999999848
20
-78.7952849999999927
11
168.4019209999999873
21
-78.9763969999999915
0
LINE
8
BLACK
6
CONTINUOUS
10
168.4019209999999873
20
-78.9763969999999915
11
168.2930099999999811
21
-79.1393929999999983
0
LINE
8
BLACK
6
CONTINUOUS
10
168.2930099999999811
20
-79.1393929999999983
11
168.1543929999999989
21
-79.2780099999999948
0
LINE
8
BLACK
6
CONTINUOUS
10
168.1543929999999989
20
-79.2780099999999948
11
167.9913970000000063
21
-79.386921000000001
0
LINE
8
BLACK
6
CONTINUOUS
10
167.9913970000000063
20
-79.386921000000001
11
167.8102849999999933
21
-79.4619399999999985
0
LINE
8
BLACK
6
CONTINUOUS
10
167.8102849999999933
20
-79.4619399999999985
11
167.6180169999999805
21
-79.5001850000000019
0
LINE
8
BLACK
6
CONTINUOUS
10
167.6180169999999805
20
-79.5001850000000019
11
167.4219829999999831
21
-79.5001850000000019
0
LINE
8
BLACK
6
CONTINUOUS
10
167.4219829999999831
20
-79.5001850000000019
11
167.2297149999999988
21
-79.4619399999999985
0
LINE
8
BLACK
6
CONTINUOUS
10
167.2297149999999988
20
-79.4619399999999985
11
167.0486029999999857
21
-79.386921000000001
0
LINE
8
BLACK
6
CONTINUOUS
10
167.0486029999999857
20
-79.386921000000001
11
166.8856069999999931
21
-79.2780099999999948
0
LINE
8
BLACK
6
CONTINUOUS
10
166.8856069999999931
20
-79.2780099999999948
11
166.7469899999999825
21
-79.1393929999999983
0
LINE
8
BLACK
6
CONTINUOUS
10
166.7469899999999825
20
-79.1393929999999983
11
166.6380790000000047
21
-78.9763969999999915
0
LINE
8
BLACK
6
CONTINUOUS
10
166.6380790000000047
20
-78.9763969999999915
11
166.5630599999999788
21
-78.7952849999999927
0
LINE
8
BLACK
6
CONTINUOUS
10
166.5630599999999788
20
-78.7952849999999927
11
166.5248149999999896
21
-78.6030169999999941
0
LINE
8
BLACK
6
CONTINUOUS
10
166.5248149999999896
20
-78.6030169999999941
11
166.5248149999999896
21
-78.4069829999999968
0
LINE
8
BLACK
6
CONTINUOUS
10
166.5248149999999896
20
-78.4069829999999968
11
166.5630599999999788
21
-78.2147149999999982
0
LINE
8
BLACK
6
CONTINUOUS
10
166.5630599999999788
20
-78.2147149999999982
11
166.6380790000000047
21
-78.0336029999999994
0
LINE
8
BLACK
6
CONTINUOUS
10
166.6380790000000047
20
-78.0336029999999994
11
166.7469899999999825
21
-77.8706069999999926
0
LINE
8
BLACK
6
CONTINUOUS
10
166.7469899999999825
20
-77.8706069999999926
11
166.8856069999999931
21
-77.7319899999999961
0
LINE
8
BLACK
6
CONTINUOUS
10
166.8856069999999931
20
-77.7319899999999961
11
167.0486029999999857
21
-77.6230789999999899
0
LINE
8
BLACK
6
CONTINUOUS
10
167.0486029999999857
20
-77.6230789999999899
11
167.2297149999999988
21
-77.5480599999999924
0
LINE
8
BLACK
6
CONTINUOUS
10
167.2297149999999988
20
-77.5480599999999924
11
167.4219829999999831
21
-77.5098150000000032
0
LINE
8
BLACK
6
CONTINUOUS
10
167.4219829999999831
20
-77.5098150000000032
11
167.6180169999999805
21
-77.5098150000000032
0
LINE
8
BLACK
6
CONTINUOUS
10
167.6180169999999805
20
-77.5098150000000032
11
167.8102849999999933
21
-77.5480599999999924
0
LINE
8
BLACK
6
CONTINUOUS
10
167.8102849999999933
20
-73.0480599999999924
11
167.9913970000000063
21
-73.1230789999999899
0
LINE
8
BLACK
6
CONTINUOUS
10
167.9913970000000063
20
-73.1230789999999899
11
168.1543929999999989
21
-73.2319899999999961
0
LINE
8
BLACK
6
CONTINUOUS
10
168.1543929999999989
20
-73.2319899999999961
11
168.2930099999999811
21
-73.3706069999999926
0
LINE
8
BLACK
6
CONTINUOUS
10
168.2930099999999811
20
-73.3706069999999926
11
168.4019209999999873
21
-73.5336029999999994
0
LINE
8
BLACK
6
CONTINUOUS
10
168.4019209999999873
20
-73.5336029999999994
11
168.4769399999999848
21
-73.7147149999999982
0
LINE
8
BLACK
6
CONTINUOUS
10
168.4769399999999848
20
-73.7147149999999982
11
168.5151850000000024
21
-73.9069829999999968
0
LINE
8
BLACK
6
CONTINUOUS
10
168.5151850000000024
20
-73.9069829999999968
11
168.5151850000000024
21
-74.1030169999999941
0
LINE
8
BLACK
6
CONTINUOUS
10
168.5151850000000024
20
-74.1030169999999941
11
168.4769399999999848
21
-74.2952849999999927
0
LINE
8
BLACK
6
CONTINUOUS
10
168.4769399999999848
20
-74.2952849999999927
11
168.4019209999999873
21
-74.4763969999999915
0
LINE
8
BLACK
6
CONTINUOUS
10
168.4019209999999873
20
-74.4763969999999915
11
168.2930099999999811
21
-74.6393929999999983
0
LINE
8
BLACK
6
CONTINUOUS
10
168.2930099999999811
20
-74.6393929999999983
11
168.1543929999999989
21
-74.7780099999999948
0
LINE
8
BLACK
6
CONTINUOUS
10
168.1543929999999989
20
-74.7780099999999948
11
167.9913970000000063
21
-74.886921000000001
0
LINE
8
BLACK
6
CONTINUOUS
10
167.9913970000000063
20
-74.886921000000001
11
167.8102849999999933
21
-74.9619399999999985
0
LINE
8
BLACK
6
CONTINUOUS
10
167.8102849999999933
20
-74.9619399999999985
11
167.6180169999999805
21
-75.0001850000000019
0
LINE
8
BLACK
6
CONTINUOUS
10
167.6180169999999805
20
-75.0001850000000019
11
167.4219829999999831
21
-75.0001850000000019
0
LINE
8
BLACK
6
CONTINUOUS
10
167.4219829999999831
20
-75.0001850000000019
11
167.2297149999999988
21
-74.9619399999999985
0
LINE
8
BLACK
6
CONTINUOUS
10
167.2297149999999988
20
-74.9619399999999985
11
167.0486029999999857
21
-74.886921000000001
0
LINE
8
BLACK
6
CONTINUOUS
10
167.0486029999999857
20
-74.886921000000001
11
166.8856069999999931
21
-74.7780099999999948
0
LINE
8
BLACK
6
CONTINUOUS
10
166.8856069999999931
20
-74.7780099999999948
11
166.7469899999999825
21
-74.6393929999999983
0
LINE
8
BLACK
6
CONTINUOUS
10
166.7469899999999825
20
-74.6393929999999983
11
166.6380790000000047
21
-74.4763969999999915
0
LINE
8
BLACK
6
CONTINUOUS
10
166.6380790000000047
20
-74.4763969999999915
11
166.5630599999999788
21
-74.2952849999999927
0
LINE
8
BLACK
6
CONTINUOUS
10
166.5630599999999788
20
-74.2952849999999927
11
166.5248149999999896
21
-74.1030169999999941
0
LINE
8
BLACK
6
CONTINUOUS
10
166.5248149999999896
20
-74.1030169999999941
11
166.5248149999999896
21
-73.9069829999999968
0
LINE
8
BLACK
6
CONTINUOUS
10
166.5248149999999896
20
-73.9069829999999968
11
166.5630599999999788
21
-73.7147149999999982
0
LINE
8
BLACK
6
CONTINUOUS
10
166.5630599999999788
20
-73.7147149999999982
11
166.6380790000000047
21
-73.5336029999999994
0
LINE
8
BLACK
6
CONTINUOUS
10
166.6380790000000047
20
-73.5336029999999994
11
166.7469899999999825
21
-73.3706069999999926
0
LINE
8
BLACK
6
CONTINUOUS
10
166.7469899999999825
20
-73.3706069999999926
11
166.8856069999999931
21
-73.2319899999999961
0
LINE
8
BLACK
6
CONTINUOUS
10
166.8856069999999931
20
-73.2319899999999961
11
167.0486029999999857
21
-73.1230789999999899
0
LINE
8
BLACK
6
CONTINUOUS
10
167.0486029999999857
20
-73.1230789999999899
11
167.2297149999999988
21
-73.0480599999999924
0
LINE
8
BLACK
6
CONTINUOUS
10
167.2297149999999988
20
-73.0480599999999924
11
167.4219829999999831
21
-73.0098150000000032
0
LINE
8
BLACK
6
CONTINUOUS
10
167.4219829999999831
20
-73.0098150000000032
11
167.6180169999999805
21
-73.0098150000000032
0
LINE
8
BLACK
6
CONTINUOUS
10
167.6180169999999805
20
-73.0098150000000032
11
167.8102849999999933
21
-73.0480599999999924
0
LINE
8
BLACK
6
CONTINUOUS
10
170.3002850000000024
20
-71.7880600000000015
11
170.481396999999987
21
-71.863078999999999
0
LINE
8
BLACK
6
CONTINUOUS
10
170.481396999999987
20
-71.863078999999999
11
170.6443929999999796
21
-71.971989999999991
0
LINE
8
BLACK
6
CONTINUOUS
10
170.6443929999999796
20
-71.971989999999991
11
170.7830099999999902
21
-72.1106070000000017
0
LINE
8
BLACK
6
CONTINUOUS
10
170.7830099999999902
20
-72.1106070000000017
11
170.8919209999999964
21
-72.2736029999999943
0
LINE
8
BLACK
6
CONTINUOUS
10
170.8919209999999964
20
-72.2736029999999943
11
170.9669399999999939
21
-72.4547149999999931
0
LINE
8
BLACK
6
CONTINUOUS
10
170.9669399999999939
20
-72.4547149999999931
11
171.0051849999999831
21
-72.6469829999999916
0
LINE
8
BLACK
6
CONTINUOUS
10
171.0051849999999831
20
-72.6469829999999916
11
171.0051849999999831
21
-72.8430170000000032
0
LINE
8
BLACK
6
CONTINUOUS
10
171.0051849999999831
20
-72.8430170000000032
11
170.9669399999999939
21
-73.0352850000000018
0
LINE
8
BLACK
6
CONTINUOUS
10
170.9669399999999939
20
-73.0352850000000018
11
170.8919209999999964
21
-73.2163970000000006
0
LINE
8
BLACK
6
CONTINUOUS
10
170.8919209999999964
20
-73.2163970000000006
11
170.7830099999999902
21
-73.3793929999999932
0
LINE
8
BLACK
6
CONTINUOUS
10
170.7830099999999902
20
-73.3793929999999932
11
170.6443929999999796
21
-73.5180099999999896
0
LINE
8
BLACK
6
CONTINUOUS
10
170.6443929999999796
20
-73.5180099999999896
11
170.481396999999987
21
-73.6269209999999958
0
LINE
8
BLACK
6
CONTINUOUS
10
170.481396999999987
20
-73.6269209999999958
11
170.3002850000000024
21
-73.7019399999999933
0
LINE
8
BLACK
6
CONTINUOUS
10
170.3002850000000024
20
-73.7019399999999933
11
170.1080169999999896
21
-73.7401849999999968
0
LINE
8
BLACK
6
CONTINUOUS
10
170.1080169999999896
20
-73.7401849999999968
11
169.9119829999999922
21
-73.7401849999999968
0
LINE
8
BLACK
6
CONTINUOUS
10
169.9119829999999922
20
-73.7401849999999968
11
169.7197149999999795
21
-73.7019399999999933
0
LINE
8
BLACK
6
CONTINUOUS
10
169.7197149999999795
20
-73.7019399999999933
11
169.5386029999999948
21
-73.6269209999999958
0
LINE
8
BLACK
6
CONTINUOUS
10
169.5386029999999948
20
-73.6269209999999958
11
169.3756070000000022
21
-73.5180099999999896
0
LINE
8
BLACK
6
CONTINUOUS
10
169.3756070000000022
20
-73.5180099999999896
11
169.2369899999999916
21
-73.3793929999999932
0
LINE
8
BLACK
6
CONTINUOUS
10
169.2369899999999916
20
-73.3793929999999932
11
169.1280789999999854
21
-73.2163970000000006
0
LINE
8
BLACK
6
CONTINUOUS
10
169.1280789999999854
20
-73.2163970000000006
11
169.0530599999999879
21
-73.0352850000000018
0
LINE
8
BLACK
6
CONTINUOUS
10
169.0530599999999879
20
-73.0352850000000018
11
169.0148149999999987
21
-72.8430170000000032
0
LINE
8
BLACK
6
CONTINUOUS
10
169.0148149999999987
20
-72.8430170000000032
11
169.0148149999999987
21
-72.6469829999999916
0
LINE
8
BLACK
6
CONTINUOUS
10
169.0148149999999987
20
-72.6469829999999916
11
169.0530599999999879
21
-72.4547149999999931
0
LINE
8
BLACK
6
CONTINUOUS
10
169.0530599999999879
20
-72.4547149999999931
11
169.1280789999999854
21
-72.2736029999999943
0
LINE
8
BLACK
6
CONTINUOUS
10
169.1280789999999854
20
-72.2736029999999943
11
169.2369899999999916
21
-72.1106070000000017
0
LINE
8
BLACK
6
CONTINUOUS
10
169.2369899999999916
20
-72.1106070000000017
11
169.3756070000000022
21
-71.971989999999991
0
LINE
8
BLACK
6
CONTINUOUS
10
169.3756070000000022
20
-71.971989999999991
11
169.5386029999999948
21
-71.863078999999999
0
LINE
8
BLACK
6
CONTINUOUS
10
169.5386029999999948
20
-71.863078999999999
11
169.7197149999999795
21
-71.7880600000000015
0
LINE
8
BLACK
6
CONTINUOUS
10
169.7197149999999795
20
-71.7880600000000015
11
169.9119829999999922
21
-71.7498149999999981
0
LINE
8
BLACK
6
CONTINUOUS
10
169.9119829999999922
20
-71.7498149999999981
11
170.1080169999999896
21
-71.7498149999999981
0
LINE
8
BLACK
6
CONTINUOUS
10
170.1080169999999896
20
-71.7498149999999981
11
170.3002850000000024
21
-71.7880600000000015
  0
ENDSEC
  0
EOF
