  0
SECTION
  2
HEADER
  9
$ANGBASE
  50
0.0
  9
$ANGDIR
  70
1
  9
$MEASUREMENT
  70
1
  0
ENDSEC
  0
SECTION
  2
TABLES
  0
TABLE
  2
LTYPE
  70
4
  0
LTYPE
  5
40F
  2
CONTINUOUS
  70
0
  3
Solid line
  72
65
  73
0
  40
0.0
  0
LTYPE
  5
410
  2
DASHDOT
 70
0
  3
Dash Dot ____ _ ____ _
 72
65
 73
4
 40
2.0
 49
1.25
 49
-0.25
 49
0.25
 49
-0.25
  0
LTYPE
  5
411
  2
DASHED
 70
0
  3
Dashed __ __ __ __ __
 72
65
 73
2
 40
0.75
 49
0.5
 49
-0.25
  0
LTYPE
  5
43B
  2
DOTTED
 70
0
  3
Dotted .  .  .  .
 72
65
 73
2
 40
0.2
 49
0.0
 49
-0.2
  0
ENDTAB
  0
TABLE
  2
STYLE
  70
4
  0
STYLE
  2
KICAD
  70
0
  40
0
  41
1
  42
1
  50
0
  71
0
  3
isocp.shx
  0
STYLE
  2
KICADB
  70
0
  40
0
  41
1
  42
1
  50
0
  71
0
  3
isocp.shx
  0
STYLE
  2
KICADI
  70
0
  40
0
  41
1
  42
1
  50
15
  71
0
  3
isocp.shx
  0
STYLE
  2
KICADBI
  70
0
  40
0
  41
1
  42
1
  50
15
  71
0
  3
isocp.shx
  0
ENDTAB
  0
TABLE
  2
LAYER
  70
1
  0
LAYER
  2
BLACK
  70
0
  62
7
  6
CONTINUOUS
  0
ENDTAB
  0
ENDSEC
  0
SECTION
  2
ENTITIES
0
LINE
8
BLACK
6
CONTINUOUS
10
195.2018219999999928
20
-96.9636819999999915
11
195.4107549999999947
21
-97.0315689999999904
0
LINE
8
BLACK
6
CONTINUOUS
10
195.4107549999999947
20
-97.0315689999999904
11
195.6064959999999928
21
-97.1313040000000001
0
LINE
8
BLACK
6
CONTINUOUS
10
195.6064959999999928
20
-97.1313040000000001
11
195.7842249999999922
21
-97.2604319999999944
0
LINE
8
BLACK
6
CONTINUOUS
10
195.7842249999999922
20
-97.2604319999999944
11
195.939565999999985
21
-97.4157730000000015
0
LINE
8
BLACK
6
CONTINUOUS
10
195.939565999999985
20
-97.4157730000000015
11
196.0686939999999936
21
-97.5935020000000009
0
LINE
8
BLACK
6
CONTINUOUS
10
196.0686939999999936
20
-97.5935020000000009
11
196.1684290000000033
21
-97.789242999999999
0
LINE
8
BLACK
6
CONTINUOUS
10
196.1684290000000033
20
-97.789242999999999
11
196.236315999999988
21
-97.9981760000000008
0
LINE
8
BLACK
6
CONTINUOUS
10
196.236315999999988
20
-97.9981760000000008
11
196.2706819999999936
21
-98.2151569999999907
0
LINE
8
BLACK
6
CONTINUOUS
10
196.2706819999999936
20
-98.2151569999999907
11
196.2706819999999936
21
-98.4348430000000008
0
LINE
8
BLACK
6
CONTINUOUS
10
196.2706819999999936
20
-98.4348430000000008
11
196.236315999999988
21
-98.6518239999999906
0
LINE
8
BLACK
6
CONTINUOUS
10
196.236315999999988
20
-98.6518239999999906
11
196.1684290000000033
21
-98.8607569999999924
0
LINE
8
BLACK
6
CONTINUOUS
10
196.1684290000000033
20
-98.8607569999999924
11
196.0686939999999936
21
-99.0564979999999906
0
LINE
8
BLACK
6
CONTINUOUS
10
196.0686939999999936
20
-99.0564979999999906
11
195.939565999999985
21
-99.23422699999999
0
LINE
8
BLACK
6
CONTINUOUS
10
195.939565999999985
20
-99.23422699999999
11
195.7842249999999922
21
-99.389567999999997
0
LINE
8
BLACK
6
CONTINUOUS
10
195.7842249999999922
20
-99.389567999999997
11
195.6064959999999928
21
-99.5186959999999914
0
LINE
8
BLACK
6
CONTINUOUS
10
195.6064959999999928
20
-99.5186959999999914
11
195.4107549999999947
21
-99.6184310000000011
0
LINE
8
BLACK
6
CONTINUOUS
10
195.4107549999999947
20
-99.6184310000000011
11
195.2018219999999928
21
-99.686318
0
LINE
8
BLACK
6
CONTINUOUS
10
195.2018219999999928
20
-99.686318
11
194.9848409999999888
21
-99.7206839999999914
0
LINE
8
BLACK
6
CONTINUOUS
10
194.9848409999999888
20
-99.7206839999999914
11
194.7651549999999929
21
-99.7206839999999914
0
LINE
8
BLACK
6
CONTINUOUS
10
194.7651549999999929
20
-99.7206839999999914
11
194.5481739999999888
21
-99.686318
0
LINE
8
BLACK
6
CONTINUOUS
10
194.5481739999999888
20
-99.686318
11
194.339240999999987
21
-99.6184310000000011
0
LINE
8
BLACK
6
CONTINUOUS
10
194.339240999999987
20
-99.6184310000000011
11
194.1434999999999889
21
-99.5186959999999914
0
LINE
8
BLACK
6
CONTINUOUS
10
194.1434999999999889
20
-99.5186959999999914
11
193.9657709999999895
21
-99.389567999999997
0
LINE
8
BLACK
6
CONTINUOUS
10
193.9657709999999895
20
-99.389567999999997
11
193.8104299999999967
21
-99.23422699999999
0
LINE
8
BLACK
6
CONTINUOUS
10
193.8104299999999967
20
-99.23422699999999
11
193.6813019999999881
21
-99.0564979999999906
0
LINE
8
BLACK
6
CONTINUOUS
10
193.6813019999999881
20
-99.0564979999999906
11
193.5815669999999784
21
-98.8607569999999924
0
LINE
8
BLACK
6
CONTINUOUS
10
193.5815669999999784
20
-98.8607569999999924
11
193.5136799999999937
21
-98.6518239999999906
0
LINE
8
BLACK
6
CONTINUOUS
10
193.5136799999999937
20
-98.6518239999999906
11
193.479313999999988
21
-98.4348430000000008
0
LINE
8
BLACK
6
CONTINUOUS
10
193.479313999999988
20
-98.4348430000000008
11
193.479313999999988
21
-98.2187529999999924
0
LINE
8
BLACK
6
CONTINUOUS
10
193.479313999999988
20
-98.2187529999999924
11
193.479313999999988
21
-98.2151569999999907
0
LINE
8
BLACK
6
CONTINUOUS
10
193.479313999999988
20
-98.2151569999999907
11
193.5136799999999937
21
-97.9981760000000008
0
LINE
8
BLACK
6
CONTINUOUS
10
193.5136799999999937
20
-97.9981760000000008
11
193.5815669999999784
21
-97.789242999999999
0
LINE
8
BLACK
6
CONTINUOUS
10
193.5815669999999784
20
-97.789242999999999
11
193.6813019999999881
21
-97.5935020000000009
0
LINE
8
BLACK
6
CONTINUOUS
10
193.6813019999999881
20
-97.5935020000000009
11
193.8104299999999967
21
-97.4157730000000015
0
LINE
8
BLACK
6
CONTINUOUS
10
193.8104299999999967
20
-97.4157730000000015
11
193.9657709999999895
21
-97.2604319999999944
0
LINE
8
BLACK
6
CONTINUOUS
10
193.9657709999999895
20
-97.2604319999999944
11
194.1434999999999889
21
-97.1313040000000001
0
LINE
8
BLACK
6
CONTINUOUS
10
194.1434999999999889
20
-97.1313040000000001
11
194.339240999999987
21
-97.0315689999999904
0
LINE
8
BLACK
6
CONTINUOUS
10
194.339240999999987
20
-97.0315689999999904
11
194.5481739999999888
21
-96.9636819999999915
0
LINE
8
BLACK
6
CONTINUOUS
10
194.5481739999999888
20
-96.9636819999999915
11
194.7651549999999929
21
-96.929316
0
LINE
8
BLACK
6
CONTINUOUS
10
194.7651549999999929
20
-96.929316
11
194.9848409999999888
21
-96.929316
0
LINE
8
BLACK
6
CONTINUOUS
10
194.9848409999999888
20
-96.929316
11
195.2018219999999928
21
-96.9636819999999915
0
LINE
8
BLACK
6
CONTINUOUS
10
193.5249979999999823
20
-98.431246999999999
11
193.5582399999999836
21
-98.6411259999999999
0
LINE
8
BLACK
6
CONTINUOUS
10
193.5582399999999836
20
-98.6411259999999999
11
193.6239039999999818
21
-98.8432200000000023
0
LINE
8
BLACK
6
CONTINUOUS
10
193.6239039999999818
20
-98.8432200000000023
11
193.72037499999999
21
-99.0325539999999904
0
LINE
8
BLACK
6
CONTINUOUS
10
193.72037499999999
20
-99.0325539999999904
11
193.8452759999999842
21
-99.2044659999999965
0
LINE
8
BLACK
6
CONTINUOUS
10
193.8452759999999842
20
-99.2044659999999965
11
193.9955319999999972
21
-99.3547219999999953
0
LINE
8
BLACK
6
CONTINUOUS
10
193.9955319999999972
20
-99.3547219999999953
11
194.167443999999989
21
-99.4796229999999895
0
LINE
8
BLACK
6
CONTINUOUS
10
194.167443999999989
20
-99.4796229999999895
11
194.3567779999999914
21
-99.5760939999999977
0
LINE
8
BLACK
6
CONTINUOUS
10
194.3567779999999914
20
-99.5760939999999977
11
194.5588719999999796
21
-99.6417579999999958
0
LINE
8
BLACK
6
CONTINUOUS
10
194.5588719999999796
20
-99.6417579999999958
11
194.7687509999999804
21
-99.6749999999999972
0
LINE
8
BLACK
6
CONTINUOUS
10
194.7687509999999804
20
-99.6749999999999972
11
194.9812450000000013
21
-99.6749999999999972
0
LINE
8
BLACK
6
CONTINUOUS
10
194.9812450000000013
20
-99.6749999999999972
11
195.1911240000000021
21
-99.6417579999999958
0
LINE
8
BLACK
6
CONTINUOUS
10
195.1911240000000021
20
-99.6417579999999958
11
195.3932179999999903
21
-99.5760939999999977
0
LINE
8
BLACK
6
CONTINUOUS
10
195.3932179999999903
20
-99.5760939999999977
11
195.5825519999999926
21
-99.4796229999999895
0
LINE
8
BLACK
6
CONTINUOUS
10
195.5825519999999926
20
-99.4796229999999895
11
195.7544639999999845
21
-99.3547219999999953
0
LINE
8
BLACK
6
CONTINUOUS
10
195.7544639999999845
20
-99.3547219999999953
11
195.9047199999999975
21
-99.2044659999999965
0
LINE
8
BLACK
6
CONTINUOUS
10
195.9047199999999975
20
-99.2044659999999965
11
196.0296209999999917
21
-99.0325539999999904
0
LINE
8
BLACK
6
CONTINUOUS
10
196.0296209999999917
20
-99.0325539999999904
11
196.1260919999999999
21
-98.8432200000000023
0
LINE
8
BLACK
6
CONTINUOUS
10
196.1260919999999999
20
-98.8432200000000023
11
196.191755999999998
21
-98.6411259999999999
0
LINE
8
BLACK
6
CONTINUOUS
10
196.191755999999998
20
-98.6411259999999999
11
196.2249979999999994
21
-98.431246999999999
0
LINE
8
BLACK
6
CONTINUOUS
10
196.2249979999999994
20
-98.431246999999999
11
196.2249979999999994
21
-98.2187529999999924
0
LINE
8
BLACK
6
CONTINUOUS
10
196.2249979999999994
20
-98.2187529999999924
11
196.191755999999998
21
-98.0088739999999916
0
LINE
8
BLACK
6
CONTINUOUS
10
196.191755999999998
20
-98.0088739999999916
11
196.1260919999999999
21
-97.8067799999999892
0
LINE
8
BLACK
6
CONTINUOUS
10
196.1260919999999999
20
-97.8067799999999892
11
196.0296209999999917
21
-97.617446000000001
0
LINE
8
BLACK
6
CONTINUOUS
10
196.0296209999999917
20
-97.617446000000001
11
195.9047199999999975
21
-97.445533999999995
0
LINE
8
BLACK
6
CONTINUOUS
10
195.9047199999999975
20
-97.445533999999995
11
195.7544639999999845
21
-97.2952779999999962
0
LINE
8
BLACK
6
CONTINUOUS
10
195.7544639999999845
20
-97.2952779999999962
11
195.5825519999999926
21
-97.170377000000002
0
LINE
8
BLACK
6
CONTINUOUS
10
195.5825519999999926
20
-97.170377000000002
11
195.3932179999999903
21
-97.0739059999999938
0
LINE
8
BLACK
6
CONTINUOUS
10
195.3932179999999903
20
-97.0739059999999938
11
195.1911240000000021
21
-97.0082419999999956
0
LINE
8
BLACK
6
CONTINUOUS
10
195.1911240000000021
20
-97.0082419999999956
11
194.9812450000000013
21
-96.9749999999999943
0
LINE
8
BLACK
6
CONTINUOUS
10
194.9812450000000013
20
-96.9749999999999943
11
194.7687509999999804
21
-96.9749999999999943
0
LINE
8
BLACK
6
CONTINUOUS
10
194.7687509999999804
20
-96.9749999999999943
11
194.5588719999999796
21
-97.0082419999999956
0
LINE
8
BLACK
6
CONTINUOUS
10
194.5588719999999796
20
-97.0082419999999956
11
194.3567779999999914
21
-97.0739059999999938
0
LINE
8
BLACK
6
CONTINUOUS
10
194.3567779999999914
20
-97.0739059999999938
11
194.167443999999989
21
-97.170377000000002
0
LINE
8
BLACK
6
CONTINUOUS
10
194.167443999999989
20
-97.170377000000002
11
193.9955319999999972
21
-97.2952779999999962
0
LINE
8
BLACK
6
CONTINUOUS
10
193.9955319999999972
20
-97.2952779999999962
11
193.8452759999999842
21
-97.445533999999995
0
LINE
8
BLACK
6
CONTINUOUS
10
193.8452759999999842
20
-97.445533999999995
11
193.72037499999999
21
-97.617446000000001
0
LINE
8
BLACK
6
CONTINUOUS
10
193.72037499999999
20
-97.617446000000001
11
193.6239039999999818
21
-97.8067799999999892
0
LINE
8
BLACK
6
CONTINUOUS
10
193.6239039999999818
20
-97.8067799999999892
11
193.5582399999999836
21
-98.0088739999999916
0
LINE
8
BLACK
6
CONTINUOUS
10
193.5582399999999836
20
-98.0088739999999916
11
193.5249979999999823
21
-98.2187529999999924
0
LINE
8
BLACK
6
CONTINUOUS
10
193.5249979999999823
20
-98.2187529999999924
11
193.5249979999999823
21
-98.431246999999999
0
LINE
8
BLACK
6
CONTINUOUS
10
229.7768239999999764
20
-96.938682
11
229.9857569999999782
21
-97.0065689999999989
0
LINE
8
BLACK
6
CONTINUOUS
10
229.9857569999999782
20
-97.0065689999999989
11
230.1814979999999764
21
-97.1063039999999944
0
LINE
8
BLACK
6
CONTINUOUS
10
230.1814979999999764
20
-97.1063039999999944
11
230.3592269999999758
21
-97.2354319999999888
0
LINE
8
BLACK
6
CONTINUOUS
10
230.3592269999999758
20
-97.2354319999999888
11
230.514567999999997
21
-97.3907729999999958
0
LINE
8
BLACK
6
CONTINUOUS
10
230.514567999999997
20
-97.3907729999999958
11
230.6436959999999772
21
-97.5685019999999952
0
LINE
8
BLACK
6
CONTINUOUS
10
230.6436959999999772
20
-97.5685019999999952
11
230.7434309999999869
21
-97.7642429999999933
0
LINE
8
BLACK
6
CONTINUOUS
10
230.7434309999999869
20
-97.7642429999999933
11
230.811318
21
-97.9731759999999952
0
LINE
8
BLACK
6
CONTINUOUS
10
230.811318
20
-97.9731759999999952
11
230.8456839999999772
21
-98.1901569999999992
0
LINE
8
BLACK
6
CONTINUOUS
10
230.8456839999999772
20
-98.1901569999999992
11
230.8456839999999772
21
-98.4098429999999951
0
LINE
8
BLACK
6
CONTINUOUS
10
230.8456839999999772
20
-98.4098429999999951
11
230.811318
21
-98.6268239999999992
0
LINE
8
BLACK
6
CONTINUOUS
10
230.811318
20
-98.6268239999999992
11
230.7434309999999869
21
-98.835757000000001
0
LINE
8
BLACK
6
CONTINUOUS
10
230.7434309999999869
20
-98.835757000000001
11
230.6436959999999772
21
-99.0314979999999991
0
LINE
8
BLACK
6
CONTINUOUS
10
230.6436959999999772
20
-99.0314979999999991
11
230.514567999999997
21
-99.2092269999999985
0
LINE
8
BLACK
6
CONTINUOUS
10
230.514567999999997
20
-99.2092269999999985
11
230.3592269999999758
21
-99.3645679999999913
0
LINE
8
BLACK
6
CONTINUOUS
10
230.3592269999999758
20
-99.3645679999999913
11
230.1814979999999764
21
-99.4936959999999999
0
LINE
8
BLACK
6
CONTINUOUS
10
230.1814979999999764
20
-99.4936959999999999
11
229.9857569999999782
21
-99.5934309999999954
0
LINE
8
BLACK
6
CONTINUOUS
10
229.9857569999999782
20
-99.5934309999999954
11
229.7768239999999764
21
-99.6613179999999943
0
LINE
8
BLACK
6
CONTINUOUS
10
229.7768239999999764
20
-99.6613179999999943
11
229.5598430000000008
21
-99.695684
0
LINE
8
BLACK
6
CONTINUOUS
10
229.5598430000000008
20
-99.695684
11
229.3401569999999765
21
-99.695684
0
LINE
8
BLACK
6
CONTINUOUS
10
229.3401569999999765
20
-99.695684
11
229.1231760000000008
21
-99.6613179999999943
0
LINE
8
BLACK
6
CONTINUOUS
10
229.1231760000000008
20
-99.6613179999999943
11
228.914242999999999
21
-99.5934309999999954
0
LINE
8
BLACK
6
CONTINUOUS
10
228.914242999999999
20
-99.5934309999999954
11
228.7185020000000009
21
-99.4936959999999999
0
LINE
8
BLACK
6
CONTINUOUS
10
228.7185020000000009
20
-99.4936959999999999
11
228.5407730000000015
21
-99.3645679999999913
0
LINE
8
BLACK
6
CONTINUOUS
10
228.5407730000000015
20
-99.3645679999999913
11
228.3854319999999802
21
-99.2092269999999985
0
LINE
8
BLACK
6
CONTINUOUS
10
228.3854319999999802
20
-99.2092269999999985
11
228.2563040000000001
21
-99.0314979999999991
0
LINE
8
BLACK
6
CONTINUOUS
10
228.2563040000000001
20
-99.0314979999999991
11
228.1565689999999904
21
-98.835757000000001
0
LINE
8
BLACK
6
CONTINUOUS
10
228.1565689999999904
20
-98.835757000000001
11
228.0886819999999773
21
-98.6268239999999992
0
LINE
8
BLACK
6
CONTINUOUS
10
228.0886819999999773
20
-98.6268239999999992
11
228.054316
21
-98.4098429999999951
0
LINE
8
BLACK
6
CONTINUOUS
10
228.054316
20
-98.4098429999999951
11
228.054316
21
-98.193753000000001
0
LINE
8
BLACK
6
CONTINUOUS
10
228.054316
20
-98.193753000000001
11
228.054316
21
-98.1901569999999992
0
LINE
8
BLACK
6
CONTINUOUS
10
228.054316
20
-98.1901569999999992
11
228.0886819999999773
21
-97.9731759999999952
0
LINE
8
BLACK
6
CONTINUOUS
10
228.0886819999999773
20
-97.9731759999999952
11
228.1565689999999904
21
-97.7642429999999933
0
LINE
8
BLACK
6
CONTINUOUS
10
228.1565689999999904
20
-97.7642429999999933
11
228.2563040000000001
21
-97.5685019999999952
0
LINE
8
BLACK
6
CONTINUOUS
10
228.2563040000000001
20
-97.5685019999999952
11
228.3854319999999802
21
-97.3907729999999958
0
LINE
8
BLACK
6
CONTINUOUS
10
228.3854319999999802
20
-97.3907729999999958
11
228.5407730000000015
21
-97.2354319999999888
0
LINE
8
BLACK
6
CONTINUOUS
10
228.5407730000000015
20
-97.2354319999999888
11
228.7185020000000009
21
-97.1063039999999944
0
LINE
8
BLACK
6
CONTINUOUS
10
228.7185020000000009
20
-97.1063039999999944
11
228.914242999999999
21
-97.0065689999999989
0
LINE
8
BLACK
6
CONTINUOUS
10
228.914242999999999
20
-97.0065689999999989
11
229.1231760000000008
21
-96.938682
0
LINE
8
BLACK
6
CONTINUOUS
10
229.1231760000000008
20
-96.938682
11
229.3401569999999765
21
-96.9043159999999943
0
LINE
8
BLACK
6
CONTINUOUS
10
229.3401569999999765
20
-96.9043159999999943
11
229.5598430000000008
21
-96.9043159999999943
0
LINE
8
BLACK
6
CONTINUOUS
10
229.5598430000000008
20
-96.9043159999999943
11
229.7768239999999764
21
-96.938682
0
LINE
8
BLACK
6
CONTINUOUS
10
228.0999999999999943
20
-98.4062469999999934
11
228.1332419999999956
21
-98.6161259999999942
0
LINE
8
BLACK
6
CONTINUOUS
10
228.1332419999999956
20
-98.6161259999999942
11
228.1989059999999938
21
-98.8182199999999966
0
LINE
8
BLACK
6
CONTINUOUS
10
228.1989059999999938
20
-98.8182199999999966
11
228.295377000000002
21
-99.007553999999999
0
LINE
8
BLACK
6
CONTINUOUS
10
228.295377000000002
20
-99.007553999999999
11
228.4202779999999962
21
-99.1794659999999908
0
LINE
8
BLACK
6
CONTINUOUS
10
228.4202779999999962
20
-99.1794659999999908
11
228.5705339999999808
21
-99.3297219999999896
0
LINE
8
BLACK
6
CONTINUOUS
10
228.5705339999999808
20
-99.3297219999999896
11
228.742446000000001
21
-99.454622999999998
0
LINE
8
BLACK
6
CONTINUOUS
10
228.742446000000001
20
-99.454622999999998
11
228.9317800000000034
21
-99.551093999999992
0
LINE
8
BLACK
6
CONTINUOUS
10
228.9317800000000034
20
-99.551093999999992
11
229.1338739999999916
21
-99.6167579999999901
0
LINE
8
BLACK
6
CONTINUOUS
10
229.1338739999999916
20
-99.6167579999999901
11
229.3437529999999924
21
-99.6499999999999915
0
LINE
8
BLACK
6
CONTINUOUS
10
229.3437529999999924
20
-99.6499999999999915
11
229.5562469999999848
21
-99.6499999999999915
0
LINE
8
BLACK
6
CONTINUOUS
10
229.5562469999999848
20
-99.6499999999999915
11
229.7661259999999857
21
-99.6167579999999901
0
LINE
8
BLACK
6
CONTINUOUS
10
229.7661259999999857
20
-99.6167579999999901
11
229.9682200000000023
21
-99.551093999999992
0
LINE
8
BLACK
6
CONTINUOUS
10
229.9682200000000023
20
-99.551093999999992
11
230.1575539999999762
21
-99.454622999999998
0
LINE
8
BLACK
6
CONTINUOUS
10
230.1575539999999762
20
-99.454622999999998
11
230.3294659999999965
21
-99.3297219999999896
0
LINE
8
BLACK
6
CONTINUOUS
10
230.3294659999999965
20
-99.3297219999999896
11
230.4797219999999811
21
-99.1794659999999908
0
LINE
8
BLACK
6
CONTINUOUS
10
230.4797219999999811
20
-99.1794659999999908
11
230.6046230000000037
21
-99.007553999999999
0
LINE
8
BLACK
6
CONTINUOUS
10
230.6046230000000037
20
-99.007553999999999
11
230.7010939999999835
21
-98.8182199999999966
0
LINE
8
BLACK
6
CONTINUOUS
10
230.7010939999999835
20
-98.8182199999999966
11
230.7667579999999816
21
-98.6161259999999942
0
LINE
8
BLACK
6
CONTINUOUS
10
230.7667579999999816
20
-98.6161259999999942
11
230.7999999999999829
21
-98.4062469999999934
0
LINE
8
BLACK
6
CONTINUOUS
10
230.7999999999999829
20
-98.4062469999999934
11
230.7999999999999829
21
-98.193753000000001
0
LINE
8
BLACK
6
CONTINUOUS
10
230.7999999999999829
20
-98.193753000000001
11
230.7667579999999816
21
-97.9838740000000001
0
LINE
8
BLACK
6
CONTINUOUS
10
230.7667579999999816
20
-97.9838740000000001
11
230.7010939999999835
21
-97.7817799999999977
0
LINE
8
BLACK
6
CONTINUOUS
10
230.7010939999999835
20
-97.7817799999999977
11
230.6046230000000037
21
-97.5924459999999954
0
LINE
8
BLACK
6
CONTINUOUS
10
230.6046230000000037
20
-97.5924459999999954
11
230.4797219999999811
21
-97.4205339999999893
0
LINE
8
BLACK
6
CONTINUOUS
10
230.4797219999999811
20
-97.4205339999999893
11
230.3294659999999965
21
-97.2702779999999905
0
LINE
8
BLACK
6
CONTINUOUS
10
230.3294659999999965
20
-97.2702779999999905
11
230.1575539999999762
21
-97.1453769999999963
0
LINE
8
BLACK
6
CONTINUOUS
10
230.1575539999999762
20
-97.1453769999999963
11
229.9682200000000023
21
-97.0489060000000023
0
LINE
8
BLACK
6
CONTINUOUS
10
229.9682200000000023
20
-97.0489060000000023
11
229.7661259999999857
21
-96.98324199999999
0
LINE
8
BLACK
6
CONTINUOUS
10
229.7661259999999857
20
-96.98324199999999
11
229.5562469999999848
21
-96.9499999999999886
0
LINE
8
BLACK
6
CONTINUOUS
10
229.5562469999999848
20
-96.9499999999999886
11
229.3437529999999924
21
-96.9499999999999886
0
LINE
8
BLACK
6
CONTINUOUS
10
229.3437529999999924
20
-96.9499999999999886
11
229.1338739999999916
21
-96.98324199999999
0
LINE
8
BLACK
6
CONTINUOUS
10
229.1338739999999916
20
-96.98324199999999
11
228.9317800000000034
21
-97.0489060000000023
0
LINE
8
BLACK
6
CONTINUOUS
10
228.9317800000000034
20
-97.0489060000000023
11
228.742446000000001
21
-97.1453769999999963
0
LINE
8
BLACK
6
CONTINUOUS
10
228.742446000000001
20
-97.1453769999999963
11
228.5705339999999808
21
-97.2702779999999905
0
LINE
8
BLACK
6
CONTINUOUS
10
228.5705339999999808
20
-97.2702779999999905
11
228.4202779999999962
21
-97.4205339999999893
0
LINE
8
BLACK
6
CONTINUOUS
10
228.4202779999999962
20
-97.4205339999999893
11
228.295377000000002
21
-97.5924459999999954
0
LINE
8
BLACK
6
CONTINUOUS
10
228.295377000000002
20
-97.5924459999999954
11
228.1989059999999938
21
-97.7817799999999977
0
LINE
8
BLACK
6
CONTINUOUS
10
228.1989059999999938
20
-97.7817799999999977
11
228.1332419999999956
21
-97.9838740000000001
0
LINE
8
BLACK
6
CONTINUOUS
10
228.1332419999999956
20
-97.9838740000000001
11
228.0999999999999943
21
-98.193753000000001
0
LINE
8
BLACK
6
CONTINUOUS
10
228.0999999999999943
20
-98.193753000000001
11
228.0999999999999943
21
-98.4062469999999934
0
LINE
8
BLACK
6
CONTINUOUS
10
233.2518219999999758
20
-82.6386820000000029
11
233.4607549999999776
21
-82.7065690000000018
0
LINE
8
BLACK
6
CONTINUOUS
10
233.4607549999999776
20
-82.7065690000000018
11
233.6564959999999758
21
-82.8063039999999972
0
LINE
8
BLACK
6
CONTINUOUS
10
233.6564959999999758
20
-82.8063039999999972
11
233.8342250000000035
21
-82.9354319999999916
0
LINE
8
BLACK
6
CONTINUOUS
10
233.8342250000000035
20
-82.9354319999999916
11
233.9895659999999964
21
-83.0907729999999987
0
LINE
8
BLACK
6
CONTINUOUS
10
233.9895659999999964
20
-83.0907729999999987
11
234.1186939999999765
21
-83.268501999999998
0
LINE
8
BLACK
6
CONTINUOUS
10
234.1186939999999765
20
-83.268501999999998
11
234.2184289999999862
21
-83.4642429999999962
0
LINE
8
BLACK
6
CONTINUOUS
10
234.2184289999999862
20
-83.4642429999999962
11
234.2863159999999993
21
-83.673175999999998
0
LINE
8
BLACK
6
CONTINUOUS
10
234.2863159999999993
20
-83.673175999999998
11
234.3206819999999766
21
-83.8901570000000021
0
LINE
8
BLACK
6
CONTINUOUS
10
234.3206819999999766
20
-83.8901570000000021
11
234.3206819999999766
21
-84.1098429999999979
0
LINE
8
BLACK
6
CONTINUOUS
10
234.3206819999999766
20
-84.1098429999999979
11
234.2863159999999993
21
-84.326824000000002
0
LINE
8
BLACK
6
CONTINUOUS
10
234.2863159999999993
20
-84.326824000000002
11
234.2184289999999862
21
-84.5357569999999896
0
LINE
8
BLACK
6
CONTINUOUS
10
234.2184289999999862
20
-84.5357569999999896
11
234.1186939999999765
21
-84.731498000000002
0
LINE
8
BLACK
6
CONTINUOUS
10
234.1186939999999765
20
-84.731498000000002
11
233.9895659999999964
21
-84.9092270000000013
0
LINE
8
BLACK
6
CONTINUOUS
10
233.9895659999999964
20
-84.9092270000000013
11
233.8342250000000035
21
-85.0645679999999942
0
LINE
8
BLACK
6
CONTINUOUS
10
233.8342250000000035
20
-85.0645679999999942
11
233.6564959999999758
21
-85.1936960000000028
0
LINE
8
BLACK
6
CONTINUOUS
10
233.6564959999999758
20
-85.1936960000000028
11
233.4607549999999776
21
-85.2934309999999982
0
LINE
8
BLACK
6
CONTINUOUS
10
233.4607549999999776
20
-85.2934309999999982
11
233.2518219999999758
21
-85.3613179999999971
0
LINE
8
BLACK
6
CONTINUOUS
10
233.2518219999999758
20
-85.3613179999999971
11
233.0348410000000001
21
-85.3956840000000028
0
LINE
8
BLACK
6
CONTINUOUS
10
233.0348410000000001
20
-85.3956840000000028
11
232.8151549999999759
21
-85.3956840000000028
0
LINE
8
BLACK
6
CONTINUOUS
10
232.8151549999999759
20
-85.3956840000000028
11
232.5981740000000002
21
-85.3613179999999971
0
LINE
8
BLACK
6
CONTINUOUS
10
232.5981740000000002
20
-85.3613179999999971
11
232.3892409999999984
21
-85.2934309999999982
0
LINE
8
BLACK
6
CONTINUOUS
10
232.3892409999999984
20
-85.2934309999999982
11
232.1935000000000002
21
-85.1936960000000028
0
LINE
8
BLACK
6
CONTINUOUS
10
232.1935000000000002
20
-85.1936960000000028
11
232.0157710000000009
21
-85.0645679999999942
0
LINE
8
BLACK
6
CONTINUOUS
10
232.0157710000000009
20
-85.0645679999999942
11
231.8604299999999796
21
-84.9092270000000013
0
LINE
8
BLACK
6
CONTINUOUS
10
231.8604299999999796
20
-84.9092270000000013
11
231.7313019999999995
21
-84.731498000000002
0
LINE
8
BLACK
6
CONTINUOUS
10
231.7313019999999995
20
-84.731498000000002
11
231.6315669999999898
21
-84.5357569999999896
0
LINE
8
BLACK
6
CONTINUOUS
10
231.6315669999999898
20
-84.5357569999999896
11
231.5636799999999766
21
-84.326824000000002
0
LINE
8
BLACK
6
CONTINUOUS
10
231.5636799999999766
20
-84.326824000000002
11
231.5293139999999994
21
-84.1098429999999979
0
LINE
8
BLACK
6
CONTINUOUS
10
231.5293139999999994
20
-84.1098429999999979
11
231.5293139999999994
21
-83.8937529999999896
0
LINE
8
BLACK
6
CONTINUOUS
10
231.5293139999999994
20
-83.8937529999999896
11
231.5293139999999994
21
-83.8901570000000021
0
LINE
8
BLACK
6
CONTINUOUS
10
231.5293139999999994
20
-83.8901570000000021
11
231.5636799999999766
21
-83.673175999999998
0
LINE
8
BLACK
6
CONTINUOUS
10
231.5636799999999766
20
-83.673175999999998
11
231.6315669999999898
21
-83.4642429999999962
0
LINE
8
BLACK
6
CONTINUOUS
10
231.6315669999999898
20
-83.4642429999999962
11
231.7313019999999995
21
-83.268501999999998
0
LINE
8
BLACK
6
CONTINUOUS
10
231.7313019999999995
20
-83.268501999999998
11
231.8604299999999796
21
-83.0907729999999987
0
LINE
8
BLACK
6
CONTINUOUS
10
231.8604299999999796
20
-83.0907729999999987
11
232.0157710000000009
21
-82.9354319999999916
0
LINE
8
BLACK
6
CONTINUOUS
10
232.0157710000000009
20
-82.9354319999999916
11
232.1935000000000002
21
-82.8063039999999972
0
LINE
8
BLACK
6
CONTINUOUS
10
232.1935000000000002
20
-82.8063039999999972
11
232.3892409999999984
21
-82.7065690000000018
0
LINE
8
BLACK
6
CONTINUOUS
10
232.3892409999999984
20
-82.7065690000000018
11
232.5981740000000002
21
-82.6386820000000029
0
LINE
8
BLACK
6
CONTINUOUS
10
232.5981740000000002
20
-82.6386820000000029
11
232.8151549999999759
21
-82.6043159999999972
0
LINE
8
BLACK
6
CONTINUOUS
10
232.8151549999999759
20
-82.6043159999999972
11
233.0348410000000001
21
-82.6043159999999972
0
LINE
8
BLACK
6
CONTINUOUS
10
233.0348410000000001
20
-82.6043159999999972
11
233.2518219999999758
21
-82.6386820000000029
0
LINE
8
BLACK
6
CONTINUOUS
10
231.5749979999999937
20
-84.1062469999999962
11
231.608239999999995
21
-84.316125999999997
0
LINE
8
BLACK
6
CONTINUOUS
10
231.608239999999995
20
-84.316125999999997
11
231.6739039999999932
21
-84.5182199999999995
0
LINE
8
BLACK
6
CONTINUOUS
10
231.6739039999999932
20
-84.5182199999999995
11
231.7703750000000014
21
-84.7075540000000018
0
LINE
8
BLACK
6
CONTINUOUS
10
231.7703750000000014
20
-84.7075540000000018
11
231.8952759999999955
21
-84.8794659999999936
0
LINE
8
BLACK
6
CONTINUOUS
10
231.8952759999999955
20
-84.8794659999999936
11
232.0455319999999801
21
-85.0297219999999925
0
LINE
8
BLACK
6
CONTINUOUS
10
232.0455319999999801
20
-85.0297219999999925
11
232.2174440000000004
21
-85.1546230000000008
0
LINE
8
BLACK
6
CONTINUOUS
10
232.2174440000000004
20
-85.1546230000000008
11
232.4067780000000027
21
-85.2510939999999948
0
LINE
8
BLACK
6
CONTINUOUS
10
232.4067780000000027
20
-85.2510939999999948
11
232.608871999999991
21
-85.316757999999993
0
LINE
8
BLACK
6
CONTINUOUS
10
232.608871999999991
20
-85.316757999999993
11
232.8187509999999918
21
-85.3499999999999943
0
LINE
8
BLACK
6
CONTINUOUS
10
232.8187509999999918
20
-85.3499999999999943
11
233.0312449999999842
21
-85.3499999999999943
0
LINE
8
BLACK
6
CONTINUOUS
10
233.0312449999999842
20
-85.3499999999999943
11
233.241123999999985
21
-85.316757999999993
0
LINE
8
BLACK
6
CONTINUOUS
10
233.241123999999985
20
-85.316757999999993
11
233.4432180000000017
21
-85.2510939999999948
0
LINE
8
BLACK
6
CONTINUOUS
10
233.4432180000000017
20
-85.2510939999999948
11
233.6325519999999756
21
-85.1546230000000008
0
LINE
8
BLACK
6
CONTINUOUS
10
233.6325519999999756
20
-85.1546230000000008
11
233.8044639999999958
21
-85.0297219999999925
0
LINE
8
BLACK
6
CONTINUOUS
10
233.8044639999999958
20
-85.0297219999999925
11
233.9547199999999805
21
-84.8794659999999936
0
LINE
8
BLACK
6
CONTINUOUS
10
233.9547199999999805
20
-84.8794659999999936
11
234.0796210000000031
21
-84.7075540000000018
0
LINE
8
BLACK
6
CONTINUOUS
10
234.0796210000000031
20
-84.7075540000000018
11
234.1760919999999828
21
-84.5182199999999995
0
LINE
8
BLACK
6
CONTINUOUS
10
234.1760919999999828
20
-84.5182199999999995
11
234.241755999999981
21
-84.316125999999997
0
LINE
8
BLACK
6
CONTINUOUS
10
234.241755999999981
20
-84.316125999999997
11
234.2749979999999823
21
-84.1062469999999962
0
LINE
8
BLACK
6
CONTINUOUS
10
234.2749979999999823
20
-84.1062469999999962
11
234.2749979999999823
21
-83.8937529999999896
0
LINE
8
BLACK
6
CONTINUOUS
10
234.2749979999999823
20
-83.8937529999999896
11
234.241755999999981
21
-83.683874000000003
0
LINE
8
BLACK
6
CONTINUOUS
10
234.241755999999981
20
-83.683874000000003
11
234.1760919999999828
21
-83.4817800000000005
0
LINE
8
BLACK
6
CONTINUOUS
10
234.1760919999999828
20
-83.4817800000000005
11
234.0796210000000031
21
-83.2924459999999982
0
LINE
8
BLACK
6
CONTINUOUS
10
234.0796210000000031
20
-83.2924459999999982
11
233.9547199999999805
21
-83.1205339999999921
0
LINE
8
BLACK
6
CONTINUOUS
10
233.9547199999999805
20
-83.1205339999999921
11
233.8044639999999958
21
-82.9702779999999933
0
LINE
8
BLACK
6
CONTINUOUS
10
233.8044639999999958
20
-82.9702779999999933
11
233.6325519999999756
21
-82.8453769999999992
0
LINE
8
BLACK
6
CONTINUOUS
10
233.6325519999999756
20
-82.8453769999999992
11
233.4432180000000017
21
-82.748905999999991
0
LINE
8
BLACK
6
CONTINUOUS
10
233.4432180000000017
20
-82.748905999999991
11
233.241123999999985
21
-82.6832419999999928
0
LINE
8
BLACK
6
CONTINUOUS
10
233.241123999999985
20
-82.6832419999999928
11
233.0312449999999842
21
-82.6499999999999915
0
LINE
8
BLACK
6
CONTINUOUS
10
233.0312449999999842
20
-82.6499999999999915
11
232.8187509999999918
21
-82.6499999999999915
0
LINE
8
BLACK
6
CONTINUOUS
10
232.8187509999999918
20
-82.6499999999999915
11
232.608871999999991
21
-82.6832419999999928
0
LINE
8
BLACK
6
CONTINUOUS
10
232.608871999999991
20
-82.6832419999999928
11
232.4067780000000027
21
-82.748905999999991
0
LINE
8
BLACK
6
CONTINUOUS
10
232.4067780000000027
20
-82.748905999999991
11
232.2174440000000004
21
-82.8453769999999992
0
LINE
8
BLACK
6
CONTINUOUS
10
232.2174440000000004
20
-82.8453769999999992
11
232.0455319999999801
21
-82.9702779999999933
0
LINE
8
BLACK
6
CONTINUOUS
10
232.0455319999999801
20
-82.9702779999999933
11
231.8952759999999955
21
-83.1205339999999921
0
LINE
8
BLACK
6
CONTINUOUS
10
231.8952759999999955
20
-83.1205339999999921
11
231.7703750000000014
21
-83.2924459999999982
0
LINE
8
BLACK
6
CONTINUOUS
10
231.7703750000000014
20
-83.2924459999999982
11
231.6739039999999932
21
-83.4817800000000005
0
LINE
8
BLACK
6
CONTINUOUS
10
231.6739039999999932
20
-83.4817800000000005
11
231.608239999999995
21
-83.683874000000003
0
LINE
8
BLACK
6
CONTINUOUS
10
231.608239999999995
20
-83.683874000000003
11
231.5749979999999937
21
-83.8937529999999896
0
LINE
8
BLACK
6
CONTINUOUS
10
231.5749979999999937
20
-83.8937529999999896
11
231.5749979999999937
21
-84.1062469999999962
0
LINE
8
BLACK
6
CONTINUOUS
10
196.5268219999999815
20
-71.5386819999999943
11
196.7357549999999833
21
-71.6065689999999933
0
LINE
8
BLACK
6
CONTINUOUS
10
196.7357549999999833
20
-71.6065689999999933
11
196.9314959999999814
21
-71.7063040000000029
0
LINE
8
BLACK
6
CONTINUOUS
10
196.9314959999999814
20
-71.7063040000000029
11
197.1092249999999808
21
-71.8354319999999973
0
LINE
8
BLACK
6
CONTINUOUS
10
197.1092249999999808
20
-71.8354319999999973
11
197.2645660000000021
21
-71.9907729999999901
0
LINE
8
BLACK
6
CONTINUOUS
10
197.2645660000000021
20
-71.9907729999999901
11
197.3936939999999822
21
-72.1685020000000037
0
LINE
8
BLACK
6
CONTINUOUS
10
197.3936939999999822
20
-72.1685020000000037
11
197.4934289999999919
21
-72.3642430000000019
0
LINE
8
BLACK
6
CONTINUOUS
10
197.4934289999999919
20
-72.3642430000000019
11
197.561316000000005
21
-72.5731760000000037
0
LINE
8
BLACK
6
CONTINUOUS
10
197.561316000000005
20
-72.5731760000000037
11
197.5956819999999823
21
-72.7901569999999936
0
LINE
8
BLACK
6
CONTINUOUS
10
197.5956819999999823
20
-72.7901569999999936
11
197.5956819999999823
21
-73.0098430000000036
0
LINE
8
BLACK
6
CONTINUOUS
10
197.5956819999999823
20
-73.0098430000000036
11
197.561316000000005
21
-73.2268239999999935
0
LINE
8
BLACK
6
CONTINUOUS
10
197.561316000000005
20
-73.2268239999999935
11
197.4934289999999919
21
-73.4357569999999953
0
LINE
8
BLACK
6
CONTINUOUS
10
197.4934289999999919
20
-73.4357569999999953
11
197.3936939999999822
21
-73.6314979999999935
0
LINE
8
BLACK
6
CONTINUOUS
10
197.3936939999999822
20
-73.6314979999999935
11
197.2645660000000021
21
-73.8092269999999928
0
LINE
8
BLACK
6
CONTINUOUS
10
197.2645660000000021
20
-73.8092269999999928
11
197.1092249999999808
21
-73.9645679999999999
0
LINE
8
BLACK
6
CONTINUOUS
10
197.1092249999999808
20
-73.9645679999999999
11
196.9314959999999814
21
-74.0936959999999942
0
LINE
8
BLACK
6
CONTINUOUS
10
196.9314959999999814
20
-74.0936959999999942
11
196.7357549999999833
21
-74.1934309999999897
0
LINE
8
BLACK
6
CONTINUOUS
10
196.7357549999999833
20
-74.1934309999999897
11
196.5268219999999815
21
-74.2613180000000028
0
LINE
8
BLACK
6
CONTINUOUS
10
196.5268219999999815
20
-74.2613180000000028
11
196.3098409999999774
21
-74.2956839999999943
0
LINE
8
BLACK
6
CONTINUOUS
10
196.3098409999999774
20
-74.2956839999999943
11
196.0901549999999816
21
-74.2956839999999943
0
LINE
8
BLACK
6
CONTINUOUS
10
196.0901549999999816
20
-74.2956839999999943
11
195.8731739999999775
21
-74.2613180000000028
0
LINE
8
BLACK
6
CONTINUOUS
10
195.8731739999999775
20
-74.2613180000000028
11
195.6642410000000041
21
-74.1934309999999897
0
LINE
8
BLACK
6
CONTINUOUS
10
195.6642410000000041
20
-74.1934309999999897
11
195.4684999999999775
21
-74.0936959999999942
0
LINE
8
BLACK
6
CONTINUOUS
10
195.4684999999999775
20
-74.0936959999999942
11
195.2907709999999781
21
-73.9645679999999999
0
LINE
8
BLACK
6
CONTINUOUS
10
195.2907709999999781
20
-73.9645679999999999
11
195.1354299999999853
21
-73.8092269999999928
0
LINE
8
BLACK
6
CONTINUOUS
10
195.1354299999999853
20
-73.8092269999999928
11
195.0063020000000051
21
-73.6314979999999935
0
LINE
8
BLACK
6
CONTINUOUS
10
195.0063020000000051
20
-73.6314979999999935
11
194.9065669999999955
21
-73.4357569999999953
0
LINE
8
BLACK
6
CONTINUOUS
10
194.9065669999999955
20
-73.4357569999999953
11
194.8386799999999823
21
-73.2268239999999935
0
LINE
8
BLACK
6
CONTINUOUS
10
194.8386799999999823
20
-73.2268239999999935
11
194.8043140000000051
21
-73.0098430000000036
0
LINE
8
BLACK
6
CONTINUOUS
10
194.8043140000000051
20
-73.0098430000000036
11
194.8043140000000051
21
-72.7937529999999953
0
LINE
8
BLACK
6
CONTINUOUS
10
194.8043140000000051
20
-72.7937529999999953
11
194.8043140000000051
21
-72.7901569999999936
0
LINE
8
BLACK
6
CONTINUOUS
10
194.8043140000000051
20
-72.7901569999999936
11
194.8386799999999823
21
-72.5731760000000037
0
LINE
8
BLACK
6
CONTINUOUS
10
194.8386799999999823
20
-72.5731760000000037
11
194.9065669999999955
21
-72.3642430000000019
0
LINE
8
BLACK
6
CONTINUOUS
10
194.9065669999999955
20
-72.3642430000000019
11
195.0063020000000051
21
-72.1685020000000037
0
LINE
8
BLACK
6
CONTINUOUS
10
195.0063020000000051
20
-72.1685020000000037
11
195.1354299999999853
21
-71.9907729999999901
0
LINE
8
BLACK
6
CONTINUOUS
10
195.1354299999999853
20
-71.9907729999999901
11
195.2907709999999781
21
-71.8354319999999973
0
LINE
8
BLACK
6
CONTINUOUS
10
195.2907709999999781
20
-71.8354319999999973
11
195.4684999999999775
21
-71.7063040000000029
0
LINE
8
BLACK
6
CONTINUOUS
10
195.4684999999999775
20
-71.7063040000000029
11
195.6642410000000041
21
-71.6065689999999933
0
LINE
8
BLACK
6
CONTINUOUS
10
195.6642410000000041
20
-71.6065689999999933
11
195.8731739999999775
21
-71.5386819999999943
0
LINE
8
BLACK
6
CONTINUOUS
10
195.8731739999999775
20
-71.5386819999999943
11
196.0901549999999816
21
-71.5043160000000029
0
LINE
8
BLACK
6
CONTINUOUS
10
196.0901549999999816
20
-71.5043160000000029
11
196.3098409999999774
21
-71.5043160000000029
0
LINE
8
BLACK
6
CONTINUOUS
10
196.3098409999999774
20
-71.5043160000000029
11
196.5268219999999815
21
-71.5386819999999943
0
LINE
8
BLACK
6
CONTINUOUS
10
194.8499979999999994
20
-73.0062470000000019
11
194.8832400000000007
21
-73.2161260000000027
0
LINE
8
BLACK
6
CONTINUOUS
10
194.8832400000000007
20
-73.2161260000000027
11
194.9489039999999989
21
-73.4182199999999909
0
LINE
8
BLACK
6
CONTINUOUS
10
194.9489039999999989
20
-73.4182199999999909
11
195.0453749999999786
21
-73.6075539999999933
0
LINE
8
BLACK
6
CONTINUOUS
10
195.0453749999999786
20
-73.6075539999999933
11
195.1702760000000012
21
-73.7794659999999993
0
LINE
8
BLACK
6
CONTINUOUS
10
195.1702760000000012
20
-73.7794659999999993
11
195.3205319999999858
21
-73.9297219999999982
0
LINE
8
BLACK
6
CONTINUOUS
10
195.3205319999999858
20
-73.9297219999999982
11
195.4924439999999777
21
-74.0546229999999923
0
LINE
8
BLACK
6
CONTINUOUS
10
195.4924439999999777
20
-74.0546229999999923
11
195.68177799999998
21
-74.1510940000000005
0
LINE
8
BLACK
6
CONTINUOUS
10
195.68177799999998
20
-74.1510940000000005
11
195.8838719999999967
21
-74.2167579999999987
0
LINE
8
BLACK
6
CONTINUOUS
10
195.8838719999999967
20
-74.2167579999999987
11
196.0937509999999975
21
-74.25
0
LINE
8
BLACK
6
CONTINUOUS
10
196.0937509999999975
20
-74.25
11
196.3062449999999899
21
-74.25
0
LINE
8
BLACK
6
CONTINUOUS
10
196.3062449999999899
20
-74.25
11
196.5161239999999907
21
-74.2167579999999987
0
LINE
8
BLACK
6
CONTINUOUS
10
196.5161239999999907
20
-74.2167579999999987
11
196.7182179999999789
21
-74.1510940000000005
0
LINE
8
BLACK
6
CONTINUOUS
10
196.7182179999999789
20
-74.1510940000000005
11
196.9075519999999813
21
-74.0546229999999923
0
LINE
8
BLACK
6
CONTINUOUS
10
196.9075519999999813
20
-74.0546229999999923
11
197.0794640000000015
21
-73.9297219999999982
0
LINE
8
BLACK
6
CONTINUOUS
10
197.0794640000000015
20
-73.9297219999999982
11
197.2297199999999862
21
-73.7794659999999993
0
LINE
8
BLACK
6
CONTINUOUS
10
197.2297199999999862
20
-73.7794659999999993
11
197.3546209999999803
21
-73.6075539999999933
0
LINE
8
BLACK
6
CONTINUOUS
10
197.3546209999999803
20
-73.6075539999999933
11
197.4510919999999885
21
-73.4182199999999909
0
LINE
8
BLACK
6
CONTINUOUS
10
197.4510919999999885
20
-73.4182199999999909
11
197.5167559999999867
21
-73.2161260000000027
0
LINE
8
BLACK
6
CONTINUOUS
10
197.5167559999999867
20
-73.2161260000000027
11
197.549997999999988
21
-73.0062470000000019
0
LINE
8
BLACK
6
CONTINUOUS
10
197.549997999999988
20
-73.0062470000000019
11
197.549997999999988
21
-72.7937529999999953
0
LINE
8
BLACK
6
CONTINUOUS
10
197.549997999999988
20
-72.7937529999999953
11
197.5167559999999867
21
-72.5838739999999945
0
LINE
8
BLACK
6
CONTINUOUS
10
197.5167559999999867
20
-72.5838739999999945
11
197.4510919999999885
21
-72.381779999999992
0
LINE
8
BLACK
6
CONTINUOUS
10
197.4510919999999885
20
-72.381779999999992
11
197.3546209999999803
21
-72.1924459999999897
0
LINE
8
BLACK
6
CONTINUOUS
10
197.3546209999999803
20
-72.1924459999999897
11
197.2297199999999862
21
-72.0205339999999978
0
LINE
8
BLACK
6
CONTINUOUS
10
197.2297199999999862
20
-72.0205339999999978
11
197.0794640000000015
21
-71.870277999999999
0
LINE
8
BLACK
6
CONTINUOUS
10
197.0794640000000015
20
-71.870277999999999
11
196.9075519999999813
21
-71.7453769999999906
0
LINE
8
BLACK
6
CONTINUOUS
10
196.9075519999999813
20
-71.7453769999999906
11
196.7182179999999789
21
-71.6489059999999967
0
LINE
8
BLACK
6
CONTINUOUS
10
196.7182179999999789
20
-71.6489059999999967
11
196.5161239999999907
21
-71.5832419999999985
0
LINE
8
BLACK
6
CONTINUOUS
10
196.5161239999999907
20
-71.5832419999999985
11
196.3062449999999899
21
-71.5499999999999972
0
LINE
8
BLACK
6
CONTINUOUS
10
196.3062449999999899
20
-71.5499999999999972
11
196.0937509999999975
21
-71.5499999999999972
0
LINE
8
BLACK
6
CONTINUOUS
10
196.0937509999999975
20
-71.5499999999999972
11
195.8838719999999967
21
-71.5832419999999985
0
LINE
8
BLACK
6
CONTINUOUS
10
195.8838719999999967
20
-71.5832419999999985
11
195.68177799999998
21
-71.6489059999999967
0
LINE
8
BLACK
6
CONTINUOUS
10
195.68177799999998
20
-71.6489059999999967
11
195.4924439999999777
21
-71.7453769999999906
0
LINE
8
BLACK
6
CONTINUOUS
10
195.4924439999999777
20
-71.7453769999999906
11
195.3205319999999858
21
-71.870277999999999
0
LINE
8
BLACK
6
CONTINUOUS
10
195.3205319999999858
20
-71.870277999999999
11
195.1702760000000012
21
-72.0205339999999978
0
LINE
8
BLACK
6
CONTINUOUS
10
195.1702760000000012
20
-72.0205339999999978
11
195.0453749999999786
21
-72.1924459999999897
0
LINE
8
BLACK
6
CONTINUOUS
10
195.0453749999999786
20
-72.1924459999999897
11
194.9489039999999989
21
-72.381779999999992
0
LINE
8
BLACK
6
CONTINUOUS
10
194.9489039999999989
20
-72.381779999999992
11
194.8832400000000007
21
-72.5838739999999945
0
LINE
8
BLACK
6
CONTINUOUS
10
194.8832400000000007
20
-72.5838739999999945
11
194.8499979999999994
21
-72.7937529999999953
0
LINE
8
BLACK
6
CONTINUOUS
10
194.8499979999999994
20
-72.7937529999999953
11
194.8499979999999994
21
-73.0062470000000019
0
LINE
8
BLACK
6
CONTINUOUS
10
165.8699979999999812
20
-69.4749999999999943
11
165.8700000000000045
21
-69.4749999999999943
0
LINE
8
BLACK
6
CONTINUOUS
10
165.8700000000000045
20
-69.4749999999999943
11
199.5935910000000035
21
-69.4770809999999983
0
LINE
8
BLACK
6
CONTINUOUS
10
199.5935910000000035
20
-69.4770809999999983
11
199.5999979999999994
21
-69.4749999999999943
0
LINE
8
BLACK
6
CONTINUOUS
10
199.5999979999999994
20
-69.4749999999999943
11
199.8457879999999989
21
-69.4925789999999921
0
LINE
8
BLACK
6
CONTINUOUS
10
199.8457879999999989
20
-69.4925789999999921
11
200.0865759999999796
21
-69.5449579999999941
0
LINE
8
BLACK
6
CONTINUOUS
10
200.0865759999999796
20
-69.5449579999999941
11
200.3174569999999903
21
-69.6310720000000032
0
LINE
8
BLACK
6
CONTINUOUS
10
200.3174569999999903
20
-69.6310720000000032
11
200.5337339999999813
21
-69.7491669999999999
0
LINE
8
BLACK
6
CONTINUOUS
10
200.5337339999999813
20
-69.7491669999999999
11
200.731002999999987
21
-69.8968389999999999
0
LINE
8
BLACK
6
CONTINUOUS
10
200.731002999999987
20
-69.8968389999999999
11
200.9052480000000003
21
-70.0710819999999899
0
LINE
8
BLACK
6
CONTINUOUS
10
200.9052480000000003
20
-70.0710819999999899
11
201.0529219999999953
21
-70.2683490000000006
0
LINE
8
BLACK
6
CONTINUOUS
10
201.0529219999999953
20
-70.2683490000000006
11
201.1710199999999986
21
-70.4846239999999966
0
LINE
8
BLACK
6
CONTINUOUS
10
201.1710199999999986
20
-70.4846239999999966
11
201.2571360000000027
21
-70.7155049999999932
0
LINE
8
BLACK
6
CONTINUOUS
10
201.2571360000000027
20
-70.7155049999999932
11
201.3095179999999971
21
-70.9562909999999931
0
LINE
8
BLACK
6
CONTINUOUS
10
201.3095179999999971
20
-70.9562909999999931
11
201.3271000000000015
21
-71.2020819999999901
0
LINE
8
BLACK
6
CONTINUOUS
10
201.3271000000000015
20
-71.2020819999999901
11
201.3270799999999952
21
-71.2020819999999901
0
LINE
8
BLACK
6
CONTINUOUS
10
201.3270799999999952
20
-71.2020819999999901
11
201.3249999999999886
21
-71.2084820000000036
0
LINE
8
BLACK
6
CONTINUOUS
10
201.3249999999999886
20
-71.2084820000000036
11
201.3270799999999952
21
-76.3978899999999896
0
LINE
8
BLACK
6
CONTINUOUS
10
201.3270799999999952
20
-76.3978899999999896
11
201.3270759999999768
21
-76.3979070000000036
0
LINE
8
BLACK
6
CONTINUOUS
10
201.3270759999999768
20
-76.3979070000000036
11
201.3270799999999952
21
-76.39791799999999
0
LINE
8
BLACK
6
CONTINUOUS
10
201.3270799999999952
20
-76.39791799999999
11
201.3270819999999901
21
-76.39791799999999
0
LINE
8
BLACK
6
CONTINUOUS
10
201.3270819999999901
20
-76.39791799999999
11
201.3270829999999876
21
-76.517715999999993
0
LINE
8
BLACK
6
CONTINUOUS
10
201.3270829999999876
20
-76.517715999999993
11
201.3611829999999827
21
-76.7548730000000035
0
LINE
8
BLACK
6
CONTINUOUS
10
201.3611829999999827
20
-76.7548730000000035
11
201.428685999999999
21
-76.9847630000000009
0
LINE
8
BLACK
6
CONTINUOUS
10
201.428685999999999
20
-76.9847630000000009
11
201.5282189999999787
21
-77.2027069999999895
0
LINE
8
BLACK
6
CONTINUOUS
10
201.5282189999999787
20
-77.2027069999999895
11
201.6577549999999803
21
-77.4042669999999902
0
LINE
8
BLACK
6
CONTINUOUS
10
201.6577549999999803
20
-77.4042669999999902
11
201.8146569999999826
21
-77.5853419999999971
0
LINE
8
BLACK
6
CONTINUOUS
10
201.8146569999999826
20
-77.5853419999999971
11
201.9957309999999779
21
-77.7422439999999995
0
LINE
8
BLACK
6
CONTINUOUS
10
201.9957309999999779
20
-77.7422439999999995
11
202.1972920000000045
21
-77.8717800000000011
0
LINE
8
BLACK
6
CONTINUOUS
10
202.1972920000000045
20
-77.8717800000000011
11
202.4152349999999956
21
-77.971312999999995
0
LINE
8
BLACK
6
CONTINUOUS
10
202.4152349999999956
20
-77.971312999999995
11
202.6451249999999789
21
-78.0388169999999946
0
LINE
8
BLACK
6
CONTINUOUS
10
202.6451249999999789
20
-78.0388169999999946
11
202.8822820000000036
21
-78.0729169999999897
0
LINE
8
BLACK
6
CONTINUOUS
10
202.8822820000000036
20
-78.0729169999999897
11
203.0000829999999894
21
-78.0729169999999897
0
LINE
8
BLACK
6
CONTINUOUS
10
203.0000829999999894
20
-78.0729169999999897
11
234.5478959999999802
21
-78.0670760000000001
0
LINE
8
BLACK
6
CONTINUOUS
10
234.5478959999999802
20
-78.0670760000000001
11
234.5479129999999941
21
-78.0670789999999926
0
LINE
8
BLACK
6
CONTINUOUS
10
234.5479129999999941
20
-78.0670789999999926
11
234.5479239999999947
21
-78.0670760000000001
0
LINE
8
BLACK
6
CONTINUOUS
10
234.5479239999999947
20
-78.0670760000000001
11
234.7934159999999792
21
-78.0846370000000007
0
LINE
8
BLACK
6
CONTINUOUS
10
234.7934159999999792
20
-78.0846370000000007
11
235.0339099999999917
21
-78.1369559999999979
0
LINE
8
BLACK
6
CONTINUOUS
10
235.0339099999999917
20
-78.1369559999999979
11
235.2645109999999988
21
-78.2229679999999945
0
LINE
8
BLACK
6
CONTINUOUS
10
235.2645109999999988
20
-78.2229679999999945
11
235.4805240000000026
21
-78.3409209999999945
0
LINE
8
BLACK
6
CONTINUOUS
10
235.4805240000000026
20
-78.3409209999999945
11
235.6775519999999915
21
-78.4884150000000034
0
LINE
8
BLACK
6
CONTINUOUS
10
235.6775519999999915
20
-78.4884150000000034
11
235.851585
21
-78.6624479999999977
0
LINE
8
BLACK
6
CONTINUOUS
10
235.851585
20
-78.6624479999999977
11
235.9990789999999947
21
-78.8594760000000008
0
LINE
8
BLACK
6
CONTINUOUS
10
235.9990789999999947
20
-78.8594760000000008
11
236.1170319999999947
21
-79.0754889999999904
0
LINE
8
BLACK
6
CONTINUOUS
10
236.1170319999999947
20
-79.0754889999999904
11
236.2030439999999771
21
-79.3060899999999975
0
LINE
8
BLACK
6
CONTINUOUS
10
236.2030439999999771
20
-79.3060899999999975
11
236.2553629999999885
21
-79.5465839999999957
0
LINE
8
BLACK
6
CONTINUOUS
10
236.2553629999999885
20
-79.5465839999999957
11
236.2729239999999891
21
-79.7920759999999945
0
LINE
8
BLACK
6
CONTINUOUS
10
236.2729239999999891
20
-79.7920759999999945
11
236.2729219999999941
21
-79.792080999999996
0
LINE
8
BLACK
6
CONTINUOUS
10
236.2729219999999941
20
-79.792080999999996
11
236.2729239999999891
21
-79.7920909999999992
0
LINE
8
BLACK
6
CONTINUOUS
10
236.2729239999999891
20
-79.7920909999999992
11
236.274991
21
-85.8500569999999925
0
LINE
8
BLACK
6
CONTINUOUS
10
236.274991
20
-85.8500569999999925
11
247.8979739999999765
21
-85.8770820000000015
0
LINE
8
BLACK
6
CONTINUOUS
10
247.8979739999999765
20
-85.8770820000000015
11
247.8980049999999835
21
-85.8770880000000005
0
LINE
8
BLACK
6
CONTINUOUS
10
247.8980049999999835
20
-85.8770880000000005
11
248.1434089999999912
21
-85.8946419999999904
0
LINE
8
BLACK
6
CONTINUOUS
10
248.1434089999999912
20
-85.8946419999999904
11
248.3839029999999752
21
-85.94695999999999
0
LINE
8
BLACK
6
CONTINUOUS
10
248.3839029999999752
20
-85.94695999999999
11
248.6145049999999799
21
-86.0329709999999892
0
LINE
8
BLACK
6
CONTINUOUS
10
248.6145049999999799
20
-86.0329709999999892
11
248.8305179999999837
21
-86.1509250000000009
0
LINE
8
BLACK
6
CONTINUOUS
10
248.8305179999999837
20
-86.1509250000000009
11
249.0275469999999984
21
-86.2984189999999955
0
LINE
8
BLACK
6
CONTINUOUS
10
249.0275469999999984
20
-86.2984189999999955
11
249.2015799999999786
21
-86.4724509999999924
0
LINE
8
BLACK
6
CONTINUOUS
10
249.2015799999999786
20
-86.4724509999999924
11
249.3490740000000017
21
-86.669479999999993
0
LINE
8
BLACK
6
CONTINUOUS
10
249.3490740000000017
20
-86.669479999999993
11
249.4670279999999991
21
-86.8854939999999942
0
LINE
8
BLACK
6
CONTINUOUS
10
249.4670279999999991
20
-86.8854939999999942
11
249.5530389999999841
21
-87.1160950000000014
0
LINE
8
BLACK
6
CONTINUOUS
10
249.5530389999999841
20
-87.1160950000000014
11
249.6053579999999954
21
-87.3565889999999996
0
LINE
8
BLACK
6
CONTINUOUS
10
249.6053579999999954
20
-87.3565889999999996
11
249.6229179999999985
21
-87.6020819999999958
0
LINE
8
BLACK
6
CONTINUOUS
10
249.6229179999999985
20
-87.6020819999999958
11
249.6229159999999752
21
-87.6020819999999958
0
LINE
8
BLACK
6
CONTINUOUS
10
249.6229159999999752
20
-87.6020819999999958
11
249.6229159999999752
21
-101.7978999999999985
0
LINE
8
BLACK
6
CONTINUOUS
10
249.6229159999999752
20
-101.7978999999999985
11
249.6229129999999827
21
-101.7979109999999991
0
LINE
8
BLACK
6
CONTINUOUS
10
249.6229129999999827
20
-101.7979109999999991
11
249.6229159999999752
21
-101.7979179999999957
0
LINE
8
BLACK
6
CONTINUOUS
10
249.6229159999999752
20
-101.7979179999999957
11
249.6053560000000004
21
-102.0434099999999944
0
LINE
8
BLACK
6
CONTINUOUS
10
249.6053560000000004
20
-102.0434099999999944
11
249.5530369999999891
21
-102.2839049999999901
0
LINE
8
BLACK
6
CONTINUOUS
10
249.5530369999999891
20
-102.2839049999999901
11
249.4670259999999757
21
-102.5145059999999972
0
LINE
8
BLACK
6
CONTINUOUS
10
249.4670259999999757
20
-102.5145059999999972
11
249.3490729999999758
21
-102.730519000000001
0
LINE
8
BLACK
6
CONTINUOUS
10
249.3490729999999758
20
-102.730519000000001
11
249.2015779999999836
21
-102.9275469999999899
0
LINE
8
BLACK
6
CONTINUOUS
10
249.2015779999999836
20
-102.9275469999999899
11
249.027546000000001
21
-103.1015799999999984
0
LINE
8
BLACK
6
CONTINUOUS
10
249.027546000000001
20
-103.1015799999999984
11
248.8305169999999862
21
-103.2490739999999931
0
LINE
8
BLACK
6
CONTINUOUS
10
248.8305169999999862
20
-103.2490739999999931
11
248.6145039999999824
21
-103.3670269999999931
0
LINE
8
BLACK
6
CONTINUOUS
10
248.6145039999999824
20
-103.3670269999999931
11
248.3839029999999752
21
-103.4530379999999923
0
LINE
8
BLACK
6
CONTINUOUS
10
248.3839029999999752
20
-103.4530379999999923
11
248.1434079999999938
21
-103.5053559999999919
0
LINE
8
BLACK
6
CONTINUOUS
10
248.1434079999999938
20
-103.5053559999999919
11
247.8979159999999808
21
-103.5229159999999951
0
LINE
8
BLACK
6
CONTINUOUS
10
247.8979159999999808
20
-103.5229159999999951
11
247.8979159999999808
21
-103.52291799999999
0
LINE
8
BLACK
6
CONTINUOUS
10
247.8979159999999808
20
-103.52291799999999
11
247.8979089999999985
21
-103.5229149999999976
0
LINE
8
BLACK
6
CONTINUOUS
10
247.8979089999999985
20
-103.5229149999999976
11
247.8978979999999979
21
-103.52291799999999
0
LINE
8
BLACK
6
CONTINUOUS
10
247.8978979999999979
20
-103.52291799999999
11
228.6020979999999838
21
-103.52291799999999
0
LINE
8
BLACK
6
CONTINUOUS
10
228.6020979999999838
20
-103.52291799999999
11
228.6020859999999857
21
-103.5229149999999976
0
LINE
8
BLACK
6
CONTINUOUS
10
228.6020859999999857
20
-103.5229149999999976
11
228.6020800000000008
21
-103.52291799999999
0
LINE
8
BLACK
6
CONTINUOUS
10
228.6020800000000008
20
-103.52291799999999
11
228.3565879999999879
21
-103.5053569999999894
0
LINE
8
BLACK
6
CONTINUOUS
10
228.3565879999999879
20
-103.5053569999999894
11
228.1160939999999755
21
-103.4530389999999898
0
LINE
8
BLACK
6
CONTINUOUS
10
228.1160939999999755
20
-103.4530389999999898
11
227.8854929999999968
21
-103.3670279999999906
0
LINE
8
BLACK
6
CONTINUOUS
10
227.8854929999999968
20
-103.3670279999999906
11
227.669479999999993
21
-103.2490739999999931
0
LINE
8
BLACK
6
CONTINUOUS
10
227.669479999999993
20
-103.2490739999999931
11
227.4724509999999782
21
-103.1015799999999984
0
LINE
8
BLACK
6
CONTINUOUS
10
227.4724509999999782
20
-103.1015799999999984
11
227.2984189999999955
21
-102.9275469999999899
0
LINE
8
BLACK
6
CONTINUOUS
10
227.2984189999999955
20
-102.9275469999999899
11
227.1509250000000009
21
-102.730519000000001
0
LINE
8
BLACK
6
CONTINUOUS
10
227.1509250000000009
20
-102.730519000000001
11
227.0329720000000009
21
-102.5145049999999998
0
LINE
8
BLACK
6
CONTINUOUS
10
227.0329720000000009
20
-102.5145049999999998
11
226.9469609999999875
21
-102.2839049999999901
0
LINE
8
BLACK
6
CONTINUOUS
10
226.9469609999999875
20
-102.2839049999999901
11
226.8946419999999762
21
-102.0434099999999944
0
LINE
8
BLACK
6
CONTINUOUS
10
226.8946419999999762
20
-102.0434099999999944
11
226.8770839999999964
21
-101.7979469999999935
0
LINE
8
BLACK
6
CONTINUOUS
10
226.8770839999999964
20
-101.7979469999999935
11
226.8770809999999756
21
-101.7979319999999888
0
LINE
8
BLACK
6
CONTINUOUS
10
226.8770809999999756
20
-101.7979319999999888
11
226.8770809999999756
21
-101.7979179999999957
0
LINE
8
BLACK
6
CONTINUOUS
10
226.8770809999999756
20
-101.7979179999999957
11
226.8770799999999781
21
-101.7979179999999957
0
LINE
8
BLACK
6
CONTINUOUS
10
226.8770799999999781
20
-101.7979179999999957
11
226.8770799999999781
21
-101.7979139999999916
0
LINE
8
BLACK
6
CONTINUOUS
10
226.8770799999999781
20
-101.7979139999999916
11
226.8747209999999939
21
-97.6076369999999969
0
LINE
8
BLACK
6
CONTINUOUS
10
226.8747209999999939
20
-97.6076369999999969
11
226.8729160000000036
21
-97.6020819999999958
0
LINE
8
BLACK
6
CONTINUOUS
10
226.8729160000000036
20
-97.6020819999999958
11
226.8729179999999985
21
-97.6020819999999958
0
LINE
8
BLACK
6
CONTINUOUS
10
226.8729179999999985
20
-97.6020819999999958
11
226.8729170000000011
21
-97.4822839999999928
0
LINE
8
BLACK
6
CONTINUOUS
10
226.8729170000000011
20
-97.4822839999999928
11
226.8388169999999775
21
-97.2451269999999965
0
LINE
8
BLACK
6
CONTINUOUS
10
226.8388169999999775
20
-97.2451269999999965
11
226.7713129999999921
21
-97.0152360000000016
0
LINE
8
BLACK
6
CONTINUOUS
10
226.7713129999999921
20
-97.0152360000000016
11
226.6717799999999841
21
-96.7972919999999988
0
LINE
8
BLACK
6
CONTINUOUS
10
226.6717799999999841
20
-96.7972919999999988
11
226.5422439999999824
21
-96.5957319999999982
0
LINE
8
BLACK
6
CONTINUOUS
10
226.5422439999999824
20
-96.5957319999999982
11
226.3853419999999801
21
-96.4146569999999912
0
LINE
8
BLACK
6
CONTINUOUS
10
226.3853419999999801
20
-96.4146569999999912
11
226.2042669999999873
21
-96.2577549999999889
0
LINE
8
BLACK
6
CONTINUOUS
10
226.2042669999999873
20
-96.2577549999999889
11
226.0027059999999892
21
-96.1282190000000014
0
LINE
8
BLACK
6
CONTINUOUS
10
226.0027059999999892
20
-96.1282190000000014
11
225.7847620000000006
21
-96.0286859999999933
0
LINE
8
BLACK
6
CONTINUOUS
10
225.7847620000000006
20
-96.0286859999999933
11
225.5548709999999915
21
-95.9611829999999912
0
LINE
8
BLACK
6
CONTINUOUS
10
225.5548709999999915
20
-95.9611829999999912
11
225.3177139999999952
21
-95.9270829999999961
0
LINE
8
BLACK
6
CONTINUOUS
10
225.3177139999999952
20
-95.9270829999999961
11
225.1979159999999922
21
-95.9270819999999986
0
LINE
8
BLACK
6
CONTINUOUS
10
225.1979159999999922
20
-95.9270819999999986
11
225.1979149999999947
21
-95.9270810000000012
0
LINE
8
BLACK
6
CONTINUOUS
10
225.1979149999999947
20
-95.9270810000000012
11
225.1979139999999973
21
-95.9270819999999986
0
LINE
8
BLACK
6
CONTINUOUS
10
225.1979139999999973
20
-95.9270819999999986
11
199.6082669999999837
21
-95.9250710000000026
0
LINE
8
BLACK
6
CONTINUOUS
10
199.6082669999999837
20
-95.9250710000000026
11
199.6020800000000008
21
-95.9270819999999986
0
LINE
8
BLACK
6
CONTINUOUS
10
199.6020800000000008
20
-95.9270819999999986
11
199.6020800000000008
21
-95.9270799999999895
0
LINE
8
BLACK
6
CONTINUOUS
10
199.6020800000000008
20
-95.9270799999999895
11
199.4822819999999979
21
-95.9270810000000012
0
LINE
8
BLACK
6
CONTINUOUS
10
199.4822819999999979
20
-95.9270810000000012
11
199.2451250000000016
21
-95.9611809999999963
0
LINE
8
BLACK
6
CONTINUOUS
10
199.2451250000000016
20
-95.9611809999999963
11
199.0152349999999899
21
-96.0286849999999959
0
LINE
8
BLACK
6
CONTINUOUS
10
199.0152349999999899
20
-96.0286849999999959
11
198.7972910000000013
21
-96.1282179999999897
0
LINE
8
BLACK
6
CONTINUOUS
10
198.7972910000000013
20
-96.1282179999999897
11
198.5957300000000032
21
-96.2577549999999889
0
LINE
8
BLACK
6
CONTINUOUS
10
198.5957300000000032
20
-96.2577549999999889
11
198.4146559999999795
21
-96.4146569999999912
0
LINE
8
BLACK
6
CONTINUOUS
10
198.4146559999999795
20
-96.4146569999999912
11
198.2577529999999797
21
-96.5957319999999982
0
LINE
8
BLACK
6
CONTINUOUS
10
198.2577529999999797
20
-96.5957319999999982
11
198.128216999999978
21
-96.7972929999999963
0
LINE
8
BLACK
6
CONTINUOUS
10
198.128216999999978
20
-96.7972929999999963
11
198.0286839999999984
21
-97.0152360000000016
0
LINE
8
BLACK
6
CONTINUOUS
10
198.0286839999999984
20
-97.0152360000000016
11
197.9611809999999821
21
-97.2451269999999965
0
LINE
8
BLACK
6
CONTINUOUS
10
197.9611809999999821
20
-97.2451269999999965
11
197.9270809999999869
21
-97.4822839999999928
0
LINE
8
BLACK
6
CONTINUOUS
10
197.9270809999999869
20
-97.4822839999999928
11
197.9270799999999895
21
-97.6020819999999958
0
LINE
8
BLACK
6
CONTINUOUS
10
197.9270799999999895
20
-97.6020819999999958
11
197.9258989999999869
21
-97.6057129999999944
0
LINE
8
BLACK
6
CONTINUOUS
10
197.9258989999999869
20
-97.6057129999999944
11
197.9282619999999895
21
-101.7999859999999899
0
LINE
8
BLACK
6
CONTINUOUS
10
197.9282619999999895
20
-101.7999859999999899
11
197.9266480000000001
21
-101.8081219999999973
0
LINE
8
BLACK
6
CONTINUOUS
10
197.9266480000000001
20
-101.8081219999999973
11
197.9095240000000047
21
-102.0475759999999923
0
LINE
8
BLACK
6
CONTINUOUS
10
197.9095240000000047
20
-102.0475759999999923
11
197.8572089999999832
21
-102.2880719999999997
0
LINE
8
BLACK
6
CONTINUOUS
10
197.8572089999999832
20
-102.2880719999999997
11
197.7711999999999932
21
-102.5186759999999992
0
LINE
8
BLACK
6
CONTINUOUS
10
197.7711999999999932
20
-102.5186759999999992
11
197.6532479999999907
21
-102.734690999999998
0
LINE
8
BLACK
6
CONTINUOUS
10
197.6532479999999907
20
-102.734690999999998
11
197.5057529999999986
21
-102.931720999999996
0
LINE
8
BLACK
6
CONTINUOUS
10
197.5057529999999986
20
-102.931720999999996
11
197.33171999999999
21
-103.105755000000002
0
LINE
8
BLACK
6
CONTINUOUS
10
197.33171999999999
20
-103.105755000000002
11
197.1346889999999803
21
-103.2532489999999967
0
LINE
8
BLACK
6
CONTINUOUS
10
197.1346889999999803
20
-103.2532489999999967
11
196.9186739999999816
21
-103.3712009999999992
0
LINE
8
BLACK
6
CONTINUOUS
10
196.9186739999999816
20
-103.3712009999999992
11
196.688069999999982
21
-103.4572099999999892
0
LINE
8
BLACK
6
CONTINUOUS
10
196.688069999999982
20
-103.4572099999999892
11
196.447574000000003
21
-103.5095249999999965
0
LINE
8
BLACK
6
CONTINUOUS
10
196.447574000000003
20
-103.5095249999999965
11
196.2021199999999794
21
-103.5270769999999914
0
LINE
8
BLACK
6
CONTINUOUS
10
196.2021199999999794
20
-103.5270769999999914
11
196.2020959999999832
21
-103.5270819999999929
0
LINE
8
BLACK
6
CONTINUOUS
10
196.2020959999999832
20
-103.5270819999999929
11
196.2020799999999952
21
-103.5270809999999955
0
LINE
8
BLACK
6
CONTINUOUS
10
196.2020799999999952
20
-103.5270809999999955
11
196.2020799999999952
21
-103.5270819999999929
0
LINE
8
BLACK
6
CONTINUOUS
10
196.2020799999999952
20
-103.5270819999999929
11
196.2020789999999977
21
-103.5270809999999955
0
LINE
8
BLACK
6
CONTINUOUS
10
196.2020789999999977
20
-103.5270809999999955
11
165.8699959999999862
21
-103.5249999999999915
0
LINE
8
BLACK
6
CONTINUOUS
10
165.8699959999999862
20
-103.5249999999999915
11
165.8699939999999913
21
-103.524998999999994
0
LINE
8
BLACK
6
CONTINUOUS
10
165.8699939999999913
20
-103.524998999999994
11
165.6245049999999992
21
-103.5074419999999975
0
LINE
8
BLACK
6
CONTINUOUS
10
165.6245049999999992
20
-103.5074419999999975
11
165.3840099999999893
21
-103.4551249999999953
0
LINE
8
BLACK
6
CONTINUOUS
10
165.3840099999999893
20
-103.4551249999999953
11
165.1534079999999847
21
-103.3691149999999936
0
LINE
8
BLACK
6
CONTINUOUS
10
165.1534079999999847
20
-103.3691149999999936
11
164.9373939999999834
21
-103.2511619999999937
0
LINE
8
BLACK
6
CONTINUOUS
10
164.9373939999999834
20
-103.2511619999999937
11
164.7403639999999996
21
-103.1036670000000015
0
LINE
8
BLACK
6
CONTINUOUS
10
164.7403639999999996
20
-103.1036670000000015
11
164.566330999999991
21
-102.929633999999993
0
LINE
8
BLACK
6
CONTINUOUS
10
164.566330999999991
20
-102.929633999999993
11
164.4188369999999964
21
-102.7326049999999924
0
LINE
8
BLACK
6
CONTINUOUS
10
164.4188369999999964
20
-102.7326049999999924
11
164.3008849999999939
21
-102.5165899999999937
0
LINE
8
BLACK
6
CONTINUOUS
10
164.3008849999999939
20
-102.5165899999999937
11
164.2148750000000064
21
-102.285987999999989
0
LINE
8
BLACK
6
CONTINUOUS
10
164.2148750000000064
20
-102.285987999999989
11
164.16255799999999
21
-102.0454929999999933
0
LINE
8
BLACK
6
CONTINUOUS
10
164.16255799999999
20
-102.0454929999999933
11
164.1449999999999818
21
-101.7999999999999972
0
LINE
8
BLACK
6
CONTINUOUS
10
164.1449999999999818
20
-101.7999999999999972
11
164.1449979999999869
21
-101.7999999999999972
0
LINE
8
BLACK
6
CONTINUOUS
10
164.1449979999999869
20
-101.7999999999999972
11
164.1452569999999866
21
-101.799201999999994
0
LINE
8
BLACK
6
CONTINUOUS
10
164.1452569999999866
20
-101.799201999999994
11
164.1449979999999869
21
-101.7978999999999985
0
LINE
8
BLACK
6
CONTINUOUS
10
164.1449979999999869
20
-101.7978999999999985
11
164.1449979999999869
21
-71.2020819999999901
0
LINE
8
BLACK
6
CONTINUOUS
10
164.1449979999999869
20
-71.2020819999999901
11
164.1452539999999942
21
-71.2007899999999978
0
LINE
8
BLACK
6
CONTINUOUS
10
164.1452539999999942
20
-71.2007899999999978
11
164.1449979999999869
21
-71.2000000000000028
0
LINE
8
BLACK
6
CONTINUOUS
10
164.1449979999999869
20
-71.2000000000000028
11
164.162555999999995
21
-70.9545069999999924
0
LINE
8
BLACK
6
CONTINUOUS
10
164.162555999999995
20
-70.9545069999999924
11
164.214872999999983
21
-70.7140109999999993
0
LINE
8
BLACK
6
CONTINUOUS
10
164.214872999999983
20
-70.7140109999999993
11
164.3008829999999989
21
-70.4834089999999946
0
LINE
8
BLACK
6
CONTINUOUS
10
164.3008829999999989
20
-70.4834089999999946
11
164.4188359999999989
21
-70.2673939999999959
0
LINE
8
BLACK
6
CONTINUOUS
10
164.4188359999999989
20
-70.2673939999999959
11
164.5663299999999936
21
-70.0703649999999953
0
LINE
8
BLACK
6
CONTINUOUS
10
164.5663299999999936
20
-70.0703649999999953
11
164.7403630000000021
21
-69.8963310000000035
0
LINE
8
BLACK
6
CONTINUOUS
10
164.7403630000000021
20
-69.8963310000000035
11
164.9373919999999885
21
-69.7488369999999946
0
LINE
8
BLACK
6
CONTINUOUS
10
164.9373919999999885
20
-69.7488369999999946
11
165.1534069999999872
21
-69.6308839999999947
0
LINE
8
BLACK
6
CONTINUOUS
10
165.1534069999999872
20
-69.6308839999999947
11
165.3840089999999918
21
-69.5448729999999955
0
LINE
8
BLACK
6
CONTINUOUS
10
165.3840089999999918
20
-69.5448729999999955
11
165.6245049999999992
21
-69.4925559999999933
0
LINE
8
BLACK
6
CONTINUOUS
10
165.6245049999999992
20
-69.4925559999999933
11
165.8699979999999812
21
-69.4749979999999994
0
LINE
8
BLACK
6
CONTINUOUS
10
165.8699979999999812
20
-69.4749979999999994
11
165.8699979999999812
21
-69.4749999999999943
0
LINE
8
BLACK
6
CONTINUOUS
10
165.513040999999987
20
-69.5590959999999967
11
165.2831500000000062
21
-69.6265989999999988
0
LINE
8
BLACK
6
CONTINUOUS
10
165.2831500000000062
20
-69.6265989999999988
11
165.0652049999999917
21
-69.7261309999999952
0
LINE
8
BLACK
6
CONTINUOUS
10
165.0652049999999917
20
-69.7261309999999952
11
164.8636429999999962
21
-69.8556669999999968
0
LINE
8
BLACK
6
CONTINUOUS
10
164.8636429999999962
20
-69.8556669999999968
11
164.6825680000000034
21
-70.0125699999999966
0
LINE
8
BLACK
6
CONTINUOUS
10
164.6825680000000034
20
-70.0125699999999966
11
164.5256660000000011
21
-70.1936450000000036
0
LINE
8
BLACK
6
CONTINUOUS
10
164.5256660000000011
20
-70.1936450000000036
11
164.3961299999999994
21
-70.3952069999999992
0
LINE
8
BLACK
6
CONTINUOUS
10
164.3961299999999994
20
-70.3952069999999992
11
164.2965979999999888
21
-70.6131519999999995
0
LINE
8
BLACK
6
CONTINUOUS
10
164.2965979999999888
20
-70.6131519999999995
11
164.2290959999999984
21
-70.8430429999999944
0
LINE
8
BLACK
6
CONTINUOUS
10
164.2290959999999984
20
-70.8430429999999944
11
164.1949979999999982
21
-71.0802019999999999
0
LINE
8
BLACK
6
CONTINUOUS
10
164.1949979999999982
20
-71.0802019999999999
11
164.1949979999999982
21
-71.2000000000000028
0
LINE
8
BLACK
6
CONTINUOUS
10
164.1949979999999982
20
-71.2000000000000028
11
164.1947409999999934
21
-71.2007899999999978
0
LINE
8
BLACK
6
CONTINUOUS
10
164.1947409999999934
20
-71.2007899999999978
11
164.1949979999999982
21
-71.2020819999999901
0
LINE
8
BLACK
6
CONTINUOUS
10
164.1949979999999982
20
-71.2020819999999901
11
164.1949979999999982
21
-101.7978999999999985
0
LINE
8
BLACK
6
CONTINUOUS
10
164.1949979999999982
20
-101.7978999999999985
11
164.194738000000001
21
-101.799201999999994
0
LINE
8
BLACK
6
CONTINUOUS
10
164.194738000000001
20
-101.799201999999994
11
164.1949979999999982
21
-101.7999999999999972
0
LINE
8
BLACK
6
CONTINUOUS
10
164.1949979999999982
20
-101.7999999999999972
11
164.1949999999999932
21
-101.7999999999999972
0
LINE
8
BLACK
6
CONTINUOUS
10
164.1949999999999932
20
-101.7999999999999972
11
164.1949999999999932
21
-101.9197980000000001
0
LINE
8
BLACK
6
CONTINUOUS
10
164.1949999999999932
20
-101.9197980000000001
11
164.2290979999999934
21
-102.1569559999999939
0
LINE
8
BLACK
6
CONTINUOUS
10
164.2290979999999934
20
-102.1569559999999939
11
164.2965999999999838
21
-102.3868469999999888
0
LINE
8
BLACK
6
CONTINUOUS
10
164.2965999999999838
20
-102.3868469999999888
11
164.3961319999999944
21
-102.6047919999999891
0
LINE
8
BLACK
6
CONTINUOUS
10
164.3961319999999944
20
-102.6047919999999891
11
164.5256669999999986
21
-102.8063539999999989
0
LINE
8
BLACK
6
CONTINUOUS
10
164.5256669999999986
20
-102.8063539999999989
11
164.6825699999999983
21
-102.9874289999999917
0
LINE
8
BLACK
6
CONTINUOUS
10
164.6825699999999983
20
-102.9874289999999917
11
164.8636449999999911
21
-103.144330999999994
0
LINE
8
BLACK
6
CONTINUOUS
10
164.8636449999999911
20
-103.144330999999994
11
165.0652059999999892
21
-103.2738669999999956
0
LINE
8
BLACK
6
CONTINUOUS
10
165.0652059999999892
20
-103.2738669999999956
11
165.2831510000000037
21
-103.373398999999992
0
LINE
8
BLACK
6
CONTINUOUS
10
165.2831510000000037
20
-103.373398999999992
11
165.5130419999999845
21
-103.4409019999999941
0
LINE
8
BLACK
6
CONTINUOUS
10
165.5130419999999845
20
-103.4409019999999941
11
165.7502000000000066
21
-103.4749999999999943
0
LINE
8
BLACK
6
CONTINUOUS
10
165.7502000000000066
20
-103.4749999999999943
11
165.8699979999999812
21
-103.4749999999999943
0
LINE
8
BLACK
6
CONTINUOUS
10
165.8699979999999812
20
-103.4749999999999943
11
165.8700000000000045
21
-103.4749999999999943
0
LINE
8
BLACK
6
CONTINUOUS
10
165.8700000000000045
20
-103.4749999999999943
11
196.2020799999999952
21
-103.4770809999999983
0
LINE
8
BLACK
6
CONTINUOUS
10
196.2020799999999952
20
-103.4770809999999983
11
196.2020799999999952
21
-103.4770800000000008
0
LINE
8
BLACK
6
CONTINUOUS
10
196.2020799999999952
20
-103.4770800000000008
11
196.3218789999999956
21
-103.4770819999999958
0
LINE
8
BLACK
6
CONTINUOUS
10
196.3218789999999956
20
-103.4770819999999958
11
196.5590379999999868
21
-103.4429859999999906
0
LINE
8
BLACK
6
CONTINUOUS
10
196.5590379999999868
20
-103.4429859999999906
11
196.7889299999999935
21
-103.3754849999999976
0
LINE
8
BLACK
6
CONTINUOUS
10
196.7889299999999935
20
-103.3754849999999976
11
197.006875999999977
21
-103.2759539999999987
0
LINE
8
BLACK
6
CONTINUOUS
10
197.006875999999977
20
-103.2759539999999987
11
197.2084389999999985
21
-103.1464189999999945
0
LINE
8
BLACK
6
CONTINUOUS
10
197.2084389999999985
20
-103.1464189999999945
11
197.3895149999999887
21
-102.9895159999999947
0
LINE
8
BLACK
6
CONTINUOUS
10
197.3895149999999887
20
-102.9895159999999947
11
197.5464179999999885
21
-102.8084399999999903
0
LINE
8
BLACK
6
CONTINUOUS
10
197.5464179999999885
20
-102.8084399999999903
11
197.6759529999999927
21
-102.6068779999999947
0
LINE
8
BLACK
6
CONTINUOUS
10
197.6759529999999927
20
-102.6068779999999947
11
197.7754839999999774
21
-102.3889319999999969
0
LINE
8
BLACK
6
CONTINUOUS
10
197.7754839999999774
20
-102.3889319999999969
11
197.8429849999999988
21
-102.1590399999999903
0
LINE
8
BLACK
6
CONTINUOUS
10
197.8429849999999988
20
-102.1590399999999903
11
197.8770820000000015
21
-101.9218809999999991
0
LINE
8
BLACK
6
CONTINUOUS
10
197.8770820000000015
20
-101.9218809999999991
11
197.8770799999999781
21
-101.8020819999999986
0
LINE
8
BLACK
6
CONTINUOUS
10
197.8770799999999781
20
-101.8020819999999986
11
197.8782609999999806
21
-101.7984459999999984
0
LINE
8
BLACK
6
CONTINUOUS
10
197.8782609999999806
20
-101.7984459999999984
11
197.875899000000004
21
-97.6041779999999903
0
LINE
8
BLACK
6
CONTINUOUS
10
197.875899000000004
20
-97.6041779999999903
11
197.8775109999999984
21
-97.5960489999999936
0
LINE
8
BLACK
6
CONTINUOUS
10
197.8775109999999984
20
-97.5960489999999936
11
197.8946399999999812
21
-97.3565889999999996
0
LINE
8
BLACK
6
CONTINUOUS
10
197.8946399999999812
20
-97.3565889999999996
11
197.9469589999999926
21
-97.1160950000000014
0
LINE
8
BLACK
6
CONTINUOUS
10
197.9469589999999926
20
-97.1160950000000014
11
198.0329699999999775
21
-96.8854939999999942
0
LINE
8
BLACK
6
CONTINUOUS
10
198.0329699999999775
20
-96.8854939999999942
11
198.1509229999999775
21
-96.669479999999993
0
LINE
8
BLACK
6
CONTINUOUS
10
198.1509229999999775
20
-96.669479999999993
11
198.2984170000000006
21
-96.4724519999999899
0
LINE
8
BLACK
6
CONTINUOUS
10
198.2984170000000006
20
-96.4724519999999899
11
198.4724499999999807
21
-96.2984189999999955
0
LINE
8
BLACK
6
CONTINUOUS
10
198.4724499999999807
20
-96.2984189999999955
11
198.6694789999999955
21
-96.1509239999999892
0
LINE
8
BLACK
6
CONTINUOUS
10
198.6694789999999955
20
-96.1509239999999892
11
198.8854919999999993
21
-96.0329709999999892
0
LINE
8
BLACK
6
CONTINUOUS
10
198.8854919999999993
20
-96.0329709999999892
11
199.116092999999978
21
-95.9469589999999926
0
LINE
8
BLACK
6
CONTINUOUS
10
199.116092999999978
20
-95.9469589999999926
11
199.3565869999999904
21
-95.8946409999999929
0
LINE
8
BLACK
6
CONTINUOUS
10
199.3565869999999904
20
-95.8946409999999929
11
199.5916619999999853
21
-95.8778250000000014
0
LINE
8
BLACK
6
CONTINUOUS
10
199.5916619999999853
20
-95.8778250000000014
11
199.5925149999999917
21
-95.8769729999999925
0
LINE
8
BLACK
6
CONTINUOUS
10
199.5925149999999917
20
-95.8769729999999925
11
199.6020819999999958
21
-95.8750709999999913
0
LINE
8
BLACK
6
CONTINUOUS
10
199.6020819999999958
20
-95.8750709999999913
11
225.1979179999999872
21
-95.8770820000000015
0
LINE
8
BLACK
6
CONTINUOUS
10
225.1979179999999872
20
-95.8770820000000015
11
225.1979189999999846
21
-95.8770820000000015
0
LINE
8
BLACK
6
CONTINUOUS
10
225.1979189999999846
20
-95.8770820000000015
11
225.4434090000000026
21
-95.8946419999999904
0
LINE
8
BLACK
6
CONTINUOUS
10
225.4434090000000026
20
-95.8946419999999904
11
225.6839029999999866
21
-95.94695999999999
0
LINE
8
BLACK
6
CONTINUOUS
10
225.6839029999999866
20
-95.94695999999999
11
225.9145049999999912
21
-96.0329709999999892
0
LINE
8
BLACK
6
CONTINUOUS
10
225.9145049999999912
20
-96.0329709999999892
11
226.130517999999995
21
-96.1509250000000009
0
LINE
8
BLACK
6
CONTINUOUS
10
226.130517999999995
20
-96.1509250000000009
11
226.3275469999999814
21
-96.2984189999999955
0
LINE
8
BLACK
6
CONTINUOUS
10
226.3275469999999814
20
-96.2984189999999955
11
226.5015799999999899
21
-96.4724509999999924
0
LINE
8
BLACK
6
CONTINUOUS
10
226.5015799999999899
20
-96.4724509999999924
11
226.6490739999999846
21
-96.669479999999993
0
LINE
8
BLACK
6
CONTINUOUS
10
226.6490739999999846
20
-96.669479999999993
11
226.7670279999999821
21
-96.8854939999999942
0
LINE
8
BLACK
6
CONTINUOUS
10
226.7670279999999821
20
-96.8854939999999942
11
226.8530389999999954
21
-97.1160950000000014
0
LINE
8
BLACK
6
CONTINUOUS
10
226.8530389999999954
20
-97.1160950000000014
11
226.9053579999999783
21
-97.3565889999999996
0
LINE
8
BLACK
6
CONTINUOUS
10
226.9053579999999783
20
-97.3565889999999996
11
226.9221879999999771
21
-97.5918810000000008
0
LINE
8
BLACK
6
CONTINUOUS
10
226.9221879999999771
20
-97.5918810000000008
11
226.9228099999999984
21
-97.5925019999999961
0
LINE
8
BLACK
6
CONTINUOUS
10
226.9228099999999984
20
-97.5925019999999961
11
226.9247179999999844
21
-97.6020679999999885
0
LINE
8
BLACK
6
CONTINUOUS
10
226.9247179999999844
20
-97.6020679999999885
11
226.9270809999999869
21
-101.7979039999999884
0
LINE
8
BLACK
6
CONTINUOUS
10
226.9270809999999869
20
-101.7979039999999884
11
226.9270779999999945
21
-101.7979139999999916
0
LINE
8
BLACK
6
CONTINUOUS
10
226.9270779999999945
20
-101.7979139999999916
11
226.9270799999999895
21
-101.7979179999999957
0
LINE
8
BLACK
6
CONTINUOUS
10
226.9270799999999895
20
-101.7979179999999957
11
226.9270819999999844
21
-101.7979179999999957
0
LINE
8
BLACK
6
CONTINUOUS
10
226.9270819999999844
20
-101.7979179999999957
11
226.9270829999999819
21
-101.9177159999999986
0
LINE
8
BLACK
6
CONTINUOUS
10
226.9270829999999819
20
-101.9177159999999986
11
226.961182999999977
21
-102.1548729999999949
0
LINE
8
BLACK
6
CONTINUOUS
10
226.961182999999977
20
-102.1548729999999949
11
227.0286859999999933
21
-102.3847629999999924
0
LINE
8
BLACK
6
CONTINUOUS
10
227.0286859999999933
20
-102.3847629999999924
11
227.1282190000000014
21
-102.6027069999999952
0
LINE
8
BLACK
6
CONTINUOUS
10
227.1282190000000014
20
-102.6027069999999952
11
227.2577550000000031
21
-102.8042669999999958
0
LINE
8
BLACK
6
CONTINUOUS
10
227.2577550000000031
20
-102.8042669999999958
11
227.414656999999977
21
-102.9853419999999886
0
LINE
8
BLACK
6
CONTINUOUS
10
227.414656999999977
20
-102.9853419999999886
11
227.5957310000000007
21
-103.1422439999999909
0
LINE
8
BLACK
6
CONTINUOUS
10
227.5957310000000007
20
-103.1422439999999909
11
227.7972919999999988
21
-103.2717799999999926
0
LINE
8
BLACK
6
CONTINUOUS
10
227.7972919999999988
20
-103.2717799999999926
11
228.0152349999999899
21
-103.3713130000000007
0
LINE
8
BLACK
6
CONTINUOUS
10
228.0152349999999899
20
-103.3713130000000007
11
228.2451250000000016
21
-103.4388170000000002
0
LINE
8
BLACK
6
CONTINUOUS
10
228.2451250000000016
20
-103.4388170000000002
11
228.4822819999999979
21
-103.4729169999999954
0
LINE
8
BLACK
6
CONTINUOUS
10
228.4822819999999979
20
-103.4729169999999954
11
228.6020800000000008
21
-103.4729179999999928
0
LINE
8
BLACK
6
CONTINUOUS
10
228.6020800000000008
20
-103.4729179999999928
11
228.6020859999999857
21
-103.472920000000002
0
LINE
8
BLACK
6
CONTINUOUS
10
228.6020859999999857
20
-103.472920000000002
11
228.6020979999999838
21
-103.4729179999999928
0
LINE
8
BLACK
6
CONTINUOUS
10
228.6020979999999838
20
-103.4729179999999928
11
247.8978979999999979
21
-103.4729179999999928
0
LINE
8
BLACK
6
CONTINUOUS
10
247.8978979999999979
20
-103.4729179999999928
11
247.8979089999999985
21
-103.472920000000002
0
LINE
8
BLACK
6
CONTINUOUS
10
247.8979089999999985
20
-103.472920000000002
11
247.8979159999999808
21
-103.4729179999999928
0
LINE
8
BLACK
6
CONTINUOUS
10
247.8979159999999808
20
-103.4729179999999928
11
247.8979159999999808
21
-103.4729159999999979
0
LINE
8
BLACK
6
CONTINUOUS
10
247.8979159999999808
20
-103.4729159999999979
11
248.0177139999999838
21
-103.4729150000000004
0
LINE
8
BLACK
6
CONTINUOUS
10
248.0177139999999838
20
-103.4729150000000004
11
248.2548709999999801
21
-103.4388149999999911
0
LINE
8
BLACK
6
CONTINUOUS
10
248.2548709999999801
20
-103.4388149999999911
11
248.4847609999999918
21
-103.371311999999989
0
LINE
8
BLACK
6
CONTINUOUS
10
248.4847609999999918
20
-103.371311999999989
11
248.7027049999999804
21
-103.2717789999999951
0
LINE
8
BLACK
6
CONTINUOUS
10
248.7027049999999804
20
-103.2717789999999951
11
248.9042659999999785
21
-103.1422439999999909
0
LINE
8
BLACK
6
CONTINUOUS
10
248.9042659999999785
20
-103.1422439999999909
11
249.0853400000000022
21
-102.9853419999999886
0
LINE
8
BLACK
6
CONTINUOUS
10
249.0853400000000022
20
-102.9853419999999886
11
249.2422419999999761
21
-102.8042669999999958
0
LINE
8
BLACK
6
CONTINUOUS
10
249.2422419999999761
20
-102.8042669999999958
11
249.3717789999999752
21
-102.6027069999999952
0
LINE
8
BLACK
6
CONTINUOUS
10
249.3717789999999752
20
-102.6027069999999952
11
249.4713109999999858
21
-102.3847629999999924
0
LINE
8
BLACK
6
CONTINUOUS
10
249.4713109999999858
20
-102.3847629999999924
11
249.5388149999999996
21
-102.1548729999999949
0
LINE
8
BLACK
6
CONTINUOUS
10
249.5388149999999996
20
-102.1548729999999949
11
249.5729149999999947
21
-101.9177159999999986
0
LINE
8
BLACK
6
CONTINUOUS
10
249.5729149999999947
20
-101.9177159999999986
11
249.5729159999999922
21
-101.7979179999999957
0
LINE
8
BLACK
6
CONTINUOUS
10
249.5729159999999922
20
-101.7979179999999957
11
249.5729179999999872
21
-101.7979109999999991
0
LINE
8
BLACK
6
CONTINUOUS
10
249.5729179999999872
20
-101.7979109999999991
11
249.5729159999999922
21
-101.7978999999999985
0
LINE
8
BLACK
6
CONTINUOUS
10
249.5729159999999922
20
-101.7978999999999985
11
249.5729159999999922
21
-87.6020819999999958
0
LINE
8
BLACK
6
CONTINUOUS
10
249.5729159999999922
20
-87.6020819999999958
11
249.5729169999999897
21
-87.6020709999999951
0
LINE
8
BLACK
6
CONTINUOUS
10
249.5729169999999897
20
-87.6020709999999951
11
249.5729169999999897
21
-87.4822839999999928
0
LINE
8
BLACK
6
CONTINUOUS
10
249.5729169999999897
20
-87.4822839999999928
11
249.5388169999999946
21
-87.2451269999999965
0
LINE
8
BLACK
6
CONTINUOUS
10
249.5388169999999946
20
-87.2451269999999965
11
249.4713129999999808
21
-87.0152360000000016
0
LINE
8
BLACK
6
CONTINUOUS
10
249.4713129999999808
20
-87.0152360000000016
11
249.3717800000000011
21
-86.7972919999999988
0
LINE
8
BLACK
6
CONTINUOUS
10
249.3717800000000011
20
-86.7972919999999988
11
249.2422439999999995
21
-86.5957319999999982
0
LINE
8
BLACK
6
CONTINUOUS
10
249.2422439999999995
20
-86.5957319999999982
11
249.0853419999999971
21
-86.4146569999999912
0
LINE
8
BLACK
6
CONTINUOUS
10
249.0853419999999971
20
-86.4146569999999912
11
248.904266999999976
21
-86.2577550000000031
0
LINE
8
BLACK
6
CONTINUOUS
10
248.904266999999976
20
-86.2577550000000031
11
248.7027059999999778
21
-86.1282190000000014
0
LINE
8
BLACK
6
CONTINUOUS
10
248.7027059999999778
20
-86.1282190000000014
11
248.4847619999999893
21
-86.0286859999999933
0
LINE
8
BLACK
6
CONTINUOUS
10
248.4847619999999893
20
-86.0286859999999933
11
248.2548709999999801
21
-85.9611829999999912
0
LINE
8
BLACK
6
CONTINUOUS
10
248.2548709999999801
20
-85.9611829999999912
11
248.0177139999999838
21
-85.9270829999999961
0
LINE
8
BLACK
6
CONTINUOUS
10
248.0177139999999838
20
-85.9270829999999961
11
247.8979159999999808
21
-85.9270819999999986
0
LINE
8
BLACK
6
CONTINUOUS
10
247.8979159999999808
20
-85.9270819999999986
11
247.8978929999999821
21
-85.9270739999999904
0
LINE
8
BLACK
6
CONTINUOUS
10
247.8978929999999821
20
-85.9270739999999904
11
247.8978569999999877
21
-85.9270819999999986
0
LINE
8
BLACK
6
CONTINUOUS
10
247.8978569999999877
20
-85.9270819999999986
11
236.2499419999999759
21
-85.8999999999999915
0
LINE
8
BLACK
6
CONTINUOUS
10
236.2499419999999759
20
-85.8999999999999915
11
236.2405029999999897
21
-85.898099000000002
0
LINE
8
BLACK
6
CONTINUOUS
10
236.2405029999999897
20
-85.898099000000002
11
236.2404409999999757
21
-85.8980999999999995
0
LINE
8
BLACK
6
CONTINUOUS
10
236.2404409999999757
20
-85.8980999999999995
11
236.2404249999999877
21
-85.8980839999999972
0
LINE
8
BLACK
6
CONTINUOUS
10
236.2404249999999877
20
-85.8980839999999972
11
236.2403789999999901
21
-85.8980749999999915
0
LINE
8
BLACK
6
CONTINUOUS
10
236.2403789999999901
20
-85.8980749999999915
11
236.2336349999999925
21
-85.8912989999999894
0
LINE
8
BLACK
6
CONTINUOUS
10
236.2336349999999925
20
-85.8912989999999894
11
236.2269059999999854
21
-85.8845749999999981
0
LINE
8
BLACK
6
CONTINUOUS
10
236.2269059999999854
20
-85.8845749999999981
11
236.2268959999999822
21
-85.8845280000000031
0
LINE
8
BLACK
6
CONTINUOUS
10
236.2268959999999822
20
-85.8845280000000031
11
236.2268809999999917
21
-85.8845129999999983
0
LINE
8
BLACK
6
CONTINUOUS
10
236.2268809999999917
20
-85.8845129999999983
11
236.2268809999999917
21
-85.8844500000000011
0
LINE
8
BLACK
6
CONTINUOUS
10
236.2268809999999917
20
-85.8844500000000011
11
236.2249999999999943
21
-85.875007999999994
0
LINE
8
BLACK
6
CONTINUOUS
10
236.2249999999999943
20
-85.875007999999994
11
236.2229239999999777
21
-79.7921089999999964
0
LINE
8
BLACK
6
CONTINUOUS
10
236.2229239999999777
20
-79.7921089999999964
11
236.222927999999996
21
-79.7920879999999926
0
LINE
8
BLACK
6
CONTINUOUS
10
236.222927999999996
20
-79.7920879999999926
11
236.2229239999999777
21
-79.7920759999999945
0
LINE
8
BLACK
6
CONTINUOUS
10
236.2229239999999777
20
-79.7920759999999945
11
236.2229229999999802
21
-79.6722779999999915
0
LINE
8
BLACK
6
CONTINUOUS
10
236.2229229999999802
20
-79.6722779999999915
11
236.1888219999999876
21
-79.4351219999999927
0
LINE
8
BLACK
6
CONTINUOUS
10
236.1888219999999876
20
-79.4351219999999927
11
236.1213180000000023
21
-79.2052319999999952
0
LINE
8
BLACK
6
CONTINUOUS
10
236.1213180000000023
20
-79.2052319999999952
11
236.0217849999999942
21
-78.9872879999999924
0
LINE
8
BLACK
6
CONTINUOUS
10
236.0217849999999942
20
-78.9872879999999924
11
235.8922489999999925
21
-78.7857279999999918
0
LINE
8
BLACK
6
CONTINUOUS
10
235.8922489999999925
20
-78.7857279999999918
11
235.7353469999999902
21
-78.604652999999999
0
LINE
8
BLACK
6
CONTINUOUS
10
235.7353469999999902
20
-78.604652999999999
11
235.5542719999999974
21
-78.4477509999999967
0
LINE
8
BLACK
6
CONTINUOUS
10
235.5542719999999974
20
-78.4477509999999967
11
235.3527119999999968
21
-78.318214999999995
0
LINE
8
BLACK
6
CONTINUOUS
10
235.3527119999999968
20
-78.318214999999995
11
235.1347679999999798
21
-78.2186820000000012
0
LINE
8
BLACK
6
CONTINUOUS
10
235.1347679999999798
20
-78.2186820000000012
11
234.9048779999999965
21
-78.1511780000000016
0
LINE
8
BLACK
6
CONTINUOUS
10
234.9048779999999965
20
-78.1511780000000016
11
234.6677219999999977
21
-78.1170769999999948
0
LINE
8
BLACK
6
CONTINUOUS
10
234.6677219999999977
20
-78.1170769999999948
11
234.5479239999999947
21
-78.1170759999999973
0
LINE
8
BLACK
6
CONTINUOUS
10
234.5479239999999947
20
-78.1170759999999973
11
234.5479159999999865
21
-78.1170729999999907
0
LINE
8
BLACK
6
CONTINUOUS
10
234.5479159999999865
20
-78.1170729999999907
11
234.5479049999999859
21
-78.1170759999999973
0
LINE
8
BLACK
6
CONTINUOUS
10
234.5479049999999859
20
-78.1170759999999973
11
203.002081000000004
21
-78.1229170000000011
0
LINE
8
BLACK
6
CONTINUOUS
10
203.002081000000004
20
-78.1229170000000011
11
203.0020799999999781
21
-78.1229179999999985
0
LINE
8
BLACK
6
CONTINUOUS
10
203.0020799999999781
20
-78.1229179999999985
11
203.0020739999999932
21
-78.1229170000000011
0
LINE
8
BLACK
6
CONTINUOUS
10
203.0020739999999932
20
-78.1229170000000011
11
203.0000029999999924
21
-78.1229179999999985
0
LINE
8
BLACK
6
CONTINUOUS
10
203.0000029999999924
20
-78.1229179999999985
11
202.998833999999988
21
-78.1226849999999899
0
LINE
8
BLACK
6
CONTINUOUS
10
202.998833999999988
20
-78.1226849999999899
11
202.7565879999999936
21
-78.1053569999999979
0
LINE
8
BLACK
6
CONTINUOUS
10
202.7565879999999936
20
-78.1053569999999979
11
202.5160939999999812
21
-78.0530389999999983
0
LINE
8
BLACK
6
CONTINUOUS
10
202.5160939999999812
20
-78.0530389999999983
11
202.2854930000000024
21
-77.9670279999999991
0
LINE
8
BLACK
6
CONTINUOUS
10
202.2854930000000024
20
-77.9670279999999991
11
202.0694799999999987
21
-77.8490740000000017
0
LINE
8
BLACK
6
CONTINUOUS
10
202.0694799999999987
20
-77.8490740000000017
11
201.8724509999999839
21
-77.7015799999999928
0
LINE
8
BLACK
6
CONTINUOUS
10
201.8724509999999839
20
-77.7015799999999928
11
201.6984190000000012
21
-77.5275469999999984
0
LINE
8
BLACK
6
CONTINUOUS
10
201.6984190000000012
20
-77.5275469999999984
11
201.5509249999999781
21
-77.3305189999999953
0
LINE
8
BLACK
6
CONTINUOUS
10
201.5509249999999781
20
-77.3305189999999953
11
201.4329719999999782
21
-77.1145049999999941
0
LINE
8
BLACK
6
CONTINUOUS
10
201.4329719999999782
20
-77.1145049999999941
11
201.3469609999999932
21
-76.8839049999999986
0
LINE
8
BLACK
6
CONTINUOUS
10
201.3469609999999932
20
-76.8839049999999986
11
201.2946419999999819
21
-76.6434100000000029
0
LINE
8
BLACK
6
CONTINUOUS
10
201.2946419999999819
20
-76.6434100000000029
11
201.2770819999999787
21
-76.39791799999999
0
LINE
8
BLACK
6
CONTINUOUS
10
201.2770819999999787
20
-76.39791799999999
11
201.2770799999999838
21
-76.39791799999999
0
LINE
8
BLACK
6
CONTINUOUS
10
201.2770799999999838
20
-76.39791799999999
11
201.2770799999999838
21
-76.3979140000000001
0
LINE
8
BLACK
6
CONTINUOUS
10
201.2770799999999838
20
-76.3979140000000001
11
201.2770799999999838
21
-76.397909999999996
0
LINE
8
BLACK
6
CONTINUOUS
10
201.2770799999999838
20
-76.397909999999996
11
201.2749979999999823
21
-71.2021099999999905
0
LINE
8
BLACK
6
CONTINUOUS
10
201.2749979999999823
20
-71.2021099999999905
11
201.2768969999999911
21
-71.1925420000000031
0
LINE
8
BLACK
6
CONTINUOUS
10
201.2768969999999911
20
-71.1925420000000031
11
201.2770989999999927
21
-71.1923379999999923
0
LINE
8
BLACK
6
CONTINUOUS
10
201.2770989999999927
20
-71.1923379999999923
11
201.2770989999999927
21
-71.0821339999999964
0
LINE
8
BLACK
6
CONTINUOUS
10
201.2770989999999927
20
-71.0821339999999964
11
201.2429559999999924
21
-70.8446809999999942
0
LINE
8
BLACK
6
CONTINUOUS
10
201.2429559999999924
20
-70.8446809999999942
11
201.1753669999999943
21
-70.6145029999999991
0
LINE
8
BLACK
6
CONTINUOUS
10
201.1753669999999943
20
-70.6145029999999991
11
201.0757089999999891
21
-70.3962870000000009
0
LINE
8
BLACK
6
CONTINUOUS
10
201.0757089999999891
20
-70.3962870000000009
11
200.9460100000000011
21
-70.1944749999999971
0
LINE
8
BLACK
6
CONTINUOUS
10
200.9460100000000011
20
-70.1944749999999971
11
200.7889109999999846
21
-70.0131750000000039
0
LINE
8
BLACK
6
CONTINUOUS
10
200.7889109999999846
20
-70.0131750000000039
11
200.6076089999999965
21
-69.8560779999999966
0
LINE
8
BLACK
6
CONTINUOUS
10
200.6076089999999965
20
-69.8560779999999966
11
200.4057949999999835
21
-69.7263810000000035
0
LINE
8
BLACK
6
CONTINUOUS
10
200.4057949999999835
20
-69.7263810000000035
11
200.187578000000002
21
-69.6267259999999908
0
LINE
8
BLACK
6
CONTINUOUS
10
200.187578000000002
20
-69.6267259999999908
11
199.9573999999999785
21
-69.5591399999999993
0
LINE
8
BLACK
6
CONTINUOUS
10
199.9573999999999785
20
-69.5591399999999993
11
199.7199459999999931
21
-69.5249999999999915
0
LINE
8
BLACK
6
CONTINUOUS
10
199.7199459999999931
20
-69.5249999999999915
11
199.6097439999999779
21
-69.5249999999999915
0
LINE
8
BLACK
6
CONTINUOUS
10
199.6097439999999779
20
-69.5249999999999915
11
199.6095639999999776
21
-69.5251799999999918
0
LINE
8
BLACK
6
CONTINUOUS
10
199.6095639999999776
20
-69.5251799999999918
11
199.5999960000000044
21
-69.5270819999999929
0
LINE
8
BLACK
6
CONTINUOUS
10
199.5999960000000044
20
-69.5270819999999929
11
165.8699959999999862
21
-69.5249999999999915
0
LINE
8
BLACK
6
CONTINUOUS
10
165.8699959999999862
20
-69.5249999999999915
11
165.8699859999999831
21
-69.5249979999999965
0
LINE
8
BLACK
6
CONTINUOUS
10
165.8699859999999831
20
-69.5249979999999965
11
165.7502000000000066
21
-69.5249979999999965
0
LINE
8
BLACK
6
CONTINUOUS
10
165.7502000000000066
20
-69.5249979999999965
11
165.513040999999987
21
-69.5590959999999967
  0
ENDSEC
  0
EOF
