%TF.GenerationSoftware,KiCad,Pcbnew,9.0.0*%
%TF.CreationDate,2025-04-27T09:25:50-07:00*%
%TF.ProjectId,c7k-rt,63376b2d-7274-42e6-9b69-6361645f7063,rev?*%
%TF.SameCoordinates,Original*%
%TF.FileFunction,Soldermask,Bot*%
%TF.FilePolarity,Negative*%
%FSLAX46Y46*%
G04 Gerber Fmt 4.6, Leading zero omitted, Abs format (unit mm)*
G04 Created by KiCad (PCBNEW 9.0.0) date 2025-04-27 09:25:50*
%MOMM*%
%LPD*%
G01*
G04 APERTURE LIST*
G04 Aperture macros list*
%AMRoundRect*
0 Rectangle with rounded corners*
0 $1 Rounding radius*
0 $2 $3 $4 $5 $6 $7 $8 $9 X,Y pos of 4 corners*
0 Add a 4 corners polygon primitive as box body*
4,1,4,$2,$3,$4,$5,$6,$7,$8,$9,$2,$3,0*
0 Add four circle primitives for the rounded corners*
1,1,$1+$1,$2,$3*
1,1,$1+$1,$4,$5*
1,1,$1+$1,$6,$7*
1,1,$1+$1,$8,$9*
0 Add four rect primitives between the rounded corners*
20,1,$1+$1,$2,$3,$4,$5,0*
20,1,$1+$1,$4,$5,$6,$7,0*
20,1,$1+$1,$6,$7,$8,$9,0*
20,1,$1+$1,$8,$9,$2,$3,0*%
%AMFreePoly0*
4,1,6,1.000000,0.000000,0.500000,-0.750000,-0.500000,-0.750000,-0.500000,0.750000,0.500000,0.750000,1.000000,0.000000,1.000000,0.000000,$1*%
%AMFreePoly1*
4,1,6,0.500000,-0.750000,-0.650000,-0.750000,-0.150000,0.000000,-0.650000,0.750000,0.500000,0.750000,0.500000,-0.750000,0.500000,-0.750000,$1*%
G04 Aperture macros list end*
%ADD10C,2.000000*%
%ADD11C,1.701800*%
%ADD12C,3.000000*%
%ADD13C,3.429000*%
%ADD14R,2.600000X2.600000*%
%ADD15FreePoly0,90.000000*%
%ADD16FreePoly1,90.000000*%
%ADD17RoundRect,0.250000X-0.350000X-0.450000X0.350000X-0.450000X0.350000X0.450000X-0.350000X0.450000X0*%
%ADD18RoundRect,0.125000X-0.825000X-0.125000X0.825000X-0.125000X0.825000X0.125000X-0.825000X0.125000X0*%
%ADD19RoundRect,0.250000X-0.450000X0.350000X-0.450000X-0.350000X0.450000X-0.350000X0.450000X0.350000X0*%
%ADD20RoundRect,0.150000X-0.150000X-0.625000X0.150000X-0.625000X0.150000X0.625000X-0.150000X0.625000X0*%
%ADD21RoundRect,0.250000X-0.350000X-0.650000X0.350000X-0.650000X0.350000X0.650000X-0.350000X0.650000X0*%
%ADD22RoundRect,0.250000X-0.565685X-0.070711X-0.070711X-0.565685X0.565685X0.070711X0.070711X0.565685X0*%
G04 APERTURE END LIST*
%TO.C,JP1*%
G36*
X183020000Y-75630000D02*
G01*
X181520000Y-75630000D01*
X181520000Y-73180000D01*
X183020000Y-73180000D01*
X183020000Y-75630000D01*
G37*
%TD*%
D10*
%TO.C,SW4*%
X167520000Y-78505000D03*
X167520000Y-74005000D03*
X170010000Y-79755000D03*
X170010000Y-72745000D03*
%TD*%
%TO.C,SW5*%
X167510000Y-89090000D03*
X167510000Y-84590000D03*
X170000000Y-90340000D03*
X170000000Y-83330000D03*
%TD*%
D11*
%TO.C,SW0*%
X244700000Y-94850000D03*
D12*
X244200000Y-91100000D03*
D13*
X239200000Y-94850000D03*
D12*
X239200000Y-88900000D03*
D11*
X233700000Y-94850000D03*
D14*
X235925000Y-88900000D03*
X247475000Y-91100000D03*
%TD*%
D10*
%TO.C,SW6*%
X167510000Y-99685000D03*
X167510000Y-95185000D03*
X170000000Y-100935000D03*
X170000000Y-93925000D03*
%TD*%
D11*
%TO.C,SW2*%
X206700000Y-87320000D03*
D12*
X206200000Y-83570000D03*
D13*
X201200000Y-87320000D03*
D12*
X201200000Y-81370000D03*
D11*
X195700000Y-87320000D03*
D14*
X197925000Y-81370000D03*
X209475000Y-83570000D03*
%TD*%
D11*
%TO.C,SW3*%
X187700000Y-94950000D03*
D12*
X187200000Y-91200000D03*
D13*
X182200000Y-94950000D03*
D12*
X182200000Y-89000000D03*
D11*
X176700000Y-94950000D03*
D14*
X178925000Y-89000000D03*
X190475000Y-91200000D03*
%TD*%
D11*
%TO.C,SW1*%
X225700000Y-87320000D03*
D12*
X225200000Y-83570000D03*
D13*
X220200000Y-87320000D03*
D12*
X220200000Y-81370000D03*
D11*
X214700000Y-87320000D03*
D14*
X216925000Y-81370000D03*
X228475000Y-83570000D03*
%TD*%
D15*
%TO.C,JP1*%
X182270000Y-75130000D03*
D16*
X182270000Y-73680000D03*
%TD*%
D17*
%TO.C,R1*%
X174263627Y-81270000D03*
X176263627Y-81270000D03*
%TD*%
D18*
%TO.C,U1*%
X179930000Y-84755000D03*
X179930000Y-84105000D03*
X179930000Y-83455000D03*
X179930000Y-82805000D03*
X179930000Y-82155000D03*
X179930000Y-81505000D03*
X179930000Y-80855000D03*
X179930000Y-80205000D03*
X179930000Y-79555000D03*
X179930000Y-78905000D03*
X186930000Y-78905000D03*
X186930000Y-79555000D03*
X186930000Y-80205000D03*
X186930000Y-80855000D03*
X186930000Y-81505000D03*
X186930000Y-82155000D03*
X186930000Y-82805000D03*
X186930000Y-83455000D03*
X186930000Y-84105000D03*
X186930000Y-84755000D03*
%TD*%
D19*
%TO.C,R3*%
X179190000Y-72640000D03*
X179190000Y-74640000D03*
%TD*%
D17*
%TO.C,R4*%
X174263627Y-78420000D03*
X176263627Y-78420000D03*
%TD*%
%TO.C,R6*%
X189840000Y-83430000D03*
X191840000Y-83430000D03*
%TD*%
D20*
%TO.C,J1*%
X187580000Y-75400000D03*
X188580000Y-75400000D03*
X189580000Y-75400000D03*
X190580000Y-75400000D03*
D21*
X186280000Y-71525000D03*
X191880000Y-71525000D03*
%TD*%
D22*
%TO.C,R5*%
X174452893Y-74282893D03*
X175867107Y-75697107D03*
%TD*%
D17*
%TO.C,R2*%
X174263627Y-84350000D03*
X176263627Y-84350000D03*
%TD*%
M02*
